G04 #@! TF.GenerationSoftware,KiCad,Pcbnew,8.0.6*
G04 #@! TF.CreationDate,2024-10-20T21:42:17+02:00*
G04 #@! TF.ProjectId,macropad,6d616372-6f70-4616-942e-6b696361645f,v7.6*
G04 #@! TF.SameCoordinates,Original*
G04 #@! TF.FileFunction,AssemblyDrawing,Top*
%FSLAX46Y46*%
G04 Gerber Fmt 4.6, Leading zero omitted, Abs format (unit mm)*
G04 Created by KiCad (PCBNEW 8.0.6) date 2024-10-20 21:42:17*
%MOMM*%
%LPD*%
G01*
G04 APERTURE LIST*
%ADD10C,0.150000*%
%ADD11C,0.100000*%
G04 APERTURE END LIST*
D10*
X8083333Y-65204819D02*
X8083333Y-64204819D01*
X8654761Y-65204819D02*
X8226190Y-64633390D01*
X8654761Y-64204819D02*
X8083333Y-64776247D01*
X9511904Y-65204819D02*
X9511904Y-64681009D01*
X9511904Y-64681009D02*
X9464285Y-64585771D01*
X9464285Y-64585771D02*
X9369047Y-64538152D01*
X9369047Y-64538152D02*
X9178571Y-64538152D01*
X9178571Y-64538152D02*
X9083333Y-64585771D01*
X9511904Y-65157200D02*
X9416666Y-65204819D01*
X9416666Y-65204819D02*
X9178571Y-65204819D01*
X9178571Y-65204819D02*
X9083333Y-65157200D01*
X9083333Y-65157200D02*
X9035714Y-65061961D01*
X9035714Y-65061961D02*
X9035714Y-64966723D01*
X9035714Y-64966723D02*
X9083333Y-64871485D01*
X9083333Y-64871485D02*
X9178571Y-64823866D01*
X9178571Y-64823866D02*
X9416666Y-64823866D01*
X9416666Y-64823866D02*
X9511904Y-64776247D01*
X9988095Y-65204819D02*
X9988095Y-64538152D01*
X9988095Y-64204819D02*
X9940476Y-64252438D01*
X9940476Y-64252438D02*
X9988095Y-64300057D01*
X9988095Y-64300057D02*
X10035714Y-64252438D01*
X10035714Y-64252438D02*
X9988095Y-64204819D01*
X9988095Y-64204819D02*
X9988095Y-64300057D01*
X10607142Y-65204819D02*
X10511904Y-65157200D01*
X10511904Y-65157200D02*
X10464285Y-65061961D01*
X10464285Y-65061961D02*
X10464285Y-64204819D01*
X10988095Y-65204819D02*
X10988095Y-64204819D01*
X11416666Y-65204819D02*
X11416666Y-64681009D01*
X11416666Y-64681009D02*
X11369047Y-64585771D01*
X11369047Y-64585771D02*
X11273809Y-64538152D01*
X11273809Y-64538152D02*
X11130952Y-64538152D01*
X11130952Y-64538152D02*
X11035714Y-64585771D01*
X11035714Y-64585771D02*
X10988095Y-64633390D01*
X13226190Y-65109580D02*
X13178571Y-65157200D01*
X13178571Y-65157200D02*
X13035714Y-65204819D01*
X13035714Y-65204819D02*
X12940476Y-65204819D01*
X12940476Y-65204819D02*
X12797619Y-65157200D01*
X12797619Y-65157200D02*
X12702381Y-65061961D01*
X12702381Y-65061961D02*
X12654762Y-64966723D01*
X12654762Y-64966723D02*
X12607143Y-64776247D01*
X12607143Y-64776247D02*
X12607143Y-64633390D01*
X12607143Y-64633390D02*
X12654762Y-64442914D01*
X12654762Y-64442914D02*
X12702381Y-64347676D01*
X12702381Y-64347676D02*
X12797619Y-64252438D01*
X12797619Y-64252438D02*
X12940476Y-64204819D01*
X12940476Y-64204819D02*
X13035714Y-64204819D01*
X13035714Y-64204819D02*
X13178571Y-64252438D01*
X13178571Y-64252438D02*
X13226190Y-64300057D01*
X13654762Y-65204819D02*
X13654762Y-64204819D01*
X14083333Y-65204819D02*
X14083333Y-64681009D01*
X14083333Y-64681009D02*
X14035714Y-64585771D01*
X14035714Y-64585771D02*
X13940476Y-64538152D01*
X13940476Y-64538152D02*
X13797619Y-64538152D01*
X13797619Y-64538152D02*
X13702381Y-64585771D01*
X13702381Y-64585771D02*
X13654762Y-64633390D01*
X14702381Y-65204819D02*
X14607143Y-65157200D01*
X14607143Y-65157200D02*
X14559524Y-65109580D01*
X14559524Y-65109580D02*
X14511905Y-65014342D01*
X14511905Y-65014342D02*
X14511905Y-64728628D01*
X14511905Y-64728628D02*
X14559524Y-64633390D01*
X14559524Y-64633390D02*
X14607143Y-64585771D01*
X14607143Y-64585771D02*
X14702381Y-64538152D01*
X14702381Y-64538152D02*
X14845238Y-64538152D01*
X14845238Y-64538152D02*
X14940476Y-64585771D01*
X14940476Y-64585771D02*
X14988095Y-64633390D01*
X14988095Y-64633390D02*
X15035714Y-64728628D01*
X15035714Y-64728628D02*
X15035714Y-65014342D01*
X15035714Y-65014342D02*
X14988095Y-65109580D01*
X14988095Y-65109580D02*
X14940476Y-65157200D01*
X14940476Y-65157200D02*
X14845238Y-65204819D01*
X14845238Y-65204819D02*
X14702381Y-65204819D01*
X15892857Y-65157200D02*
X15797619Y-65204819D01*
X15797619Y-65204819D02*
X15607143Y-65204819D01*
X15607143Y-65204819D02*
X15511905Y-65157200D01*
X15511905Y-65157200D02*
X15464286Y-65109580D01*
X15464286Y-65109580D02*
X15416667Y-65014342D01*
X15416667Y-65014342D02*
X15416667Y-64728628D01*
X15416667Y-64728628D02*
X15464286Y-64633390D01*
X15464286Y-64633390D02*
X15511905Y-64585771D01*
X15511905Y-64585771D02*
X15607143Y-64538152D01*
X15607143Y-64538152D02*
X15797619Y-64538152D01*
X15797619Y-64538152D02*
X15892857Y-64585771D01*
X16940477Y-64204819D02*
X17273810Y-65204819D01*
X17273810Y-65204819D02*
X17607143Y-64204819D01*
X17892858Y-64300057D02*
X17940477Y-64252438D01*
X17940477Y-64252438D02*
X18035715Y-64204819D01*
X18035715Y-64204819D02*
X18273810Y-64204819D01*
X18273810Y-64204819D02*
X18369048Y-64252438D01*
X18369048Y-64252438D02*
X18416667Y-64300057D01*
X18416667Y-64300057D02*
X18464286Y-64395295D01*
X18464286Y-64395295D02*
X18464286Y-64490533D01*
X18464286Y-64490533D02*
X18416667Y-64633390D01*
X18416667Y-64633390D02*
X17845239Y-65204819D01*
X17845239Y-65204819D02*
X18464286Y-65204819D01*
X11916667Y-56157200D02*
X12059524Y-56204819D01*
X12059524Y-56204819D02*
X12297619Y-56204819D01*
X12297619Y-56204819D02*
X12392857Y-56157200D01*
X12392857Y-56157200D02*
X12440476Y-56109580D01*
X12440476Y-56109580D02*
X12488095Y-56014342D01*
X12488095Y-56014342D02*
X12488095Y-55919104D01*
X12488095Y-55919104D02*
X12440476Y-55823866D01*
X12440476Y-55823866D02*
X12392857Y-55776247D01*
X12392857Y-55776247D02*
X12297619Y-55728628D01*
X12297619Y-55728628D02*
X12107143Y-55681009D01*
X12107143Y-55681009D02*
X12011905Y-55633390D01*
X12011905Y-55633390D02*
X11964286Y-55585771D01*
X11964286Y-55585771D02*
X11916667Y-55490533D01*
X11916667Y-55490533D02*
X11916667Y-55395295D01*
X11916667Y-55395295D02*
X11964286Y-55300057D01*
X11964286Y-55300057D02*
X12011905Y-55252438D01*
X12011905Y-55252438D02*
X12107143Y-55204819D01*
X12107143Y-55204819D02*
X12345238Y-55204819D01*
X12345238Y-55204819D02*
X12488095Y-55252438D01*
X12821429Y-55204819D02*
X13059524Y-56204819D01*
X13059524Y-56204819D02*
X13250000Y-55490533D01*
X13250000Y-55490533D02*
X13440476Y-56204819D01*
X13440476Y-56204819D02*
X13678572Y-55204819D01*
X14488095Y-55538152D02*
X14488095Y-56204819D01*
X14250000Y-55157200D02*
X14011905Y-55871485D01*
X14011905Y-55871485D02*
X14630952Y-55871485D01*
X44083333Y-99204819D02*
X44083333Y-98204819D01*
X44654761Y-99204819D02*
X44226190Y-98633390D01*
X44654761Y-98204819D02*
X44083333Y-98776247D01*
X45511904Y-99204819D02*
X45511904Y-98681009D01*
X45511904Y-98681009D02*
X45464285Y-98585771D01*
X45464285Y-98585771D02*
X45369047Y-98538152D01*
X45369047Y-98538152D02*
X45178571Y-98538152D01*
X45178571Y-98538152D02*
X45083333Y-98585771D01*
X45511904Y-99157200D02*
X45416666Y-99204819D01*
X45416666Y-99204819D02*
X45178571Y-99204819D01*
X45178571Y-99204819D02*
X45083333Y-99157200D01*
X45083333Y-99157200D02*
X45035714Y-99061961D01*
X45035714Y-99061961D02*
X45035714Y-98966723D01*
X45035714Y-98966723D02*
X45083333Y-98871485D01*
X45083333Y-98871485D02*
X45178571Y-98823866D01*
X45178571Y-98823866D02*
X45416666Y-98823866D01*
X45416666Y-98823866D02*
X45511904Y-98776247D01*
X45988095Y-99204819D02*
X45988095Y-98538152D01*
X45988095Y-98204819D02*
X45940476Y-98252438D01*
X45940476Y-98252438D02*
X45988095Y-98300057D01*
X45988095Y-98300057D02*
X46035714Y-98252438D01*
X46035714Y-98252438D02*
X45988095Y-98204819D01*
X45988095Y-98204819D02*
X45988095Y-98300057D01*
X46607142Y-99204819D02*
X46511904Y-99157200D01*
X46511904Y-99157200D02*
X46464285Y-99061961D01*
X46464285Y-99061961D02*
X46464285Y-98204819D01*
X46988095Y-99204819D02*
X46988095Y-98204819D01*
X47416666Y-99204819D02*
X47416666Y-98681009D01*
X47416666Y-98681009D02*
X47369047Y-98585771D01*
X47369047Y-98585771D02*
X47273809Y-98538152D01*
X47273809Y-98538152D02*
X47130952Y-98538152D01*
X47130952Y-98538152D02*
X47035714Y-98585771D01*
X47035714Y-98585771D02*
X46988095Y-98633390D01*
X49226190Y-99109580D02*
X49178571Y-99157200D01*
X49178571Y-99157200D02*
X49035714Y-99204819D01*
X49035714Y-99204819D02*
X48940476Y-99204819D01*
X48940476Y-99204819D02*
X48797619Y-99157200D01*
X48797619Y-99157200D02*
X48702381Y-99061961D01*
X48702381Y-99061961D02*
X48654762Y-98966723D01*
X48654762Y-98966723D02*
X48607143Y-98776247D01*
X48607143Y-98776247D02*
X48607143Y-98633390D01*
X48607143Y-98633390D02*
X48654762Y-98442914D01*
X48654762Y-98442914D02*
X48702381Y-98347676D01*
X48702381Y-98347676D02*
X48797619Y-98252438D01*
X48797619Y-98252438D02*
X48940476Y-98204819D01*
X48940476Y-98204819D02*
X49035714Y-98204819D01*
X49035714Y-98204819D02*
X49178571Y-98252438D01*
X49178571Y-98252438D02*
X49226190Y-98300057D01*
X49654762Y-99204819D02*
X49654762Y-98204819D01*
X50083333Y-99204819D02*
X50083333Y-98681009D01*
X50083333Y-98681009D02*
X50035714Y-98585771D01*
X50035714Y-98585771D02*
X49940476Y-98538152D01*
X49940476Y-98538152D02*
X49797619Y-98538152D01*
X49797619Y-98538152D02*
X49702381Y-98585771D01*
X49702381Y-98585771D02*
X49654762Y-98633390D01*
X50702381Y-99204819D02*
X50607143Y-99157200D01*
X50607143Y-99157200D02*
X50559524Y-99109580D01*
X50559524Y-99109580D02*
X50511905Y-99014342D01*
X50511905Y-99014342D02*
X50511905Y-98728628D01*
X50511905Y-98728628D02*
X50559524Y-98633390D01*
X50559524Y-98633390D02*
X50607143Y-98585771D01*
X50607143Y-98585771D02*
X50702381Y-98538152D01*
X50702381Y-98538152D02*
X50845238Y-98538152D01*
X50845238Y-98538152D02*
X50940476Y-98585771D01*
X50940476Y-98585771D02*
X50988095Y-98633390D01*
X50988095Y-98633390D02*
X51035714Y-98728628D01*
X51035714Y-98728628D02*
X51035714Y-99014342D01*
X51035714Y-99014342D02*
X50988095Y-99109580D01*
X50988095Y-99109580D02*
X50940476Y-99157200D01*
X50940476Y-99157200D02*
X50845238Y-99204819D01*
X50845238Y-99204819D02*
X50702381Y-99204819D01*
X51892857Y-99157200D02*
X51797619Y-99204819D01*
X51797619Y-99204819D02*
X51607143Y-99204819D01*
X51607143Y-99204819D02*
X51511905Y-99157200D01*
X51511905Y-99157200D02*
X51464286Y-99109580D01*
X51464286Y-99109580D02*
X51416667Y-99014342D01*
X51416667Y-99014342D02*
X51416667Y-98728628D01*
X51416667Y-98728628D02*
X51464286Y-98633390D01*
X51464286Y-98633390D02*
X51511905Y-98585771D01*
X51511905Y-98585771D02*
X51607143Y-98538152D01*
X51607143Y-98538152D02*
X51797619Y-98538152D01*
X51797619Y-98538152D02*
X51892857Y-98585771D01*
X52940477Y-98204819D02*
X53273810Y-99204819D01*
X53273810Y-99204819D02*
X53607143Y-98204819D01*
X53892858Y-98300057D02*
X53940477Y-98252438D01*
X53940477Y-98252438D02*
X54035715Y-98204819D01*
X54035715Y-98204819D02*
X54273810Y-98204819D01*
X54273810Y-98204819D02*
X54369048Y-98252438D01*
X54369048Y-98252438D02*
X54416667Y-98300057D01*
X54416667Y-98300057D02*
X54464286Y-98395295D01*
X54464286Y-98395295D02*
X54464286Y-98490533D01*
X54464286Y-98490533D02*
X54416667Y-98633390D01*
X54416667Y-98633390D02*
X53845239Y-99204819D01*
X53845239Y-99204819D02*
X54464286Y-99204819D01*
X47440476Y-90157200D02*
X47583333Y-90204819D01*
X47583333Y-90204819D02*
X47821428Y-90204819D01*
X47821428Y-90204819D02*
X47916666Y-90157200D01*
X47916666Y-90157200D02*
X47964285Y-90109580D01*
X47964285Y-90109580D02*
X48011904Y-90014342D01*
X48011904Y-90014342D02*
X48011904Y-89919104D01*
X48011904Y-89919104D02*
X47964285Y-89823866D01*
X47964285Y-89823866D02*
X47916666Y-89776247D01*
X47916666Y-89776247D02*
X47821428Y-89728628D01*
X47821428Y-89728628D02*
X47630952Y-89681009D01*
X47630952Y-89681009D02*
X47535714Y-89633390D01*
X47535714Y-89633390D02*
X47488095Y-89585771D01*
X47488095Y-89585771D02*
X47440476Y-89490533D01*
X47440476Y-89490533D02*
X47440476Y-89395295D01*
X47440476Y-89395295D02*
X47488095Y-89300057D01*
X47488095Y-89300057D02*
X47535714Y-89252438D01*
X47535714Y-89252438D02*
X47630952Y-89204819D01*
X47630952Y-89204819D02*
X47869047Y-89204819D01*
X47869047Y-89204819D02*
X48011904Y-89252438D01*
X48345238Y-89204819D02*
X48583333Y-90204819D01*
X48583333Y-90204819D02*
X48773809Y-89490533D01*
X48773809Y-89490533D02*
X48964285Y-90204819D01*
X48964285Y-90204819D02*
X49202381Y-89204819D01*
X50107142Y-90204819D02*
X49535714Y-90204819D01*
X49821428Y-90204819D02*
X49821428Y-89204819D01*
X49821428Y-89204819D02*
X49726190Y-89347676D01*
X49726190Y-89347676D02*
X49630952Y-89442914D01*
X49630952Y-89442914D02*
X49535714Y-89490533D01*
X50964285Y-89538152D02*
X50964285Y-90204819D01*
X50726190Y-89157200D02*
X50488095Y-89871485D01*
X50488095Y-89871485D02*
X51107142Y-89871485D01*
X8083333Y-48204819D02*
X8083333Y-47204819D01*
X8654761Y-48204819D02*
X8226190Y-47633390D01*
X8654761Y-47204819D02*
X8083333Y-47776247D01*
X9511904Y-48204819D02*
X9511904Y-47681009D01*
X9511904Y-47681009D02*
X9464285Y-47585771D01*
X9464285Y-47585771D02*
X9369047Y-47538152D01*
X9369047Y-47538152D02*
X9178571Y-47538152D01*
X9178571Y-47538152D02*
X9083333Y-47585771D01*
X9511904Y-48157200D02*
X9416666Y-48204819D01*
X9416666Y-48204819D02*
X9178571Y-48204819D01*
X9178571Y-48204819D02*
X9083333Y-48157200D01*
X9083333Y-48157200D02*
X9035714Y-48061961D01*
X9035714Y-48061961D02*
X9035714Y-47966723D01*
X9035714Y-47966723D02*
X9083333Y-47871485D01*
X9083333Y-47871485D02*
X9178571Y-47823866D01*
X9178571Y-47823866D02*
X9416666Y-47823866D01*
X9416666Y-47823866D02*
X9511904Y-47776247D01*
X9988095Y-48204819D02*
X9988095Y-47538152D01*
X9988095Y-47204819D02*
X9940476Y-47252438D01*
X9940476Y-47252438D02*
X9988095Y-47300057D01*
X9988095Y-47300057D02*
X10035714Y-47252438D01*
X10035714Y-47252438D02*
X9988095Y-47204819D01*
X9988095Y-47204819D02*
X9988095Y-47300057D01*
X10607142Y-48204819D02*
X10511904Y-48157200D01*
X10511904Y-48157200D02*
X10464285Y-48061961D01*
X10464285Y-48061961D02*
X10464285Y-47204819D01*
X10988095Y-48204819D02*
X10988095Y-47204819D01*
X11416666Y-48204819D02*
X11416666Y-47681009D01*
X11416666Y-47681009D02*
X11369047Y-47585771D01*
X11369047Y-47585771D02*
X11273809Y-47538152D01*
X11273809Y-47538152D02*
X11130952Y-47538152D01*
X11130952Y-47538152D02*
X11035714Y-47585771D01*
X11035714Y-47585771D02*
X10988095Y-47633390D01*
X13226190Y-48109580D02*
X13178571Y-48157200D01*
X13178571Y-48157200D02*
X13035714Y-48204819D01*
X13035714Y-48204819D02*
X12940476Y-48204819D01*
X12940476Y-48204819D02*
X12797619Y-48157200D01*
X12797619Y-48157200D02*
X12702381Y-48061961D01*
X12702381Y-48061961D02*
X12654762Y-47966723D01*
X12654762Y-47966723D02*
X12607143Y-47776247D01*
X12607143Y-47776247D02*
X12607143Y-47633390D01*
X12607143Y-47633390D02*
X12654762Y-47442914D01*
X12654762Y-47442914D02*
X12702381Y-47347676D01*
X12702381Y-47347676D02*
X12797619Y-47252438D01*
X12797619Y-47252438D02*
X12940476Y-47204819D01*
X12940476Y-47204819D02*
X13035714Y-47204819D01*
X13035714Y-47204819D02*
X13178571Y-47252438D01*
X13178571Y-47252438D02*
X13226190Y-47300057D01*
X13654762Y-48204819D02*
X13654762Y-47204819D01*
X14083333Y-48204819D02*
X14083333Y-47681009D01*
X14083333Y-47681009D02*
X14035714Y-47585771D01*
X14035714Y-47585771D02*
X13940476Y-47538152D01*
X13940476Y-47538152D02*
X13797619Y-47538152D01*
X13797619Y-47538152D02*
X13702381Y-47585771D01*
X13702381Y-47585771D02*
X13654762Y-47633390D01*
X14702381Y-48204819D02*
X14607143Y-48157200D01*
X14607143Y-48157200D02*
X14559524Y-48109580D01*
X14559524Y-48109580D02*
X14511905Y-48014342D01*
X14511905Y-48014342D02*
X14511905Y-47728628D01*
X14511905Y-47728628D02*
X14559524Y-47633390D01*
X14559524Y-47633390D02*
X14607143Y-47585771D01*
X14607143Y-47585771D02*
X14702381Y-47538152D01*
X14702381Y-47538152D02*
X14845238Y-47538152D01*
X14845238Y-47538152D02*
X14940476Y-47585771D01*
X14940476Y-47585771D02*
X14988095Y-47633390D01*
X14988095Y-47633390D02*
X15035714Y-47728628D01*
X15035714Y-47728628D02*
X15035714Y-48014342D01*
X15035714Y-48014342D02*
X14988095Y-48109580D01*
X14988095Y-48109580D02*
X14940476Y-48157200D01*
X14940476Y-48157200D02*
X14845238Y-48204819D01*
X14845238Y-48204819D02*
X14702381Y-48204819D01*
X15892857Y-48157200D02*
X15797619Y-48204819D01*
X15797619Y-48204819D02*
X15607143Y-48204819D01*
X15607143Y-48204819D02*
X15511905Y-48157200D01*
X15511905Y-48157200D02*
X15464286Y-48109580D01*
X15464286Y-48109580D02*
X15416667Y-48014342D01*
X15416667Y-48014342D02*
X15416667Y-47728628D01*
X15416667Y-47728628D02*
X15464286Y-47633390D01*
X15464286Y-47633390D02*
X15511905Y-47585771D01*
X15511905Y-47585771D02*
X15607143Y-47538152D01*
X15607143Y-47538152D02*
X15797619Y-47538152D01*
X15797619Y-47538152D02*
X15892857Y-47585771D01*
X16940477Y-47204819D02*
X17273810Y-48204819D01*
X17273810Y-48204819D02*
X17607143Y-47204819D01*
X17892858Y-47300057D02*
X17940477Y-47252438D01*
X17940477Y-47252438D02*
X18035715Y-47204819D01*
X18035715Y-47204819D02*
X18273810Y-47204819D01*
X18273810Y-47204819D02*
X18369048Y-47252438D01*
X18369048Y-47252438D02*
X18416667Y-47300057D01*
X18416667Y-47300057D02*
X18464286Y-47395295D01*
X18464286Y-47395295D02*
X18464286Y-47490533D01*
X18464286Y-47490533D02*
X18416667Y-47633390D01*
X18416667Y-47633390D02*
X17845239Y-48204819D01*
X17845239Y-48204819D02*
X18464286Y-48204819D01*
X11916667Y-39157200D02*
X12059524Y-39204819D01*
X12059524Y-39204819D02*
X12297619Y-39204819D01*
X12297619Y-39204819D02*
X12392857Y-39157200D01*
X12392857Y-39157200D02*
X12440476Y-39109580D01*
X12440476Y-39109580D02*
X12488095Y-39014342D01*
X12488095Y-39014342D02*
X12488095Y-38919104D01*
X12488095Y-38919104D02*
X12440476Y-38823866D01*
X12440476Y-38823866D02*
X12392857Y-38776247D01*
X12392857Y-38776247D02*
X12297619Y-38728628D01*
X12297619Y-38728628D02*
X12107143Y-38681009D01*
X12107143Y-38681009D02*
X12011905Y-38633390D01*
X12011905Y-38633390D02*
X11964286Y-38585771D01*
X11964286Y-38585771D02*
X11916667Y-38490533D01*
X11916667Y-38490533D02*
X11916667Y-38395295D01*
X11916667Y-38395295D02*
X11964286Y-38300057D01*
X11964286Y-38300057D02*
X12011905Y-38252438D01*
X12011905Y-38252438D02*
X12107143Y-38204819D01*
X12107143Y-38204819D02*
X12345238Y-38204819D01*
X12345238Y-38204819D02*
X12488095Y-38252438D01*
X12821429Y-38204819D02*
X13059524Y-39204819D01*
X13059524Y-39204819D02*
X13250000Y-38490533D01*
X13250000Y-38490533D02*
X13440476Y-39204819D01*
X13440476Y-39204819D02*
X13678572Y-38204819D01*
X14583333Y-39204819D02*
X14011905Y-39204819D01*
X14297619Y-39204819D02*
X14297619Y-38204819D01*
X14297619Y-38204819D02*
X14202381Y-38347676D01*
X14202381Y-38347676D02*
X14107143Y-38442914D01*
X14107143Y-38442914D02*
X14011905Y-38490533D01*
X26083333Y-82204819D02*
X26083333Y-81204819D01*
X26654761Y-82204819D02*
X26226190Y-81633390D01*
X26654761Y-81204819D02*
X26083333Y-81776247D01*
X27511904Y-82204819D02*
X27511904Y-81681009D01*
X27511904Y-81681009D02*
X27464285Y-81585771D01*
X27464285Y-81585771D02*
X27369047Y-81538152D01*
X27369047Y-81538152D02*
X27178571Y-81538152D01*
X27178571Y-81538152D02*
X27083333Y-81585771D01*
X27511904Y-82157200D02*
X27416666Y-82204819D01*
X27416666Y-82204819D02*
X27178571Y-82204819D01*
X27178571Y-82204819D02*
X27083333Y-82157200D01*
X27083333Y-82157200D02*
X27035714Y-82061961D01*
X27035714Y-82061961D02*
X27035714Y-81966723D01*
X27035714Y-81966723D02*
X27083333Y-81871485D01*
X27083333Y-81871485D02*
X27178571Y-81823866D01*
X27178571Y-81823866D02*
X27416666Y-81823866D01*
X27416666Y-81823866D02*
X27511904Y-81776247D01*
X27988095Y-82204819D02*
X27988095Y-81538152D01*
X27988095Y-81204819D02*
X27940476Y-81252438D01*
X27940476Y-81252438D02*
X27988095Y-81300057D01*
X27988095Y-81300057D02*
X28035714Y-81252438D01*
X28035714Y-81252438D02*
X27988095Y-81204819D01*
X27988095Y-81204819D02*
X27988095Y-81300057D01*
X28607142Y-82204819D02*
X28511904Y-82157200D01*
X28511904Y-82157200D02*
X28464285Y-82061961D01*
X28464285Y-82061961D02*
X28464285Y-81204819D01*
X28988095Y-82204819D02*
X28988095Y-81204819D01*
X29416666Y-82204819D02*
X29416666Y-81681009D01*
X29416666Y-81681009D02*
X29369047Y-81585771D01*
X29369047Y-81585771D02*
X29273809Y-81538152D01*
X29273809Y-81538152D02*
X29130952Y-81538152D01*
X29130952Y-81538152D02*
X29035714Y-81585771D01*
X29035714Y-81585771D02*
X28988095Y-81633390D01*
X31226190Y-82109580D02*
X31178571Y-82157200D01*
X31178571Y-82157200D02*
X31035714Y-82204819D01*
X31035714Y-82204819D02*
X30940476Y-82204819D01*
X30940476Y-82204819D02*
X30797619Y-82157200D01*
X30797619Y-82157200D02*
X30702381Y-82061961D01*
X30702381Y-82061961D02*
X30654762Y-81966723D01*
X30654762Y-81966723D02*
X30607143Y-81776247D01*
X30607143Y-81776247D02*
X30607143Y-81633390D01*
X30607143Y-81633390D02*
X30654762Y-81442914D01*
X30654762Y-81442914D02*
X30702381Y-81347676D01*
X30702381Y-81347676D02*
X30797619Y-81252438D01*
X30797619Y-81252438D02*
X30940476Y-81204819D01*
X30940476Y-81204819D02*
X31035714Y-81204819D01*
X31035714Y-81204819D02*
X31178571Y-81252438D01*
X31178571Y-81252438D02*
X31226190Y-81300057D01*
X31654762Y-82204819D02*
X31654762Y-81204819D01*
X32083333Y-82204819D02*
X32083333Y-81681009D01*
X32083333Y-81681009D02*
X32035714Y-81585771D01*
X32035714Y-81585771D02*
X31940476Y-81538152D01*
X31940476Y-81538152D02*
X31797619Y-81538152D01*
X31797619Y-81538152D02*
X31702381Y-81585771D01*
X31702381Y-81585771D02*
X31654762Y-81633390D01*
X32702381Y-82204819D02*
X32607143Y-82157200D01*
X32607143Y-82157200D02*
X32559524Y-82109580D01*
X32559524Y-82109580D02*
X32511905Y-82014342D01*
X32511905Y-82014342D02*
X32511905Y-81728628D01*
X32511905Y-81728628D02*
X32559524Y-81633390D01*
X32559524Y-81633390D02*
X32607143Y-81585771D01*
X32607143Y-81585771D02*
X32702381Y-81538152D01*
X32702381Y-81538152D02*
X32845238Y-81538152D01*
X32845238Y-81538152D02*
X32940476Y-81585771D01*
X32940476Y-81585771D02*
X32988095Y-81633390D01*
X32988095Y-81633390D02*
X33035714Y-81728628D01*
X33035714Y-81728628D02*
X33035714Y-82014342D01*
X33035714Y-82014342D02*
X32988095Y-82109580D01*
X32988095Y-82109580D02*
X32940476Y-82157200D01*
X32940476Y-82157200D02*
X32845238Y-82204819D01*
X32845238Y-82204819D02*
X32702381Y-82204819D01*
X33892857Y-82157200D02*
X33797619Y-82204819D01*
X33797619Y-82204819D02*
X33607143Y-82204819D01*
X33607143Y-82204819D02*
X33511905Y-82157200D01*
X33511905Y-82157200D02*
X33464286Y-82109580D01*
X33464286Y-82109580D02*
X33416667Y-82014342D01*
X33416667Y-82014342D02*
X33416667Y-81728628D01*
X33416667Y-81728628D02*
X33464286Y-81633390D01*
X33464286Y-81633390D02*
X33511905Y-81585771D01*
X33511905Y-81585771D02*
X33607143Y-81538152D01*
X33607143Y-81538152D02*
X33797619Y-81538152D01*
X33797619Y-81538152D02*
X33892857Y-81585771D01*
X34940477Y-81204819D02*
X35273810Y-82204819D01*
X35273810Y-82204819D02*
X35607143Y-81204819D01*
X35892858Y-81300057D02*
X35940477Y-81252438D01*
X35940477Y-81252438D02*
X36035715Y-81204819D01*
X36035715Y-81204819D02*
X36273810Y-81204819D01*
X36273810Y-81204819D02*
X36369048Y-81252438D01*
X36369048Y-81252438D02*
X36416667Y-81300057D01*
X36416667Y-81300057D02*
X36464286Y-81395295D01*
X36464286Y-81395295D02*
X36464286Y-81490533D01*
X36464286Y-81490533D02*
X36416667Y-81633390D01*
X36416667Y-81633390D02*
X35845239Y-82204819D01*
X35845239Y-82204819D02*
X36464286Y-82204819D01*
X29916667Y-73157200D02*
X30059524Y-73204819D01*
X30059524Y-73204819D02*
X30297619Y-73204819D01*
X30297619Y-73204819D02*
X30392857Y-73157200D01*
X30392857Y-73157200D02*
X30440476Y-73109580D01*
X30440476Y-73109580D02*
X30488095Y-73014342D01*
X30488095Y-73014342D02*
X30488095Y-72919104D01*
X30488095Y-72919104D02*
X30440476Y-72823866D01*
X30440476Y-72823866D02*
X30392857Y-72776247D01*
X30392857Y-72776247D02*
X30297619Y-72728628D01*
X30297619Y-72728628D02*
X30107143Y-72681009D01*
X30107143Y-72681009D02*
X30011905Y-72633390D01*
X30011905Y-72633390D02*
X29964286Y-72585771D01*
X29964286Y-72585771D02*
X29916667Y-72490533D01*
X29916667Y-72490533D02*
X29916667Y-72395295D01*
X29916667Y-72395295D02*
X29964286Y-72300057D01*
X29964286Y-72300057D02*
X30011905Y-72252438D01*
X30011905Y-72252438D02*
X30107143Y-72204819D01*
X30107143Y-72204819D02*
X30345238Y-72204819D01*
X30345238Y-72204819D02*
X30488095Y-72252438D01*
X30821429Y-72204819D02*
X31059524Y-73204819D01*
X31059524Y-73204819D02*
X31250000Y-72490533D01*
X31250000Y-72490533D02*
X31440476Y-73204819D01*
X31440476Y-73204819D02*
X31678572Y-72204819D01*
X32202381Y-72633390D02*
X32107143Y-72585771D01*
X32107143Y-72585771D02*
X32059524Y-72538152D01*
X32059524Y-72538152D02*
X32011905Y-72442914D01*
X32011905Y-72442914D02*
X32011905Y-72395295D01*
X32011905Y-72395295D02*
X32059524Y-72300057D01*
X32059524Y-72300057D02*
X32107143Y-72252438D01*
X32107143Y-72252438D02*
X32202381Y-72204819D01*
X32202381Y-72204819D02*
X32392857Y-72204819D01*
X32392857Y-72204819D02*
X32488095Y-72252438D01*
X32488095Y-72252438D02*
X32535714Y-72300057D01*
X32535714Y-72300057D02*
X32583333Y-72395295D01*
X32583333Y-72395295D02*
X32583333Y-72442914D01*
X32583333Y-72442914D02*
X32535714Y-72538152D01*
X32535714Y-72538152D02*
X32488095Y-72585771D01*
X32488095Y-72585771D02*
X32392857Y-72633390D01*
X32392857Y-72633390D02*
X32202381Y-72633390D01*
X32202381Y-72633390D02*
X32107143Y-72681009D01*
X32107143Y-72681009D02*
X32059524Y-72728628D01*
X32059524Y-72728628D02*
X32011905Y-72823866D01*
X32011905Y-72823866D02*
X32011905Y-73014342D01*
X32011905Y-73014342D02*
X32059524Y-73109580D01*
X32059524Y-73109580D02*
X32107143Y-73157200D01*
X32107143Y-73157200D02*
X32202381Y-73204819D01*
X32202381Y-73204819D02*
X32392857Y-73204819D01*
X32392857Y-73204819D02*
X32488095Y-73157200D01*
X32488095Y-73157200D02*
X32535714Y-73109580D01*
X32535714Y-73109580D02*
X32583333Y-73014342D01*
X32583333Y-73014342D02*
X32583333Y-72823866D01*
X32583333Y-72823866D02*
X32535714Y-72728628D01*
X32535714Y-72728628D02*
X32488095Y-72681009D01*
X32488095Y-72681009D02*
X32392857Y-72633390D01*
X44083333Y-82204819D02*
X44083333Y-81204819D01*
X44654761Y-82204819D02*
X44226190Y-81633390D01*
X44654761Y-81204819D02*
X44083333Y-81776247D01*
X45511904Y-82204819D02*
X45511904Y-81681009D01*
X45511904Y-81681009D02*
X45464285Y-81585771D01*
X45464285Y-81585771D02*
X45369047Y-81538152D01*
X45369047Y-81538152D02*
X45178571Y-81538152D01*
X45178571Y-81538152D02*
X45083333Y-81585771D01*
X45511904Y-82157200D02*
X45416666Y-82204819D01*
X45416666Y-82204819D02*
X45178571Y-82204819D01*
X45178571Y-82204819D02*
X45083333Y-82157200D01*
X45083333Y-82157200D02*
X45035714Y-82061961D01*
X45035714Y-82061961D02*
X45035714Y-81966723D01*
X45035714Y-81966723D02*
X45083333Y-81871485D01*
X45083333Y-81871485D02*
X45178571Y-81823866D01*
X45178571Y-81823866D02*
X45416666Y-81823866D01*
X45416666Y-81823866D02*
X45511904Y-81776247D01*
X45988095Y-82204819D02*
X45988095Y-81538152D01*
X45988095Y-81204819D02*
X45940476Y-81252438D01*
X45940476Y-81252438D02*
X45988095Y-81300057D01*
X45988095Y-81300057D02*
X46035714Y-81252438D01*
X46035714Y-81252438D02*
X45988095Y-81204819D01*
X45988095Y-81204819D02*
X45988095Y-81300057D01*
X46607142Y-82204819D02*
X46511904Y-82157200D01*
X46511904Y-82157200D02*
X46464285Y-82061961D01*
X46464285Y-82061961D02*
X46464285Y-81204819D01*
X46988095Y-82204819D02*
X46988095Y-81204819D01*
X47416666Y-82204819D02*
X47416666Y-81681009D01*
X47416666Y-81681009D02*
X47369047Y-81585771D01*
X47369047Y-81585771D02*
X47273809Y-81538152D01*
X47273809Y-81538152D02*
X47130952Y-81538152D01*
X47130952Y-81538152D02*
X47035714Y-81585771D01*
X47035714Y-81585771D02*
X46988095Y-81633390D01*
X49226190Y-82109580D02*
X49178571Y-82157200D01*
X49178571Y-82157200D02*
X49035714Y-82204819D01*
X49035714Y-82204819D02*
X48940476Y-82204819D01*
X48940476Y-82204819D02*
X48797619Y-82157200D01*
X48797619Y-82157200D02*
X48702381Y-82061961D01*
X48702381Y-82061961D02*
X48654762Y-81966723D01*
X48654762Y-81966723D02*
X48607143Y-81776247D01*
X48607143Y-81776247D02*
X48607143Y-81633390D01*
X48607143Y-81633390D02*
X48654762Y-81442914D01*
X48654762Y-81442914D02*
X48702381Y-81347676D01*
X48702381Y-81347676D02*
X48797619Y-81252438D01*
X48797619Y-81252438D02*
X48940476Y-81204819D01*
X48940476Y-81204819D02*
X49035714Y-81204819D01*
X49035714Y-81204819D02*
X49178571Y-81252438D01*
X49178571Y-81252438D02*
X49226190Y-81300057D01*
X49654762Y-82204819D02*
X49654762Y-81204819D01*
X50083333Y-82204819D02*
X50083333Y-81681009D01*
X50083333Y-81681009D02*
X50035714Y-81585771D01*
X50035714Y-81585771D02*
X49940476Y-81538152D01*
X49940476Y-81538152D02*
X49797619Y-81538152D01*
X49797619Y-81538152D02*
X49702381Y-81585771D01*
X49702381Y-81585771D02*
X49654762Y-81633390D01*
X50702381Y-82204819D02*
X50607143Y-82157200D01*
X50607143Y-82157200D02*
X50559524Y-82109580D01*
X50559524Y-82109580D02*
X50511905Y-82014342D01*
X50511905Y-82014342D02*
X50511905Y-81728628D01*
X50511905Y-81728628D02*
X50559524Y-81633390D01*
X50559524Y-81633390D02*
X50607143Y-81585771D01*
X50607143Y-81585771D02*
X50702381Y-81538152D01*
X50702381Y-81538152D02*
X50845238Y-81538152D01*
X50845238Y-81538152D02*
X50940476Y-81585771D01*
X50940476Y-81585771D02*
X50988095Y-81633390D01*
X50988095Y-81633390D02*
X51035714Y-81728628D01*
X51035714Y-81728628D02*
X51035714Y-82014342D01*
X51035714Y-82014342D02*
X50988095Y-82109580D01*
X50988095Y-82109580D02*
X50940476Y-82157200D01*
X50940476Y-82157200D02*
X50845238Y-82204819D01*
X50845238Y-82204819D02*
X50702381Y-82204819D01*
X51892857Y-82157200D02*
X51797619Y-82204819D01*
X51797619Y-82204819D02*
X51607143Y-82204819D01*
X51607143Y-82204819D02*
X51511905Y-82157200D01*
X51511905Y-82157200D02*
X51464286Y-82109580D01*
X51464286Y-82109580D02*
X51416667Y-82014342D01*
X51416667Y-82014342D02*
X51416667Y-81728628D01*
X51416667Y-81728628D02*
X51464286Y-81633390D01*
X51464286Y-81633390D02*
X51511905Y-81585771D01*
X51511905Y-81585771D02*
X51607143Y-81538152D01*
X51607143Y-81538152D02*
X51797619Y-81538152D01*
X51797619Y-81538152D02*
X51892857Y-81585771D01*
X52940477Y-81204819D02*
X53273810Y-82204819D01*
X53273810Y-82204819D02*
X53607143Y-81204819D01*
X53892858Y-81300057D02*
X53940477Y-81252438D01*
X53940477Y-81252438D02*
X54035715Y-81204819D01*
X54035715Y-81204819D02*
X54273810Y-81204819D01*
X54273810Y-81204819D02*
X54369048Y-81252438D01*
X54369048Y-81252438D02*
X54416667Y-81300057D01*
X54416667Y-81300057D02*
X54464286Y-81395295D01*
X54464286Y-81395295D02*
X54464286Y-81490533D01*
X54464286Y-81490533D02*
X54416667Y-81633390D01*
X54416667Y-81633390D02*
X53845239Y-82204819D01*
X53845239Y-82204819D02*
X54464286Y-82204819D01*
X47916667Y-73157200D02*
X48059524Y-73204819D01*
X48059524Y-73204819D02*
X48297619Y-73204819D01*
X48297619Y-73204819D02*
X48392857Y-73157200D01*
X48392857Y-73157200D02*
X48440476Y-73109580D01*
X48440476Y-73109580D02*
X48488095Y-73014342D01*
X48488095Y-73014342D02*
X48488095Y-72919104D01*
X48488095Y-72919104D02*
X48440476Y-72823866D01*
X48440476Y-72823866D02*
X48392857Y-72776247D01*
X48392857Y-72776247D02*
X48297619Y-72728628D01*
X48297619Y-72728628D02*
X48107143Y-72681009D01*
X48107143Y-72681009D02*
X48011905Y-72633390D01*
X48011905Y-72633390D02*
X47964286Y-72585771D01*
X47964286Y-72585771D02*
X47916667Y-72490533D01*
X47916667Y-72490533D02*
X47916667Y-72395295D01*
X47916667Y-72395295D02*
X47964286Y-72300057D01*
X47964286Y-72300057D02*
X48011905Y-72252438D01*
X48011905Y-72252438D02*
X48107143Y-72204819D01*
X48107143Y-72204819D02*
X48345238Y-72204819D01*
X48345238Y-72204819D02*
X48488095Y-72252438D01*
X48821429Y-72204819D02*
X49059524Y-73204819D01*
X49059524Y-73204819D02*
X49250000Y-72490533D01*
X49250000Y-72490533D02*
X49440476Y-73204819D01*
X49440476Y-73204819D02*
X49678572Y-72204819D01*
X50107143Y-73204819D02*
X50297619Y-73204819D01*
X50297619Y-73204819D02*
X50392857Y-73157200D01*
X50392857Y-73157200D02*
X50440476Y-73109580D01*
X50440476Y-73109580D02*
X50535714Y-72966723D01*
X50535714Y-72966723D02*
X50583333Y-72776247D01*
X50583333Y-72776247D02*
X50583333Y-72395295D01*
X50583333Y-72395295D02*
X50535714Y-72300057D01*
X50535714Y-72300057D02*
X50488095Y-72252438D01*
X50488095Y-72252438D02*
X50392857Y-72204819D01*
X50392857Y-72204819D02*
X50202381Y-72204819D01*
X50202381Y-72204819D02*
X50107143Y-72252438D01*
X50107143Y-72252438D02*
X50059524Y-72300057D01*
X50059524Y-72300057D02*
X50011905Y-72395295D01*
X50011905Y-72395295D02*
X50011905Y-72633390D01*
X50011905Y-72633390D02*
X50059524Y-72728628D01*
X50059524Y-72728628D02*
X50107143Y-72776247D01*
X50107143Y-72776247D02*
X50202381Y-72823866D01*
X50202381Y-72823866D02*
X50392857Y-72823866D01*
X50392857Y-72823866D02*
X50488095Y-72776247D01*
X50488095Y-72776247D02*
X50535714Y-72728628D01*
X50535714Y-72728628D02*
X50583333Y-72633390D01*
X62083333Y-82204819D02*
X62083333Y-81204819D01*
X62654761Y-82204819D02*
X62226190Y-81633390D01*
X62654761Y-81204819D02*
X62083333Y-81776247D01*
X63511904Y-82204819D02*
X63511904Y-81681009D01*
X63511904Y-81681009D02*
X63464285Y-81585771D01*
X63464285Y-81585771D02*
X63369047Y-81538152D01*
X63369047Y-81538152D02*
X63178571Y-81538152D01*
X63178571Y-81538152D02*
X63083333Y-81585771D01*
X63511904Y-82157200D02*
X63416666Y-82204819D01*
X63416666Y-82204819D02*
X63178571Y-82204819D01*
X63178571Y-82204819D02*
X63083333Y-82157200D01*
X63083333Y-82157200D02*
X63035714Y-82061961D01*
X63035714Y-82061961D02*
X63035714Y-81966723D01*
X63035714Y-81966723D02*
X63083333Y-81871485D01*
X63083333Y-81871485D02*
X63178571Y-81823866D01*
X63178571Y-81823866D02*
X63416666Y-81823866D01*
X63416666Y-81823866D02*
X63511904Y-81776247D01*
X63988095Y-82204819D02*
X63988095Y-81538152D01*
X63988095Y-81204819D02*
X63940476Y-81252438D01*
X63940476Y-81252438D02*
X63988095Y-81300057D01*
X63988095Y-81300057D02*
X64035714Y-81252438D01*
X64035714Y-81252438D02*
X63988095Y-81204819D01*
X63988095Y-81204819D02*
X63988095Y-81300057D01*
X64607142Y-82204819D02*
X64511904Y-82157200D01*
X64511904Y-82157200D02*
X64464285Y-82061961D01*
X64464285Y-82061961D02*
X64464285Y-81204819D01*
X64988095Y-82204819D02*
X64988095Y-81204819D01*
X65416666Y-82204819D02*
X65416666Y-81681009D01*
X65416666Y-81681009D02*
X65369047Y-81585771D01*
X65369047Y-81585771D02*
X65273809Y-81538152D01*
X65273809Y-81538152D02*
X65130952Y-81538152D01*
X65130952Y-81538152D02*
X65035714Y-81585771D01*
X65035714Y-81585771D02*
X64988095Y-81633390D01*
X67226190Y-82109580D02*
X67178571Y-82157200D01*
X67178571Y-82157200D02*
X67035714Y-82204819D01*
X67035714Y-82204819D02*
X66940476Y-82204819D01*
X66940476Y-82204819D02*
X66797619Y-82157200D01*
X66797619Y-82157200D02*
X66702381Y-82061961D01*
X66702381Y-82061961D02*
X66654762Y-81966723D01*
X66654762Y-81966723D02*
X66607143Y-81776247D01*
X66607143Y-81776247D02*
X66607143Y-81633390D01*
X66607143Y-81633390D02*
X66654762Y-81442914D01*
X66654762Y-81442914D02*
X66702381Y-81347676D01*
X66702381Y-81347676D02*
X66797619Y-81252438D01*
X66797619Y-81252438D02*
X66940476Y-81204819D01*
X66940476Y-81204819D02*
X67035714Y-81204819D01*
X67035714Y-81204819D02*
X67178571Y-81252438D01*
X67178571Y-81252438D02*
X67226190Y-81300057D01*
X67654762Y-82204819D02*
X67654762Y-81204819D01*
X68083333Y-82204819D02*
X68083333Y-81681009D01*
X68083333Y-81681009D02*
X68035714Y-81585771D01*
X68035714Y-81585771D02*
X67940476Y-81538152D01*
X67940476Y-81538152D02*
X67797619Y-81538152D01*
X67797619Y-81538152D02*
X67702381Y-81585771D01*
X67702381Y-81585771D02*
X67654762Y-81633390D01*
X68702381Y-82204819D02*
X68607143Y-82157200D01*
X68607143Y-82157200D02*
X68559524Y-82109580D01*
X68559524Y-82109580D02*
X68511905Y-82014342D01*
X68511905Y-82014342D02*
X68511905Y-81728628D01*
X68511905Y-81728628D02*
X68559524Y-81633390D01*
X68559524Y-81633390D02*
X68607143Y-81585771D01*
X68607143Y-81585771D02*
X68702381Y-81538152D01*
X68702381Y-81538152D02*
X68845238Y-81538152D01*
X68845238Y-81538152D02*
X68940476Y-81585771D01*
X68940476Y-81585771D02*
X68988095Y-81633390D01*
X68988095Y-81633390D02*
X69035714Y-81728628D01*
X69035714Y-81728628D02*
X69035714Y-82014342D01*
X69035714Y-82014342D02*
X68988095Y-82109580D01*
X68988095Y-82109580D02*
X68940476Y-82157200D01*
X68940476Y-82157200D02*
X68845238Y-82204819D01*
X68845238Y-82204819D02*
X68702381Y-82204819D01*
X69892857Y-82157200D02*
X69797619Y-82204819D01*
X69797619Y-82204819D02*
X69607143Y-82204819D01*
X69607143Y-82204819D02*
X69511905Y-82157200D01*
X69511905Y-82157200D02*
X69464286Y-82109580D01*
X69464286Y-82109580D02*
X69416667Y-82014342D01*
X69416667Y-82014342D02*
X69416667Y-81728628D01*
X69416667Y-81728628D02*
X69464286Y-81633390D01*
X69464286Y-81633390D02*
X69511905Y-81585771D01*
X69511905Y-81585771D02*
X69607143Y-81538152D01*
X69607143Y-81538152D02*
X69797619Y-81538152D01*
X69797619Y-81538152D02*
X69892857Y-81585771D01*
X70940477Y-81204819D02*
X71273810Y-82204819D01*
X71273810Y-82204819D02*
X71607143Y-81204819D01*
X71892858Y-81300057D02*
X71940477Y-81252438D01*
X71940477Y-81252438D02*
X72035715Y-81204819D01*
X72035715Y-81204819D02*
X72273810Y-81204819D01*
X72273810Y-81204819D02*
X72369048Y-81252438D01*
X72369048Y-81252438D02*
X72416667Y-81300057D01*
X72416667Y-81300057D02*
X72464286Y-81395295D01*
X72464286Y-81395295D02*
X72464286Y-81490533D01*
X72464286Y-81490533D02*
X72416667Y-81633390D01*
X72416667Y-81633390D02*
X71845239Y-82204819D01*
X71845239Y-82204819D02*
X72464286Y-82204819D01*
X65440476Y-73157200D02*
X65583333Y-73204819D01*
X65583333Y-73204819D02*
X65821428Y-73204819D01*
X65821428Y-73204819D02*
X65916666Y-73157200D01*
X65916666Y-73157200D02*
X65964285Y-73109580D01*
X65964285Y-73109580D02*
X66011904Y-73014342D01*
X66011904Y-73014342D02*
X66011904Y-72919104D01*
X66011904Y-72919104D02*
X65964285Y-72823866D01*
X65964285Y-72823866D02*
X65916666Y-72776247D01*
X65916666Y-72776247D02*
X65821428Y-72728628D01*
X65821428Y-72728628D02*
X65630952Y-72681009D01*
X65630952Y-72681009D02*
X65535714Y-72633390D01*
X65535714Y-72633390D02*
X65488095Y-72585771D01*
X65488095Y-72585771D02*
X65440476Y-72490533D01*
X65440476Y-72490533D02*
X65440476Y-72395295D01*
X65440476Y-72395295D02*
X65488095Y-72300057D01*
X65488095Y-72300057D02*
X65535714Y-72252438D01*
X65535714Y-72252438D02*
X65630952Y-72204819D01*
X65630952Y-72204819D02*
X65869047Y-72204819D01*
X65869047Y-72204819D02*
X66011904Y-72252438D01*
X66345238Y-72204819D02*
X66583333Y-73204819D01*
X66583333Y-73204819D02*
X66773809Y-72490533D01*
X66773809Y-72490533D02*
X66964285Y-73204819D01*
X66964285Y-73204819D02*
X67202381Y-72204819D01*
X68107142Y-73204819D02*
X67535714Y-73204819D01*
X67821428Y-73204819D02*
X67821428Y-72204819D01*
X67821428Y-72204819D02*
X67726190Y-72347676D01*
X67726190Y-72347676D02*
X67630952Y-72442914D01*
X67630952Y-72442914D02*
X67535714Y-72490533D01*
X68488095Y-72300057D02*
X68535714Y-72252438D01*
X68535714Y-72252438D02*
X68630952Y-72204819D01*
X68630952Y-72204819D02*
X68869047Y-72204819D01*
X68869047Y-72204819D02*
X68964285Y-72252438D01*
X68964285Y-72252438D02*
X69011904Y-72300057D01*
X69011904Y-72300057D02*
X69059523Y-72395295D01*
X69059523Y-72395295D02*
X69059523Y-72490533D01*
X69059523Y-72490533D02*
X69011904Y-72633390D01*
X69011904Y-72633390D02*
X68440476Y-73204819D01*
X68440476Y-73204819D02*
X69059523Y-73204819D01*
X44083333Y-65204819D02*
X44083333Y-64204819D01*
X44654761Y-65204819D02*
X44226190Y-64633390D01*
X44654761Y-64204819D02*
X44083333Y-64776247D01*
X45511904Y-65204819D02*
X45511904Y-64681009D01*
X45511904Y-64681009D02*
X45464285Y-64585771D01*
X45464285Y-64585771D02*
X45369047Y-64538152D01*
X45369047Y-64538152D02*
X45178571Y-64538152D01*
X45178571Y-64538152D02*
X45083333Y-64585771D01*
X45511904Y-65157200D02*
X45416666Y-65204819D01*
X45416666Y-65204819D02*
X45178571Y-65204819D01*
X45178571Y-65204819D02*
X45083333Y-65157200D01*
X45083333Y-65157200D02*
X45035714Y-65061961D01*
X45035714Y-65061961D02*
X45035714Y-64966723D01*
X45035714Y-64966723D02*
X45083333Y-64871485D01*
X45083333Y-64871485D02*
X45178571Y-64823866D01*
X45178571Y-64823866D02*
X45416666Y-64823866D01*
X45416666Y-64823866D02*
X45511904Y-64776247D01*
X45988095Y-65204819D02*
X45988095Y-64538152D01*
X45988095Y-64204819D02*
X45940476Y-64252438D01*
X45940476Y-64252438D02*
X45988095Y-64300057D01*
X45988095Y-64300057D02*
X46035714Y-64252438D01*
X46035714Y-64252438D02*
X45988095Y-64204819D01*
X45988095Y-64204819D02*
X45988095Y-64300057D01*
X46607142Y-65204819D02*
X46511904Y-65157200D01*
X46511904Y-65157200D02*
X46464285Y-65061961D01*
X46464285Y-65061961D02*
X46464285Y-64204819D01*
X46988095Y-65204819D02*
X46988095Y-64204819D01*
X47416666Y-65204819D02*
X47416666Y-64681009D01*
X47416666Y-64681009D02*
X47369047Y-64585771D01*
X47369047Y-64585771D02*
X47273809Y-64538152D01*
X47273809Y-64538152D02*
X47130952Y-64538152D01*
X47130952Y-64538152D02*
X47035714Y-64585771D01*
X47035714Y-64585771D02*
X46988095Y-64633390D01*
X49226190Y-65109580D02*
X49178571Y-65157200D01*
X49178571Y-65157200D02*
X49035714Y-65204819D01*
X49035714Y-65204819D02*
X48940476Y-65204819D01*
X48940476Y-65204819D02*
X48797619Y-65157200D01*
X48797619Y-65157200D02*
X48702381Y-65061961D01*
X48702381Y-65061961D02*
X48654762Y-64966723D01*
X48654762Y-64966723D02*
X48607143Y-64776247D01*
X48607143Y-64776247D02*
X48607143Y-64633390D01*
X48607143Y-64633390D02*
X48654762Y-64442914D01*
X48654762Y-64442914D02*
X48702381Y-64347676D01*
X48702381Y-64347676D02*
X48797619Y-64252438D01*
X48797619Y-64252438D02*
X48940476Y-64204819D01*
X48940476Y-64204819D02*
X49035714Y-64204819D01*
X49035714Y-64204819D02*
X49178571Y-64252438D01*
X49178571Y-64252438D02*
X49226190Y-64300057D01*
X49654762Y-65204819D02*
X49654762Y-64204819D01*
X50083333Y-65204819D02*
X50083333Y-64681009D01*
X50083333Y-64681009D02*
X50035714Y-64585771D01*
X50035714Y-64585771D02*
X49940476Y-64538152D01*
X49940476Y-64538152D02*
X49797619Y-64538152D01*
X49797619Y-64538152D02*
X49702381Y-64585771D01*
X49702381Y-64585771D02*
X49654762Y-64633390D01*
X50702381Y-65204819D02*
X50607143Y-65157200D01*
X50607143Y-65157200D02*
X50559524Y-65109580D01*
X50559524Y-65109580D02*
X50511905Y-65014342D01*
X50511905Y-65014342D02*
X50511905Y-64728628D01*
X50511905Y-64728628D02*
X50559524Y-64633390D01*
X50559524Y-64633390D02*
X50607143Y-64585771D01*
X50607143Y-64585771D02*
X50702381Y-64538152D01*
X50702381Y-64538152D02*
X50845238Y-64538152D01*
X50845238Y-64538152D02*
X50940476Y-64585771D01*
X50940476Y-64585771D02*
X50988095Y-64633390D01*
X50988095Y-64633390D02*
X51035714Y-64728628D01*
X51035714Y-64728628D02*
X51035714Y-65014342D01*
X51035714Y-65014342D02*
X50988095Y-65109580D01*
X50988095Y-65109580D02*
X50940476Y-65157200D01*
X50940476Y-65157200D02*
X50845238Y-65204819D01*
X50845238Y-65204819D02*
X50702381Y-65204819D01*
X51892857Y-65157200D02*
X51797619Y-65204819D01*
X51797619Y-65204819D02*
X51607143Y-65204819D01*
X51607143Y-65204819D02*
X51511905Y-65157200D01*
X51511905Y-65157200D02*
X51464286Y-65109580D01*
X51464286Y-65109580D02*
X51416667Y-65014342D01*
X51416667Y-65014342D02*
X51416667Y-64728628D01*
X51416667Y-64728628D02*
X51464286Y-64633390D01*
X51464286Y-64633390D02*
X51511905Y-64585771D01*
X51511905Y-64585771D02*
X51607143Y-64538152D01*
X51607143Y-64538152D02*
X51797619Y-64538152D01*
X51797619Y-64538152D02*
X51892857Y-64585771D01*
X52940477Y-64204819D02*
X53273810Y-65204819D01*
X53273810Y-65204819D02*
X53607143Y-64204819D01*
X53892858Y-64300057D02*
X53940477Y-64252438D01*
X53940477Y-64252438D02*
X54035715Y-64204819D01*
X54035715Y-64204819D02*
X54273810Y-64204819D01*
X54273810Y-64204819D02*
X54369048Y-64252438D01*
X54369048Y-64252438D02*
X54416667Y-64300057D01*
X54416667Y-64300057D02*
X54464286Y-64395295D01*
X54464286Y-64395295D02*
X54464286Y-64490533D01*
X54464286Y-64490533D02*
X54416667Y-64633390D01*
X54416667Y-64633390D02*
X53845239Y-65204819D01*
X53845239Y-65204819D02*
X54464286Y-65204819D01*
X47916667Y-56157200D02*
X48059524Y-56204819D01*
X48059524Y-56204819D02*
X48297619Y-56204819D01*
X48297619Y-56204819D02*
X48392857Y-56157200D01*
X48392857Y-56157200D02*
X48440476Y-56109580D01*
X48440476Y-56109580D02*
X48488095Y-56014342D01*
X48488095Y-56014342D02*
X48488095Y-55919104D01*
X48488095Y-55919104D02*
X48440476Y-55823866D01*
X48440476Y-55823866D02*
X48392857Y-55776247D01*
X48392857Y-55776247D02*
X48297619Y-55728628D01*
X48297619Y-55728628D02*
X48107143Y-55681009D01*
X48107143Y-55681009D02*
X48011905Y-55633390D01*
X48011905Y-55633390D02*
X47964286Y-55585771D01*
X47964286Y-55585771D02*
X47916667Y-55490533D01*
X47916667Y-55490533D02*
X47916667Y-55395295D01*
X47916667Y-55395295D02*
X47964286Y-55300057D01*
X47964286Y-55300057D02*
X48011905Y-55252438D01*
X48011905Y-55252438D02*
X48107143Y-55204819D01*
X48107143Y-55204819D02*
X48345238Y-55204819D01*
X48345238Y-55204819D02*
X48488095Y-55252438D01*
X48821429Y-55204819D02*
X49059524Y-56204819D01*
X49059524Y-56204819D02*
X49250000Y-55490533D01*
X49250000Y-55490533D02*
X49440476Y-56204819D01*
X49440476Y-56204819D02*
X49678572Y-55204819D01*
X50488095Y-55204819D02*
X50297619Y-55204819D01*
X50297619Y-55204819D02*
X50202381Y-55252438D01*
X50202381Y-55252438D02*
X50154762Y-55300057D01*
X50154762Y-55300057D02*
X50059524Y-55442914D01*
X50059524Y-55442914D02*
X50011905Y-55633390D01*
X50011905Y-55633390D02*
X50011905Y-56014342D01*
X50011905Y-56014342D02*
X50059524Y-56109580D01*
X50059524Y-56109580D02*
X50107143Y-56157200D01*
X50107143Y-56157200D02*
X50202381Y-56204819D01*
X50202381Y-56204819D02*
X50392857Y-56204819D01*
X50392857Y-56204819D02*
X50488095Y-56157200D01*
X50488095Y-56157200D02*
X50535714Y-56109580D01*
X50535714Y-56109580D02*
X50583333Y-56014342D01*
X50583333Y-56014342D02*
X50583333Y-55776247D01*
X50583333Y-55776247D02*
X50535714Y-55681009D01*
X50535714Y-55681009D02*
X50488095Y-55633390D01*
X50488095Y-55633390D02*
X50392857Y-55585771D01*
X50392857Y-55585771D02*
X50202381Y-55585771D01*
X50202381Y-55585771D02*
X50107143Y-55633390D01*
X50107143Y-55633390D02*
X50059524Y-55681009D01*
X50059524Y-55681009D02*
X50011905Y-55776247D01*
X62083333Y-48204819D02*
X62083333Y-47204819D01*
X62654761Y-48204819D02*
X62226190Y-47633390D01*
X62654761Y-47204819D02*
X62083333Y-47776247D01*
X63511904Y-48204819D02*
X63511904Y-47681009D01*
X63511904Y-47681009D02*
X63464285Y-47585771D01*
X63464285Y-47585771D02*
X63369047Y-47538152D01*
X63369047Y-47538152D02*
X63178571Y-47538152D01*
X63178571Y-47538152D02*
X63083333Y-47585771D01*
X63511904Y-48157200D02*
X63416666Y-48204819D01*
X63416666Y-48204819D02*
X63178571Y-48204819D01*
X63178571Y-48204819D02*
X63083333Y-48157200D01*
X63083333Y-48157200D02*
X63035714Y-48061961D01*
X63035714Y-48061961D02*
X63035714Y-47966723D01*
X63035714Y-47966723D02*
X63083333Y-47871485D01*
X63083333Y-47871485D02*
X63178571Y-47823866D01*
X63178571Y-47823866D02*
X63416666Y-47823866D01*
X63416666Y-47823866D02*
X63511904Y-47776247D01*
X63988095Y-48204819D02*
X63988095Y-47538152D01*
X63988095Y-47204819D02*
X63940476Y-47252438D01*
X63940476Y-47252438D02*
X63988095Y-47300057D01*
X63988095Y-47300057D02*
X64035714Y-47252438D01*
X64035714Y-47252438D02*
X63988095Y-47204819D01*
X63988095Y-47204819D02*
X63988095Y-47300057D01*
X64607142Y-48204819D02*
X64511904Y-48157200D01*
X64511904Y-48157200D02*
X64464285Y-48061961D01*
X64464285Y-48061961D02*
X64464285Y-47204819D01*
X64988095Y-48204819D02*
X64988095Y-47204819D01*
X65416666Y-48204819D02*
X65416666Y-47681009D01*
X65416666Y-47681009D02*
X65369047Y-47585771D01*
X65369047Y-47585771D02*
X65273809Y-47538152D01*
X65273809Y-47538152D02*
X65130952Y-47538152D01*
X65130952Y-47538152D02*
X65035714Y-47585771D01*
X65035714Y-47585771D02*
X64988095Y-47633390D01*
X67226190Y-48109580D02*
X67178571Y-48157200D01*
X67178571Y-48157200D02*
X67035714Y-48204819D01*
X67035714Y-48204819D02*
X66940476Y-48204819D01*
X66940476Y-48204819D02*
X66797619Y-48157200D01*
X66797619Y-48157200D02*
X66702381Y-48061961D01*
X66702381Y-48061961D02*
X66654762Y-47966723D01*
X66654762Y-47966723D02*
X66607143Y-47776247D01*
X66607143Y-47776247D02*
X66607143Y-47633390D01*
X66607143Y-47633390D02*
X66654762Y-47442914D01*
X66654762Y-47442914D02*
X66702381Y-47347676D01*
X66702381Y-47347676D02*
X66797619Y-47252438D01*
X66797619Y-47252438D02*
X66940476Y-47204819D01*
X66940476Y-47204819D02*
X67035714Y-47204819D01*
X67035714Y-47204819D02*
X67178571Y-47252438D01*
X67178571Y-47252438D02*
X67226190Y-47300057D01*
X67654762Y-48204819D02*
X67654762Y-47204819D01*
X68083333Y-48204819D02*
X68083333Y-47681009D01*
X68083333Y-47681009D02*
X68035714Y-47585771D01*
X68035714Y-47585771D02*
X67940476Y-47538152D01*
X67940476Y-47538152D02*
X67797619Y-47538152D01*
X67797619Y-47538152D02*
X67702381Y-47585771D01*
X67702381Y-47585771D02*
X67654762Y-47633390D01*
X68702381Y-48204819D02*
X68607143Y-48157200D01*
X68607143Y-48157200D02*
X68559524Y-48109580D01*
X68559524Y-48109580D02*
X68511905Y-48014342D01*
X68511905Y-48014342D02*
X68511905Y-47728628D01*
X68511905Y-47728628D02*
X68559524Y-47633390D01*
X68559524Y-47633390D02*
X68607143Y-47585771D01*
X68607143Y-47585771D02*
X68702381Y-47538152D01*
X68702381Y-47538152D02*
X68845238Y-47538152D01*
X68845238Y-47538152D02*
X68940476Y-47585771D01*
X68940476Y-47585771D02*
X68988095Y-47633390D01*
X68988095Y-47633390D02*
X69035714Y-47728628D01*
X69035714Y-47728628D02*
X69035714Y-48014342D01*
X69035714Y-48014342D02*
X68988095Y-48109580D01*
X68988095Y-48109580D02*
X68940476Y-48157200D01*
X68940476Y-48157200D02*
X68845238Y-48204819D01*
X68845238Y-48204819D02*
X68702381Y-48204819D01*
X69892857Y-48157200D02*
X69797619Y-48204819D01*
X69797619Y-48204819D02*
X69607143Y-48204819D01*
X69607143Y-48204819D02*
X69511905Y-48157200D01*
X69511905Y-48157200D02*
X69464286Y-48109580D01*
X69464286Y-48109580D02*
X69416667Y-48014342D01*
X69416667Y-48014342D02*
X69416667Y-47728628D01*
X69416667Y-47728628D02*
X69464286Y-47633390D01*
X69464286Y-47633390D02*
X69511905Y-47585771D01*
X69511905Y-47585771D02*
X69607143Y-47538152D01*
X69607143Y-47538152D02*
X69797619Y-47538152D01*
X69797619Y-47538152D02*
X69892857Y-47585771D01*
X70940477Y-47204819D02*
X71273810Y-48204819D01*
X71273810Y-48204819D02*
X71607143Y-47204819D01*
X71892858Y-47300057D02*
X71940477Y-47252438D01*
X71940477Y-47252438D02*
X72035715Y-47204819D01*
X72035715Y-47204819D02*
X72273810Y-47204819D01*
X72273810Y-47204819D02*
X72369048Y-47252438D01*
X72369048Y-47252438D02*
X72416667Y-47300057D01*
X72416667Y-47300057D02*
X72464286Y-47395295D01*
X72464286Y-47395295D02*
X72464286Y-47490533D01*
X72464286Y-47490533D02*
X72416667Y-47633390D01*
X72416667Y-47633390D02*
X71845239Y-48204819D01*
X71845239Y-48204819D02*
X72464286Y-48204819D01*
X65440476Y-39157200D02*
X65583333Y-39204819D01*
X65583333Y-39204819D02*
X65821428Y-39204819D01*
X65821428Y-39204819D02*
X65916666Y-39157200D01*
X65916666Y-39157200D02*
X65964285Y-39109580D01*
X65964285Y-39109580D02*
X66011904Y-39014342D01*
X66011904Y-39014342D02*
X66011904Y-38919104D01*
X66011904Y-38919104D02*
X65964285Y-38823866D01*
X65964285Y-38823866D02*
X65916666Y-38776247D01*
X65916666Y-38776247D02*
X65821428Y-38728628D01*
X65821428Y-38728628D02*
X65630952Y-38681009D01*
X65630952Y-38681009D02*
X65535714Y-38633390D01*
X65535714Y-38633390D02*
X65488095Y-38585771D01*
X65488095Y-38585771D02*
X65440476Y-38490533D01*
X65440476Y-38490533D02*
X65440476Y-38395295D01*
X65440476Y-38395295D02*
X65488095Y-38300057D01*
X65488095Y-38300057D02*
X65535714Y-38252438D01*
X65535714Y-38252438D02*
X65630952Y-38204819D01*
X65630952Y-38204819D02*
X65869047Y-38204819D01*
X65869047Y-38204819D02*
X66011904Y-38252438D01*
X66345238Y-38204819D02*
X66583333Y-39204819D01*
X66583333Y-39204819D02*
X66773809Y-38490533D01*
X66773809Y-38490533D02*
X66964285Y-39204819D01*
X66964285Y-39204819D02*
X67202381Y-38204819D01*
X68107142Y-39204819D02*
X67535714Y-39204819D01*
X67821428Y-39204819D02*
X67821428Y-38204819D01*
X67821428Y-38204819D02*
X67726190Y-38347676D01*
X67726190Y-38347676D02*
X67630952Y-38442914D01*
X67630952Y-38442914D02*
X67535714Y-38490533D01*
X68726190Y-38204819D02*
X68821428Y-38204819D01*
X68821428Y-38204819D02*
X68916666Y-38252438D01*
X68916666Y-38252438D02*
X68964285Y-38300057D01*
X68964285Y-38300057D02*
X69011904Y-38395295D01*
X69011904Y-38395295D02*
X69059523Y-38585771D01*
X69059523Y-38585771D02*
X69059523Y-38823866D01*
X69059523Y-38823866D02*
X69011904Y-39014342D01*
X69011904Y-39014342D02*
X68964285Y-39109580D01*
X68964285Y-39109580D02*
X68916666Y-39157200D01*
X68916666Y-39157200D02*
X68821428Y-39204819D01*
X68821428Y-39204819D02*
X68726190Y-39204819D01*
X68726190Y-39204819D02*
X68630952Y-39157200D01*
X68630952Y-39157200D02*
X68583333Y-39109580D01*
X68583333Y-39109580D02*
X68535714Y-39014342D01*
X68535714Y-39014342D02*
X68488095Y-38823866D01*
X68488095Y-38823866D02*
X68488095Y-38585771D01*
X68488095Y-38585771D02*
X68535714Y-38395295D01*
X68535714Y-38395295D02*
X68583333Y-38300057D01*
X68583333Y-38300057D02*
X68630952Y-38252438D01*
X68630952Y-38252438D02*
X68726190Y-38204819D01*
X8083333Y-82204819D02*
X8083333Y-81204819D01*
X8654761Y-82204819D02*
X8226190Y-81633390D01*
X8654761Y-81204819D02*
X8083333Y-81776247D01*
X9511904Y-82204819D02*
X9511904Y-81681009D01*
X9511904Y-81681009D02*
X9464285Y-81585771D01*
X9464285Y-81585771D02*
X9369047Y-81538152D01*
X9369047Y-81538152D02*
X9178571Y-81538152D01*
X9178571Y-81538152D02*
X9083333Y-81585771D01*
X9511904Y-82157200D02*
X9416666Y-82204819D01*
X9416666Y-82204819D02*
X9178571Y-82204819D01*
X9178571Y-82204819D02*
X9083333Y-82157200D01*
X9083333Y-82157200D02*
X9035714Y-82061961D01*
X9035714Y-82061961D02*
X9035714Y-81966723D01*
X9035714Y-81966723D02*
X9083333Y-81871485D01*
X9083333Y-81871485D02*
X9178571Y-81823866D01*
X9178571Y-81823866D02*
X9416666Y-81823866D01*
X9416666Y-81823866D02*
X9511904Y-81776247D01*
X9988095Y-82204819D02*
X9988095Y-81538152D01*
X9988095Y-81204819D02*
X9940476Y-81252438D01*
X9940476Y-81252438D02*
X9988095Y-81300057D01*
X9988095Y-81300057D02*
X10035714Y-81252438D01*
X10035714Y-81252438D02*
X9988095Y-81204819D01*
X9988095Y-81204819D02*
X9988095Y-81300057D01*
X10607142Y-82204819D02*
X10511904Y-82157200D01*
X10511904Y-82157200D02*
X10464285Y-82061961D01*
X10464285Y-82061961D02*
X10464285Y-81204819D01*
X10988095Y-82204819D02*
X10988095Y-81204819D01*
X11416666Y-82204819D02*
X11416666Y-81681009D01*
X11416666Y-81681009D02*
X11369047Y-81585771D01*
X11369047Y-81585771D02*
X11273809Y-81538152D01*
X11273809Y-81538152D02*
X11130952Y-81538152D01*
X11130952Y-81538152D02*
X11035714Y-81585771D01*
X11035714Y-81585771D02*
X10988095Y-81633390D01*
X13226190Y-82109580D02*
X13178571Y-82157200D01*
X13178571Y-82157200D02*
X13035714Y-82204819D01*
X13035714Y-82204819D02*
X12940476Y-82204819D01*
X12940476Y-82204819D02*
X12797619Y-82157200D01*
X12797619Y-82157200D02*
X12702381Y-82061961D01*
X12702381Y-82061961D02*
X12654762Y-81966723D01*
X12654762Y-81966723D02*
X12607143Y-81776247D01*
X12607143Y-81776247D02*
X12607143Y-81633390D01*
X12607143Y-81633390D02*
X12654762Y-81442914D01*
X12654762Y-81442914D02*
X12702381Y-81347676D01*
X12702381Y-81347676D02*
X12797619Y-81252438D01*
X12797619Y-81252438D02*
X12940476Y-81204819D01*
X12940476Y-81204819D02*
X13035714Y-81204819D01*
X13035714Y-81204819D02*
X13178571Y-81252438D01*
X13178571Y-81252438D02*
X13226190Y-81300057D01*
X13654762Y-82204819D02*
X13654762Y-81204819D01*
X14083333Y-82204819D02*
X14083333Y-81681009D01*
X14083333Y-81681009D02*
X14035714Y-81585771D01*
X14035714Y-81585771D02*
X13940476Y-81538152D01*
X13940476Y-81538152D02*
X13797619Y-81538152D01*
X13797619Y-81538152D02*
X13702381Y-81585771D01*
X13702381Y-81585771D02*
X13654762Y-81633390D01*
X14702381Y-82204819D02*
X14607143Y-82157200D01*
X14607143Y-82157200D02*
X14559524Y-82109580D01*
X14559524Y-82109580D02*
X14511905Y-82014342D01*
X14511905Y-82014342D02*
X14511905Y-81728628D01*
X14511905Y-81728628D02*
X14559524Y-81633390D01*
X14559524Y-81633390D02*
X14607143Y-81585771D01*
X14607143Y-81585771D02*
X14702381Y-81538152D01*
X14702381Y-81538152D02*
X14845238Y-81538152D01*
X14845238Y-81538152D02*
X14940476Y-81585771D01*
X14940476Y-81585771D02*
X14988095Y-81633390D01*
X14988095Y-81633390D02*
X15035714Y-81728628D01*
X15035714Y-81728628D02*
X15035714Y-82014342D01*
X15035714Y-82014342D02*
X14988095Y-82109580D01*
X14988095Y-82109580D02*
X14940476Y-82157200D01*
X14940476Y-82157200D02*
X14845238Y-82204819D01*
X14845238Y-82204819D02*
X14702381Y-82204819D01*
X15892857Y-82157200D02*
X15797619Y-82204819D01*
X15797619Y-82204819D02*
X15607143Y-82204819D01*
X15607143Y-82204819D02*
X15511905Y-82157200D01*
X15511905Y-82157200D02*
X15464286Y-82109580D01*
X15464286Y-82109580D02*
X15416667Y-82014342D01*
X15416667Y-82014342D02*
X15416667Y-81728628D01*
X15416667Y-81728628D02*
X15464286Y-81633390D01*
X15464286Y-81633390D02*
X15511905Y-81585771D01*
X15511905Y-81585771D02*
X15607143Y-81538152D01*
X15607143Y-81538152D02*
X15797619Y-81538152D01*
X15797619Y-81538152D02*
X15892857Y-81585771D01*
X16940477Y-81204819D02*
X17273810Y-82204819D01*
X17273810Y-82204819D02*
X17607143Y-81204819D01*
X17892858Y-81300057D02*
X17940477Y-81252438D01*
X17940477Y-81252438D02*
X18035715Y-81204819D01*
X18035715Y-81204819D02*
X18273810Y-81204819D01*
X18273810Y-81204819D02*
X18369048Y-81252438D01*
X18369048Y-81252438D02*
X18416667Y-81300057D01*
X18416667Y-81300057D02*
X18464286Y-81395295D01*
X18464286Y-81395295D02*
X18464286Y-81490533D01*
X18464286Y-81490533D02*
X18416667Y-81633390D01*
X18416667Y-81633390D02*
X17845239Y-82204819D01*
X17845239Y-82204819D02*
X18464286Y-82204819D01*
X11916667Y-73157200D02*
X12059524Y-73204819D01*
X12059524Y-73204819D02*
X12297619Y-73204819D01*
X12297619Y-73204819D02*
X12392857Y-73157200D01*
X12392857Y-73157200D02*
X12440476Y-73109580D01*
X12440476Y-73109580D02*
X12488095Y-73014342D01*
X12488095Y-73014342D02*
X12488095Y-72919104D01*
X12488095Y-72919104D02*
X12440476Y-72823866D01*
X12440476Y-72823866D02*
X12392857Y-72776247D01*
X12392857Y-72776247D02*
X12297619Y-72728628D01*
X12297619Y-72728628D02*
X12107143Y-72681009D01*
X12107143Y-72681009D02*
X12011905Y-72633390D01*
X12011905Y-72633390D02*
X11964286Y-72585771D01*
X11964286Y-72585771D02*
X11916667Y-72490533D01*
X11916667Y-72490533D02*
X11916667Y-72395295D01*
X11916667Y-72395295D02*
X11964286Y-72300057D01*
X11964286Y-72300057D02*
X12011905Y-72252438D01*
X12011905Y-72252438D02*
X12107143Y-72204819D01*
X12107143Y-72204819D02*
X12345238Y-72204819D01*
X12345238Y-72204819D02*
X12488095Y-72252438D01*
X12821429Y-72204819D02*
X13059524Y-73204819D01*
X13059524Y-73204819D02*
X13250000Y-72490533D01*
X13250000Y-72490533D02*
X13440476Y-73204819D01*
X13440476Y-73204819D02*
X13678572Y-72204819D01*
X13964286Y-72204819D02*
X14630952Y-72204819D01*
X14630952Y-72204819D02*
X14202381Y-73204819D01*
X29126333Y-5387200D02*
X29269190Y-5434819D01*
X29269190Y-5434819D02*
X29507285Y-5434819D01*
X29507285Y-5434819D02*
X29602523Y-5387200D01*
X29602523Y-5387200D02*
X29650142Y-5339580D01*
X29650142Y-5339580D02*
X29697761Y-5244342D01*
X29697761Y-5244342D02*
X29697761Y-5149104D01*
X29697761Y-5149104D02*
X29650142Y-5053866D01*
X29650142Y-5053866D02*
X29602523Y-5006247D01*
X29602523Y-5006247D02*
X29507285Y-4958628D01*
X29507285Y-4958628D02*
X29316809Y-4911009D01*
X29316809Y-4911009D02*
X29221571Y-4863390D01*
X29221571Y-4863390D02*
X29173952Y-4815771D01*
X29173952Y-4815771D02*
X29126333Y-4720533D01*
X29126333Y-4720533D02*
X29126333Y-4625295D01*
X29126333Y-4625295D02*
X29173952Y-4530057D01*
X29173952Y-4530057D02*
X29221571Y-4482438D01*
X29221571Y-4482438D02*
X29316809Y-4434819D01*
X29316809Y-4434819D02*
X29554904Y-4434819D01*
X29554904Y-4434819D02*
X29697761Y-4482438D01*
X30078714Y-5387200D02*
X30221571Y-5434819D01*
X30221571Y-5434819D02*
X30459666Y-5434819D01*
X30459666Y-5434819D02*
X30554904Y-5387200D01*
X30554904Y-5387200D02*
X30602523Y-5339580D01*
X30602523Y-5339580D02*
X30650142Y-5244342D01*
X30650142Y-5244342D02*
X30650142Y-5149104D01*
X30650142Y-5149104D02*
X30602523Y-5053866D01*
X30602523Y-5053866D02*
X30554904Y-5006247D01*
X30554904Y-5006247D02*
X30459666Y-4958628D01*
X30459666Y-4958628D02*
X30269190Y-4911009D01*
X30269190Y-4911009D02*
X30173952Y-4863390D01*
X30173952Y-4863390D02*
X30126333Y-4815771D01*
X30126333Y-4815771D02*
X30078714Y-4720533D01*
X30078714Y-4720533D02*
X30078714Y-4625295D01*
X30078714Y-4625295D02*
X30126333Y-4530057D01*
X30126333Y-4530057D02*
X30173952Y-4482438D01*
X30173952Y-4482438D02*
X30269190Y-4434819D01*
X30269190Y-4434819D02*
X30507285Y-4434819D01*
X30507285Y-4434819D02*
X30650142Y-4482438D01*
X31078714Y-5434819D02*
X31078714Y-4434819D01*
X31078714Y-4434819D02*
X31316809Y-4434819D01*
X31316809Y-4434819D02*
X31459666Y-4482438D01*
X31459666Y-4482438D02*
X31554904Y-4577676D01*
X31554904Y-4577676D02*
X31602523Y-4672914D01*
X31602523Y-4672914D02*
X31650142Y-4863390D01*
X31650142Y-4863390D02*
X31650142Y-5006247D01*
X31650142Y-5006247D02*
X31602523Y-5196723D01*
X31602523Y-5196723D02*
X31554904Y-5291961D01*
X31554904Y-5291961D02*
X31459666Y-5387200D01*
X31459666Y-5387200D02*
X31316809Y-5434819D01*
X31316809Y-5434819D02*
X31078714Y-5434819D01*
X32602523Y-5434819D02*
X32031095Y-5434819D01*
X32316809Y-5434819D02*
X32316809Y-4434819D01*
X32316809Y-4434819D02*
X32221571Y-4577676D01*
X32221571Y-4577676D02*
X32126333Y-4672914D01*
X32126333Y-4672914D02*
X32031095Y-4720533D01*
X32935857Y-4434819D02*
X33554904Y-4434819D01*
X33554904Y-4434819D02*
X33221571Y-4815771D01*
X33221571Y-4815771D02*
X33364428Y-4815771D01*
X33364428Y-4815771D02*
X33459666Y-4863390D01*
X33459666Y-4863390D02*
X33507285Y-4911009D01*
X33507285Y-4911009D02*
X33554904Y-5006247D01*
X33554904Y-5006247D02*
X33554904Y-5244342D01*
X33554904Y-5244342D02*
X33507285Y-5339580D01*
X33507285Y-5339580D02*
X33459666Y-5387200D01*
X33459666Y-5387200D02*
X33364428Y-5434819D01*
X33364428Y-5434819D02*
X33078714Y-5434819D01*
X33078714Y-5434819D02*
X32983476Y-5387200D01*
X32983476Y-5387200D02*
X32935857Y-5339580D01*
X34173952Y-4434819D02*
X34269190Y-4434819D01*
X34269190Y-4434819D02*
X34364428Y-4482438D01*
X34364428Y-4482438D02*
X34412047Y-4530057D01*
X34412047Y-4530057D02*
X34459666Y-4625295D01*
X34459666Y-4625295D02*
X34507285Y-4815771D01*
X34507285Y-4815771D02*
X34507285Y-5053866D01*
X34507285Y-5053866D02*
X34459666Y-5244342D01*
X34459666Y-5244342D02*
X34412047Y-5339580D01*
X34412047Y-5339580D02*
X34364428Y-5387200D01*
X34364428Y-5387200D02*
X34269190Y-5434819D01*
X34269190Y-5434819D02*
X34173952Y-5434819D01*
X34173952Y-5434819D02*
X34078714Y-5387200D01*
X34078714Y-5387200D02*
X34031095Y-5339580D01*
X34031095Y-5339580D02*
X33983476Y-5244342D01*
X33983476Y-5244342D02*
X33935857Y-5053866D01*
X33935857Y-5053866D02*
X33935857Y-4815771D01*
X33935857Y-4815771D02*
X33983476Y-4625295D01*
X33983476Y-4625295D02*
X34031095Y-4530057D01*
X34031095Y-4530057D02*
X34078714Y-4482438D01*
X34078714Y-4482438D02*
X34173952Y-4434819D01*
X35364428Y-4434819D02*
X35173952Y-4434819D01*
X35173952Y-4434819D02*
X35078714Y-4482438D01*
X35078714Y-4482438D02*
X35031095Y-4530057D01*
X35031095Y-4530057D02*
X34935857Y-4672914D01*
X34935857Y-4672914D02*
X34888238Y-4863390D01*
X34888238Y-4863390D02*
X34888238Y-5244342D01*
X34888238Y-5244342D02*
X34935857Y-5339580D01*
X34935857Y-5339580D02*
X34983476Y-5387200D01*
X34983476Y-5387200D02*
X35078714Y-5434819D01*
X35078714Y-5434819D02*
X35269190Y-5434819D01*
X35269190Y-5434819D02*
X35364428Y-5387200D01*
X35364428Y-5387200D02*
X35412047Y-5339580D01*
X35412047Y-5339580D02*
X35459666Y-5244342D01*
X35459666Y-5244342D02*
X35459666Y-5006247D01*
X35459666Y-5006247D02*
X35412047Y-4911009D01*
X35412047Y-4911009D02*
X35364428Y-4863390D01*
X35364428Y-4863390D02*
X35269190Y-4815771D01*
X35269190Y-4815771D02*
X35078714Y-4815771D01*
X35078714Y-4815771D02*
X34983476Y-4863390D01*
X34983476Y-4863390D02*
X34935857Y-4911009D01*
X34935857Y-4911009D02*
X34888238Y-5006247D01*
X26083333Y-48204819D02*
X26083333Y-47204819D01*
X26654761Y-48204819D02*
X26226190Y-47633390D01*
X26654761Y-47204819D02*
X26083333Y-47776247D01*
X27511904Y-48204819D02*
X27511904Y-47681009D01*
X27511904Y-47681009D02*
X27464285Y-47585771D01*
X27464285Y-47585771D02*
X27369047Y-47538152D01*
X27369047Y-47538152D02*
X27178571Y-47538152D01*
X27178571Y-47538152D02*
X27083333Y-47585771D01*
X27511904Y-48157200D02*
X27416666Y-48204819D01*
X27416666Y-48204819D02*
X27178571Y-48204819D01*
X27178571Y-48204819D02*
X27083333Y-48157200D01*
X27083333Y-48157200D02*
X27035714Y-48061961D01*
X27035714Y-48061961D02*
X27035714Y-47966723D01*
X27035714Y-47966723D02*
X27083333Y-47871485D01*
X27083333Y-47871485D02*
X27178571Y-47823866D01*
X27178571Y-47823866D02*
X27416666Y-47823866D01*
X27416666Y-47823866D02*
X27511904Y-47776247D01*
X27988095Y-48204819D02*
X27988095Y-47538152D01*
X27988095Y-47204819D02*
X27940476Y-47252438D01*
X27940476Y-47252438D02*
X27988095Y-47300057D01*
X27988095Y-47300057D02*
X28035714Y-47252438D01*
X28035714Y-47252438D02*
X27988095Y-47204819D01*
X27988095Y-47204819D02*
X27988095Y-47300057D01*
X28607142Y-48204819D02*
X28511904Y-48157200D01*
X28511904Y-48157200D02*
X28464285Y-48061961D01*
X28464285Y-48061961D02*
X28464285Y-47204819D01*
X28988095Y-48204819D02*
X28988095Y-47204819D01*
X29416666Y-48204819D02*
X29416666Y-47681009D01*
X29416666Y-47681009D02*
X29369047Y-47585771D01*
X29369047Y-47585771D02*
X29273809Y-47538152D01*
X29273809Y-47538152D02*
X29130952Y-47538152D01*
X29130952Y-47538152D02*
X29035714Y-47585771D01*
X29035714Y-47585771D02*
X28988095Y-47633390D01*
X31226190Y-48109580D02*
X31178571Y-48157200D01*
X31178571Y-48157200D02*
X31035714Y-48204819D01*
X31035714Y-48204819D02*
X30940476Y-48204819D01*
X30940476Y-48204819D02*
X30797619Y-48157200D01*
X30797619Y-48157200D02*
X30702381Y-48061961D01*
X30702381Y-48061961D02*
X30654762Y-47966723D01*
X30654762Y-47966723D02*
X30607143Y-47776247D01*
X30607143Y-47776247D02*
X30607143Y-47633390D01*
X30607143Y-47633390D02*
X30654762Y-47442914D01*
X30654762Y-47442914D02*
X30702381Y-47347676D01*
X30702381Y-47347676D02*
X30797619Y-47252438D01*
X30797619Y-47252438D02*
X30940476Y-47204819D01*
X30940476Y-47204819D02*
X31035714Y-47204819D01*
X31035714Y-47204819D02*
X31178571Y-47252438D01*
X31178571Y-47252438D02*
X31226190Y-47300057D01*
X31654762Y-48204819D02*
X31654762Y-47204819D01*
X32083333Y-48204819D02*
X32083333Y-47681009D01*
X32083333Y-47681009D02*
X32035714Y-47585771D01*
X32035714Y-47585771D02*
X31940476Y-47538152D01*
X31940476Y-47538152D02*
X31797619Y-47538152D01*
X31797619Y-47538152D02*
X31702381Y-47585771D01*
X31702381Y-47585771D02*
X31654762Y-47633390D01*
X32702381Y-48204819D02*
X32607143Y-48157200D01*
X32607143Y-48157200D02*
X32559524Y-48109580D01*
X32559524Y-48109580D02*
X32511905Y-48014342D01*
X32511905Y-48014342D02*
X32511905Y-47728628D01*
X32511905Y-47728628D02*
X32559524Y-47633390D01*
X32559524Y-47633390D02*
X32607143Y-47585771D01*
X32607143Y-47585771D02*
X32702381Y-47538152D01*
X32702381Y-47538152D02*
X32845238Y-47538152D01*
X32845238Y-47538152D02*
X32940476Y-47585771D01*
X32940476Y-47585771D02*
X32988095Y-47633390D01*
X32988095Y-47633390D02*
X33035714Y-47728628D01*
X33035714Y-47728628D02*
X33035714Y-48014342D01*
X33035714Y-48014342D02*
X32988095Y-48109580D01*
X32988095Y-48109580D02*
X32940476Y-48157200D01*
X32940476Y-48157200D02*
X32845238Y-48204819D01*
X32845238Y-48204819D02*
X32702381Y-48204819D01*
X33892857Y-48157200D02*
X33797619Y-48204819D01*
X33797619Y-48204819D02*
X33607143Y-48204819D01*
X33607143Y-48204819D02*
X33511905Y-48157200D01*
X33511905Y-48157200D02*
X33464286Y-48109580D01*
X33464286Y-48109580D02*
X33416667Y-48014342D01*
X33416667Y-48014342D02*
X33416667Y-47728628D01*
X33416667Y-47728628D02*
X33464286Y-47633390D01*
X33464286Y-47633390D02*
X33511905Y-47585771D01*
X33511905Y-47585771D02*
X33607143Y-47538152D01*
X33607143Y-47538152D02*
X33797619Y-47538152D01*
X33797619Y-47538152D02*
X33892857Y-47585771D01*
X34940477Y-47204819D02*
X35273810Y-48204819D01*
X35273810Y-48204819D02*
X35607143Y-47204819D01*
X35892858Y-47300057D02*
X35940477Y-47252438D01*
X35940477Y-47252438D02*
X36035715Y-47204819D01*
X36035715Y-47204819D02*
X36273810Y-47204819D01*
X36273810Y-47204819D02*
X36369048Y-47252438D01*
X36369048Y-47252438D02*
X36416667Y-47300057D01*
X36416667Y-47300057D02*
X36464286Y-47395295D01*
X36464286Y-47395295D02*
X36464286Y-47490533D01*
X36464286Y-47490533D02*
X36416667Y-47633390D01*
X36416667Y-47633390D02*
X35845239Y-48204819D01*
X35845239Y-48204819D02*
X36464286Y-48204819D01*
X29916667Y-39157200D02*
X30059524Y-39204819D01*
X30059524Y-39204819D02*
X30297619Y-39204819D01*
X30297619Y-39204819D02*
X30392857Y-39157200D01*
X30392857Y-39157200D02*
X30440476Y-39109580D01*
X30440476Y-39109580D02*
X30488095Y-39014342D01*
X30488095Y-39014342D02*
X30488095Y-38919104D01*
X30488095Y-38919104D02*
X30440476Y-38823866D01*
X30440476Y-38823866D02*
X30392857Y-38776247D01*
X30392857Y-38776247D02*
X30297619Y-38728628D01*
X30297619Y-38728628D02*
X30107143Y-38681009D01*
X30107143Y-38681009D02*
X30011905Y-38633390D01*
X30011905Y-38633390D02*
X29964286Y-38585771D01*
X29964286Y-38585771D02*
X29916667Y-38490533D01*
X29916667Y-38490533D02*
X29916667Y-38395295D01*
X29916667Y-38395295D02*
X29964286Y-38300057D01*
X29964286Y-38300057D02*
X30011905Y-38252438D01*
X30011905Y-38252438D02*
X30107143Y-38204819D01*
X30107143Y-38204819D02*
X30345238Y-38204819D01*
X30345238Y-38204819D02*
X30488095Y-38252438D01*
X30821429Y-38204819D02*
X31059524Y-39204819D01*
X31059524Y-39204819D02*
X31250000Y-38490533D01*
X31250000Y-38490533D02*
X31440476Y-39204819D01*
X31440476Y-39204819D02*
X31678572Y-38204819D01*
X32011905Y-38300057D02*
X32059524Y-38252438D01*
X32059524Y-38252438D02*
X32154762Y-38204819D01*
X32154762Y-38204819D02*
X32392857Y-38204819D01*
X32392857Y-38204819D02*
X32488095Y-38252438D01*
X32488095Y-38252438D02*
X32535714Y-38300057D01*
X32535714Y-38300057D02*
X32583333Y-38395295D01*
X32583333Y-38395295D02*
X32583333Y-38490533D01*
X32583333Y-38490533D02*
X32535714Y-38633390D01*
X32535714Y-38633390D02*
X31964286Y-39204819D01*
X31964286Y-39204819D02*
X32583333Y-39204819D01*
X62083333Y-65204819D02*
X62083333Y-64204819D01*
X62654761Y-65204819D02*
X62226190Y-64633390D01*
X62654761Y-64204819D02*
X62083333Y-64776247D01*
X63511904Y-65204819D02*
X63511904Y-64681009D01*
X63511904Y-64681009D02*
X63464285Y-64585771D01*
X63464285Y-64585771D02*
X63369047Y-64538152D01*
X63369047Y-64538152D02*
X63178571Y-64538152D01*
X63178571Y-64538152D02*
X63083333Y-64585771D01*
X63511904Y-65157200D02*
X63416666Y-65204819D01*
X63416666Y-65204819D02*
X63178571Y-65204819D01*
X63178571Y-65204819D02*
X63083333Y-65157200D01*
X63083333Y-65157200D02*
X63035714Y-65061961D01*
X63035714Y-65061961D02*
X63035714Y-64966723D01*
X63035714Y-64966723D02*
X63083333Y-64871485D01*
X63083333Y-64871485D02*
X63178571Y-64823866D01*
X63178571Y-64823866D02*
X63416666Y-64823866D01*
X63416666Y-64823866D02*
X63511904Y-64776247D01*
X63988095Y-65204819D02*
X63988095Y-64538152D01*
X63988095Y-64204819D02*
X63940476Y-64252438D01*
X63940476Y-64252438D02*
X63988095Y-64300057D01*
X63988095Y-64300057D02*
X64035714Y-64252438D01*
X64035714Y-64252438D02*
X63988095Y-64204819D01*
X63988095Y-64204819D02*
X63988095Y-64300057D01*
X64607142Y-65204819D02*
X64511904Y-65157200D01*
X64511904Y-65157200D02*
X64464285Y-65061961D01*
X64464285Y-65061961D02*
X64464285Y-64204819D01*
X64988095Y-65204819D02*
X64988095Y-64204819D01*
X65416666Y-65204819D02*
X65416666Y-64681009D01*
X65416666Y-64681009D02*
X65369047Y-64585771D01*
X65369047Y-64585771D02*
X65273809Y-64538152D01*
X65273809Y-64538152D02*
X65130952Y-64538152D01*
X65130952Y-64538152D02*
X65035714Y-64585771D01*
X65035714Y-64585771D02*
X64988095Y-64633390D01*
X67226190Y-65109580D02*
X67178571Y-65157200D01*
X67178571Y-65157200D02*
X67035714Y-65204819D01*
X67035714Y-65204819D02*
X66940476Y-65204819D01*
X66940476Y-65204819D02*
X66797619Y-65157200D01*
X66797619Y-65157200D02*
X66702381Y-65061961D01*
X66702381Y-65061961D02*
X66654762Y-64966723D01*
X66654762Y-64966723D02*
X66607143Y-64776247D01*
X66607143Y-64776247D02*
X66607143Y-64633390D01*
X66607143Y-64633390D02*
X66654762Y-64442914D01*
X66654762Y-64442914D02*
X66702381Y-64347676D01*
X66702381Y-64347676D02*
X66797619Y-64252438D01*
X66797619Y-64252438D02*
X66940476Y-64204819D01*
X66940476Y-64204819D02*
X67035714Y-64204819D01*
X67035714Y-64204819D02*
X67178571Y-64252438D01*
X67178571Y-64252438D02*
X67226190Y-64300057D01*
X67654762Y-65204819D02*
X67654762Y-64204819D01*
X68083333Y-65204819D02*
X68083333Y-64681009D01*
X68083333Y-64681009D02*
X68035714Y-64585771D01*
X68035714Y-64585771D02*
X67940476Y-64538152D01*
X67940476Y-64538152D02*
X67797619Y-64538152D01*
X67797619Y-64538152D02*
X67702381Y-64585771D01*
X67702381Y-64585771D02*
X67654762Y-64633390D01*
X68702381Y-65204819D02*
X68607143Y-65157200D01*
X68607143Y-65157200D02*
X68559524Y-65109580D01*
X68559524Y-65109580D02*
X68511905Y-65014342D01*
X68511905Y-65014342D02*
X68511905Y-64728628D01*
X68511905Y-64728628D02*
X68559524Y-64633390D01*
X68559524Y-64633390D02*
X68607143Y-64585771D01*
X68607143Y-64585771D02*
X68702381Y-64538152D01*
X68702381Y-64538152D02*
X68845238Y-64538152D01*
X68845238Y-64538152D02*
X68940476Y-64585771D01*
X68940476Y-64585771D02*
X68988095Y-64633390D01*
X68988095Y-64633390D02*
X69035714Y-64728628D01*
X69035714Y-64728628D02*
X69035714Y-65014342D01*
X69035714Y-65014342D02*
X68988095Y-65109580D01*
X68988095Y-65109580D02*
X68940476Y-65157200D01*
X68940476Y-65157200D02*
X68845238Y-65204819D01*
X68845238Y-65204819D02*
X68702381Y-65204819D01*
X69892857Y-65157200D02*
X69797619Y-65204819D01*
X69797619Y-65204819D02*
X69607143Y-65204819D01*
X69607143Y-65204819D02*
X69511905Y-65157200D01*
X69511905Y-65157200D02*
X69464286Y-65109580D01*
X69464286Y-65109580D02*
X69416667Y-65014342D01*
X69416667Y-65014342D02*
X69416667Y-64728628D01*
X69416667Y-64728628D02*
X69464286Y-64633390D01*
X69464286Y-64633390D02*
X69511905Y-64585771D01*
X69511905Y-64585771D02*
X69607143Y-64538152D01*
X69607143Y-64538152D02*
X69797619Y-64538152D01*
X69797619Y-64538152D02*
X69892857Y-64585771D01*
X70940477Y-64204819D02*
X71273810Y-65204819D01*
X71273810Y-65204819D02*
X71607143Y-64204819D01*
X71892858Y-64300057D02*
X71940477Y-64252438D01*
X71940477Y-64252438D02*
X72035715Y-64204819D01*
X72035715Y-64204819D02*
X72273810Y-64204819D01*
X72273810Y-64204819D02*
X72369048Y-64252438D01*
X72369048Y-64252438D02*
X72416667Y-64300057D01*
X72416667Y-64300057D02*
X72464286Y-64395295D01*
X72464286Y-64395295D02*
X72464286Y-64490533D01*
X72464286Y-64490533D02*
X72416667Y-64633390D01*
X72416667Y-64633390D02*
X71845239Y-65204819D01*
X71845239Y-65204819D02*
X72464286Y-65204819D01*
X65440476Y-56157200D02*
X65583333Y-56204819D01*
X65583333Y-56204819D02*
X65821428Y-56204819D01*
X65821428Y-56204819D02*
X65916666Y-56157200D01*
X65916666Y-56157200D02*
X65964285Y-56109580D01*
X65964285Y-56109580D02*
X66011904Y-56014342D01*
X66011904Y-56014342D02*
X66011904Y-55919104D01*
X66011904Y-55919104D02*
X65964285Y-55823866D01*
X65964285Y-55823866D02*
X65916666Y-55776247D01*
X65916666Y-55776247D02*
X65821428Y-55728628D01*
X65821428Y-55728628D02*
X65630952Y-55681009D01*
X65630952Y-55681009D02*
X65535714Y-55633390D01*
X65535714Y-55633390D02*
X65488095Y-55585771D01*
X65488095Y-55585771D02*
X65440476Y-55490533D01*
X65440476Y-55490533D02*
X65440476Y-55395295D01*
X65440476Y-55395295D02*
X65488095Y-55300057D01*
X65488095Y-55300057D02*
X65535714Y-55252438D01*
X65535714Y-55252438D02*
X65630952Y-55204819D01*
X65630952Y-55204819D02*
X65869047Y-55204819D01*
X65869047Y-55204819D02*
X66011904Y-55252438D01*
X66345238Y-55204819D02*
X66583333Y-56204819D01*
X66583333Y-56204819D02*
X66773809Y-55490533D01*
X66773809Y-55490533D02*
X66964285Y-56204819D01*
X66964285Y-56204819D02*
X67202381Y-55204819D01*
X68107142Y-56204819D02*
X67535714Y-56204819D01*
X67821428Y-56204819D02*
X67821428Y-55204819D01*
X67821428Y-55204819D02*
X67726190Y-55347676D01*
X67726190Y-55347676D02*
X67630952Y-55442914D01*
X67630952Y-55442914D02*
X67535714Y-55490533D01*
X69059523Y-56204819D02*
X68488095Y-56204819D01*
X68773809Y-56204819D02*
X68773809Y-55204819D01*
X68773809Y-55204819D02*
X68678571Y-55347676D01*
X68678571Y-55347676D02*
X68583333Y-55442914D01*
X68583333Y-55442914D02*
X68488095Y-55490533D01*
X44083333Y-48204819D02*
X44083333Y-47204819D01*
X44654761Y-48204819D02*
X44226190Y-47633390D01*
X44654761Y-47204819D02*
X44083333Y-47776247D01*
X45511904Y-48204819D02*
X45511904Y-47681009D01*
X45511904Y-47681009D02*
X45464285Y-47585771D01*
X45464285Y-47585771D02*
X45369047Y-47538152D01*
X45369047Y-47538152D02*
X45178571Y-47538152D01*
X45178571Y-47538152D02*
X45083333Y-47585771D01*
X45511904Y-48157200D02*
X45416666Y-48204819D01*
X45416666Y-48204819D02*
X45178571Y-48204819D01*
X45178571Y-48204819D02*
X45083333Y-48157200D01*
X45083333Y-48157200D02*
X45035714Y-48061961D01*
X45035714Y-48061961D02*
X45035714Y-47966723D01*
X45035714Y-47966723D02*
X45083333Y-47871485D01*
X45083333Y-47871485D02*
X45178571Y-47823866D01*
X45178571Y-47823866D02*
X45416666Y-47823866D01*
X45416666Y-47823866D02*
X45511904Y-47776247D01*
X45988095Y-48204819D02*
X45988095Y-47538152D01*
X45988095Y-47204819D02*
X45940476Y-47252438D01*
X45940476Y-47252438D02*
X45988095Y-47300057D01*
X45988095Y-47300057D02*
X46035714Y-47252438D01*
X46035714Y-47252438D02*
X45988095Y-47204819D01*
X45988095Y-47204819D02*
X45988095Y-47300057D01*
X46607142Y-48204819D02*
X46511904Y-48157200D01*
X46511904Y-48157200D02*
X46464285Y-48061961D01*
X46464285Y-48061961D02*
X46464285Y-47204819D01*
X46988095Y-48204819D02*
X46988095Y-47204819D01*
X47416666Y-48204819D02*
X47416666Y-47681009D01*
X47416666Y-47681009D02*
X47369047Y-47585771D01*
X47369047Y-47585771D02*
X47273809Y-47538152D01*
X47273809Y-47538152D02*
X47130952Y-47538152D01*
X47130952Y-47538152D02*
X47035714Y-47585771D01*
X47035714Y-47585771D02*
X46988095Y-47633390D01*
X49226190Y-48109580D02*
X49178571Y-48157200D01*
X49178571Y-48157200D02*
X49035714Y-48204819D01*
X49035714Y-48204819D02*
X48940476Y-48204819D01*
X48940476Y-48204819D02*
X48797619Y-48157200D01*
X48797619Y-48157200D02*
X48702381Y-48061961D01*
X48702381Y-48061961D02*
X48654762Y-47966723D01*
X48654762Y-47966723D02*
X48607143Y-47776247D01*
X48607143Y-47776247D02*
X48607143Y-47633390D01*
X48607143Y-47633390D02*
X48654762Y-47442914D01*
X48654762Y-47442914D02*
X48702381Y-47347676D01*
X48702381Y-47347676D02*
X48797619Y-47252438D01*
X48797619Y-47252438D02*
X48940476Y-47204819D01*
X48940476Y-47204819D02*
X49035714Y-47204819D01*
X49035714Y-47204819D02*
X49178571Y-47252438D01*
X49178571Y-47252438D02*
X49226190Y-47300057D01*
X49654762Y-48204819D02*
X49654762Y-47204819D01*
X50083333Y-48204819D02*
X50083333Y-47681009D01*
X50083333Y-47681009D02*
X50035714Y-47585771D01*
X50035714Y-47585771D02*
X49940476Y-47538152D01*
X49940476Y-47538152D02*
X49797619Y-47538152D01*
X49797619Y-47538152D02*
X49702381Y-47585771D01*
X49702381Y-47585771D02*
X49654762Y-47633390D01*
X50702381Y-48204819D02*
X50607143Y-48157200D01*
X50607143Y-48157200D02*
X50559524Y-48109580D01*
X50559524Y-48109580D02*
X50511905Y-48014342D01*
X50511905Y-48014342D02*
X50511905Y-47728628D01*
X50511905Y-47728628D02*
X50559524Y-47633390D01*
X50559524Y-47633390D02*
X50607143Y-47585771D01*
X50607143Y-47585771D02*
X50702381Y-47538152D01*
X50702381Y-47538152D02*
X50845238Y-47538152D01*
X50845238Y-47538152D02*
X50940476Y-47585771D01*
X50940476Y-47585771D02*
X50988095Y-47633390D01*
X50988095Y-47633390D02*
X51035714Y-47728628D01*
X51035714Y-47728628D02*
X51035714Y-48014342D01*
X51035714Y-48014342D02*
X50988095Y-48109580D01*
X50988095Y-48109580D02*
X50940476Y-48157200D01*
X50940476Y-48157200D02*
X50845238Y-48204819D01*
X50845238Y-48204819D02*
X50702381Y-48204819D01*
X51892857Y-48157200D02*
X51797619Y-48204819D01*
X51797619Y-48204819D02*
X51607143Y-48204819D01*
X51607143Y-48204819D02*
X51511905Y-48157200D01*
X51511905Y-48157200D02*
X51464286Y-48109580D01*
X51464286Y-48109580D02*
X51416667Y-48014342D01*
X51416667Y-48014342D02*
X51416667Y-47728628D01*
X51416667Y-47728628D02*
X51464286Y-47633390D01*
X51464286Y-47633390D02*
X51511905Y-47585771D01*
X51511905Y-47585771D02*
X51607143Y-47538152D01*
X51607143Y-47538152D02*
X51797619Y-47538152D01*
X51797619Y-47538152D02*
X51892857Y-47585771D01*
X52940477Y-47204819D02*
X53273810Y-48204819D01*
X53273810Y-48204819D02*
X53607143Y-47204819D01*
X53892858Y-47300057D02*
X53940477Y-47252438D01*
X53940477Y-47252438D02*
X54035715Y-47204819D01*
X54035715Y-47204819D02*
X54273810Y-47204819D01*
X54273810Y-47204819D02*
X54369048Y-47252438D01*
X54369048Y-47252438D02*
X54416667Y-47300057D01*
X54416667Y-47300057D02*
X54464286Y-47395295D01*
X54464286Y-47395295D02*
X54464286Y-47490533D01*
X54464286Y-47490533D02*
X54416667Y-47633390D01*
X54416667Y-47633390D02*
X53845239Y-48204819D01*
X53845239Y-48204819D02*
X54464286Y-48204819D01*
X47916667Y-39157200D02*
X48059524Y-39204819D01*
X48059524Y-39204819D02*
X48297619Y-39204819D01*
X48297619Y-39204819D02*
X48392857Y-39157200D01*
X48392857Y-39157200D02*
X48440476Y-39109580D01*
X48440476Y-39109580D02*
X48488095Y-39014342D01*
X48488095Y-39014342D02*
X48488095Y-38919104D01*
X48488095Y-38919104D02*
X48440476Y-38823866D01*
X48440476Y-38823866D02*
X48392857Y-38776247D01*
X48392857Y-38776247D02*
X48297619Y-38728628D01*
X48297619Y-38728628D02*
X48107143Y-38681009D01*
X48107143Y-38681009D02*
X48011905Y-38633390D01*
X48011905Y-38633390D02*
X47964286Y-38585771D01*
X47964286Y-38585771D02*
X47916667Y-38490533D01*
X47916667Y-38490533D02*
X47916667Y-38395295D01*
X47916667Y-38395295D02*
X47964286Y-38300057D01*
X47964286Y-38300057D02*
X48011905Y-38252438D01*
X48011905Y-38252438D02*
X48107143Y-38204819D01*
X48107143Y-38204819D02*
X48345238Y-38204819D01*
X48345238Y-38204819D02*
X48488095Y-38252438D01*
X48821429Y-38204819D02*
X49059524Y-39204819D01*
X49059524Y-39204819D02*
X49250000Y-38490533D01*
X49250000Y-38490533D02*
X49440476Y-39204819D01*
X49440476Y-39204819D02*
X49678572Y-38204819D01*
X49964286Y-38204819D02*
X50583333Y-38204819D01*
X50583333Y-38204819D02*
X50250000Y-38585771D01*
X50250000Y-38585771D02*
X50392857Y-38585771D01*
X50392857Y-38585771D02*
X50488095Y-38633390D01*
X50488095Y-38633390D02*
X50535714Y-38681009D01*
X50535714Y-38681009D02*
X50583333Y-38776247D01*
X50583333Y-38776247D02*
X50583333Y-39014342D01*
X50583333Y-39014342D02*
X50535714Y-39109580D01*
X50535714Y-39109580D02*
X50488095Y-39157200D01*
X50488095Y-39157200D02*
X50392857Y-39204819D01*
X50392857Y-39204819D02*
X50107143Y-39204819D01*
X50107143Y-39204819D02*
X50011905Y-39157200D01*
X50011905Y-39157200D02*
X49964286Y-39109580D01*
X8083333Y-99204819D02*
X8083333Y-98204819D01*
X8654761Y-99204819D02*
X8226190Y-98633390D01*
X8654761Y-98204819D02*
X8083333Y-98776247D01*
X9511904Y-99204819D02*
X9511904Y-98681009D01*
X9511904Y-98681009D02*
X9464285Y-98585771D01*
X9464285Y-98585771D02*
X9369047Y-98538152D01*
X9369047Y-98538152D02*
X9178571Y-98538152D01*
X9178571Y-98538152D02*
X9083333Y-98585771D01*
X9511904Y-99157200D02*
X9416666Y-99204819D01*
X9416666Y-99204819D02*
X9178571Y-99204819D01*
X9178571Y-99204819D02*
X9083333Y-99157200D01*
X9083333Y-99157200D02*
X9035714Y-99061961D01*
X9035714Y-99061961D02*
X9035714Y-98966723D01*
X9035714Y-98966723D02*
X9083333Y-98871485D01*
X9083333Y-98871485D02*
X9178571Y-98823866D01*
X9178571Y-98823866D02*
X9416666Y-98823866D01*
X9416666Y-98823866D02*
X9511904Y-98776247D01*
X9988095Y-99204819D02*
X9988095Y-98538152D01*
X9988095Y-98204819D02*
X9940476Y-98252438D01*
X9940476Y-98252438D02*
X9988095Y-98300057D01*
X9988095Y-98300057D02*
X10035714Y-98252438D01*
X10035714Y-98252438D02*
X9988095Y-98204819D01*
X9988095Y-98204819D02*
X9988095Y-98300057D01*
X10607142Y-99204819D02*
X10511904Y-99157200D01*
X10511904Y-99157200D02*
X10464285Y-99061961D01*
X10464285Y-99061961D02*
X10464285Y-98204819D01*
X10988095Y-99204819D02*
X10988095Y-98204819D01*
X11416666Y-99204819D02*
X11416666Y-98681009D01*
X11416666Y-98681009D02*
X11369047Y-98585771D01*
X11369047Y-98585771D02*
X11273809Y-98538152D01*
X11273809Y-98538152D02*
X11130952Y-98538152D01*
X11130952Y-98538152D02*
X11035714Y-98585771D01*
X11035714Y-98585771D02*
X10988095Y-98633390D01*
X13226190Y-99109580D02*
X13178571Y-99157200D01*
X13178571Y-99157200D02*
X13035714Y-99204819D01*
X13035714Y-99204819D02*
X12940476Y-99204819D01*
X12940476Y-99204819D02*
X12797619Y-99157200D01*
X12797619Y-99157200D02*
X12702381Y-99061961D01*
X12702381Y-99061961D02*
X12654762Y-98966723D01*
X12654762Y-98966723D02*
X12607143Y-98776247D01*
X12607143Y-98776247D02*
X12607143Y-98633390D01*
X12607143Y-98633390D02*
X12654762Y-98442914D01*
X12654762Y-98442914D02*
X12702381Y-98347676D01*
X12702381Y-98347676D02*
X12797619Y-98252438D01*
X12797619Y-98252438D02*
X12940476Y-98204819D01*
X12940476Y-98204819D02*
X13035714Y-98204819D01*
X13035714Y-98204819D02*
X13178571Y-98252438D01*
X13178571Y-98252438D02*
X13226190Y-98300057D01*
X13654762Y-99204819D02*
X13654762Y-98204819D01*
X14083333Y-99204819D02*
X14083333Y-98681009D01*
X14083333Y-98681009D02*
X14035714Y-98585771D01*
X14035714Y-98585771D02*
X13940476Y-98538152D01*
X13940476Y-98538152D02*
X13797619Y-98538152D01*
X13797619Y-98538152D02*
X13702381Y-98585771D01*
X13702381Y-98585771D02*
X13654762Y-98633390D01*
X14702381Y-99204819D02*
X14607143Y-99157200D01*
X14607143Y-99157200D02*
X14559524Y-99109580D01*
X14559524Y-99109580D02*
X14511905Y-99014342D01*
X14511905Y-99014342D02*
X14511905Y-98728628D01*
X14511905Y-98728628D02*
X14559524Y-98633390D01*
X14559524Y-98633390D02*
X14607143Y-98585771D01*
X14607143Y-98585771D02*
X14702381Y-98538152D01*
X14702381Y-98538152D02*
X14845238Y-98538152D01*
X14845238Y-98538152D02*
X14940476Y-98585771D01*
X14940476Y-98585771D02*
X14988095Y-98633390D01*
X14988095Y-98633390D02*
X15035714Y-98728628D01*
X15035714Y-98728628D02*
X15035714Y-99014342D01*
X15035714Y-99014342D02*
X14988095Y-99109580D01*
X14988095Y-99109580D02*
X14940476Y-99157200D01*
X14940476Y-99157200D02*
X14845238Y-99204819D01*
X14845238Y-99204819D02*
X14702381Y-99204819D01*
X15892857Y-99157200D02*
X15797619Y-99204819D01*
X15797619Y-99204819D02*
X15607143Y-99204819D01*
X15607143Y-99204819D02*
X15511905Y-99157200D01*
X15511905Y-99157200D02*
X15464286Y-99109580D01*
X15464286Y-99109580D02*
X15416667Y-99014342D01*
X15416667Y-99014342D02*
X15416667Y-98728628D01*
X15416667Y-98728628D02*
X15464286Y-98633390D01*
X15464286Y-98633390D02*
X15511905Y-98585771D01*
X15511905Y-98585771D02*
X15607143Y-98538152D01*
X15607143Y-98538152D02*
X15797619Y-98538152D01*
X15797619Y-98538152D02*
X15892857Y-98585771D01*
X16940477Y-98204819D02*
X17273810Y-99204819D01*
X17273810Y-99204819D02*
X17607143Y-98204819D01*
X17892858Y-98300057D02*
X17940477Y-98252438D01*
X17940477Y-98252438D02*
X18035715Y-98204819D01*
X18035715Y-98204819D02*
X18273810Y-98204819D01*
X18273810Y-98204819D02*
X18369048Y-98252438D01*
X18369048Y-98252438D02*
X18416667Y-98300057D01*
X18416667Y-98300057D02*
X18464286Y-98395295D01*
X18464286Y-98395295D02*
X18464286Y-98490533D01*
X18464286Y-98490533D02*
X18416667Y-98633390D01*
X18416667Y-98633390D02*
X17845239Y-99204819D01*
X17845239Y-99204819D02*
X18464286Y-99204819D01*
X11440476Y-90157200D02*
X11583333Y-90204819D01*
X11583333Y-90204819D02*
X11821428Y-90204819D01*
X11821428Y-90204819D02*
X11916666Y-90157200D01*
X11916666Y-90157200D02*
X11964285Y-90109580D01*
X11964285Y-90109580D02*
X12011904Y-90014342D01*
X12011904Y-90014342D02*
X12011904Y-89919104D01*
X12011904Y-89919104D02*
X11964285Y-89823866D01*
X11964285Y-89823866D02*
X11916666Y-89776247D01*
X11916666Y-89776247D02*
X11821428Y-89728628D01*
X11821428Y-89728628D02*
X11630952Y-89681009D01*
X11630952Y-89681009D02*
X11535714Y-89633390D01*
X11535714Y-89633390D02*
X11488095Y-89585771D01*
X11488095Y-89585771D02*
X11440476Y-89490533D01*
X11440476Y-89490533D02*
X11440476Y-89395295D01*
X11440476Y-89395295D02*
X11488095Y-89300057D01*
X11488095Y-89300057D02*
X11535714Y-89252438D01*
X11535714Y-89252438D02*
X11630952Y-89204819D01*
X11630952Y-89204819D02*
X11869047Y-89204819D01*
X11869047Y-89204819D02*
X12011904Y-89252438D01*
X12345238Y-89204819D02*
X12583333Y-90204819D01*
X12583333Y-90204819D02*
X12773809Y-89490533D01*
X12773809Y-89490533D02*
X12964285Y-90204819D01*
X12964285Y-90204819D02*
X13202381Y-89204819D01*
X14107142Y-90204819D02*
X13535714Y-90204819D01*
X13821428Y-90204819D02*
X13821428Y-89204819D01*
X13821428Y-89204819D02*
X13726190Y-89347676D01*
X13726190Y-89347676D02*
X13630952Y-89442914D01*
X13630952Y-89442914D02*
X13535714Y-89490533D01*
X14964285Y-89204819D02*
X14773809Y-89204819D01*
X14773809Y-89204819D02*
X14678571Y-89252438D01*
X14678571Y-89252438D02*
X14630952Y-89300057D01*
X14630952Y-89300057D02*
X14535714Y-89442914D01*
X14535714Y-89442914D02*
X14488095Y-89633390D01*
X14488095Y-89633390D02*
X14488095Y-90014342D01*
X14488095Y-90014342D02*
X14535714Y-90109580D01*
X14535714Y-90109580D02*
X14583333Y-90157200D01*
X14583333Y-90157200D02*
X14678571Y-90204819D01*
X14678571Y-90204819D02*
X14869047Y-90204819D01*
X14869047Y-90204819D02*
X14964285Y-90157200D01*
X14964285Y-90157200D02*
X15011904Y-90109580D01*
X15011904Y-90109580D02*
X15059523Y-90014342D01*
X15059523Y-90014342D02*
X15059523Y-89776247D01*
X15059523Y-89776247D02*
X15011904Y-89681009D01*
X15011904Y-89681009D02*
X14964285Y-89633390D01*
X14964285Y-89633390D02*
X14869047Y-89585771D01*
X14869047Y-89585771D02*
X14678571Y-89585771D01*
X14678571Y-89585771D02*
X14583333Y-89633390D01*
X14583333Y-89633390D02*
X14535714Y-89681009D01*
X14535714Y-89681009D02*
X14488095Y-89776247D01*
X26083333Y-65204819D02*
X26083333Y-64204819D01*
X26654761Y-65204819D02*
X26226190Y-64633390D01*
X26654761Y-64204819D02*
X26083333Y-64776247D01*
X27511904Y-65204819D02*
X27511904Y-64681009D01*
X27511904Y-64681009D02*
X27464285Y-64585771D01*
X27464285Y-64585771D02*
X27369047Y-64538152D01*
X27369047Y-64538152D02*
X27178571Y-64538152D01*
X27178571Y-64538152D02*
X27083333Y-64585771D01*
X27511904Y-65157200D02*
X27416666Y-65204819D01*
X27416666Y-65204819D02*
X27178571Y-65204819D01*
X27178571Y-65204819D02*
X27083333Y-65157200D01*
X27083333Y-65157200D02*
X27035714Y-65061961D01*
X27035714Y-65061961D02*
X27035714Y-64966723D01*
X27035714Y-64966723D02*
X27083333Y-64871485D01*
X27083333Y-64871485D02*
X27178571Y-64823866D01*
X27178571Y-64823866D02*
X27416666Y-64823866D01*
X27416666Y-64823866D02*
X27511904Y-64776247D01*
X27988095Y-65204819D02*
X27988095Y-64538152D01*
X27988095Y-64204819D02*
X27940476Y-64252438D01*
X27940476Y-64252438D02*
X27988095Y-64300057D01*
X27988095Y-64300057D02*
X28035714Y-64252438D01*
X28035714Y-64252438D02*
X27988095Y-64204819D01*
X27988095Y-64204819D02*
X27988095Y-64300057D01*
X28607142Y-65204819D02*
X28511904Y-65157200D01*
X28511904Y-65157200D02*
X28464285Y-65061961D01*
X28464285Y-65061961D02*
X28464285Y-64204819D01*
X28988095Y-65204819D02*
X28988095Y-64204819D01*
X29416666Y-65204819D02*
X29416666Y-64681009D01*
X29416666Y-64681009D02*
X29369047Y-64585771D01*
X29369047Y-64585771D02*
X29273809Y-64538152D01*
X29273809Y-64538152D02*
X29130952Y-64538152D01*
X29130952Y-64538152D02*
X29035714Y-64585771D01*
X29035714Y-64585771D02*
X28988095Y-64633390D01*
X31226190Y-65109580D02*
X31178571Y-65157200D01*
X31178571Y-65157200D02*
X31035714Y-65204819D01*
X31035714Y-65204819D02*
X30940476Y-65204819D01*
X30940476Y-65204819D02*
X30797619Y-65157200D01*
X30797619Y-65157200D02*
X30702381Y-65061961D01*
X30702381Y-65061961D02*
X30654762Y-64966723D01*
X30654762Y-64966723D02*
X30607143Y-64776247D01*
X30607143Y-64776247D02*
X30607143Y-64633390D01*
X30607143Y-64633390D02*
X30654762Y-64442914D01*
X30654762Y-64442914D02*
X30702381Y-64347676D01*
X30702381Y-64347676D02*
X30797619Y-64252438D01*
X30797619Y-64252438D02*
X30940476Y-64204819D01*
X30940476Y-64204819D02*
X31035714Y-64204819D01*
X31035714Y-64204819D02*
X31178571Y-64252438D01*
X31178571Y-64252438D02*
X31226190Y-64300057D01*
X31654762Y-65204819D02*
X31654762Y-64204819D01*
X32083333Y-65204819D02*
X32083333Y-64681009D01*
X32083333Y-64681009D02*
X32035714Y-64585771D01*
X32035714Y-64585771D02*
X31940476Y-64538152D01*
X31940476Y-64538152D02*
X31797619Y-64538152D01*
X31797619Y-64538152D02*
X31702381Y-64585771D01*
X31702381Y-64585771D02*
X31654762Y-64633390D01*
X32702381Y-65204819D02*
X32607143Y-65157200D01*
X32607143Y-65157200D02*
X32559524Y-65109580D01*
X32559524Y-65109580D02*
X32511905Y-65014342D01*
X32511905Y-65014342D02*
X32511905Y-64728628D01*
X32511905Y-64728628D02*
X32559524Y-64633390D01*
X32559524Y-64633390D02*
X32607143Y-64585771D01*
X32607143Y-64585771D02*
X32702381Y-64538152D01*
X32702381Y-64538152D02*
X32845238Y-64538152D01*
X32845238Y-64538152D02*
X32940476Y-64585771D01*
X32940476Y-64585771D02*
X32988095Y-64633390D01*
X32988095Y-64633390D02*
X33035714Y-64728628D01*
X33035714Y-64728628D02*
X33035714Y-65014342D01*
X33035714Y-65014342D02*
X32988095Y-65109580D01*
X32988095Y-65109580D02*
X32940476Y-65157200D01*
X32940476Y-65157200D02*
X32845238Y-65204819D01*
X32845238Y-65204819D02*
X32702381Y-65204819D01*
X33892857Y-65157200D02*
X33797619Y-65204819D01*
X33797619Y-65204819D02*
X33607143Y-65204819D01*
X33607143Y-65204819D02*
X33511905Y-65157200D01*
X33511905Y-65157200D02*
X33464286Y-65109580D01*
X33464286Y-65109580D02*
X33416667Y-65014342D01*
X33416667Y-65014342D02*
X33416667Y-64728628D01*
X33416667Y-64728628D02*
X33464286Y-64633390D01*
X33464286Y-64633390D02*
X33511905Y-64585771D01*
X33511905Y-64585771D02*
X33607143Y-64538152D01*
X33607143Y-64538152D02*
X33797619Y-64538152D01*
X33797619Y-64538152D02*
X33892857Y-64585771D01*
X34940477Y-64204819D02*
X35273810Y-65204819D01*
X35273810Y-65204819D02*
X35607143Y-64204819D01*
X35892858Y-64300057D02*
X35940477Y-64252438D01*
X35940477Y-64252438D02*
X36035715Y-64204819D01*
X36035715Y-64204819D02*
X36273810Y-64204819D01*
X36273810Y-64204819D02*
X36369048Y-64252438D01*
X36369048Y-64252438D02*
X36416667Y-64300057D01*
X36416667Y-64300057D02*
X36464286Y-64395295D01*
X36464286Y-64395295D02*
X36464286Y-64490533D01*
X36464286Y-64490533D02*
X36416667Y-64633390D01*
X36416667Y-64633390D02*
X35845239Y-65204819D01*
X35845239Y-65204819D02*
X36464286Y-65204819D01*
X29916667Y-56157200D02*
X30059524Y-56204819D01*
X30059524Y-56204819D02*
X30297619Y-56204819D01*
X30297619Y-56204819D02*
X30392857Y-56157200D01*
X30392857Y-56157200D02*
X30440476Y-56109580D01*
X30440476Y-56109580D02*
X30488095Y-56014342D01*
X30488095Y-56014342D02*
X30488095Y-55919104D01*
X30488095Y-55919104D02*
X30440476Y-55823866D01*
X30440476Y-55823866D02*
X30392857Y-55776247D01*
X30392857Y-55776247D02*
X30297619Y-55728628D01*
X30297619Y-55728628D02*
X30107143Y-55681009D01*
X30107143Y-55681009D02*
X30011905Y-55633390D01*
X30011905Y-55633390D02*
X29964286Y-55585771D01*
X29964286Y-55585771D02*
X29916667Y-55490533D01*
X29916667Y-55490533D02*
X29916667Y-55395295D01*
X29916667Y-55395295D02*
X29964286Y-55300057D01*
X29964286Y-55300057D02*
X30011905Y-55252438D01*
X30011905Y-55252438D02*
X30107143Y-55204819D01*
X30107143Y-55204819D02*
X30345238Y-55204819D01*
X30345238Y-55204819D02*
X30488095Y-55252438D01*
X30821429Y-55204819D02*
X31059524Y-56204819D01*
X31059524Y-56204819D02*
X31250000Y-55490533D01*
X31250000Y-55490533D02*
X31440476Y-56204819D01*
X31440476Y-56204819D02*
X31678572Y-55204819D01*
X32535714Y-55204819D02*
X32059524Y-55204819D01*
X32059524Y-55204819D02*
X32011905Y-55681009D01*
X32011905Y-55681009D02*
X32059524Y-55633390D01*
X32059524Y-55633390D02*
X32154762Y-55585771D01*
X32154762Y-55585771D02*
X32392857Y-55585771D01*
X32392857Y-55585771D02*
X32488095Y-55633390D01*
X32488095Y-55633390D02*
X32535714Y-55681009D01*
X32535714Y-55681009D02*
X32583333Y-55776247D01*
X32583333Y-55776247D02*
X32583333Y-56014342D01*
X32583333Y-56014342D02*
X32535714Y-56109580D01*
X32535714Y-56109580D02*
X32488095Y-56157200D01*
X32488095Y-56157200D02*
X32392857Y-56204819D01*
X32392857Y-56204819D02*
X32154762Y-56204819D01*
X32154762Y-56204819D02*
X32059524Y-56157200D01*
X32059524Y-56157200D02*
X32011905Y-56109580D01*
X62083333Y-99204819D02*
X62083333Y-98204819D01*
X62654761Y-99204819D02*
X62226190Y-98633390D01*
X62654761Y-98204819D02*
X62083333Y-98776247D01*
X63511904Y-99204819D02*
X63511904Y-98681009D01*
X63511904Y-98681009D02*
X63464285Y-98585771D01*
X63464285Y-98585771D02*
X63369047Y-98538152D01*
X63369047Y-98538152D02*
X63178571Y-98538152D01*
X63178571Y-98538152D02*
X63083333Y-98585771D01*
X63511904Y-99157200D02*
X63416666Y-99204819D01*
X63416666Y-99204819D02*
X63178571Y-99204819D01*
X63178571Y-99204819D02*
X63083333Y-99157200D01*
X63083333Y-99157200D02*
X63035714Y-99061961D01*
X63035714Y-99061961D02*
X63035714Y-98966723D01*
X63035714Y-98966723D02*
X63083333Y-98871485D01*
X63083333Y-98871485D02*
X63178571Y-98823866D01*
X63178571Y-98823866D02*
X63416666Y-98823866D01*
X63416666Y-98823866D02*
X63511904Y-98776247D01*
X63988095Y-99204819D02*
X63988095Y-98538152D01*
X63988095Y-98204819D02*
X63940476Y-98252438D01*
X63940476Y-98252438D02*
X63988095Y-98300057D01*
X63988095Y-98300057D02*
X64035714Y-98252438D01*
X64035714Y-98252438D02*
X63988095Y-98204819D01*
X63988095Y-98204819D02*
X63988095Y-98300057D01*
X64607142Y-99204819D02*
X64511904Y-99157200D01*
X64511904Y-99157200D02*
X64464285Y-99061961D01*
X64464285Y-99061961D02*
X64464285Y-98204819D01*
X64988095Y-99204819D02*
X64988095Y-98204819D01*
X65416666Y-99204819D02*
X65416666Y-98681009D01*
X65416666Y-98681009D02*
X65369047Y-98585771D01*
X65369047Y-98585771D02*
X65273809Y-98538152D01*
X65273809Y-98538152D02*
X65130952Y-98538152D01*
X65130952Y-98538152D02*
X65035714Y-98585771D01*
X65035714Y-98585771D02*
X64988095Y-98633390D01*
X67226190Y-99109580D02*
X67178571Y-99157200D01*
X67178571Y-99157200D02*
X67035714Y-99204819D01*
X67035714Y-99204819D02*
X66940476Y-99204819D01*
X66940476Y-99204819D02*
X66797619Y-99157200D01*
X66797619Y-99157200D02*
X66702381Y-99061961D01*
X66702381Y-99061961D02*
X66654762Y-98966723D01*
X66654762Y-98966723D02*
X66607143Y-98776247D01*
X66607143Y-98776247D02*
X66607143Y-98633390D01*
X66607143Y-98633390D02*
X66654762Y-98442914D01*
X66654762Y-98442914D02*
X66702381Y-98347676D01*
X66702381Y-98347676D02*
X66797619Y-98252438D01*
X66797619Y-98252438D02*
X66940476Y-98204819D01*
X66940476Y-98204819D02*
X67035714Y-98204819D01*
X67035714Y-98204819D02*
X67178571Y-98252438D01*
X67178571Y-98252438D02*
X67226190Y-98300057D01*
X67654762Y-99204819D02*
X67654762Y-98204819D01*
X68083333Y-99204819D02*
X68083333Y-98681009D01*
X68083333Y-98681009D02*
X68035714Y-98585771D01*
X68035714Y-98585771D02*
X67940476Y-98538152D01*
X67940476Y-98538152D02*
X67797619Y-98538152D01*
X67797619Y-98538152D02*
X67702381Y-98585771D01*
X67702381Y-98585771D02*
X67654762Y-98633390D01*
X68702381Y-99204819D02*
X68607143Y-99157200D01*
X68607143Y-99157200D02*
X68559524Y-99109580D01*
X68559524Y-99109580D02*
X68511905Y-99014342D01*
X68511905Y-99014342D02*
X68511905Y-98728628D01*
X68511905Y-98728628D02*
X68559524Y-98633390D01*
X68559524Y-98633390D02*
X68607143Y-98585771D01*
X68607143Y-98585771D02*
X68702381Y-98538152D01*
X68702381Y-98538152D02*
X68845238Y-98538152D01*
X68845238Y-98538152D02*
X68940476Y-98585771D01*
X68940476Y-98585771D02*
X68988095Y-98633390D01*
X68988095Y-98633390D02*
X69035714Y-98728628D01*
X69035714Y-98728628D02*
X69035714Y-99014342D01*
X69035714Y-99014342D02*
X68988095Y-99109580D01*
X68988095Y-99109580D02*
X68940476Y-99157200D01*
X68940476Y-99157200D02*
X68845238Y-99204819D01*
X68845238Y-99204819D02*
X68702381Y-99204819D01*
X69892857Y-99157200D02*
X69797619Y-99204819D01*
X69797619Y-99204819D02*
X69607143Y-99204819D01*
X69607143Y-99204819D02*
X69511905Y-99157200D01*
X69511905Y-99157200D02*
X69464286Y-99109580D01*
X69464286Y-99109580D02*
X69416667Y-99014342D01*
X69416667Y-99014342D02*
X69416667Y-98728628D01*
X69416667Y-98728628D02*
X69464286Y-98633390D01*
X69464286Y-98633390D02*
X69511905Y-98585771D01*
X69511905Y-98585771D02*
X69607143Y-98538152D01*
X69607143Y-98538152D02*
X69797619Y-98538152D01*
X69797619Y-98538152D02*
X69892857Y-98585771D01*
X70940477Y-98204819D02*
X71273810Y-99204819D01*
X71273810Y-99204819D02*
X71607143Y-98204819D01*
X71892858Y-98300057D02*
X71940477Y-98252438D01*
X71940477Y-98252438D02*
X72035715Y-98204819D01*
X72035715Y-98204819D02*
X72273810Y-98204819D01*
X72273810Y-98204819D02*
X72369048Y-98252438D01*
X72369048Y-98252438D02*
X72416667Y-98300057D01*
X72416667Y-98300057D02*
X72464286Y-98395295D01*
X72464286Y-98395295D02*
X72464286Y-98490533D01*
X72464286Y-98490533D02*
X72416667Y-98633390D01*
X72416667Y-98633390D02*
X71845239Y-99204819D01*
X71845239Y-99204819D02*
X72464286Y-99204819D01*
X65440476Y-90157200D02*
X65583333Y-90204819D01*
X65583333Y-90204819D02*
X65821428Y-90204819D01*
X65821428Y-90204819D02*
X65916666Y-90157200D01*
X65916666Y-90157200D02*
X65964285Y-90109580D01*
X65964285Y-90109580D02*
X66011904Y-90014342D01*
X66011904Y-90014342D02*
X66011904Y-89919104D01*
X66011904Y-89919104D02*
X65964285Y-89823866D01*
X65964285Y-89823866D02*
X65916666Y-89776247D01*
X65916666Y-89776247D02*
X65821428Y-89728628D01*
X65821428Y-89728628D02*
X65630952Y-89681009D01*
X65630952Y-89681009D02*
X65535714Y-89633390D01*
X65535714Y-89633390D02*
X65488095Y-89585771D01*
X65488095Y-89585771D02*
X65440476Y-89490533D01*
X65440476Y-89490533D02*
X65440476Y-89395295D01*
X65440476Y-89395295D02*
X65488095Y-89300057D01*
X65488095Y-89300057D02*
X65535714Y-89252438D01*
X65535714Y-89252438D02*
X65630952Y-89204819D01*
X65630952Y-89204819D02*
X65869047Y-89204819D01*
X65869047Y-89204819D02*
X66011904Y-89252438D01*
X66345238Y-89204819D02*
X66583333Y-90204819D01*
X66583333Y-90204819D02*
X66773809Y-89490533D01*
X66773809Y-89490533D02*
X66964285Y-90204819D01*
X66964285Y-90204819D02*
X67202381Y-89204819D01*
X68107142Y-90204819D02*
X67535714Y-90204819D01*
X67821428Y-90204819D02*
X67821428Y-89204819D01*
X67821428Y-89204819D02*
X67726190Y-89347676D01*
X67726190Y-89347676D02*
X67630952Y-89442914D01*
X67630952Y-89442914D02*
X67535714Y-89490533D01*
X68440476Y-89204819D02*
X69059523Y-89204819D01*
X69059523Y-89204819D02*
X68726190Y-89585771D01*
X68726190Y-89585771D02*
X68869047Y-89585771D01*
X68869047Y-89585771D02*
X68964285Y-89633390D01*
X68964285Y-89633390D02*
X69011904Y-89681009D01*
X69011904Y-89681009D02*
X69059523Y-89776247D01*
X69059523Y-89776247D02*
X69059523Y-90014342D01*
X69059523Y-90014342D02*
X69011904Y-90109580D01*
X69011904Y-90109580D02*
X68964285Y-90157200D01*
X68964285Y-90157200D02*
X68869047Y-90204819D01*
X68869047Y-90204819D02*
X68583333Y-90204819D01*
X68583333Y-90204819D02*
X68488095Y-90157200D01*
X68488095Y-90157200D02*
X68440476Y-90109580D01*
X26083333Y-99204819D02*
X26083333Y-98204819D01*
X26654761Y-99204819D02*
X26226190Y-98633390D01*
X26654761Y-98204819D02*
X26083333Y-98776247D01*
X27511904Y-99204819D02*
X27511904Y-98681009D01*
X27511904Y-98681009D02*
X27464285Y-98585771D01*
X27464285Y-98585771D02*
X27369047Y-98538152D01*
X27369047Y-98538152D02*
X27178571Y-98538152D01*
X27178571Y-98538152D02*
X27083333Y-98585771D01*
X27511904Y-99157200D02*
X27416666Y-99204819D01*
X27416666Y-99204819D02*
X27178571Y-99204819D01*
X27178571Y-99204819D02*
X27083333Y-99157200D01*
X27083333Y-99157200D02*
X27035714Y-99061961D01*
X27035714Y-99061961D02*
X27035714Y-98966723D01*
X27035714Y-98966723D02*
X27083333Y-98871485D01*
X27083333Y-98871485D02*
X27178571Y-98823866D01*
X27178571Y-98823866D02*
X27416666Y-98823866D01*
X27416666Y-98823866D02*
X27511904Y-98776247D01*
X27988095Y-99204819D02*
X27988095Y-98538152D01*
X27988095Y-98204819D02*
X27940476Y-98252438D01*
X27940476Y-98252438D02*
X27988095Y-98300057D01*
X27988095Y-98300057D02*
X28035714Y-98252438D01*
X28035714Y-98252438D02*
X27988095Y-98204819D01*
X27988095Y-98204819D02*
X27988095Y-98300057D01*
X28607142Y-99204819D02*
X28511904Y-99157200D01*
X28511904Y-99157200D02*
X28464285Y-99061961D01*
X28464285Y-99061961D02*
X28464285Y-98204819D01*
X28988095Y-99204819D02*
X28988095Y-98204819D01*
X29416666Y-99204819D02*
X29416666Y-98681009D01*
X29416666Y-98681009D02*
X29369047Y-98585771D01*
X29369047Y-98585771D02*
X29273809Y-98538152D01*
X29273809Y-98538152D02*
X29130952Y-98538152D01*
X29130952Y-98538152D02*
X29035714Y-98585771D01*
X29035714Y-98585771D02*
X28988095Y-98633390D01*
X31226190Y-99109580D02*
X31178571Y-99157200D01*
X31178571Y-99157200D02*
X31035714Y-99204819D01*
X31035714Y-99204819D02*
X30940476Y-99204819D01*
X30940476Y-99204819D02*
X30797619Y-99157200D01*
X30797619Y-99157200D02*
X30702381Y-99061961D01*
X30702381Y-99061961D02*
X30654762Y-98966723D01*
X30654762Y-98966723D02*
X30607143Y-98776247D01*
X30607143Y-98776247D02*
X30607143Y-98633390D01*
X30607143Y-98633390D02*
X30654762Y-98442914D01*
X30654762Y-98442914D02*
X30702381Y-98347676D01*
X30702381Y-98347676D02*
X30797619Y-98252438D01*
X30797619Y-98252438D02*
X30940476Y-98204819D01*
X30940476Y-98204819D02*
X31035714Y-98204819D01*
X31035714Y-98204819D02*
X31178571Y-98252438D01*
X31178571Y-98252438D02*
X31226190Y-98300057D01*
X31654762Y-99204819D02*
X31654762Y-98204819D01*
X32083333Y-99204819D02*
X32083333Y-98681009D01*
X32083333Y-98681009D02*
X32035714Y-98585771D01*
X32035714Y-98585771D02*
X31940476Y-98538152D01*
X31940476Y-98538152D02*
X31797619Y-98538152D01*
X31797619Y-98538152D02*
X31702381Y-98585771D01*
X31702381Y-98585771D02*
X31654762Y-98633390D01*
X32702381Y-99204819D02*
X32607143Y-99157200D01*
X32607143Y-99157200D02*
X32559524Y-99109580D01*
X32559524Y-99109580D02*
X32511905Y-99014342D01*
X32511905Y-99014342D02*
X32511905Y-98728628D01*
X32511905Y-98728628D02*
X32559524Y-98633390D01*
X32559524Y-98633390D02*
X32607143Y-98585771D01*
X32607143Y-98585771D02*
X32702381Y-98538152D01*
X32702381Y-98538152D02*
X32845238Y-98538152D01*
X32845238Y-98538152D02*
X32940476Y-98585771D01*
X32940476Y-98585771D02*
X32988095Y-98633390D01*
X32988095Y-98633390D02*
X33035714Y-98728628D01*
X33035714Y-98728628D02*
X33035714Y-99014342D01*
X33035714Y-99014342D02*
X32988095Y-99109580D01*
X32988095Y-99109580D02*
X32940476Y-99157200D01*
X32940476Y-99157200D02*
X32845238Y-99204819D01*
X32845238Y-99204819D02*
X32702381Y-99204819D01*
X33892857Y-99157200D02*
X33797619Y-99204819D01*
X33797619Y-99204819D02*
X33607143Y-99204819D01*
X33607143Y-99204819D02*
X33511905Y-99157200D01*
X33511905Y-99157200D02*
X33464286Y-99109580D01*
X33464286Y-99109580D02*
X33416667Y-99014342D01*
X33416667Y-99014342D02*
X33416667Y-98728628D01*
X33416667Y-98728628D02*
X33464286Y-98633390D01*
X33464286Y-98633390D02*
X33511905Y-98585771D01*
X33511905Y-98585771D02*
X33607143Y-98538152D01*
X33607143Y-98538152D02*
X33797619Y-98538152D01*
X33797619Y-98538152D02*
X33892857Y-98585771D01*
X34940477Y-98204819D02*
X35273810Y-99204819D01*
X35273810Y-99204819D02*
X35607143Y-98204819D01*
X35892858Y-98300057D02*
X35940477Y-98252438D01*
X35940477Y-98252438D02*
X36035715Y-98204819D01*
X36035715Y-98204819D02*
X36273810Y-98204819D01*
X36273810Y-98204819D02*
X36369048Y-98252438D01*
X36369048Y-98252438D02*
X36416667Y-98300057D01*
X36416667Y-98300057D02*
X36464286Y-98395295D01*
X36464286Y-98395295D02*
X36464286Y-98490533D01*
X36464286Y-98490533D02*
X36416667Y-98633390D01*
X36416667Y-98633390D02*
X35845239Y-99204819D01*
X35845239Y-99204819D02*
X36464286Y-99204819D01*
X29440476Y-90157200D02*
X29583333Y-90204819D01*
X29583333Y-90204819D02*
X29821428Y-90204819D01*
X29821428Y-90204819D02*
X29916666Y-90157200D01*
X29916666Y-90157200D02*
X29964285Y-90109580D01*
X29964285Y-90109580D02*
X30011904Y-90014342D01*
X30011904Y-90014342D02*
X30011904Y-89919104D01*
X30011904Y-89919104D02*
X29964285Y-89823866D01*
X29964285Y-89823866D02*
X29916666Y-89776247D01*
X29916666Y-89776247D02*
X29821428Y-89728628D01*
X29821428Y-89728628D02*
X29630952Y-89681009D01*
X29630952Y-89681009D02*
X29535714Y-89633390D01*
X29535714Y-89633390D02*
X29488095Y-89585771D01*
X29488095Y-89585771D02*
X29440476Y-89490533D01*
X29440476Y-89490533D02*
X29440476Y-89395295D01*
X29440476Y-89395295D02*
X29488095Y-89300057D01*
X29488095Y-89300057D02*
X29535714Y-89252438D01*
X29535714Y-89252438D02*
X29630952Y-89204819D01*
X29630952Y-89204819D02*
X29869047Y-89204819D01*
X29869047Y-89204819D02*
X30011904Y-89252438D01*
X30345238Y-89204819D02*
X30583333Y-90204819D01*
X30583333Y-90204819D02*
X30773809Y-89490533D01*
X30773809Y-89490533D02*
X30964285Y-90204819D01*
X30964285Y-90204819D02*
X31202381Y-89204819D01*
X32107142Y-90204819D02*
X31535714Y-90204819D01*
X31821428Y-90204819D02*
X31821428Y-89204819D01*
X31821428Y-89204819D02*
X31726190Y-89347676D01*
X31726190Y-89347676D02*
X31630952Y-89442914D01*
X31630952Y-89442914D02*
X31535714Y-89490533D01*
X33011904Y-89204819D02*
X32535714Y-89204819D01*
X32535714Y-89204819D02*
X32488095Y-89681009D01*
X32488095Y-89681009D02*
X32535714Y-89633390D01*
X32535714Y-89633390D02*
X32630952Y-89585771D01*
X32630952Y-89585771D02*
X32869047Y-89585771D01*
X32869047Y-89585771D02*
X32964285Y-89633390D01*
X32964285Y-89633390D02*
X33011904Y-89681009D01*
X33011904Y-89681009D02*
X33059523Y-89776247D01*
X33059523Y-89776247D02*
X33059523Y-90014342D01*
X33059523Y-90014342D02*
X33011904Y-90109580D01*
X33011904Y-90109580D02*
X32964285Y-90157200D01*
X32964285Y-90157200D02*
X32869047Y-90204819D01*
X32869047Y-90204819D02*
X32630952Y-90204819D01*
X32630952Y-90204819D02*
X32535714Y-90157200D01*
X32535714Y-90157200D02*
X32488095Y-90109580D01*
D11*
G04 #@! TO.C,SW4*
X5750000Y-48250000D02*
X5750000Y-63250000D01*
X5750000Y-63250000D02*
X20750000Y-63250000D01*
X20750000Y-48250000D02*
X5750000Y-48250000D01*
X20750000Y-63250000D02*
X20750000Y-48250000D01*
G04 #@! TO.C,SW14*
X41750000Y-82250000D02*
X41750000Y-97250000D01*
X41750000Y-97250000D02*
X56750000Y-97250000D01*
X56750000Y-82250000D02*
X41750000Y-82250000D01*
X56750000Y-97250000D02*
X56750000Y-82250000D01*
G04 #@! TO.C,SW1*
X5750000Y-31250000D02*
X5750000Y-46250000D01*
X5750000Y-46250000D02*
X20750000Y-46250000D01*
X20750000Y-31250000D02*
X5750000Y-31250000D01*
X20750000Y-46250000D02*
X20750000Y-31250000D01*
G04 #@! TO.C,SW8*
X23750000Y-65250000D02*
X23750000Y-80250000D01*
X23750000Y-80250000D02*
X38750000Y-80250000D01*
X38750000Y-65250000D02*
X23750000Y-65250000D01*
X38750000Y-80250000D02*
X38750000Y-65250000D01*
G04 #@! TO.C,SW9*
X41750000Y-65250000D02*
X41750000Y-80250000D01*
X41750000Y-80250000D02*
X56750000Y-80250000D01*
X56750000Y-65250000D02*
X41750000Y-65250000D01*
X56750000Y-80250000D02*
X56750000Y-65250000D01*
G04 #@! TO.C,SW12*
X59750000Y-65250000D02*
X59750000Y-80250000D01*
X59750000Y-80250000D02*
X74750000Y-80250000D01*
X74750000Y-65250000D02*
X59750000Y-65250000D01*
X74750000Y-80250000D02*
X74750000Y-65250000D01*
G04 #@! TO.C,SW6*
X41750000Y-48250000D02*
X41750000Y-63250000D01*
X41750000Y-63250000D02*
X56750000Y-63250000D01*
X56750000Y-48250000D02*
X41750000Y-48250000D01*
X56750000Y-63250000D02*
X56750000Y-48250000D01*
G04 #@! TO.C,SW10*
X59750000Y-31250000D02*
X59750000Y-46250000D01*
X59750000Y-46250000D02*
X74750000Y-46250000D01*
X74750000Y-31250000D02*
X59750000Y-31250000D01*
X74750000Y-46250000D02*
X74750000Y-31250000D01*
G04 #@! TO.C,SW7*
X5750000Y-65250000D02*
X5750000Y-80250000D01*
X5750000Y-80250000D02*
X20750000Y-80250000D01*
X20750000Y-65250000D02*
X5750000Y-65250000D01*
X20750000Y-80250000D02*
X20750000Y-65250000D01*
G04 #@! TO.C,SW2*
X23750000Y-31250000D02*
X23750000Y-46250000D01*
X23750000Y-46250000D02*
X38750000Y-46250000D01*
X38750000Y-31250000D02*
X23750000Y-31250000D01*
X38750000Y-46250000D02*
X38750000Y-31250000D01*
G04 #@! TO.C,SW11*
X59750000Y-48250000D02*
X59750000Y-63250000D01*
X59750000Y-63250000D02*
X74750000Y-63250000D01*
X74750000Y-48250000D02*
X59750000Y-48250000D01*
X74750000Y-63250000D02*
X74750000Y-48250000D01*
G04 #@! TO.C,SW3*
X41750000Y-31250000D02*
X41750000Y-46250000D01*
X41750000Y-46250000D02*
X56750000Y-46250000D01*
X56750000Y-31250000D02*
X41750000Y-31250000D01*
X56750000Y-46250000D02*
X56750000Y-31250000D01*
G04 #@! TO.C,SW16*
X5750000Y-82250000D02*
X5750000Y-97250000D01*
X5750000Y-97250000D02*
X20750000Y-97250000D01*
X20750000Y-82250000D02*
X5750000Y-82250000D01*
X20750000Y-97250000D02*
X20750000Y-82250000D01*
G04 #@! TO.C,SW5*
X23750000Y-48250000D02*
X23750000Y-63250000D01*
X23750000Y-63250000D02*
X38750000Y-63250000D01*
X38750000Y-48250000D02*
X23750000Y-48250000D01*
X38750000Y-63250000D02*
X38750000Y-48250000D01*
G04 #@! TO.C,SW13*
X59750000Y-82250000D02*
X59750000Y-97250000D01*
X59750000Y-97250000D02*
X74750000Y-97250000D01*
X74750000Y-82250000D02*
X59750000Y-82250000D01*
X74750000Y-97250000D02*
X74750000Y-82250000D01*
G04 #@! TO.C,SW15*
X23750000Y-82250000D02*
X23750000Y-97250000D01*
X23750000Y-97250000D02*
X38750000Y-97250000D01*
X38750000Y-82250000D02*
X23750000Y-82250000D01*
X38750000Y-97250000D02*
X38750000Y-82250000D01*
G04 #@! TD*
M02*
