%TF.GenerationSoftware,KiCad,Pcbnew,8.0.6*%
%TF.CreationDate,2024-10-20T21:42:17+02:00*%
%TF.ProjectId,macropad,6d616372-6f70-4616-942e-6b696361645f,v7.6*%
%TF.SameCoordinates,Original*%
%TF.FileFunction,Drillmap*%
%TF.FilePolarity,Positive*%
%FSLAX45Y45*%
G04 Gerber Fmt 4.5, Leading zero omitted, Abs format (unit mm)*
G04 Created by KiCad (PCBNEW 8.0.6) date 2024-10-20 21:42:17*
%MOMM*%
%LPD*%
G01*
G04 APERTURE LIST*
%ADD10C,0.050000*%
%ADD11C,0.120000*%
%ADD12C,0.200000*%
%ADD13C,0.100000*%
%ADD14C,0.160000*%
G04 APERTURE END LIST*
D10*
X8050000Y0D02*
X0Y0D01*
X0Y0D02*
X0Y-10000000D01*
X0Y-10000000D02*
X8050000Y-10000000D01*
X8050000Y-10000000D02*
X8050000Y0D01*
D11*
X6555000Y-9318000D02*
X6555000Y-9618000D01*
X6555000Y-9618000D02*
X6895000Y-9618000D01*
X6895000Y-9318000D02*
X6555000Y-9318000D01*
X6895000Y-9618000D02*
X6895000Y-9318000D01*
X6555000Y-4218000D02*
X6555000Y-4518000D01*
X6555000Y-4518000D02*
X6895000Y-4518000D01*
X6895000Y-4218000D02*
X6555000Y-4218000D01*
X6895000Y-4518000D02*
X6895000Y-4218000D01*
X1155000Y-4218000D02*
X1155000Y-4518000D01*
X1155000Y-4518000D02*
X1495000Y-4518000D01*
X1495000Y-4218000D02*
X1155000Y-4218000D01*
X1495000Y-4518000D02*
X1495000Y-4218000D01*
X1155000Y-9318000D02*
X1155000Y-9618000D01*
X1155000Y-9618000D02*
X1495000Y-9618000D01*
X1495000Y-9318000D02*
X1155000Y-9318000D01*
X1495000Y-9618000D02*
X1495000Y-9318000D01*
D12*
D13*
X200000Y-6275000D02*
X250000Y-6325000D01*
X250000Y-6275000D02*
X200000Y-6325000D01*
X200000Y-6450000D02*
X250000Y-6500000D01*
X250000Y-6450000D02*
X200000Y-6500000D01*
X200000Y-6625000D02*
X250000Y-6675000D01*
X250000Y-6625000D02*
X200000Y-6675000D01*
X225000Y-9750000D02*
X275000Y-9800000D01*
X275000Y-9750000D02*
X225000Y-9800000D01*
X375000Y-6450000D02*
X425000Y-6500000D01*
X425000Y-6450000D02*
X375000Y-6500000D01*
X400000Y-2450000D02*
X450000Y-2500000D01*
X450000Y-2450000D02*
X400000Y-2500000D01*
X550000Y-5325000D02*
X600000Y-5375000D01*
X600000Y-5325000D02*
X550000Y-5375000D01*
X675000Y-8825000D02*
X725000Y-8875000D01*
X725000Y-8825000D02*
X675000Y-8875000D01*
X1175000Y-1025000D02*
X1225000Y-1075000D01*
X1225000Y-1025000D02*
X1175000Y-1075000D01*
X1725000Y-4500000D02*
X1775000Y-4550000D01*
X1775000Y-4500000D02*
X1725000Y-4550000D01*
X1750000Y-4200000D02*
X1800000Y-4250000D01*
X1800000Y-4200000D02*
X1750000Y-4250000D01*
X1750000Y-9600000D02*
X1800000Y-9650000D01*
X1800000Y-9600000D02*
X1750000Y-9650000D01*
X1875000Y-4175000D02*
X1925000Y-4225000D01*
X1925000Y-4175000D02*
X1875000Y-4225000D01*
X2150000Y-6000000D02*
X2200000Y-6050000D01*
X2200000Y-6000000D02*
X2150000Y-6050000D01*
X2175000Y-5350000D02*
X2225000Y-5400000D01*
X2225000Y-5350000D02*
X2175000Y-5400000D01*
X2195000Y-7252500D02*
X2245000Y-7302500D01*
X2245000Y-7252500D02*
X2195000Y-7302500D01*
X2800000Y-1950000D02*
X2850000Y-2000000D01*
X2850000Y-1950000D02*
X2800000Y-2000000D01*
X3425000Y-6150000D02*
X3475000Y-6200000D01*
X3475000Y-6150000D02*
X3425000Y-6200000D01*
X3550000Y-550000D02*
X3600000Y-600000D01*
X3600000Y-550000D02*
X3550000Y-600000D01*
X3550000Y-2275000D02*
X3600000Y-2325000D01*
X3600000Y-2275000D02*
X3550000Y-2325000D01*
X3875000Y-9850000D02*
X3925000Y-9900000D01*
X3925000Y-9850000D02*
X3875000Y-9900000D01*
X3900000Y-3850000D02*
X3950000Y-3900000D01*
X3950000Y-3850000D02*
X3900000Y-3900000D01*
X3950000Y-9325000D02*
X4000000Y-9375000D01*
X4000000Y-9325000D02*
X3950000Y-9375000D01*
X4100000Y-5675000D02*
X4150000Y-5725000D01*
X4150000Y-5675000D02*
X4100000Y-5725000D01*
X4100000Y-5825000D02*
X4150000Y-5875000D01*
X4150000Y-5825000D02*
X4100000Y-5875000D01*
X4100000Y-8300000D02*
X4150000Y-8350000D01*
X4150000Y-8300000D02*
X4100000Y-8350000D01*
X4100000Y-8475000D02*
X4150000Y-8525000D01*
X4150000Y-8475000D02*
X4100000Y-8525000D01*
X4100000Y-9850000D02*
X4150000Y-9900000D01*
X4150000Y-9850000D02*
X4100000Y-9900000D01*
X4275000Y-2400000D02*
X4325000Y-2450000D01*
X4325000Y-2400000D02*
X4275000Y-2450000D01*
X4275000Y-2525000D02*
X4325000Y-2575000D01*
X4325000Y-2525000D02*
X4275000Y-2575000D01*
X4275000Y-2660000D02*
X4325000Y-2710000D01*
X4325000Y-2660000D02*
X4275000Y-2710000D01*
X4275000Y-5675000D02*
X4325000Y-5725000D01*
X4325000Y-5675000D02*
X4275000Y-5725000D01*
X4275000Y-9850000D02*
X4325000Y-9900000D01*
X4325000Y-9850000D02*
X4275000Y-9900000D01*
X4325000Y-5150000D02*
X4375000Y-5200000D01*
X4375000Y-5150000D02*
X4325000Y-5200000D01*
X4605000Y-322500D02*
X4655000Y-372500D01*
X4655000Y-322500D02*
X4605000Y-372500D01*
X4622848Y-1107420D02*
X4672848Y-1157420D01*
X4672848Y-1107420D02*
X4622848Y-1157420D01*
X4627500Y-972500D02*
X4677500Y-1022500D01*
X4677500Y-972500D02*
X4627500Y-1022500D01*
X4700000Y-2550000D02*
X4750000Y-2600000D01*
X4750000Y-2550000D02*
X4700000Y-2600000D01*
X4925000Y-650000D02*
X4975000Y-700000D01*
X4975000Y-650000D02*
X4925000Y-700000D01*
X5200000Y-6175000D02*
X5250000Y-6225000D01*
X5250000Y-6175000D02*
X5200000Y-6225000D01*
X5750000Y-4025000D02*
X5800000Y-4075000D01*
X5800000Y-4025000D02*
X5750000Y-4075000D01*
X5800000Y-7025000D02*
X5850000Y-7075000D01*
X5850000Y-7025000D02*
X5800000Y-7075000D01*
X5825000Y-5400000D02*
X5875000Y-5450000D01*
X5875000Y-5400000D02*
X5825000Y-5450000D01*
X5850000Y-8600000D02*
X5900000Y-8650000D01*
X5900000Y-8600000D02*
X5850000Y-8650000D01*
X5950000Y-775000D02*
X6000000Y-825000D01*
X6000000Y-775000D02*
X5950000Y-825000D01*
X5952500Y-1370000D02*
X6002500Y-1420000D01*
X6002500Y-1370000D02*
X5952500Y-1420000D01*
X6100000Y-2300000D02*
X6150000Y-2350000D01*
X6150000Y-2300000D02*
X6100000Y-2350000D01*
X6100000Y-3125000D02*
X6150000Y-3175000D01*
X6150000Y-3125000D02*
X6100000Y-3175000D01*
X6300000Y-5575000D02*
X6350000Y-5625000D01*
X6350000Y-5575000D02*
X6300000Y-5625000D01*
X6300000Y-5725000D02*
X6350000Y-5775000D01*
X6350000Y-5725000D02*
X6300000Y-5775000D01*
X6375000Y-4550000D02*
X6425000Y-4600000D01*
X6425000Y-4550000D02*
X6375000Y-4600000D01*
X6412500Y-5837500D02*
X6462500Y-5887500D01*
X6462500Y-5837500D02*
X6412500Y-5887500D01*
X6425000Y-9200000D02*
X6475000Y-9250000D01*
X6475000Y-9200000D02*
X6425000Y-9250000D01*
X6471000Y-1021000D02*
X6521000Y-1071000D01*
X6521000Y-1021000D02*
X6471000Y-1071000D01*
X6500000Y-3475000D02*
X6550000Y-3525000D01*
X6550000Y-3475000D02*
X6500000Y-3525000D01*
X6575000Y-1125000D02*
X6625000Y-1175000D01*
X6625000Y-1125000D02*
X6575000Y-1175000D01*
X6775000Y-675000D02*
X6825000Y-725000D01*
X6825000Y-675000D02*
X6775000Y-725000D01*
X7025000Y-9125000D02*
X7075000Y-9175000D01*
X7075000Y-9125000D02*
X7025000Y-9175000D01*
X7125000Y-4500000D02*
X7175000Y-4550000D01*
X7175000Y-4500000D02*
X7125000Y-4550000D01*
X7325000Y-2997500D02*
X7375000Y-3047500D01*
X7375000Y-2997500D02*
X7325000Y-3047500D01*
X7325000Y-4697500D02*
X7375000Y-4747500D01*
X7375000Y-4697500D02*
X7325000Y-4747500D01*
X7325000Y-6397500D02*
X7375000Y-6447500D01*
X7375000Y-6397500D02*
X7325000Y-6447500D01*
X7325000Y-8097500D02*
X7375000Y-8147500D01*
X7375000Y-8097500D02*
X7325000Y-8147500D01*
X7425000Y-2375000D02*
X7475000Y-2425000D01*
X7475000Y-2375000D02*
X7425000Y-2425000D01*
X7475000Y-3925000D02*
X7525000Y-3975000D01*
X7525000Y-3925000D02*
X7475000Y-3975000D01*
X7525000Y-7225000D02*
X7575000Y-7275000D01*
X7575000Y-7225000D02*
X7525000Y-7275000D01*
X7550000Y-2775000D02*
X7600000Y-2825000D01*
X7600000Y-2775000D02*
X7550000Y-2825000D01*
X7575000Y-5525000D02*
X7625000Y-5575000D01*
X7625000Y-5525000D02*
X7575000Y-5575000D01*
X7600000Y-9025000D02*
X7650000Y-9075000D01*
X7650000Y-9025000D02*
X7600000Y-9075000D01*
X7629750Y-7929750D02*
X7679750Y-7979750D01*
X7679750Y-7929750D02*
X7629750Y-7979750D01*
X7675000Y-4484500D02*
X7725000Y-4534500D01*
X7725000Y-4484500D02*
X7675000Y-4534500D01*
X7675000Y-6225000D02*
X7725000Y-6275000D01*
X7725000Y-6225000D02*
X7675000Y-6275000D01*
X4185000Y-513000D02*
G75*
G02*
X4115000Y-513000I-35000J0D01*
G01*
X4115000Y-513000D02*
G75*
G02*
X4185000Y-513000I35000J0D01*
G01*
X4185000Y-1275000D02*
G75*
G02*
X4115000Y-1275000I-35000J0D01*
G01*
X4115000Y-1275000D02*
G75*
G02*
X4185000Y-1275000I35000J0D01*
G01*
X4460000Y-519000D02*
G75*
G02*
X4390000Y-519000I-35000J0D01*
G01*
X4390000Y-519000D02*
G75*
G02*
X4460000Y-519000I35000J0D01*
G01*
X4460000Y-1281000D02*
G75*
G02*
X4390000Y-1281000I-35000J0D01*
G01*
X4390000Y-1281000D02*
G75*
G02*
X4460000Y-1281000I35000J0D01*
G01*
X700000Y-3685000D02*
X700000Y-3765000D01*
X660000Y-3725000D02*
X740000Y-3725000D01*
X700000Y-3935000D02*
X700000Y-4015000D01*
X660000Y-3975000D02*
X740000Y-3975000D01*
X900000Y-8935000D02*
X900000Y-9015000D01*
X860000Y-8975000D02*
X940000Y-8975000D01*
X900000Y-9185000D02*
X900000Y-9265000D01*
X860000Y-9225000D02*
X940000Y-9225000D01*
X1325000Y-2982500D02*
X1325000Y-3062500D01*
X1285000Y-3022500D02*
X1365000Y-3022500D01*
X1325000Y-4682500D02*
X1325000Y-4762500D01*
X1285000Y-4722500D02*
X1365000Y-4722500D01*
X1325000Y-6382500D02*
X1325000Y-6462500D01*
X1285000Y-6422500D02*
X1365000Y-6422500D01*
X1325000Y-8082500D02*
X1325000Y-8162500D01*
X1285000Y-8122500D02*
X1365000Y-8122500D01*
X2087000Y-2982500D02*
X2087000Y-3062500D01*
X2047000Y-3022500D02*
X2127000Y-3022500D01*
X2087000Y-4682500D02*
X2087000Y-4762500D01*
X2047000Y-4722500D02*
X2127000Y-4722500D01*
X2087000Y-6382500D02*
X2087000Y-6462500D01*
X2047000Y-6422500D02*
X2127000Y-6422500D01*
X2087000Y-8082500D02*
X2087000Y-8162500D01*
X2047000Y-8122500D02*
X2127000Y-8122500D01*
X3125000Y-2982500D02*
X3125000Y-3062500D01*
X3085000Y-3022500D02*
X3165000Y-3022500D01*
X3125000Y-4682500D02*
X3125000Y-4762500D01*
X3085000Y-4722500D02*
X3165000Y-4722500D01*
X3125000Y-6382500D02*
X3125000Y-6462500D01*
X3085000Y-6422500D02*
X3165000Y-6422500D01*
X3125000Y-8082500D02*
X3125000Y-8162500D01*
X3085000Y-8122500D02*
X3165000Y-8122500D01*
X3887000Y-2982500D02*
X3887000Y-3062500D01*
X3847000Y-3022500D02*
X3927000Y-3022500D01*
X3887000Y-4682500D02*
X3887000Y-4762500D01*
X3847000Y-4722500D02*
X3927000Y-4722500D01*
X3887000Y-6382500D02*
X3887000Y-6462500D01*
X3847000Y-6422500D02*
X3927000Y-6422500D01*
X3887000Y-8082500D02*
X3887000Y-8162500D01*
X3847000Y-8122500D02*
X3927000Y-8122500D01*
X4925000Y-2982500D02*
X4925000Y-3062500D01*
X4885000Y-3022500D02*
X4965000Y-3022500D01*
X4925000Y-4682500D02*
X4925000Y-4762500D01*
X4885000Y-4722500D02*
X4965000Y-4722500D01*
X4925000Y-6382500D02*
X4925000Y-6462500D01*
X4885000Y-6422500D02*
X4965000Y-6422500D01*
X4925000Y-8082500D02*
X4925000Y-8162500D01*
X4885000Y-8122500D02*
X4965000Y-8122500D01*
X5100000Y-235000D02*
X5100000Y-315000D01*
X5060000Y-275000D02*
X5140000Y-275000D01*
X5100000Y-485000D02*
X5100000Y-565000D01*
X5060000Y-525000D02*
X5140000Y-525000D01*
X5687000Y-2982500D02*
X5687000Y-3062500D01*
X5647000Y-3022500D02*
X5727000Y-3022500D01*
X5687000Y-4682500D02*
X5687000Y-4762500D01*
X5647000Y-4722500D02*
X5727000Y-4722500D01*
X5687000Y-6382500D02*
X5687000Y-6462500D01*
X5647000Y-6422500D02*
X5727000Y-6422500D01*
X5687000Y-8082500D02*
X5687000Y-8162500D01*
X5647000Y-8122500D02*
X5727000Y-8122500D01*
X6075000Y-3810000D02*
X6075000Y-3890000D01*
X6035000Y-3850000D02*
X6115000Y-3850000D01*
X6325000Y-3810000D02*
X6325000Y-3890000D01*
X6285000Y-3850000D02*
X6365000Y-3850000D01*
X6725000Y-2982500D02*
X6725000Y-3062500D01*
X6685000Y-3022500D02*
X6765000Y-3022500D01*
X6725000Y-4682500D02*
X6725000Y-4762500D01*
X6685000Y-4722500D02*
X6765000Y-4722500D01*
X6725000Y-6382500D02*
X6725000Y-6462500D01*
X6685000Y-6422500D02*
X6765000Y-6422500D01*
X6725000Y-8082500D02*
X6725000Y-8162500D01*
X6685000Y-8122500D02*
X6765000Y-8122500D01*
X7000000Y-9810000D02*
X7000000Y-9890000D01*
X6960000Y-9850000D02*
X7040000Y-9850000D01*
X7250000Y-9810000D02*
X7250000Y-9890000D01*
X7210000Y-9850000D02*
X7290000Y-9850000D01*
X7487000Y-2982500D02*
X7487000Y-3062500D01*
X7447000Y-3022500D02*
X7527000Y-3022500D01*
X7487000Y-4682500D02*
X7487000Y-4762500D01*
X7447000Y-4722500D02*
X7527000Y-4722500D01*
X7487000Y-6382500D02*
X7487000Y-6462500D01*
X7447000Y-6422500D02*
X7527000Y-6422500D01*
X7487000Y-8082500D02*
X7487000Y-8162500D01*
X7447000Y-8122500D02*
X7527000Y-8122500D01*
X3677356Y-235356D02*
X3677356Y-164644D01*
X3606644Y-164644D01*
X3606644Y-235356D01*
X3677356Y-235356D01*
X3931356Y-235356D02*
X3931356Y-164644D01*
X3860644Y-164644D01*
X3860644Y-235356D01*
X3931356Y-235356D01*
X4185356Y-235356D02*
X4185356Y-164644D01*
X4114644Y-164644D01*
X4114644Y-235356D01*
X4185356Y-235356D01*
X4439356Y-235356D02*
X4439356Y-164644D01*
X4368644Y-164644D01*
X4368644Y-235356D01*
X4439356Y-235356D01*
X5635356Y-319356D02*
X5635356Y-248644D01*
X5564644Y-248644D01*
X5564644Y-319356D01*
X5635356Y-319356D01*
X5635356Y-573356D02*
X5635356Y-502644D01*
X5564644Y-502644D01*
X5564644Y-573356D01*
X5635356Y-573356D01*
X5635356Y-827356D02*
X5635356Y-756644D01*
X5564644Y-756644D01*
X5564644Y-827356D01*
X5635356Y-827356D01*
X5635356Y-1081356D02*
X5635356Y-1010644D01*
X5564644Y-1010644D01*
X5564644Y-1081356D01*
X5635356Y-1081356D01*
X5635356Y-1335356D02*
X5635356Y-1264644D01*
X5564644Y-1264644D01*
X5564644Y-1335356D01*
X5635356Y-1335356D01*
X5635356Y-1589356D02*
X5635356Y-1518644D01*
X5564644Y-1518644D01*
X5564644Y-1589356D01*
X5635356Y-1589356D01*
X5635356Y-1843356D02*
X5635356Y-1772644D01*
X5564644Y-1772644D01*
X5564644Y-1843356D01*
X5635356Y-1843356D01*
X7160356Y-319356D02*
X7160356Y-248644D01*
X7089644Y-248644D01*
X7089644Y-319356D01*
X7160356Y-319356D01*
X7160356Y-573356D02*
X7160356Y-502644D01*
X7089644Y-502644D01*
X7089644Y-573356D01*
X7160356Y-573356D01*
X7160356Y-827356D02*
X7160356Y-756644D01*
X7089644Y-756644D01*
X7089644Y-827356D01*
X7160356Y-827356D01*
X7160356Y-1081356D02*
X7160356Y-1010644D01*
X7089644Y-1010644D01*
X7089644Y-1081356D01*
X7160356Y-1081356D01*
X7160356Y-1335356D02*
X7160356Y-1264644D01*
X7089644Y-1264644D01*
X7089644Y-1335356D01*
X7160356Y-1335356D01*
X7160356Y-1589356D02*
X7160356Y-1518644D01*
X7089644Y-1518644D01*
X7089644Y-1589356D01*
X7160356Y-1589356D01*
X7160356Y-1843356D02*
X7160356Y-1772644D01*
X7089644Y-1772644D01*
X7089644Y-1843356D01*
X7160356Y-1843356D01*
D11*
X1325000Y-3345000D02*
X1385000Y-3285000D01*
X1325000Y-3225000D01*
X1265000Y-3285000D01*
X1325000Y-3345000D01*
X1325000Y-5045000D02*
X1385000Y-4985000D01*
X1325000Y-4925000D01*
X1265000Y-4985000D01*
X1325000Y-5045000D01*
X1325000Y-6745000D02*
X1385000Y-6685000D01*
X1325000Y-6625000D01*
X1265000Y-6685000D01*
X1325000Y-6745000D01*
X1325000Y-8445000D02*
X1385000Y-8385000D01*
X1325000Y-8325000D01*
X1265000Y-8385000D01*
X1325000Y-8445000D01*
X1825000Y-3555000D02*
X1885000Y-3495000D01*
X1825000Y-3435000D01*
X1765000Y-3495000D01*
X1825000Y-3555000D01*
X1825000Y-5255000D02*
X1885000Y-5195000D01*
X1825000Y-5135000D01*
X1765000Y-5195000D01*
X1825000Y-5255000D01*
X1825000Y-6955000D02*
X1885000Y-6895000D01*
X1825000Y-6835000D01*
X1765000Y-6895000D01*
X1825000Y-6955000D01*
X1825000Y-8655000D02*
X1885000Y-8595000D01*
X1825000Y-8535000D01*
X1765000Y-8595000D01*
X1825000Y-8655000D01*
X3125000Y-3345000D02*
X3185000Y-3285000D01*
X3125000Y-3225000D01*
X3065000Y-3285000D01*
X3125000Y-3345000D01*
X3125000Y-5045000D02*
X3185000Y-4985000D01*
X3125000Y-4925000D01*
X3065000Y-4985000D01*
X3125000Y-5045000D01*
X3125000Y-6745000D02*
X3185000Y-6685000D01*
X3125000Y-6625000D01*
X3065000Y-6685000D01*
X3125000Y-6745000D01*
X3125000Y-8445000D02*
X3185000Y-8385000D01*
X3125000Y-8325000D01*
X3065000Y-8385000D01*
X3125000Y-8445000D01*
X3625000Y-3555000D02*
X3685000Y-3495000D01*
X3625000Y-3435000D01*
X3565000Y-3495000D01*
X3625000Y-3555000D01*
X3625000Y-5255000D02*
X3685000Y-5195000D01*
X3625000Y-5135000D01*
X3565000Y-5195000D01*
X3625000Y-5255000D01*
X3625000Y-6955000D02*
X3685000Y-6895000D01*
X3625000Y-6835000D01*
X3565000Y-6895000D01*
X3625000Y-6955000D01*
X3625000Y-8655000D02*
X3685000Y-8595000D01*
X3625000Y-8535000D01*
X3565000Y-8595000D01*
X3625000Y-8655000D01*
X4925000Y-3345000D02*
X4985000Y-3285000D01*
X4925000Y-3225000D01*
X4865000Y-3285000D01*
X4925000Y-3345000D01*
X4925000Y-5045000D02*
X4985000Y-4985000D01*
X4925000Y-4925000D01*
X4865000Y-4985000D01*
X4925000Y-5045000D01*
X4925000Y-6745000D02*
X4985000Y-6685000D01*
X4925000Y-6625000D01*
X4865000Y-6685000D01*
X4925000Y-6745000D01*
X4925000Y-8445000D02*
X4985000Y-8385000D01*
X4925000Y-8325000D01*
X4865000Y-8385000D01*
X4925000Y-8445000D01*
X5425000Y-3555000D02*
X5485000Y-3495000D01*
X5425000Y-3435000D01*
X5365000Y-3495000D01*
X5425000Y-3555000D01*
X5425000Y-5255000D02*
X5485000Y-5195000D01*
X5425000Y-5135000D01*
X5365000Y-5195000D01*
X5425000Y-5255000D01*
X5425000Y-6955000D02*
X5485000Y-6895000D01*
X5425000Y-6835000D01*
X5365000Y-6895000D01*
X5425000Y-6955000D01*
X5425000Y-8655000D02*
X5485000Y-8595000D01*
X5425000Y-8535000D01*
X5365000Y-8595000D01*
X5425000Y-8655000D01*
X6725000Y-3345000D02*
X6785000Y-3285000D01*
X6725000Y-3225000D01*
X6665000Y-3285000D01*
X6725000Y-3345000D01*
X6725000Y-5045000D02*
X6785000Y-4985000D01*
X6725000Y-4925000D01*
X6665000Y-4985000D01*
X6725000Y-5045000D01*
X6725000Y-6745000D02*
X6785000Y-6685000D01*
X6725000Y-6625000D01*
X6665000Y-6685000D01*
X6725000Y-6745000D01*
X6725000Y-8445000D02*
X6785000Y-8385000D01*
X6725000Y-8325000D01*
X6665000Y-8385000D01*
X6725000Y-8445000D01*
X7225000Y-3555000D02*
X7285000Y-3495000D01*
X7225000Y-3435000D01*
X7165000Y-3495000D01*
X7225000Y-3555000D01*
X7225000Y-5255000D02*
X7285000Y-5195000D01*
X7225000Y-5135000D01*
X7165000Y-5195000D01*
X7225000Y-5255000D01*
X7225000Y-6955000D02*
X7285000Y-6895000D01*
X7225000Y-6835000D01*
X7165000Y-6895000D01*
X7225000Y-6955000D01*
X7225000Y-8655000D02*
X7285000Y-8595000D01*
X7225000Y-8535000D01*
X7165000Y-8595000D01*
X7225000Y-8655000D01*
D14*
X745000Y-4310000D02*
X905000Y-4470000D01*
X905000Y-4310000D02*
X745000Y-4470000D01*
X905000Y-4390000D02*
G75*
G02*
X745000Y-4390000I-80000J0D01*
G01*
X745000Y-4390000D02*
G75*
G02*
X905000Y-4390000I80000J0D01*
G01*
X745000Y-6010000D02*
X905000Y-6170000D01*
X905000Y-6010000D02*
X745000Y-6170000D01*
X905000Y-6090000D02*
G75*
G02*
X745000Y-6090000I-80000J0D01*
G01*
X745000Y-6090000D02*
G75*
G02*
X905000Y-6090000I80000J0D01*
G01*
X745000Y-7710000D02*
X905000Y-7870000D01*
X905000Y-7710000D02*
X745000Y-7870000D01*
X905000Y-7790000D02*
G75*
G02*
X745000Y-7790000I-80000J0D01*
G01*
X745000Y-7790000D02*
G75*
G02*
X905000Y-7790000I80000J0D01*
G01*
X745000Y-9410000D02*
X905000Y-9570000D01*
X905000Y-9410000D02*
X745000Y-9570000D01*
X905000Y-9490000D02*
G75*
G02*
X745000Y-9490000I-80000J0D01*
G01*
X745000Y-9490000D02*
G75*
G02*
X905000Y-9490000I80000J0D01*
G01*
X2545000Y-4310000D02*
X2705000Y-4470000D01*
X2705000Y-4310000D02*
X2545000Y-4470000D01*
X2705000Y-4390000D02*
G75*
G02*
X2545000Y-4390000I-80000J0D01*
G01*
X2545000Y-4390000D02*
G75*
G02*
X2705000Y-4390000I80000J0D01*
G01*
X2545000Y-6010000D02*
X2705000Y-6170000D01*
X2705000Y-6010000D02*
X2545000Y-6170000D01*
X2705000Y-6090000D02*
G75*
G02*
X2545000Y-6090000I-80000J0D01*
G01*
X2545000Y-6090000D02*
G75*
G02*
X2705000Y-6090000I80000J0D01*
G01*
X2545000Y-7710000D02*
X2705000Y-7870000D01*
X2705000Y-7710000D02*
X2545000Y-7870000D01*
X2705000Y-7790000D02*
G75*
G02*
X2545000Y-7790000I-80000J0D01*
G01*
X2545000Y-7790000D02*
G75*
G02*
X2705000Y-7790000I80000J0D01*
G01*
X2545000Y-9410000D02*
X2705000Y-9570000D01*
X2705000Y-9410000D02*
X2545000Y-9570000D01*
X2705000Y-9490000D02*
G75*
G02*
X2545000Y-9490000I-80000J0D01*
G01*
X2545000Y-9490000D02*
G75*
G02*
X2705000Y-9490000I80000J0D01*
G01*
X4345000Y-4310000D02*
X4505000Y-4470000D01*
X4505000Y-4310000D02*
X4345000Y-4470000D01*
X4505000Y-4390000D02*
G75*
G02*
X4345000Y-4390000I-80000J0D01*
G01*
X4345000Y-4390000D02*
G75*
G02*
X4505000Y-4390000I80000J0D01*
G01*
X4345000Y-6010000D02*
X4505000Y-6170000D01*
X4505000Y-6010000D02*
X4345000Y-6170000D01*
X4505000Y-6090000D02*
G75*
G02*
X4345000Y-6090000I-80000J0D01*
G01*
X4345000Y-6090000D02*
G75*
G02*
X4505000Y-6090000I80000J0D01*
G01*
X4345000Y-7710000D02*
X4505000Y-7870000D01*
X4505000Y-7710000D02*
X4345000Y-7870000D01*
X4505000Y-7790000D02*
G75*
G02*
X4345000Y-7790000I-80000J0D01*
G01*
X4345000Y-7790000D02*
G75*
G02*
X4505000Y-7790000I80000J0D01*
G01*
X4345000Y-9410000D02*
X4505000Y-9570000D01*
X4505000Y-9410000D02*
X4345000Y-9570000D01*
X4505000Y-9490000D02*
G75*
G02*
X4345000Y-9490000I-80000J0D01*
G01*
X4345000Y-9490000D02*
G75*
G02*
X4505000Y-9490000I80000J0D01*
G01*
X6145000Y-4310000D02*
X6305000Y-4470000D01*
X6305000Y-4310000D02*
X6145000Y-4470000D01*
X6305000Y-4390000D02*
G75*
G02*
X6145000Y-4390000I-80000J0D01*
G01*
X6145000Y-4390000D02*
G75*
G02*
X6305000Y-4390000I80000J0D01*
G01*
X6145000Y-6010000D02*
X6305000Y-6170000D01*
X6305000Y-6010000D02*
X6145000Y-6170000D01*
X6305000Y-6090000D02*
G75*
G02*
X6145000Y-6090000I-80000J0D01*
G01*
X6145000Y-6090000D02*
G75*
G02*
X6305000Y-6090000I80000J0D01*
G01*
X6145000Y-7710000D02*
X6305000Y-7870000D01*
X6305000Y-7710000D02*
X6145000Y-7870000D01*
X6305000Y-7790000D02*
G75*
G02*
X6145000Y-7790000I-80000J0D01*
G01*
X6145000Y-7790000D02*
G75*
G02*
X6305000Y-7790000I80000J0D01*
G01*
X6145000Y-9410000D02*
X6305000Y-9570000D01*
X6305000Y-9410000D02*
X6145000Y-9570000D01*
X6305000Y-9490000D02*
G75*
G02*
X6145000Y-9490000I-80000J0D01*
G01*
X6145000Y-9490000D02*
G75*
G02*
X6305000Y-9490000I80000J0D01*
G01*
D12*
X258277Y-10313984D02*
X258277Y-10113984D01*
X258277Y-10113984D02*
X305896Y-10113984D01*
X305896Y-10113984D02*
X334467Y-10123508D01*
X334467Y-10123508D02*
X353515Y-10142555D01*
X353515Y-10142555D02*
X363039Y-10161603D01*
X363039Y-10161603D02*
X372562Y-10199698D01*
X372562Y-10199698D02*
X372562Y-10228270D01*
X372562Y-10228270D02*
X363039Y-10266365D01*
X363039Y-10266365D02*
X353515Y-10285412D01*
X353515Y-10285412D02*
X334467Y-10304460D01*
X334467Y-10304460D02*
X305896Y-10313984D01*
X305896Y-10313984D02*
X258277Y-10313984D01*
X458277Y-10313984D02*
X458277Y-10180650D01*
X458277Y-10218746D02*
X467801Y-10199698D01*
X467801Y-10199698D02*
X477324Y-10190174D01*
X477324Y-10190174D02*
X496372Y-10180650D01*
X496372Y-10180650D02*
X515420Y-10180650D01*
X582086Y-10313984D02*
X582086Y-10180650D01*
X582086Y-10113984D02*
X572563Y-10123508D01*
X572563Y-10123508D02*
X582086Y-10133031D01*
X582086Y-10133031D02*
X591610Y-10123508D01*
X591610Y-10123508D02*
X582086Y-10113984D01*
X582086Y-10113984D02*
X582086Y-10133031D01*
X705896Y-10313984D02*
X686848Y-10304460D01*
X686848Y-10304460D02*
X677324Y-10285412D01*
X677324Y-10285412D02*
X677324Y-10113984D01*
X810658Y-10313984D02*
X791610Y-10304460D01*
X791610Y-10304460D02*
X782086Y-10285412D01*
X782086Y-10285412D02*
X782086Y-10113984D01*
X1039229Y-10313984D02*
X1039229Y-10113984D01*
X1039229Y-10113984D02*
X1105896Y-10256841D01*
X1105896Y-10256841D02*
X1172563Y-10113984D01*
X1172563Y-10113984D02*
X1172563Y-10313984D01*
X1353515Y-10313984D02*
X1353515Y-10209222D01*
X1353515Y-10209222D02*
X1343991Y-10190174D01*
X1343991Y-10190174D02*
X1324944Y-10180650D01*
X1324944Y-10180650D02*
X1286848Y-10180650D01*
X1286848Y-10180650D02*
X1267801Y-10190174D01*
X1353515Y-10304460D02*
X1334467Y-10313984D01*
X1334467Y-10313984D02*
X1286848Y-10313984D01*
X1286848Y-10313984D02*
X1267801Y-10304460D01*
X1267801Y-10304460D02*
X1258277Y-10285412D01*
X1258277Y-10285412D02*
X1258277Y-10266365D01*
X1258277Y-10266365D02*
X1267801Y-10247317D01*
X1267801Y-10247317D02*
X1286848Y-10237793D01*
X1286848Y-10237793D02*
X1334467Y-10237793D01*
X1334467Y-10237793D02*
X1353515Y-10228270D01*
X1448753Y-10180650D02*
X1448753Y-10380650D01*
X1448753Y-10190174D02*
X1467801Y-10180650D01*
X1467801Y-10180650D02*
X1505896Y-10180650D01*
X1505896Y-10180650D02*
X1524943Y-10190174D01*
X1524943Y-10190174D02*
X1534467Y-10199698D01*
X1534467Y-10199698D02*
X1543991Y-10218746D01*
X1543991Y-10218746D02*
X1543991Y-10275889D01*
X1543991Y-10275889D02*
X1534467Y-10294936D01*
X1534467Y-10294936D02*
X1524943Y-10304460D01*
X1524943Y-10304460D02*
X1505896Y-10313984D01*
X1505896Y-10313984D02*
X1467801Y-10313984D01*
X1467801Y-10313984D02*
X1448753Y-10304460D01*
X1629705Y-10294936D02*
X1639229Y-10304460D01*
X1639229Y-10304460D02*
X1629705Y-10313984D01*
X1629705Y-10313984D02*
X1620182Y-10304460D01*
X1620182Y-10304460D02*
X1629705Y-10294936D01*
X1629705Y-10294936D02*
X1629705Y-10313984D01*
X1629705Y-10190174D02*
X1639229Y-10199698D01*
X1639229Y-10199698D02*
X1629705Y-10209222D01*
X1629705Y-10209222D02*
X1620182Y-10199698D01*
X1620182Y-10199698D02*
X1629705Y-10190174D01*
X1629705Y-10190174D02*
X1629705Y-10209222D01*
D13*
X-52500Y-10617500D02*
X-2500Y-10667500D01*
X-2500Y-10617500D02*
X-52500Y-10667500D01*
D12*
X296372Y-10533984D02*
X315420Y-10533984D01*
X315420Y-10533984D02*
X334467Y-10543508D01*
X334467Y-10543508D02*
X343991Y-10553031D01*
X343991Y-10553031D02*
X353515Y-10572079D01*
X353515Y-10572079D02*
X363039Y-10610174D01*
X363039Y-10610174D02*
X363039Y-10657793D01*
X363039Y-10657793D02*
X353515Y-10695889D01*
X353515Y-10695889D02*
X343991Y-10714936D01*
X343991Y-10714936D02*
X334467Y-10724460D01*
X334467Y-10724460D02*
X315420Y-10733984D01*
X315420Y-10733984D02*
X296372Y-10733984D01*
X296372Y-10733984D02*
X277324Y-10724460D01*
X277324Y-10724460D02*
X267801Y-10714936D01*
X267801Y-10714936D02*
X258277Y-10695889D01*
X258277Y-10695889D02*
X248753Y-10657793D01*
X248753Y-10657793D02*
X248753Y-10610174D01*
X248753Y-10610174D02*
X258277Y-10572079D01*
X258277Y-10572079D02*
X267801Y-10553031D01*
X267801Y-10553031D02*
X277324Y-10543508D01*
X277324Y-10543508D02*
X296372Y-10533984D01*
X448753Y-10714936D02*
X458277Y-10724460D01*
X458277Y-10724460D02*
X448753Y-10733984D01*
X448753Y-10733984D02*
X439229Y-10724460D01*
X439229Y-10724460D02*
X448753Y-10714936D01*
X448753Y-10714936D02*
X448753Y-10733984D01*
X639229Y-10533984D02*
X543991Y-10533984D01*
X543991Y-10533984D02*
X534467Y-10629222D01*
X534467Y-10629222D02*
X543991Y-10619698D01*
X543991Y-10619698D02*
X563039Y-10610174D01*
X563039Y-10610174D02*
X610658Y-10610174D01*
X610658Y-10610174D02*
X629705Y-10619698D01*
X629705Y-10619698D02*
X639229Y-10629222D01*
X639229Y-10629222D02*
X648753Y-10648270D01*
X648753Y-10648270D02*
X648753Y-10695889D01*
X648753Y-10695889D02*
X639229Y-10714936D01*
X639229Y-10714936D02*
X629705Y-10724460D01*
X629705Y-10724460D02*
X610658Y-10733984D01*
X610658Y-10733984D02*
X563039Y-10733984D01*
X563039Y-10733984D02*
X543991Y-10724460D01*
X543991Y-10724460D02*
X534467Y-10714936D01*
X772562Y-10533984D02*
X791610Y-10533984D01*
X791610Y-10533984D02*
X810658Y-10543508D01*
X810658Y-10543508D02*
X820182Y-10553031D01*
X820182Y-10553031D02*
X829705Y-10572079D01*
X829705Y-10572079D02*
X839229Y-10610174D01*
X839229Y-10610174D02*
X839229Y-10657793D01*
X839229Y-10657793D02*
X829705Y-10695889D01*
X829705Y-10695889D02*
X820182Y-10714936D01*
X820182Y-10714936D02*
X810658Y-10724460D01*
X810658Y-10724460D02*
X791610Y-10733984D01*
X791610Y-10733984D02*
X772562Y-10733984D01*
X772562Y-10733984D02*
X753515Y-10724460D01*
X753515Y-10724460D02*
X743991Y-10714936D01*
X743991Y-10714936D02*
X734467Y-10695889D01*
X734467Y-10695889D02*
X724943Y-10657793D01*
X724943Y-10657793D02*
X724943Y-10610174D01*
X724943Y-10610174D02*
X734467Y-10572079D01*
X734467Y-10572079D02*
X743991Y-10553031D01*
X743991Y-10553031D02*
X753515Y-10543508D01*
X753515Y-10543508D02*
X772562Y-10533984D01*
X963039Y-10533984D02*
X982086Y-10533984D01*
X982086Y-10533984D02*
X1001134Y-10543508D01*
X1001134Y-10543508D02*
X1010658Y-10553031D01*
X1010658Y-10553031D02*
X1020182Y-10572079D01*
X1020182Y-10572079D02*
X1029705Y-10610174D01*
X1029705Y-10610174D02*
X1029705Y-10657793D01*
X1029705Y-10657793D02*
X1020182Y-10695889D01*
X1020182Y-10695889D02*
X1010658Y-10714936D01*
X1010658Y-10714936D02*
X1001134Y-10724460D01*
X1001134Y-10724460D02*
X982086Y-10733984D01*
X982086Y-10733984D02*
X963039Y-10733984D01*
X963039Y-10733984D02*
X943991Y-10724460D01*
X943991Y-10724460D02*
X934467Y-10714936D01*
X934467Y-10714936D02*
X924943Y-10695889D01*
X924943Y-10695889D02*
X915420Y-10657793D01*
X915420Y-10657793D02*
X915420Y-10610174D01*
X915420Y-10610174D02*
X924943Y-10572079D01*
X924943Y-10572079D02*
X934467Y-10553031D01*
X934467Y-10553031D02*
X943991Y-10543508D01*
X943991Y-10543508D02*
X963039Y-10533984D01*
X1115420Y-10733984D02*
X1115420Y-10600650D01*
X1115420Y-10619698D02*
X1124944Y-10610174D01*
X1124944Y-10610174D02*
X1143991Y-10600650D01*
X1143991Y-10600650D02*
X1172563Y-10600650D01*
X1172563Y-10600650D02*
X1191610Y-10610174D01*
X1191610Y-10610174D02*
X1201134Y-10629222D01*
X1201134Y-10629222D02*
X1201134Y-10733984D01*
X1201134Y-10629222D02*
X1210658Y-10610174D01*
X1210658Y-10610174D02*
X1229705Y-10600650D01*
X1229705Y-10600650D02*
X1258277Y-10600650D01*
X1258277Y-10600650D02*
X1277325Y-10610174D01*
X1277325Y-10610174D02*
X1286848Y-10629222D01*
X1286848Y-10629222D02*
X1286848Y-10733984D01*
X1382086Y-10733984D02*
X1382086Y-10600650D01*
X1382086Y-10619698D02*
X1391610Y-10610174D01*
X1391610Y-10610174D02*
X1410658Y-10600650D01*
X1410658Y-10600650D02*
X1439229Y-10600650D01*
X1439229Y-10600650D02*
X1458277Y-10610174D01*
X1458277Y-10610174D02*
X1467801Y-10629222D01*
X1467801Y-10629222D02*
X1467801Y-10733984D01*
X1467801Y-10629222D02*
X1477324Y-10610174D01*
X1477324Y-10610174D02*
X1496372Y-10600650D01*
X1496372Y-10600650D02*
X1524943Y-10600650D01*
X1524943Y-10600650D02*
X1543991Y-10610174D01*
X1543991Y-10610174D02*
X1553515Y-10629222D01*
X1553515Y-10629222D02*
X1553515Y-10733984D01*
X1943991Y-10524460D02*
X1772563Y-10781603D01*
X2201134Y-10533984D02*
X2220182Y-10533984D01*
X2220182Y-10533984D02*
X2239229Y-10543508D01*
X2239229Y-10543508D02*
X2248753Y-10553031D01*
X2248753Y-10553031D02*
X2258277Y-10572079D01*
X2258277Y-10572079D02*
X2267801Y-10610174D01*
X2267801Y-10610174D02*
X2267801Y-10657793D01*
X2267801Y-10657793D02*
X2258277Y-10695889D01*
X2258277Y-10695889D02*
X2248753Y-10714936D01*
X2248753Y-10714936D02*
X2239229Y-10724460D01*
X2239229Y-10724460D02*
X2220182Y-10733984D01*
X2220182Y-10733984D02*
X2201134Y-10733984D01*
X2201134Y-10733984D02*
X2182087Y-10724460D01*
X2182087Y-10724460D02*
X2172563Y-10714936D01*
X2172563Y-10714936D02*
X2163039Y-10695889D01*
X2163039Y-10695889D02*
X2153515Y-10657793D01*
X2153515Y-10657793D02*
X2153515Y-10610174D01*
X2153515Y-10610174D02*
X2163039Y-10572079D01*
X2163039Y-10572079D02*
X2172563Y-10553031D01*
X2172563Y-10553031D02*
X2182087Y-10543508D01*
X2182087Y-10543508D02*
X2201134Y-10533984D01*
X2353515Y-10714936D02*
X2363039Y-10724460D01*
X2363039Y-10724460D02*
X2353515Y-10733984D01*
X2353515Y-10733984D02*
X2343991Y-10724460D01*
X2343991Y-10724460D02*
X2353515Y-10714936D01*
X2353515Y-10714936D02*
X2353515Y-10733984D01*
X2486848Y-10533984D02*
X2505896Y-10533984D01*
X2505896Y-10533984D02*
X2524944Y-10543508D01*
X2524944Y-10543508D02*
X2534468Y-10553031D01*
X2534468Y-10553031D02*
X2543991Y-10572079D01*
X2543991Y-10572079D02*
X2553515Y-10610174D01*
X2553515Y-10610174D02*
X2553515Y-10657793D01*
X2553515Y-10657793D02*
X2543991Y-10695889D01*
X2543991Y-10695889D02*
X2534468Y-10714936D01*
X2534468Y-10714936D02*
X2524944Y-10724460D01*
X2524944Y-10724460D02*
X2505896Y-10733984D01*
X2505896Y-10733984D02*
X2486848Y-10733984D01*
X2486848Y-10733984D02*
X2467801Y-10724460D01*
X2467801Y-10724460D02*
X2458277Y-10714936D01*
X2458277Y-10714936D02*
X2448753Y-10695889D01*
X2448753Y-10695889D02*
X2439229Y-10657793D01*
X2439229Y-10657793D02*
X2439229Y-10610174D01*
X2439229Y-10610174D02*
X2448753Y-10572079D01*
X2448753Y-10572079D02*
X2458277Y-10553031D01*
X2458277Y-10553031D02*
X2467801Y-10543508D01*
X2467801Y-10543508D02*
X2486848Y-10533984D01*
X2743991Y-10733984D02*
X2629706Y-10733984D01*
X2686848Y-10733984D02*
X2686848Y-10533984D01*
X2686848Y-10533984D02*
X2667801Y-10562555D01*
X2667801Y-10562555D02*
X2648753Y-10581603D01*
X2648753Y-10581603D02*
X2629706Y-10591127D01*
X2839229Y-10733984D02*
X2877325Y-10733984D01*
X2877325Y-10733984D02*
X2896372Y-10724460D01*
X2896372Y-10724460D02*
X2905896Y-10714936D01*
X2905896Y-10714936D02*
X2924944Y-10686365D01*
X2924944Y-10686365D02*
X2934467Y-10648270D01*
X2934467Y-10648270D02*
X2934467Y-10572079D01*
X2934467Y-10572079D02*
X2924944Y-10553031D01*
X2924944Y-10553031D02*
X2915420Y-10543508D01*
X2915420Y-10543508D02*
X2896372Y-10533984D01*
X2896372Y-10533984D02*
X2858277Y-10533984D01*
X2858277Y-10533984D02*
X2839229Y-10543508D01*
X2839229Y-10543508D02*
X2829706Y-10553031D01*
X2829706Y-10553031D02*
X2820182Y-10572079D01*
X2820182Y-10572079D02*
X2820182Y-10619698D01*
X2820182Y-10619698D02*
X2829706Y-10638746D01*
X2829706Y-10638746D02*
X2839229Y-10648270D01*
X2839229Y-10648270D02*
X2858277Y-10657793D01*
X2858277Y-10657793D02*
X2896372Y-10657793D01*
X2896372Y-10657793D02*
X2915420Y-10648270D01*
X2915420Y-10648270D02*
X2924944Y-10638746D01*
X2924944Y-10638746D02*
X2934467Y-10619698D01*
X3001134Y-10533984D02*
X3134467Y-10533984D01*
X3134467Y-10533984D02*
X3048753Y-10733984D01*
X3201134Y-10533984D02*
X3201134Y-10572079D01*
X3277325Y-10533984D02*
X3277325Y-10572079D01*
X3572563Y-10810174D02*
X3563039Y-10800650D01*
X3563039Y-10800650D02*
X3543991Y-10772079D01*
X3543991Y-10772079D02*
X3534468Y-10753031D01*
X3534468Y-10753031D02*
X3524944Y-10724460D01*
X3524944Y-10724460D02*
X3515420Y-10676841D01*
X3515420Y-10676841D02*
X3515420Y-10638746D01*
X3515420Y-10638746D02*
X3524944Y-10591127D01*
X3524944Y-10591127D02*
X3534468Y-10562555D01*
X3534468Y-10562555D02*
X3543991Y-10543508D01*
X3543991Y-10543508D02*
X3563039Y-10514936D01*
X3563039Y-10514936D02*
X3572563Y-10505412D01*
X3629706Y-10533984D02*
X3763039Y-10533984D01*
X3763039Y-10533984D02*
X3677325Y-10733984D01*
X3829706Y-10553031D02*
X3839229Y-10543508D01*
X3839229Y-10543508D02*
X3858277Y-10533984D01*
X3858277Y-10533984D02*
X3905896Y-10533984D01*
X3905896Y-10533984D02*
X3924944Y-10543508D01*
X3924944Y-10543508D02*
X3934468Y-10553031D01*
X3934468Y-10553031D02*
X3943991Y-10572079D01*
X3943991Y-10572079D02*
X3943991Y-10591127D01*
X3943991Y-10591127D02*
X3934468Y-10619698D01*
X3934468Y-10619698D02*
X3820182Y-10733984D01*
X3820182Y-10733984D02*
X3943991Y-10733984D01*
X4182087Y-10733984D02*
X4182087Y-10533984D01*
X4267801Y-10733984D02*
X4267801Y-10629222D01*
X4267801Y-10629222D02*
X4258277Y-10610174D01*
X4258277Y-10610174D02*
X4239230Y-10600650D01*
X4239230Y-10600650D02*
X4210658Y-10600650D01*
X4210658Y-10600650D02*
X4191610Y-10610174D01*
X4191610Y-10610174D02*
X4182087Y-10619698D01*
X4391611Y-10733984D02*
X4372563Y-10724460D01*
X4372563Y-10724460D02*
X4363039Y-10714936D01*
X4363039Y-10714936D02*
X4353515Y-10695889D01*
X4353515Y-10695889D02*
X4353515Y-10638746D01*
X4353515Y-10638746D02*
X4363039Y-10619698D01*
X4363039Y-10619698D02*
X4372563Y-10610174D01*
X4372563Y-10610174D02*
X4391611Y-10600650D01*
X4391611Y-10600650D02*
X4420182Y-10600650D01*
X4420182Y-10600650D02*
X4439230Y-10610174D01*
X4439230Y-10610174D02*
X4448753Y-10619698D01*
X4448753Y-10619698D02*
X4458277Y-10638746D01*
X4458277Y-10638746D02*
X4458277Y-10695889D01*
X4458277Y-10695889D02*
X4448753Y-10714936D01*
X4448753Y-10714936D02*
X4439230Y-10724460D01*
X4439230Y-10724460D02*
X4420182Y-10733984D01*
X4420182Y-10733984D02*
X4391611Y-10733984D01*
X4572563Y-10733984D02*
X4553515Y-10724460D01*
X4553515Y-10724460D02*
X4543992Y-10705412D01*
X4543992Y-10705412D02*
X4543992Y-10533984D01*
X4724944Y-10724460D02*
X4705896Y-10733984D01*
X4705896Y-10733984D02*
X4667801Y-10733984D01*
X4667801Y-10733984D02*
X4648753Y-10724460D01*
X4648753Y-10724460D02*
X4639230Y-10705412D01*
X4639230Y-10705412D02*
X4639230Y-10629222D01*
X4639230Y-10629222D02*
X4648753Y-10610174D01*
X4648753Y-10610174D02*
X4667801Y-10600650D01*
X4667801Y-10600650D02*
X4705896Y-10600650D01*
X4705896Y-10600650D02*
X4724944Y-10610174D01*
X4724944Y-10610174D02*
X4734468Y-10629222D01*
X4734468Y-10629222D02*
X4734468Y-10648270D01*
X4734468Y-10648270D02*
X4639230Y-10667317D01*
X4810658Y-10724460D02*
X4829706Y-10733984D01*
X4829706Y-10733984D02*
X4867801Y-10733984D01*
X4867801Y-10733984D02*
X4886849Y-10724460D01*
X4886849Y-10724460D02*
X4896373Y-10705412D01*
X4896373Y-10705412D02*
X4896373Y-10695889D01*
X4896373Y-10695889D02*
X4886849Y-10676841D01*
X4886849Y-10676841D02*
X4867801Y-10667317D01*
X4867801Y-10667317D02*
X4839230Y-10667317D01*
X4839230Y-10667317D02*
X4820182Y-10657793D01*
X4820182Y-10657793D02*
X4810658Y-10638746D01*
X4810658Y-10638746D02*
X4810658Y-10629222D01*
X4810658Y-10629222D02*
X4820182Y-10610174D01*
X4820182Y-10610174D02*
X4839230Y-10600650D01*
X4839230Y-10600650D02*
X4867801Y-10600650D01*
X4867801Y-10600650D02*
X4886849Y-10610174D01*
X4963039Y-10810174D02*
X4972563Y-10800650D01*
X4972563Y-10800650D02*
X4991611Y-10772079D01*
X4991611Y-10772079D02*
X5001134Y-10753031D01*
X5001134Y-10753031D02*
X5010658Y-10724460D01*
X5010658Y-10724460D02*
X5020182Y-10676841D01*
X5020182Y-10676841D02*
X5020182Y-10638746D01*
X5020182Y-10638746D02*
X5010658Y-10591127D01*
X5010658Y-10591127D02*
X5001134Y-10562555D01*
X5001134Y-10562555D02*
X4991611Y-10543508D01*
X4991611Y-10543508D02*
X4972563Y-10514936D01*
X4972563Y-10514936D02*
X4963039Y-10505412D01*
D13*
X-2500Y-10906500D02*
G75*
G02*
X-72500Y-10906500I-35000J0D01*
G01*
X-72500Y-10906500D02*
G75*
G02*
X-2500Y-10906500I35000J0D01*
G01*
D12*
X296372Y-10797984D02*
X315420Y-10797984D01*
X315420Y-10797984D02*
X334467Y-10807508D01*
X334467Y-10807508D02*
X343991Y-10817031D01*
X343991Y-10817031D02*
X353515Y-10836079D01*
X353515Y-10836079D02*
X363039Y-10874174D01*
X363039Y-10874174D02*
X363039Y-10921793D01*
X363039Y-10921793D02*
X353515Y-10959889D01*
X353515Y-10959889D02*
X343991Y-10978936D01*
X343991Y-10978936D02*
X334467Y-10988460D01*
X334467Y-10988460D02*
X315420Y-10997984D01*
X315420Y-10997984D02*
X296372Y-10997984D01*
X296372Y-10997984D02*
X277324Y-10988460D01*
X277324Y-10988460D02*
X267801Y-10978936D01*
X267801Y-10978936D02*
X258277Y-10959889D01*
X258277Y-10959889D02*
X248753Y-10921793D01*
X248753Y-10921793D02*
X248753Y-10874174D01*
X248753Y-10874174D02*
X258277Y-10836079D01*
X258277Y-10836079D02*
X267801Y-10817031D01*
X267801Y-10817031D02*
X277324Y-10807508D01*
X277324Y-10807508D02*
X296372Y-10797984D01*
X448753Y-10978936D02*
X458277Y-10988460D01*
X458277Y-10988460D02*
X448753Y-10997984D01*
X448753Y-10997984D02*
X439229Y-10988460D01*
X439229Y-10988460D02*
X448753Y-10978936D01*
X448753Y-10978936D02*
X448753Y-10997984D01*
X524944Y-10797984D02*
X658277Y-10797984D01*
X658277Y-10797984D02*
X572563Y-10997984D01*
X772562Y-10797984D02*
X791610Y-10797984D01*
X791610Y-10797984D02*
X810658Y-10807508D01*
X810658Y-10807508D02*
X820182Y-10817031D01*
X820182Y-10817031D02*
X829705Y-10836079D01*
X829705Y-10836079D02*
X839229Y-10874174D01*
X839229Y-10874174D02*
X839229Y-10921793D01*
X839229Y-10921793D02*
X829705Y-10959889D01*
X829705Y-10959889D02*
X820182Y-10978936D01*
X820182Y-10978936D02*
X810658Y-10988460D01*
X810658Y-10988460D02*
X791610Y-10997984D01*
X791610Y-10997984D02*
X772562Y-10997984D01*
X772562Y-10997984D02*
X753515Y-10988460D01*
X753515Y-10988460D02*
X743991Y-10978936D01*
X743991Y-10978936D02*
X734467Y-10959889D01*
X734467Y-10959889D02*
X724943Y-10921793D01*
X724943Y-10921793D02*
X724943Y-10874174D01*
X724943Y-10874174D02*
X734467Y-10836079D01*
X734467Y-10836079D02*
X743991Y-10817031D01*
X743991Y-10817031D02*
X753515Y-10807508D01*
X753515Y-10807508D02*
X772562Y-10797984D01*
X963039Y-10797984D02*
X982086Y-10797984D01*
X982086Y-10797984D02*
X1001134Y-10807508D01*
X1001134Y-10807508D02*
X1010658Y-10817031D01*
X1010658Y-10817031D02*
X1020182Y-10836079D01*
X1020182Y-10836079D02*
X1029705Y-10874174D01*
X1029705Y-10874174D02*
X1029705Y-10921793D01*
X1029705Y-10921793D02*
X1020182Y-10959889D01*
X1020182Y-10959889D02*
X1010658Y-10978936D01*
X1010658Y-10978936D02*
X1001134Y-10988460D01*
X1001134Y-10988460D02*
X982086Y-10997984D01*
X982086Y-10997984D02*
X963039Y-10997984D01*
X963039Y-10997984D02*
X943991Y-10988460D01*
X943991Y-10988460D02*
X934467Y-10978936D01*
X934467Y-10978936D02*
X924943Y-10959889D01*
X924943Y-10959889D02*
X915420Y-10921793D01*
X915420Y-10921793D02*
X915420Y-10874174D01*
X915420Y-10874174D02*
X924943Y-10836079D01*
X924943Y-10836079D02*
X934467Y-10817031D01*
X934467Y-10817031D02*
X943991Y-10807508D01*
X943991Y-10807508D02*
X963039Y-10797984D01*
X1115420Y-10997984D02*
X1115420Y-10864650D01*
X1115420Y-10883698D02*
X1124944Y-10874174D01*
X1124944Y-10874174D02*
X1143991Y-10864650D01*
X1143991Y-10864650D02*
X1172563Y-10864650D01*
X1172563Y-10864650D02*
X1191610Y-10874174D01*
X1191610Y-10874174D02*
X1201134Y-10893222D01*
X1201134Y-10893222D02*
X1201134Y-10997984D01*
X1201134Y-10893222D02*
X1210658Y-10874174D01*
X1210658Y-10874174D02*
X1229705Y-10864650D01*
X1229705Y-10864650D02*
X1258277Y-10864650D01*
X1258277Y-10864650D02*
X1277325Y-10874174D01*
X1277325Y-10874174D02*
X1286848Y-10893222D01*
X1286848Y-10893222D02*
X1286848Y-10997984D01*
X1382086Y-10997984D02*
X1382086Y-10864650D01*
X1382086Y-10883698D02*
X1391610Y-10874174D01*
X1391610Y-10874174D02*
X1410658Y-10864650D01*
X1410658Y-10864650D02*
X1439229Y-10864650D01*
X1439229Y-10864650D02*
X1458277Y-10874174D01*
X1458277Y-10874174D02*
X1467801Y-10893222D01*
X1467801Y-10893222D02*
X1467801Y-10997984D01*
X1467801Y-10893222D02*
X1477324Y-10874174D01*
X1477324Y-10874174D02*
X1496372Y-10864650D01*
X1496372Y-10864650D02*
X1524943Y-10864650D01*
X1524943Y-10864650D02*
X1543991Y-10874174D01*
X1543991Y-10874174D02*
X1553515Y-10893222D01*
X1553515Y-10893222D02*
X1553515Y-10997984D01*
X1943991Y-10788460D02*
X1772563Y-11045603D01*
X2201134Y-10797984D02*
X2220182Y-10797984D01*
X2220182Y-10797984D02*
X2239229Y-10807508D01*
X2239229Y-10807508D02*
X2248753Y-10817031D01*
X2248753Y-10817031D02*
X2258277Y-10836079D01*
X2258277Y-10836079D02*
X2267801Y-10874174D01*
X2267801Y-10874174D02*
X2267801Y-10921793D01*
X2267801Y-10921793D02*
X2258277Y-10959889D01*
X2258277Y-10959889D02*
X2248753Y-10978936D01*
X2248753Y-10978936D02*
X2239229Y-10988460D01*
X2239229Y-10988460D02*
X2220182Y-10997984D01*
X2220182Y-10997984D02*
X2201134Y-10997984D01*
X2201134Y-10997984D02*
X2182087Y-10988460D01*
X2182087Y-10988460D02*
X2172563Y-10978936D01*
X2172563Y-10978936D02*
X2163039Y-10959889D01*
X2163039Y-10959889D02*
X2153515Y-10921793D01*
X2153515Y-10921793D02*
X2153515Y-10874174D01*
X2153515Y-10874174D02*
X2163039Y-10836079D01*
X2163039Y-10836079D02*
X2172563Y-10817031D01*
X2172563Y-10817031D02*
X2182087Y-10807508D01*
X2182087Y-10807508D02*
X2201134Y-10797984D01*
X2353515Y-10978936D02*
X2363039Y-10988460D01*
X2363039Y-10988460D02*
X2353515Y-10997984D01*
X2353515Y-10997984D02*
X2343991Y-10988460D01*
X2343991Y-10988460D02*
X2353515Y-10978936D01*
X2353515Y-10978936D02*
X2353515Y-10997984D01*
X2486848Y-10797984D02*
X2505896Y-10797984D01*
X2505896Y-10797984D02*
X2524944Y-10807508D01*
X2524944Y-10807508D02*
X2534468Y-10817031D01*
X2534468Y-10817031D02*
X2543991Y-10836079D01*
X2543991Y-10836079D02*
X2553515Y-10874174D01*
X2553515Y-10874174D02*
X2553515Y-10921793D01*
X2553515Y-10921793D02*
X2543991Y-10959889D01*
X2543991Y-10959889D02*
X2534468Y-10978936D01*
X2534468Y-10978936D02*
X2524944Y-10988460D01*
X2524944Y-10988460D02*
X2505896Y-10997984D01*
X2505896Y-10997984D02*
X2486848Y-10997984D01*
X2486848Y-10997984D02*
X2467801Y-10988460D01*
X2467801Y-10988460D02*
X2458277Y-10978936D01*
X2458277Y-10978936D02*
X2448753Y-10959889D01*
X2448753Y-10959889D02*
X2439229Y-10921793D01*
X2439229Y-10921793D02*
X2439229Y-10874174D01*
X2439229Y-10874174D02*
X2448753Y-10836079D01*
X2448753Y-10836079D02*
X2458277Y-10817031D01*
X2458277Y-10817031D02*
X2467801Y-10807508D01*
X2467801Y-10807508D02*
X2486848Y-10797984D01*
X2629706Y-10817031D02*
X2639229Y-10807508D01*
X2639229Y-10807508D02*
X2658277Y-10797984D01*
X2658277Y-10797984D02*
X2705896Y-10797984D01*
X2705896Y-10797984D02*
X2724944Y-10807508D01*
X2724944Y-10807508D02*
X2734468Y-10817031D01*
X2734468Y-10817031D02*
X2743991Y-10836079D01*
X2743991Y-10836079D02*
X2743991Y-10855127D01*
X2743991Y-10855127D02*
X2734468Y-10883698D01*
X2734468Y-10883698D02*
X2620182Y-10997984D01*
X2620182Y-10997984D02*
X2743991Y-10997984D01*
X2810658Y-10797984D02*
X2943991Y-10797984D01*
X2943991Y-10797984D02*
X2858277Y-10997984D01*
X3105896Y-10797984D02*
X3067801Y-10797984D01*
X3067801Y-10797984D02*
X3048753Y-10807508D01*
X3048753Y-10807508D02*
X3039229Y-10817031D01*
X3039229Y-10817031D02*
X3020182Y-10845603D01*
X3020182Y-10845603D02*
X3010658Y-10883698D01*
X3010658Y-10883698D02*
X3010658Y-10959889D01*
X3010658Y-10959889D02*
X3020182Y-10978936D01*
X3020182Y-10978936D02*
X3029706Y-10988460D01*
X3029706Y-10988460D02*
X3048753Y-10997984D01*
X3048753Y-10997984D02*
X3086848Y-10997984D01*
X3086848Y-10997984D02*
X3105896Y-10988460D01*
X3105896Y-10988460D02*
X3115420Y-10978936D01*
X3115420Y-10978936D02*
X3124944Y-10959889D01*
X3124944Y-10959889D02*
X3124944Y-10912270D01*
X3124944Y-10912270D02*
X3115420Y-10893222D01*
X3115420Y-10893222D02*
X3105896Y-10883698D01*
X3105896Y-10883698D02*
X3086848Y-10874174D01*
X3086848Y-10874174D02*
X3048753Y-10874174D01*
X3048753Y-10874174D02*
X3029706Y-10883698D01*
X3029706Y-10883698D02*
X3020182Y-10893222D01*
X3020182Y-10893222D02*
X3010658Y-10912270D01*
X3201134Y-10797984D02*
X3201134Y-10836079D01*
X3277325Y-10797984D02*
X3277325Y-10836079D01*
X3572563Y-11074174D02*
X3563039Y-11064650D01*
X3563039Y-11064650D02*
X3543991Y-11036079D01*
X3543991Y-11036079D02*
X3534468Y-11017031D01*
X3534468Y-11017031D02*
X3524944Y-10988460D01*
X3524944Y-10988460D02*
X3515420Y-10940841D01*
X3515420Y-10940841D02*
X3515420Y-10902746D01*
X3515420Y-10902746D02*
X3524944Y-10855127D01*
X3524944Y-10855127D02*
X3534468Y-10826555D01*
X3534468Y-10826555D02*
X3543991Y-10807508D01*
X3543991Y-10807508D02*
X3563039Y-10778936D01*
X3563039Y-10778936D02*
X3572563Y-10769412D01*
X3734468Y-10864650D02*
X3734468Y-10997984D01*
X3686848Y-10788460D02*
X3639229Y-10931317D01*
X3639229Y-10931317D02*
X3763039Y-10931317D01*
X3991610Y-10997984D02*
X3991610Y-10797984D01*
X4077325Y-10997984D02*
X4077325Y-10893222D01*
X4077325Y-10893222D02*
X4067801Y-10874174D01*
X4067801Y-10874174D02*
X4048753Y-10864650D01*
X4048753Y-10864650D02*
X4020182Y-10864650D01*
X4020182Y-10864650D02*
X4001134Y-10874174D01*
X4001134Y-10874174D02*
X3991610Y-10883698D01*
X4201134Y-10997984D02*
X4182087Y-10988460D01*
X4182087Y-10988460D02*
X4172563Y-10978936D01*
X4172563Y-10978936D02*
X4163039Y-10959889D01*
X4163039Y-10959889D02*
X4163039Y-10902746D01*
X4163039Y-10902746D02*
X4172563Y-10883698D01*
X4172563Y-10883698D02*
X4182087Y-10874174D01*
X4182087Y-10874174D02*
X4201134Y-10864650D01*
X4201134Y-10864650D02*
X4229706Y-10864650D01*
X4229706Y-10864650D02*
X4248753Y-10874174D01*
X4248753Y-10874174D02*
X4258277Y-10883698D01*
X4258277Y-10883698D02*
X4267801Y-10902746D01*
X4267801Y-10902746D02*
X4267801Y-10959889D01*
X4267801Y-10959889D02*
X4258277Y-10978936D01*
X4258277Y-10978936D02*
X4248753Y-10988460D01*
X4248753Y-10988460D02*
X4229706Y-10997984D01*
X4229706Y-10997984D02*
X4201134Y-10997984D01*
X4382087Y-10997984D02*
X4363039Y-10988460D01*
X4363039Y-10988460D02*
X4353515Y-10969412D01*
X4353515Y-10969412D02*
X4353515Y-10797984D01*
X4534468Y-10988460D02*
X4515420Y-10997984D01*
X4515420Y-10997984D02*
X4477325Y-10997984D01*
X4477325Y-10997984D02*
X4458277Y-10988460D01*
X4458277Y-10988460D02*
X4448753Y-10969412D01*
X4448753Y-10969412D02*
X4448753Y-10893222D01*
X4448753Y-10893222D02*
X4458277Y-10874174D01*
X4458277Y-10874174D02*
X4477325Y-10864650D01*
X4477325Y-10864650D02*
X4515420Y-10864650D01*
X4515420Y-10864650D02*
X4534468Y-10874174D01*
X4534468Y-10874174D02*
X4543992Y-10893222D01*
X4543992Y-10893222D02*
X4543992Y-10912270D01*
X4543992Y-10912270D02*
X4448753Y-10931317D01*
X4620182Y-10988460D02*
X4639230Y-10997984D01*
X4639230Y-10997984D02*
X4677325Y-10997984D01*
X4677325Y-10997984D02*
X4696373Y-10988460D01*
X4696373Y-10988460D02*
X4705896Y-10969412D01*
X4705896Y-10969412D02*
X4705896Y-10959889D01*
X4705896Y-10959889D02*
X4696373Y-10940841D01*
X4696373Y-10940841D02*
X4677325Y-10931317D01*
X4677325Y-10931317D02*
X4648753Y-10931317D01*
X4648753Y-10931317D02*
X4629706Y-10921793D01*
X4629706Y-10921793D02*
X4620182Y-10902746D01*
X4620182Y-10902746D02*
X4620182Y-10893222D01*
X4620182Y-10893222D02*
X4629706Y-10874174D01*
X4629706Y-10874174D02*
X4648753Y-10864650D01*
X4648753Y-10864650D02*
X4677325Y-10864650D01*
X4677325Y-10864650D02*
X4696373Y-10874174D01*
X4772563Y-11074174D02*
X4782087Y-11064650D01*
X4782087Y-11064650D02*
X4801134Y-11036079D01*
X4801134Y-11036079D02*
X4810658Y-11017031D01*
X4810658Y-11017031D02*
X4820182Y-10988460D01*
X4820182Y-10988460D02*
X4829706Y-10940841D01*
X4829706Y-10940841D02*
X4829706Y-10902746D01*
X4829706Y-10902746D02*
X4820182Y-10855127D01*
X4820182Y-10855127D02*
X4810658Y-10826555D01*
X4810658Y-10826555D02*
X4801134Y-10807508D01*
X4801134Y-10807508D02*
X4782087Y-10778936D01*
X4782087Y-10778936D02*
X4772563Y-10769412D01*
D13*
X-42500Y-11130500D02*
X-42500Y-11210500D01*
X-82500Y-11170500D02*
X-2500Y-11170500D01*
D12*
X296372Y-11061984D02*
X315420Y-11061984D01*
X315420Y-11061984D02*
X334467Y-11071508D01*
X334467Y-11071508D02*
X343991Y-11081031D01*
X343991Y-11081031D02*
X353515Y-11100079D01*
X353515Y-11100079D02*
X363039Y-11138174D01*
X363039Y-11138174D02*
X363039Y-11185793D01*
X363039Y-11185793D02*
X353515Y-11223888D01*
X353515Y-11223888D02*
X343991Y-11242936D01*
X343991Y-11242936D02*
X334467Y-11252460D01*
X334467Y-11252460D02*
X315420Y-11261984D01*
X315420Y-11261984D02*
X296372Y-11261984D01*
X296372Y-11261984D02*
X277324Y-11252460D01*
X277324Y-11252460D02*
X267801Y-11242936D01*
X267801Y-11242936D02*
X258277Y-11223888D01*
X258277Y-11223888D02*
X248753Y-11185793D01*
X248753Y-11185793D02*
X248753Y-11138174D01*
X248753Y-11138174D02*
X258277Y-11100079D01*
X258277Y-11100079D02*
X267801Y-11081031D01*
X267801Y-11081031D02*
X277324Y-11071508D01*
X277324Y-11071508D02*
X296372Y-11061984D01*
X448753Y-11242936D02*
X458277Y-11252460D01*
X458277Y-11252460D02*
X448753Y-11261984D01*
X448753Y-11261984D02*
X439229Y-11252460D01*
X439229Y-11252460D02*
X448753Y-11242936D01*
X448753Y-11242936D02*
X448753Y-11261984D01*
X572563Y-11147698D02*
X553515Y-11138174D01*
X553515Y-11138174D02*
X543991Y-11128650D01*
X543991Y-11128650D02*
X534467Y-11109603D01*
X534467Y-11109603D02*
X534467Y-11100079D01*
X534467Y-11100079D02*
X543991Y-11081031D01*
X543991Y-11081031D02*
X553515Y-11071508D01*
X553515Y-11071508D02*
X572563Y-11061984D01*
X572563Y-11061984D02*
X610658Y-11061984D01*
X610658Y-11061984D02*
X629705Y-11071508D01*
X629705Y-11071508D02*
X639229Y-11081031D01*
X639229Y-11081031D02*
X648753Y-11100079D01*
X648753Y-11100079D02*
X648753Y-11109603D01*
X648753Y-11109603D02*
X639229Y-11128650D01*
X639229Y-11128650D02*
X629705Y-11138174D01*
X629705Y-11138174D02*
X610658Y-11147698D01*
X610658Y-11147698D02*
X572563Y-11147698D01*
X572563Y-11147698D02*
X553515Y-11157222D01*
X553515Y-11157222D02*
X543991Y-11166746D01*
X543991Y-11166746D02*
X534467Y-11185793D01*
X534467Y-11185793D02*
X534467Y-11223888D01*
X534467Y-11223888D02*
X543991Y-11242936D01*
X543991Y-11242936D02*
X553515Y-11252460D01*
X553515Y-11252460D02*
X572563Y-11261984D01*
X572563Y-11261984D02*
X610658Y-11261984D01*
X610658Y-11261984D02*
X629705Y-11252460D01*
X629705Y-11252460D02*
X639229Y-11242936D01*
X639229Y-11242936D02*
X648753Y-11223888D01*
X648753Y-11223888D02*
X648753Y-11185793D01*
X648753Y-11185793D02*
X639229Y-11166746D01*
X639229Y-11166746D02*
X629705Y-11157222D01*
X629705Y-11157222D02*
X610658Y-11147698D01*
X772562Y-11061984D02*
X791610Y-11061984D01*
X791610Y-11061984D02*
X810658Y-11071508D01*
X810658Y-11071508D02*
X820182Y-11081031D01*
X820182Y-11081031D02*
X829705Y-11100079D01*
X829705Y-11100079D02*
X839229Y-11138174D01*
X839229Y-11138174D02*
X839229Y-11185793D01*
X839229Y-11185793D02*
X829705Y-11223888D01*
X829705Y-11223888D02*
X820182Y-11242936D01*
X820182Y-11242936D02*
X810658Y-11252460D01*
X810658Y-11252460D02*
X791610Y-11261984D01*
X791610Y-11261984D02*
X772562Y-11261984D01*
X772562Y-11261984D02*
X753515Y-11252460D01*
X753515Y-11252460D02*
X743991Y-11242936D01*
X743991Y-11242936D02*
X734467Y-11223888D01*
X734467Y-11223888D02*
X724943Y-11185793D01*
X724943Y-11185793D02*
X724943Y-11138174D01*
X724943Y-11138174D02*
X734467Y-11100079D01*
X734467Y-11100079D02*
X743991Y-11081031D01*
X743991Y-11081031D02*
X753515Y-11071508D01*
X753515Y-11071508D02*
X772562Y-11061984D01*
X963039Y-11061984D02*
X982086Y-11061984D01*
X982086Y-11061984D02*
X1001134Y-11071508D01*
X1001134Y-11071508D02*
X1010658Y-11081031D01*
X1010658Y-11081031D02*
X1020182Y-11100079D01*
X1020182Y-11100079D02*
X1029705Y-11138174D01*
X1029705Y-11138174D02*
X1029705Y-11185793D01*
X1029705Y-11185793D02*
X1020182Y-11223888D01*
X1020182Y-11223888D02*
X1010658Y-11242936D01*
X1010658Y-11242936D02*
X1001134Y-11252460D01*
X1001134Y-11252460D02*
X982086Y-11261984D01*
X982086Y-11261984D02*
X963039Y-11261984D01*
X963039Y-11261984D02*
X943991Y-11252460D01*
X943991Y-11252460D02*
X934467Y-11242936D01*
X934467Y-11242936D02*
X924943Y-11223888D01*
X924943Y-11223888D02*
X915420Y-11185793D01*
X915420Y-11185793D02*
X915420Y-11138174D01*
X915420Y-11138174D02*
X924943Y-11100079D01*
X924943Y-11100079D02*
X934467Y-11081031D01*
X934467Y-11081031D02*
X943991Y-11071508D01*
X943991Y-11071508D02*
X963039Y-11061984D01*
X1115420Y-11261984D02*
X1115420Y-11128650D01*
X1115420Y-11147698D02*
X1124944Y-11138174D01*
X1124944Y-11138174D02*
X1143991Y-11128650D01*
X1143991Y-11128650D02*
X1172563Y-11128650D01*
X1172563Y-11128650D02*
X1191610Y-11138174D01*
X1191610Y-11138174D02*
X1201134Y-11157222D01*
X1201134Y-11157222D02*
X1201134Y-11261984D01*
X1201134Y-11157222D02*
X1210658Y-11138174D01*
X1210658Y-11138174D02*
X1229705Y-11128650D01*
X1229705Y-11128650D02*
X1258277Y-11128650D01*
X1258277Y-11128650D02*
X1277325Y-11138174D01*
X1277325Y-11138174D02*
X1286848Y-11157222D01*
X1286848Y-11157222D02*
X1286848Y-11261984D01*
X1382086Y-11261984D02*
X1382086Y-11128650D01*
X1382086Y-11147698D02*
X1391610Y-11138174D01*
X1391610Y-11138174D02*
X1410658Y-11128650D01*
X1410658Y-11128650D02*
X1439229Y-11128650D01*
X1439229Y-11128650D02*
X1458277Y-11138174D01*
X1458277Y-11138174D02*
X1467801Y-11157222D01*
X1467801Y-11157222D02*
X1467801Y-11261984D01*
X1467801Y-11157222D02*
X1477324Y-11138174D01*
X1477324Y-11138174D02*
X1496372Y-11128650D01*
X1496372Y-11128650D02*
X1524943Y-11128650D01*
X1524943Y-11128650D02*
X1543991Y-11138174D01*
X1543991Y-11138174D02*
X1553515Y-11157222D01*
X1553515Y-11157222D02*
X1553515Y-11261984D01*
X1943991Y-11052460D02*
X1772563Y-11309603D01*
X2201134Y-11061984D02*
X2220182Y-11061984D01*
X2220182Y-11061984D02*
X2239229Y-11071508D01*
X2239229Y-11071508D02*
X2248753Y-11081031D01*
X2248753Y-11081031D02*
X2258277Y-11100079D01*
X2258277Y-11100079D02*
X2267801Y-11138174D01*
X2267801Y-11138174D02*
X2267801Y-11185793D01*
X2267801Y-11185793D02*
X2258277Y-11223888D01*
X2258277Y-11223888D02*
X2248753Y-11242936D01*
X2248753Y-11242936D02*
X2239229Y-11252460D01*
X2239229Y-11252460D02*
X2220182Y-11261984D01*
X2220182Y-11261984D02*
X2201134Y-11261984D01*
X2201134Y-11261984D02*
X2182087Y-11252460D01*
X2182087Y-11252460D02*
X2172563Y-11242936D01*
X2172563Y-11242936D02*
X2163039Y-11223888D01*
X2163039Y-11223888D02*
X2153515Y-11185793D01*
X2153515Y-11185793D02*
X2153515Y-11138174D01*
X2153515Y-11138174D02*
X2163039Y-11100079D01*
X2163039Y-11100079D02*
X2172563Y-11081031D01*
X2172563Y-11081031D02*
X2182087Y-11071508D01*
X2182087Y-11071508D02*
X2201134Y-11061984D01*
X2353515Y-11242936D02*
X2363039Y-11252460D01*
X2363039Y-11252460D02*
X2353515Y-11261984D01*
X2353515Y-11261984D02*
X2343991Y-11252460D01*
X2343991Y-11252460D02*
X2353515Y-11242936D01*
X2353515Y-11242936D02*
X2353515Y-11261984D01*
X2486848Y-11061984D02*
X2505896Y-11061984D01*
X2505896Y-11061984D02*
X2524944Y-11071508D01*
X2524944Y-11071508D02*
X2534468Y-11081031D01*
X2534468Y-11081031D02*
X2543991Y-11100079D01*
X2543991Y-11100079D02*
X2553515Y-11138174D01*
X2553515Y-11138174D02*
X2553515Y-11185793D01*
X2553515Y-11185793D02*
X2543991Y-11223888D01*
X2543991Y-11223888D02*
X2534468Y-11242936D01*
X2534468Y-11242936D02*
X2524944Y-11252460D01*
X2524944Y-11252460D02*
X2505896Y-11261984D01*
X2505896Y-11261984D02*
X2486848Y-11261984D01*
X2486848Y-11261984D02*
X2467801Y-11252460D01*
X2467801Y-11252460D02*
X2458277Y-11242936D01*
X2458277Y-11242936D02*
X2448753Y-11223888D01*
X2448753Y-11223888D02*
X2439229Y-11185793D01*
X2439229Y-11185793D02*
X2439229Y-11138174D01*
X2439229Y-11138174D02*
X2448753Y-11100079D01*
X2448753Y-11100079D02*
X2458277Y-11081031D01*
X2458277Y-11081031D02*
X2467801Y-11071508D01*
X2467801Y-11071508D02*
X2486848Y-11061984D01*
X2620182Y-11061984D02*
X2743991Y-11061984D01*
X2743991Y-11061984D02*
X2677325Y-11138174D01*
X2677325Y-11138174D02*
X2705896Y-11138174D01*
X2705896Y-11138174D02*
X2724944Y-11147698D01*
X2724944Y-11147698D02*
X2734468Y-11157222D01*
X2734468Y-11157222D02*
X2743991Y-11176270D01*
X2743991Y-11176270D02*
X2743991Y-11223888D01*
X2743991Y-11223888D02*
X2734468Y-11242936D01*
X2734468Y-11242936D02*
X2724944Y-11252460D01*
X2724944Y-11252460D02*
X2705896Y-11261984D01*
X2705896Y-11261984D02*
X2648753Y-11261984D01*
X2648753Y-11261984D02*
X2629706Y-11252460D01*
X2629706Y-11252460D02*
X2620182Y-11242936D01*
X2934467Y-11261984D02*
X2820182Y-11261984D01*
X2877325Y-11261984D02*
X2877325Y-11061984D01*
X2877325Y-11061984D02*
X2858277Y-11090555D01*
X2858277Y-11090555D02*
X2839229Y-11109603D01*
X2839229Y-11109603D02*
X2820182Y-11119127D01*
X3115420Y-11061984D02*
X3020182Y-11061984D01*
X3020182Y-11061984D02*
X3010658Y-11157222D01*
X3010658Y-11157222D02*
X3020182Y-11147698D01*
X3020182Y-11147698D02*
X3039229Y-11138174D01*
X3039229Y-11138174D02*
X3086848Y-11138174D01*
X3086848Y-11138174D02*
X3105896Y-11147698D01*
X3105896Y-11147698D02*
X3115420Y-11157222D01*
X3115420Y-11157222D02*
X3124944Y-11176270D01*
X3124944Y-11176270D02*
X3124944Y-11223888D01*
X3124944Y-11223888D02*
X3115420Y-11242936D01*
X3115420Y-11242936D02*
X3105896Y-11252460D01*
X3105896Y-11252460D02*
X3086848Y-11261984D01*
X3086848Y-11261984D02*
X3039229Y-11261984D01*
X3039229Y-11261984D02*
X3020182Y-11252460D01*
X3020182Y-11252460D02*
X3010658Y-11242936D01*
X3201134Y-11061984D02*
X3201134Y-11100079D01*
X3277325Y-11061984D02*
X3277325Y-11100079D01*
X3572563Y-11338174D02*
X3563039Y-11328650D01*
X3563039Y-11328650D02*
X3543991Y-11300079D01*
X3543991Y-11300079D02*
X3534468Y-11281031D01*
X3534468Y-11281031D02*
X3524944Y-11252460D01*
X3524944Y-11252460D02*
X3515420Y-11204841D01*
X3515420Y-11204841D02*
X3515420Y-11166746D01*
X3515420Y-11166746D02*
X3524944Y-11119127D01*
X3524944Y-11119127D02*
X3534468Y-11090555D01*
X3534468Y-11090555D02*
X3543991Y-11071508D01*
X3543991Y-11071508D02*
X3563039Y-11042936D01*
X3563039Y-11042936D02*
X3572563Y-11033412D01*
X3734468Y-11128650D02*
X3734468Y-11261984D01*
X3686848Y-11052460D02*
X3639229Y-11195317D01*
X3639229Y-11195317D02*
X3763039Y-11195317D01*
X3829706Y-11081031D02*
X3839229Y-11071508D01*
X3839229Y-11071508D02*
X3858277Y-11061984D01*
X3858277Y-11061984D02*
X3905896Y-11061984D01*
X3905896Y-11061984D02*
X3924944Y-11071508D01*
X3924944Y-11071508D02*
X3934468Y-11081031D01*
X3934468Y-11081031D02*
X3943991Y-11100079D01*
X3943991Y-11100079D02*
X3943991Y-11119127D01*
X3943991Y-11119127D02*
X3934468Y-11147698D01*
X3934468Y-11147698D02*
X3820182Y-11261984D01*
X3820182Y-11261984D02*
X3943991Y-11261984D01*
X4182087Y-11261984D02*
X4182087Y-11061984D01*
X4267801Y-11261984D02*
X4267801Y-11157222D01*
X4267801Y-11157222D02*
X4258277Y-11138174D01*
X4258277Y-11138174D02*
X4239230Y-11128650D01*
X4239230Y-11128650D02*
X4210658Y-11128650D01*
X4210658Y-11128650D02*
X4191610Y-11138174D01*
X4191610Y-11138174D02*
X4182087Y-11147698D01*
X4391611Y-11261984D02*
X4372563Y-11252460D01*
X4372563Y-11252460D02*
X4363039Y-11242936D01*
X4363039Y-11242936D02*
X4353515Y-11223888D01*
X4353515Y-11223888D02*
X4353515Y-11166746D01*
X4353515Y-11166746D02*
X4363039Y-11147698D01*
X4363039Y-11147698D02*
X4372563Y-11138174D01*
X4372563Y-11138174D02*
X4391611Y-11128650D01*
X4391611Y-11128650D02*
X4420182Y-11128650D01*
X4420182Y-11128650D02*
X4439230Y-11138174D01*
X4439230Y-11138174D02*
X4448753Y-11147698D01*
X4448753Y-11147698D02*
X4458277Y-11166746D01*
X4458277Y-11166746D02*
X4458277Y-11223888D01*
X4458277Y-11223888D02*
X4448753Y-11242936D01*
X4448753Y-11242936D02*
X4439230Y-11252460D01*
X4439230Y-11252460D02*
X4420182Y-11261984D01*
X4420182Y-11261984D02*
X4391611Y-11261984D01*
X4572563Y-11261984D02*
X4553515Y-11252460D01*
X4553515Y-11252460D02*
X4543992Y-11233412D01*
X4543992Y-11233412D02*
X4543992Y-11061984D01*
X4724944Y-11252460D02*
X4705896Y-11261984D01*
X4705896Y-11261984D02*
X4667801Y-11261984D01*
X4667801Y-11261984D02*
X4648753Y-11252460D01*
X4648753Y-11252460D02*
X4639230Y-11233412D01*
X4639230Y-11233412D02*
X4639230Y-11157222D01*
X4639230Y-11157222D02*
X4648753Y-11138174D01*
X4648753Y-11138174D02*
X4667801Y-11128650D01*
X4667801Y-11128650D02*
X4705896Y-11128650D01*
X4705896Y-11128650D02*
X4724944Y-11138174D01*
X4724944Y-11138174D02*
X4734468Y-11157222D01*
X4734468Y-11157222D02*
X4734468Y-11176270D01*
X4734468Y-11176270D02*
X4639230Y-11195317D01*
X4810658Y-11252460D02*
X4829706Y-11261984D01*
X4829706Y-11261984D02*
X4867801Y-11261984D01*
X4867801Y-11261984D02*
X4886849Y-11252460D01*
X4886849Y-11252460D02*
X4896373Y-11233412D01*
X4896373Y-11233412D02*
X4896373Y-11223888D01*
X4896373Y-11223888D02*
X4886849Y-11204841D01*
X4886849Y-11204841D02*
X4867801Y-11195317D01*
X4867801Y-11195317D02*
X4839230Y-11195317D01*
X4839230Y-11195317D02*
X4820182Y-11185793D01*
X4820182Y-11185793D02*
X4810658Y-11166746D01*
X4810658Y-11166746D02*
X4810658Y-11157222D01*
X4810658Y-11157222D02*
X4820182Y-11138174D01*
X4820182Y-11138174D02*
X4839230Y-11128650D01*
X4839230Y-11128650D02*
X4867801Y-11128650D01*
X4867801Y-11128650D02*
X4886849Y-11138174D01*
X4963039Y-11338174D02*
X4972563Y-11328650D01*
X4972563Y-11328650D02*
X4991611Y-11300079D01*
X4991611Y-11300079D02*
X5001134Y-11281031D01*
X5001134Y-11281031D02*
X5010658Y-11252460D01*
X5010658Y-11252460D02*
X5020182Y-11204841D01*
X5020182Y-11204841D02*
X5020182Y-11166746D01*
X5020182Y-11166746D02*
X5010658Y-11119127D01*
X5010658Y-11119127D02*
X5001134Y-11090555D01*
X5001134Y-11090555D02*
X4991611Y-11071508D01*
X4991611Y-11071508D02*
X4972563Y-11042936D01*
X4972563Y-11042936D02*
X4963039Y-11033412D01*
D13*
X-17144Y-11469856D02*
X-17144Y-11399144D01*
X-87856Y-11399144D01*
X-87856Y-11469856D01*
X-17144Y-11469856D01*
D12*
X363039Y-11525984D02*
X248753Y-11525984D01*
X305896Y-11525984D02*
X305896Y-11325984D01*
X305896Y-11325984D02*
X286848Y-11354555D01*
X286848Y-11354555D02*
X267801Y-11373603D01*
X267801Y-11373603D02*
X248753Y-11383127D01*
X448753Y-11506936D02*
X458277Y-11516460D01*
X458277Y-11516460D02*
X448753Y-11525984D01*
X448753Y-11525984D02*
X439229Y-11516460D01*
X439229Y-11516460D02*
X448753Y-11506936D01*
X448753Y-11506936D02*
X448753Y-11525984D01*
X582086Y-11325984D02*
X601134Y-11325984D01*
X601134Y-11325984D02*
X620182Y-11335508D01*
X620182Y-11335508D02*
X629705Y-11345031D01*
X629705Y-11345031D02*
X639229Y-11364079D01*
X639229Y-11364079D02*
X648753Y-11402174D01*
X648753Y-11402174D02*
X648753Y-11449793D01*
X648753Y-11449793D02*
X639229Y-11487888D01*
X639229Y-11487888D02*
X629705Y-11506936D01*
X629705Y-11506936D02*
X620182Y-11516460D01*
X620182Y-11516460D02*
X601134Y-11525984D01*
X601134Y-11525984D02*
X582086Y-11525984D01*
X582086Y-11525984D02*
X563039Y-11516460D01*
X563039Y-11516460D02*
X553515Y-11506936D01*
X553515Y-11506936D02*
X543991Y-11487888D01*
X543991Y-11487888D02*
X534467Y-11449793D01*
X534467Y-11449793D02*
X534467Y-11402174D01*
X534467Y-11402174D02*
X543991Y-11364079D01*
X543991Y-11364079D02*
X553515Y-11345031D01*
X553515Y-11345031D02*
X563039Y-11335508D01*
X563039Y-11335508D02*
X582086Y-11325984D01*
X772562Y-11325984D02*
X791610Y-11325984D01*
X791610Y-11325984D02*
X810658Y-11335508D01*
X810658Y-11335508D02*
X820182Y-11345031D01*
X820182Y-11345031D02*
X829705Y-11364079D01*
X829705Y-11364079D02*
X839229Y-11402174D01*
X839229Y-11402174D02*
X839229Y-11449793D01*
X839229Y-11449793D02*
X829705Y-11487888D01*
X829705Y-11487888D02*
X820182Y-11506936D01*
X820182Y-11506936D02*
X810658Y-11516460D01*
X810658Y-11516460D02*
X791610Y-11525984D01*
X791610Y-11525984D02*
X772562Y-11525984D01*
X772562Y-11525984D02*
X753515Y-11516460D01*
X753515Y-11516460D02*
X743991Y-11506936D01*
X743991Y-11506936D02*
X734467Y-11487888D01*
X734467Y-11487888D02*
X724943Y-11449793D01*
X724943Y-11449793D02*
X724943Y-11402174D01*
X724943Y-11402174D02*
X734467Y-11364079D01*
X734467Y-11364079D02*
X743991Y-11345031D01*
X743991Y-11345031D02*
X753515Y-11335508D01*
X753515Y-11335508D02*
X772562Y-11325984D01*
X963039Y-11325984D02*
X982086Y-11325984D01*
X982086Y-11325984D02*
X1001134Y-11335508D01*
X1001134Y-11335508D02*
X1010658Y-11345031D01*
X1010658Y-11345031D02*
X1020182Y-11364079D01*
X1020182Y-11364079D02*
X1029705Y-11402174D01*
X1029705Y-11402174D02*
X1029705Y-11449793D01*
X1029705Y-11449793D02*
X1020182Y-11487888D01*
X1020182Y-11487888D02*
X1010658Y-11506936D01*
X1010658Y-11506936D02*
X1001134Y-11516460D01*
X1001134Y-11516460D02*
X982086Y-11525984D01*
X982086Y-11525984D02*
X963039Y-11525984D01*
X963039Y-11525984D02*
X943991Y-11516460D01*
X943991Y-11516460D02*
X934467Y-11506936D01*
X934467Y-11506936D02*
X924943Y-11487888D01*
X924943Y-11487888D02*
X915420Y-11449793D01*
X915420Y-11449793D02*
X915420Y-11402174D01*
X915420Y-11402174D02*
X924943Y-11364079D01*
X924943Y-11364079D02*
X934467Y-11345031D01*
X934467Y-11345031D02*
X943991Y-11335508D01*
X943991Y-11335508D02*
X963039Y-11325984D01*
X1115420Y-11525984D02*
X1115420Y-11392650D01*
X1115420Y-11411698D02*
X1124944Y-11402174D01*
X1124944Y-11402174D02*
X1143991Y-11392650D01*
X1143991Y-11392650D02*
X1172563Y-11392650D01*
X1172563Y-11392650D02*
X1191610Y-11402174D01*
X1191610Y-11402174D02*
X1201134Y-11421222D01*
X1201134Y-11421222D02*
X1201134Y-11525984D01*
X1201134Y-11421222D02*
X1210658Y-11402174D01*
X1210658Y-11402174D02*
X1229705Y-11392650D01*
X1229705Y-11392650D02*
X1258277Y-11392650D01*
X1258277Y-11392650D02*
X1277325Y-11402174D01*
X1277325Y-11402174D02*
X1286848Y-11421222D01*
X1286848Y-11421222D02*
X1286848Y-11525984D01*
X1382086Y-11525984D02*
X1382086Y-11392650D01*
X1382086Y-11411698D02*
X1391610Y-11402174D01*
X1391610Y-11402174D02*
X1410658Y-11392650D01*
X1410658Y-11392650D02*
X1439229Y-11392650D01*
X1439229Y-11392650D02*
X1458277Y-11402174D01*
X1458277Y-11402174D02*
X1467801Y-11421222D01*
X1467801Y-11421222D02*
X1467801Y-11525984D01*
X1467801Y-11421222D02*
X1477324Y-11402174D01*
X1477324Y-11402174D02*
X1496372Y-11392650D01*
X1496372Y-11392650D02*
X1524943Y-11392650D01*
X1524943Y-11392650D02*
X1543991Y-11402174D01*
X1543991Y-11402174D02*
X1553515Y-11421222D01*
X1553515Y-11421222D02*
X1553515Y-11525984D01*
X1943991Y-11316460D02*
X1772563Y-11573603D01*
X2201134Y-11325984D02*
X2220182Y-11325984D01*
X2220182Y-11325984D02*
X2239229Y-11335508D01*
X2239229Y-11335508D02*
X2248753Y-11345031D01*
X2248753Y-11345031D02*
X2258277Y-11364079D01*
X2258277Y-11364079D02*
X2267801Y-11402174D01*
X2267801Y-11402174D02*
X2267801Y-11449793D01*
X2267801Y-11449793D02*
X2258277Y-11487888D01*
X2258277Y-11487888D02*
X2248753Y-11506936D01*
X2248753Y-11506936D02*
X2239229Y-11516460D01*
X2239229Y-11516460D02*
X2220182Y-11525984D01*
X2220182Y-11525984D02*
X2201134Y-11525984D01*
X2201134Y-11525984D02*
X2182087Y-11516460D01*
X2182087Y-11516460D02*
X2172563Y-11506936D01*
X2172563Y-11506936D02*
X2163039Y-11487888D01*
X2163039Y-11487888D02*
X2153515Y-11449793D01*
X2153515Y-11449793D02*
X2153515Y-11402174D01*
X2153515Y-11402174D02*
X2163039Y-11364079D01*
X2163039Y-11364079D02*
X2172563Y-11345031D01*
X2172563Y-11345031D02*
X2182087Y-11335508D01*
X2182087Y-11335508D02*
X2201134Y-11325984D01*
X2353515Y-11506936D02*
X2363039Y-11516460D01*
X2363039Y-11516460D02*
X2353515Y-11525984D01*
X2353515Y-11525984D02*
X2343991Y-11516460D01*
X2343991Y-11516460D02*
X2353515Y-11506936D01*
X2353515Y-11506936D02*
X2353515Y-11525984D01*
X2486848Y-11325984D02*
X2505896Y-11325984D01*
X2505896Y-11325984D02*
X2524944Y-11335508D01*
X2524944Y-11335508D02*
X2534468Y-11345031D01*
X2534468Y-11345031D02*
X2543991Y-11364079D01*
X2543991Y-11364079D02*
X2553515Y-11402174D01*
X2553515Y-11402174D02*
X2553515Y-11449793D01*
X2553515Y-11449793D02*
X2543991Y-11487888D01*
X2543991Y-11487888D02*
X2534468Y-11506936D01*
X2534468Y-11506936D02*
X2524944Y-11516460D01*
X2524944Y-11516460D02*
X2505896Y-11525984D01*
X2505896Y-11525984D02*
X2486848Y-11525984D01*
X2486848Y-11525984D02*
X2467801Y-11516460D01*
X2467801Y-11516460D02*
X2458277Y-11506936D01*
X2458277Y-11506936D02*
X2448753Y-11487888D01*
X2448753Y-11487888D02*
X2439229Y-11449793D01*
X2439229Y-11449793D02*
X2439229Y-11402174D01*
X2439229Y-11402174D02*
X2448753Y-11364079D01*
X2448753Y-11364079D02*
X2458277Y-11345031D01*
X2458277Y-11345031D02*
X2467801Y-11335508D01*
X2467801Y-11335508D02*
X2486848Y-11325984D01*
X2620182Y-11325984D02*
X2743991Y-11325984D01*
X2743991Y-11325984D02*
X2677325Y-11402174D01*
X2677325Y-11402174D02*
X2705896Y-11402174D01*
X2705896Y-11402174D02*
X2724944Y-11411698D01*
X2724944Y-11411698D02*
X2734468Y-11421222D01*
X2734468Y-11421222D02*
X2743991Y-11440269D01*
X2743991Y-11440269D02*
X2743991Y-11487888D01*
X2743991Y-11487888D02*
X2734468Y-11506936D01*
X2734468Y-11506936D02*
X2724944Y-11516460D01*
X2724944Y-11516460D02*
X2705896Y-11525984D01*
X2705896Y-11525984D02*
X2648753Y-11525984D01*
X2648753Y-11525984D02*
X2629706Y-11516460D01*
X2629706Y-11516460D02*
X2620182Y-11506936D01*
X2839229Y-11525984D02*
X2877325Y-11525984D01*
X2877325Y-11525984D02*
X2896372Y-11516460D01*
X2896372Y-11516460D02*
X2905896Y-11506936D01*
X2905896Y-11506936D02*
X2924944Y-11478365D01*
X2924944Y-11478365D02*
X2934467Y-11440269D01*
X2934467Y-11440269D02*
X2934467Y-11364079D01*
X2934467Y-11364079D02*
X2924944Y-11345031D01*
X2924944Y-11345031D02*
X2915420Y-11335508D01*
X2915420Y-11335508D02*
X2896372Y-11325984D01*
X2896372Y-11325984D02*
X2858277Y-11325984D01*
X2858277Y-11325984D02*
X2839229Y-11335508D01*
X2839229Y-11335508D02*
X2829706Y-11345031D01*
X2829706Y-11345031D02*
X2820182Y-11364079D01*
X2820182Y-11364079D02*
X2820182Y-11411698D01*
X2820182Y-11411698D02*
X2829706Y-11430746D01*
X2829706Y-11430746D02*
X2839229Y-11440269D01*
X2839229Y-11440269D02*
X2858277Y-11449793D01*
X2858277Y-11449793D02*
X2896372Y-11449793D01*
X2896372Y-11449793D02*
X2915420Y-11440269D01*
X2915420Y-11440269D02*
X2924944Y-11430746D01*
X2924944Y-11430746D02*
X2934467Y-11411698D01*
X3105896Y-11392650D02*
X3105896Y-11525984D01*
X3058277Y-11316460D02*
X3010658Y-11459317D01*
X3010658Y-11459317D02*
X3134467Y-11459317D01*
X3201134Y-11325984D02*
X3201134Y-11364079D01*
X3277325Y-11325984D02*
X3277325Y-11364079D01*
X3572563Y-11602174D02*
X3563039Y-11592650D01*
X3563039Y-11592650D02*
X3543991Y-11564079D01*
X3543991Y-11564079D02*
X3534468Y-11545031D01*
X3534468Y-11545031D02*
X3524944Y-11516460D01*
X3524944Y-11516460D02*
X3515420Y-11468841D01*
X3515420Y-11468841D02*
X3515420Y-11430746D01*
X3515420Y-11430746D02*
X3524944Y-11383127D01*
X3524944Y-11383127D02*
X3534468Y-11354555D01*
X3534468Y-11354555D02*
X3543991Y-11335508D01*
X3543991Y-11335508D02*
X3563039Y-11306936D01*
X3563039Y-11306936D02*
X3572563Y-11297412D01*
X3753515Y-11525984D02*
X3639229Y-11525984D01*
X3696372Y-11525984D02*
X3696372Y-11325984D01*
X3696372Y-11325984D02*
X3677325Y-11354555D01*
X3677325Y-11354555D02*
X3658277Y-11373603D01*
X3658277Y-11373603D02*
X3639229Y-11383127D01*
X3867801Y-11411698D02*
X3848753Y-11402174D01*
X3848753Y-11402174D02*
X3839229Y-11392650D01*
X3839229Y-11392650D02*
X3829706Y-11373603D01*
X3829706Y-11373603D02*
X3829706Y-11364079D01*
X3829706Y-11364079D02*
X3839229Y-11345031D01*
X3839229Y-11345031D02*
X3848753Y-11335508D01*
X3848753Y-11335508D02*
X3867801Y-11325984D01*
X3867801Y-11325984D02*
X3905896Y-11325984D01*
X3905896Y-11325984D02*
X3924944Y-11335508D01*
X3924944Y-11335508D02*
X3934468Y-11345031D01*
X3934468Y-11345031D02*
X3943991Y-11364079D01*
X3943991Y-11364079D02*
X3943991Y-11373603D01*
X3943991Y-11373603D02*
X3934468Y-11392650D01*
X3934468Y-11392650D02*
X3924944Y-11402174D01*
X3924944Y-11402174D02*
X3905896Y-11411698D01*
X3905896Y-11411698D02*
X3867801Y-11411698D01*
X3867801Y-11411698D02*
X3848753Y-11421222D01*
X3848753Y-11421222D02*
X3839229Y-11430746D01*
X3839229Y-11430746D02*
X3829706Y-11449793D01*
X3829706Y-11449793D02*
X3829706Y-11487888D01*
X3829706Y-11487888D02*
X3839229Y-11506936D01*
X3839229Y-11506936D02*
X3848753Y-11516460D01*
X3848753Y-11516460D02*
X3867801Y-11525984D01*
X3867801Y-11525984D02*
X3905896Y-11525984D01*
X3905896Y-11525984D02*
X3924944Y-11516460D01*
X3924944Y-11516460D02*
X3934468Y-11506936D01*
X3934468Y-11506936D02*
X3943991Y-11487888D01*
X3943991Y-11487888D02*
X3943991Y-11449793D01*
X3943991Y-11449793D02*
X3934468Y-11430746D01*
X3934468Y-11430746D02*
X3924944Y-11421222D01*
X3924944Y-11421222D02*
X3905896Y-11411698D01*
X4182087Y-11525984D02*
X4182087Y-11325984D01*
X4267801Y-11525984D02*
X4267801Y-11421222D01*
X4267801Y-11421222D02*
X4258277Y-11402174D01*
X4258277Y-11402174D02*
X4239230Y-11392650D01*
X4239230Y-11392650D02*
X4210658Y-11392650D01*
X4210658Y-11392650D02*
X4191610Y-11402174D01*
X4191610Y-11402174D02*
X4182087Y-11411698D01*
X4391611Y-11525984D02*
X4372563Y-11516460D01*
X4372563Y-11516460D02*
X4363039Y-11506936D01*
X4363039Y-11506936D02*
X4353515Y-11487888D01*
X4353515Y-11487888D02*
X4353515Y-11430746D01*
X4353515Y-11430746D02*
X4363039Y-11411698D01*
X4363039Y-11411698D02*
X4372563Y-11402174D01*
X4372563Y-11402174D02*
X4391611Y-11392650D01*
X4391611Y-11392650D02*
X4420182Y-11392650D01*
X4420182Y-11392650D02*
X4439230Y-11402174D01*
X4439230Y-11402174D02*
X4448753Y-11411698D01*
X4448753Y-11411698D02*
X4458277Y-11430746D01*
X4458277Y-11430746D02*
X4458277Y-11487888D01*
X4458277Y-11487888D02*
X4448753Y-11506936D01*
X4448753Y-11506936D02*
X4439230Y-11516460D01*
X4439230Y-11516460D02*
X4420182Y-11525984D01*
X4420182Y-11525984D02*
X4391611Y-11525984D01*
X4572563Y-11525984D02*
X4553515Y-11516460D01*
X4553515Y-11516460D02*
X4543992Y-11497412D01*
X4543992Y-11497412D02*
X4543992Y-11325984D01*
X4724944Y-11516460D02*
X4705896Y-11525984D01*
X4705896Y-11525984D02*
X4667801Y-11525984D01*
X4667801Y-11525984D02*
X4648753Y-11516460D01*
X4648753Y-11516460D02*
X4639230Y-11497412D01*
X4639230Y-11497412D02*
X4639230Y-11421222D01*
X4639230Y-11421222D02*
X4648753Y-11402174D01*
X4648753Y-11402174D02*
X4667801Y-11392650D01*
X4667801Y-11392650D02*
X4705896Y-11392650D01*
X4705896Y-11392650D02*
X4724944Y-11402174D01*
X4724944Y-11402174D02*
X4734468Y-11421222D01*
X4734468Y-11421222D02*
X4734468Y-11440269D01*
X4734468Y-11440269D02*
X4639230Y-11459317D01*
X4810658Y-11516460D02*
X4829706Y-11525984D01*
X4829706Y-11525984D02*
X4867801Y-11525984D01*
X4867801Y-11525984D02*
X4886849Y-11516460D01*
X4886849Y-11516460D02*
X4896373Y-11497412D01*
X4896373Y-11497412D02*
X4896373Y-11487888D01*
X4896373Y-11487888D02*
X4886849Y-11468841D01*
X4886849Y-11468841D02*
X4867801Y-11459317D01*
X4867801Y-11459317D02*
X4839230Y-11459317D01*
X4839230Y-11459317D02*
X4820182Y-11449793D01*
X4820182Y-11449793D02*
X4810658Y-11430746D01*
X4810658Y-11430746D02*
X4810658Y-11421222D01*
X4810658Y-11421222D02*
X4820182Y-11402174D01*
X4820182Y-11402174D02*
X4839230Y-11392650D01*
X4839230Y-11392650D02*
X4867801Y-11392650D01*
X4867801Y-11392650D02*
X4886849Y-11402174D01*
X4963039Y-11602174D02*
X4972563Y-11592650D01*
X4972563Y-11592650D02*
X4991611Y-11564079D01*
X4991611Y-11564079D02*
X5001134Y-11545031D01*
X5001134Y-11545031D02*
X5010658Y-11516460D01*
X5010658Y-11516460D02*
X5020182Y-11468841D01*
X5020182Y-11468841D02*
X5020182Y-11430746D01*
X5020182Y-11430746D02*
X5010658Y-11383127D01*
X5010658Y-11383127D02*
X5001134Y-11354555D01*
X5001134Y-11354555D02*
X4991611Y-11335508D01*
X4991611Y-11335508D02*
X4972563Y-11306936D01*
X4972563Y-11306936D02*
X4963039Y-11297412D01*
D11*
X-62500Y-11758500D02*
X-2500Y-11698500D01*
X-62500Y-11638500D01*
X-122500Y-11698500D01*
X-62500Y-11758500D01*
D12*
X363039Y-11789984D02*
X248753Y-11789984D01*
X305896Y-11789984D02*
X305896Y-11589984D01*
X305896Y-11589984D02*
X286848Y-11618555D01*
X286848Y-11618555D02*
X267801Y-11637603D01*
X267801Y-11637603D02*
X248753Y-11647127D01*
X448753Y-11770936D02*
X458277Y-11780460D01*
X458277Y-11780460D02*
X448753Y-11789984D01*
X448753Y-11789984D02*
X439229Y-11780460D01*
X439229Y-11780460D02*
X448753Y-11770936D01*
X448753Y-11770936D02*
X448753Y-11789984D01*
X534467Y-11609031D02*
X543991Y-11599508D01*
X543991Y-11599508D02*
X563039Y-11589984D01*
X563039Y-11589984D02*
X610658Y-11589984D01*
X610658Y-11589984D02*
X629705Y-11599508D01*
X629705Y-11599508D02*
X639229Y-11609031D01*
X639229Y-11609031D02*
X648753Y-11628079D01*
X648753Y-11628079D02*
X648753Y-11647127D01*
X648753Y-11647127D02*
X639229Y-11675698D01*
X639229Y-11675698D02*
X524944Y-11789984D01*
X524944Y-11789984D02*
X648753Y-11789984D01*
X772562Y-11589984D02*
X791610Y-11589984D01*
X791610Y-11589984D02*
X810658Y-11599508D01*
X810658Y-11599508D02*
X820182Y-11609031D01*
X820182Y-11609031D02*
X829705Y-11628079D01*
X829705Y-11628079D02*
X839229Y-11666174D01*
X839229Y-11666174D02*
X839229Y-11713793D01*
X839229Y-11713793D02*
X829705Y-11751888D01*
X829705Y-11751888D02*
X820182Y-11770936D01*
X820182Y-11770936D02*
X810658Y-11780460D01*
X810658Y-11780460D02*
X791610Y-11789984D01*
X791610Y-11789984D02*
X772562Y-11789984D01*
X772562Y-11789984D02*
X753515Y-11780460D01*
X753515Y-11780460D02*
X743991Y-11770936D01*
X743991Y-11770936D02*
X734467Y-11751888D01*
X734467Y-11751888D02*
X724943Y-11713793D01*
X724943Y-11713793D02*
X724943Y-11666174D01*
X724943Y-11666174D02*
X734467Y-11628079D01*
X734467Y-11628079D02*
X743991Y-11609031D01*
X743991Y-11609031D02*
X753515Y-11599508D01*
X753515Y-11599508D02*
X772562Y-11589984D01*
X963039Y-11589984D02*
X982086Y-11589984D01*
X982086Y-11589984D02*
X1001134Y-11599508D01*
X1001134Y-11599508D02*
X1010658Y-11609031D01*
X1010658Y-11609031D02*
X1020182Y-11628079D01*
X1020182Y-11628079D02*
X1029705Y-11666174D01*
X1029705Y-11666174D02*
X1029705Y-11713793D01*
X1029705Y-11713793D02*
X1020182Y-11751888D01*
X1020182Y-11751888D02*
X1010658Y-11770936D01*
X1010658Y-11770936D02*
X1001134Y-11780460D01*
X1001134Y-11780460D02*
X982086Y-11789984D01*
X982086Y-11789984D02*
X963039Y-11789984D01*
X963039Y-11789984D02*
X943991Y-11780460D01*
X943991Y-11780460D02*
X934467Y-11770936D01*
X934467Y-11770936D02*
X924943Y-11751888D01*
X924943Y-11751888D02*
X915420Y-11713793D01*
X915420Y-11713793D02*
X915420Y-11666174D01*
X915420Y-11666174D02*
X924943Y-11628079D01*
X924943Y-11628079D02*
X934467Y-11609031D01*
X934467Y-11609031D02*
X943991Y-11599508D01*
X943991Y-11599508D02*
X963039Y-11589984D01*
X1115420Y-11789984D02*
X1115420Y-11656650D01*
X1115420Y-11675698D02*
X1124944Y-11666174D01*
X1124944Y-11666174D02*
X1143991Y-11656650D01*
X1143991Y-11656650D02*
X1172563Y-11656650D01*
X1172563Y-11656650D02*
X1191610Y-11666174D01*
X1191610Y-11666174D02*
X1201134Y-11685222D01*
X1201134Y-11685222D02*
X1201134Y-11789984D01*
X1201134Y-11685222D02*
X1210658Y-11666174D01*
X1210658Y-11666174D02*
X1229705Y-11656650D01*
X1229705Y-11656650D02*
X1258277Y-11656650D01*
X1258277Y-11656650D02*
X1277325Y-11666174D01*
X1277325Y-11666174D02*
X1286848Y-11685222D01*
X1286848Y-11685222D02*
X1286848Y-11789984D01*
X1382086Y-11789984D02*
X1382086Y-11656650D01*
X1382086Y-11675698D02*
X1391610Y-11666174D01*
X1391610Y-11666174D02*
X1410658Y-11656650D01*
X1410658Y-11656650D02*
X1439229Y-11656650D01*
X1439229Y-11656650D02*
X1458277Y-11666174D01*
X1458277Y-11666174D02*
X1467801Y-11685222D01*
X1467801Y-11685222D02*
X1467801Y-11789984D01*
X1467801Y-11685222D02*
X1477324Y-11666174D01*
X1477324Y-11666174D02*
X1496372Y-11656650D01*
X1496372Y-11656650D02*
X1524943Y-11656650D01*
X1524943Y-11656650D02*
X1543991Y-11666174D01*
X1543991Y-11666174D02*
X1553515Y-11685222D01*
X1553515Y-11685222D02*
X1553515Y-11789984D01*
X1943991Y-11580460D02*
X1772563Y-11837603D01*
X2201134Y-11589984D02*
X2220182Y-11589984D01*
X2220182Y-11589984D02*
X2239229Y-11599508D01*
X2239229Y-11599508D02*
X2248753Y-11609031D01*
X2248753Y-11609031D02*
X2258277Y-11628079D01*
X2258277Y-11628079D02*
X2267801Y-11666174D01*
X2267801Y-11666174D02*
X2267801Y-11713793D01*
X2267801Y-11713793D02*
X2258277Y-11751888D01*
X2258277Y-11751888D02*
X2248753Y-11770936D01*
X2248753Y-11770936D02*
X2239229Y-11780460D01*
X2239229Y-11780460D02*
X2220182Y-11789984D01*
X2220182Y-11789984D02*
X2201134Y-11789984D01*
X2201134Y-11789984D02*
X2182087Y-11780460D01*
X2182087Y-11780460D02*
X2172563Y-11770936D01*
X2172563Y-11770936D02*
X2163039Y-11751888D01*
X2163039Y-11751888D02*
X2153515Y-11713793D01*
X2153515Y-11713793D02*
X2153515Y-11666174D01*
X2153515Y-11666174D02*
X2163039Y-11628079D01*
X2163039Y-11628079D02*
X2172563Y-11609031D01*
X2172563Y-11609031D02*
X2182087Y-11599508D01*
X2182087Y-11599508D02*
X2201134Y-11589984D01*
X2353515Y-11770936D02*
X2363039Y-11780460D01*
X2363039Y-11780460D02*
X2353515Y-11789984D01*
X2353515Y-11789984D02*
X2343991Y-11780460D01*
X2343991Y-11780460D02*
X2353515Y-11770936D01*
X2353515Y-11770936D02*
X2353515Y-11789984D01*
X2486848Y-11589984D02*
X2505896Y-11589984D01*
X2505896Y-11589984D02*
X2524944Y-11599508D01*
X2524944Y-11599508D02*
X2534468Y-11609031D01*
X2534468Y-11609031D02*
X2543991Y-11628079D01*
X2543991Y-11628079D02*
X2553515Y-11666174D01*
X2553515Y-11666174D02*
X2553515Y-11713793D01*
X2553515Y-11713793D02*
X2543991Y-11751888D01*
X2543991Y-11751888D02*
X2534468Y-11770936D01*
X2534468Y-11770936D02*
X2524944Y-11780460D01*
X2524944Y-11780460D02*
X2505896Y-11789984D01*
X2505896Y-11789984D02*
X2486848Y-11789984D01*
X2486848Y-11789984D02*
X2467801Y-11780460D01*
X2467801Y-11780460D02*
X2458277Y-11770936D01*
X2458277Y-11770936D02*
X2448753Y-11751888D01*
X2448753Y-11751888D02*
X2439229Y-11713793D01*
X2439229Y-11713793D02*
X2439229Y-11666174D01*
X2439229Y-11666174D02*
X2448753Y-11628079D01*
X2448753Y-11628079D02*
X2458277Y-11609031D01*
X2458277Y-11609031D02*
X2467801Y-11599508D01*
X2467801Y-11599508D02*
X2486848Y-11589984D01*
X2724944Y-11656650D02*
X2724944Y-11789984D01*
X2677325Y-11580460D02*
X2629706Y-11723317D01*
X2629706Y-11723317D02*
X2753515Y-11723317D01*
X2810658Y-11589984D02*
X2943991Y-11589984D01*
X2943991Y-11589984D02*
X2858277Y-11789984D01*
X3010658Y-11609031D02*
X3020182Y-11599508D01*
X3020182Y-11599508D02*
X3039229Y-11589984D01*
X3039229Y-11589984D02*
X3086848Y-11589984D01*
X3086848Y-11589984D02*
X3105896Y-11599508D01*
X3105896Y-11599508D02*
X3115420Y-11609031D01*
X3115420Y-11609031D02*
X3124944Y-11628079D01*
X3124944Y-11628079D02*
X3124944Y-11647127D01*
X3124944Y-11647127D02*
X3115420Y-11675698D01*
X3115420Y-11675698D02*
X3001134Y-11789984D01*
X3001134Y-11789984D02*
X3124944Y-11789984D01*
X3201134Y-11589984D02*
X3201134Y-11628079D01*
X3277325Y-11589984D02*
X3277325Y-11628079D01*
X3572563Y-11866174D02*
X3563039Y-11856650D01*
X3563039Y-11856650D02*
X3543991Y-11828079D01*
X3543991Y-11828079D02*
X3534468Y-11809031D01*
X3534468Y-11809031D02*
X3524944Y-11780460D01*
X3524944Y-11780460D02*
X3515420Y-11732841D01*
X3515420Y-11732841D02*
X3515420Y-11694746D01*
X3515420Y-11694746D02*
X3524944Y-11647127D01*
X3524944Y-11647127D02*
X3534468Y-11618555D01*
X3534468Y-11618555D02*
X3543991Y-11599508D01*
X3543991Y-11599508D02*
X3563039Y-11570936D01*
X3563039Y-11570936D02*
X3572563Y-11561412D01*
X3629706Y-11589984D02*
X3753515Y-11589984D01*
X3753515Y-11589984D02*
X3686848Y-11666174D01*
X3686848Y-11666174D02*
X3715420Y-11666174D01*
X3715420Y-11666174D02*
X3734468Y-11675698D01*
X3734468Y-11675698D02*
X3743991Y-11685222D01*
X3743991Y-11685222D02*
X3753515Y-11704269D01*
X3753515Y-11704269D02*
X3753515Y-11751888D01*
X3753515Y-11751888D02*
X3743991Y-11770936D01*
X3743991Y-11770936D02*
X3734468Y-11780460D01*
X3734468Y-11780460D02*
X3715420Y-11789984D01*
X3715420Y-11789984D02*
X3658277Y-11789984D01*
X3658277Y-11789984D02*
X3639229Y-11780460D01*
X3639229Y-11780460D02*
X3629706Y-11770936D01*
X3829706Y-11609031D02*
X3839229Y-11599508D01*
X3839229Y-11599508D02*
X3858277Y-11589984D01*
X3858277Y-11589984D02*
X3905896Y-11589984D01*
X3905896Y-11589984D02*
X3924944Y-11599508D01*
X3924944Y-11599508D02*
X3934468Y-11609031D01*
X3934468Y-11609031D02*
X3943991Y-11628079D01*
X3943991Y-11628079D02*
X3943991Y-11647127D01*
X3943991Y-11647127D02*
X3934468Y-11675698D01*
X3934468Y-11675698D02*
X3820182Y-11789984D01*
X3820182Y-11789984D02*
X3943991Y-11789984D01*
X4182087Y-11789984D02*
X4182087Y-11589984D01*
X4267801Y-11789984D02*
X4267801Y-11685222D01*
X4267801Y-11685222D02*
X4258277Y-11666174D01*
X4258277Y-11666174D02*
X4239230Y-11656650D01*
X4239230Y-11656650D02*
X4210658Y-11656650D01*
X4210658Y-11656650D02*
X4191610Y-11666174D01*
X4191610Y-11666174D02*
X4182087Y-11675698D01*
X4391611Y-11789984D02*
X4372563Y-11780460D01*
X4372563Y-11780460D02*
X4363039Y-11770936D01*
X4363039Y-11770936D02*
X4353515Y-11751888D01*
X4353515Y-11751888D02*
X4353515Y-11694746D01*
X4353515Y-11694746D02*
X4363039Y-11675698D01*
X4363039Y-11675698D02*
X4372563Y-11666174D01*
X4372563Y-11666174D02*
X4391611Y-11656650D01*
X4391611Y-11656650D02*
X4420182Y-11656650D01*
X4420182Y-11656650D02*
X4439230Y-11666174D01*
X4439230Y-11666174D02*
X4448753Y-11675698D01*
X4448753Y-11675698D02*
X4458277Y-11694746D01*
X4458277Y-11694746D02*
X4458277Y-11751888D01*
X4458277Y-11751888D02*
X4448753Y-11770936D01*
X4448753Y-11770936D02*
X4439230Y-11780460D01*
X4439230Y-11780460D02*
X4420182Y-11789984D01*
X4420182Y-11789984D02*
X4391611Y-11789984D01*
X4572563Y-11789984D02*
X4553515Y-11780460D01*
X4553515Y-11780460D02*
X4543992Y-11761412D01*
X4543992Y-11761412D02*
X4543992Y-11589984D01*
X4724944Y-11780460D02*
X4705896Y-11789984D01*
X4705896Y-11789984D02*
X4667801Y-11789984D01*
X4667801Y-11789984D02*
X4648753Y-11780460D01*
X4648753Y-11780460D02*
X4639230Y-11761412D01*
X4639230Y-11761412D02*
X4639230Y-11685222D01*
X4639230Y-11685222D02*
X4648753Y-11666174D01*
X4648753Y-11666174D02*
X4667801Y-11656650D01*
X4667801Y-11656650D02*
X4705896Y-11656650D01*
X4705896Y-11656650D02*
X4724944Y-11666174D01*
X4724944Y-11666174D02*
X4734468Y-11685222D01*
X4734468Y-11685222D02*
X4734468Y-11704269D01*
X4734468Y-11704269D02*
X4639230Y-11723317D01*
X4810658Y-11780460D02*
X4829706Y-11789984D01*
X4829706Y-11789984D02*
X4867801Y-11789984D01*
X4867801Y-11789984D02*
X4886849Y-11780460D01*
X4886849Y-11780460D02*
X4896373Y-11761412D01*
X4896373Y-11761412D02*
X4896373Y-11751888D01*
X4896373Y-11751888D02*
X4886849Y-11732841D01*
X4886849Y-11732841D02*
X4867801Y-11723317D01*
X4867801Y-11723317D02*
X4839230Y-11723317D01*
X4839230Y-11723317D02*
X4820182Y-11713793D01*
X4820182Y-11713793D02*
X4810658Y-11694746D01*
X4810658Y-11694746D02*
X4810658Y-11685222D01*
X4810658Y-11685222D02*
X4820182Y-11666174D01*
X4820182Y-11666174D02*
X4839230Y-11656650D01*
X4839230Y-11656650D02*
X4867801Y-11656650D01*
X4867801Y-11656650D02*
X4886849Y-11666174D01*
X4963039Y-11866174D02*
X4972563Y-11856650D01*
X4972563Y-11856650D02*
X4991611Y-11828079D01*
X4991611Y-11828079D02*
X5001134Y-11809031D01*
X5001134Y-11809031D02*
X5010658Y-11780460D01*
X5010658Y-11780460D02*
X5020182Y-11732841D01*
X5020182Y-11732841D02*
X5020182Y-11694746D01*
X5020182Y-11694746D02*
X5010658Y-11647127D01*
X5010658Y-11647127D02*
X5001134Y-11618555D01*
X5001134Y-11618555D02*
X4991611Y-11599508D01*
X4991611Y-11599508D02*
X4972563Y-11570936D01*
X4972563Y-11570936D02*
X4963039Y-11561412D01*
D14*
X-162500Y-11882500D02*
X-2500Y-12042500D01*
X-2500Y-11882500D02*
X-162500Y-12042500D01*
X-2500Y-11962500D02*
G75*
G02*
X-162500Y-11962500I-80000J0D01*
G01*
X-162500Y-11962500D02*
G75*
G02*
X-2500Y-11962500I80000J0D01*
G01*
D12*
X363039Y-12053984D02*
X248753Y-12053984D01*
X305896Y-12053984D02*
X305896Y-11853984D01*
X305896Y-11853984D02*
X286848Y-11882555D01*
X286848Y-11882555D02*
X267801Y-11901603D01*
X267801Y-11901603D02*
X248753Y-11911127D01*
X448753Y-12034936D02*
X458277Y-12044460D01*
X458277Y-12044460D02*
X448753Y-12053984D01*
X448753Y-12053984D02*
X439229Y-12044460D01*
X439229Y-12044460D02*
X448753Y-12034936D01*
X448753Y-12034936D02*
X448753Y-12053984D01*
X629705Y-11853984D02*
X591610Y-11853984D01*
X591610Y-11853984D02*
X572563Y-11863508D01*
X572563Y-11863508D02*
X563039Y-11873031D01*
X563039Y-11873031D02*
X543991Y-11901603D01*
X543991Y-11901603D02*
X534467Y-11939698D01*
X534467Y-11939698D02*
X534467Y-12015888D01*
X534467Y-12015888D02*
X543991Y-12034936D01*
X543991Y-12034936D02*
X553515Y-12044460D01*
X553515Y-12044460D02*
X572563Y-12053984D01*
X572563Y-12053984D02*
X610658Y-12053984D01*
X610658Y-12053984D02*
X629705Y-12044460D01*
X629705Y-12044460D02*
X639229Y-12034936D01*
X639229Y-12034936D02*
X648753Y-12015888D01*
X648753Y-12015888D02*
X648753Y-11968269D01*
X648753Y-11968269D02*
X639229Y-11949222D01*
X639229Y-11949222D02*
X629705Y-11939698D01*
X629705Y-11939698D02*
X610658Y-11930174D01*
X610658Y-11930174D02*
X572563Y-11930174D01*
X572563Y-11930174D02*
X553515Y-11939698D01*
X553515Y-11939698D02*
X543991Y-11949222D01*
X543991Y-11949222D02*
X534467Y-11968269D01*
X772562Y-11853984D02*
X791610Y-11853984D01*
X791610Y-11853984D02*
X810658Y-11863508D01*
X810658Y-11863508D02*
X820182Y-11873031D01*
X820182Y-11873031D02*
X829705Y-11892079D01*
X829705Y-11892079D02*
X839229Y-11930174D01*
X839229Y-11930174D02*
X839229Y-11977793D01*
X839229Y-11977793D02*
X829705Y-12015888D01*
X829705Y-12015888D02*
X820182Y-12034936D01*
X820182Y-12034936D02*
X810658Y-12044460D01*
X810658Y-12044460D02*
X791610Y-12053984D01*
X791610Y-12053984D02*
X772562Y-12053984D01*
X772562Y-12053984D02*
X753515Y-12044460D01*
X753515Y-12044460D02*
X743991Y-12034936D01*
X743991Y-12034936D02*
X734467Y-12015888D01*
X734467Y-12015888D02*
X724943Y-11977793D01*
X724943Y-11977793D02*
X724943Y-11930174D01*
X724943Y-11930174D02*
X734467Y-11892079D01*
X734467Y-11892079D02*
X743991Y-11873031D01*
X743991Y-11873031D02*
X753515Y-11863508D01*
X753515Y-11863508D02*
X772562Y-11853984D01*
X963039Y-11853984D02*
X982086Y-11853984D01*
X982086Y-11853984D02*
X1001134Y-11863508D01*
X1001134Y-11863508D02*
X1010658Y-11873031D01*
X1010658Y-11873031D02*
X1020182Y-11892079D01*
X1020182Y-11892079D02*
X1029705Y-11930174D01*
X1029705Y-11930174D02*
X1029705Y-11977793D01*
X1029705Y-11977793D02*
X1020182Y-12015888D01*
X1020182Y-12015888D02*
X1010658Y-12034936D01*
X1010658Y-12034936D02*
X1001134Y-12044460D01*
X1001134Y-12044460D02*
X982086Y-12053984D01*
X982086Y-12053984D02*
X963039Y-12053984D01*
X963039Y-12053984D02*
X943991Y-12044460D01*
X943991Y-12044460D02*
X934467Y-12034936D01*
X934467Y-12034936D02*
X924943Y-12015888D01*
X924943Y-12015888D02*
X915420Y-11977793D01*
X915420Y-11977793D02*
X915420Y-11930174D01*
X915420Y-11930174D02*
X924943Y-11892079D01*
X924943Y-11892079D02*
X934467Y-11873031D01*
X934467Y-11873031D02*
X943991Y-11863508D01*
X943991Y-11863508D02*
X963039Y-11853984D01*
X1115420Y-12053984D02*
X1115420Y-11920650D01*
X1115420Y-11939698D02*
X1124944Y-11930174D01*
X1124944Y-11930174D02*
X1143991Y-11920650D01*
X1143991Y-11920650D02*
X1172563Y-11920650D01*
X1172563Y-11920650D02*
X1191610Y-11930174D01*
X1191610Y-11930174D02*
X1201134Y-11949222D01*
X1201134Y-11949222D02*
X1201134Y-12053984D01*
X1201134Y-11949222D02*
X1210658Y-11930174D01*
X1210658Y-11930174D02*
X1229705Y-11920650D01*
X1229705Y-11920650D02*
X1258277Y-11920650D01*
X1258277Y-11920650D02*
X1277325Y-11930174D01*
X1277325Y-11930174D02*
X1286848Y-11949222D01*
X1286848Y-11949222D02*
X1286848Y-12053984D01*
X1382086Y-12053984D02*
X1382086Y-11920650D01*
X1382086Y-11939698D02*
X1391610Y-11930174D01*
X1391610Y-11930174D02*
X1410658Y-11920650D01*
X1410658Y-11920650D02*
X1439229Y-11920650D01*
X1439229Y-11920650D02*
X1458277Y-11930174D01*
X1458277Y-11930174D02*
X1467801Y-11949222D01*
X1467801Y-11949222D02*
X1467801Y-12053984D01*
X1467801Y-11949222D02*
X1477324Y-11930174D01*
X1477324Y-11930174D02*
X1496372Y-11920650D01*
X1496372Y-11920650D02*
X1524943Y-11920650D01*
X1524943Y-11920650D02*
X1543991Y-11930174D01*
X1543991Y-11930174D02*
X1553515Y-11949222D01*
X1553515Y-11949222D02*
X1553515Y-12053984D01*
X1943991Y-11844460D02*
X1772563Y-12101603D01*
X2201134Y-11853984D02*
X2220182Y-11853984D01*
X2220182Y-11853984D02*
X2239229Y-11863508D01*
X2239229Y-11863508D02*
X2248753Y-11873031D01*
X2248753Y-11873031D02*
X2258277Y-11892079D01*
X2258277Y-11892079D02*
X2267801Y-11930174D01*
X2267801Y-11930174D02*
X2267801Y-11977793D01*
X2267801Y-11977793D02*
X2258277Y-12015888D01*
X2258277Y-12015888D02*
X2248753Y-12034936D01*
X2248753Y-12034936D02*
X2239229Y-12044460D01*
X2239229Y-12044460D02*
X2220182Y-12053984D01*
X2220182Y-12053984D02*
X2201134Y-12053984D01*
X2201134Y-12053984D02*
X2182087Y-12044460D01*
X2182087Y-12044460D02*
X2172563Y-12034936D01*
X2172563Y-12034936D02*
X2163039Y-12015888D01*
X2163039Y-12015888D02*
X2153515Y-11977793D01*
X2153515Y-11977793D02*
X2153515Y-11930174D01*
X2153515Y-11930174D02*
X2163039Y-11892079D01*
X2163039Y-11892079D02*
X2172563Y-11873031D01*
X2172563Y-11873031D02*
X2182087Y-11863508D01*
X2182087Y-11863508D02*
X2201134Y-11853984D01*
X2353515Y-12034936D02*
X2363039Y-12044460D01*
X2363039Y-12044460D02*
X2353515Y-12053984D01*
X2353515Y-12053984D02*
X2343991Y-12044460D01*
X2343991Y-12044460D02*
X2353515Y-12034936D01*
X2353515Y-12034936D02*
X2353515Y-12053984D01*
X2486848Y-11853984D02*
X2505896Y-11853984D01*
X2505896Y-11853984D02*
X2524944Y-11863508D01*
X2524944Y-11863508D02*
X2534468Y-11873031D01*
X2534468Y-11873031D02*
X2543991Y-11892079D01*
X2543991Y-11892079D02*
X2553515Y-11930174D01*
X2553515Y-11930174D02*
X2553515Y-11977793D01*
X2553515Y-11977793D02*
X2543991Y-12015888D01*
X2543991Y-12015888D02*
X2534468Y-12034936D01*
X2534468Y-12034936D02*
X2524944Y-12044460D01*
X2524944Y-12044460D02*
X2505896Y-12053984D01*
X2505896Y-12053984D02*
X2486848Y-12053984D01*
X2486848Y-12053984D02*
X2467801Y-12044460D01*
X2467801Y-12044460D02*
X2458277Y-12034936D01*
X2458277Y-12034936D02*
X2448753Y-12015888D01*
X2448753Y-12015888D02*
X2439229Y-11977793D01*
X2439229Y-11977793D02*
X2439229Y-11930174D01*
X2439229Y-11930174D02*
X2448753Y-11892079D01*
X2448753Y-11892079D02*
X2458277Y-11873031D01*
X2458277Y-11873031D02*
X2467801Y-11863508D01*
X2467801Y-11863508D02*
X2486848Y-11853984D01*
X2724944Y-11853984D02*
X2686848Y-11853984D01*
X2686848Y-11853984D02*
X2667801Y-11863508D01*
X2667801Y-11863508D02*
X2658277Y-11873031D01*
X2658277Y-11873031D02*
X2639229Y-11901603D01*
X2639229Y-11901603D02*
X2629706Y-11939698D01*
X2629706Y-11939698D02*
X2629706Y-12015888D01*
X2629706Y-12015888D02*
X2639229Y-12034936D01*
X2639229Y-12034936D02*
X2648753Y-12044460D01*
X2648753Y-12044460D02*
X2667801Y-12053984D01*
X2667801Y-12053984D02*
X2705896Y-12053984D01*
X2705896Y-12053984D02*
X2724944Y-12044460D01*
X2724944Y-12044460D02*
X2734468Y-12034936D01*
X2734468Y-12034936D02*
X2743991Y-12015888D01*
X2743991Y-12015888D02*
X2743991Y-11968269D01*
X2743991Y-11968269D02*
X2734468Y-11949222D01*
X2734468Y-11949222D02*
X2724944Y-11939698D01*
X2724944Y-11939698D02*
X2705896Y-11930174D01*
X2705896Y-11930174D02*
X2667801Y-11930174D01*
X2667801Y-11930174D02*
X2648753Y-11939698D01*
X2648753Y-11939698D02*
X2639229Y-11949222D01*
X2639229Y-11949222D02*
X2629706Y-11968269D01*
X2810658Y-11853984D02*
X2934467Y-11853984D01*
X2934467Y-11853984D02*
X2867801Y-11930174D01*
X2867801Y-11930174D02*
X2896372Y-11930174D01*
X2896372Y-11930174D02*
X2915420Y-11939698D01*
X2915420Y-11939698D02*
X2924944Y-11949222D01*
X2924944Y-11949222D02*
X2934467Y-11968269D01*
X2934467Y-11968269D02*
X2934467Y-12015888D01*
X2934467Y-12015888D02*
X2924944Y-12034936D01*
X2924944Y-12034936D02*
X2915420Y-12044460D01*
X2915420Y-12044460D02*
X2896372Y-12053984D01*
X2896372Y-12053984D02*
X2839229Y-12053984D01*
X2839229Y-12053984D02*
X2820182Y-12044460D01*
X2820182Y-12044460D02*
X2810658Y-12034936D01*
X3058277Y-11853984D02*
X3077325Y-11853984D01*
X3077325Y-11853984D02*
X3096372Y-11863508D01*
X3096372Y-11863508D02*
X3105896Y-11873031D01*
X3105896Y-11873031D02*
X3115420Y-11892079D01*
X3115420Y-11892079D02*
X3124944Y-11930174D01*
X3124944Y-11930174D02*
X3124944Y-11977793D01*
X3124944Y-11977793D02*
X3115420Y-12015888D01*
X3115420Y-12015888D02*
X3105896Y-12034936D01*
X3105896Y-12034936D02*
X3096372Y-12044460D01*
X3096372Y-12044460D02*
X3077325Y-12053984D01*
X3077325Y-12053984D02*
X3058277Y-12053984D01*
X3058277Y-12053984D02*
X3039229Y-12044460D01*
X3039229Y-12044460D02*
X3029706Y-12034936D01*
X3029706Y-12034936D02*
X3020182Y-12015888D01*
X3020182Y-12015888D02*
X3010658Y-11977793D01*
X3010658Y-11977793D02*
X3010658Y-11930174D01*
X3010658Y-11930174D02*
X3020182Y-11892079D01*
X3020182Y-11892079D02*
X3029706Y-11873031D01*
X3029706Y-11873031D02*
X3039229Y-11863508D01*
X3039229Y-11863508D02*
X3058277Y-11853984D01*
X3201134Y-11853984D02*
X3201134Y-11892079D01*
X3277325Y-11853984D02*
X3277325Y-11892079D01*
X3572563Y-12130174D02*
X3563039Y-12120650D01*
X3563039Y-12120650D02*
X3543991Y-12092079D01*
X3543991Y-12092079D02*
X3534468Y-12073031D01*
X3534468Y-12073031D02*
X3524944Y-12044460D01*
X3524944Y-12044460D02*
X3515420Y-11996841D01*
X3515420Y-11996841D02*
X3515420Y-11958746D01*
X3515420Y-11958746D02*
X3524944Y-11911127D01*
X3524944Y-11911127D02*
X3534468Y-11882555D01*
X3534468Y-11882555D02*
X3543991Y-11863508D01*
X3543991Y-11863508D02*
X3563039Y-11834936D01*
X3563039Y-11834936D02*
X3572563Y-11825412D01*
X3753515Y-12053984D02*
X3639229Y-12053984D01*
X3696372Y-12053984D02*
X3696372Y-11853984D01*
X3696372Y-11853984D02*
X3677325Y-11882555D01*
X3677325Y-11882555D02*
X3658277Y-11901603D01*
X3658277Y-11901603D02*
X3639229Y-11911127D01*
X3924944Y-11853984D02*
X3886848Y-11853984D01*
X3886848Y-11853984D02*
X3867801Y-11863508D01*
X3867801Y-11863508D02*
X3858277Y-11873031D01*
X3858277Y-11873031D02*
X3839229Y-11901603D01*
X3839229Y-11901603D02*
X3829706Y-11939698D01*
X3829706Y-11939698D02*
X3829706Y-12015888D01*
X3829706Y-12015888D02*
X3839229Y-12034936D01*
X3839229Y-12034936D02*
X3848753Y-12044460D01*
X3848753Y-12044460D02*
X3867801Y-12053984D01*
X3867801Y-12053984D02*
X3905896Y-12053984D01*
X3905896Y-12053984D02*
X3924944Y-12044460D01*
X3924944Y-12044460D02*
X3934468Y-12034936D01*
X3934468Y-12034936D02*
X3943991Y-12015888D01*
X3943991Y-12015888D02*
X3943991Y-11968269D01*
X3943991Y-11968269D02*
X3934468Y-11949222D01*
X3934468Y-11949222D02*
X3924944Y-11939698D01*
X3924944Y-11939698D02*
X3905896Y-11930174D01*
X3905896Y-11930174D02*
X3867801Y-11930174D01*
X3867801Y-11930174D02*
X3848753Y-11939698D01*
X3848753Y-11939698D02*
X3839229Y-11949222D01*
X3839229Y-11949222D02*
X3829706Y-11968269D01*
X4182087Y-12053984D02*
X4182087Y-11853984D01*
X4267801Y-12053984D02*
X4267801Y-11949222D01*
X4267801Y-11949222D02*
X4258277Y-11930174D01*
X4258277Y-11930174D02*
X4239230Y-11920650D01*
X4239230Y-11920650D02*
X4210658Y-11920650D01*
X4210658Y-11920650D02*
X4191610Y-11930174D01*
X4191610Y-11930174D02*
X4182087Y-11939698D01*
X4391611Y-12053984D02*
X4372563Y-12044460D01*
X4372563Y-12044460D02*
X4363039Y-12034936D01*
X4363039Y-12034936D02*
X4353515Y-12015888D01*
X4353515Y-12015888D02*
X4353515Y-11958746D01*
X4353515Y-11958746D02*
X4363039Y-11939698D01*
X4363039Y-11939698D02*
X4372563Y-11930174D01*
X4372563Y-11930174D02*
X4391611Y-11920650D01*
X4391611Y-11920650D02*
X4420182Y-11920650D01*
X4420182Y-11920650D02*
X4439230Y-11930174D01*
X4439230Y-11930174D02*
X4448753Y-11939698D01*
X4448753Y-11939698D02*
X4458277Y-11958746D01*
X4458277Y-11958746D02*
X4458277Y-12015888D01*
X4458277Y-12015888D02*
X4448753Y-12034936D01*
X4448753Y-12034936D02*
X4439230Y-12044460D01*
X4439230Y-12044460D02*
X4420182Y-12053984D01*
X4420182Y-12053984D02*
X4391611Y-12053984D01*
X4572563Y-12053984D02*
X4553515Y-12044460D01*
X4553515Y-12044460D02*
X4543992Y-12025412D01*
X4543992Y-12025412D02*
X4543992Y-11853984D01*
X4724944Y-12044460D02*
X4705896Y-12053984D01*
X4705896Y-12053984D02*
X4667801Y-12053984D01*
X4667801Y-12053984D02*
X4648753Y-12044460D01*
X4648753Y-12044460D02*
X4639230Y-12025412D01*
X4639230Y-12025412D02*
X4639230Y-11949222D01*
X4639230Y-11949222D02*
X4648753Y-11930174D01*
X4648753Y-11930174D02*
X4667801Y-11920650D01*
X4667801Y-11920650D02*
X4705896Y-11920650D01*
X4705896Y-11920650D02*
X4724944Y-11930174D01*
X4724944Y-11930174D02*
X4734468Y-11949222D01*
X4734468Y-11949222D02*
X4734468Y-11968269D01*
X4734468Y-11968269D02*
X4639230Y-11987317D01*
X4810658Y-12044460D02*
X4829706Y-12053984D01*
X4829706Y-12053984D02*
X4867801Y-12053984D01*
X4867801Y-12053984D02*
X4886849Y-12044460D01*
X4886849Y-12044460D02*
X4896373Y-12025412D01*
X4896373Y-12025412D02*
X4896373Y-12015888D01*
X4896373Y-12015888D02*
X4886849Y-11996841D01*
X4886849Y-11996841D02*
X4867801Y-11987317D01*
X4867801Y-11987317D02*
X4839230Y-11987317D01*
X4839230Y-11987317D02*
X4820182Y-11977793D01*
X4820182Y-11977793D02*
X4810658Y-11958746D01*
X4810658Y-11958746D02*
X4810658Y-11949222D01*
X4810658Y-11949222D02*
X4820182Y-11930174D01*
X4820182Y-11930174D02*
X4839230Y-11920650D01*
X4839230Y-11920650D02*
X4867801Y-11920650D01*
X4867801Y-11920650D02*
X4886849Y-11930174D01*
X4963039Y-12130174D02*
X4972563Y-12120650D01*
X4972563Y-12120650D02*
X4991611Y-12092079D01*
X4991611Y-12092079D02*
X5001134Y-12073031D01*
X5001134Y-12073031D02*
X5010658Y-12044460D01*
X5010658Y-12044460D02*
X5020182Y-11996841D01*
X5020182Y-11996841D02*
X5020182Y-11958746D01*
X5020182Y-11958746D02*
X5010658Y-11911127D01*
X5010658Y-11911127D02*
X5001134Y-11882555D01*
X5001134Y-11882555D02*
X4991611Y-11863508D01*
X4991611Y-11863508D02*
X4972563Y-11834936D01*
X4972563Y-11834936D02*
X4963039Y-11825412D01*
M02*
