%TF.GenerationSoftware,KiCad,Pcbnew,8.0.6*%
%TF.CreationDate,2024-10-20T21:42:17+02:00*%
%TF.ProjectId,macropad,6d616372-6f70-4616-942e-6b696361645f,v7.6*%
%TF.SameCoordinates,Original*%
%TF.FileFunction,Drillmap*%
%TF.FilePolarity,Positive*%
%FSLAX45Y45*%
G04 Gerber Fmt 4.5, Leading zero omitted, Abs format (unit mm)*
G04 Created by KiCad (PCBNEW 8.0.6) date 2024-10-20 21:42:17*
%MOMM*%
%LPD*%
G01*
G04 APERTURE LIST*
%ADD10C,0.050000*%
%ADD11C,0.120000*%
%ADD12C,0.200000*%
%ADD13C,0.505000*%
G04 APERTURE END LIST*
D10*
X8050000Y0D02*
X0Y0D01*
X0Y0D02*
X0Y-10000000D01*
X0Y-10000000D02*
X8050000Y-10000000D01*
X8050000Y-10000000D02*
X8050000Y0D01*
D11*
X6555000Y-9318000D02*
X6555000Y-9618000D01*
X6555000Y-9618000D02*
X6895000Y-9618000D01*
X6895000Y-9318000D02*
X6555000Y-9318000D01*
X6895000Y-9618000D02*
X6895000Y-9318000D01*
X6555000Y-4218000D02*
X6555000Y-4518000D01*
X6555000Y-4518000D02*
X6895000Y-4518000D01*
X6895000Y-4218000D02*
X6555000Y-4218000D01*
X6895000Y-4518000D02*
X6895000Y-4218000D01*
X1155000Y-4218000D02*
X1155000Y-4518000D01*
X1155000Y-4518000D02*
X1495000Y-4518000D01*
X1495000Y-4218000D02*
X1155000Y-4218000D01*
X1495000Y-4518000D02*
X1495000Y-4218000D01*
X1155000Y-9318000D02*
X1155000Y-9618000D01*
X1155000Y-9618000D02*
X1495000Y-9618000D01*
X1495000Y-9318000D02*
X1155000Y-9318000D01*
X1495000Y-9618000D02*
X1495000Y-9318000D01*
D12*
D13*
X1072500Y-3622500D02*
X1577500Y-4127500D01*
X1577500Y-3622500D02*
X1072500Y-4127500D01*
X1072500Y-5322500D02*
X1577500Y-5827500D01*
X1577500Y-5322500D02*
X1072500Y-5827500D01*
X1072500Y-7022500D02*
X1577500Y-7527500D01*
X1577500Y-7022500D02*
X1072500Y-7527500D01*
X1072500Y-8722500D02*
X1577500Y-9227500D01*
X1577500Y-8722500D02*
X1072500Y-9227500D01*
X2872500Y-3622500D02*
X3377500Y-4127500D01*
X3377500Y-3622500D02*
X2872500Y-4127500D01*
X2872500Y-5322500D02*
X3377500Y-5827500D01*
X3377500Y-5322500D02*
X2872500Y-5827500D01*
X2872500Y-7022500D02*
X3377500Y-7527500D01*
X3377500Y-7022500D02*
X2872500Y-7527500D01*
X2872500Y-8722500D02*
X3377500Y-9227500D01*
X3377500Y-8722500D02*
X2872500Y-9227500D01*
X4672500Y-3622500D02*
X5177500Y-4127500D01*
X5177500Y-3622500D02*
X4672500Y-4127500D01*
X4672500Y-5322500D02*
X5177500Y-5827500D01*
X5177500Y-5322500D02*
X4672500Y-5827500D01*
X4672500Y-7022500D02*
X5177500Y-7527500D01*
X5177500Y-7022500D02*
X4672500Y-7527500D01*
X4672500Y-8722500D02*
X5177500Y-9227500D01*
X5177500Y-8722500D02*
X4672500Y-9227500D01*
X6472500Y-3622500D02*
X6977500Y-4127500D01*
X6977500Y-3622500D02*
X6472500Y-4127500D01*
X6472500Y-5322500D02*
X6977500Y-5827500D01*
X6977500Y-5322500D02*
X6472500Y-5827500D01*
X6472500Y-7022500D02*
X6977500Y-7527500D01*
X6977500Y-7022500D02*
X6472500Y-7527500D01*
X6472500Y-8722500D02*
X6977500Y-9227500D01*
X6977500Y-8722500D02*
X6472500Y-9227500D01*
D12*
X258277Y-10313984D02*
X258277Y-10113984D01*
X258277Y-10113984D02*
X305896Y-10113984D01*
X305896Y-10113984D02*
X334467Y-10123508D01*
X334467Y-10123508D02*
X353515Y-10142555D01*
X353515Y-10142555D02*
X363039Y-10161603D01*
X363039Y-10161603D02*
X372562Y-10199698D01*
X372562Y-10199698D02*
X372562Y-10228270D01*
X372562Y-10228270D02*
X363039Y-10266365D01*
X363039Y-10266365D02*
X353515Y-10285412D01*
X353515Y-10285412D02*
X334467Y-10304460D01*
X334467Y-10304460D02*
X305896Y-10313984D01*
X305896Y-10313984D02*
X258277Y-10313984D01*
X458277Y-10313984D02*
X458277Y-10180650D01*
X458277Y-10218746D02*
X467801Y-10199698D01*
X467801Y-10199698D02*
X477324Y-10190174D01*
X477324Y-10190174D02*
X496372Y-10180650D01*
X496372Y-10180650D02*
X515420Y-10180650D01*
X582086Y-10313984D02*
X582086Y-10180650D01*
X582086Y-10113984D02*
X572563Y-10123508D01*
X572563Y-10123508D02*
X582086Y-10133031D01*
X582086Y-10133031D02*
X591610Y-10123508D01*
X591610Y-10123508D02*
X582086Y-10113984D01*
X582086Y-10113984D02*
X582086Y-10133031D01*
X705896Y-10313984D02*
X686848Y-10304460D01*
X686848Y-10304460D02*
X677324Y-10285412D01*
X677324Y-10285412D02*
X677324Y-10113984D01*
X810658Y-10313984D02*
X791610Y-10304460D01*
X791610Y-10304460D02*
X782086Y-10285412D01*
X782086Y-10285412D02*
X782086Y-10113984D01*
X1039229Y-10313984D02*
X1039229Y-10113984D01*
X1039229Y-10113984D02*
X1105896Y-10256841D01*
X1105896Y-10256841D02*
X1172563Y-10113984D01*
X1172563Y-10113984D02*
X1172563Y-10313984D01*
X1353515Y-10313984D02*
X1353515Y-10209222D01*
X1353515Y-10209222D02*
X1343991Y-10190174D01*
X1343991Y-10190174D02*
X1324944Y-10180650D01*
X1324944Y-10180650D02*
X1286848Y-10180650D01*
X1286848Y-10180650D02*
X1267801Y-10190174D01*
X1353515Y-10304460D02*
X1334467Y-10313984D01*
X1334467Y-10313984D02*
X1286848Y-10313984D01*
X1286848Y-10313984D02*
X1267801Y-10304460D01*
X1267801Y-10304460D02*
X1258277Y-10285412D01*
X1258277Y-10285412D02*
X1258277Y-10266365D01*
X1258277Y-10266365D02*
X1267801Y-10247317D01*
X1267801Y-10247317D02*
X1286848Y-10237793D01*
X1286848Y-10237793D02*
X1334467Y-10237793D01*
X1334467Y-10237793D02*
X1353515Y-10228270D01*
X1448753Y-10180650D02*
X1448753Y-10380650D01*
X1448753Y-10190174D02*
X1467801Y-10180650D01*
X1467801Y-10180650D02*
X1505896Y-10180650D01*
X1505896Y-10180650D02*
X1524943Y-10190174D01*
X1524943Y-10190174D02*
X1534467Y-10199698D01*
X1534467Y-10199698D02*
X1543991Y-10218746D01*
X1543991Y-10218746D02*
X1543991Y-10275889D01*
X1543991Y-10275889D02*
X1534467Y-10294936D01*
X1534467Y-10294936D02*
X1524943Y-10304460D01*
X1524943Y-10304460D02*
X1505896Y-10313984D01*
X1505896Y-10313984D02*
X1467801Y-10313984D01*
X1467801Y-10313984D02*
X1448753Y-10304460D01*
X1629705Y-10294936D02*
X1639229Y-10304460D01*
X1639229Y-10304460D02*
X1629705Y-10313984D01*
X1629705Y-10313984D02*
X1620182Y-10304460D01*
X1620182Y-10304460D02*
X1629705Y-10294936D01*
X1629705Y-10294936D02*
X1629705Y-10313984D01*
X1629705Y-10190174D02*
X1639229Y-10199698D01*
X1639229Y-10199698D02*
X1629705Y-10209222D01*
X1629705Y-10209222D02*
X1620182Y-10199698D01*
X1620182Y-10199698D02*
X1629705Y-10190174D01*
X1629705Y-10190174D02*
X1629705Y-10209222D01*
X-202500Y-10542500D02*
X-2500Y-10742500D01*
X-2500Y-10542500D02*
X-202500Y-10742500D01*
X353515Y-10533984D02*
X258277Y-10533984D01*
X258277Y-10533984D02*
X248753Y-10629222D01*
X248753Y-10629222D02*
X258277Y-10619698D01*
X258277Y-10619698D02*
X277324Y-10610174D01*
X277324Y-10610174D02*
X324944Y-10610174D01*
X324944Y-10610174D02*
X343991Y-10619698D01*
X343991Y-10619698D02*
X353515Y-10629222D01*
X353515Y-10629222D02*
X363039Y-10648270D01*
X363039Y-10648270D02*
X363039Y-10695889D01*
X363039Y-10695889D02*
X353515Y-10714936D01*
X353515Y-10714936D02*
X343991Y-10724460D01*
X343991Y-10724460D02*
X324944Y-10733984D01*
X324944Y-10733984D02*
X277324Y-10733984D01*
X277324Y-10733984D02*
X258277Y-10724460D01*
X258277Y-10724460D02*
X248753Y-10714936D01*
X448753Y-10714936D02*
X458277Y-10724460D01*
X458277Y-10724460D02*
X448753Y-10733984D01*
X448753Y-10733984D02*
X439229Y-10724460D01*
X439229Y-10724460D02*
X448753Y-10714936D01*
X448753Y-10714936D02*
X448753Y-10733984D01*
X582086Y-10533984D02*
X601134Y-10533984D01*
X601134Y-10533984D02*
X620182Y-10543508D01*
X620182Y-10543508D02*
X629705Y-10553031D01*
X629705Y-10553031D02*
X639229Y-10572079D01*
X639229Y-10572079D02*
X648753Y-10610174D01*
X648753Y-10610174D02*
X648753Y-10657793D01*
X648753Y-10657793D02*
X639229Y-10695889D01*
X639229Y-10695889D02*
X629705Y-10714936D01*
X629705Y-10714936D02*
X620182Y-10724460D01*
X620182Y-10724460D02*
X601134Y-10733984D01*
X601134Y-10733984D02*
X582086Y-10733984D01*
X582086Y-10733984D02*
X563039Y-10724460D01*
X563039Y-10724460D02*
X553515Y-10714936D01*
X553515Y-10714936D02*
X543991Y-10695889D01*
X543991Y-10695889D02*
X534467Y-10657793D01*
X534467Y-10657793D02*
X534467Y-10610174D01*
X534467Y-10610174D02*
X543991Y-10572079D01*
X543991Y-10572079D02*
X553515Y-10553031D01*
X553515Y-10553031D02*
X563039Y-10543508D01*
X563039Y-10543508D02*
X582086Y-10533984D01*
X829705Y-10533984D02*
X734467Y-10533984D01*
X734467Y-10533984D02*
X724943Y-10629222D01*
X724943Y-10629222D02*
X734467Y-10619698D01*
X734467Y-10619698D02*
X753515Y-10610174D01*
X753515Y-10610174D02*
X801134Y-10610174D01*
X801134Y-10610174D02*
X820182Y-10619698D01*
X820182Y-10619698D02*
X829705Y-10629222D01*
X829705Y-10629222D02*
X839229Y-10648270D01*
X839229Y-10648270D02*
X839229Y-10695889D01*
X839229Y-10695889D02*
X829705Y-10714936D01*
X829705Y-10714936D02*
X820182Y-10724460D01*
X820182Y-10724460D02*
X801134Y-10733984D01*
X801134Y-10733984D02*
X753515Y-10733984D01*
X753515Y-10733984D02*
X734467Y-10724460D01*
X734467Y-10724460D02*
X724943Y-10714936D01*
X963039Y-10533984D02*
X982086Y-10533984D01*
X982086Y-10533984D02*
X1001134Y-10543508D01*
X1001134Y-10543508D02*
X1010658Y-10553031D01*
X1010658Y-10553031D02*
X1020182Y-10572079D01*
X1020182Y-10572079D02*
X1029705Y-10610174D01*
X1029705Y-10610174D02*
X1029705Y-10657793D01*
X1029705Y-10657793D02*
X1020182Y-10695889D01*
X1020182Y-10695889D02*
X1010658Y-10714936D01*
X1010658Y-10714936D02*
X1001134Y-10724460D01*
X1001134Y-10724460D02*
X982086Y-10733984D01*
X982086Y-10733984D02*
X963039Y-10733984D01*
X963039Y-10733984D02*
X943991Y-10724460D01*
X943991Y-10724460D02*
X934467Y-10714936D01*
X934467Y-10714936D02*
X924943Y-10695889D01*
X924943Y-10695889D02*
X915420Y-10657793D01*
X915420Y-10657793D02*
X915420Y-10610174D01*
X915420Y-10610174D02*
X924943Y-10572079D01*
X924943Y-10572079D02*
X934467Y-10553031D01*
X934467Y-10553031D02*
X943991Y-10543508D01*
X943991Y-10543508D02*
X963039Y-10533984D01*
X1115420Y-10733984D02*
X1115420Y-10600650D01*
X1115420Y-10619698D02*
X1124944Y-10610174D01*
X1124944Y-10610174D02*
X1143991Y-10600650D01*
X1143991Y-10600650D02*
X1172563Y-10600650D01*
X1172563Y-10600650D02*
X1191610Y-10610174D01*
X1191610Y-10610174D02*
X1201134Y-10629222D01*
X1201134Y-10629222D02*
X1201134Y-10733984D01*
X1201134Y-10629222D02*
X1210658Y-10610174D01*
X1210658Y-10610174D02*
X1229705Y-10600650D01*
X1229705Y-10600650D02*
X1258277Y-10600650D01*
X1258277Y-10600650D02*
X1277325Y-10610174D01*
X1277325Y-10610174D02*
X1286848Y-10629222D01*
X1286848Y-10629222D02*
X1286848Y-10733984D01*
X1382086Y-10733984D02*
X1382086Y-10600650D01*
X1382086Y-10619698D02*
X1391610Y-10610174D01*
X1391610Y-10610174D02*
X1410658Y-10600650D01*
X1410658Y-10600650D02*
X1439229Y-10600650D01*
X1439229Y-10600650D02*
X1458277Y-10610174D01*
X1458277Y-10610174D02*
X1467801Y-10629222D01*
X1467801Y-10629222D02*
X1467801Y-10733984D01*
X1467801Y-10629222D02*
X1477324Y-10610174D01*
X1477324Y-10610174D02*
X1496372Y-10600650D01*
X1496372Y-10600650D02*
X1524943Y-10600650D01*
X1524943Y-10600650D02*
X1543991Y-10610174D01*
X1543991Y-10610174D02*
X1553515Y-10629222D01*
X1553515Y-10629222D02*
X1553515Y-10733984D01*
X1943991Y-10524460D02*
X1772563Y-10781603D01*
X2201134Y-10533984D02*
X2220182Y-10533984D01*
X2220182Y-10533984D02*
X2239229Y-10543508D01*
X2239229Y-10543508D02*
X2248753Y-10553031D01*
X2248753Y-10553031D02*
X2258277Y-10572079D01*
X2258277Y-10572079D02*
X2267801Y-10610174D01*
X2267801Y-10610174D02*
X2267801Y-10657793D01*
X2267801Y-10657793D02*
X2258277Y-10695889D01*
X2258277Y-10695889D02*
X2248753Y-10714936D01*
X2248753Y-10714936D02*
X2239229Y-10724460D01*
X2239229Y-10724460D02*
X2220182Y-10733984D01*
X2220182Y-10733984D02*
X2201134Y-10733984D01*
X2201134Y-10733984D02*
X2182087Y-10724460D01*
X2182087Y-10724460D02*
X2172563Y-10714936D01*
X2172563Y-10714936D02*
X2163039Y-10695889D01*
X2163039Y-10695889D02*
X2153515Y-10657793D01*
X2153515Y-10657793D02*
X2153515Y-10610174D01*
X2153515Y-10610174D02*
X2163039Y-10572079D01*
X2163039Y-10572079D02*
X2172563Y-10553031D01*
X2172563Y-10553031D02*
X2182087Y-10543508D01*
X2182087Y-10543508D02*
X2201134Y-10533984D01*
X2353515Y-10714936D02*
X2363039Y-10724460D01*
X2363039Y-10724460D02*
X2353515Y-10733984D01*
X2353515Y-10733984D02*
X2343991Y-10724460D01*
X2343991Y-10724460D02*
X2353515Y-10714936D01*
X2353515Y-10714936D02*
X2353515Y-10733984D01*
X2553515Y-10733984D02*
X2439229Y-10733984D01*
X2496372Y-10733984D02*
X2496372Y-10533984D01*
X2496372Y-10533984D02*
X2477325Y-10562555D01*
X2477325Y-10562555D02*
X2458277Y-10581603D01*
X2458277Y-10581603D02*
X2439229Y-10591127D01*
X2648753Y-10733984D02*
X2686848Y-10733984D01*
X2686848Y-10733984D02*
X2705896Y-10724460D01*
X2705896Y-10724460D02*
X2715420Y-10714936D01*
X2715420Y-10714936D02*
X2734468Y-10686365D01*
X2734468Y-10686365D02*
X2743991Y-10648270D01*
X2743991Y-10648270D02*
X2743991Y-10572079D01*
X2743991Y-10572079D02*
X2734468Y-10553031D01*
X2734468Y-10553031D02*
X2724944Y-10543508D01*
X2724944Y-10543508D02*
X2705896Y-10533984D01*
X2705896Y-10533984D02*
X2667801Y-10533984D01*
X2667801Y-10533984D02*
X2648753Y-10543508D01*
X2648753Y-10543508D02*
X2639229Y-10553031D01*
X2639229Y-10553031D02*
X2629706Y-10572079D01*
X2629706Y-10572079D02*
X2629706Y-10619698D01*
X2629706Y-10619698D02*
X2639229Y-10638746D01*
X2639229Y-10638746D02*
X2648753Y-10648270D01*
X2648753Y-10648270D02*
X2667801Y-10657793D01*
X2667801Y-10657793D02*
X2705896Y-10657793D01*
X2705896Y-10657793D02*
X2724944Y-10648270D01*
X2724944Y-10648270D02*
X2734468Y-10638746D01*
X2734468Y-10638746D02*
X2743991Y-10619698D01*
X2858277Y-10619698D02*
X2839229Y-10610174D01*
X2839229Y-10610174D02*
X2829706Y-10600650D01*
X2829706Y-10600650D02*
X2820182Y-10581603D01*
X2820182Y-10581603D02*
X2820182Y-10572079D01*
X2820182Y-10572079D02*
X2829706Y-10553031D01*
X2829706Y-10553031D02*
X2839229Y-10543508D01*
X2839229Y-10543508D02*
X2858277Y-10533984D01*
X2858277Y-10533984D02*
X2896372Y-10533984D01*
X2896372Y-10533984D02*
X2915420Y-10543508D01*
X2915420Y-10543508D02*
X2924944Y-10553031D01*
X2924944Y-10553031D02*
X2934467Y-10572079D01*
X2934467Y-10572079D02*
X2934467Y-10581603D01*
X2934467Y-10581603D02*
X2924944Y-10600650D01*
X2924944Y-10600650D02*
X2915420Y-10610174D01*
X2915420Y-10610174D02*
X2896372Y-10619698D01*
X2896372Y-10619698D02*
X2858277Y-10619698D01*
X2858277Y-10619698D02*
X2839229Y-10629222D01*
X2839229Y-10629222D02*
X2829706Y-10638746D01*
X2829706Y-10638746D02*
X2820182Y-10657793D01*
X2820182Y-10657793D02*
X2820182Y-10695889D01*
X2820182Y-10695889D02*
X2829706Y-10714936D01*
X2829706Y-10714936D02*
X2839229Y-10724460D01*
X2839229Y-10724460D02*
X2858277Y-10733984D01*
X2858277Y-10733984D02*
X2896372Y-10733984D01*
X2896372Y-10733984D02*
X2915420Y-10724460D01*
X2915420Y-10724460D02*
X2924944Y-10714936D01*
X2924944Y-10714936D02*
X2934467Y-10695889D01*
X2934467Y-10695889D02*
X2934467Y-10657793D01*
X2934467Y-10657793D02*
X2924944Y-10638746D01*
X2924944Y-10638746D02*
X2915420Y-10629222D01*
X2915420Y-10629222D02*
X2896372Y-10619698D01*
X3048753Y-10619698D02*
X3029706Y-10610174D01*
X3029706Y-10610174D02*
X3020182Y-10600650D01*
X3020182Y-10600650D02*
X3010658Y-10581603D01*
X3010658Y-10581603D02*
X3010658Y-10572079D01*
X3010658Y-10572079D02*
X3020182Y-10553031D01*
X3020182Y-10553031D02*
X3029706Y-10543508D01*
X3029706Y-10543508D02*
X3048753Y-10533984D01*
X3048753Y-10533984D02*
X3086848Y-10533984D01*
X3086848Y-10533984D02*
X3105896Y-10543508D01*
X3105896Y-10543508D02*
X3115420Y-10553031D01*
X3115420Y-10553031D02*
X3124944Y-10572079D01*
X3124944Y-10572079D02*
X3124944Y-10581603D01*
X3124944Y-10581603D02*
X3115420Y-10600650D01*
X3115420Y-10600650D02*
X3105896Y-10610174D01*
X3105896Y-10610174D02*
X3086848Y-10619698D01*
X3086848Y-10619698D02*
X3048753Y-10619698D01*
X3048753Y-10619698D02*
X3029706Y-10629222D01*
X3029706Y-10629222D02*
X3020182Y-10638746D01*
X3020182Y-10638746D02*
X3010658Y-10657793D01*
X3010658Y-10657793D02*
X3010658Y-10695889D01*
X3010658Y-10695889D02*
X3020182Y-10714936D01*
X3020182Y-10714936D02*
X3029706Y-10724460D01*
X3029706Y-10724460D02*
X3048753Y-10733984D01*
X3048753Y-10733984D02*
X3086848Y-10733984D01*
X3086848Y-10733984D02*
X3105896Y-10724460D01*
X3105896Y-10724460D02*
X3115420Y-10714936D01*
X3115420Y-10714936D02*
X3124944Y-10695889D01*
X3124944Y-10695889D02*
X3124944Y-10657793D01*
X3124944Y-10657793D02*
X3115420Y-10638746D01*
X3115420Y-10638746D02*
X3105896Y-10629222D01*
X3105896Y-10629222D02*
X3086848Y-10619698D01*
X3201134Y-10533984D02*
X3201134Y-10572079D01*
X3277325Y-10533984D02*
X3277325Y-10572079D01*
X3572563Y-10810174D02*
X3563039Y-10800650D01*
X3563039Y-10800650D02*
X3543991Y-10772079D01*
X3543991Y-10772079D02*
X3534468Y-10753031D01*
X3534468Y-10753031D02*
X3524944Y-10724460D01*
X3524944Y-10724460D02*
X3515420Y-10676841D01*
X3515420Y-10676841D02*
X3515420Y-10638746D01*
X3515420Y-10638746D02*
X3524944Y-10591127D01*
X3524944Y-10591127D02*
X3534468Y-10562555D01*
X3534468Y-10562555D02*
X3543991Y-10543508D01*
X3543991Y-10543508D02*
X3563039Y-10514936D01*
X3563039Y-10514936D02*
X3572563Y-10505412D01*
X3753515Y-10733984D02*
X3639229Y-10733984D01*
X3696372Y-10733984D02*
X3696372Y-10533984D01*
X3696372Y-10533984D02*
X3677325Y-10562555D01*
X3677325Y-10562555D02*
X3658277Y-10581603D01*
X3658277Y-10581603D02*
X3639229Y-10591127D01*
X3924944Y-10533984D02*
X3886848Y-10533984D01*
X3886848Y-10533984D02*
X3867801Y-10543508D01*
X3867801Y-10543508D02*
X3858277Y-10553031D01*
X3858277Y-10553031D02*
X3839229Y-10581603D01*
X3839229Y-10581603D02*
X3829706Y-10619698D01*
X3829706Y-10619698D02*
X3829706Y-10695889D01*
X3829706Y-10695889D02*
X3839229Y-10714936D01*
X3839229Y-10714936D02*
X3848753Y-10724460D01*
X3848753Y-10724460D02*
X3867801Y-10733984D01*
X3867801Y-10733984D02*
X3905896Y-10733984D01*
X3905896Y-10733984D02*
X3924944Y-10724460D01*
X3924944Y-10724460D02*
X3934468Y-10714936D01*
X3934468Y-10714936D02*
X3943991Y-10695889D01*
X3943991Y-10695889D02*
X3943991Y-10648270D01*
X3943991Y-10648270D02*
X3934468Y-10629222D01*
X3934468Y-10629222D02*
X3924944Y-10619698D01*
X3924944Y-10619698D02*
X3905896Y-10610174D01*
X3905896Y-10610174D02*
X3867801Y-10610174D01*
X3867801Y-10610174D02*
X3848753Y-10619698D01*
X3848753Y-10619698D02*
X3839229Y-10629222D01*
X3839229Y-10629222D02*
X3829706Y-10648270D01*
X4182087Y-10733984D02*
X4182087Y-10533984D01*
X4267801Y-10733984D02*
X4267801Y-10629222D01*
X4267801Y-10629222D02*
X4258277Y-10610174D01*
X4258277Y-10610174D02*
X4239230Y-10600650D01*
X4239230Y-10600650D02*
X4210658Y-10600650D01*
X4210658Y-10600650D02*
X4191610Y-10610174D01*
X4191610Y-10610174D02*
X4182087Y-10619698D01*
X4391611Y-10733984D02*
X4372563Y-10724460D01*
X4372563Y-10724460D02*
X4363039Y-10714936D01*
X4363039Y-10714936D02*
X4353515Y-10695889D01*
X4353515Y-10695889D02*
X4353515Y-10638746D01*
X4353515Y-10638746D02*
X4363039Y-10619698D01*
X4363039Y-10619698D02*
X4372563Y-10610174D01*
X4372563Y-10610174D02*
X4391611Y-10600650D01*
X4391611Y-10600650D02*
X4420182Y-10600650D01*
X4420182Y-10600650D02*
X4439230Y-10610174D01*
X4439230Y-10610174D02*
X4448753Y-10619698D01*
X4448753Y-10619698D02*
X4458277Y-10638746D01*
X4458277Y-10638746D02*
X4458277Y-10695889D01*
X4458277Y-10695889D02*
X4448753Y-10714936D01*
X4448753Y-10714936D02*
X4439230Y-10724460D01*
X4439230Y-10724460D02*
X4420182Y-10733984D01*
X4420182Y-10733984D02*
X4391611Y-10733984D01*
X4572563Y-10733984D02*
X4553515Y-10724460D01*
X4553515Y-10724460D02*
X4543992Y-10705412D01*
X4543992Y-10705412D02*
X4543992Y-10533984D01*
X4724944Y-10724460D02*
X4705896Y-10733984D01*
X4705896Y-10733984D02*
X4667801Y-10733984D01*
X4667801Y-10733984D02*
X4648753Y-10724460D01*
X4648753Y-10724460D02*
X4639230Y-10705412D01*
X4639230Y-10705412D02*
X4639230Y-10629222D01*
X4639230Y-10629222D02*
X4648753Y-10610174D01*
X4648753Y-10610174D02*
X4667801Y-10600650D01*
X4667801Y-10600650D02*
X4705896Y-10600650D01*
X4705896Y-10600650D02*
X4724944Y-10610174D01*
X4724944Y-10610174D02*
X4734468Y-10629222D01*
X4734468Y-10629222D02*
X4734468Y-10648270D01*
X4734468Y-10648270D02*
X4639230Y-10667317D01*
X4810658Y-10724460D02*
X4829706Y-10733984D01*
X4829706Y-10733984D02*
X4867801Y-10733984D01*
X4867801Y-10733984D02*
X4886849Y-10724460D01*
X4886849Y-10724460D02*
X4896373Y-10705412D01*
X4896373Y-10705412D02*
X4896373Y-10695889D01*
X4896373Y-10695889D02*
X4886849Y-10676841D01*
X4886849Y-10676841D02*
X4867801Y-10667317D01*
X4867801Y-10667317D02*
X4839230Y-10667317D01*
X4839230Y-10667317D02*
X4820182Y-10657793D01*
X4820182Y-10657793D02*
X4810658Y-10638746D01*
X4810658Y-10638746D02*
X4810658Y-10629222D01*
X4810658Y-10629222D02*
X4820182Y-10610174D01*
X4820182Y-10610174D02*
X4839230Y-10600650D01*
X4839230Y-10600650D02*
X4867801Y-10600650D01*
X4867801Y-10600650D02*
X4886849Y-10610174D01*
X4963039Y-10810174D02*
X4972563Y-10800650D01*
X4972563Y-10800650D02*
X4991611Y-10772079D01*
X4991611Y-10772079D02*
X5001134Y-10753031D01*
X5001134Y-10753031D02*
X5010658Y-10724460D01*
X5010658Y-10724460D02*
X5020182Y-10676841D01*
X5020182Y-10676841D02*
X5020182Y-10638746D01*
X5020182Y-10638746D02*
X5010658Y-10591127D01*
X5010658Y-10591127D02*
X5001134Y-10562555D01*
X5001134Y-10562555D02*
X4991611Y-10543508D01*
X4991611Y-10543508D02*
X4972563Y-10514936D01*
X4972563Y-10514936D02*
X4963039Y-10505412D01*
X5324944Y-10810174D02*
X5315420Y-10800650D01*
X5315420Y-10800650D02*
X5296373Y-10772079D01*
X5296373Y-10772079D02*
X5286849Y-10753031D01*
X5286849Y-10753031D02*
X5277325Y-10724460D01*
X5277325Y-10724460D02*
X5267801Y-10676841D01*
X5267801Y-10676841D02*
X5267801Y-10638746D01*
X5267801Y-10638746D02*
X5277325Y-10591127D01*
X5277325Y-10591127D02*
X5286849Y-10562555D01*
X5286849Y-10562555D02*
X5296373Y-10543508D01*
X5296373Y-10543508D02*
X5315420Y-10514936D01*
X5315420Y-10514936D02*
X5324944Y-10505412D01*
X5401134Y-10600650D02*
X5401134Y-10733984D01*
X5401134Y-10619698D02*
X5410658Y-10610174D01*
X5410658Y-10610174D02*
X5429706Y-10600650D01*
X5429706Y-10600650D02*
X5458277Y-10600650D01*
X5458277Y-10600650D02*
X5477325Y-10610174D01*
X5477325Y-10610174D02*
X5486849Y-10629222D01*
X5486849Y-10629222D02*
X5486849Y-10733984D01*
X5610658Y-10733984D02*
X5591611Y-10724460D01*
X5591611Y-10724460D02*
X5582087Y-10714936D01*
X5582087Y-10714936D02*
X5572563Y-10695889D01*
X5572563Y-10695889D02*
X5572563Y-10638746D01*
X5572563Y-10638746D02*
X5582087Y-10619698D01*
X5582087Y-10619698D02*
X5591611Y-10610174D01*
X5591611Y-10610174D02*
X5610658Y-10600650D01*
X5610658Y-10600650D02*
X5639230Y-10600650D01*
X5639230Y-10600650D02*
X5658277Y-10610174D01*
X5658277Y-10610174D02*
X5667801Y-10619698D01*
X5667801Y-10619698D02*
X5677325Y-10638746D01*
X5677325Y-10638746D02*
X5677325Y-10695889D01*
X5677325Y-10695889D02*
X5667801Y-10714936D01*
X5667801Y-10714936D02*
X5658277Y-10724460D01*
X5658277Y-10724460D02*
X5639230Y-10733984D01*
X5639230Y-10733984D02*
X5610658Y-10733984D01*
X5734468Y-10600650D02*
X5810658Y-10600650D01*
X5763039Y-10533984D02*
X5763039Y-10705412D01*
X5763039Y-10705412D02*
X5772563Y-10724460D01*
X5772563Y-10724460D02*
X5791611Y-10733984D01*
X5791611Y-10733984D02*
X5810658Y-10733984D01*
X6029706Y-10600650D02*
X6029706Y-10800650D01*
X6029706Y-10610174D02*
X6048753Y-10600650D01*
X6048753Y-10600650D02*
X6086849Y-10600650D01*
X6086849Y-10600650D02*
X6105896Y-10610174D01*
X6105896Y-10610174D02*
X6115420Y-10619698D01*
X6115420Y-10619698D02*
X6124944Y-10638746D01*
X6124944Y-10638746D02*
X6124944Y-10695889D01*
X6124944Y-10695889D02*
X6115420Y-10714936D01*
X6115420Y-10714936D02*
X6105896Y-10724460D01*
X6105896Y-10724460D02*
X6086849Y-10733984D01*
X6086849Y-10733984D02*
X6048753Y-10733984D01*
X6048753Y-10733984D02*
X6029706Y-10724460D01*
X6239230Y-10733984D02*
X6220182Y-10724460D01*
X6220182Y-10724460D02*
X6210658Y-10705412D01*
X6210658Y-10705412D02*
X6210658Y-10533984D01*
X6401134Y-10733984D02*
X6401134Y-10629222D01*
X6401134Y-10629222D02*
X6391611Y-10610174D01*
X6391611Y-10610174D02*
X6372563Y-10600650D01*
X6372563Y-10600650D02*
X6334468Y-10600650D01*
X6334468Y-10600650D02*
X6315420Y-10610174D01*
X6401134Y-10724460D02*
X6382087Y-10733984D01*
X6382087Y-10733984D02*
X6334468Y-10733984D01*
X6334468Y-10733984D02*
X6315420Y-10724460D01*
X6315420Y-10724460D02*
X6305896Y-10705412D01*
X6305896Y-10705412D02*
X6305896Y-10686365D01*
X6305896Y-10686365D02*
X6315420Y-10667317D01*
X6315420Y-10667317D02*
X6334468Y-10657793D01*
X6334468Y-10657793D02*
X6382087Y-10657793D01*
X6382087Y-10657793D02*
X6401134Y-10648270D01*
X6467801Y-10600650D02*
X6543992Y-10600650D01*
X6496373Y-10533984D02*
X6496373Y-10705412D01*
X6496373Y-10705412D02*
X6505896Y-10724460D01*
X6505896Y-10724460D02*
X6524944Y-10733984D01*
X6524944Y-10733984D02*
X6543992Y-10733984D01*
X6686849Y-10724460D02*
X6667801Y-10733984D01*
X6667801Y-10733984D02*
X6629706Y-10733984D01*
X6629706Y-10733984D02*
X6610658Y-10724460D01*
X6610658Y-10724460D02*
X6601134Y-10705412D01*
X6601134Y-10705412D02*
X6601134Y-10629222D01*
X6601134Y-10629222D02*
X6610658Y-10610174D01*
X6610658Y-10610174D02*
X6629706Y-10600650D01*
X6629706Y-10600650D02*
X6667801Y-10600650D01*
X6667801Y-10600650D02*
X6686849Y-10610174D01*
X6686849Y-10610174D02*
X6696373Y-10629222D01*
X6696373Y-10629222D02*
X6696373Y-10648270D01*
X6696373Y-10648270D02*
X6601134Y-10667317D01*
X6867801Y-10733984D02*
X6867801Y-10533984D01*
X6867801Y-10724460D02*
X6848754Y-10733984D01*
X6848754Y-10733984D02*
X6810658Y-10733984D01*
X6810658Y-10733984D02*
X6791611Y-10724460D01*
X6791611Y-10724460D02*
X6782087Y-10714936D01*
X6782087Y-10714936D02*
X6772563Y-10695889D01*
X6772563Y-10695889D02*
X6772563Y-10638746D01*
X6772563Y-10638746D02*
X6782087Y-10619698D01*
X6782087Y-10619698D02*
X6791611Y-10610174D01*
X6791611Y-10610174D02*
X6810658Y-10600650D01*
X6810658Y-10600650D02*
X6848754Y-10600650D01*
X6848754Y-10600650D02*
X6867801Y-10610174D01*
X6943992Y-10810174D02*
X6953515Y-10800650D01*
X6953515Y-10800650D02*
X6972563Y-10772079D01*
X6972563Y-10772079D02*
X6982087Y-10753031D01*
X6982087Y-10753031D02*
X6991611Y-10724460D01*
X6991611Y-10724460D02*
X7001134Y-10676841D01*
X7001134Y-10676841D02*
X7001134Y-10638746D01*
X7001134Y-10638746D02*
X6991611Y-10591127D01*
X6991611Y-10591127D02*
X6982087Y-10562555D01*
X6982087Y-10562555D02*
X6972563Y-10543508D01*
X6972563Y-10543508D02*
X6953515Y-10514936D01*
X6953515Y-10514936D02*
X6943992Y-10505412D01*
M02*
