G04 #@! TF.GenerationSoftware,KiCad,Pcbnew,8.0.6*
G04 #@! TF.CreationDate,2024-10-20T21:42:17+02:00*
G04 #@! TF.ProjectId,macropad,6d616372-6f70-4616-942e-6b696361645f,v7.6*
G04 #@! TF.SameCoordinates,Original*
G04 #@! TF.FileFunction,OtherDrawing,Comment*
%FSLAX46Y46*%
G04 Gerber Fmt 4.6, Leading zero omitted, Abs format (unit mm)*
G04 Created by KiCad (PCBNEW 8.0.6) date 2024-10-20 21:42:17*
%MOMM*%
%LPD*%
G01*
G04 APERTURE LIST*
%ADD10C,0.100000*%
G04 APERTURE END LIST*
D10*
G04 #@! TO.C,SW4*
X4250000Y-47250000D02*
X4250000Y-64250000D01*
X4250000Y-64250000D02*
X22250000Y-64250000D01*
X22250000Y-47250000D02*
X4250000Y-47250000D01*
X22250000Y-64250000D02*
X22250000Y-47250000D01*
G04 #@! TO.C,SW14*
X40250000Y-81250000D02*
X40250000Y-98250000D01*
X40250000Y-98250000D02*
X58250000Y-98250000D01*
X58250000Y-81250000D02*
X40250000Y-81250000D01*
X58250000Y-98250000D02*
X58250000Y-81250000D01*
G04 #@! TO.C,SW1*
X4250000Y-30250000D02*
X4250000Y-47250000D01*
X4250000Y-47250000D02*
X22250000Y-47250000D01*
X22250000Y-30250000D02*
X4250000Y-30250000D01*
X22250000Y-47250000D02*
X22250000Y-30250000D01*
G04 #@! TO.C,SW8*
X22250000Y-64250000D02*
X22250000Y-81250000D01*
X22250000Y-81250000D02*
X40250000Y-81250000D01*
X40250000Y-64250000D02*
X22250000Y-64250000D01*
X40250000Y-81250000D02*
X40250000Y-64250000D01*
G04 #@! TO.C,SW9*
X40250000Y-64250000D02*
X40250000Y-81250000D01*
X40250000Y-81250000D02*
X58250000Y-81250000D01*
X58250000Y-64250000D02*
X40250000Y-64250000D01*
X58250000Y-81250000D02*
X58250000Y-64250000D01*
G04 #@! TO.C,SW12*
X58250000Y-64250000D02*
X58250000Y-81250000D01*
X58250000Y-81250000D02*
X76250000Y-81250000D01*
X76250000Y-64250000D02*
X58250000Y-64250000D01*
X76250000Y-81250000D02*
X76250000Y-64250000D01*
G04 #@! TO.C,SW6*
X40250000Y-47250000D02*
X40250000Y-64250000D01*
X40250000Y-64250000D02*
X58250000Y-64250000D01*
X58250000Y-47250000D02*
X40250000Y-47250000D01*
X58250000Y-64250000D02*
X58250000Y-47250000D01*
G04 #@! TO.C,SW10*
X58250000Y-30250000D02*
X58250000Y-47250000D01*
X58250000Y-47250000D02*
X76250000Y-47250000D01*
X76250000Y-30250000D02*
X58250000Y-30250000D01*
X76250000Y-47250000D02*
X76250000Y-30250000D01*
G04 #@! TO.C,SW7*
X4250000Y-64250000D02*
X4250000Y-81250000D01*
X4250000Y-81250000D02*
X22250000Y-81250000D01*
X22250000Y-64250000D02*
X4250000Y-64250000D01*
X22250000Y-81250000D02*
X22250000Y-64250000D01*
G04 #@! TO.C,SW2*
X22250000Y-30250000D02*
X22250000Y-47250000D01*
X22250000Y-47250000D02*
X40250000Y-47250000D01*
X40250000Y-30250000D02*
X22250000Y-30250000D01*
X40250000Y-47250000D02*
X40250000Y-30250000D01*
G04 #@! TO.C,SW11*
X58250000Y-47250000D02*
X58250000Y-64250000D01*
X58250000Y-64250000D02*
X76250000Y-64250000D01*
X76250000Y-47250000D02*
X58250000Y-47250000D01*
X76250000Y-64250000D02*
X76250000Y-47250000D01*
G04 #@! TO.C,SW3*
X40250000Y-30250000D02*
X40250000Y-47250000D01*
X40250000Y-47250000D02*
X58250000Y-47250000D01*
X58250000Y-30250000D02*
X40250000Y-30250000D01*
X58250000Y-47250000D02*
X58250000Y-30250000D01*
G04 #@! TO.C,SW16*
X4250000Y-81250000D02*
X4250000Y-98250000D01*
X4250000Y-98250000D02*
X22250000Y-98250000D01*
X22250000Y-81250000D02*
X4250000Y-81250000D01*
X22250000Y-98250000D02*
X22250000Y-81250000D01*
G04 #@! TO.C,SW5*
X22250000Y-47250000D02*
X22250000Y-64250000D01*
X22250000Y-64250000D02*
X40250000Y-64250000D01*
X40250000Y-47250000D02*
X22250000Y-47250000D01*
X40250000Y-64250000D02*
X40250000Y-47250000D01*
G04 #@! TO.C,SW13*
X58250000Y-81250000D02*
X58250000Y-98250000D01*
X58250000Y-98250000D02*
X76250000Y-98250000D01*
X76250000Y-81250000D02*
X58250000Y-81250000D01*
X76250000Y-98250000D02*
X76250000Y-81250000D01*
G04 #@! TO.C,SW15*
X22250000Y-81250000D02*
X22250000Y-98250000D01*
X22250000Y-98250000D02*
X40250000Y-98250000D01*
X40250000Y-81250000D02*
X22250000Y-81250000D01*
X40250000Y-98250000D02*
X40250000Y-81250000D01*
G04 #@! TD*
M02*
