G04 #@! TF.GenerationSoftware,KiCad,Pcbnew,8.0.6*
G04 #@! TF.CreationDate,2024-10-20T21:42:17+02:00*
G04 #@! TF.ProjectId,macropad,6d616372-6f70-4616-942e-6b696361645f,v7.6*
G04 #@! TF.SameCoordinates,Original*
G04 #@! TF.FileFunction,Profile,NP*
%FSLAX46Y46*%
G04 Gerber Fmt 4.6, Leading zero omitted, Abs format (unit mm)*
G04 Created by KiCad (PCBNEW 8.0.6) date 2024-10-20 21:42:17*
%MOMM*%
%LPD*%
G01*
G04 APERTURE LIST*
G04 #@! TA.AperFunction,Profile*
%ADD10C,0.050000*%
G04 #@! TD*
G04 #@! TA.AperFunction,Profile*
%ADD11C,0.120000*%
G04 #@! TD*
G04 APERTURE END LIST*
D10*
X80500000Y0D02*
X0Y0D01*
X0Y0D02*
X0Y-100000000D01*
X0Y-100000000D02*
X80500000Y-100000000D01*
X80500000Y-100000000D02*
X80500000Y0D01*
D11*
G04 #@! TO.C,D22*
X65550000Y-93180000D02*
X65550000Y-96180000D01*
X65550000Y-96180000D02*
X68950000Y-96180000D01*
X68950000Y-93180000D02*
X65550000Y-93180000D01*
X68950000Y-96180000D02*
X68950000Y-93180000D01*
G04 #@! TO.C,D17*
X65550000Y-42180000D02*
X65550000Y-45180000D01*
X65550000Y-45180000D02*
X68950000Y-45180000D01*
X68950000Y-42180000D02*
X65550000Y-42180000D01*
X68950000Y-45180000D02*
X68950000Y-42180000D01*
G04 #@! TO.C,D18*
X11550000Y-42180000D02*
X11550000Y-45180000D01*
X11550000Y-45180000D02*
X14950000Y-45180000D01*
X14950000Y-42180000D02*
X11550000Y-42180000D01*
X14950000Y-45180000D02*
X14950000Y-42180000D01*
G04 #@! TO.C,D21*
X11550000Y-93180000D02*
X11550000Y-96180000D01*
X11550000Y-96180000D02*
X14950000Y-96180000D01*
X14950000Y-93180000D02*
X11550000Y-93180000D01*
X14950000Y-96180000D02*
X14950000Y-93180000D01*
G04 #@! TD*
M02*
