G04 #@! TF.GenerationSoftware,KiCad,Pcbnew,8.0.6*
G04 #@! TF.CreationDate,2024-10-20T21:42:17+02:00*
G04 #@! TF.ProjectId,macropad,6d616372-6f70-4616-942e-6b696361645f,v7.6*
G04 #@! TF.SameCoordinates,Original*
G04 #@! TF.FileFunction,Other,Comment*
%FSLAX46Y46*%
G04 Gerber Fmt 4.6, Leading zero omitted, Abs format (unit mm)*
G04 Created by KiCad (PCBNEW 8.0.6) date 2024-10-20 21:42:17*
%MOMM*%
%LPD*%
G01*
G04 APERTURE LIST*
%ADD10C,0.150000*%
%ADD11C,0.100000*%
%ADD12C,0.120000*%
G04 APERTURE END LIST*
D10*
X35821429Y-102983390D02*
X35726191Y-102935771D01*
X35726191Y-102935771D02*
X35678572Y-102888152D01*
X35678572Y-102888152D02*
X35630953Y-102792914D01*
X35630953Y-102792914D02*
X35630953Y-102745295D01*
X35630953Y-102745295D02*
X35678572Y-102650057D01*
X35678572Y-102650057D02*
X35726191Y-102602438D01*
X35726191Y-102602438D02*
X35821429Y-102554819D01*
X35821429Y-102554819D02*
X36011905Y-102554819D01*
X36011905Y-102554819D02*
X36107143Y-102602438D01*
X36107143Y-102602438D02*
X36154762Y-102650057D01*
X36154762Y-102650057D02*
X36202381Y-102745295D01*
X36202381Y-102745295D02*
X36202381Y-102792914D01*
X36202381Y-102792914D02*
X36154762Y-102888152D01*
X36154762Y-102888152D02*
X36107143Y-102935771D01*
X36107143Y-102935771D02*
X36011905Y-102983390D01*
X36011905Y-102983390D02*
X35821429Y-102983390D01*
X35821429Y-102983390D02*
X35726191Y-103031009D01*
X35726191Y-103031009D02*
X35678572Y-103078628D01*
X35678572Y-103078628D02*
X35630953Y-103173866D01*
X35630953Y-103173866D02*
X35630953Y-103364342D01*
X35630953Y-103364342D02*
X35678572Y-103459580D01*
X35678572Y-103459580D02*
X35726191Y-103507200D01*
X35726191Y-103507200D02*
X35821429Y-103554819D01*
X35821429Y-103554819D02*
X36011905Y-103554819D01*
X36011905Y-103554819D02*
X36107143Y-103507200D01*
X36107143Y-103507200D02*
X36154762Y-103459580D01*
X36154762Y-103459580D02*
X36202381Y-103364342D01*
X36202381Y-103364342D02*
X36202381Y-103173866D01*
X36202381Y-103173866D02*
X36154762Y-103078628D01*
X36154762Y-103078628D02*
X36107143Y-103031009D01*
X36107143Y-103031009D02*
X36011905Y-102983390D01*
X36821429Y-102554819D02*
X36916667Y-102554819D01*
X36916667Y-102554819D02*
X37011905Y-102602438D01*
X37011905Y-102602438D02*
X37059524Y-102650057D01*
X37059524Y-102650057D02*
X37107143Y-102745295D01*
X37107143Y-102745295D02*
X37154762Y-102935771D01*
X37154762Y-102935771D02*
X37154762Y-103173866D01*
X37154762Y-103173866D02*
X37107143Y-103364342D01*
X37107143Y-103364342D02*
X37059524Y-103459580D01*
X37059524Y-103459580D02*
X37011905Y-103507200D01*
X37011905Y-103507200D02*
X36916667Y-103554819D01*
X36916667Y-103554819D02*
X36821429Y-103554819D01*
X36821429Y-103554819D02*
X36726191Y-103507200D01*
X36726191Y-103507200D02*
X36678572Y-103459580D01*
X36678572Y-103459580D02*
X36630953Y-103364342D01*
X36630953Y-103364342D02*
X36583334Y-103173866D01*
X36583334Y-103173866D02*
X36583334Y-102935771D01*
X36583334Y-102935771D02*
X36630953Y-102745295D01*
X36630953Y-102745295D02*
X36678572Y-102650057D01*
X36678572Y-102650057D02*
X36726191Y-102602438D01*
X36726191Y-102602438D02*
X36821429Y-102554819D01*
X37583334Y-103459580D02*
X37630953Y-103507200D01*
X37630953Y-103507200D02*
X37583334Y-103554819D01*
X37583334Y-103554819D02*
X37535715Y-103507200D01*
X37535715Y-103507200D02*
X37583334Y-103459580D01*
X37583334Y-103459580D02*
X37583334Y-103554819D01*
X38535714Y-102554819D02*
X38059524Y-102554819D01*
X38059524Y-102554819D02*
X38011905Y-103031009D01*
X38011905Y-103031009D02*
X38059524Y-102983390D01*
X38059524Y-102983390D02*
X38154762Y-102935771D01*
X38154762Y-102935771D02*
X38392857Y-102935771D01*
X38392857Y-102935771D02*
X38488095Y-102983390D01*
X38488095Y-102983390D02*
X38535714Y-103031009D01*
X38535714Y-103031009D02*
X38583333Y-103126247D01*
X38583333Y-103126247D02*
X38583333Y-103364342D01*
X38583333Y-103364342D02*
X38535714Y-103459580D01*
X38535714Y-103459580D02*
X38488095Y-103507200D01*
X38488095Y-103507200D02*
X38392857Y-103554819D01*
X38392857Y-103554819D02*
X38154762Y-103554819D01*
X38154762Y-103554819D02*
X38059524Y-103507200D01*
X38059524Y-103507200D02*
X38011905Y-103459580D01*
X39202381Y-102554819D02*
X39297619Y-102554819D01*
X39297619Y-102554819D02*
X39392857Y-102602438D01*
X39392857Y-102602438D02*
X39440476Y-102650057D01*
X39440476Y-102650057D02*
X39488095Y-102745295D01*
X39488095Y-102745295D02*
X39535714Y-102935771D01*
X39535714Y-102935771D02*
X39535714Y-103173866D01*
X39535714Y-103173866D02*
X39488095Y-103364342D01*
X39488095Y-103364342D02*
X39440476Y-103459580D01*
X39440476Y-103459580D02*
X39392857Y-103507200D01*
X39392857Y-103507200D02*
X39297619Y-103554819D01*
X39297619Y-103554819D02*
X39202381Y-103554819D01*
X39202381Y-103554819D02*
X39107143Y-103507200D01*
X39107143Y-103507200D02*
X39059524Y-103459580D01*
X39059524Y-103459580D02*
X39011905Y-103364342D01*
X39011905Y-103364342D02*
X38964286Y-103173866D01*
X38964286Y-103173866D02*
X38964286Y-102935771D01*
X38964286Y-102935771D02*
X39011905Y-102745295D01*
X39011905Y-102745295D02*
X39059524Y-102650057D01*
X39059524Y-102650057D02*
X39107143Y-102602438D01*
X39107143Y-102602438D02*
X39202381Y-102554819D01*
X40154762Y-102554819D02*
X40250000Y-102554819D01*
X40250000Y-102554819D02*
X40345238Y-102602438D01*
X40345238Y-102602438D02*
X40392857Y-102650057D01*
X40392857Y-102650057D02*
X40440476Y-102745295D01*
X40440476Y-102745295D02*
X40488095Y-102935771D01*
X40488095Y-102935771D02*
X40488095Y-103173866D01*
X40488095Y-103173866D02*
X40440476Y-103364342D01*
X40440476Y-103364342D02*
X40392857Y-103459580D01*
X40392857Y-103459580D02*
X40345238Y-103507200D01*
X40345238Y-103507200D02*
X40250000Y-103554819D01*
X40250000Y-103554819D02*
X40154762Y-103554819D01*
X40154762Y-103554819D02*
X40059524Y-103507200D01*
X40059524Y-103507200D02*
X40011905Y-103459580D01*
X40011905Y-103459580D02*
X39964286Y-103364342D01*
X39964286Y-103364342D02*
X39916667Y-103173866D01*
X39916667Y-103173866D02*
X39916667Y-102935771D01*
X39916667Y-102935771D02*
X39964286Y-102745295D01*
X39964286Y-102745295D02*
X40011905Y-102650057D01*
X40011905Y-102650057D02*
X40059524Y-102602438D01*
X40059524Y-102602438D02*
X40154762Y-102554819D01*
X41107143Y-102554819D02*
X41202381Y-102554819D01*
X41202381Y-102554819D02*
X41297619Y-102602438D01*
X41297619Y-102602438D02*
X41345238Y-102650057D01*
X41345238Y-102650057D02*
X41392857Y-102745295D01*
X41392857Y-102745295D02*
X41440476Y-102935771D01*
X41440476Y-102935771D02*
X41440476Y-103173866D01*
X41440476Y-103173866D02*
X41392857Y-103364342D01*
X41392857Y-103364342D02*
X41345238Y-103459580D01*
X41345238Y-103459580D02*
X41297619Y-103507200D01*
X41297619Y-103507200D02*
X41202381Y-103554819D01*
X41202381Y-103554819D02*
X41107143Y-103554819D01*
X41107143Y-103554819D02*
X41011905Y-103507200D01*
X41011905Y-103507200D02*
X40964286Y-103459580D01*
X40964286Y-103459580D02*
X40916667Y-103364342D01*
X40916667Y-103364342D02*
X40869048Y-103173866D01*
X40869048Y-103173866D02*
X40869048Y-102935771D01*
X40869048Y-102935771D02*
X40916667Y-102745295D01*
X40916667Y-102745295D02*
X40964286Y-102650057D01*
X40964286Y-102650057D02*
X41011905Y-102602438D01*
X41011905Y-102602438D02*
X41107143Y-102554819D01*
X42630953Y-103554819D02*
X42630953Y-102888152D01*
X42630953Y-102983390D02*
X42678572Y-102935771D01*
X42678572Y-102935771D02*
X42773810Y-102888152D01*
X42773810Y-102888152D02*
X42916667Y-102888152D01*
X42916667Y-102888152D02*
X43011905Y-102935771D01*
X43011905Y-102935771D02*
X43059524Y-103031009D01*
X43059524Y-103031009D02*
X43059524Y-103554819D01*
X43059524Y-103031009D02*
X43107143Y-102935771D01*
X43107143Y-102935771D02*
X43202381Y-102888152D01*
X43202381Y-102888152D02*
X43345238Y-102888152D01*
X43345238Y-102888152D02*
X43440477Y-102935771D01*
X43440477Y-102935771D02*
X43488096Y-103031009D01*
X43488096Y-103031009D02*
X43488096Y-103554819D01*
X43964286Y-103554819D02*
X43964286Y-102888152D01*
X43964286Y-102983390D02*
X44011905Y-102935771D01*
X44011905Y-102935771D02*
X44107143Y-102888152D01*
X44107143Y-102888152D02*
X44250000Y-102888152D01*
X44250000Y-102888152D02*
X44345238Y-102935771D01*
X44345238Y-102935771D02*
X44392857Y-103031009D01*
X44392857Y-103031009D02*
X44392857Y-103554819D01*
X44392857Y-103031009D02*
X44440476Y-102935771D01*
X44440476Y-102935771D02*
X44535714Y-102888152D01*
X44535714Y-102888152D02*
X44678571Y-102888152D01*
X44678571Y-102888152D02*
X44773810Y-102935771D01*
X44773810Y-102935771D02*
X44821429Y-103031009D01*
X44821429Y-103031009D02*
X44821429Y-103554819D01*
D11*
X80500000Y-100500000D02*
X80500000Y-104836420D01*
X0Y-100500000D02*
X0Y-104836420D01*
X80500000Y-104250000D02*
X0Y-104250000D01*
X80500000Y-104250000D02*
X0Y-104250000D01*
X80500000Y-104250000D02*
X79373496Y-104836421D01*
X80500000Y-104250000D02*
X79373496Y-103663579D01*
X0Y-104250000D02*
X1126504Y-103663579D01*
X0Y-104250000D02*
X1126504Y-104836421D01*
D10*
X-4945181Y-54523809D02*
X-4945181Y-55095237D01*
X-4945181Y-54809523D02*
X-5945181Y-54809523D01*
X-5945181Y-54809523D02*
X-5802324Y-54904761D01*
X-5802324Y-54904761D02*
X-5707086Y-54999999D01*
X-5707086Y-54999999D02*
X-5659467Y-55095237D01*
X-5945181Y-53904761D02*
X-5945181Y-53809523D01*
X-5945181Y-53809523D02*
X-5897562Y-53714285D01*
X-5897562Y-53714285D02*
X-5849943Y-53666666D01*
X-5849943Y-53666666D02*
X-5754705Y-53619047D01*
X-5754705Y-53619047D02*
X-5564229Y-53571428D01*
X-5564229Y-53571428D02*
X-5326134Y-53571428D01*
X-5326134Y-53571428D02*
X-5135658Y-53619047D01*
X-5135658Y-53619047D02*
X-5040420Y-53666666D01*
X-5040420Y-53666666D02*
X-4992800Y-53714285D01*
X-4992800Y-53714285D02*
X-4945181Y-53809523D01*
X-4945181Y-53809523D02*
X-4945181Y-53904761D01*
X-4945181Y-53904761D02*
X-4992800Y-53999999D01*
X-4992800Y-53999999D02*
X-5040420Y-54047618D01*
X-5040420Y-54047618D02*
X-5135658Y-54095237D01*
X-5135658Y-54095237D02*
X-5326134Y-54142856D01*
X-5326134Y-54142856D02*
X-5564229Y-54142856D01*
X-5564229Y-54142856D02*
X-5754705Y-54095237D01*
X-5754705Y-54095237D02*
X-5849943Y-54047618D01*
X-5849943Y-54047618D02*
X-5897562Y-53999999D01*
X-5897562Y-53999999D02*
X-5945181Y-53904761D01*
X-5945181Y-52952380D02*
X-5945181Y-52857142D01*
X-5945181Y-52857142D02*
X-5897562Y-52761904D01*
X-5897562Y-52761904D02*
X-5849943Y-52714285D01*
X-5849943Y-52714285D02*
X-5754705Y-52666666D01*
X-5754705Y-52666666D02*
X-5564229Y-52619047D01*
X-5564229Y-52619047D02*
X-5326134Y-52619047D01*
X-5326134Y-52619047D02*
X-5135658Y-52666666D01*
X-5135658Y-52666666D02*
X-5040420Y-52714285D01*
X-5040420Y-52714285D02*
X-4992800Y-52761904D01*
X-4992800Y-52761904D02*
X-4945181Y-52857142D01*
X-4945181Y-52857142D02*
X-4945181Y-52952380D01*
X-4945181Y-52952380D02*
X-4992800Y-53047618D01*
X-4992800Y-53047618D02*
X-5040420Y-53095237D01*
X-5040420Y-53095237D02*
X-5135658Y-53142856D01*
X-5135658Y-53142856D02*
X-5326134Y-53190475D01*
X-5326134Y-53190475D02*
X-5564229Y-53190475D01*
X-5564229Y-53190475D02*
X-5754705Y-53142856D01*
X-5754705Y-53142856D02*
X-5849943Y-53095237D01*
X-5849943Y-53095237D02*
X-5897562Y-53047618D01*
X-5897562Y-53047618D02*
X-5945181Y-52952380D01*
X-5040420Y-52190475D02*
X-4992800Y-52142856D01*
X-4992800Y-52142856D02*
X-4945181Y-52190475D01*
X-4945181Y-52190475D02*
X-4992800Y-52238094D01*
X-4992800Y-52238094D02*
X-5040420Y-52190475D01*
X-5040420Y-52190475D02*
X-4945181Y-52190475D01*
X-5945181Y-51523809D02*
X-5945181Y-51428571D01*
X-5945181Y-51428571D02*
X-5897562Y-51333333D01*
X-5897562Y-51333333D02*
X-5849943Y-51285714D01*
X-5849943Y-51285714D02*
X-5754705Y-51238095D01*
X-5754705Y-51238095D02*
X-5564229Y-51190476D01*
X-5564229Y-51190476D02*
X-5326134Y-51190476D01*
X-5326134Y-51190476D02*
X-5135658Y-51238095D01*
X-5135658Y-51238095D02*
X-5040420Y-51285714D01*
X-5040420Y-51285714D02*
X-4992800Y-51333333D01*
X-4992800Y-51333333D02*
X-4945181Y-51428571D01*
X-4945181Y-51428571D02*
X-4945181Y-51523809D01*
X-4945181Y-51523809D02*
X-4992800Y-51619047D01*
X-4992800Y-51619047D02*
X-5040420Y-51666666D01*
X-5040420Y-51666666D02*
X-5135658Y-51714285D01*
X-5135658Y-51714285D02*
X-5326134Y-51761904D01*
X-5326134Y-51761904D02*
X-5564229Y-51761904D01*
X-5564229Y-51761904D02*
X-5754705Y-51714285D01*
X-5754705Y-51714285D02*
X-5849943Y-51666666D01*
X-5849943Y-51666666D02*
X-5897562Y-51619047D01*
X-5897562Y-51619047D02*
X-5945181Y-51523809D01*
X-5945181Y-50571428D02*
X-5945181Y-50476190D01*
X-5945181Y-50476190D02*
X-5897562Y-50380952D01*
X-5897562Y-50380952D02*
X-5849943Y-50333333D01*
X-5849943Y-50333333D02*
X-5754705Y-50285714D01*
X-5754705Y-50285714D02*
X-5564229Y-50238095D01*
X-5564229Y-50238095D02*
X-5326134Y-50238095D01*
X-5326134Y-50238095D02*
X-5135658Y-50285714D01*
X-5135658Y-50285714D02*
X-5040420Y-50333333D01*
X-5040420Y-50333333D02*
X-4992800Y-50380952D01*
X-4992800Y-50380952D02*
X-4945181Y-50476190D01*
X-4945181Y-50476190D02*
X-4945181Y-50571428D01*
X-4945181Y-50571428D02*
X-4992800Y-50666666D01*
X-4992800Y-50666666D02*
X-5040420Y-50714285D01*
X-5040420Y-50714285D02*
X-5135658Y-50761904D01*
X-5135658Y-50761904D02*
X-5326134Y-50809523D01*
X-5326134Y-50809523D02*
X-5564229Y-50809523D01*
X-5564229Y-50809523D02*
X-5754705Y-50761904D01*
X-5754705Y-50761904D02*
X-5849943Y-50714285D01*
X-5849943Y-50714285D02*
X-5897562Y-50666666D01*
X-5897562Y-50666666D02*
X-5945181Y-50571428D01*
X-5945181Y-49619047D02*
X-5945181Y-49523809D01*
X-5945181Y-49523809D02*
X-5897562Y-49428571D01*
X-5897562Y-49428571D02*
X-5849943Y-49380952D01*
X-5849943Y-49380952D02*
X-5754705Y-49333333D01*
X-5754705Y-49333333D02*
X-5564229Y-49285714D01*
X-5564229Y-49285714D02*
X-5326134Y-49285714D01*
X-5326134Y-49285714D02*
X-5135658Y-49333333D01*
X-5135658Y-49333333D02*
X-5040420Y-49380952D01*
X-5040420Y-49380952D02*
X-4992800Y-49428571D01*
X-4992800Y-49428571D02*
X-4945181Y-49523809D01*
X-4945181Y-49523809D02*
X-4945181Y-49619047D01*
X-4945181Y-49619047D02*
X-4992800Y-49714285D01*
X-4992800Y-49714285D02*
X-5040420Y-49761904D01*
X-5040420Y-49761904D02*
X-5135658Y-49809523D01*
X-5135658Y-49809523D02*
X-5326134Y-49857142D01*
X-5326134Y-49857142D02*
X-5564229Y-49857142D01*
X-5564229Y-49857142D02*
X-5754705Y-49809523D01*
X-5754705Y-49809523D02*
X-5849943Y-49761904D01*
X-5849943Y-49761904D02*
X-5897562Y-49714285D01*
X-5897562Y-49714285D02*
X-5945181Y-49619047D01*
X-5945181Y-48666666D02*
X-5945181Y-48571428D01*
X-5945181Y-48571428D02*
X-5897562Y-48476190D01*
X-5897562Y-48476190D02*
X-5849943Y-48428571D01*
X-5849943Y-48428571D02*
X-5754705Y-48380952D01*
X-5754705Y-48380952D02*
X-5564229Y-48333333D01*
X-5564229Y-48333333D02*
X-5326134Y-48333333D01*
X-5326134Y-48333333D02*
X-5135658Y-48380952D01*
X-5135658Y-48380952D02*
X-5040420Y-48428571D01*
X-5040420Y-48428571D02*
X-4992800Y-48476190D01*
X-4992800Y-48476190D02*
X-4945181Y-48571428D01*
X-4945181Y-48571428D02*
X-4945181Y-48666666D01*
X-4945181Y-48666666D02*
X-4992800Y-48761904D01*
X-4992800Y-48761904D02*
X-5040420Y-48809523D01*
X-5040420Y-48809523D02*
X-5135658Y-48857142D01*
X-5135658Y-48857142D02*
X-5326134Y-48904761D01*
X-5326134Y-48904761D02*
X-5564229Y-48904761D01*
X-5564229Y-48904761D02*
X-5754705Y-48857142D01*
X-5754705Y-48857142D02*
X-5849943Y-48809523D01*
X-5849943Y-48809523D02*
X-5897562Y-48761904D01*
X-5897562Y-48761904D02*
X-5945181Y-48666666D01*
X-4945181Y-47142856D02*
X-5611848Y-47142856D01*
X-5516610Y-47142856D02*
X-5564229Y-47095237D01*
X-5564229Y-47095237D02*
X-5611848Y-46999999D01*
X-5611848Y-46999999D02*
X-5611848Y-46857142D01*
X-5611848Y-46857142D02*
X-5564229Y-46761904D01*
X-5564229Y-46761904D02*
X-5468991Y-46714285D01*
X-5468991Y-46714285D02*
X-4945181Y-46714285D01*
X-5468991Y-46714285D02*
X-5564229Y-46666666D01*
X-5564229Y-46666666D02*
X-5611848Y-46571428D01*
X-5611848Y-46571428D02*
X-5611848Y-46428571D01*
X-5611848Y-46428571D02*
X-5564229Y-46333332D01*
X-5564229Y-46333332D02*
X-5468991Y-46285713D01*
X-5468991Y-46285713D02*
X-4945181Y-46285713D01*
X-4945181Y-45809523D02*
X-5611848Y-45809523D01*
X-5516610Y-45809523D02*
X-5564229Y-45761904D01*
X-5564229Y-45761904D02*
X-5611848Y-45666666D01*
X-5611848Y-45666666D02*
X-5611848Y-45523809D01*
X-5611848Y-45523809D02*
X-5564229Y-45428571D01*
X-5564229Y-45428571D02*
X-5468991Y-45380952D01*
X-5468991Y-45380952D02*
X-4945181Y-45380952D01*
X-5468991Y-45380952D02*
X-5564229Y-45333333D01*
X-5564229Y-45333333D02*
X-5611848Y-45238095D01*
X-5611848Y-45238095D02*
X-5611848Y-45095238D01*
X-5611848Y-45095238D02*
X-5564229Y-44999999D01*
X-5564229Y-44999999D02*
X-5468991Y-44952380D01*
X-5468991Y-44952380D02*
X-4945181Y-44952380D01*
D11*
X-500000Y-100000000D02*
X-4836420Y-100000000D01*
X-500000Y0D02*
X-4836420Y0D01*
X-4250000Y-100000000D02*
X-4250000Y0D01*
X-4250000Y-100000000D02*
X-4250000Y0D01*
X-4250000Y-100000000D02*
X-4836421Y-98873496D01*
X-4250000Y-100000000D02*
X-3663579Y-98873496D01*
X-4250000Y0D02*
X-3663579Y-1126504D01*
X-4250000Y0D02*
X-4836421Y-1126504D01*
D12*
G04 #@! TO.C,D22*
X65650000Y-93280000D02*
X65650000Y-96080000D01*
X65650000Y-96080000D02*
X68850000Y-96080000D01*
X68850000Y-93280000D02*
X65650000Y-93280000D01*
X68850000Y-96080000D02*
X68850000Y-93280000D01*
G04 #@! TO.C,D17*
X65650000Y-42280000D02*
X65650000Y-45080000D01*
X65650000Y-45080000D02*
X68850000Y-45080000D01*
X68850000Y-42280000D02*
X65650000Y-42280000D01*
X68850000Y-45080000D02*
X68850000Y-42280000D01*
G04 #@! TO.C,D18*
X11650000Y-42280000D02*
X11650000Y-45080000D01*
X11650000Y-45080000D02*
X14850000Y-45080000D01*
X14850000Y-42280000D02*
X11650000Y-42280000D01*
X14850000Y-45080000D02*
X14850000Y-42280000D01*
G04 #@! TO.C,D21*
X11650000Y-93280000D02*
X11650000Y-96080000D01*
X11650000Y-96080000D02*
X14850000Y-96080000D01*
X14850000Y-93280000D02*
X11650000Y-93280000D01*
X14850000Y-96080000D02*
X14850000Y-93280000D01*
G04 #@! TD*
M02*
