M48
; DRILL file {KiCad 8.0.6} date 2024-10-20T21:42:17+0200
; FORMAT={-:-/ absolute / metric / decimal}
; #@! TF.CreationDate,2024-10-20T21:42:17+02:00
; #@! TF.GenerationSoftware,Kicad,Pcbnew,8.0.6
; #@! TF.FileFunction,Plated,1,2,PTH
FMAT,2
METRIC
; #@! TA.AperFunction,Plated,PTH,ViaDrill
T1C0.500
; #@! TA.AperFunction,Plated,PTH,ComponentDrill
T2C0.700
; #@! TA.AperFunction,Plated,PTH,ComponentDrill
T3C0.800
; #@! TA.AperFunction,Plated,PTH,ComponentDrill
T4C1.000
; #@! TA.AperFunction,Plated,PTH,ComponentDrill
T5C1.200
; #@! TA.AperFunction,Plated,PTH,ComponentDrill
T6C1.600
%
G90
G05
T1
X2.25Y-63.0
X2.25Y-64.75
X2.25Y-66.5
X2.5Y-97.75
X4.0Y-64.75
X4.25Y-24.75
X5.75Y-53.5
X7.0Y-88.5
X12.0Y-10.5
X17.5Y-45.25
X17.75Y-42.25
X17.75Y-96.25
X19.0Y-42.0
X21.75Y-60.25
X22.0Y-53.75
X22.2Y-72.775
X28.25Y-19.75
X34.5Y-61.75
X35.75Y-5.75
X35.75Y-23.0
X39.0Y-98.75
X39.25Y-38.75
X39.75Y-93.5
X41.25Y-57.0
X41.25Y-58.5
X41.25Y-83.25
X41.25Y-85.0
X41.25Y-98.75
X43.0Y-24.25
X43.0Y-25.5
X43.0Y-26.85
X43.0Y-57.0
X43.0Y-98.75
X43.5Y-51.75
X46.3Y-3.475
X46.478Y-11.324
X46.525Y-9.975
X47.25Y-25.75
X49.5Y-6.75
X52.25Y-62.0
X57.75Y-40.5
X58.25Y-70.5
X58.5Y-54.25
X58.75Y-86.25
X59.75Y-8.0
X59.775Y-13.95
X61.25Y-23.25
X61.25Y-31.5
X63.25Y-56.0
X63.25Y-57.5
X64.0Y-45.75
X64.375Y-58.625
X64.5Y-92.25
X64.96Y-10.46
X65.25Y-35.0
X66.0Y-11.5
X68.0Y-7.0
X70.5Y-91.5
X71.5Y-45.25
X73.5Y-30.225
X73.5Y-47.225
X73.5Y-64.225
X73.5Y-81.225
X74.5Y-24.0
X75.0Y-39.5
X75.5Y-72.5
X75.75Y-28.0
X76.0Y-55.5
X76.25Y-90.5
X76.547Y-79.547
X77.0Y-45.095
X77.0Y-62.5
T2
X41.5Y-5.13
X41.5Y-12.75
X44.25Y-5.19
X44.25Y-12.81
T3
X7.0Y-37.25
X7.0Y-39.75
X9.0Y-89.75
X9.0Y-92.25
X13.25Y-30.225
X13.25Y-47.225
X13.25Y-64.225
X13.25Y-81.225
X20.87Y-30.225
X20.87Y-47.225
X20.87Y-64.225
X20.87Y-81.225
X31.25Y-30.225
X31.25Y-47.225
X31.25Y-64.225
X31.25Y-81.225
X38.87Y-30.225
X38.87Y-47.225
X38.87Y-64.225
X38.87Y-81.225
X49.25Y-30.225
X49.25Y-47.225
X49.25Y-64.225
X49.25Y-81.225
X51.0Y-2.75
X51.0Y-5.25
X56.87Y-30.225
X56.87Y-47.225
X56.87Y-64.225
X56.87Y-81.225
X60.75Y-38.5
X63.25Y-38.5
X67.25Y-30.225
X67.25Y-47.225
X67.25Y-64.225
X67.25Y-81.225
X70.0Y-98.5
X72.5Y-98.5
X74.87Y-30.225
X74.87Y-47.225
X74.87Y-64.225
X74.87Y-81.225
T4
X36.42Y-2.0
X38.96Y-2.0
X41.5Y-2.0
X44.04Y-2.0
X56.0Y-2.84
X56.0Y-5.38
X56.0Y-7.92
X56.0Y-10.46
X56.0Y-13.0
X56.0Y-15.54
X56.0Y-18.08
X71.25Y-2.84
X71.25Y-5.38
X71.25Y-7.92
X71.25Y-10.46
X71.25Y-13.0
X71.25Y-15.54
X71.25Y-18.08
T5
X13.25Y-32.85
X13.25Y-49.85
X13.25Y-66.85
X13.25Y-83.85
X18.25Y-34.95
X18.25Y-51.95
X18.25Y-68.95
X18.25Y-85.95
X31.25Y-32.85
X31.25Y-49.85
X31.25Y-66.85
X31.25Y-83.85
X36.25Y-34.95
X36.25Y-51.95
X36.25Y-68.95
X36.25Y-85.95
X49.25Y-32.85
X49.25Y-49.85
X49.25Y-66.85
X49.25Y-83.85
X54.25Y-34.95
X54.25Y-51.95
X54.25Y-68.95
X54.25Y-85.95
X67.25Y-32.85
X67.25Y-49.85
X67.25Y-66.85
X67.25Y-83.85
X72.25Y-34.95
X72.25Y-51.95
X72.25Y-68.95
X72.25Y-85.95
T6
X8.25Y-43.9
X8.25Y-60.9
X8.25Y-77.9
X8.25Y-94.9
X26.25Y-43.9
X26.25Y-60.9
X26.25Y-77.9
X26.25Y-94.9
X44.25Y-43.9
X44.25Y-60.9
X44.25Y-77.9
X44.25Y-94.9
X62.25Y-43.9
X62.25Y-60.9
X62.25Y-77.9
X62.25Y-94.9
M30
