G04 #@! TF.GenerationSoftware,KiCad,Pcbnew,8.0.6*
G04 #@! TF.CreationDate,2024-10-20T21:42:17+02:00*
G04 #@! TF.ProjectId,macropad,6d616372-6f70-4616-942e-6b696361645f,v7.6*
G04 #@! TF.SameCoordinates,Original*
G04 #@! TF.FileFunction,Other,ECO1*
%FSLAX46Y46*%
G04 Gerber Fmt 4.6, Leading zero omitted, Abs format (unit mm)*
G04 Created by KiCad (PCBNEW 8.0.6) date 2024-10-20 21:42:17*
%MOMM*%
%LPD*%
G01*
G04 APERTURE LIST*
%ADD10C,0.100000*%
G04 APERTURE END LIST*
D10*
G04 #@! TO.C,SW4*
X6000000Y-48500000D02*
X6000000Y-63000000D01*
X6000000Y-63000000D02*
X20500000Y-63000000D01*
X20500000Y-48500000D02*
X6000000Y-48500000D01*
X20500000Y-63000000D02*
X20500000Y-48500000D01*
G04 #@! TO.C,SW14*
X42000000Y-82500000D02*
X42000000Y-97000000D01*
X42000000Y-97000000D02*
X56500000Y-97000000D01*
X56500000Y-82500000D02*
X42000000Y-82500000D01*
X56500000Y-97000000D02*
X56500000Y-82500000D01*
G04 #@! TO.C,SW1*
X6000000Y-31500000D02*
X6000000Y-46000000D01*
X6000000Y-46000000D02*
X20500000Y-46000000D01*
X20500000Y-31500000D02*
X6000000Y-31500000D01*
X20500000Y-46000000D02*
X20500000Y-31500000D01*
G04 #@! TO.C,SW8*
X24000000Y-65500000D02*
X24000000Y-80000000D01*
X24000000Y-80000000D02*
X38500000Y-80000000D01*
X38500000Y-65500000D02*
X24000000Y-65500000D01*
X38500000Y-80000000D02*
X38500000Y-65500000D01*
G04 #@! TO.C,SW9*
X42000000Y-65500000D02*
X42000000Y-80000000D01*
X42000000Y-80000000D02*
X56500000Y-80000000D01*
X56500000Y-65500000D02*
X42000000Y-65500000D01*
X56500000Y-80000000D02*
X56500000Y-65500000D01*
G04 #@! TO.C,SW12*
X60000000Y-65500000D02*
X60000000Y-80000000D01*
X60000000Y-80000000D02*
X74500000Y-80000000D01*
X74500000Y-65500000D02*
X60000000Y-65500000D01*
X74500000Y-80000000D02*
X74500000Y-65500000D01*
G04 #@! TO.C,SW6*
X42000000Y-48500000D02*
X42000000Y-63000000D01*
X42000000Y-63000000D02*
X56500000Y-63000000D01*
X56500000Y-48500000D02*
X42000000Y-48500000D01*
X56500000Y-63000000D02*
X56500000Y-48500000D01*
G04 #@! TO.C,SW10*
X60000000Y-31500000D02*
X60000000Y-46000000D01*
X60000000Y-46000000D02*
X74500000Y-46000000D01*
X74500000Y-31500000D02*
X60000000Y-31500000D01*
X74500000Y-46000000D02*
X74500000Y-31500000D01*
G04 #@! TO.C,SW7*
X6000000Y-65500000D02*
X6000000Y-80000000D01*
X6000000Y-80000000D02*
X20500000Y-80000000D01*
X20500000Y-65500000D02*
X6000000Y-65500000D01*
X20500000Y-80000000D02*
X20500000Y-65500000D01*
G04 #@! TO.C,SW2*
X24000000Y-31500000D02*
X24000000Y-46000000D01*
X24000000Y-46000000D02*
X38500000Y-46000000D01*
X38500000Y-31500000D02*
X24000000Y-31500000D01*
X38500000Y-46000000D02*
X38500000Y-31500000D01*
G04 #@! TO.C,SW11*
X60000000Y-48500000D02*
X60000000Y-63000000D01*
X60000000Y-63000000D02*
X74500000Y-63000000D01*
X74500000Y-48500000D02*
X60000000Y-48500000D01*
X74500000Y-63000000D02*
X74500000Y-48500000D01*
G04 #@! TO.C,SW3*
X42000000Y-31500000D02*
X42000000Y-46000000D01*
X42000000Y-46000000D02*
X56500000Y-46000000D01*
X56500000Y-31500000D02*
X42000000Y-31500000D01*
X56500000Y-46000000D02*
X56500000Y-31500000D01*
G04 #@! TO.C,SW16*
X6000000Y-82500000D02*
X6000000Y-97000000D01*
X6000000Y-97000000D02*
X20500000Y-97000000D01*
X20500000Y-82500000D02*
X6000000Y-82500000D01*
X20500000Y-97000000D02*
X20500000Y-82500000D01*
G04 #@! TO.C,SW5*
X24000000Y-48500000D02*
X24000000Y-63000000D01*
X24000000Y-63000000D02*
X38500000Y-63000000D01*
X38500000Y-48500000D02*
X24000000Y-48500000D01*
X38500000Y-63000000D02*
X38500000Y-48500000D01*
G04 #@! TO.C,SW13*
X60000000Y-82500000D02*
X60000000Y-97000000D01*
X60000000Y-97000000D02*
X74500000Y-97000000D01*
X74500000Y-82500000D02*
X60000000Y-82500000D01*
X74500000Y-97000000D02*
X74500000Y-82500000D01*
G04 #@! TO.C,SW15*
X24000000Y-82500000D02*
X24000000Y-97000000D01*
X24000000Y-97000000D02*
X38500000Y-97000000D01*
X38500000Y-82500000D02*
X24000000Y-82500000D01*
X38500000Y-97000000D02*
X38500000Y-82500000D01*
G04 #@! TD*
M02*
