G04 #@! TF.GenerationSoftware,KiCad,Pcbnew,8.0.6*
G04 #@! TF.CreationDate,2024-10-20T21:42:17+02:00*
G04 #@! TF.ProjectId,macropad,6d616372-6f70-4616-942e-6b696361645f,v7.6*
G04 #@! TF.SameCoordinates,Original*
G04 #@! TF.FileFunction,Other,User*
%FSLAX46Y46*%
G04 Gerber Fmt 4.6, Leading zero omitted, Abs format (unit mm)*
G04 Created by KiCad (PCBNEW 8.0.6) date 2024-10-20 21:42:17*
%MOMM*%
%LPD*%
G01*
G04 APERTURE LIST*
%ADD10C,0.050000*%
G04 APERTURE END LIST*
D10*
G04 #@! TO.C,SW4*
X5500000Y-48000000D02*
X5500000Y-63500000D01*
X5500000Y-63500000D02*
X21000000Y-63500000D01*
X21000000Y-48000000D02*
X5500000Y-48000000D01*
X21000000Y-63500000D02*
X21000000Y-48000000D01*
G04 #@! TO.C,SW14*
X41500000Y-82000000D02*
X41500000Y-97500000D01*
X41500000Y-97500000D02*
X57000000Y-97500000D01*
X57000000Y-82000000D02*
X41500000Y-82000000D01*
X57000000Y-97500000D02*
X57000000Y-82000000D01*
G04 #@! TO.C,SW1*
X5500000Y-31000000D02*
X5500000Y-46500000D01*
X5500000Y-46500000D02*
X21000000Y-46500000D01*
X21000000Y-31000000D02*
X5500000Y-31000000D01*
X21000000Y-46500000D02*
X21000000Y-31000000D01*
G04 #@! TO.C,SW8*
X23500000Y-65000000D02*
X23500000Y-80500000D01*
X23500000Y-80500000D02*
X39000000Y-80500000D01*
X39000000Y-65000000D02*
X23500000Y-65000000D01*
X39000000Y-80500000D02*
X39000000Y-65000000D01*
G04 #@! TO.C,SW9*
X41500000Y-65000000D02*
X41500000Y-80500000D01*
X41500000Y-80500000D02*
X57000000Y-80500000D01*
X57000000Y-65000000D02*
X41500000Y-65000000D01*
X57000000Y-80500000D02*
X57000000Y-65000000D01*
G04 #@! TO.C,SW12*
X59500000Y-65000000D02*
X59500000Y-80500000D01*
X59500000Y-80500000D02*
X75000000Y-80500000D01*
X75000000Y-65000000D02*
X59500000Y-65000000D01*
X75000000Y-80500000D02*
X75000000Y-65000000D01*
G04 #@! TO.C,SW6*
X41500000Y-48000000D02*
X41500000Y-63500000D01*
X41500000Y-63500000D02*
X57000000Y-63500000D01*
X57000000Y-48000000D02*
X41500000Y-48000000D01*
X57000000Y-63500000D02*
X57000000Y-48000000D01*
G04 #@! TO.C,SW10*
X59500000Y-31000000D02*
X59500000Y-46500000D01*
X59500000Y-46500000D02*
X75000000Y-46500000D01*
X75000000Y-31000000D02*
X59500000Y-31000000D01*
X75000000Y-46500000D02*
X75000000Y-31000000D01*
G04 #@! TO.C,SW7*
X5500000Y-65000000D02*
X5500000Y-80500000D01*
X5500000Y-80500000D02*
X21000000Y-80500000D01*
X21000000Y-65000000D02*
X5500000Y-65000000D01*
X21000000Y-80500000D02*
X21000000Y-65000000D01*
G04 #@! TO.C,SW2*
X23500000Y-31000000D02*
X23500000Y-46500000D01*
X23500000Y-46500000D02*
X39000000Y-46500000D01*
X39000000Y-31000000D02*
X23500000Y-31000000D01*
X39000000Y-46500000D02*
X39000000Y-31000000D01*
G04 #@! TO.C,SW11*
X59500000Y-48000000D02*
X59500000Y-63500000D01*
X59500000Y-63500000D02*
X75000000Y-63500000D01*
X75000000Y-48000000D02*
X59500000Y-48000000D01*
X75000000Y-63500000D02*
X75000000Y-48000000D01*
G04 #@! TO.C,SW3*
X41500000Y-31000000D02*
X41500000Y-46500000D01*
X41500000Y-46500000D02*
X57000000Y-46500000D01*
X57000000Y-31000000D02*
X41500000Y-31000000D01*
X57000000Y-46500000D02*
X57000000Y-31000000D01*
G04 #@! TO.C,SW16*
X5500000Y-82000000D02*
X5500000Y-97500000D01*
X5500000Y-97500000D02*
X21000000Y-97500000D01*
X21000000Y-82000000D02*
X5500000Y-82000000D01*
X21000000Y-97500000D02*
X21000000Y-82000000D01*
G04 #@! TO.C,SW5*
X23500000Y-48000000D02*
X23500000Y-63500000D01*
X23500000Y-63500000D02*
X39000000Y-63500000D01*
X39000000Y-48000000D02*
X23500000Y-48000000D01*
X39000000Y-63500000D02*
X39000000Y-48000000D01*
G04 #@! TO.C,SW13*
X59500000Y-82000000D02*
X59500000Y-97500000D01*
X59500000Y-97500000D02*
X75000000Y-97500000D01*
X75000000Y-82000000D02*
X59500000Y-82000000D01*
X75000000Y-97500000D02*
X75000000Y-82000000D01*
G04 #@! TO.C,SW15*
X23500000Y-82000000D02*
X23500000Y-97500000D01*
X23500000Y-97500000D02*
X39000000Y-97500000D01*
X39000000Y-82000000D02*
X23500000Y-82000000D01*
X39000000Y-97500000D02*
X39000000Y-82000000D01*
G04 #@! TD*
M02*
