G04 #@! TF.GenerationSoftware,KiCad,Pcbnew,8.0.6*
G04 #@! TF.CreationDate,2024-10-20T21:42:17+02:00*
G04 #@! TF.ProjectId,macropad,6d616372-6f70-4616-942e-6b696361645f,v7.6*
G04 #@! TF.SameCoordinates,Original*
G04 #@! TF.FileFunction,Soldermask,Top*
G04 #@! TF.FilePolarity,Negative*
%FSLAX46Y46*%
G04 Gerber Fmt 4.6, Leading zero omitted, Abs format (unit mm)*
G04 Created by KiCad (PCBNEW 8.0.6) date 2024-10-20 21:42:17*
%MOMM*%
%LPD*%
G01*
G04 APERTURE LIST*
%ADD10C,2.600000*%
%ADD11C,5.050000*%
%ADD12C,2.200000*%
%ADD13O,1.600000X2.000000*%
%ADD14R,1.600000X1.600000*%
%ADD15O,1.600000X1.600000*%
%ADD16C,1.600000*%
%ADD17R,3.500000X1.700000*%
%ADD18O,3.600000X1.700000*%
%ADD19O,3.700000X1.700000*%
%ADD20C,1.400000*%
%ADD21O,1.400000X1.400000*%
G04 APERTURE END LIST*
D10*
G04 #@! TO.C,SW4*
X8250000Y-60900000D03*
D11*
X13250000Y-55750000D03*
D12*
X13250000Y-49850000D03*
X18250000Y-51950000D03*
G04 #@! TD*
D10*
G04 #@! TO.C,SW14*
X44250000Y-94900000D03*
D11*
X49250000Y-89750000D03*
D12*
X49250000Y-83850000D03*
X54250000Y-85950000D03*
G04 #@! TD*
D10*
G04 #@! TO.C,SW1*
X8250000Y-43900000D03*
D11*
X13250000Y-38750000D03*
D12*
X13250000Y-32850000D03*
X18250000Y-34950000D03*
G04 #@! TD*
D10*
G04 #@! TO.C,SW8*
X26250000Y-77900000D03*
D11*
X31250000Y-72750000D03*
D12*
X31250000Y-66850000D03*
X36250000Y-68950000D03*
G04 #@! TD*
D10*
G04 #@! TO.C,SW9*
X44250000Y-77900000D03*
D11*
X49250000Y-72750000D03*
D12*
X49250000Y-66850000D03*
X54250000Y-68950000D03*
G04 #@! TD*
D10*
G04 #@! TO.C,SW12*
X62250000Y-77900000D03*
D11*
X67250000Y-72750000D03*
D12*
X67250000Y-66850000D03*
X72250000Y-68950000D03*
G04 #@! TD*
D10*
G04 #@! TO.C,SW6*
X44250000Y-60900000D03*
D11*
X49250000Y-55750000D03*
D12*
X49250000Y-49850000D03*
X54250000Y-51950000D03*
G04 #@! TD*
D10*
G04 #@! TO.C,SW10*
X62250000Y-43900000D03*
D11*
X67250000Y-38750000D03*
D12*
X67250000Y-32850000D03*
X72250000Y-34950000D03*
G04 #@! TD*
D10*
G04 #@! TO.C,SW7*
X8250000Y-77900000D03*
D11*
X13250000Y-72750000D03*
D12*
X13250000Y-66850000D03*
X18250000Y-68950000D03*
G04 #@! TD*
D13*
G04 #@! TO.C,Brd1*
X36420000Y-2000000D03*
X38960000Y-2000000D03*
X41500000Y-2000000D03*
X44040000Y-2000000D03*
G04 #@! TD*
D10*
G04 #@! TO.C,SW2*
X26250000Y-43900000D03*
D11*
X31250000Y-38750000D03*
D12*
X31250000Y-32850000D03*
X36250000Y-34950000D03*
G04 #@! TD*
D10*
G04 #@! TO.C,SW11*
X62250000Y-60900000D03*
D11*
X67250000Y-55750000D03*
D12*
X67250000Y-49850000D03*
X72250000Y-51950000D03*
G04 #@! TD*
D10*
G04 #@! TO.C,SW3*
X44250000Y-43900000D03*
D11*
X49250000Y-38750000D03*
D12*
X49250000Y-32850000D03*
X54250000Y-34950000D03*
G04 #@! TD*
D10*
G04 #@! TO.C,SW16*
X8250000Y-94900000D03*
D11*
X13250000Y-89750000D03*
D12*
X13250000Y-83850000D03*
X18250000Y-85950000D03*
G04 #@! TD*
D10*
G04 #@! TO.C,SW5*
X26250000Y-60900000D03*
D11*
X31250000Y-55750000D03*
D12*
X31250000Y-49850000D03*
X36250000Y-51950000D03*
G04 #@! TD*
D10*
G04 #@! TO.C,SW13*
X62250000Y-94900000D03*
D11*
X67250000Y-89750000D03*
D12*
X67250000Y-83850000D03*
X72250000Y-85950000D03*
G04 #@! TD*
D10*
G04 #@! TO.C,SW15*
X26250000Y-94900000D03*
D11*
X31250000Y-89750000D03*
D12*
X31250000Y-83850000D03*
X36250000Y-85950000D03*
G04 #@! TD*
D14*
G04 #@! TO.C,D3*
X56870000Y-30225000D03*
D15*
X49250000Y-30225000D03*
G04 #@! TD*
D16*
G04 #@! TO.C,C5*
X7000000Y-39750000D03*
X7000000Y-37250000D03*
G04 #@! TD*
D17*
G04 #@! TO.C,U2*
X72250000Y-2840000D03*
D18*
X72250000Y-5380000D03*
X72250000Y-7920000D03*
X72250000Y-10460000D03*
X72250000Y-13000000D03*
X72250000Y-15540000D03*
X72250000Y-18080000D03*
X55000000Y-18080000D03*
X55000000Y-15540000D03*
X55000000Y-13000000D03*
D19*
X55000000Y-10460000D03*
X55000000Y-7920000D03*
X55000000Y-5380000D03*
X55000000Y-2840000D03*
G04 #@! TD*
D14*
G04 #@! TO.C,D11*
X74870000Y-47225000D03*
D15*
X67250000Y-47225000D03*
G04 #@! TD*
D16*
G04 #@! TO.C,C4*
X63250000Y-38500000D03*
X60750000Y-38500000D03*
G04 #@! TD*
D14*
G04 #@! TO.C,D15*
X38870000Y-81225000D03*
D15*
X31250000Y-81225000D03*
G04 #@! TD*
D14*
G04 #@! TO.C,D4*
X20870000Y-47225000D03*
D15*
X13250000Y-47225000D03*
G04 #@! TD*
D14*
G04 #@! TO.C,D8*
X38870000Y-64225000D03*
D15*
X31250000Y-64225000D03*
G04 #@! TD*
D14*
G04 #@! TO.C,D10*
X74870000Y-30225000D03*
D15*
X67250000Y-30225000D03*
G04 #@! TD*
D14*
G04 #@! TO.C,D13*
X74870000Y-81225000D03*
D15*
X67250000Y-81225000D03*
G04 #@! TD*
D14*
G04 #@! TO.C,D16*
X20870000Y-81225000D03*
D15*
X13250000Y-81225000D03*
G04 #@! TD*
D16*
G04 #@! TO.C,C1*
X70000000Y-98500000D03*
X72500000Y-98500000D03*
G04 #@! TD*
D20*
G04 #@! TO.C,R2*
X44250000Y-12810000D03*
D21*
X44250000Y-5190000D03*
G04 #@! TD*
D14*
G04 #@! TO.C,D1*
X20870000Y-30225000D03*
D15*
X13250000Y-30225000D03*
G04 #@! TD*
D14*
G04 #@! TO.C,D6*
X56870000Y-47225000D03*
D15*
X49250000Y-47225000D03*
G04 #@! TD*
D14*
G04 #@! TO.C,D7*
X20870000Y-64225000D03*
D15*
X13250000Y-64225000D03*
G04 #@! TD*
D14*
G04 #@! TO.C,D9*
X56870000Y-64225000D03*
D15*
X49250000Y-64225000D03*
G04 #@! TD*
D20*
G04 #@! TO.C,R1*
X41500000Y-12750000D03*
D21*
X41500000Y-5130000D03*
G04 #@! TD*
D14*
G04 #@! TO.C,D12*
X74870000Y-64225000D03*
D15*
X67250000Y-64225000D03*
G04 #@! TD*
D14*
G04 #@! TO.C,D2*
X38870000Y-30225000D03*
D15*
X31250000Y-30225000D03*
G04 #@! TD*
D16*
G04 #@! TO.C,C2*
X51000000Y-2750000D03*
X51000000Y-5250000D03*
G04 #@! TD*
G04 #@! TO.C,C3*
X9000000Y-92250000D03*
X9000000Y-89750000D03*
G04 #@! TD*
D14*
G04 #@! TO.C,D5*
X38870000Y-47225000D03*
D15*
X31250000Y-47225000D03*
G04 #@! TD*
D14*
G04 #@! TO.C,D14*
X56870000Y-81225000D03*
D15*
X49250000Y-81225000D03*
G04 #@! TD*
M02*
