%TF.GenerationSoftware,KiCad,Pcbnew,7.0.11*%
%TF.CreationDate,2024-09-14T12:46:11+02:00*%
%TF.ProjectId,macropad,6d616372-6f70-4616-942e-6b696361645f,rev?*%
%TF.SameCoordinates,Original*%
%TF.FileFunction,Drillmap*%
%TF.FilePolarity,Positive*%
%FSLAX45Y45*%
G04 Gerber Fmt 4.5, Leading zero omitted, Abs format (unit mm)*
G04 Created by KiCad (PCBNEW 7.0.11) date 2024-09-14 12:46:11*
%MOMM*%
%LPD*%
G01*
G04 APERTURE LIST*
%ADD10C,0.050000*%
%ADD11C,0.200000*%
%ADD12C,0.100000*%
G04 APERTURE END LIST*
D10*
X18673445Y-5287645D02*
X12402820Y-5287645D01*
X18673445Y-14098275D02*
G75*
G03*
X18990945Y-13780770I-5J317505D01*
G01*
X12085320Y-5605145D02*
X12085320Y-13780770D01*
X18990945Y-5605145D02*
G75*
G03*
X18673445Y-5287645I-317495J5D01*
G01*
X18990945Y-13780770D02*
X18990945Y-5605145D01*
X12085320Y-13780770D02*
G75*
G03*
X12402820Y-14098270I317510J10D01*
G01*
X12402820Y-14098270D02*
X18673445Y-14098270D01*
X12402820Y-5287650D02*
G75*
G03*
X12085320Y-5605145I0J-317500D01*
G01*
D11*
D12*
X12362500Y-13791250D02*
X12402500Y-13831250D01*
X12402500Y-13791250D02*
X12362500Y-13831250D01*
X12521250Y-12600625D02*
X12561250Y-12640625D01*
X12561250Y-12600625D02*
X12521250Y-12640625D01*
X12918125Y-5695000D02*
X12958125Y-5735000D01*
X12958125Y-5695000D02*
X12918125Y-5735000D01*
X13950000Y-12600625D02*
X13990000Y-12640625D01*
X13990000Y-12600625D02*
X13950000Y-12640625D01*
X14367195Y-11935145D02*
X14407195Y-11975145D01*
X14407195Y-11935145D02*
X14367195Y-11975145D01*
X14367195Y-12252645D02*
X14407195Y-12292645D01*
X14407195Y-12252645D02*
X14367195Y-12292645D01*
X14664375Y-7282500D02*
X14704375Y-7322500D01*
X14704375Y-7282500D02*
X14664375Y-7322500D01*
X14664375Y-10616250D02*
X14704375Y-10656250D01*
X14704375Y-10616250D02*
X14664375Y-10656250D01*
X15537500Y-13156250D02*
X15577500Y-13196250D01*
X15577500Y-13156250D02*
X15537500Y-13196250D01*
X16251875Y-11965625D02*
X16291875Y-12005625D01*
X16291875Y-11965625D02*
X16251875Y-12005625D01*
X16331250Y-7282500D02*
X16371250Y-7322500D01*
X16371250Y-7282500D02*
X16331250Y-7322500D01*
X16331250Y-10616250D02*
X16371250Y-10656250D01*
X16371250Y-10616250D02*
X16331250Y-10656250D01*
X16669070Y-12093895D02*
X16709070Y-12133895D01*
X16709070Y-12093895D02*
X16669070Y-12133895D01*
X17125000Y-12600625D02*
X17165000Y-12640625D01*
X17165000Y-12600625D02*
X17125000Y-12640625D01*
X17998125Y-5615625D02*
X18038125Y-5655625D01*
X18038125Y-5615625D02*
X17998125Y-5655625D01*
X18236250Y-12600625D02*
X18276250Y-12640625D01*
X18276250Y-12600625D02*
X18236250Y-12640625D01*
X18633125Y-13791250D02*
X18673125Y-13831250D01*
X18673125Y-13791250D02*
X18633125Y-13831250D01*
X13633445Y-6033770D02*
G75*
G03*
X13553445Y-6033770I-40000J0D01*
G01*
X13553445Y-6033770D02*
G75*
G03*
X13633445Y-6033770I40000J0D01*
G01*
X13633445Y-6795770D02*
G75*
G03*
X13553445Y-6795770I-40000J0D01*
G01*
X13553445Y-6795770D02*
G75*
G03*
X13633445Y-6795770I40000J0D01*
G01*
X13633445Y-7700645D02*
G75*
G03*
X13553445Y-7700645I-40000J0D01*
G01*
X13553445Y-7700645D02*
G75*
G03*
X13633445Y-7700645I40000J0D01*
G01*
X13633445Y-8462645D02*
G75*
G03*
X13553445Y-8462645I-40000J0D01*
G01*
X13553445Y-8462645D02*
G75*
G03*
X13633445Y-8462645I40000J0D01*
G01*
X13633445Y-9367520D02*
G75*
G03*
X13553445Y-9367520I-40000J0D01*
G01*
X13553445Y-9367520D02*
G75*
G03*
X13633445Y-9367520I40000J0D01*
G01*
X13633445Y-10129520D02*
G75*
G03*
X13553445Y-10129520I-40000J0D01*
G01*
X13553445Y-10129520D02*
G75*
G03*
X13633445Y-10129520I40000J0D01*
G01*
X13633445Y-11034395D02*
G75*
G03*
X13553445Y-11034395I-40000J0D01*
G01*
X13553445Y-11034395D02*
G75*
G03*
X13633445Y-11034395I40000J0D01*
G01*
X13633445Y-11796395D02*
G75*
G03*
X13553445Y-11796395I-40000J0D01*
G01*
X13553445Y-11796395D02*
G75*
G03*
X13633445Y-11796395I40000J0D01*
G01*
X15300320Y-6033770D02*
G75*
G03*
X15220320Y-6033770I-40000J0D01*
G01*
X15220320Y-6033770D02*
G75*
G03*
X15300320Y-6033770I40000J0D01*
G01*
X15300320Y-6795770D02*
G75*
G03*
X15220320Y-6795770I-40000J0D01*
G01*
X15220320Y-6795770D02*
G75*
G03*
X15300320Y-6795770I40000J0D01*
G01*
X15300320Y-7700645D02*
G75*
G03*
X15220320Y-7700645I-40000J0D01*
G01*
X15220320Y-7700645D02*
G75*
G03*
X15300320Y-7700645I40000J0D01*
G01*
X15300320Y-8462645D02*
G75*
G03*
X15220320Y-8462645I-40000J0D01*
G01*
X15220320Y-8462645D02*
G75*
G03*
X15300320Y-8462645I40000J0D01*
G01*
X15300320Y-9367520D02*
G75*
G03*
X15220320Y-9367520I-40000J0D01*
G01*
X15220320Y-9367520D02*
G75*
G03*
X15300320Y-9367520I40000J0D01*
G01*
X15300320Y-10129520D02*
G75*
G03*
X15220320Y-10129520I-40000J0D01*
G01*
X15220320Y-10129520D02*
G75*
G03*
X15300320Y-10129520I40000J0D01*
G01*
X15300320Y-11034395D02*
G75*
G03*
X15220320Y-11034395I-40000J0D01*
G01*
X15220320Y-11034395D02*
G75*
G03*
X15300320Y-11034395I40000J0D01*
G01*
X15300320Y-11796395D02*
G75*
G03*
X15220320Y-11796395I-40000J0D01*
G01*
X15220320Y-11796395D02*
G75*
G03*
X15300320Y-11796395I40000J0D01*
G01*
X16967195Y-6033770D02*
G75*
G03*
X16887195Y-6033770I-40000J0D01*
G01*
X16887195Y-6033770D02*
G75*
G03*
X16967195Y-6033770I40000J0D01*
G01*
X16967195Y-6795770D02*
G75*
G03*
X16887195Y-6795770I-40000J0D01*
G01*
X16887195Y-6795770D02*
G75*
G03*
X16967195Y-6795770I40000J0D01*
G01*
X16967195Y-7700645D02*
G75*
G03*
X16887195Y-7700645I-40000J0D01*
G01*
X16887195Y-7700645D02*
G75*
G03*
X16967195Y-7700645I40000J0D01*
G01*
X16967195Y-8462645D02*
G75*
G03*
X16887195Y-8462645I-40000J0D01*
G01*
X16887195Y-8462645D02*
G75*
G03*
X16967195Y-8462645I40000J0D01*
G01*
X16967195Y-9367520D02*
G75*
G03*
X16887195Y-9367520I-40000J0D01*
G01*
X16887195Y-9367520D02*
G75*
G03*
X16967195Y-9367520I40000J0D01*
G01*
X16967195Y-10129520D02*
G75*
G03*
X16887195Y-10129520I-40000J0D01*
G01*
X16887195Y-10129520D02*
G75*
G03*
X16967195Y-10129520I40000J0D01*
G01*
X16967195Y-11034395D02*
G75*
G03*
X16887195Y-11034395I-40000J0D01*
G01*
X16887195Y-11034395D02*
G75*
G03*
X16967195Y-11034395I40000J0D01*
G01*
X16967195Y-11796395D02*
G75*
G03*
X16887195Y-11796395I-40000J0D01*
G01*
X16887195Y-11796395D02*
G75*
G03*
X16967195Y-11796395I40000J0D01*
G01*
X18634070Y-6033770D02*
G75*
G03*
X18554070Y-6033770I-40000J0D01*
G01*
X18554070Y-6033770D02*
G75*
G03*
X18634070Y-6033770I40000J0D01*
G01*
X18634070Y-6795770D02*
G75*
G03*
X18554070Y-6795770I-40000J0D01*
G01*
X18554070Y-6795770D02*
G75*
G03*
X18634070Y-6795770I40000J0D01*
G01*
X18634070Y-7700645D02*
G75*
G03*
X18554070Y-7700645I-40000J0D01*
G01*
X18554070Y-7700645D02*
G75*
G03*
X18634070Y-7700645I40000J0D01*
G01*
X18634070Y-8462645D02*
G75*
G03*
X18554070Y-8462645I-40000J0D01*
G01*
X18554070Y-8462645D02*
G75*
G03*
X18634070Y-8462645I40000J0D01*
G01*
X18634070Y-9367520D02*
G75*
G03*
X18554070Y-9367520I-40000J0D01*
G01*
X18554070Y-9367520D02*
G75*
G03*
X18634070Y-9367520I40000J0D01*
G01*
X18634070Y-10129520D02*
G75*
G03*
X18554070Y-10129520I-40000J0D01*
G01*
X18554070Y-10129520D02*
G75*
G03*
X18634070Y-10129520I40000J0D01*
G01*
X18634070Y-11034395D02*
G75*
G03*
X18554070Y-11034395I-40000J0D01*
G01*
X18554070Y-11034395D02*
G75*
G03*
X18634070Y-11034395I40000J0D01*
G01*
X18634070Y-11796395D02*
G75*
G03*
X18554070Y-11796395I-40000J0D01*
G01*
X18554070Y-11796395D02*
G75*
G03*
X18634070Y-11796395I40000J0D01*
G01*
X12537820Y-6535770D02*
X12537820Y-6635770D01*
X12487820Y-6585770D02*
X12587820Y-6585770D01*
X12537820Y-8202645D02*
X12537820Y-8302645D01*
X12487820Y-8252645D02*
X12587820Y-8252645D01*
X12537820Y-9869520D02*
X12537820Y-9969520D01*
X12487820Y-9919520D02*
X12587820Y-9919520D01*
X12537820Y-11536395D02*
X12537820Y-11636395D01*
X12487820Y-11586395D02*
X12587820Y-11586395D01*
X13037820Y-6745770D02*
X13037820Y-6845770D01*
X12987820Y-6795770D02*
X13087820Y-6795770D01*
X13037820Y-8412645D02*
X13037820Y-8512645D01*
X12987820Y-8462645D02*
X13087820Y-8462645D01*
X13037820Y-10079520D02*
X13037820Y-10179520D01*
X12987820Y-10129520D02*
X13087820Y-10129520D01*
X13037820Y-11746395D02*
X13037820Y-11846395D01*
X12987820Y-11796395D02*
X13087820Y-11796395D01*
X13537820Y-5640770D02*
X13537820Y-5740770D01*
X13487820Y-5690770D02*
X13587820Y-5690770D01*
X13537820Y-7307645D02*
X13537820Y-7407645D01*
X13487820Y-7357645D02*
X13587820Y-7357645D01*
X13537820Y-8974520D02*
X13537820Y-9074520D01*
X13487820Y-9024520D02*
X13587820Y-9024520D01*
X13537820Y-10641395D02*
X13537820Y-10741395D01*
X13487820Y-10691395D02*
X13587820Y-10691395D01*
X14204695Y-6535770D02*
X14204695Y-6635770D01*
X14154695Y-6585770D02*
X14254695Y-6585770D01*
X14204695Y-8202645D02*
X14204695Y-8302645D01*
X14154695Y-8252645D02*
X14254695Y-8252645D01*
X14204695Y-9869520D02*
X14204695Y-9969520D01*
X14154695Y-9919520D02*
X14254695Y-9919520D01*
X14204695Y-11536395D02*
X14204695Y-11636395D01*
X14154695Y-11586395D02*
X14254695Y-11586395D01*
X14704695Y-6745770D02*
X14704695Y-6845770D01*
X14654695Y-6795770D02*
X14754695Y-6795770D01*
X14704695Y-8412645D02*
X14704695Y-8512645D01*
X14654695Y-8462645D02*
X14754695Y-8462645D01*
X14704695Y-10079520D02*
X14704695Y-10179520D01*
X14654695Y-10129520D02*
X14754695Y-10129520D01*
X14704695Y-11746395D02*
X14704695Y-11846395D01*
X14654695Y-11796395D02*
X14754695Y-11796395D01*
X15204695Y-5640770D02*
X15204695Y-5740770D01*
X15154695Y-5690770D02*
X15254695Y-5690770D01*
X15204695Y-7307645D02*
X15204695Y-7407645D01*
X15154695Y-7357645D02*
X15254695Y-7357645D01*
X15204695Y-8974520D02*
X15204695Y-9074520D01*
X15154695Y-9024520D02*
X15254695Y-9024520D01*
X15204695Y-10641395D02*
X15204695Y-10741395D01*
X15154695Y-10691395D02*
X15254695Y-10691395D01*
X15871570Y-6535770D02*
X15871570Y-6635770D01*
X15821570Y-6585770D02*
X15921570Y-6585770D01*
X15871570Y-8202645D02*
X15871570Y-8302645D01*
X15821570Y-8252645D02*
X15921570Y-8252645D01*
X15871570Y-9869520D02*
X15871570Y-9969520D01*
X15821570Y-9919520D02*
X15921570Y-9919520D01*
X15871570Y-11536395D02*
X15871570Y-11636395D01*
X15821570Y-11586395D02*
X15921570Y-11586395D01*
X16371570Y-6745770D02*
X16371570Y-6845770D01*
X16321570Y-6795770D02*
X16421570Y-6795770D01*
X16371570Y-8412645D02*
X16371570Y-8512645D01*
X16321570Y-8462645D02*
X16421570Y-8462645D01*
X16371570Y-10079520D02*
X16371570Y-10179520D01*
X16321570Y-10129520D02*
X16421570Y-10129520D01*
X16371570Y-11746395D02*
X16371570Y-11846395D01*
X16321570Y-11796395D02*
X16421570Y-11796395D01*
X16871570Y-5640770D02*
X16871570Y-5740770D01*
X16821570Y-5690770D02*
X16921570Y-5690770D01*
X16871570Y-7307645D02*
X16871570Y-7407645D01*
X16821570Y-7357645D02*
X16921570Y-7357645D01*
X16871570Y-8974520D02*
X16871570Y-9074520D01*
X16821570Y-9024520D02*
X16921570Y-9024520D01*
X16871570Y-10641395D02*
X16871570Y-10741395D01*
X16821570Y-10691395D02*
X16921570Y-10691395D01*
X17538445Y-6535770D02*
X17538445Y-6635770D01*
X17488445Y-6585770D02*
X17588445Y-6585770D01*
X17538445Y-8202645D02*
X17538445Y-8302645D01*
X17488445Y-8252645D02*
X17588445Y-8252645D01*
X17538445Y-9869520D02*
X17538445Y-9969520D01*
X17488445Y-9919520D02*
X17588445Y-9919520D01*
X17538445Y-11536395D02*
X17538445Y-11636395D01*
X17488445Y-11586395D02*
X17588445Y-11586395D01*
X18038445Y-6745770D02*
X18038445Y-6845770D01*
X17988445Y-6795770D02*
X18088445Y-6795770D01*
X18038445Y-8412645D02*
X18038445Y-8512645D01*
X17988445Y-8462645D02*
X18088445Y-8462645D01*
X18038445Y-10079520D02*
X18038445Y-10179520D01*
X17988445Y-10129520D02*
X18088445Y-10129520D01*
X18038445Y-11746395D02*
X18038445Y-11846395D01*
X17988445Y-11796395D02*
X18088445Y-11796395D01*
X18538445Y-5640770D02*
X18538445Y-5740770D01*
X18488445Y-5690770D02*
X18588445Y-5690770D01*
X18538445Y-7307645D02*
X18538445Y-7407645D01*
X18488445Y-7357645D02*
X18588445Y-7357645D01*
X18538445Y-8974520D02*
X18538445Y-9074520D01*
X18488445Y-9024520D02*
X18588445Y-9024520D01*
X18538445Y-10641395D02*
X18538445Y-10741395D01*
X18488445Y-10691395D02*
X18588445Y-10691395D01*
D11*
X12343597Y-14412254D02*
X12343597Y-14212254D01*
X12343597Y-14212254D02*
X12391216Y-14212254D01*
X12391216Y-14212254D02*
X12419787Y-14221778D01*
X12419787Y-14221778D02*
X12438835Y-14240825D01*
X12438835Y-14240825D02*
X12448359Y-14259873D01*
X12448359Y-14259873D02*
X12457882Y-14297968D01*
X12457882Y-14297968D02*
X12457882Y-14326539D01*
X12457882Y-14326539D02*
X12448359Y-14364635D01*
X12448359Y-14364635D02*
X12438835Y-14383682D01*
X12438835Y-14383682D02*
X12419787Y-14402730D01*
X12419787Y-14402730D02*
X12391216Y-14412254D01*
X12391216Y-14412254D02*
X12343597Y-14412254D01*
X12543597Y-14412254D02*
X12543597Y-14278920D01*
X12543597Y-14317016D02*
X12553121Y-14297968D01*
X12553121Y-14297968D02*
X12562644Y-14288444D01*
X12562644Y-14288444D02*
X12581692Y-14278920D01*
X12581692Y-14278920D02*
X12600740Y-14278920D01*
X12667406Y-14412254D02*
X12667406Y-14278920D01*
X12667406Y-14212254D02*
X12657882Y-14221778D01*
X12657882Y-14221778D02*
X12667406Y-14231301D01*
X12667406Y-14231301D02*
X12676930Y-14221778D01*
X12676930Y-14221778D02*
X12667406Y-14212254D01*
X12667406Y-14212254D02*
X12667406Y-14231301D01*
X12791216Y-14412254D02*
X12772168Y-14402730D01*
X12772168Y-14402730D02*
X12762644Y-14383682D01*
X12762644Y-14383682D02*
X12762644Y-14212254D01*
X12895978Y-14412254D02*
X12876930Y-14402730D01*
X12876930Y-14402730D02*
X12867406Y-14383682D01*
X12867406Y-14383682D02*
X12867406Y-14212254D01*
X13124549Y-14412254D02*
X13124549Y-14212254D01*
X13124549Y-14212254D02*
X13191216Y-14355111D01*
X13191216Y-14355111D02*
X13257882Y-14212254D01*
X13257882Y-14212254D02*
X13257882Y-14412254D01*
X13438835Y-14412254D02*
X13438835Y-14307492D01*
X13438835Y-14307492D02*
X13429311Y-14288444D01*
X13429311Y-14288444D02*
X13410263Y-14278920D01*
X13410263Y-14278920D02*
X13372168Y-14278920D01*
X13372168Y-14278920D02*
X13353121Y-14288444D01*
X13438835Y-14402730D02*
X13419787Y-14412254D01*
X13419787Y-14412254D02*
X13372168Y-14412254D01*
X13372168Y-14412254D02*
X13353121Y-14402730D01*
X13353121Y-14402730D02*
X13343597Y-14383682D01*
X13343597Y-14383682D02*
X13343597Y-14364635D01*
X13343597Y-14364635D02*
X13353121Y-14345587D01*
X13353121Y-14345587D02*
X13372168Y-14336063D01*
X13372168Y-14336063D02*
X13419787Y-14336063D01*
X13419787Y-14336063D02*
X13438835Y-14326539D01*
X13534073Y-14278920D02*
X13534073Y-14478920D01*
X13534073Y-14288444D02*
X13553121Y-14278920D01*
X13553121Y-14278920D02*
X13591216Y-14278920D01*
X13591216Y-14278920D02*
X13610263Y-14288444D01*
X13610263Y-14288444D02*
X13619787Y-14297968D01*
X13619787Y-14297968D02*
X13629311Y-14317016D01*
X13629311Y-14317016D02*
X13629311Y-14374158D01*
X13629311Y-14374158D02*
X13619787Y-14393206D01*
X13619787Y-14393206D02*
X13610263Y-14402730D01*
X13610263Y-14402730D02*
X13591216Y-14412254D01*
X13591216Y-14412254D02*
X13553121Y-14412254D01*
X13553121Y-14412254D02*
X13534073Y-14402730D01*
X13715025Y-14393206D02*
X13724549Y-14402730D01*
X13724549Y-14402730D02*
X13715025Y-14412254D01*
X13715025Y-14412254D02*
X13705502Y-14402730D01*
X13705502Y-14402730D02*
X13715025Y-14393206D01*
X13715025Y-14393206D02*
X13715025Y-14412254D01*
X13715025Y-14288444D02*
X13724549Y-14297968D01*
X13724549Y-14297968D02*
X13715025Y-14307492D01*
X13715025Y-14307492D02*
X13705502Y-14297968D01*
X13705502Y-14297968D02*
X13715025Y-14288444D01*
X13715025Y-14288444D02*
X13715025Y-14307492D01*
D12*
X12042820Y-14720770D02*
X12082820Y-14760770D01*
X12082820Y-14720770D02*
X12042820Y-14760770D01*
D11*
X12381692Y-14632254D02*
X12400740Y-14632254D01*
X12400740Y-14632254D02*
X12419787Y-14641778D01*
X12419787Y-14641778D02*
X12429311Y-14651301D01*
X12429311Y-14651301D02*
X12438835Y-14670349D01*
X12438835Y-14670349D02*
X12448359Y-14708444D01*
X12448359Y-14708444D02*
X12448359Y-14756063D01*
X12448359Y-14756063D02*
X12438835Y-14794158D01*
X12438835Y-14794158D02*
X12429311Y-14813206D01*
X12429311Y-14813206D02*
X12419787Y-14822730D01*
X12419787Y-14822730D02*
X12400740Y-14832254D01*
X12400740Y-14832254D02*
X12381692Y-14832254D01*
X12381692Y-14832254D02*
X12362644Y-14822730D01*
X12362644Y-14822730D02*
X12353121Y-14813206D01*
X12353121Y-14813206D02*
X12343597Y-14794158D01*
X12343597Y-14794158D02*
X12334073Y-14756063D01*
X12334073Y-14756063D02*
X12334073Y-14708444D01*
X12334073Y-14708444D02*
X12343597Y-14670349D01*
X12343597Y-14670349D02*
X12353121Y-14651301D01*
X12353121Y-14651301D02*
X12362644Y-14641778D01*
X12362644Y-14641778D02*
X12381692Y-14632254D01*
X12534073Y-14813206D02*
X12543597Y-14822730D01*
X12543597Y-14822730D02*
X12534073Y-14832254D01*
X12534073Y-14832254D02*
X12524549Y-14822730D01*
X12524549Y-14822730D02*
X12534073Y-14813206D01*
X12534073Y-14813206D02*
X12534073Y-14832254D01*
X12715025Y-14698920D02*
X12715025Y-14832254D01*
X12667406Y-14622730D02*
X12619787Y-14765587D01*
X12619787Y-14765587D02*
X12743597Y-14765587D01*
X12857882Y-14632254D02*
X12876930Y-14632254D01*
X12876930Y-14632254D02*
X12895978Y-14641778D01*
X12895978Y-14641778D02*
X12905502Y-14651301D01*
X12905502Y-14651301D02*
X12915025Y-14670349D01*
X12915025Y-14670349D02*
X12924549Y-14708444D01*
X12924549Y-14708444D02*
X12924549Y-14756063D01*
X12924549Y-14756063D02*
X12915025Y-14794158D01*
X12915025Y-14794158D02*
X12905502Y-14813206D01*
X12905502Y-14813206D02*
X12895978Y-14822730D01*
X12895978Y-14822730D02*
X12876930Y-14832254D01*
X12876930Y-14832254D02*
X12857882Y-14832254D01*
X12857882Y-14832254D02*
X12838835Y-14822730D01*
X12838835Y-14822730D02*
X12829311Y-14813206D01*
X12829311Y-14813206D02*
X12819787Y-14794158D01*
X12819787Y-14794158D02*
X12810263Y-14756063D01*
X12810263Y-14756063D02*
X12810263Y-14708444D01*
X12810263Y-14708444D02*
X12819787Y-14670349D01*
X12819787Y-14670349D02*
X12829311Y-14651301D01*
X12829311Y-14651301D02*
X12838835Y-14641778D01*
X12838835Y-14641778D02*
X12857882Y-14632254D01*
X13048359Y-14632254D02*
X13067406Y-14632254D01*
X13067406Y-14632254D02*
X13086454Y-14641778D01*
X13086454Y-14641778D02*
X13095978Y-14651301D01*
X13095978Y-14651301D02*
X13105502Y-14670349D01*
X13105502Y-14670349D02*
X13115025Y-14708444D01*
X13115025Y-14708444D02*
X13115025Y-14756063D01*
X13115025Y-14756063D02*
X13105502Y-14794158D01*
X13105502Y-14794158D02*
X13095978Y-14813206D01*
X13095978Y-14813206D02*
X13086454Y-14822730D01*
X13086454Y-14822730D02*
X13067406Y-14832254D01*
X13067406Y-14832254D02*
X13048359Y-14832254D01*
X13048359Y-14832254D02*
X13029311Y-14822730D01*
X13029311Y-14822730D02*
X13019787Y-14813206D01*
X13019787Y-14813206D02*
X13010263Y-14794158D01*
X13010263Y-14794158D02*
X13000740Y-14756063D01*
X13000740Y-14756063D02*
X13000740Y-14708444D01*
X13000740Y-14708444D02*
X13010263Y-14670349D01*
X13010263Y-14670349D02*
X13019787Y-14651301D01*
X13019787Y-14651301D02*
X13029311Y-14641778D01*
X13029311Y-14641778D02*
X13048359Y-14632254D01*
X13200740Y-14832254D02*
X13200740Y-14698920D01*
X13200740Y-14717968D02*
X13210263Y-14708444D01*
X13210263Y-14708444D02*
X13229311Y-14698920D01*
X13229311Y-14698920D02*
X13257883Y-14698920D01*
X13257883Y-14698920D02*
X13276930Y-14708444D01*
X13276930Y-14708444D02*
X13286454Y-14727492D01*
X13286454Y-14727492D02*
X13286454Y-14832254D01*
X13286454Y-14727492D02*
X13295978Y-14708444D01*
X13295978Y-14708444D02*
X13315025Y-14698920D01*
X13315025Y-14698920D02*
X13343597Y-14698920D01*
X13343597Y-14698920D02*
X13362644Y-14708444D01*
X13362644Y-14708444D02*
X13372168Y-14727492D01*
X13372168Y-14727492D02*
X13372168Y-14832254D01*
X13467406Y-14832254D02*
X13467406Y-14698920D01*
X13467406Y-14717968D02*
X13476930Y-14708444D01*
X13476930Y-14708444D02*
X13495978Y-14698920D01*
X13495978Y-14698920D02*
X13524549Y-14698920D01*
X13524549Y-14698920D02*
X13543597Y-14708444D01*
X13543597Y-14708444D02*
X13553121Y-14727492D01*
X13553121Y-14727492D02*
X13553121Y-14832254D01*
X13553121Y-14727492D02*
X13562644Y-14708444D01*
X13562644Y-14708444D02*
X13581692Y-14698920D01*
X13581692Y-14698920D02*
X13610263Y-14698920D01*
X13610263Y-14698920D02*
X13629311Y-14708444D01*
X13629311Y-14708444D02*
X13638835Y-14727492D01*
X13638835Y-14727492D02*
X13638835Y-14832254D01*
X14029311Y-14622730D02*
X13857883Y-14879873D01*
X14286454Y-14632254D02*
X14305502Y-14632254D01*
X14305502Y-14632254D02*
X14324549Y-14641778D01*
X14324549Y-14641778D02*
X14334073Y-14651301D01*
X14334073Y-14651301D02*
X14343597Y-14670349D01*
X14343597Y-14670349D02*
X14353121Y-14708444D01*
X14353121Y-14708444D02*
X14353121Y-14756063D01*
X14353121Y-14756063D02*
X14343597Y-14794158D01*
X14343597Y-14794158D02*
X14334073Y-14813206D01*
X14334073Y-14813206D02*
X14324549Y-14822730D01*
X14324549Y-14822730D02*
X14305502Y-14832254D01*
X14305502Y-14832254D02*
X14286454Y-14832254D01*
X14286454Y-14832254D02*
X14267406Y-14822730D01*
X14267406Y-14822730D02*
X14257883Y-14813206D01*
X14257883Y-14813206D02*
X14248359Y-14794158D01*
X14248359Y-14794158D02*
X14238835Y-14756063D01*
X14238835Y-14756063D02*
X14238835Y-14708444D01*
X14238835Y-14708444D02*
X14248359Y-14670349D01*
X14248359Y-14670349D02*
X14257883Y-14651301D01*
X14257883Y-14651301D02*
X14267406Y-14641778D01*
X14267406Y-14641778D02*
X14286454Y-14632254D01*
X14438835Y-14813206D02*
X14448359Y-14822730D01*
X14448359Y-14822730D02*
X14438835Y-14832254D01*
X14438835Y-14832254D02*
X14429311Y-14822730D01*
X14429311Y-14822730D02*
X14438835Y-14813206D01*
X14438835Y-14813206D02*
X14438835Y-14832254D01*
X14572168Y-14632254D02*
X14591216Y-14632254D01*
X14591216Y-14632254D02*
X14610264Y-14641778D01*
X14610264Y-14641778D02*
X14619787Y-14651301D01*
X14619787Y-14651301D02*
X14629311Y-14670349D01*
X14629311Y-14670349D02*
X14638835Y-14708444D01*
X14638835Y-14708444D02*
X14638835Y-14756063D01*
X14638835Y-14756063D02*
X14629311Y-14794158D01*
X14629311Y-14794158D02*
X14619787Y-14813206D01*
X14619787Y-14813206D02*
X14610264Y-14822730D01*
X14610264Y-14822730D02*
X14591216Y-14832254D01*
X14591216Y-14832254D02*
X14572168Y-14832254D01*
X14572168Y-14832254D02*
X14553121Y-14822730D01*
X14553121Y-14822730D02*
X14543597Y-14813206D01*
X14543597Y-14813206D02*
X14534073Y-14794158D01*
X14534073Y-14794158D02*
X14524549Y-14756063D01*
X14524549Y-14756063D02*
X14524549Y-14708444D01*
X14524549Y-14708444D02*
X14534073Y-14670349D01*
X14534073Y-14670349D02*
X14543597Y-14651301D01*
X14543597Y-14651301D02*
X14553121Y-14641778D01*
X14553121Y-14641778D02*
X14572168Y-14632254D01*
X14829311Y-14832254D02*
X14715026Y-14832254D01*
X14772168Y-14832254D02*
X14772168Y-14632254D01*
X14772168Y-14632254D02*
X14753121Y-14660825D01*
X14753121Y-14660825D02*
X14734073Y-14679873D01*
X14734073Y-14679873D02*
X14715026Y-14689397D01*
X15010264Y-14632254D02*
X14915026Y-14632254D01*
X14915026Y-14632254D02*
X14905502Y-14727492D01*
X14905502Y-14727492D02*
X14915026Y-14717968D01*
X14915026Y-14717968D02*
X14934073Y-14708444D01*
X14934073Y-14708444D02*
X14981692Y-14708444D01*
X14981692Y-14708444D02*
X15000740Y-14717968D01*
X15000740Y-14717968D02*
X15010264Y-14727492D01*
X15010264Y-14727492D02*
X15019787Y-14746539D01*
X15019787Y-14746539D02*
X15019787Y-14794158D01*
X15019787Y-14794158D02*
X15010264Y-14813206D01*
X15010264Y-14813206D02*
X15000740Y-14822730D01*
X15000740Y-14822730D02*
X14981692Y-14832254D01*
X14981692Y-14832254D02*
X14934073Y-14832254D01*
X14934073Y-14832254D02*
X14915026Y-14822730D01*
X14915026Y-14822730D02*
X14905502Y-14813206D01*
X15086454Y-14632254D02*
X15219787Y-14632254D01*
X15219787Y-14632254D02*
X15134073Y-14832254D01*
X15286454Y-14632254D02*
X15286454Y-14670349D01*
X15362645Y-14632254D02*
X15362645Y-14670349D01*
X15657883Y-14908444D02*
X15648359Y-14898920D01*
X15648359Y-14898920D02*
X15629311Y-14870349D01*
X15629311Y-14870349D02*
X15619788Y-14851301D01*
X15619788Y-14851301D02*
X15610264Y-14822730D01*
X15610264Y-14822730D02*
X15600740Y-14775111D01*
X15600740Y-14775111D02*
X15600740Y-14737016D01*
X15600740Y-14737016D02*
X15610264Y-14689397D01*
X15610264Y-14689397D02*
X15619788Y-14660825D01*
X15619788Y-14660825D02*
X15629311Y-14641778D01*
X15629311Y-14641778D02*
X15648359Y-14613206D01*
X15648359Y-14613206D02*
X15657883Y-14603682D01*
X15838835Y-14832254D02*
X15724549Y-14832254D01*
X15781692Y-14832254D02*
X15781692Y-14632254D01*
X15781692Y-14632254D02*
X15762645Y-14660825D01*
X15762645Y-14660825D02*
X15743597Y-14679873D01*
X15743597Y-14679873D02*
X15724549Y-14689397D01*
X15905502Y-14632254D02*
X16038835Y-14632254D01*
X16038835Y-14632254D02*
X15953121Y-14832254D01*
X16267407Y-14832254D02*
X16267407Y-14632254D01*
X16353121Y-14832254D02*
X16353121Y-14727492D01*
X16353121Y-14727492D02*
X16343597Y-14708444D01*
X16343597Y-14708444D02*
X16324550Y-14698920D01*
X16324550Y-14698920D02*
X16295978Y-14698920D01*
X16295978Y-14698920D02*
X16276930Y-14708444D01*
X16276930Y-14708444D02*
X16267407Y-14717968D01*
X16476930Y-14832254D02*
X16457883Y-14822730D01*
X16457883Y-14822730D02*
X16448359Y-14813206D01*
X16448359Y-14813206D02*
X16438835Y-14794158D01*
X16438835Y-14794158D02*
X16438835Y-14737016D01*
X16438835Y-14737016D02*
X16448359Y-14717968D01*
X16448359Y-14717968D02*
X16457883Y-14708444D01*
X16457883Y-14708444D02*
X16476930Y-14698920D01*
X16476930Y-14698920D02*
X16505502Y-14698920D01*
X16505502Y-14698920D02*
X16524550Y-14708444D01*
X16524550Y-14708444D02*
X16534073Y-14717968D01*
X16534073Y-14717968D02*
X16543597Y-14737016D01*
X16543597Y-14737016D02*
X16543597Y-14794158D01*
X16543597Y-14794158D02*
X16534073Y-14813206D01*
X16534073Y-14813206D02*
X16524550Y-14822730D01*
X16524550Y-14822730D02*
X16505502Y-14832254D01*
X16505502Y-14832254D02*
X16476930Y-14832254D01*
X16657883Y-14832254D02*
X16638835Y-14822730D01*
X16638835Y-14822730D02*
X16629311Y-14803682D01*
X16629311Y-14803682D02*
X16629311Y-14632254D01*
X16810264Y-14822730D02*
X16791216Y-14832254D01*
X16791216Y-14832254D02*
X16753121Y-14832254D01*
X16753121Y-14832254D02*
X16734073Y-14822730D01*
X16734073Y-14822730D02*
X16724550Y-14803682D01*
X16724550Y-14803682D02*
X16724550Y-14727492D01*
X16724550Y-14727492D02*
X16734073Y-14708444D01*
X16734073Y-14708444D02*
X16753121Y-14698920D01*
X16753121Y-14698920D02*
X16791216Y-14698920D01*
X16791216Y-14698920D02*
X16810264Y-14708444D01*
X16810264Y-14708444D02*
X16819788Y-14727492D01*
X16819788Y-14727492D02*
X16819788Y-14746539D01*
X16819788Y-14746539D02*
X16724550Y-14765587D01*
X16895978Y-14822730D02*
X16915026Y-14832254D01*
X16915026Y-14832254D02*
X16953121Y-14832254D01*
X16953121Y-14832254D02*
X16972169Y-14822730D01*
X16972169Y-14822730D02*
X16981693Y-14803682D01*
X16981693Y-14803682D02*
X16981693Y-14794158D01*
X16981693Y-14794158D02*
X16972169Y-14775111D01*
X16972169Y-14775111D02*
X16953121Y-14765587D01*
X16953121Y-14765587D02*
X16924550Y-14765587D01*
X16924550Y-14765587D02*
X16905502Y-14756063D01*
X16905502Y-14756063D02*
X16895978Y-14737016D01*
X16895978Y-14737016D02*
X16895978Y-14727492D01*
X16895978Y-14727492D02*
X16905502Y-14708444D01*
X16905502Y-14708444D02*
X16924550Y-14698920D01*
X16924550Y-14698920D02*
X16953121Y-14698920D01*
X16953121Y-14698920D02*
X16972169Y-14708444D01*
X17048359Y-14908444D02*
X17057883Y-14898920D01*
X17057883Y-14898920D02*
X17076931Y-14870349D01*
X17076931Y-14870349D02*
X17086454Y-14851301D01*
X17086454Y-14851301D02*
X17095978Y-14822730D01*
X17095978Y-14822730D02*
X17105502Y-14775111D01*
X17105502Y-14775111D02*
X17105502Y-14737016D01*
X17105502Y-14737016D02*
X17095978Y-14689397D01*
X17095978Y-14689397D02*
X17086454Y-14660825D01*
X17086454Y-14660825D02*
X17076931Y-14641778D01*
X17076931Y-14641778D02*
X17057883Y-14613206D01*
X17057883Y-14613206D02*
X17048359Y-14603682D01*
D12*
X12082820Y-15004770D02*
G75*
G03*
X12002820Y-15004770I-40000J0D01*
G01*
X12002820Y-15004770D02*
G75*
G03*
X12082820Y-15004770I40000J0D01*
G01*
D11*
X12381692Y-14896254D02*
X12400740Y-14896254D01*
X12400740Y-14896254D02*
X12419787Y-14905778D01*
X12419787Y-14905778D02*
X12429311Y-14915301D01*
X12429311Y-14915301D02*
X12438835Y-14934349D01*
X12438835Y-14934349D02*
X12448359Y-14972444D01*
X12448359Y-14972444D02*
X12448359Y-15020063D01*
X12448359Y-15020063D02*
X12438835Y-15058158D01*
X12438835Y-15058158D02*
X12429311Y-15077206D01*
X12429311Y-15077206D02*
X12419787Y-15086730D01*
X12419787Y-15086730D02*
X12400740Y-15096254D01*
X12400740Y-15096254D02*
X12381692Y-15096254D01*
X12381692Y-15096254D02*
X12362644Y-15086730D01*
X12362644Y-15086730D02*
X12353121Y-15077206D01*
X12353121Y-15077206D02*
X12343597Y-15058158D01*
X12343597Y-15058158D02*
X12334073Y-15020063D01*
X12334073Y-15020063D02*
X12334073Y-14972444D01*
X12334073Y-14972444D02*
X12343597Y-14934349D01*
X12343597Y-14934349D02*
X12353121Y-14915301D01*
X12353121Y-14915301D02*
X12362644Y-14905778D01*
X12362644Y-14905778D02*
X12381692Y-14896254D01*
X12534073Y-15077206D02*
X12543597Y-15086730D01*
X12543597Y-15086730D02*
X12534073Y-15096254D01*
X12534073Y-15096254D02*
X12524549Y-15086730D01*
X12524549Y-15086730D02*
X12534073Y-15077206D01*
X12534073Y-15077206D02*
X12534073Y-15096254D01*
X12657882Y-14981968D02*
X12638835Y-14972444D01*
X12638835Y-14972444D02*
X12629311Y-14962920D01*
X12629311Y-14962920D02*
X12619787Y-14943873D01*
X12619787Y-14943873D02*
X12619787Y-14934349D01*
X12619787Y-14934349D02*
X12629311Y-14915301D01*
X12629311Y-14915301D02*
X12638835Y-14905778D01*
X12638835Y-14905778D02*
X12657882Y-14896254D01*
X12657882Y-14896254D02*
X12695978Y-14896254D01*
X12695978Y-14896254D02*
X12715025Y-14905778D01*
X12715025Y-14905778D02*
X12724549Y-14915301D01*
X12724549Y-14915301D02*
X12734073Y-14934349D01*
X12734073Y-14934349D02*
X12734073Y-14943873D01*
X12734073Y-14943873D02*
X12724549Y-14962920D01*
X12724549Y-14962920D02*
X12715025Y-14972444D01*
X12715025Y-14972444D02*
X12695978Y-14981968D01*
X12695978Y-14981968D02*
X12657882Y-14981968D01*
X12657882Y-14981968D02*
X12638835Y-14991492D01*
X12638835Y-14991492D02*
X12629311Y-15001016D01*
X12629311Y-15001016D02*
X12619787Y-15020063D01*
X12619787Y-15020063D02*
X12619787Y-15058158D01*
X12619787Y-15058158D02*
X12629311Y-15077206D01*
X12629311Y-15077206D02*
X12638835Y-15086730D01*
X12638835Y-15086730D02*
X12657882Y-15096254D01*
X12657882Y-15096254D02*
X12695978Y-15096254D01*
X12695978Y-15096254D02*
X12715025Y-15086730D01*
X12715025Y-15086730D02*
X12724549Y-15077206D01*
X12724549Y-15077206D02*
X12734073Y-15058158D01*
X12734073Y-15058158D02*
X12734073Y-15020063D01*
X12734073Y-15020063D02*
X12724549Y-15001016D01*
X12724549Y-15001016D02*
X12715025Y-14991492D01*
X12715025Y-14991492D02*
X12695978Y-14981968D01*
X12857882Y-14896254D02*
X12876930Y-14896254D01*
X12876930Y-14896254D02*
X12895978Y-14905778D01*
X12895978Y-14905778D02*
X12905502Y-14915301D01*
X12905502Y-14915301D02*
X12915025Y-14934349D01*
X12915025Y-14934349D02*
X12924549Y-14972444D01*
X12924549Y-14972444D02*
X12924549Y-15020063D01*
X12924549Y-15020063D02*
X12915025Y-15058158D01*
X12915025Y-15058158D02*
X12905502Y-15077206D01*
X12905502Y-15077206D02*
X12895978Y-15086730D01*
X12895978Y-15086730D02*
X12876930Y-15096254D01*
X12876930Y-15096254D02*
X12857882Y-15096254D01*
X12857882Y-15096254D02*
X12838835Y-15086730D01*
X12838835Y-15086730D02*
X12829311Y-15077206D01*
X12829311Y-15077206D02*
X12819787Y-15058158D01*
X12819787Y-15058158D02*
X12810263Y-15020063D01*
X12810263Y-15020063D02*
X12810263Y-14972444D01*
X12810263Y-14972444D02*
X12819787Y-14934349D01*
X12819787Y-14934349D02*
X12829311Y-14915301D01*
X12829311Y-14915301D02*
X12838835Y-14905778D01*
X12838835Y-14905778D02*
X12857882Y-14896254D01*
X13048359Y-14896254D02*
X13067406Y-14896254D01*
X13067406Y-14896254D02*
X13086454Y-14905778D01*
X13086454Y-14905778D02*
X13095978Y-14915301D01*
X13095978Y-14915301D02*
X13105502Y-14934349D01*
X13105502Y-14934349D02*
X13115025Y-14972444D01*
X13115025Y-14972444D02*
X13115025Y-15020063D01*
X13115025Y-15020063D02*
X13105502Y-15058158D01*
X13105502Y-15058158D02*
X13095978Y-15077206D01*
X13095978Y-15077206D02*
X13086454Y-15086730D01*
X13086454Y-15086730D02*
X13067406Y-15096254D01*
X13067406Y-15096254D02*
X13048359Y-15096254D01*
X13048359Y-15096254D02*
X13029311Y-15086730D01*
X13029311Y-15086730D02*
X13019787Y-15077206D01*
X13019787Y-15077206D02*
X13010263Y-15058158D01*
X13010263Y-15058158D02*
X13000740Y-15020063D01*
X13000740Y-15020063D02*
X13000740Y-14972444D01*
X13000740Y-14972444D02*
X13010263Y-14934349D01*
X13010263Y-14934349D02*
X13019787Y-14915301D01*
X13019787Y-14915301D02*
X13029311Y-14905778D01*
X13029311Y-14905778D02*
X13048359Y-14896254D01*
X13200740Y-15096254D02*
X13200740Y-14962920D01*
X13200740Y-14981968D02*
X13210263Y-14972444D01*
X13210263Y-14972444D02*
X13229311Y-14962920D01*
X13229311Y-14962920D02*
X13257883Y-14962920D01*
X13257883Y-14962920D02*
X13276930Y-14972444D01*
X13276930Y-14972444D02*
X13286454Y-14991492D01*
X13286454Y-14991492D02*
X13286454Y-15096254D01*
X13286454Y-14991492D02*
X13295978Y-14972444D01*
X13295978Y-14972444D02*
X13315025Y-14962920D01*
X13315025Y-14962920D02*
X13343597Y-14962920D01*
X13343597Y-14962920D02*
X13362644Y-14972444D01*
X13362644Y-14972444D02*
X13372168Y-14991492D01*
X13372168Y-14991492D02*
X13372168Y-15096254D01*
X13467406Y-15096254D02*
X13467406Y-14962920D01*
X13467406Y-14981968D02*
X13476930Y-14972444D01*
X13476930Y-14972444D02*
X13495978Y-14962920D01*
X13495978Y-14962920D02*
X13524549Y-14962920D01*
X13524549Y-14962920D02*
X13543597Y-14972444D01*
X13543597Y-14972444D02*
X13553121Y-14991492D01*
X13553121Y-14991492D02*
X13553121Y-15096254D01*
X13553121Y-14991492D02*
X13562644Y-14972444D01*
X13562644Y-14972444D02*
X13581692Y-14962920D01*
X13581692Y-14962920D02*
X13610263Y-14962920D01*
X13610263Y-14962920D02*
X13629311Y-14972444D01*
X13629311Y-14972444D02*
X13638835Y-14991492D01*
X13638835Y-14991492D02*
X13638835Y-15096254D01*
X14029311Y-14886730D02*
X13857883Y-15143873D01*
X14286454Y-14896254D02*
X14305502Y-14896254D01*
X14305502Y-14896254D02*
X14324549Y-14905778D01*
X14324549Y-14905778D02*
X14334073Y-14915301D01*
X14334073Y-14915301D02*
X14343597Y-14934349D01*
X14343597Y-14934349D02*
X14353121Y-14972444D01*
X14353121Y-14972444D02*
X14353121Y-15020063D01*
X14353121Y-15020063D02*
X14343597Y-15058158D01*
X14343597Y-15058158D02*
X14334073Y-15077206D01*
X14334073Y-15077206D02*
X14324549Y-15086730D01*
X14324549Y-15086730D02*
X14305502Y-15096254D01*
X14305502Y-15096254D02*
X14286454Y-15096254D01*
X14286454Y-15096254D02*
X14267406Y-15086730D01*
X14267406Y-15086730D02*
X14257883Y-15077206D01*
X14257883Y-15077206D02*
X14248359Y-15058158D01*
X14248359Y-15058158D02*
X14238835Y-15020063D01*
X14238835Y-15020063D02*
X14238835Y-14972444D01*
X14238835Y-14972444D02*
X14248359Y-14934349D01*
X14248359Y-14934349D02*
X14257883Y-14915301D01*
X14257883Y-14915301D02*
X14267406Y-14905778D01*
X14267406Y-14905778D02*
X14286454Y-14896254D01*
X14438835Y-15077206D02*
X14448359Y-15086730D01*
X14448359Y-15086730D02*
X14438835Y-15096254D01*
X14438835Y-15096254D02*
X14429311Y-15086730D01*
X14429311Y-15086730D02*
X14438835Y-15077206D01*
X14438835Y-15077206D02*
X14438835Y-15096254D01*
X14572168Y-14896254D02*
X14591216Y-14896254D01*
X14591216Y-14896254D02*
X14610264Y-14905778D01*
X14610264Y-14905778D02*
X14619787Y-14915301D01*
X14619787Y-14915301D02*
X14629311Y-14934349D01*
X14629311Y-14934349D02*
X14638835Y-14972444D01*
X14638835Y-14972444D02*
X14638835Y-15020063D01*
X14638835Y-15020063D02*
X14629311Y-15058158D01*
X14629311Y-15058158D02*
X14619787Y-15077206D01*
X14619787Y-15077206D02*
X14610264Y-15086730D01*
X14610264Y-15086730D02*
X14591216Y-15096254D01*
X14591216Y-15096254D02*
X14572168Y-15096254D01*
X14572168Y-15096254D02*
X14553121Y-15086730D01*
X14553121Y-15086730D02*
X14543597Y-15077206D01*
X14543597Y-15077206D02*
X14534073Y-15058158D01*
X14534073Y-15058158D02*
X14524549Y-15020063D01*
X14524549Y-15020063D02*
X14524549Y-14972444D01*
X14524549Y-14972444D02*
X14534073Y-14934349D01*
X14534073Y-14934349D02*
X14543597Y-14915301D01*
X14543597Y-14915301D02*
X14553121Y-14905778D01*
X14553121Y-14905778D02*
X14572168Y-14896254D01*
X14705502Y-14896254D02*
X14829311Y-14896254D01*
X14829311Y-14896254D02*
X14762645Y-14972444D01*
X14762645Y-14972444D02*
X14791216Y-14972444D01*
X14791216Y-14972444D02*
X14810264Y-14981968D01*
X14810264Y-14981968D02*
X14819787Y-14991492D01*
X14819787Y-14991492D02*
X14829311Y-15010539D01*
X14829311Y-15010539D02*
X14829311Y-15058158D01*
X14829311Y-15058158D02*
X14819787Y-15077206D01*
X14819787Y-15077206D02*
X14810264Y-15086730D01*
X14810264Y-15086730D02*
X14791216Y-15096254D01*
X14791216Y-15096254D02*
X14734073Y-15096254D01*
X14734073Y-15096254D02*
X14715026Y-15086730D01*
X14715026Y-15086730D02*
X14705502Y-15077206D01*
X15019787Y-15096254D02*
X14905502Y-15096254D01*
X14962645Y-15096254D02*
X14962645Y-14896254D01*
X14962645Y-14896254D02*
X14943597Y-14924825D01*
X14943597Y-14924825D02*
X14924549Y-14943873D01*
X14924549Y-14943873D02*
X14905502Y-14953397D01*
X15200740Y-14896254D02*
X15105502Y-14896254D01*
X15105502Y-14896254D02*
X15095978Y-14991492D01*
X15095978Y-14991492D02*
X15105502Y-14981968D01*
X15105502Y-14981968D02*
X15124549Y-14972444D01*
X15124549Y-14972444D02*
X15172168Y-14972444D01*
X15172168Y-14972444D02*
X15191216Y-14981968D01*
X15191216Y-14981968D02*
X15200740Y-14991492D01*
X15200740Y-14991492D02*
X15210264Y-15010539D01*
X15210264Y-15010539D02*
X15210264Y-15058158D01*
X15210264Y-15058158D02*
X15200740Y-15077206D01*
X15200740Y-15077206D02*
X15191216Y-15086730D01*
X15191216Y-15086730D02*
X15172168Y-15096254D01*
X15172168Y-15096254D02*
X15124549Y-15096254D01*
X15124549Y-15096254D02*
X15105502Y-15086730D01*
X15105502Y-15086730D02*
X15095978Y-15077206D01*
X15286454Y-14896254D02*
X15286454Y-14934349D01*
X15362645Y-14896254D02*
X15362645Y-14934349D01*
X15657883Y-15172444D02*
X15648359Y-15162920D01*
X15648359Y-15162920D02*
X15629311Y-15134349D01*
X15629311Y-15134349D02*
X15619788Y-15115301D01*
X15619788Y-15115301D02*
X15610264Y-15086730D01*
X15610264Y-15086730D02*
X15600740Y-15039111D01*
X15600740Y-15039111D02*
X15600740Y-15001016D01*
X15600740Y-15001016D02*
X15610264Y-14953397D01*
X15610264Y-14953397D02*
X15619788Y-14924825D01*
X15619788Y-14924825D02*
X15629311Y-14905778D01*
X15629311Y-14905778D02*
X15648359Y-14877206D01*
X15648359Y-14877206D02*
X15657883Y-14867682D01*
X15715026Y-14896254D02*
X15838835Y-14896254D01*
X15838835Y-14896254D02*
X15772168Y-14972444D01*
X15772168Y-14972444D02*
X15800740Y-14972444D01*
X15800740Y-14972444D02*
X15819788Y-14981968D01*
X15819788Y-14981968D02*
X15829311Y-14991492D01*
X15829311Y-14991492D02*
X15838835Y-15010539D01*
X15838835Y-15010539D02*
X15838835Y-15058158D01*
X15838835Y-15058158D02*
X15829311Y-15077206D01*
X15829311Y-15077206D02*
X15819788Y-15086730D01*
X15819788Y-15086730D02*
X15800740Y-15096254D01*
X15800740Y-15096254D02*
X15743597Y-15096254D01*
X15743597Y-15096254D02*
X15724549Y-15086730D01*
X15724549Y-15086730D02*
X15715026Y-15077206D01*
X15915026Y-14915301D02*
X15924549Y-14905778D01*
X15924549Y-14905778D02*
X15943597Y-14896254D01*
X15943597Y-14896254D02*
X15991216Y-14896254D01*
X15991216Y-14896254D02*
X16010264Y-14905778D01*
X16010264Y-14905778D02*
X16019788Y-14915301D01*
X16019788Y-14915301D02*
X16029311Y-14934349D01*
X16029311Y-14934349D02*
X16029311Y-14953397D01*
X16029311Y-14953397D02*
X16019788Y-14981968D01*
X16019788Y-14981968D02*
X15905502Y-15096254D01*
X15905502Y-15096254D02*
X16029311Y-15096254D01*
X16267407Y-15096254D02*
X16267407Y-14896254D01*
X16353121Y-15096254D02*
X16353121Y-14991492D01*
X16353121Y-14991492D02*
X16343597Y-14972444D01*
X16343597Y-14972444D02*
X16324550Y-14962920D01*
X16324550Y-14962920D02*
X16295978Y-14962920D01*
X16295978Y-14962920D02*
X16276930Y-14972444D01*
X16276930Y-14972444D02*
X16267407Y-14981968D01*
X16476930Y-15096254D02*
X16457883Y-15086730D01*
X16457883Y-15086730D02*
X16448359Y-15077206D01*
X16448359Y-15077206D02*
X16438835Y-15058158D01*
X16438835Y-15058158D02*
X16438835Y-15001016D01*
X16438835Y-15001016D02*
X16448359Y-14981968D01*
X16448359Y-14981968D02*
X16457883Y-14972444D01*
X16457883Y-14972444D02*
X16476930Y-14962920D01*
X16476930Y-14962920D02*
X16505502Y-14962920D01*
X16505502Y-14962920D02*
X16524550Y-14972444D01*
X16524550Y-14972444D02*
X16534073Y-14981968D01*
X16534073Y-14981968D02*
X16543597Y-15001016D01*
X16543597Y-15001016D02*
X16543597Y-15058158D01*
X16543597Y-15058158D02*
X16534073Y-15077206D01*
X16534073Y-15077206D02*
X16524550Y-15086730D01*
X16524550Y-15086730D02*
X16505502Y-15096254D01*
X16505502Y-15096254D02*
X16476930Y-15096254D01*
X16657883Y-15096254D02*
X16638835Y-15086730D01*
X16638835Y-15086730D02*
X16629311Y-15067682D01*
X16629311Y-15067682D02*
X16629311Y-14896254D01*
X16810264Y-15086730D02*
X16791216Y-15096254D01*
X16791216Y-15096254D02*
X16753121Y-15096254D01*
X16753121Y-15096254D02*
X16734073Y-15086730D01*
X16734073Y-15086730D02*
X16724550Y-15067682D01*
X16724550Y-15067682D02*
X16724550Y-14991492D01*
X16724550Y-14991492D02*
X16734073Y-14972444D01*
X16734073Y-14972444D02*
X16753121Y-14962920D01*
X16753121Y-14962920D02*
X16791216Y-14962920D01*
X16791216Y-14962920D02*
X16810264Y-14972444D01*
X16810264Y-14972444D02*
X16819788Y-14991492D01*
X16819788Y-14991492D02*
X16819788Y-15010539D01*
X16819788Y-15010539D02*
X16724550Y-15029587D01*
X16895978Y-15086730D02*
X16915026Y-15096254D01*
X16915026Y-15096254D02*
X16953121Y-15096254D01*
X16953121Y-15096254D02*
X16972169Y-15086730D01*
X16972169Y-15086730D02*
X16981693Y-15067682D01*
X16981693Y-15067682D02*
X16981693Y-15058158D01*
X16981693Y-15058158D02*
X16972169Y-15039111D01*
X16972169Y-15039111D02*
X16953121Y-15029587D01*
X16953121Y-15029587D02*
X16924550Y-15029587D01*
X16924550Y-15029587D02*
X16905502Y-15020063D01*
X16905502Y-15020063D02*
X16895978Y-15001016D01*
X16895978Y-15001016D02*
X16895978Y-14991492D01*
X16895978Y-14991492D02*
X16905502Y-14972444D01*
X16905502Y-14972444D02*
X16924550Y-14962920D01*
X16924550Y-14962920D02*
X16953121Y-14962920D01*
X16953121Y-14962920D02*
X16972169Y-14972444D01*
X17048359Y-15172444D02*
X17057883Y-15162920D01*
X17057883Y-15162920D02*
X17076931Y-15134349D01*
X17076931Y-15134349D02*
X17086454Y-15115301D01*
X17086454Y-15115301D02*
X17095978Y-15086730D01*
X17095978Y-15086730D02*
X17105502Y-15039111D01*
X17105502Y-15039111D02*
X17105502Y-15001016D01*
X17105502Y-15001016D02*
X17095978Y-14953397D01*
X17095978Y-14953397D02*
X17086454Y-14924825D01*
X17086454Y-14924825D02*
X17076931Y-14905778D01*
X17076931Y-14905778D02*
X17057883Y-14877206D01*
X17057883Y-14877206D02*
X17048359Y-14867682D01*
D12*
X12032820Y-15218770D02*
X12032820Y-15318770D01*
X11982820Y-15268770D02*
X12082820Y-15268770D01*
D11*
X12448359Y-15360254D02*
X12334073Y-15360254D01*
X12391216Y-15360254D02*
X12391216Y-15160254D01*
X12391216Y-15160254D02*
X12372168Y-15188825D01*
X12372168Y-15188825D02*
X12353121Y-15207873D01*
X12353121Y-15207873D02*
X12334073Y-15217397D01*
X12534073Y-15341206D02*
X12543597Y-15350730D01*
X12543597Y-15350730D02*
X12534073Y-15360254D01*
X12534073Y-15360254D02*
X12524549Y-15350730D01*
X12524549Y-15350730D02*
X12534073Y-15341206D01*
X12534073Y-15341206D02*
X12534073Y-15360254D01*
X12667406Y-15160254D02*
X12686454Y-15160254D01*
X12686454Y-15160254D02*
X12705502Y-15169778D01*
X12705502Y-15169778D02*
X12715025Y-15179301D01*
X12715025Y-15179301D02*
X12724549Y-15198349D01*
X12724549Y-15198349D02*
X12734073Y-15236444D01*
X12734073Y-15236444D02*
X12734073Y-15284063D01*
X12734073Y-15284063D02*
X12724549Y-15322158D01*
X12724549Y-15322158D02*
X12715025Y-15341206D01*
X12715025Y-15341206D02*
X12705502Y-15350730D01*
X12705502Y-15350730D02*
X12686454Y-15360254D01*
X12686454Y-15360254D02*
X12667406Y-15360254D01*
X12667406Y-15360254D02*
X12648359Y-15350730D01*
X12648359Y-15350730D02*
X12638835Y-15341206D01*
X12638835Y-15341206D02*
X12629311Y-15322158D01*
X12629311Y-15322158D02*
X12619787Y-15284063D01*
X12619787Y-15284063D02*
X12619787Y-15236444D01*
X12619787Y-15236444D02*
X12629311Y-15198349D01*
X12629311Y-15198349D02*
X12638835Y-15179301D01*
X12638835Y-15179301D02*
X12648359Y-15169778D01*
X12648359Y-15169778D02*
X12667406Y-15160254D01*
X12857882Y-15160254D02*
X12876930Y-15160254D01*
X12876930Y-15160254D02*
X12895978Y-15169778D01*
X12895978Y-15169778D02*
X12905502Y-15179301D01*
X12905502Y-15179301D02*
X12915025Y-15198349D01*
X12915025Y-15198349D02*
X12924549Y-15236444D01*
X12924549Y-15236444D02*
X12924549Y-15284063D01*
X12924549Y-15284063D02*
X12915025Y-15322158D01*
X12915025Y-15322158D02*
X12905502Y-15341206D01*
X12905502Y-15341206D02*
X12895978Y-15350730D01*
X12895978Y-15350730D02*
X12876930Y-15360254D01*
X12876930Y-15360254D02*
X12857882Y-15360254D01*
X12857882Y-15360254D02*
X12838835Y-15350730D01*
X12838835Y-15350730D02*
X12829311Y-15341206D01*
X12829311Y-15341206D02*
X12819787Y-15322158D01*
X12819787Y-15322158D02*
X12810263Y-15284063D01*
X12810263Y-15284063D02*
X12810263Y-15236444D01*
X12810263Y-15236444D02*
X12819787Y-15198349D01*
X12819787Y-15198349D02*
X12829311Y-15179301D01*
X12829311Y-15179301D02*
X12838835Y-15169778D01*
X12838835Y-15169778D02*
X12857882Y-15160254D01*
X13048359Y-15160254D02*
X13067406Y-15160254D01*
X13067406Y-15160254D02*
X13086454Y-15169778D01*
X13086454Y-15169778D02*
X13095978Y-15179301D01*
X13095978Y-15179301D02*
X13105502Y-15198349D01*
X13105502Y-15198349D02*
X13115025Y-15236444D01*
X13115025Y-15236444D02*
X13115025Y-15284063D01*
X13115025Y-15284063D02*
X13105502Y-15322158D01*
X13105502Y-15322158D02*
X13095978Y-15341206D01*
X13095978Y-15341206D02*
X13086454Y-15350730D01*
X13086454Y-15350730D02*
X13067406Y-15360254D01*
X13067406Y-15360254D02*
X13048359Y-15360254D01*
X13048359Y-15360254D02*
X13029311Y-15350730D01*
X13029311Y-15350730D02*
X13019787Y-15341206D01*
X13019787Y-15341206D02*
X13010263Y-15322158D01*
X13010263Y-15322158D02*
X13000740Y-15284063D01*
X13000740Y-15284063D02*
X13000740Y-15236444D01*
X13000740Y-15236444D02*
X13010263Y-15198349D01*
X13010263Y-15198349D02*
X13019787Y-15179301D01*
X13019787Y-15179301D02*
X13029311Y-15169778D01*
X13029311Y-15169778D02*
X13048359Y-15160254D01*
X13200740Y-15360254D02*
X13200740Y-15226920D01*
X13200740Y-15245968D02*
X13210263Y-15236444D01*
X13210263Y-15236444D02*
X13229311Y-15226920D01*
X13229311Y-15226920D02*
X13257883Y-15226920D01*
X13257883Y-15226920D02*
X13276930Y-15236444D01*
X13276930Y-15236444D02*
X13286454Y-15255492D01*
X13286454Y-15255492D02*
X13286454Y-15360254D01*
X13286454Y-15255492D02*
X13295978Y-15236444D01*
X13295978Y-15236444D02*
X13315025Y-15226920D01*
X13315025Y-15226920D02*
X13343597Y-15226920D01*
X13343597Y-15226920D02*
X13362644Y-15236444D01*
X13362644Y-15236444D02*
X13372168Y-15255492D01*
X13372168Y-15255492D02*
X13372168Y-15360254D01*
X13467406Y-15360254D02*
X13467406Y-15226920D01*
X13467406Y-15245968D02*
X13476930Y-15236444D01*
X13476930Y-15236444D02*
X13495978Y-15226920D01*
X13495978Y-15226920D02*
X13524549Y-15226920D01*
X13524549Y-15226920D02*
X13543597Y-15236444D01*
X13543597Y-15236444D02*
X13553121Y-15255492D01*
X13553121Y-15255492D02*
X13553121Y-15360254D01*
X13553121Y-15255492D02*
X13562644Y-15236444D01*
X13562644Y-15236444D02*
X13581692Y-15226920D01*
X13581692Y-15226920D02*
X13610263Y-15226920D01*
X13610263Y-15226920D02*
X13629311Y-15236444D01*
X13629311Y-15236444D02*
X13638835Y-15255492D01*
X13638835Y-15255492D02*
X13638835Y-15360254D01*
X14029311Y-15150730D02*
X13857883Y-15407873D01*
X14286454Y-15160254D02*
X14305502Y-15160254D01*
X14305502Y-15160254D02*
X14324549Y-15169778D01*
X14324549Y-15169778D02*
X14334073Y-15179301D01*
X14334073Y-15179301D02*
X14343597Y-15198349D01*
X14343597Y-15198349D02*
X14353121Y-15236444D01*
X14353121Y-15236444D02*
X14353121Y-15284063D01*
X14353121Y-15284063D02*
X14343597Y-15322158D01*
X14343597Y-15322158D02*
X14334073Y-15341206D01*
X14334073Y-15341206D02*
X14324549Y-15350730D01*
X14324549Y-15350730D02*
X14305502Y-15360254D01*
X14305502Y-15360254D02*
X14286454Y-15360254D01*
X14286454Y-15360254D02*
X14267406Y-15350730D01*
X14267406Y-15350730D02*
X14257883Y-15341206D01*
X14257883Y-15341206D02*
X14248359Y-15322158D01*
X14248359Y-15322158D02*
X14238835Y-15284063D01*
X14238835Y-15284063D02*
X14238835Y-15236444D01*
X14238835Y-15236444D02*
X14248359Y-15198349D01*
X14248359Y-15198349D02*
X14257883Y-15179301D01*
X14257883Y-15179301D02*
X14267406Y-15169778D01*
X14267406Y-15169778D02*
X14286454Y-15160254D01*
X14438835Y-15341206D02*
X14448359Y-15350730D01*
X14448359Y-15350730D02*
X14438835Y-15360254D01*
X14438835Y-15360254D02*
X14429311Y-15350730D01*
X14429311Y-15350730D02*
X14438835Y-15341206D01*
X14438835Y-15341206D02*
X14438835Y-15360254D01*
X14572168Y-15160254D02*
X14591216Y-15160254D01*
X14591216Y-15160254D02*
X14610264Y-15169778D01*
X14610264Y-15169778D02*
X14619787Y-15179301D01*
X14619787Y-15179301D02*
X14629311Y-15198349D01*
X14629311Y-15198349D02*
X14638835Y-15236444D01*
X14638835Y-15236444D02*
X14638835Y-15284063D01*
X14638835Y-15284063D02*
X14629311Y-15322158D01*
X14629311Y-15322158D02*
X14619787Y-15341206D01*
X14619787Y-15341206D02*
X14610264Y-15350730D01*
X14610264Y-15350730D02*
X14591216Y-15360254D01*
X14591216Y-15360254D02*
X14572168Y-15360254D01*
X14572168Y-15360254D02*
X14553121Y-15350730D01*
X14553121Y-15350730D02*
X14543597Y-15341206D01*
X14543597Y-15341206D02*
X14534073Y-15322158D01*
X14534073Y-15322158D02*
X14524549Y-15284063D01*
X14524549Y-15284063D02*
X14524549Y-15236444D01*
X14524549Y-15236444D02*
X14534073Y-15198349D01*
X14534073Y-15198349D02*
X14543597Y-15179301D01*
X14543597Y-15179301D02*
X14553121Y-15169778D01*
X14553121Y-15169778D02*
X14572168Y-15160254D01*
X14705502Y-15160254D02*
X14829311Y-15160254D01*
X14829311Y-15160254D02*
X14762645Y-15236444D01*
X14762645Y-15236444D02*
X14791216Y-15236444D01*
X14791216Y-15236444D02*
X14810264Y-15245968D01*
X14810264Y-15245968D02*
X14819787Y-15255492D01*
X14819787Y-15255492D02*
X14829311Y-15274539D01*
X14829311Y-15274539D02*
X14829311Y-15322158D01*
X14829311Y-15322158D02*
X14819787Y-15341206D01*
X14819787Y-15341206D02*
X14810264Y-15350730D01*
X14810264Y-15350730D02*
X14791216Y-15360254D01*
X14791216Y-15360254D02*
X14734073Y-15360254D01*
X14734073Y-15360254D02*
X14715026Y-15350730D01*
X14715026Y-15350730D02*
X14705502Y-15341206D01*
X14924549Y-15360254D02*
X14962645Y-15360254D01*
X14962645Y-15360254D02*
X14981692Y-15350730D01*
X14981692Y-15350730D02*
X14991216Y-15341206D01*
X14991216Y-15341206D02*
X15010264Y-15312635D01*
X15010264Y-15312635D02*
X15019787Y-15274539D01*
X15019787Y-15274539D02*
X15019787Y-15198349D01*
X15019787Y-15198349D02*
X15010264Y-15179301D01*
X15010264Y-15179301D02*
X15000740Y-15169778D01*
X15000740Y-15169778D02*
X14981692Y-15160254D01*
X14981692Y-15160254D02*
X14943597Y-15160254D01*
X14943597Y-15160254D02*
X14924549Y-15169778D01*
X14924549Y-15169778D02*
X14915026Y-15179301D01*
X14915026Y-15179301D02*
X14905502Y-15198349D01*
X14905502Y-15198349D02*
X14905502Y-15245968D01*
X14905502Y-15245968D02*
X14915026Y-15265016D01*
X14915026Y-15265016D02*
X14924549Y-15274539D01*
X14924549Y-15274539D02*
X14943597Y-15284063D01*
X14943597Y-15284063D02*
X14981692Y-15284063D01*
X14981692Y-15284063D02*
X15000740Y-15274539D01*
X15000740Y-15274539D02*
X15010264Y-15265016D01*
X15010264Y-15265016D02*
X15019787Y-15245968D01*
X15191216Y-15226920D02*
X15191216Y-15360254D01*
X15143597Y-15150730D02*
X15095978Y-15293587D01*
X15095978Y-15293587D02*
X15219787Y-15293587D01*
X15286454Y-15160254D02*
X15286454Y-15198349D01*
X15362645Y-15160254D02*
X15362645Y-15198349D01*
X15657883Y-15436444D02*
X15648359Y-15426920D01*
X15648359Y-15426920D02*
X15629311Y-15398349D01*
X15629311Y-15398349D02*
X15619788Y-15379301D01*
X15619788Y-15379301D02*
X15610264Y-15350730D01*
X15610264Y-15350730D02*
X15600740Y-15303111D01*
X15600740Y-15303111D02*
X15600740Y-15265016D01*
X15600740Y-15265016D02*
X15610264Y-15217397D01*
X15610264Y-15217397D02*
X15619788Y-15188825D01*
X15619788Y-15188825D02*
X15629311Y-15169778D01*
X15629311Y-15169778D02*
X15648359Y-15141206D01*
X15648359Y-15141206D02*
X15657883Y-15131682D01*
X15819788Y-15226920D02*
X15819788Y-15360254D01*
X15772168Y-15150730D02*
X15724549Y-15293587D01*
X15724549Y-15293587D02*
X15848359Y-15293587D01*
X15953121Y-15245968D02*
X15934073Y-15236444D01*
X15934073Y-15236444D02*
X15924549Y-15226920D01*
X15924549Y-15226920D02*
X15915026Y-15207873D01*
X15915026Y-15207873D02*
X15915026Y-15198349D01*
X15915026Y-15198349D02*
X15924549Y-15179301D01*
X15924549Y-15179301D02*
X15934073Y-15169778D01*
X15934073Y-15169778D02*
X15953121Y-15160254D01*
X15953121Y-15160254D02*
X15991216Y-15160254D01*
X15991216Y-15160254D02*
X16010264Y-15169778D01*
X16010264Y-15169778D02*
X16019788Y-15179301D01*
X16019788Y-15179301D02*
X16029311Y-15198349D01*
X16029311Y-15198349D02*
X16029311Y-15207873D01*
X16029311Y-15207873D02*
X16019788Y-15226920D01*
X16019788Y-15226920D02*
X16010264Y-15236444D01*
X16010264Y-15236444D02*
X15991216Y-15245968D01*
X15991216Y-15245968D02*
X15953121Y-15245968D01*
X15953121Y-15245968D02*
X15934073Y-15255492D01*
X15934073Y-15255492D02*
X15924549Y-15265016D01*
X15924549Y-15265016D02*
X15915026Y-15284063D01*
X15915026Y-15284063D02*
X15915026Y-15322158D01*
X15915026Y-15322158D02*
X15924549Y-15341206D01*
X15924549Y-15341206D02*
X15934073Y-15350730D01*
X15934073Y-15350730D02*
X15953121Y-15360254D01*
X15953121Y-15360254D02*
X15991216Y-15360254D01*
X15991216Y-15360254D02*
X16010264Y-15350730D01*
X16010264Y-15350730D02*
X16019788Y-15341206D01*
X16019788Y-15341206D02*
X16029311Y-15322158D01*
X16029311Y-15322158D02*
X16029311Y-15284063D01*
X16029311Y-15284063D02*
X16019788Y-15265016D01*
X16019788Y-15265016D02*
X16010264Y-15255492D01*
X16010264Y-15255492D02*
X15991216Y-15245968D01*
X16267407Y-15360254D02*
X16267407Y-15160254D01*
X16353121Y-15360254D02*
X16353121Y-15255492D01*
X16353121Y-15255492D02*
X16343597Y-15236444D01*
X16343597Y-15236444D02*
X16324550Y-15226920D01*
X16324550Y-15226920D02*
X16295978Y-15226920D01*
X16295978Y-15226920D02*
X16276930Y-15236444D01*
X16276930Y-15236444D02*
X16267407Y-15245968D01*
X16476930Y-15360254D02*
X16457883Y-15350730D01*
X16457883Y-15350730D02*
X16448359Y-15341206D01*
X16448359Y-15341206D02*
X16438835Y-15322158D01*
X16438835Y-15322158D02*
X16438835Y-15265016D01*
X16438835Y-15265016D02*
X16448359Y-15245968D01*
X16448359Y-15245968D02*
X16457883Y-15236444D01*
X16457883Y-15236444D02*
X16476930Y-15226920D01*
X16476930Y-15226920D02*
X16505502Y-15226920D01*
X16505502Y-15226920D02*
X16524550Y-15236444D01*
X16524550Y-15236444D02*
X16534073Y-15245968D01*
X16534073Y-15245968D02*
X16543597Y-15265016D01*
X16543597Y-15265016D02*
X16543597Y-15322158D01*
X16543597Y-15322158D02*
X16534073Y-15341206D01*
X16534073Y-15341206D02*
X16524550Y-15350730D01*
X16524550Y-15350730D02*
X16505502Y-15360254D01*
X16505502Y-15360254D02*
X16476930Y-15360254D01*
X16657883Y-15360254D02*
X16638835Y-15350730D01*
X16638835Y-15350730D02*
X16629311Y-15331682D01*
X16629311Y-15331682D02*
X16629311Y-15160254D01*
X16810264Y-15350730D02*
X16791216Y-15360254D01*
X16791216Y-15360254D02*
X16753121Y-15360254D01*
X16753121Y-15360254D02*
X16734073Y-15350730D01*
X16734073Y-15350730D02*
X16724550Y-15331682D01*
X16724550Y-15331682D02*
X16724550Y-15255492D01*
X16724550Y-15255492D02*
X16734073Y-15236444D01*
X16734073Y-15236444D02*
X16753121Y-15226920D01*
X16753121Y-15226920D02*
X16791216Y-15226920D01*
X16791216Y-15226920D02*
X16810264Y-15236444D01*
X16810264Y-15236444D02*
X16819788Y-15255492D01*
X16819788Y-15255492D02*
X16819788Y-15274539D01*
X16819788Y-15274539D02*
X16724550Y-15293587D01*
X16895978Y-15350730D02*
X16915026Y-15360254D01*
X16915026Y-15360254D02*
X16953121Y-15360254D01*
X16953121Y-15360254D02*
X16972169Y-15350730D01*
X16972169Y-15350730D02*
X16981693Y-15331682D01*
X16981693Y-15331682D02*
X16981693Y-15322158D01*
X16981693Y-15322158D02*
X16972169Y-15303111D01*
X16972169Y-15303111D02*
X16953121Y-15293587D01*
X16953121Y-15293587D02*
X16924550Y-15293587D01*
X16924550Y-15293587D02*
X16905502Y-15284063D01*
X16905502Y-15284063D02*
X16895978Y-15265016D01*
X16895978Y-15265016D02*
X16895978Y-15255492D01*
X16895978Y-15255492D02*
X16905502Y-15236444D01*
X16905502Y-15236444D02*
X16924550Y-15226920D01*
X16924550Y-15226920D02*
X16953121Y-15226920D01*
X16953121Y-15226920D02*
X16972169Y-15236444D01*
X17048359Y-15436444D02*
X17057883Y-15426920D01*
X17057883Y-15426920D02*
X17076931Y-15398349D01*
X17076931Y-15398349D02*
X17086454Y-15379301D01*
X17086454Y-15379301D02*
X17095978Y-15350730D01*
X17095978Y-15350730D02*
X17105502Y-15303111D01*
X17105502Y-15303111D02*
X17105502Y-15265016D01*
X17105502Y-15265016D02*
X17095978Y-15217397D01*
X17095978Y-15217397D02*
X17086454Y-15188825D01*
X17086454Y-15188825D02*
X17076931Y-15169778D01*
X17076931Y-15169778D02*
X17057883Y-15141206D01*
X17057883Y-15141206D02*
X17048359Y-15131682D01*
M02*
