%TF.GenerationSoftware,KiCad,Pcbnew,7.0.11*%
%TF.CreationDate,2024-09-20T17:58:10+02:00*%
%TF.ProjectId,macropad,6d616372-6f70-4616-942e-6b696361645f,rev?*%
%TF.SameCoordinates,Original*%
%TF.FileFunction,Drillmap*%
%TF.FilePolarity,Positive*%
%FSLAX45Y45*%
G04 Gerber Fmt 4.5, Leading zero omitted, Abs format (unit mm)*
G04 Created by KiCad (PCBNEW 7.0.11) date 2024-09-20 17:58:10*
%MOMM*%
%LPD*%
G01*
G04 APERTURE LIST*
%ADD10C,0.050000*%
%ADD11C,0.200000*%
%ADD12C,0.500000*%
G04 APERTURE END LIST*
D10*
X12380133Y-14703750D02*
X20093125Y-14703750D01*
X12380133Y-4971103D02*
G75*
G03*
X12062633Y-5288605I7J-317507D01*
G01*
X20410625Y-14386250D02*
X20410625Y-5288605D01*
X12062640Y-14386250D02*
G75*
G03*
X12380133Y-14703750I317490J-10D01*
G01*
X12062633Y-5288605D02*
X12062633Y-14386250D01*
X20410625Y-5288605D02*
G75*
G03*
X20093125Y-4971105I-317505J-5D01*
G01*
X20093125Y-4971105D02*
X12380133Y-4971105D01*
X20093125Y-14703755D02*
G75*
G03*
X20410625Y-14386250I-15J317515D01*
G01*
D11*
D12*
X13493125Y-8466250D02*
X13993125Y-8966250D01*
X13993125Y-8466250D02*
X13493125Y-8966250D01*
X13493125Y-10133125D02*
X13993125Y-10633125D01*
X13993125Y-10133125D02*
X13493125Y-10633125D01*
X13493125Y-11800000D02*
X13993125Y-12300000D01*
X13993125Y-11800000D02*
X13493125Y-12300000D01*
X13493125Y-13466875D02*
X13993125Y-13966875D01*
X13993125Y-13466875D02*
X13493125Y-13966875D01*
X15160000Y-8466250D02*
X15660000Y-8966250D01*
X15660000Y-8466250D02*
X15160000Y-8966250D01*
X15160000Y-10133125D02*
X15660000Y-10633125D01*
X15660000Y-10133125D02*
X15160000Y-10633125D01*
X15160000Y-11800000D02*
X15660000Y-12300000D01*
X15660000Y-11800000D02*
X15160000Y-12300000D01*
X15160000Y-13466875D02*
X15660000Y-13966875D01*
X15660000Y-13466875D02*
X15160000Y-13966875D01*
X16826875Y-8466250D02*
X17326875Y-8966250D01*
X17326875Y-8466250D02*
X16826875Y-8966250D01*
X16826875Y-10133125D02*
X17326875Y-10633125D01*
X17326875Y-10133125D02*
X16826875Y-10633125D01*
X16826875Y-11800000D02*
X17326875Y-12300000D01*
X17326875Y-11800000D02*
X16826875Y-12300000D01*
X16826875Y-13466875D02*
X17326875Y-13966875D01*
X17326875Y-13466875D02*
X16826875Y-13966875D01*
X18493750Y-8466250D02*
X18993750Y-8966250D01*
X18993750Y-8466250D02*
X18493750Y-8966250D01*
X18493750Y-10133125D02*
X18993750Y-10633125D01*
X18993750Y-10133125D02*
X18493750Y-10633125D01*
X18493750Y-11800000D02*
X18993750Y-12300000D01*
X18993750Y-11800000D02*
X18493750Y-12300000D01*
X18493750Y-13466875D02*
X18993750Y-13966875D01*
X18993750Y-13466875D02*
X18493750Y-13966875D01*
D11*
X12320910Y-15017734D02*
X12320910Y-14817734D01*
X12320910Y-14817734D02*
X12368529Y-14817734D01*
X12368529Y-14817734D02*
X12397100Y-14827258D01*
X12397100Y-14827258D02*
X12416148Y-14846305D01*
X12416148Y-14846305D02*
X12425672Y-14865353D01*
X12425672Y-14865353D02*
X12435195Y-14903448D01*
X12435195Y-14903448D02*
X12435195Y-14932019D01*
X12435195Y-14932019D02*
X12425672Y-14970115D01*
X12425672Y-14970115D02*
X12416148Y-14989162D01*
X12416148Y-14989162D02*
X12397100Y-15008210D01*
X12397100Y-15008210D02*
X12368529Y-15017734D01*
X12368529Y-15017734D02*
X12320910Y-15017734D01*
X12520910Y-15017734D02*
X12520910Y-14884400D01*
X12520910Y-14922496D02*
X12530433Y-14903448D01*
X12530433Y-14903448D02*
X12539957Y-14893924D01*
X12539957Y-14893924D02*
X12559005Y-14884400D01*
X12559005Y-14884400D02*
X12578053Y-14884400D01*
X12644719Y-15017734D02*
X12644719Y-14884400D01*
X12644719Y-14817734D02*
X12635195Y-14827258D01*
X12635195Y-14827258D02*
X12644719Y-14836781D01*
X12644719Y-14836781D02*
X12654243Y-14827258D01*
X12654243Y-14827258D02*
X12644719Y-14817734D01*
X12644719Y-14817734D02*
X12644719Y-14836781D01*
X12768529Y-15017734D02*
X12749481Y-15008210D01*
X12749481Y-15008210D02*
X12739957Y-14989162D01*
X12739957Y-14989162D02*
X12739957Y-14817734D01*
X12873291Y-15017734D02*
X12854243Y-15008210D01*
X12854243Y-15008210D02*
X12844719Y-14989162D01*
X12844719Y-14989162D02*
X12844719Y-14817734D01*
X13101862Y-15017734D02*
X13101862Y-14817734D01*
X13101862Y-14817734D02*
X13168529Y-14960591D01*
X13168529Y-14960591D02*
X13235195Y-14817734D01*
X13235195Y-14817734D02*
X13235195Y-15017734D01*
X13416148Y-15017734D02*
X13416148Y-14912972D01*
X13416148Y-14912972D02*
X13406624Y-14893924D01*
X13406624Y-14893924D02*
X13387576Y-14884400D01*
X13387576Y-14884400D02*
X13349481Y-14884400D01*
X13349481Y-14884400D02*
X13330433Y-14893924D01*
X13416148Y-15008210D02*
X13397100Y-15017734D01*
X13397100Y-15017734D02*
X13349481Y-15017734D01*
X13349481Y-15017734D02*
X13330433Y-15008210D01*
X13330433Y-15008210D02*
X13320910Y-14989162D01*
X13320910Y-14989162D02*
X13320910Y-14970115D01*
X13320910Y-14970115D02*
X13330433Y-14951067D01*
X13330433Y-14951067D02*
X13349481Y-14941543D01*
X13349481Y-14941543D02*
X13397100Y-14941543D01*
X13397100Y-14941543D02*
X13416148Y-14932019D01*
X13511386Y-14884400D02*
X13511386Y-15084400D01*
X13511386Y-14893924D02*
X13530433Y-14884400D01*
X13530433Y-14884400D02*
X13568529Y-14884400D01*
X13568529Y-14884400D02*
X13587576Y-14893924D01*
X13587576Y-14893924D02*
X13597100Y-14903448D01*
X13597100Y-14903448D02*
X13606624Y-14922496D01*
X13606624Y-14922496D02*
X13606624Y-14979638D01*
X13606624Y-14979638D02*
X13597100Y-14998686D01*
X13597100Y-14998686D02*
X13587576Y-15008210D01*
X13587576Y-15008210D02*
X13568529Y-15017734D01*
X13568529Y-15017734D02*
X13530433Y-15017734D01*
X13530433Y-15017734D02*
X13511386Y-15008210D01*
X13692338Y-14998686D02*
X13701862Y-15008210D01*
X13701862Y-15008210D02*
X13692338Y-15017734D01*
X13692338Y-15017734D02*
X13682814Y-15008210D01*
X13682814Y-15008210D02*
X13692338Y-14998686D01*
X13692338Y-14998686D02*
X13692338Y-15017734D01*
X13692338Y-14893924D02*
X13701862Y-14903448D01*
X13701862Y-14903448D02*
X13692338Y-14912972D01*
X13692338Y-14912972D02*
X13682814Y-14903448D01*
X13682814Y-14903448D02*
X13692338Y-14893924D01*
X13692338Y-14893924D02*
X13692338Y-14912972D01*
X11860133Y-15246250D02*
X12060133Y-15446250D01*
X12060133Y-15246250D02*
X11860133Y-15446250D01*
X12416148Y-15237734D02*
X12320910Y-15237734D01*
X12320910Y-15237734D02*
X12311386Y-15332972D01*
X12311386Y-15332972D02*
X12320910Y-15323448D01*
X12320910Y-15323448D02*
X12339957Y-15313924D01*
X12339957Y-15313924D02*
X12387576Y-15313924D01*
X12387576Y-15313924D02*
X12406624Y-15323448D01*
X12406624Y-15323448D02*
X12416148Y-15332972D01*
X12416148Y-15332972D02*
X12425672Y-15352019D01*
X12425672Y-15352019D02*
X12425672Y-15399638D01*
X12425672Y-15399638D02*
X12416148Y-15418686D01*
X12416148Y-15418686D02*
X12406624Y-15428210D01*
X12406624Y-15428210D02*
X12387576Y-15437734D01*
X12387576Y-15437734D02*
X12339957Y-15437734D01*
X12339957Y-15437734D02*
X12320910Y-15428210D01*
X12320910Y-15428210D02*
X12311386Y-15418686D01*
X12511386Y-15418686D02*
X12520910Y-15428210D01*
X12520910Y-15428210D02*
X12511386Y-15437734D01*
X12511386Y-15437734D02*
X12501862Y-15428210D01*
X12501862Y-15428210D02*
X12511386Y-15418686D01*
X12511386Y-15418686D02*
X12511386Y-15437734D01*
X12644719Y-15237734D02*
X12663767Y-15237734D01*
X12663767Y-15237734D02*
X12682814Y-15247258D01*
X12682814Y-15247258D02*
X12692338Y-15256781D01*
X12692338Y-15256781D02*
X12701862Y-15275829D01*
X12701862Y-15275829D02*
X12711386Y-15313924D01*
X12711386Y-15313924D02*
X12711386Y-15361543D01*
X12711386Y-15361543D02*
X12701862Y-15399638D01*
X12701862Y-15399638D02*
X12692338Y-15418686D01*
X12692338Y-15418686D02*
X12682814Y-15428210D01*
X12682814Y-15428210D02*
X12663767Y-15437734D01*
X12663767Y-15437734D02*
X12644719Y-15437734D01*
X12644719Y-15437734D02*
X12625672Y-15428210D01*
X12625672Y-15428210D02*
X12616148Y-15418686D01*
X12616148Y-15418686D02*
X12606624Y-15399638D01*
X12606624Y-15399638D02*
X12597100Y-15361543D01*
X12597100Y-15361543D02*
X12597100Y-15313924D01*
X12597100Y-15313924D02*
X12606624Y-15275829D01*
X12606624Y-15275829D02*
X12616148Y-15256781D01*
X12616148Y-15256781D02*
X12625672Y-15247258D01*
X12625672Y-15247258D02*
X12644719Y-15237734D01*
X12835195Y-15237734D02*
X12854243Y-15237734D01*
X12854243Y-15237734D02*
X12873291Y-15247258D01*
X12873291Y-15247258D02*
X12882814Y-15256781D01*
X12882814Y-15256781D02*
X12892338Y-15275829D01*
X12892338Y-15275829D02*
X12901862Y-15313924D01*
X12901862Y-15313924D02*
X12901862Y-15361543D01*
X12901862Y-15361543D02*
X12892338Y-15399638D01*
X12892338Y-15399638D02*
X12882814Y-15418686D01*
X12882814Y-15418686D02*
X12873291Y-15428210D01*
X12873291Y-15428210D02*
X12854243Y-15437734D01*
X12854243Y-15437734D02*
X12835195Y-15437734D01*
X12835195Y-15437734D02*
X12816148Y-15428210D01*
X12816148Y-15428210D02*
X12806624Y-15418686D01*
X12806624Y-15418686D02*
X12797100Y-15399638D01*
X12797100Y-15399638D02*
X12787576Y-15361543D01*
X12787576Y-15361543D02*
X12787576Y-15313924D01*
X12787576Y-15313924D02*
X12797100Y-15275829D01*
X12797100Y-15275829D02*
X12806624Y-15256781D01*
X12806624Y-15256781D02*
X12816148Y-15247258D01*
X12816148Y-15247258D02*
X12835195Y-15237734D01*
X13025672Y-15237734D02*
X13044719Y-15237734D01*
X13044719Y-15237734D02*
X13063767Y-15247258D01*
X13063767Y-15247258D02*
X13073291Y-15256781D01*
X13073291Y-15256781D02*
X13082814Y-15275829D01*
X13082814Y-15275829D02*
X13092338Y-15313924D01*
X13092338Y-15313924D02*
X13092338Y-15361543D01*
X13092338Y-15361543D02*
X13082814Y-15399638D01*
X13082814Y-15399638D02*
X13073291Y-15418686D01*
X13073291Y-15418686D02*
X13063767Y-15428210D01*
X13063767Y-15428210D02*
X13044719Y-15437734D01*
X13044719Y-15437734D02*
X13025672Y-15437734D01*
X13025672Y-15437734D02*
X13006624Y-15428210D01*
X13006624Y-15428210D02*
X12997100Y-15418686D01*
X12997100Y-15418686D02*
X12987576Y-15399638D01*
X12987576Y-15399638D02*
X12978053Y-15361543D01*
X12978053Y-15361543D02*
X12978053Y-15313924D01*
X12978053Y-15313924D02*
X12987576Y-15275829D01*
X12987576Y-15275829D02*
X12997100Y-15256781D01*
X12997100Y-15256781D02*
X13006624Y-15247258D01*
X13006624Y-15247258D02*
X13025672Y-15237734D01*
X13178053Y-15437734D02*
X13178053Y-15304400D01*
X13178053Y-15323448D02*
X13187576Y-15313924D01*
X13187576Y-15313924D02*
X13206624Y-15304400D01*
X13206624Y-15304400D02*
X13235195Y-15304400D01*
X13235195Y-15304400D02*
X13254243Y-15313924D01*
X13254243Y-15313924D02*
X13263767Y-15332972D01*
X13263767Y-15332972D02*
X13263767Y-15437734D01*
X13263767Y-15332972D02*
X13273291Y-15313924D01*
X13273291Y-15313924D02*
X13292338Y-15304400D01*
X13292338Y-15304400D02*
X13320910Y-15304400D01*
X13320910Y-15304400D02*
X13339957Y-15313924D01*
X13339957Y-15313924D02*
X13349481Y-15332972D01*
X13349481Y-15332972D02*
X13349481Y-15437734D01*
X13444719Y-15437734D02*
X13444719Y-15304400D01*
X13444719Y-15323448D02*
X13454243Y-15313924D01*
X13454243Y-15313924D02*
X13473291Y-15304400D01*
X13473291Y-15304400D02*
X13501862Y-15304400D01*
X13501862Y-15304400D02*
X13520910Y-15313924D01*
X13520910Y-15313924D02*
X13530434Y-15332972D01*
X13530434Y-15332972D02*
X13530434Y-15437734D01*
X13530434Y-15332972D02*
X13539957Y-15313924D01*
X13539957Y-15313924D02*
X13559005Y-15304400D01*
X13559005Y-15304400D02*
X13587576Y-15304400D01*
X13587576Y-15304400D02*
X13606624Y-15313924D01*
X13606624Y-15313924D02*
X13616148Y-15332972D01*
X13616148Y-15332972D02*
X13616148Y-15437734D01*
X14006624Y-15228210D02*
X13835196Y-15485353D01*
X14263767Y-15237734D02*
X14282815Y-15237734D01*
X14282815Y-15237734D02*
X14301862Y-15247258D01*
X14301862Y-15247258D02*
X14311386Y-15256781D01*
X14311386Y-15256781D02*
X14320910Y-15275829D01*
X14320910Y-15275829D02*
X14330434Y-15313924D01*
X14330434Y-15313924D02*
X14330434Y-15361543D01*
X14330434Y-15361543D02*
X14320910Y-15399638D01*
X14320910Y-15399638D02*
X14311386Y-15418686D01*
X14311386Y-15418686D02*
X14301862Y-15428210D01*
X14301862Y-15428210D02*
X14282815Y-15437734D01*
X14282815Y-15437734D02*
X14263767Y-15437734D01*
X14263767Y-15437734D02*
X14244719Y-15428210D01*
X14244719Y-15428210D02*
X14235196Y-15418686D01*
X14235196Y-15418686D02*
X14225672Y-15399638D01*
X14225672Y-15399638D02*
X14216148Y-15361543D01*
X14216148Y-15361543D02*
X14216148Y-15313924D01*
X14216148Y-15313924D02*
X14225672Y-15275829D01*
X14225672Y-15275829D02*
X14235196Y-15256781D01*
X14235196Y-15256781D02*
X14244719Y-15247258D01*
X14244719Y-15247258D02*
X14263767Y-15237734D01*
X14416148Y-15418686D02*
X14425672Y-15428210D01*
X14425672Y-15428210D02*
X14416148Y-15437734D01*
X14416148Y-15437734D02*
X14406624Y-15428210D01*
X14406624Y-15428210D02*
X14416148Y-15418686D01*
X14416148Y-15418686D02*
X14416148Y-15437734D01*
X14616148Y-15437734D02*
X14501862Y-15437734D01*
X14559005Y-15437734D02*
X14559005Y-15237734D01*
X14559005Y-15237734D02*
X14539957Y-15266305D01*
X14539957Y-15266305D02*
X14520910Y-15285353D01*
X14520910Y-15285353D02*
X14501862Y-15294877D01*
X14711386Y-15437734D02*
X14749481Y-15437734D01*
X14749481Y-15437734D02*
X14768529Y-15428210D01*
X14768529Y-15428210D02*
X14778053Y-15418686D01*
X14778053Y-15418686D02*
X14797100Y-15390115D01*
X14797100Y-15390115D02*
X14806624Y-15352019D01*
X14806624Y-15352019D02*
X14806624Y-15275829D01*
X14806624Y-15275829D02*
X14797100Y-15256781D01*
X14797100Y-15256781D02*
X14787577Y-15247258D01*
X14787577Y-15247258D02*
X14768529Y-15237734D01*
X14768529Y-15237734D02*
X14730434Y-15237734D01*
X14730434Y-15237734D02*
X14711386Y-15247258D01*
X14711386Y-15247258D02*
X14701862Y-15256781D01*
X14701862Y-15256781D02*
X14692338Y-15275829D01*
X14692338Y-15275829D02*
X14692338Y-15323448D01*
X14692338Y-15323448D02*
X14701862Y-15342496D01*
X14701862Y-15342496D02*
X14711386Y-15352019D01*
X14711386Y-15352019D02*
X14730434Y-15361543D01*
X14730434Y-15361543D02*
X14768529Y-15361543D01*
X14768529Y-15361543D02*
X14787577Y-15352019D01*
X14787577Y-15352019D02*
X14797100Y-15342496D01*
X14797100Y-15342496D02*
X14806624Y-15323448D01*
X14978053Y-15237734D02*
X14939957Y-15237734D01*
X14939957Y-15237734D02*
X14920910Y-15247258D01*
X14920910Y-15247258D02*
X14911386Y-15256781D01*
X14911386Y-15256781D02*
X14892338Y-15285353D01*
X14892338Y-15285353D02*
X14882815Y-15323448D01*
X14882815Y-15323448D02*
X14882815Y-15399638D01*
X14882815Y-15399638D02*
X14892338Y-15418686D01*
X14892338Y-15418686D02*
X14901862Y-15428210D01*
X14901862Y-15428210D02*
X14920910Y-15437734D01*
X14920910Y-15437734D02*
X14959005Y-15437734D01*
X14959005Y-15437734D02*
X14978053Y-15428210D01*
X14978053Y-15428210D02*
X14987577Y-15418686D01*
X14987577Y-15418686D02*
X14997100Y-15399638D01*
X14997100Y-15399638D02*
X14997100Y-15352019D01*
X14997100Y-15352019D02*
X14987577Y-15332972D01*
X14987577Y-15332972D02*
X14978053Y-15323448D01*
X14978053Y-15323448D02*
X14959005Y-15313924D01*
X14959005Y-15313924D02*
X14920910Y-15313924D01*
X14920910Y-15313924D02*
X14901862Y-15323448D01*
X14901862Y-15323448D02*
X14892338Y-15332972D01*
X14892338Y-15332972D02*
X14882815Y-15352019D01*
X15092338Y-15437734D02*
X15130434Y-15437734D01*
X15130434Y-15437734D02*
X15149481Y-15428210D01*
X15149481Y-15428210D02*
X15159005Y-15418686D01*
X15159005Y-15418686D02*
X15178053Y-15390115D01*
X15178053Y-15390115D02*
X15187577Y-15352019D01*
X15187577Y-15352019D02*
X15187577Y-15275829D01*
X15187577Y-15275829D02*
X15178053Y-15256781D01*
X15178053Y-15256781D02*
X15168529Y-15247258D01*
X15168529Y-15247258D02*
X15149481Y-15237734D01*
X15149481Y-15237734D02*
X15111386Y-15237734D01*
X15111386Y-15237734D02*
X15092338Y-15247258D01*
X15092338Y-15247258D02*
X15082815Y-15256781D01*
X15082815Y-15256781D02*
X15073291Y-15275829D01*
X15073291Y-15275829D02*
X15073291Y-15323448D01*
X15073291Y-15323448D02*
X15082815Y-15342496D01*
X15082815Y-15342496D02*
X15092338Y-15352019D01*
X15092338Y-15352019D02*
X15111386Y-15361543D01*
X15111386Y-15361543D02*
X15149481Y-15361543D01*
X15149481Y-15361543D02*
X15168529Y-15352019D01*
X15168529Y-15352019D02*
X15178053Y-15342496D01*
X15178053Y-15342496D02*
X15187577Y-15323448D01*
X15263767Y-15237734D02*
X15263767Y-15275829D01*
X15339958Y-15237734D02*
X15339958Y-15275829D01*
X15635196Y-15513924D02*
X15625672Y-15504400D01*
X15625672Y-15504400D02*
X15606624Y-15475829D01*
X15606624Y-15475829D02*
X15597100Y-15456781D01*
X15597100Y-15456781D02*
X15587577Y-15428210D01*
X15587577Y-15428210D02*
X15578053Y-15380591D01*
X15578053Y-15380591D02*
X15578053Y-15342496D01*
X15578053Y-15342496D02*
X15587577Y-15294877D01*
X15587577Y-15294877D02*
X15597100Y-15266305D01*
X15597100Y-15266305D02*
X15606624Y-15247258D01*
X15606624Y-15247258D02*
X15625672Y-15218686D01*
X15625672Y-15218686D02*
X15635196Y-15209162D01*
X15816148Y-15437734D02*
X15701862Y-15437734D01*
X15759005Y-15437734D02*
X15759005Y-15237734D01*
X15759005Y-15237734D02*
X15739958Y-15266305D01*
X15739958Y-15266305D02*
X15720910Y-15285353D01*
X15720910Y-15285353D02*
X15701862Y-15294877D01*
X15987577Y-15237734D02*
X15949481Y-15237734D01*
X15949481Y-15237734D02*
X15930434Y-15247258D01*
X15930434Y-15247258D02*
X15920910Y-15256781D01*
X15920910Y-15256781D02*
X15901862Y-15285353D01*
X15901862Y-15285353D02*
X15892339Y-15323448D01*
X15892339Y-15323448D02*
X15892339Y-15399638D01*
X15892339Y-15399638D02*
X15901862Y-15418686D01*
X15901862Y-15418686D02*
X15911386Y-15428210D01*
X15911386Y-15428210D02*
X15930434Y-15437734D01*
X15930434Y-15437734D02*
X15968529Y-15437734D01*
X15968529Y-15437734D02*
X15987577Y-15428210D01*
X15987577Y-15428210D02*
X15997100Y-15418686D01*
X15997100Y-15418686D02*
X16006624Y-15399638D01*
X16006624Y-15399638D02*
X16006624Y-15352019D01*
X16006624Y-15352019D02*
X15997100Y-15332972D01*
X15997100Y-15332972D02*
X15987577Y-15323448D01*
X15987577Y-15323448D02*
X15968529Y-15313924D01*
X15968529Y-15313924D02*
X15930434Y-15313924D01*
X15930434Y-15313924D02*
X15911386Y-15323448D01*
X15911386Y-15323448D02*
X15901862Y-15332972D01*
X15901862Y-15332972D02*
X15892339Y-15352019D01*
X16244720Y-15437734D02*
X16244720Y-15237734D01*
X16330434Y-15437734D02*
X16330434Y-15332972D01*
X16330434Y-15332972D02*
X16320910Y-15313924D01*
X16320910Y-15313924D02*
X16301862Y-15304400D01*
X16301862Y-15304400D02*
X16273291Y-15304400D01*
X16273291Y-15304400D02*
X16254243Y-15313924D01*
X16254243Y-15313924D02*
X16244720Y-15323448D01*
X16454243Y-15437734D02*
X16435196Y-15428210D01*
X16435196Y-15428210D02*
X16425672Y-15418686D01*
X16425672Y-15418686D02*
X16416148Y-15399638D01*
X16416148Y-15399638D02*
X16416148Y-15342496D01*
X16416148Y-15342496D02*
X16425672Y-15323448D01*
X16425672Y-15323448D02*
X16435196Y-15313924D01*
X16435196Y-15313924D02*
X16454243Y-15304400D01*
X16454243Y-15304400D02*
X16482815Y-15304400D01*
X16482815Y-15304400D02*
X16501862Y-15313924D01*
X16501862Y-15313924D02*
X16511386Y-15323448D01*
X16511386Y-15323448D02*
X16520910Y-15342496D01*
X16520910Y-15342496D02*
X16520910Y-15399638D01*
X16520910Y-15399638D02*
X16511386Y-15418686D01*
X16511386Y-15418686D02*
X16501862Y-15428210D01*
X16501862Y-15428210D02*
X16482815Y-15437734D01*
X16482815Y-15437734D02*
X16454243Y-15437734D01*
X16635196Y-15437734D02*
X16616148Y-15428210D01*
X16616148Y-15428210D02*
X16606624Y-15409162D01*
X16606624Y-15409162D02*
X16606624Y-15237734D01*
X16787577Y-15428210D02*
X16768529Y-15437734D01*
X16768529Y-15437734D02*
X16730434Y-15437734D01*
X16730434Y-15437734D02*
X16711386Y-15428210D01*
X16711386Y-15428210D02*
X16701862Y-15409162D01*
X16701862Y-15409162D02*
X16701862Y-15332972D01*
X16701862Y-15332972D02*
X16711386Y-15313924D01*
X16711386Y-15313924D02*
X16730434Y-15304400D01*
X16730434Y-15304400D02*
X16768529Y-15304400D01*
X16768529Y-15304400D02*
X16787577Y-15313924D01*
X16787577Y-15313924D02*
X16797101Y-15332972D01*
X16797101Y-15332972D02*
X16797101Y-15352019D01*
X16797101Y-15352019D02*
X16701862Y-15371067D01*
X16873291Y-15428210D02*
X16892339Y-15437734D01*
X16892339Y-15437734D02*
X16930434Y-15437734D01*
X16930434Y-15437734D02*
X16949482Y-15428210D01*
X16949482Y-15428210D02*
X16959005Y-15409162D01*
X16959005Y-15409162D02*
X16959005Y-15399638D01*
X16959005Y-15399638D02*
X16949482Y-15380591D01*
X16949482Y-15380591D02*
X16930434Y-15371067D01*
X16930434Y-15371067D02*
X16901863Y-15371067D01*
X16901863Y-15371067D02*
X16882815Y-15361543D01*
X16882815Y-15361543D02*
X16873291Y-15342496D01*
X16873291Y-15342496D02*
X16873291Y-15332972D01*
X16873291Y-15332972D02*
X16882815Y-15313924D01*
X16882815Y-15313924D02*
X16901863Y-15304400D01*
X16901863Y-15304400D02*
X16930434Y-15304400D01*
X16930434Y-15304400D02*
X16949482Y-15313924D01*
X17025672Y-15513924D02*
X17035196Y-15504400D01*
X17035196Y-15504400D02*
X17054244Y-15475829D01*
X17054244Y-15475829D02*
X17063767Y-15456781D01*
X17063767Y-15456781D02*
X17073291Y-15428210D01*
X17073291Y-15428210D02*
X17082815Y-15380591D01*
X17082815Y-15380591D02*
X17082815Y-15342496D01*
X17082815Y-15342496D02*
X17073291Y-15294877D01*
X17073291Y-15294877D02*
X17063767Y-15266305D01*
X17063767Y-15266305D02*
X17054244Y-15247258D01*
X17054244Y-15247258D02*
X17035196Y-15218686D01*
X17035196Y-15218686D02*
X17025672Y-15209162D01*
X17387577Y-15513924D02*
X17378053Y-15504400D01*
X17378053Y-15504400D02*
X17359005Y-15475829D01*
X17359005Y-15475829D02*
X17349482Y-15456781D01*
X17349482Y-15456781D02*
X17339958Y-15428210D01*
X17339958Y-15428210D02*
X17330434Y-15380591D01*
X17330434Y-15380591D02*
X17330434Y-15342496D01*
X17330434Y-15342496D02*
X17339958Y-15294877D01*
X17339958Y-15294877D02*
X17349482Y-15266305D01*
X17349482Y-15266305D02*
X17359005Y-15247258D01*
X17359005Y-15247258D02*
X17378053Y-15218686D01*
X17378053Y-15218686D02*
X17387577Y-15209162D01*
X17463767Y-15304400D02*
X17463767Y-15437734D01*
X17463767Y-15323448D02*
X17473291Y-15313924D01*
X17473291Y-15313924D02*
X17492339Y-15304400D01*
X17492339Y-15304400D02*
X17520910Y-15304400D01*
X17520910Y-15304400D02*
X17539958Y-15313924D01*
X17539958Y-15313924D02*
X17549482Y-15332972D01*
X17549482Y-15332972D02*
X17549482Y-15437734D01*
X17673291Y-15437734D02*
X17654244Y-15428210D01*
X17654244Y-15428210D02*
X17644720Y-15418686D01*
X17644720Y-15418686D02*
X17635196Y-15399638D01*
X17635196Y-15399638D02*
X17635196Y-15342496D01*
X17635196Y-15342496D02*
X17644720Y-15323448D01*
X17644720Y-15323448D02*
X17654244Y-15313924D01*
X17654244Y-15313924D02*
X17673291Y-15304400D01*
X17673291Y-15304400D02*
X17701863Y-15304400D01*
X17701863Y-15304400D02*
X17720910Y-15313924D01*
X17720910Y-15313924D02*
X17730434Y-15323448D01*
X17730434Y-15323448D02*
X17739958Y-15342496D01*
X17739958Y-15342496D02*
X17739958Y-15399638D01*
X17739958Y-15399638D02*
X17730434Y-15418686D01*
X17730434Y-15418686D02*
X17720910Y-15428210D01*
X17720910Y-15428210D02*
X17701863Y-15437734D01*
X17701863Y-15437734D02*
X17673291Y-15437734D01*
X17797101Y-15304400D02*
X17873291Y-15304400D01*
X17825672Y-15237734D02*
X17825672Y-15409162D01*
X17825672Y-15409162D02*
X17835196Y-15428210D01*
X17835196Y-15428210D02*
X17854244Y-15437734D01*
X17854244Y-15437734D02*
X17873291Y-15437734D01*
X18092339Y-15304400D02*
X18092339Y-15504400D01*
X18092339Y-15313924D02*
X18111386Y-15304400D01*
X18111386Y-15304400D02*
X18149482Y-15304400D01*
X18149482Y-15304400D02*
X18168529Y-15313924D01*
X18168529Y-15313924D02*
X18178053Y-15323448D01*
X18178053Y-15323448D02*
X18187577Y-15342496D01*
X18187577Y-15342496D02*
X18187577Y-15399638D01*
X18187577Y-15399638D02*
X18178053Y-15418686D01*
X18178053Y-15418686D02*
X18168529Y-15428210D01*
X18168529Y-15428210D02*
X18149482Y-15437734D01*
X18149482Y-15437734D02*
X18111386Y-15437734D01*
X18111386Y-15437734D02*
X18092339Y-15428210D01*
X18301863Y-15437734D02*
X18282815Y-15428210D01*
X18282815Y-15428210D02*
X18273291Y-15409162D01*
X18273291Y-15409162D02*
X18273291Y-15237734D01*
X18463767Y-15437734D02*
X18463767Y-15332972D01*
X18463767Y-15332972D02*
X18454244Y-15313924D01*
X18454244Y-15313924D02*
X18435196Y-15304400D01*
X18435196Y-15304400D02*
X18397101Y-15304400D01*
X18397101Y-15304400D02*
X18378053Y-15313924D01*
X18463767Y-15428210D02*
X18444720Y-15437734D01*
X18444720Y-15437734D02*
X18397101Y-15437734D01*
X18397101Y-15437734D02*
X18378053Y-15428210D01*
X18378053Y-15428210D02*
X18368529Y-15409162D01*
X18368529Y-15409162D02*
X18368529Y-15390115D01*
X18368529Y-15390115D02*
X18378053Y-15371067D01*
X18378053Y-15371067D02*
X18397101Y-15361543D01*
X18397101Y-15361543D02*
X18444720Y-15361543D01*
X18444720Y-15361543D02*
X18463767Y-15352019D01*
X18530434Y-15304400D02*
X18606625Y-15304400D01*
X18559006Y-15237734D02*
X18559006Y-15409162D01*
X18559006Y-15409162D02*
X18568529Y-15428210D01*
X18568529Y-15428210D02*
X18587577Y-15437734D01*
X18587577Y-15437734D02*
X18606625Y-15437734D01*
X18749482Y-15428210D02*
X18730434Y-15437734D01*
X18730434Y-15437734D02*
X18692339Y-15437734D01*
X18692339Y-15437734D02*
X18673291Y-15428210D01*
X18673291Y-15428210D02*
X18663767Y-15409162D01*
X18663767Y-15409162D02*
X18663767Y-15332972D01*
X18663767Y-15332972D02*
X18673291Y-15313924D01*
X18673291Y-15313924D02*
X18692339Y-15304400D01*
X18692339Y-15304400D02*
X18730434Y-15304400D01*
X18730434Y-15304400D02*
X18749482Y-15313924D01*
X18749482Y-15313924D02*
X18759006Y-15332972D01*
X18759006Y-15332972D02*
X18759006Y-15352019D01*
X18759006Y-15352019D02*
X18663767Y-15371067D01*
X18930434Y-15437734D02*
X18930434Y-15237734D01*
X18930434Y-15428210D02*
X18911387Y-15437734D01*
X18911387Y-15437734D02*
X18873291Y-15437734D01*
X18873291Y-15437734D02*
X18854244Y-15428210D01*
X18854244Y-15428210D02*
X18844720Y-15418686D01*
X18844720Y-15418686D02*
X18835196Y-15399638D01*
X18835196Y-15399638D02*
X18835196Y-15342496D01*
X18835196Y-15342496D02*
X18844720Y-15323448D01*
X18844720Y-15323448D02*
X18854244Y-15313924D01*
X18854244Y-15313924D02*
X18873291Y-15304400D01*
X18873291Y-15304400D02*
X18911387Y-15304400D01*
X18911387Y-15304400D02*
X18930434Y-15313924D01*
X19006625Y-15513924D02*
X19016148Y-15504400D01*
X19016148Y-15504400D02*
X19035196Y-15475829D01*
X19035196Y-15475829D02*
X19044720Y-15456781D01*
X19044720Y-15456781D02*
X19054244Y-15428210D01*
X19054244Y-15428210D02*
X19063767Y-15380591D01*
X19063767Y-15380591D02*
X19063767Y-15342496D01*
X19063767Y-15342496D02*
X19054244Y-15294877D01*
X19054244Y-15294877D02*
X19044720Y-15266305D01*
X19044720Y-15266305D02*
X19035196Y-15247258D01*
X19035196Y-15247258D02*
X19016148Y-15218686D01*
X19016148Y-15218686D02*
X19006625Y-15209162D01*
M02*
