M48
; DRILL file {KiCad 7.0.11} date Friday, September 20, 2024 at 05:58:10 PM
; FORMAT={-:-/ absolute / metric / decimal}
; #@! TF.CreationDate,2024-09-20T17:58:10+02:00
; #@! TF.GenerationSoftware,Kicad,Pcbnew,7.0.11
; #@! TF.FileFunction,Plated,1,2,PTH
FMAT,2
METRIC
; #@! TA.AperFunction,Plated,PTH,ViaDrill
T1C0.500
; #@! TA.AperFunction,Plated,PTH,ComponentDrill
T2C0.600
; #@! TA.AperFunction,Plated,PTH,ComponentDrill
T3C0.800
; #@! TA.AperFunction,Plated,PTH,ComponentDrill
T4C1.000
; #@! TA.AperFunction,Plated,PTH,ComponentDrill
T5C3.200
%
G90
G05
T1
X124.619Y-76.2
X124.619Y-122.237
X124.731Y-137.512
X125.412Y-86.519
X126.206Y-101.6
X126.319Y-61.312
X137.319Y-131.762
X138.112Y-114.3
X138.906Y-97.631
X143.669Y-74.612
X146.844Y-52.387
X149.225Y-144.463
X153.987Y-113.506
X154.781Y-80.962
X154.781Y-96.044
X155.575Y-130.969
X157.956Y-73.819
X158.75Y-66.675
X163.512Y-58.737
X166.688Y-144.463
X167.481Y-61.119
X169.069Y-62.706
X169.862Y-51.594
X169.862Y-114.3
X170.656Y-96.837
X171.45Y-65.881
X171.45Y-76.994
X171.45Y-80.169
X171.45Y-130.969
X172.244Y-55.562
X176.213Y-71.438
X179.387Y-66.675
X179.387Y-72.231
X179.387Y-80.962
X180.975Y-57.944
X183.356Y-144.463
X185.737Y-72.231
X185.737Y-80.169
X187.325Y-112.712
X188.912Y-96.044
X189.706Y-62.706
X189.706Y-64.294
X189.706Y-111.919
X189.706Y-129.381
X192.087Y-71.438
X192.087Y-79.375
X192.881Y-88.9
X194.469Y-106.362
X196.056Y-56.356
X196.056Y-123.825
X200.137Y-137.512
X200.819Y-86.519
X200.819Y-103.188
X200.931Y-62.106
X201.612Y-74.612
X201.612Y-127.0
T2
X184.15Y-58.737
T3
X142.987Y-85.442
X142.987Y-93.062
X142.987Y-102.111
X142.987Y-109.731
X142.987Y-118.78
X142.987Y-126.4
X142.987Y-135.449
X142.987Y-143.069
X159.656Y-85.442
X159.656Y-93.062
X159.656Y-102.111
X159.656Y-109.731
X159.656Y-118.78
X159.656Y-126.4
X159.656Y-135.449
X159.656Y-143.069
X176.325Y-85.442
X176.325Y-93.062
X176.325Y-102.111
X176.325Y-109.731
X176.325Y-118.78
X176.325Y-126.4
X176.325Y-135.449
X176.325Y-143.069
X192.994Y-85.442
X192.994Y-93.062
X192.994Y-102.111
X192.994Y-109.731
X192.994Y-118.78
X192.994Y-126.4
X192.994Y-135.449
X192.994Y-143.069
T4
X132.431Y-90.962
X132.431Y-107.631
X132.431Y-124.3
X132.431Y-140.969
X137.431Y-93.062
X137.431Y-109.731
X137.431Y-126.4
X137.431Y-143.069
X142.431Y-82.013
X142.431Y-98.681
X142.431Y-115.35
X142.431Y-132.019
X149.1Y-90.962
X149.1Y-107.631
X149.1Y-124.3
X149.1Y-140.969
X154.1Y-93.062
X154.1Y-109.731
X154.1Y-126.4
X154.1Y-143.069
X159.1Y-82.013
X159.1Y-98.681
X159.1Y-115.35
X159.1Y-132.019
X159.974Y-52.537
X162.514Y-52.537
X165.054Y-52.537
X165.769Y-90.962
X165.769Y-107.631
X165.769Y-124.3
X165.769Y-140.969
X167.594Y-52.537
X170.769Y-93.062
X170.769Y-109.731
X170.769Y-126.4
X170.769Y-143.069
X175.769Y-82.013
X175.769Y-98.681
X175.769Y-115.35
X175.769Y-132.019
X182.438Y-90.962
X182.438Y-107.631
X182.438Y-124.3
X182.438Y-140.969
X187.438Y-93.062
X187.438Y-109.731
X187.438Y-126.4
X187.438Y-143.069
X192.438Y-82.013
X192.438Y-98.681
X192.438Y-115.35
X192.438Y-132.019
T5
X124.731Y-54.169
X124.731Y-143.069
X200.137Y-54.169
X200.137Y-143.069
M30
