M48
; DRILL file {KiCad 7.0.11} date Saturday, September 14, 2024 at 09:56:33 PM
; FORMAT={-:-/ absolute / metric / decimal}
; #@! TF.CreationDate,2024-09-14T21:56:33+02:00
; #@! TF.GenerationSoftware,Kicad,Pcbnew,7.0.11
; #@! TF.FileFunction,Plated,1,2,PTH
FMAT,2
METRIC
; #@! TA.AperFunction,Plated,PTH,ViaDrill
T1C0.400
; #@! TA.AperFunction,Plated,PTH,ComponentDrill
T2C0.800
; #@! TA.AperFunction,Plated,PTH,ComponentDrill
T3C1.000
; #@! TA.AperFunction,Plated,PTH,ComponentDrill
T4C3.200
%
G90
G05
T1
X123.825Y-138.112
X125.412Y-126.206
X129.381Y-57.15
X139.7Y-126.206
X143.872Y-119.551
X143.872Y-122.726
X146.844Y-73.025
X146.844Y-106.362
X155.575Y-131.762
X162.719Y-119.856
X163.512Y-73.025
X163.512Y-106.362
X166.891Y-121.139
X171.45Y-126.206
X180.181Y-56.356
X182.562Y-126.206
X186.531Y-138.112
T2
X135.934Y-60.338
X135.934Y-67.958
X135.934Y-77.006
X135.934Y-84.626
X135.934Y-93.675
X135.934Y-101.295
X135.934Y-110.344
X135.934Y-117.964
X152.603Y-60.338
X152.603Y-67.958
X152.603Y-77.006
X152.603Y-84.626
X152.603Y-93.675
X152.603Y-101.295
X152.603Y-110.344
X152.603Y-117.964
X169.272Y-60.338
X169.272Y-67.958
X169.272Y-77.006
X169.272Y-84.626
X169.272Y-93.675
X169.272Y-101.295
X169.272Y-110.344
X169.272Y-117.964
X185.941Y-60.338
X185.941Y-67.958
X185.941Y-77.006
X185.941Y-84.626
X185.941Y-93.675
X185.941Y-101.295
X185.941Y-110.344
X185.941Y-117.964
T3
X125.378Y-65.858
X125.378Y-82.526
X125.378Y-99.195
X125.378Y-115.864
X130.378Y-67.958
X130.378Y-84.626
X130.378Y-101.295
X130.378Y-117.964
X135.378Y-56.908
X135.378Y-73.576
X135.378Y-90.245
X135.378Y-106.914
X142.047Y-65.858
X142.047Y-82.526
X142.047Y-99.195
X142.047Y-115.864
X147.047Y-67.958
X147.047Y-84.626
X147.047Y-101.295
X147.047Y-117.964
X152.047Y-56.908
X152.047Y-73.576
X152.047Y-90.245
X152.047Y-106.914
X158.716Y-65.858
X158.716Y-82.526
X158.716Y-99.195
X158.716Y-115.864
X163.716Y-67.958
X163.716Y-84.626
X163.716Y-101.295
X163.716Y-117.964
X168.716Y-56.908
X168.716Y-73.576
X168.716Y-90.245
X168.716Y-106.914
X175.384Y-65.858
X175.384Y-82.526
X175.384Y-99.195
X175.384Y-115.864
X180.384Y-67.958
X180.384Y-84.626
X180.384Y-101.295
X180.384Y-117.964
X185.384Y-56.908
X185.384Y-73.576
X185.384Y-90.245
X185.384Y-106.914
T4
X119.062Y-51.594
X119.062Y-137.319
X192.087Y-51.594
X192.087Y-137.319
M30
