G04 #@! TF.GenerationSoftware,KiCad,Pcbnew,7.0.11*
G04 #@! TF.CreationDate,2024-09-14T12:44:14+02:00*
G04 #@! TF.ProjectId,macropad,6d616372-6f70-4616-942e-6b696361645f,rev?*
G04 #@! TF.SameCoordinates,Original*
G04 #@! TF.FileFunction,Copper,L1,Top*
G04 #@! TF.FilePolarity,Positive*
%FSLAX46Y46*%
G04 Gerber Fmt 4.6, Leading zero omitted, Abs format (unit mm)*
G04 Created by KiCad (PCBNEW 7.0.11) date 2024-09-14 12:44:14*
%MOMM*%
%LPD*%
G01*
G04 APERTURE LIST*
G04 #@! TA.AperFunction,ComponentPad*
%ADD10C,1.650000*%
G04 #@! TD*
G04 #@! TA.AperFunction,ComponentPad*
%ADD11C,1.350000*%
G04 #@! TD*
G04 #@! TA.AperFunction,ComponentPad*
%ADD12R,1.600000X1.600000*%
G04 #@! TD*
G04 #@! TA.AperFunction,ComponentPad*
%ADD13O,1.600000X1.600000*%
G04 #@! TD*
G04 #@! TA.AperFunction,ViaPad*
%ADD14C,0.800000*%
G04 #@! TD*
G04 #@! TA.AperFunction,Conductor*
%ADD15C,0.400000*%
G04 #@! TD*
G04 APERTURE END LIST*
D10*
X135378200Y-73576450D03*
D11*
X130378200Y-84626450D03*
X125378200Y-82526450D03*
D10*
X168715700Y-106913950D03*
D11*
X163715700Y-117963950D03*
X158715700Y-115863950D03*
D10*
X135378200Y-56907700D03*
D11*
X130378200Y-67957700D03*
X125378200Y-65857700D03*
D10*
X152046950Y-90245200D03*
D11*
X147046950Y-101295200D03*
X142046950Y-99195200D03*
D10*
X168715700Y-90245200D03*
D11*
X163715700Y-101295200D03*
X158715700Y-99195200D03*
D10*
X185384450Y-90245200D03*
D11*
X180384450Y-101295200D03*
X175384450Y-99195200D03*
D10*
X168715700Y-73576450D03*
D11*
X163715700Y-84626450D03*
X158715700Y-82526450D03*
D10*
X185384450Y-56907700D03*
D11*
X180384450Y-67957700D03*
X175384450Y-65857700D03*
D10*
X135378200Y-90245200D03*
D11*
X130378200Y-101295200D03*
X125378200Y-99195200D03*
D10*
X152046950Y-56907700D03*
D11*
X147046950Y-67957700D03*
X142046950Y-65857700D03*
D10*
X185384450Y-73576450D03*
D11*
X180384450Y-84626450D03*
X175384450Y-82526450D03*
D10*
X168715700Y-56907700D03*
D11*
X163715700Y-67957700D03*
X158715700Y-65857700D03*
D10*
X135378200Y-106913950D03*
D11*
X130378200Y-117963950D03*
X125378200Y-115863950D03*
D10*
X152046950Y-73576450D03*
D11*
X147046950Y-84626450D03*
X142046950Y-82526450D03*
D10*
X185384450Y-106913950D03*
D11*
X180384450Y-117963950D03*
X175384450Y-115863950D03*
D10*
X152046950Y-106913950D03*
D11*
X147046950Y-117963950D03*
X142046950Y-115863950D03*
D12*
X169271950Y-60337700D03*
D13*
X169271950Y-67957700D03*
D12*
X185940700Y-77006450D03*
D13*
X185940700Y-84626450D03*
D12*
X152603200Y-110343950D03*
D13*
X152603200Y-117963950D03*
D12*
X135934450Y-77006450D03*
D13*
X135934450Y-84626450D03*
D12*
X152603200Y-93675200D03*
D13*
X152603200Y-101295200D03*
D12*
X185940700Y-60337700D03*
D13*
X185940700Y-67957700D03*
D12*
X185940700Y-110343950D03*
D13*
X185940700Y-117963950D03*
D12*
X135934450Y-110343950D03*
D13*
X135934450Y-117963950D03*
D12*
X135934450Y-60337700D03*
D13*
X135934450Y-67957700D03*
D12*
X169271950Y-77006450D03*
D13*
X169271950Y-84626450D03*
D12*
X135934450Y-93675200D03*
D13*
X135934450Y-101295200D03*
D12*
X169271950Y-93675200D03*
D13*
X169271950Y-101295200D03*
D12*
X185940700Y-93675200D03*
D13*
X185940700Y-101295200D03*
D12*
X152603200Y-60337700D03*
D13*
X152603200Y-67957700D03*
D12*
X152603200Y-77006450D03*
D13*
X152603200Y-84626450D03*
D12*
X169271950Y-110343950D03*
D13*
X169271950Y-117963950D03*
D14*
X143871950Y-122726450D03*
X143871950Y-119551450D03*
X166890700Y-121138950D03*
X186531250Y-138112500D03*
X125412500Y-126206250D03*
X180181250Y-56356250D03*
X171450000Y-126206250D03*
X129381250Y-57150000D03*
X162718750Y-119856250D03*
X182562500Y-126206250D03*
X123825000Y-138112500D03*
X163512500Y-73025000D03*
X146843750Y-73025000D03*
X139700000Y-126206250D03*
X146843750Y-106362500D03*
X155575000Y-131762500D03*
X163512500Y-106362500D03*
D15*
X129127250Y-65874900D02*
X127019050Y-67983100D01*
X127019050Y-67983100D02*
X127019050Y-117779800D01*
X135934450Y-60337700D02*
X134664450Y-60337700D01*
X131965700Y-122726450D02*
X143871950Y-122726450D01*
X133724650Y-63995300D02*
X131845050Y-65874900D01*
X131845050Y-65874900D02*
X129127250Y-65874900D01*
X134664450Y-60337700D02*
X133724650Y-61277500D01*
X133724650Y-61277500D02*
X133724650Y-63995300D01*
X127019050Y-117779800D02*
X131965700Y-122726450D01*
X135934450Y-67957700D02*
X130378200Y-67957700D01*
X152603200Y-67957700D02*
X147046950Y-67957700D01*
X169271950Y-67957700D02*
X163715700Y-67957700D01*
X139109450Y-117963950D02*
X139109450Y-80181450D01*
X139109450Y-80181450D02*
X135934450Y-77006450D01*
X143871950Y-119551450D02*
X140696950Y-119551450D01*
X140696950Y-119551450D02*
X139109450Y-117963950D01*
X135934450Y-84626450D02*
X130378200Y-84626450D01*
X147046950Y-84626450D02*
X152603200Y-84626450D01*
X163715700Y-84626450D02*
X169271950Y-84626450D01*
X170065700Y-121138950D02*
X172446950Y-118757700D01*
X166890700Y-121138950D02*
X170065700Y-121138950D01*
X172446950Y-118757700D02*
X172446950Y-96850200D01*
X172446950Y-96850200D02*
X169271950Y-93675200D01*
X135934450Y-101295200D02*
X130378200Y-101295200D01*
X152603200Y-101295200D02*
X147046950Y-101295200D01*
X169271950Y-101295200D02*
X163715700Y-101295200D01*
X185940700Y-67957700D02*
X180384450Y-67957700D01*
X180384450Y-84626450D02*
X185940700Y-84626450D01*
X185940700Y-101295200D02*
X180384450Y-101295200D01*
X180384450Y-117963950D02*
X185940700Y-117963950D01*
X163715700Y-117963950D02*
X169271950Y-117963950D01*
X152603200Y-117963950D02*
X147046950Y-117963950D01*
X135934450Y-117963950D02*
X130378200Y-117963950D01*
X125378200Y-99195200D02*
X125378200Y-115863950D01*
X125378200Y-82526450D02*
X125378200Y-99195200D01*
X125378200Y-65857700D02*
X125378200Y-82526450D01*
X142046950Y-115863950D02*
X142046950Y-99195200D01*
X142046950Y-82526450D02*
X142046950Y-99195200D01*
X142046950Y-65857700D02*
X142046950Y-82526450D01*
X158715700Y-82526450D02*
X158715700Y-99195200D01*
X158715700Y-65857700D02*
X158715700Y-82526450D01*
X158715700Y-99195200D02*
X158715700Y-115863950D01*
X175384450Y-99195200D02*
X175384450Y-82526450D01*
X175384450Y-65857700D02*
X175384450Y-82526450D01*
X175384450Y-115863950D02*
X175384450Y-99195200D01*
G04 #@! TA.AperFunction,Conductor*
G36*
X186668566Y-53376951D02*
G01*
X186730980Y-53376950D01*
X186737931Y-53377145D01*
X187026968Y-53393372D01*
X187040763Y-53394926D01*
X187322730Y-53442831D01*
X187336277Y-53445922D01*
X187611107Y-53525097D01*
X187624220Y-53529685D01*
X187746139Y-53580185D01*
X187888450Y-53639131D01*
X187900971Y-53645160D01*
X188151284Y-53783501D01*
X188163057Y-53790899D01*
X188396307Y-53956396D01*
X188407171Y-53965059D01*
X188620429Y-54155637D01*
X188630260Y-54165468D01*
X188820839Y-54378726D01*
X188829503Y-54389592D01*
X188995000Y-54622842D01*
X189002398Y-54634615D01*
X189140735Y-54884920D01*
X189146768Y-54897449D01*
X189256211Y-55161672D01*
X189260804Y-55174798D01*
X189339975Y-55449617D01*
X189343069Y-55463174D01*
X189390971Y-55745124D01*
X189392528Y-55758943D01*
X189408754Y-56047968D01*
X189408949Y-56054918D01*
X189408949Y-56127321D01*
X189408950Y-56127334D01*
X189408950Y-137804219D01*
X189408755Y-137811172D01*
X189392523Y-138100201D01*
X189390966Y-138114019D01*
X189343061Y-138395970D01*
X189339967Y-138409526D01*
X189260792Y-138684350D01*
X189256199Y-138697475D01*
X189146758Y-138961694D01*
X189140725Y-138974223D01*
X189002379Y-139224543D01*
X188994981Y-139236316D01*
X188829488Y-139469561D01*
X188820818Y-139480433D01*
X188630250Y-139693681D01*
X188620418Y-139703514D01*
X188407164Y-139894092D01*
X188396292Y-139902762D01*
X188163046Y-140068263D01*
X188151272Y-140075661D01*
X187900970Y-140214001D01*
X187888442Y-140220034D01*
X187624206Y-140329488D01*
X187611081Y-140334081D01*
X187336276Y-140413255D01*
X187322720Y-140416350D01*
X187040756Y-140464262D01*
X187026938Y-140465819D01*
X186751676Y-140481281D01*
X186738802Y-140482005D01*
X186731849Y-140482200D01*
X124031701Y-140482200D01*
X124024745Y-140482005D01*
X123735714Y-140465765D01*
X123721896Y-140464207D01*
X123439955Y-140416296D01*
X123426399Y-140413202D01*
X123151577Y-140334020D01*
X123138453Y-140329427D01*
X122874238Y-140219981D01*
X122861710Y-140213948D01*
X122611403Y-140075605D01*
X122599629Y-140068207D01*
X122366386Y-139902710D01*
X122355515Y-139894041D01*
X122142262Y-139703466D01*
X122132431Y-139693635D01*
X121941858Y-139480384D01*
X121933189Y-139469513D01*
X121870442Y-139381081D01*
X121767691Y-139236268D01*
X121760294Y-139224496D01*
X121621951Y-138974189D01*
X121615918Y-138961661D01*
X121506472Y-138697446D01*
X121501879Y-138684322D01*
X121422694Y-138409489D01*
X121419605Y-138395956D01*
X121371690Y-138113992D01*
X121370135Y-138100196D01*
X121353895Y-137811154D01*
X121353700Y-137804198D01*
X121353700Y-115863950D01*
X124197664Y-115863950D01*
X124217764Y-116080868D01*
X124217764Y-116080870D01*
X124217765Y-116080873D01*
X124277383Y-116290409D01*
X124374488Y-116485422D01*
X124505773Y-116659272D01*
X124666768Y-116806038D01*
X124666775Y-116806042D01*
X124666776Y-116806043D01*
X124851986Y-116920720D01*
X124851992Y-116920723D01*
X124874864Y-116929583D01*
X125055131Y-116999420D01*
X125269274Y-117039450D01*
X125269276Y-117039450D01*
X125487124Y-117039450D01*
X125487126Y-117039450D01*
X125701269Y-116999420D01*
X125904410Y-116920722D01*
X126089632Y-116806038D01*
X126111013Y-116786546D01*
X126173816Y-116755930D01*
X126243203Y-116764127D01*
X126297143Y-116808537D01*
X126318511Y-116875059D01*
X126318550Y-116878184D01*
X126318550Y-117754878D01*
X126318324Y-117762366D01*
X126314692Y-117822403D01*
X126314692Y-117822405D01*
X126325533Y-117881570D01*
X126326660Y-117888971D01*
X126333909Y-117948671D01*
X126333910Y-117948674D01*
X126337501Y-117958143D01*
X126343524Y-117979746D01*
X126345354Y-117989730D01*
X126370041Y-118044582D01*
X126372904Y-118051494D01*
X126394232Y-118107730D01*
X126394233Y-118107731D01*
X126399986Y-118116066D01*
X126411011Y-118135613D01*
X126415170Y-118144855D01*
X126415174Y-118144860D01*
X126452265Y-118192203D01*
X126456705Y-118198238D01*
X126490862Y-118247724D01*
X126490866Y-118247729D01*
X126535878Y-118287605D01*
X126541333Y-118292740D01*
X131452751Y-123204157D01*
X131457871Y-123209595D01*
X131497771Y-123254633D01*
X131547274Y-123288802D01*
X131553303Y-123293238D01*
X131600644Y-123330328D01*
X131600646Y-123330329D01*
X131600649Y-123330331D01*
X131609877Y-123334484D01*
X131629431Y-123345512D01*
X131637770Y-123351268D01*
X131694031Y-123372604D01*
X131700908Y-123375453D01*
X131722263Y-123385065D01*
X131755763Y-123400143D01*
X131755766Y-123400143D01*
X131755769Y-123400145D01*
X131765734Y-123401971D01*
X131787356Y-123407998D01*
X131790477Y-123409181D01*
X131796828Y-123411590D01*
X131854389Y-123418578D01*
X131856515Y-123418837D01*
X131863922Y-123419964D01*
X131923094Y-123430808D01*
X131983133Y-123427175D01*
X131990621Y-123426950D01*
X143263794Y-123426950D01*
X143330833Y-123446635D01*
X143336679Y-123450632D01*
X143419215Y-123510598D01*
X143419220Y-123510601D01*
X143592142Y-123587592D01*
X143592147Y-123587594D01*
X143777304Y-123626950D01*
X143777305Y-123626950D01*
X143966594Y-123626950D01*
X143966596Y-123626950D01*
X144151753Y-123587594D01*
X144324680Y-123510601D01*
X144477821Y-123399338D01*
X144604483Y-123258666D01*
X144699129Y-123094734D01*
X144757624Y-122914706D01*
X144777410Y-122726450D01*
X144757624Y-122538194D01*
X144699129Y-122358166D01*
X144604483Y-122194234D01*
X144477821Y-122053562D01*
X144477820Y-122053561D01*
X144324684Y-121942301D01*
X144324679Y-121942298D01*
X144151757Y-121865307D01*
X144151752Y-121865305D01*
X143997242Y-121832464D01*
X143966596Y-121825950D01*
X143777304Y-121825950D01*
X143746658Y-121832464D01*
X143592147Y-121865305D01*
X143592142Y-121865307D01*
X143419220Y-121942298D01*
X143419215Y-121942301D01*
X143336679Y-122002268D01*
X143270873Y-122025748D01*
X143263794Y-122025950D01*
X132307218Y-122025950D01*
X132240179Y-122006265D01*
X132219537Y-121989631D01*
X131368856Y-121138950D01*
X165985240Y-121138950D01*
X166005026Y-121327206D01*
X166005027Y-121327209D01*
X166063518Y-121507227D01*
X166063521Y-121507234D01*
X166158167Y-121671166D01*
X166284829Y-121811838D01*
X166437965Y-121923098D01*
X166437970Y-121923101D01*
X166610892Y-122000092D01*
X166610897Y-122000094D01*
X166796054Y-122039450D01*
X166796055Y-122039450D01*
X166985344Y-122039450D01*
X166985346Y-122039450D01*
X167170503Y-122000094D01*
X167343430Y-121923101D01*
X167422977Y-121865307D01*
X167425971Y-121863132D01*
X167491777Y-121839652D01*
X167498856Y-121839450D01*
X170040779Y-121839450D01*
X170048266Y-121839675D01*
X170108306Y-121843308D01*
X170167482Y-121832463D01*
X170174885Y-121831337D01*
X170178621Y-121830883D01*
X170234572Y-121824090D01*
X170244035Y-121820500D01*
X170265661Y-121814472D01*
X170266593Y-121814301D01*
X170275632Y-121812645D01*
X170330508Y-121787946D01*
X170337378Y-121785100D01*
X170393630Y-121763768D01*
X170401966Y-121758012D01*
X170421521Y-121746984D01*
X170430757Y-121742828D01*
X170478113Y-121705725D01*
X170484104Y-121701316D01*
X170533629Y-121667133D01*
X170573522Y-121622101D01*
X170578624Y-121616681D01*
X172924681Y-119270624D01*
X172930101Y-119265522D01*
X172975133Y-119225629D01*
X173009316Y-119176104D01*
X173013725Y-119170113D01*
X173050828Y-119122757D01*
X173054984Y-119113521D01*
X173066012Y-119093966D01*
X173071768Y-119085630D01*
X173093100Y-119029378D01*
X173095946Y-119022508D01*
X173120645Y-118967632D01*
X173122472Y-118957661D01*
X173128502Y-118936031D01*
X173132090Y-118926571D01*
X173132090Y-118926568D01*
X173134583Y-118906043D01*
X173139337Y-118866885D01*
X173140464Y-118859478D01*
X173145634Y-118831265D01*
X173151308Y-118800306D01*
X173147676Y-118740265D01*
X173147450Y-118732778D01*
X173147450Y-117963950D01*
X179203914Y-117963950D01*
X179224014Y-118180868D01*
X179224014Y-118180870D01*
X179224015Y-118180873D01*
X179255844Y-118292740D01*
X179283634Y-118390412D01*
X179325376Y-118474241D01*
X179380738Y-118585422D01*
X179512023Y-118759272D01*
X179673018Y-118906038D01*
X179673025Y-118906042D01*
X179673026Y-118906043D01*
X179858236Y-119020720D01*
X179858242Y-119020723D01*
X179871606Y-119025900D01*
X180061381Y-119099420D01*
X180275524Y-119139450D01*
X180275526Y-119139450D01*
X180493374Y-119139450D01*
X180493376Y-119139450D01*
X180707519Y-119099420D01*
X180910660Y-119020722D01*
X181095882Y-118906038D01*
X181256877Y-118759272D01*
X181291274Y-118713723D01*
X181347383Y-118672087D01*
X181390228Y-118664450D01*
X184779027Y-118664450D01*
X184846066Y-118684135D01*
X184880602Y-118717327D01*
X184940654Y-118803091D01*
X185101558Y-118963995D01*
X185101561Y-118963997D01*
X185287966Y-119094518D01*
X185494204Y-119190689D01*
X185714008Y-119249585D01*
X185875930Y-119263751D01*
X185940698Y-119269418D01*
X185940700Y-119269418D01*
X185940702Y-119269418D01*
X185997373Y-119264459D01*
X186167392Y-119249585D01*
X186387196Y-119190689D01*
X186593434Y-119094518D01*
X186779839Y-118963997D01*
X186940747Y-118803089D01*
X187071268Y-118616684D01*
X187167439Y-118410446D01*
X187226335Y-118190642D01*
X187246168Y-117963950D01*
X187226335Y-117737258D01*
X187167439Y-117517454D01*
X187071268Y-117311216D01*
X186940747Y-117124811D01*
X186940745Y-117124808D01*
X186779841Y-116963904D01*
X186593434Y-116833382D01*
X186593432Y-116833381D01*
X186387197Y-116737211D01*
X186387188Y-116737208D01*
X186167397Y-116678316D01*
X186167393Y-116678315D01*
X186167392Y-116678315D01*
X186167391Y-116678314D01*
X186167386Y-116678314D01*
X185940702Y-116658482D01*
X185940698Y-116658482D01*
X185714013Y-116678314D01*
X185714002Y-116678316D01*
X185494211Y-116737208D01*
X185494202Y-116737211D01*
X185287967Y-116833381D01*
X185287965Y-116833382D01*
X185101558Y-116963904D01*
X184940654Y-117124808D01*
X184880602Y-117210573D01*
X184826025Y-117254198D01*
X184779027Y-117263450D01*
X181390228Y-117263450D01*
X181323189Y-117243765D01*
X181291274Y-117214177D01*
X181256875Y-117168626D01*
X181095883Y-117021863D01*
X181095873Y-117021856D01*
X180910663Y-116907179D01*
X180910657Y-116907176D01*
X180825563Y-116874210D01*
X180707519Y-116828480D01*
X180493376Y-116788450D01*
X180275524Y-116788450D01*
X180061381Y-116828480D01*
X180048728Y-116833382D01*
X179858242Y-116907176D01*
X179858236Y-116907179D01*
X179673026Y-117021856D01*
X179673016Y-117021863D01*
X179512024Y-117168626D01*
X179380738Y-117342477D01*
X179283634Y-117537487D01*
X179224014Y-117747031D01*
X179203914Y-117963949D01*
X179203914Y-117963950D01*
X173147450Y-117963950D01*
X173147450Y-115863950D01*
X174203914Y-115863950D01*
X174224014Y-116080868D01*
X174224014Y-116080870D01*
X174224015Y-116080873D01*
X174283633Y-116290409D01*
X174380738Y-116485422D01*
X174512023Y-116659272D01*
X174673018Y-116806038D01*
X174673025Y-116806042D01*
X174673026Y-116806043D01*
X174858236Y-116920720D01*
X174858242Y-116920723D01*
X174881114Y-116929583D01*
X175061381Y-116999420D01*
X175275524Y-117039450D01*
X175275526Y-117039450D01*
X175493374Y-117039450D01*
X175493376Y-117039450D01*
X175707519Y-116999420D01*
X175910660Y-116920722D01*
X176095882Y-116806038D01*
X176256877Y-116659272D01*
X176388162Y-116485422D01*
X176485267Y-116290409D01*
X176544885Y-116080873D01*
X176564986Y-115863950D01*
X176544885Y-115647027D01*
X176485267Y-115437491D01*
X176388162Y-115242478D01*
X176256877Y-115068628D01*
X176256875Y-115068625D01*
X176125412Y-114948781D01*
X176089130Y-114889070D01*
X176084950Y-114857144D01*
X176084950Y-112063950D01*
X177628923Y-112063950D01*
X177649013Y-112396086D01*
X177649013Y-112396091D01*
X177649014Y-112396092D01*
X177708994Y-112723391D01*
X177708995Y-112723395D01*
X177708996Y-112723399D01*
X177807980Y-113041054D01*
X177807984Y-113041066D01*
X177807987Y-113041073D01*
X177944552Y-113344507D01*
X177994696Y-113427455D01*
X178116701Y-113629276D01*
X178321910Y-113891205D01*
X178557194Y-114126489D01*
X178819123Y-114331698D01*
X178819128Y-114331701D01*
X178819132Y-114331704D01*
X179103893Y-114503848D01*
X179407327Y-114640413D01*
X179407340Y-114640417D01*
X179407345Y-114640419D01*
X179619115Y-114706408D01*
X179725009Y-114739406D01*
X180052308Y-114799386D01*
X180301344Y-114814450D01*
X180301357Y-114814450D01*
X180467543Y-114814450D01*
X180467556Y-114814450D01*
X180716592Y-114799386D01*
X181043891Y-114739406D01*
X181361573Y-114640413D01*
X181665007Y-114503848D01*
X181949768Y-114331704D01*
X182211702Y-114126492D01*
X182446992Y-113891202D01*
X182652204Y-113629268D01*
X182824348Y-113344507D01*
X182960913Y-113041073D01*
X183059906Y-112723391D01*
X183119886Y-112396092D01*
X183139977Y-112063950D01*
X183119886Y-111731808D01*
X183059906Y-111404509D01*
X182993630Y-111191820D01*
X184640200Y-111191820D01*
X184640201Y-111191826D01*
X184646608Y-111251433D01*
X184696902Y-111386278D01*
X184696906Y-111386285D01*
X184783152Y-111501494D01*
X184783155Y-111501497D01*
X184898364Y-111587743D01*
X184898371Y-111587747D01*
X185033217Y-111638041D01*
X185033216Y-111638041D01*
X185040144Y-111638785D01*
X185092827Y-111644450D01*
X186788572Y-111644449D01*
X186848183Y-111638041D01*
X186983031Y-111587746D01*
X187098246Y-111501496D01*
X187184496Y-111386281D01*
X187234791Y-111251433D01*
X187241200Y-111191823D01*
X187241199Y-109496078D01*
X187234791Y-109436467D01*
X187216898Y-109388494D01*
X187184497Y-109301621D01*
X187184493Y-109301614D01*
X187098247Y-109186405D01*
X187098244Y-109186402D01*
X186983035Y-109100156D01*
X186983028Y-109100152D01*
X186848182Y-109049858D01*
X186848183Y-109049858D01*
X186788583Y-109043451D01*
X186788581Y-109043450D01*
X186788573Y-109043450D01*
X186788564Y-109043450D01*
X185092829Y-109043450D01*
X185092823Y-109043451D01*
X185033216Y-109049858D01*
X184898371Y-109100152D01*
X184898364Y-109100156D01*
X184783155Y-109186402D01*
X184783152Y-109186405D01*
X184696906Y-109301614D01*
X184696902Y-109301621D01*
X184646608Y-109436467D01*
X184640201Y-109496066D01*
X184640201Y-109496073D01*
X184640200Y-109496085D01*
X184640200Y-111191820D01*
X182993630Y-111191820D01*
X182960913Y-111086827D01*
X182824348Y-110783393D01*
X182652204Y-110498632D01*
X182652201Y-110498628D01*
X182652198Y-110498623D01*
X182446989Y-110236694D01*
X182211705Y-110001410D01*
X181949776Y-109796201D01*
X181949768Y-109796196D01*
X181665007Y-109624052D01*
X181361573Y-109487487D01*
X181361566Y-109487484D01*
X181361554Y-109487480D01*
X181043899Y-109388496D01*
X181043895Y-109388495D01*
X181043891Y-109388494D01*
X180716592Y-109328514D01*
X180716591Y-109328513D01*
X180716586Y-109328513D01*
X180467564Y-109313450D01*
X180467556Y-109313450D01*
X180301344Y-109313450D01*
X180301335Y-109313450D01*
X180052313Y-109328513D01*
X180052308Y-109328514D01*
X179725009Y-109388494D01*
X179725006Y-109388494D01*
X179725000Y-109388496D01*
X179407345Y-109487480D01*
X179407329Y-109487486D01*
X179407327Y-109487487D01*
X179214106Y-109574448D01*
X179103897Y-109624050D01*
X179103895Y-109624051D01*
X178819123Y-109796201D01*
X178557194Y-110001410D01*
X178321910Y-110236694D01*
X178116701Y-110498623D01*
X178116696Y-110498632D01*
X177955917Y-110764594D01*
X177944551Y-110783395D01*
X177944550Y-110783397D01*
X177807986Y-111086830D01*
X177807980Y-111086845D01*
X177708996Y-111404500D01*
X177708994Y-111404506D01*
X177708994Y-111404509D01*
X177675414Y-111587747D01*
X177649013Y-111731813D01*
X177628923Y-112063950D01*
X176084950Y-112063950D01*
X176084950Y-106913951D01*
X184053887Y-106913951D01*
X184074100Y-107144994D01*
X184074101Y-107145001D01*
X184134128Y-107369024D01*
X184134129Y-107369026D01*
X184134130Y-107369029D01*
X184232149Y-107579232D01*
X184365180Y-107769219D01*
X184529181Y-107933220D01*
X184719168Y-108066251D01*
X184929371Y-108164270D01*
X185153400Y-108224299D01*
X185318435Y-108238737D01*
X185384448Y-108244513D01*
X185384450Y-108244513D01*
X185384452Y-108244513D01*
X185442212Y-108239459D01*
X185615500Y-108224299D01*
X185839529Y-108164270D01*
X186049732Y-108066251D01*
X186239719Y-107933220D01*
X186403720Y-107769219D01*
X186536751Y-107579232D01*
X186634770Y-107369029D01*
X186694799Y-107145000D01*
X186715013Y-106913950D01*
X186694799Y-106682900D01*
X186634770Y-106458871D01*
X186536751Y-106248669D01*
X186536749Y-106248666D01*
X186536748Y-106248664D01*
X186403723Y-106058685D01*
X186403718Y-106058679D01*
X186239719Y-105894680D01*
X186239713Y-105894676D01*
X186049732Y-105761649D01*
X185839529Y-105663630D01*
X185839526Y-105663629D01*
X185839524Y-105663628D01*
X185615501Y-105603601D01*
X185615494Y-105603600D01*
X185384452Y-105583387D01*
X185384448Y-105583387D01*
X185153405Y-105603600D01*
X185153398Y-105603601D01*
X184929367Y-105663631D01*
X184719168Y-105761649D01*
X184719164Y-105761651D01*
X184529185Y-105894676D01*
X184529179Y-105894681D01*
X184365181Y-106058679D01*
X184365176Y-106058685D01*
X184232151Y-106248664D01*
X184232149Y-106248668D01*
X184134131Y-106458867D01*
X184074101Y-106682898D01*
X184074100Y-106682905D01*
X184053887Y-106913948D01*
X184053887Y-106913951D01*
X176084950Y-106913951D01*
X176084950Y-101295200D01*
X179203914Y-101295200D01*
X179224014Y-101512118D01*
X179283634Y-101721662D01*
X179380738Y-101916672D01*
X179512023Y-102090522D01*
X179673018Y-102237288D01*
X179673025Y-102237292D01*
X179673026Y-102237293D01*
X179858236Y-102351970D01*
X179858242Y-102351973D01*
X179881114Y-102360833D01*
X180061381Y-102430670D01*
X180275524Y-102470700D01*
X180275526Y-102470700D01*
X180493374Y-102470700D01*
X180493376Y-102470700D01*
X180707519Y-102430670D01*
X180910660Y-102351972D01*
X181095882Y-102237288D01*
X181256877Y-102090522D01*
X181291274Y-102044973D01*
X181347383Y-102003337D01*
X181390228Y-101995700D01*
X184779027Y-101995700D01*
X184846066Y-102015385D01*
X184880602Y-102048577D01*
X184940654Y-102134341D01*
X185101558Y-102295245D01*
X185101561Y-102295247D01*
X185287966Y-102425768D01*
X185494204Y-102521939D01*
X185714008Y-102580835D01*
X185875930Y-102595001D01*
X185940698Y-102600668D01*
X185940700Y-102600668D01*
X185940702Y-102600668D01*
X185997373Y-102595709D01*
X186167392Y-102580835D01*
X186387196Y-102521939D01*
X186593434Y-102425768D01*
X186779839Y-102295247D01*
X186940747Y-102134339D01*
X187071268Y-101947934D01*
X187167439Y-101741696D01*
X187226335Y-101521892D01*
X187246168Y-101295200D01*
X187226335Y-101068508D01*
X187167439Y-100848704D01*
X187071268Y-100642466D01*
X186940747Y-100456061D01*
X186940745Y-100456058D01*
X186779841Y-100295154D01*
X186593434Y-100164632D01*
X186593432Y-100164631D01*
X186387197Y-100068461D01*
X186387188Y-100068458D01*
X186167397Y-100009566D01*
X186167393Y-100009565D01*
X186167392Y-100009565D01*
X186167391Y-100009564D01*
X186167386Y-100009564D01*
X185940702Y-99989732D01*
X185940698Y-99989732D01*
X185714013Y-100009564D01*
X185714002Y-100009566D01*
X185494211Y-100068458D01*
X185494202Y-100068461D01*
X185287967Y-100164631D01*
X185287965Y-100164632D01*
X185101558Y-100295154D01*
X184940654Y-100456058D01*
X184880602Y-100541823D01*
X184826025Y-100585448D01*
X184779027Y-100594700D01*
X181390228Y-100594700D01*
X181323189Y-100575015D01*
X181291274Y-100545427D01*
X181256875Y-100499876D01*
X181095883Y-100353113D01*
X181095873Y-100353106D01*
X180910663Y-100238429D01*
X180910657Y-100238426D01*
X180825563Y-100205460D01*
X180707519Y-100159730D01*
X180493376Y-100119700D01*
X180275524Y-100119700D01*
X180061381Y-100159730D01*
X180048728Y-100164632D01*
X179858242Y-100238426D01*
X179858236Y-100238429D01*
X179673026Y-100353106D01*
X179673016Y-100353113D01*
X179512024Y-100499876D01*
X179380738Y-100673727D01*
X179283634Y-100868737D01*
X179224014Y-101078281D01*
X179203914Y-101295199D01*
X179203914Y-101295200D01*
X176084950Y-101295200D01*
X176084950Y-100202004D01*
X176104635Y-100134965D01*
X176125404Y-100110374D01*
X176256877Y-99990522D01*
X176388162Y-99816672D01*
X176485267Y-99621659D01*
X176544885Y-99412123D01*
X176564986Y-99195200D01*
X176544885Y-98978277D01*
X176485267Y-98768741D01*
X176388162Y-98573728D01*
X176256877Y-98399878D01*
X176256875Y-98399875D01*
X176125412Y-98280031D01*
X176089130Y-98220320D01*
X176084950Y-98188394D01*
X176084950Y-95395200D01*
X177628923Y-95395200D01*
X177649013Y-95727336D01*
X177649013Y-95727341D01*
X177649014Y-95727342D01*
X177708994Y-96054641D01*
X177708995Y-96054645D01*
X177708996Y-96054649D01*
X177807980Y-96372304D01*
X177807984Y-96372316D01*
X177807987Y-96372323D01*
X177944552Y-96675757D01*
X178062803Y-96871368D01*
X178116701Y-96960526D01*
X178321910Y-97222455D01*
X178557194Y-97457739D01*
X178819123Y-97662948D01*
X178819128Y-97662951D01*
X178819132Y-97662954D01*
X179103893Y-97835098D01*
X179407327Y-97971663D01*
X179407340Y-97971667D01*
X179407345Y-97971669D01*
X179619115Y-98037658D01*
X179725009Y-98070656D01*
X180052308Y-98130636D01*
X180301344Y-98145700D01*
X180301357Y-98145700D01*
X180467543Y-98145700D01*
X180467556Y-98145700D01*
X180716592Y-98130636D01*
X181043891Y-98070656D01*
X181361573Y-97971663D01*
X181665007Y-97835098D01*
X181949768Y-97662954D01*
X182211702Y-97457742D01*
X182446992Y-97222452D01*
X182652204Y-96960518D01*
X182824348Y-96675757D01*
X182960913Y-96372323D01*
X182970240Y-96342393D01*
X183043100Y-96108573D01*
X183059906Y-96054641D01*
X183119886Y-95727342D01*
X183139977Y-95395200D01*
X183119886Y-95063058D01*
X183059906Y-94735759D01*
X182993630Y-94523070D01*
X184640200Y-94523070D01*
X184640201Y-94523076D01*
X184646608Y-94582683D01*
X184696902Y-94717528D01*
X184696906Y-94717535D01*
X184783152Y-94832744D01*
X184783155Y-94832747D01*
X184898364Y-94918993D01*
X184898371Y-94918997D01*
X185033217Y-94969291D01*
X185033216Y-94969291D01*
X185040144Y-94970035D01*
X185092827Y-94975700D01*
X186788572Y-94975699D01*
X186848183Y-94969291D01*
X186983031Y-94918996D01*
X187098246Y-94832746D01*
X187184496Y-94717531D01*
X187234791Y-94582683D01*
X187241200Y-94523073D01*
X187241199Y-92827328D01*
X187234791Y-92767717D01*
X187216898Y-92719744D01*
X187184497Y-92632871D01*
X187184493Y-92632864D01*
X187098247Y-92517655D01*
X187098244Y-92517652D01*
X186983035Y-92431406D01*
X186983028Y-92431402D01*
X186848182Y-92381108D01*
X186848183Y-92381108D01*
X186788583Y-92374701D01*
X186788581Y-92374700D01*
X186788573Y-92374700D01*
X186788564Y-92374700D01*
X185092829Y-92374700D01*
X185092823Y-92374701D01*
X185033216Y-92381108D01*
X184898371Y-92431402D01*
X184898364Y-92431406D01*
X184783155Y-92517652D01*
X184783152Y-92517655D01*
X184696906Y-92632864D01*
X184696902Y-92632871D01*
X184646608Y-92767717D01*
X184640201Y-92827316D01*
X184640201Y-92827323D01*
X184640200Y-92827335D01*
X184640200Y-94523070D01*
X182993630Y-94523070D01*
X182960913Y-94418077D01*
X182824348Y-94114643D01*
X182652204Y-93829882D01*
X182652201Y-93829878D01*
X182652198Y-93829873D01*
X182446989Y-93567944D01*
X182211705Y-93332660D01*
X181949776Y-93127451D01*
X181949768Y-93127446D01*
X181665007Y-92955302D01*
X181361573Y-92818737D01*
X181361566Y-92818734D01*
X181361554Y-92818730D01*
X181043899Y-92719746D01*
X181043895Y-92719745D01*
X181043891Y-92719744D01*
X180716592Y-92659764D01*
X180716591Y-92659763D01*
X180716586Y-92659763D01*
X180467564Y-92644700D01*
X180467556Y-92644700D01*
X180301344Y-92644700D01*
X180301335Y-92644700D01*
X180052313Y-92659763D01*
X180052308Y-92659764D01*
X179725009Y-92719744D01*
X179725006Y-92719744D01*
X179725000Y-92719746D01*
X179407345Y-92818730D01*
X179407329Y-92818736D01*
X179407327Y-92818737D01*
X179214106Y-92905698D01*
X179103897Y-92955300D01*
X179103895Y-92955301D01*
X178819123Y-93127451D01*
X178557194Y-93332660D01*
X178321910Y-93567944D01*
X178116701Y-93829873D01*
X178000943Y-94021361D01*
X177955917Y-94095844D01*
X177944551Y-94114645D01*
X177944550Y-94114647D01*
X177807986Y-94418080D01*
X177807980Y-94418095D01*
X177708996Y-94735750D01*
X177708994Y-94735756D01*
X177708994Y-94735759D01*
X177675414Y-94918997D01*
X177649013Y-95063063D01*
X177628923Y-95395200D01*
X176084950Y-95395200D01*
X176084950Y-90245201D01*
X184053887Y-90245201D01*
X184074100Y-90476244D01*
X184074101Y-90476251D01*
X184134128Y-90700274D01*
X184134129Y-90700276D01*
X184134130Y-90700279D01*
X184232149Y-90910482D01*
X184365180Y-91100469D01*
X184529181Y-91264470D01*
X184719168Y-91397501D01*
X184929371Y-91495520D01*
X185153400Y-91555549D01*
X185318435Y-91569987D01*
X185384448Y-91575763D01*
X185384450Y-91575763D01*
X185384452Y-91575763D01*
X185442212Y-91570709D01*
X185615500Y-91555549D01*
X185839529Y-91495520D01*
X186049732Y-91397501D01*
X186239719Y-91264470D01*
X186403720Y-91100469D01*
X186536751Y-90910482D01*
X186634770Y-90700279D01*
X186694799Y-90476250D01*
X186715013Y-90245200D01*
X186694799Y-90014150D01*
X186634770Y-89790121D01*
X186536751Y-89579919D01*
X186536749Y-89579916D01*
X186536748Y-89579914D01*
X186403723Y-89389935D01*
X186403718Y-89389929D01*
X186239719Y-89225930D01*
X186239713Y-89225926D01*
X186049732Y-89092899D01*
X185839529Y-88994880D01*
X185839526Y-88994879D01*
X185839524Y-88994878D01*
X185615501Y-88934851D01*
X185615494Y-88934850D01*
X185384452Y-88914637D01*
X185384448Y-88914637D01*
X185153405Y-88934850D01*
X185153398Y-88934851D01*
X184929367Y-88994881D01*
X184719168Y-89092899D01*
X184719164Y-89092901D01*
X184529185Y-89225926D01*
X184529179Y-89225931D01*
X184365181Y-89389929D01*
X184365176Y-89389935D01*
X184232151Y-89579914D01*
X184232149Y-89579918D01*
X184134131Y-89790117D01*
X184074101Y-90014148D01*
X184074100Y-90014155D01*
X184053887Y-90245198D01*
X184053887Y-90245201D01*
X176084950Y-90245201D01*
X176084950Y-84626450D01*
X179203914Y-84626450D01*
X179224014Y-84843368D01*
X179283634Y-85052912D01*
X179380738Y-85247922D01*
X179512023Y-85421772D01*
X179673018Y-85568538D01*
X179673025Y-85568542D01*
X179673026Y-85568543D01*
X179858236Y-85683220D01*
X179858242Y-85683223D01*
X179881114Y-85692083D01*
X180061381Y-85761920D01*
X180275524Y-85801950D01*
X180275526Y-85801950D01*
X180493374Y-85801950D01*
X180493376Y-85801950D01*
X180707519Y-85761920D01*
X180910660Y-85683222D01*
X181095882Y-85568538D01*
X181256877Y-85421772D01*
X181291274Y-85376223D01*
X181347383Y-85334587D01*
X181390228Y-85326950D01*
X184779027Y-85326950D01*
X184846066Y-85346635D01*
X184880602Y-85379827D01*
X184940654Y-85465591D01*
X185101558Y-85626495D01*
X185101561Y-85626497D01*
X185287966Y-85757018D01*
X185494204Y-85853189D01*
X185714008Y-85912085D01*
X185875930Y-85926251D01*
X185940698Y-85931918D01*
X185940700Y-85931918D01*
X185940702Y-85931918D01*
X185997373Y-85926959D01*
X186167392Y-85912085D01*
X186387196Y-85853189D01*
X186593434Y-85757018D01*
X186779839Y-85626497D01*
X186940747Y-85465589D01*
X187071268Y-85279184D01*
X187167439Y-85072946D01*
X187226335Y-84853142D01*
X187246168Y-84626450D01*
X187226335Y-84399758D01*
X187167439Y-84179954D01*
X187071268Y-83973716D01*
X186940747Y-83787311D01*
X186940745Y-83787308D01*
X186779841Y-83626404D01*
X186593434Y-83495882D01*
X186593432Y-83495881D01*
X186387197Y-83399711D01*
X186387188Y-83399708D01*
X186167397Y-83340816D01*
X186167393Y-83340815D01*
X186167392Y-83340815D01*
X186167391Y-83340814D01*
X186167386Y-83340814D01*
X185940702Y-83320982D01*
X185940698Y-83320982D01*
X185714013Y-83340814D01*
X185714002Y-83340816D01*
X185494211Y-83399708D01*
X185494202Y-83399711D01*
X185287967Y-83495881D01*
X185287965Y-83495882D01*
X185101558Y-83626404D01*
X184940654Y-83787308D01*
X184880602Y-83873073D01*
X184826025Y-83916698D01*
X184779027Y-83925950D01*
X181390228Y-83925950D01*
X181323189Y-83906265D01*
X181291274Y-83876677D01*
X181256875Y-83831126D01*
X181095883Y-83684363D01*
X181095873Y-83684356D01*
X180910663Y-83569679D01*
X180910657Y-83569676D01*
X180825563Y-83536710D01*
X180707519Y-83490980D01*
X180493376Y-83450950D01*
X180275524Y-83450950D01*
X180061381Y-83490980D01*
X180048728Y-83495882D01*
X179858242Y-83569676D01*
X179858236Y-83569679D01*
X179673026Y-83684356D01*
X179673016Y-83684363D01*
X179512024Y-83831126D01*
X179380738Y-84004977D01*
X179283634Y-84199987D01*
X179224014Y-84409531D01*
X179203914Y-84626449D01*
X179203914Y-84626450D01*
X176084950Y-84626450D01*
X176084950Y-83533254D01*
X176104635Y-83466215D01*
X176125404Y-83441624D01*
X176256877Y-83321772D01*
X176388162Y-83147922D01*
X176485267Y-82952909D01*
X176544885Y-82743373D01*
X176564986Y-82526450D01*
X176544885Y-82309527D01*
X176485267Y-82099991D01*
X176388162Y-81904978D01*
X176256877Y-81731128D01*
X176256875Y-81731125D01*
X176125412Y-81611281D01*
X176089130Y-81551570D01*
X176084950Y-81519644D01*
X176084950Y-78726450D01*
X177628923Y-78726450D01*
X177649013Y-79058586D01*
X177649013Y-79058591D01*
X177649014Y-79058592D01*
X177708994Y-79385891D01*
X177708995Y-79385895D01*
X177708996Y-79385899D01*
X177807980Y-79703554D01*
X177807984Y-79703566D01*
X177807987Y-79703573D01*
X177944552Y-80007007D01*
X178062803Y-80202618D01*
X178116701Y-80291776D01*
X178321910Y-80553705D01*
X178557194Y-80788989D01*
X178819123Y-80994198D01*
X178819128Y-80994201D01*
X178819132Y-80994204D01*
X179103893Y-81166348D01*
X179407327Y-81302913D01*
X179407340Y-81302917D01*
X179407345Y-81302919D01*
X179619115Y-81368908D01*
X179725009Y-81401906D01*
X180052308Y-81461886D01*
X180301344Y-81476950D01*
X180301357Y-81476950D01*
X180467543Y-81476950D01*
X180467556Y-81476950D01*
X180716592Y-81461886D01*
X181043891Y-81401906D01*
X181361573Y-81302913D01*
X181665007Y-81166348D01*
X181949768Y-80994204D01*
X182211702Y-80788992D01*
X182446992Y-80553702D01*
X182652204Y-80291768D01*
X182824348Y-80007007D01*
X182960913Y-79703573D01*
X182970240Y-79673643D01*
X183043100Y-79439823D01*
X183059906Y-79385891D01*
X183119886Y-79058592D01*
X183139977Y-78726450D01*
X183119886Y-78394308D01*
X183059906Y-78067009D01*
X182993630Y-77854320D01*
X184640200Y-77854320D01*
X184640201Y-77854326D01*
X184646608Y-77913933D01*
X184696902Y-78048778D01*
X184696906Y-78048785D01*
X184783152Y-78163994D01*
X184783155Y-78163997D01*
X184898364Y-78250243D01*
X184898371Y-78250247D01*
X185033217Y-78300541D01*
X185033216Y-78300541D01*
X185040144Y-78301285D01*
X185092827Y-78306950D01*
X186788572Y-78306949D01*
X186848183Y-78300541D01*
X186983031Y-78250246D01*
X187098246Y-78163996D01*
X187184496Y-78048781D01*
X187234791Y-77913933D01*
X187241200Y-77854323D01*
X187241199Y-76158578D01*
X187234791Y-76098967D01*
X187216898Y-76050994D01*
X187184497Y-75964121D01*
X187184493Y-75964114D01*
X187098247Y-75848905D01*
X187098244Y-75848902D01*
X186983035Y-75762656D01*
X186983028Y-75762652D01*
X186848182Y-75712358D01*
X186848183Y-75712358D01*
X186788583Y-75705951D01*
X186788581Y-75705950D01*
X186788573Y-75705950D01*
X186788564Y-75705950D01*
X185092829Y-75705950D01*
X185092823Y-75705951D01*
X185033216Y-75712358D01*
X184898371Y-75762652D01*
X184898364Y-75762656D01*
X184783155Y-75848902D01*
X184783152Y-75848905D01*
X184696906Y-75964114D01*
X184696902Y-75964121D01*
X184646608Y-76098967D01*
X184640201Y-76158566D01*
X184640201Y-76158573D01*
X184640200Y-76158585D01*
X184640200Y-77854320D01*
X182993630Y-77854320D01*
X182960913Y-77749327D01*
X182824348Y-77445893D01*
X182652204Y-77161132D01*
X182652201Y-77161128D01*
X182652198Y-77161123D01*
X182446989Y-76899194D01*
X182211705Y-76663910D01*
X181949776Y-76458701D01*
X181949768Y-76458696D01*
X181665007Y-76286552D01*
X181361573Y-76149987D01*
X181361566Y-76149984D01*
X181361554Y-76149980D01*
X181043899Y-76050996D01*
X181043895Y-76050995D01*
X181043891Y-76050994D01*
X180716592Y-75991014D01*
X180716591Y-75991013D01*
X180716586Y-75991013D01*
X180467564Y-75975950D01*
X180467556Y-75975950D01*
X180301344Y-75975950D01*
X180301335Y-75975950D01*
X180052313Y-75991013D01*
X180052308Y-75991014D01*
X179725009Y-76050994D01*
X179725006Y-76050994D01*
X179725000Y-76050996D01*
X179407345Y-76149980D01*
X179407329Y-76149986D01*
X179407327Y-76149987D01*
X179214106Y-76236948D01*
X179103897Y-76286550D01*
X179103895Y-76286551D01*
X178819123Y-76458701D01*
X178557194Y-76663910D01*
X178321910Y-76899194D01*
X178116701Y-77161123D01*
X178000943Y-77352611D01*
X177955917Y-77427094D01*
X177944551Y-77445895D01*
X177944550Y-77445897D01*
X177807986Y-77749330D01*
X177807980Y-77749345D01*
X177708996Y-78067000D01*
X177708994Y-78067006D01*
X177708994Y-78067009D01*
X177675414Y-78250247D01*
X177649013Y-78394313D01*
X177628923Y-78726450D01*
X176084950Y-78726450D01*
X176084950Y-73576451D01*
X184053887Y-73576451D01*
X184074100Y-73807494D01*
X184074101Y-73807501D01*
X184134128Y-74031524D01*
X184134129Y-74031526D01*
X184134130Y-74031529D01*
X184232149Y-74241732D01*
X184365180Y-74431719D01*
X184529181Y-74595720D01*
X184719168Y-74728751D01*
X184929371Y-74826770D01*
X185153400Y-74886799D01*
X185318435Y-74901237D01*
X185384448Y-74907013D01*
X185384450Y-74907013D01*
X185384452Y-74907013D01*
X185442212Y-74901959D01*
X185615500Y-74886799D01*
X185839529Y-74826770D01*
X186049732Y-74728751D01*
X186239719Y-74595720D01*
X186403720Y-74431719D01*
X186536751Y-74241732D01*
X186634770Y-74031529D01*
X186694799Y-73807500D01*
X186715013Y-73576450D01*
X186694799Y-73345400D01*
X186634770Y-73121371D01*
X186536751Y-72911169D01*
X186536749Y-72911166D01*
X186536748Y-72911164D01*
X186403723Y-72721185D01*
X186403718Y-72721179D01*
X186239719Y-72557180D01*
X186239713Y-72557176D01*
X186049732Y-72424149D01*
X185839529Y-72326130D01*
X185839526Y-72326129D01*
X185839524Y-72326128D01*
X185615501Y-72266101D01*
X185615494Y-72266100D01*
X185384452Y-72245887D01*
X185384448Y-72245887D01*
X185153405Y-72266100D01*
X185153398Y-72266101D01*
X184929367Y-72326131D01*
X184719168Y-72424149D01*
X184719164Y-72424151D01*
X184529185Y-72557176D01*
X184529179Y-72557181D01*
X184365181Y-72721179D01*
X184365176Y-72721185D01*
X184232151Y-72911164D01*
X184232149Y-72911168D01*
X184134131Y-73121367D01*
X184074101Y-73345398D01*
X184074100Y-73345405D01*
X184053887Y-73576448D01*
X184053887Y-73576451D01*
X176084950Y-73576451D01*
X176084950Y-67957700D01*
X179203914Y-67957700D01*
X179224014Y-68174618D01*
X179224014Y-68174620D01*
X179224015Y-68174623D01*
X179283633Y-68384159D01*
X179283634Y-68384162D01*
X179380738Y-68579172D01*
X179512023Y-68753022D01*
X179673018Y-68899788D01*
X179673025Y-68899792D01*
X179673026Y-68899793D01*
X179858236Y-69014470D01*
X179858242Y-69014473D01*
X179881114Y-69023333D01*
X180061381Y-69093170D01*
X180275524Y-69133200D01*
X180275526Y-69133200D01*
X180493374Y-69133200D01*
X180493376Y-69133200D01*
X180707519Y-69093170D01*
X180910660Y-69014472D01*
X181095882Y-68899788D01*
X181256877Y-68753022D01*
X181291274Y-68707473D01*
X181347383Y-68665837D01*
X181390228Y-68658200D01*
X184779027Y-68658200D01*
X184846066Y-68677885D01*
X184880602Y-68711077D01*
X184940654Y-68796841D01*
X185101558Y-68957745D01*
X185101561Y-68957747D01*
X185287966Y-69088268D01*
X185494204Y-69184439D01*
X185714008Y-69243335D01*
X185875930Y-69257501D01*
X185940698Y-69263168D01*
X185940700Y-69263168D01*
X185940702Y-69263168D01*
X185997373Y-69258209D01*
X186167392Y-69243335D01*
X186387196Y-69184439D01*
X186593434Y-69088268D01*
X186779839Y-68957747D01*
X186940747Y-68796839D01*
X187071268Y-68610434D01*
X187167439Y-68404196D01*
X187226335Y-68184392D01*
X187246168Y-67957700D01*
X187226335Y-67731008D01*
X187167439Y-67511204D01*
X187071268Y-67304966D01*
X186940747Y-67118561D01*
X186940745Y-67118558D01*
X186779841Y-66957654D01*
X186593434Y-66827132D01*
X186593432Y-66827131D01*
X186387197Y-66730961D01*
X186387188Y-66730958D01*
X186167397Y-66672066D01*
X186167393Y-66672065D01*
X186167392Y-66672065D01*
X186167391Y-66672064D01*
X186167386Y-66672064D01*
X185940702Y-66652232D01*
X185940698Y-66652232D01*
X185714013Y-66672064D01*
X185714002Y-66672066D01*
X185494211Y-66730958D01*
X185494202Y-66730961D01*
X185287967Y-66827131D01*
X185287965Y-66827132D01*
X185101558Y-66957654D01*
X184940654Y-67118558D01*
X184880602Y-67204323D01*
X184826025Y-67247948D01*
X184779027Y-67257200D01*
X181390228Y-67257200D01*
X181323189Y-67237515D01*
X181291274Y-67207927D01*
X181256875Y-67162376D01*
X181095883Y-67015613D01*
X181095873Y-67015606D01*
X180910663Y-66900929D01*
X180910657Y-66900926D01*
X180825563Y-66867960D01*
X180707519Y-66822230D01*
X180493376Y-66782200D01*
X180275524Y-66782200D01*
X180061381Y-66822230D01*
X180048728Y-66827132D01*
X179858242Y-66900926D01*
X179858236Y-66900929D01*
X179673026Y-67015606D01*
X179673016Y-67015613D01*
X179512024Y-67162376D01*
X179380738Y-67336227D01*
X179283634Y-67531237D01*
X179224014Y-67740781D01*
X179203914Y-67957699D01*
X179203914Y-67957700D01*
X176084950Y-67957700D01*
X176084950Y-66864504D01*
X176104635Y-66797465D01*
X176125404Y-66772874D01*
X176256877Y-66653022D01*
X176388162Y-66479172D01*
X176485267Y-66284159D01*
X176544885Y-66074623D01*
X176564986Y-65857700D01*
X176544885Y-65640777D01*
X176485267Y-65431241D01*
X176388162Y-65236228D01*
X176256877Y-65062378D01*
X176095882Y-64915612D01*
X176095878Y-64915609D01*
X176095873Y-64915606D01*
X175910663Y-64800929D01*
X175910657Y-64800926D01*
X175825563Y-64767960D01*
X175707519Y-64722230D01*
X175493376Y-64682200D01*
X175275524Y-64682200D01*
X175061381Y-64722230D01*
X175033186Y-64733153D01*
X174858242Y-64800926D01*
X174858236Y-64800929D01*
X174673026Y-64915606D01*
X174673016Y-64915613D01*
X174512024Y-65062376D01*
X174380738Y-65236227D01*
X174283634Y-65431237D01*
X174224014Y-65640781D01*
X174203914Y-65857699D01*
X174203914Y-65857700D01*
X174224014Y-66074618D01*
X174283634Y-66284162D01*
X174320436Y-66358070D01*
X174380738Y-66479172D01*
X174512023Y-66653022D01*
X174643490Y-66772870D01*
X174679769Y-66832577D01*
X174683950Y-66864504D01*
X174683950Y-81519644D01*
X174664265Y-81586683D01*
X174643488Y-81611281D01*
X174512024Y-81731125D01*
X174380738Y-81904977D01*
X174283634Y-82099987D01*
X174224014Y-82309531D01*
X174203914Y-82526449D01*
X174203914Y-82526450D01*
X174224014Y-82743368D01*
X174224014Y-82743370D01*
X174224015Y-82743373D01*
X174283633Y-82952909D01*
X174380738Y-83147922D01*
X174512023Y-83321772D01*
X174643490Y-83441620D01*
X174679769Y-83501327D01*
X174683950Y-83533254D01*
X174683950Y-98188394D01*
X174664265Y-98255433D01*
X174643488Y-98280031D01*
X174512024Y-98399875D01*
X174380738Y-98573727D01*
X174283634Y-98768737D01*
X174224014Y-98978281D01*
X174203914Y-99195199D01*
X174203914Y-99195200D01*
X174224014Y-99412118D01*
X174224014Y-99412120D01*
X174224015Y-99412123D01*
X174283633Y-99621659D01*
X174380738Y-99816672D01*
X174512023Y-99990522D01*
X174643490Y-100110370D01*
X174679769Y-100170077D01*
X174683950Y-100202004D01*
X174683950Y-114857144D01*
X174664265Y-114924183D01*
X174643488Y-114948781D01*
X174512024Y-115068625D01*
X174380738Y-115242477D01*
X174283634Y-115437487D01*
X174224014Y-115647031D01*
X174203914Y-115863949D01*
X174203914Y-115863950D01*
X173147450Y-115863950D01*
X173147450Y-96875120D01*
X173147676Y-96867632D01*
X173151308Y-96807594D01*
X173140464Y-96748419D01*
X173139337Y-96741014D01*
X173139024Y-96738441D01*
X173132090Y-96681328D01*
X173128498Y-96671856D01*
X173122472Y-96650242D01*
X173120645Y-96640268D01*
X173095956Y-96585412D01*
X173093092Y-96578497D01*
X173071769Y-96522271D01*
X173069673Y-96519235D01*
X173066013Y-96513933D01*
X173054986Y-96494382D01*
X173050829Y-96485146D01*
X173050828Y-96485143D01*
X173013735Y-96437797D01*
X173009305Y-96431777D01*
X172975133Y-96382271D01*
X172930103Y-96342378D01*
X172924665Y-96337258D01*
X170608768Y-94021361D01*
X170575283Y-93960038D01*
X170572449Y-93933680D01*
X170572449Y-92827329D01*
X170572448Y-92827323D01*
X170572447Y-92827316D01*
X170566041Y-92767717D01*
X170548148Y-92719744D01*
X170515747Y-92632871D01*
X170515743Y-92632864D01*
X170429497Y-92517655D01*
X170429494Y-92517652D01*
X170314285Y-92431406D01*
X170314278Y-92431402D01*
X170179432Y-92381108D01*
X170179433Y-92381108D01*
X170119833Y-92374701D01*
X170119831Y-92374700D01*
X170119823Y-92374700D01*
X170119814Y-92374700D01*
X168424079Y-92374700D01*
X168424073Y-92374701D01*
X168364466Y-92381108D01*
X168229621Y-92431402D01*
X168229614Y-92431406D01*
X168114405Y-92517652D01*
X168114402Y-92517655D01*
X168028156Y-92632864D01*
X168028152Y-92632871D01*
X167977858Y-92767717D01*
X167971451Y-92827316D01*
X167971451Y-92827323D01*
X167971450Y-92827335D01*
X167971450Y-94523070D01*
X167971451Y-94523076D01*
X167977858Y-94582683D01*
X168028152Y-94717528D01*
X168028156Y-94717535D01*
X168114402Y-94832744D01*
X168114405Y-94832747D01*
X168229614Y-94918993D01*
X168229621Y-94918997D01*
X168364467Y-94969291D01*
X168364466Y-94969291D01*
X168371394Y-94970035D01*
X168424077Y-94975700D01*
X169530430Y-94975699D01*
X169597469Y-94995384D01*
X169618111Y-95012018D01*
X171710131Y-97104038D01*
X171743616Y-97165361D01*
X171746450Y-97191719D01*
X171746450Y-118416181D01*
X171726765Y-118483220D01*
X171710131Y-118503862D01*
X169811862Y-120402131D01*
X169750539Y-120435616D01*
X169724181Y-120438450D01*
X167498856Y-120438450D01*
X167431817Y-120418765D01*
X167425971Y-120414768D01*
X167343434Y-120354801D01*
X167343429Y-120354798D01*
X167170507Y-120277807D01*
X167170502Y-120277805D01*
X167015992Y-120244964D01*
X166985346Y-120238450D01*
X166796054Y-120238450D01*
X166765408Y-120244964D01*
X166610897Y-120277805D01*
X166610892Y-120277807D01*
X166437970Y-120354798D01*
X166437965Y-120354801D01*
X166284829Y-120466061D01*
X166158166Y-120606735D01*
X166063521Y-120770665D01*
X166063518Y-120770672D01*
X166005027Y-120950690D01*
X166005026Y-120950694D01*
X165985240Y-121138950D01*
X131368856Y-121138950D01*
X128193857Y-117963950D01*
X129197664Y-117963950D01*
X129217764Y-118180868D01*
X129217764Y-118180870D01*
X129217765Y-118180873D01*
X129249594Y-118292740D01*
X129277384Y-118390412D01*
X129319126Y-118474241D01*
X129374488Y-118585422D01*
X129505773Y-118759272D01*
X129666768Y-118906038D01*
X129666775Y-118906042D01*
X129666776Y-118906043D01*
X129851986Y-119020720D01*
X129851992Y-119020723D01*
X129865356Y-119025900D01*
X130055131Y-119099420D01*
X130269274Y-119139450D01*
X130269276Y-119139450D01*
X130487124Y-119139450D01*
X130487126Y-119139450D01*
X130701269Y-119099420D01*
X130904410Y-119020722D01*
X131089632Y-118906038D01*
X131250627Y-118759272D01*
X131285024Y-118713723D01*
X131341133Y-118672087D01*
X131383978Y-118664450D01*
X134772777Y-118664450D01*
X134839816Y-118684135D01*
X134874352Y-118717327D01*
X134934404Y-118803091D01*
X135095308Y-118963995D01*
X135095311Y-118963997D01*
X135281716Y-119094518D01*
X135487954Y-119190689D01*
X135707758Y-119249585D01*
X135869680Y-119263751D01*
X135934448Y-119269418D01*
X135934450Y-119269418D01*
X135934452Y-119269418D01*
X135991123Y-119264459D01*
X136161142Y-119249585D01*
X136380946Y-119190689D01*
X136587184Y-119094518D01*
X136773589Y-118963997D01*
X136934497Y-118803089D01*
X137065018Y-118616684D01*
X137161189Y-118410446D01*
X137220085Y-118190642D01*
X137239918Y-117963950D01*
X137220085Y-117737258D01*
X137161189Y-117517454D01*
X137065018Y-117311216D01*
X136934497Y-117124811D01*
X136934495Y-117124808D01*
X136773591Y-116963904D01*
X136587184Y-116833382D01*
X136587182Y-116833381D01*
X136380947Y-116737211D01*
X136380938Y-116737208D01*
X136161147Y-116678316D01*
X136161143Y-116678315D01*
X136161142Y-116678315D01*
X136161141Y-116678314D01*
X136161136Y-116678314D01*
X135934452Y-116658482D01*
X135934448Y-116658482D01*
X135707763Y-116678314D01*
X135707752Y-116678316D01*
X135487961Y-116737208D01*
X135487952Y-116737211D01*
X135281717Y-116833381D01*
X135281715Y-116833382D01*
X135095308Y-116963904D01*
X134934404Y-117124808D01*
X134874352Y-117210573D01*
X134819775Y-117254198D01*
X134772777Y-117263450D01*
X131383978Y-117263450D01*
X131316939Y-117243765D01*
X131285024Y-117214177D01*
X131250625Y-117168626D01*
X131089633Y-117021863D01*
X131089623Y-117021856D01*
X130904413Y-116907179D01*
X130904407Y-116907176D01*
X130819313Y-116874210D01*
X130701269Y-116828480D01*
X130487126Y-116788450D01*
X130269274Y-116788450D01*
X130055131Y-116828480D01*
X130042478Y-116833382D01*
X129851992Y-116907176D01*
X129851986Y-116907179D01*
X129666776Y-117021856D01*
X129666766Y-117021863D01*
X129505774Y-117168626D01*
X129374488Y-117342477D01*
X129277384Y-117537487D01*
X129217764Y-117747031D01*
X129197664Y-117963949D01*
X129197664Y-117963950D01*
X128193857Y-117963950D01*
X127755869Y-117525962D01*
X127722384Y-117464639D01*
X127719550Y-117438281D01*
X127719550Y-113427455D01*
X127739235Y-113360416D01*
X127792039Y-113314661D01*
X127861197Y-113304717D01*
X127924753Y-113333742D01*
X127949662Y-113363299D01*
X128110446Y-113629268D01*
X128110451Y-113629274D01*
X128110452Y-113629276D01*
X128315660Y-113891205D01*
X128550944Y-114126489D01*
X128812873Y-114331698D01*
X128812878Y-114331701D01*
X128812882Y-114331704D01*
X129097643Y-114503848D01*
X129401077Y-114640413D01*
X129401090Y-114640417D01*
X129401095Y-114640419D01*
X129612865Y-114706408D01*
X129718759Y-114739406D01*
X130046058Y-114799386D01*
X130295094Y-114814450D01*
X130295107Y-114814450D01*
X130461293Y-114814450D01*
X130461306Y-114814450D01*
X130710342Y-114799386D01*
X131037641Y-114739406D01*
X131355323Y-114640413D01*
X131658757Y-114503848D01*
X131943518Y-114331704D01*
X132205452Y-114126492D01*
X132440742Y-113891202D01*
X132645954Y-113629268D01*
X132818098Y-113344507D01*
X132954663Y-113041073D01*
X133053656Y-112723391D01*
X133113636Y-112396092D01*
X133133727Y-112063950D01*
X133113636Y-111731808D01*
X133053656Y-111404509D01*
X132987380Y-111191820D01*
X134633950Y-111191820D01*
X134633951Y-111191826D01*
X134640358Y-111251433D01*
X134690652Y-111386278D01*
X134690656Y-111386285D01*
X134776902Y-111501494D01*
X134776905Y-111501497D01*
X134892114Y-111587743D01*
X134892121Y-111587747D01*
X135026967Y-111638041D01*
X135026966Y-111638041D01*
X135033894Y-111638785D01*
X135086577Y-111644450D01*
X136782322Y-111644449D01*
X136841933Y-111638041D01*
X136976781Y-111587746D01*
X137091996Y-111501496D01*
X137178246Y-111386281D01*
X137228541Y-111251433D01*
X137234950Y-111191823D01*
X137234949Y-109496078D01*
X137228541Y-109436467D01*
X137210648Y-109388494D01*
X137178247Y-109301621D01*
X137178243Y-109301614D01*
X137091997Y-109186405D01*
X137091994Y-109186402D01*
X136976785Y-109100156D01*
X136976778Y-109100152D01*
X136841932Y-109049858D01*
X136841933Y-109049858D01*
X136782333Y-109043451D01*
X136782331Y-109043450D01*
X136782323Y-109043450D01*
X136782314Y-109043450D01*
X135086579Y-109043450D01*
X135086573Y-109043451D01*
X135026966Y-109049858D01*
X134892121Y-109100152D01*
X134892114Y-109100156D01*
X134776905Y-109186402D01*
X134776902Y-109186405D01*
X134690656Y-109301614D01*
X134690652Y-109301621D01*
X134640358Y-109436467D01*
X134633951Y-109496066D01*
X134633951Y-109496073D01*
X134633950Y-109496085D01*
X134633950Y-111191820D01*
X132987380Y-111191820D01*
X132954663Y-111086827D01*
X132818098Y-110783393D01*
X132645954Y-110498632D01*
X132645951Y-110498628D01*
X132645948Y-110498623D01*
X132440739Y-110236694D01*
X132205455Y-110001410D01*
X131943526Y-109796201D01*
X131943518Y-109796196D01*
X131658757Y-109624052D01*
X131355323Y-109487487D01*
X131355316Y-109487484D01*
X131355304Y-109487480D01*
X131037649Y-109388496D01*
X131037645Y-109388495D01*
X131037641Y-109388494D01*
X130710342Y-109328514D01*
X130710341Y-109328513D01*
X130710336Y-109328513D01*
X130461314Y-109313450D01*
X130461306Y-109313450D01*
X130295094Y-109313450D01*
X130295085Y-109313450D01*
X130046063Y-109328513D01*
X130046058Y-109328514D01*
X129718759Y-109388494D01*
X129718756Y-109388494D01*
X129718750Y-109388496D01*
X129401095Y-109487480D01*
X129401079Y-109487486D01*
X129401077Y-109487487D01*
X129207856Y-109574448D01*
X129097647Y-109624050D01*
X129097645Y-109624051D01*
X128812873Y-109796201D01*
X128550944Y-110001410D01*
X128315660Y-110236694D01*
X128110451Y-110498623D01*
X128110446Y-110498632D01*
X127949665Y-110764595D01*
X127898139Y-110811781D01*
X127829280Y-110823620D01*
X127764951Y-110796351D01*
X127725577Y-110738632D01*
X127719550Y-110700444D01*
X127719550Y-106913951D01*
X134047637Y-106913951D01*
X134067850Y-107144994D01*
X134067851Y-107145001D01*
X134127878Y-107369024D01*
X134127879Y-107369026D01*
X134127880Y-107369029D01*
X134225899Y-107579232D01*
X134358930Y-107769219D01*
X134522931Y-107933220D01*
X134712918Y-108066251D01*
X134923121Y-108164270D01*
X135147150Y-108224299D01*
X135312185Y-108238737D01*
X135378198Y-108244513D01*
X135378200Y-108244513D01*
X135378202Y-108244513D01*
X135435962Y-108239459D01*
X135609250Y-108224299D01*
X135833279Y-108164270D01*
X136043482Y-108066251D01*
X136233469Y-107933220D01*
X136397470Y-107769219D01*
X136530501Y-107579232D01*
X136628520Y-107369029D01*
X136688549Y-107145000D01*
X136708763Y-106913950D01*
X136688549Y-106682900D01*
X136628520Y-106458871D01*
X136530501Y-106248669D01*
X136530499Y-106248666D01*
X136530498Y-106248664D01*
X136397473Y-106058685D01*
X136397468Y-106058679D01*
X136233469Y-105894680D01*
X136233463Y-105894676D01*
X136043482Y-105761649D01*
X135833279Y-105663630D01*
X135833276Y-105663629D01*
X135833274Y-105663628D01*
X135609251Y-105603601D01*
X135609244Y-105603600D01*
X135378202Y-105583387D01*
X135378198Y-105583387D01*
X135147155Y-105603600D01*
X135147148Y-105603601D01*
X134923117Y-105663631D01*
X134712918Y-105761649D01*
X134712914Y-105761651D01*
X134522935Y-105894676D01*
X134522929Y-105894681D01*
X134358931Y-106058679D01*
X134358926Y-106058685D01*
X134225901Y-106248664D01*
X134225899Y-106248668D01*
X134127881Y-106458867D01*
X134067851Y-106682898D01*
X134067850Y-106682905D01*
X134047637Y-106913948D01*
X134047637Y-106913951D01*
X127719550Y-106913951D01*
X127719550Y-101295200D01*
X129197664Y-101295200D01*
X129217764Y-101512118D01*
X129277384Y-101721662D01*
X129374488Y-101916672D01*
X129505773Y-102090522D01*
X129666768Y-102237288D01*
X129666775Y-102237292D01*
X129666776Y-102237293D01*
X129851986Y-102351970D01*
X129851992Y-102351973D01*
X129874864Y-102360833D01*
X130055131Y-102430670D01*
X130269274Y-102470700D01*
X130269276Y-102470700D01*
X130487124Y-102470700D01*
X130487126Y-102470700D01*
X130701269Y-102430670D01*
X130904410Y-102351972D01*
X131089632Y-102237288D01*
X131250627Y-102090522D01*
X131285024Y-102044973D01*
X131341133Y-102003337D01*
X131383978Y-101995700D01*
X134772777Y-101995700D01*
X134839816Y-102015385D01*
X134874352Y-102048577D01*
X134934404Y-102134341D01*
X135095308Y-102295245D01*
X135095311Y-102295247D01*
X135281716Y-102425768D01*
X135487954Y-102521939D01*
X135707758Y-102580835D01*
X135869680Y-102595001D01*
X135934448Y-102600668D01*
X135934450Y-102600668D01*
X135934452Y-102600668D01*
X135991123Y-102595709D01*
X136161142Y-102580835D01*
X136380946Y-102521939D01*
X136587184Y-102425768D01*
X136773589Y-102295247D01*
X136934497Y-102134339D01*
X137065018Y-101947934D01*
X137161189Y-101741696D01*
X137220085Y-101521892D01*
X137239918Y-101295200D01*
X137220085Y-101068508D01*
X137161189Y-100848704D01*
X137065018Y-100642466D01*
X136934497Y-100456061D01*
X136934495Y-100456058D01*
X136773591Y-100295154D01*
X136587184Y-100164632D01*
X136587182Y-100164631D01*
X136380947Y-100068461D01*
X136380938Y-100068458D01*
X136161147Y-100009566D01*
X136161143Y-100009565D01*
X136161142Y-100009565D01*
X136161141Y-100009564D01*
X136161136Y-100009564D01*
X135934452Y-99989732D01*
X135934448Y-99989732D01*
X135707763Y-100009564D01*
X135707752Y-100009566D01*
X135487961Y-100068458D01*
X135487952Y-100068461D01*
X135281717Y-100164631D01*
X135281715Y-100164632D01*
X135095308Y-100295154D01*
X134934404Y-100456058D01*
X134874352Y-100541823D01*
X134819775Y-100585448D01*
X134772777Y-100594700D01*
X131383978Y-100594700D01*
X131316939Y-100575015D01*
X131285024Y-100545427D01*
X131250625Y-100499876D01*
X131089633Y-100353113D01*
X131089623Y-100353106D01*
X130904413Y-100238429D01*
X130904407Y-100238426D01*
X130819313Y-100205460D01*
X130701269Y-100159730D01*
X130487126Y-100119700D01*
X130269274Y-100119700D01*
X130055131Y-100159730D01*
X130042478Y-100164632D01*
X129851992Y-100238426D01*
X129851986Y-100238429D01*
X129666776Y-100353106D01*
X129666766Y-100353113D01*
X129505774Y-100499876D01*
X129374488Y-100673727D01*
X129277384Y-100868737D01*
X129217764Y-101078281D01*
X129197664Y-101295199D01*
X129197664Y-101295200D01*
X127719550Y-101295200D01*
X127719550Y-96758705D01*
X127739235Y-96691666D01*
X127792039Y-96645911D01*
X127861197Y-96635967D01*
X127924753Y-96664992D01*
X127949662Y-96694549D01*
X128110446Y-96960518D01*
X128110451Y-96960524D01*
X128110452Y-96960526D01*
X128315660Y-97222455D01*
X128550944Y-97457739D01*
X128812873Y-97662948D01*
X128812878Y-97662951D01*
X128812882Y-97662954D01*
X129097643Y-97835098D01*
X129401077Y-97971663D01*
X129401090Y-97971667D01*
X129401095Y-97971669D01*
X129612865Y-98037658D01*
X129718759Y-98070656D01*
X130046058Y-98130636D01*
X130295094Y-98145700D01*
X130295107Y-98145700D01*
X130461293Y-98145700D01*
X130461306Y-98145700D01*
X130710342Y-98130636D01*
X131037641Y-98070656D01*
X131355323Y-97971663D01*
X131658757Y-97835098D01*
X131943518Y-97662954D01*
X132205452Y-97457742D01*
X132440742Y-97222452D01*
X132645954Y-96960518D01*
X132818098Y-96675757D01*
X132954663Y-96372323D01*
X132963990Y-96342393D01*
X133036850Y-96108573D01*
X133053656Y-96054641D01*
X133113636Y-95727342D01*
X133133727Y-95395200D01*
X133113636Y-95063058D01*
X133053656Y-94735759D01*
X132987380Y-94523070D01*
X134633950Y-94523070D01*
X134633951Y-94523076D01*
X134640358Y-94582683D01*
X134690652Y-94717528D01*
X134690656Y-94717535D01*
X134776902Y-94832744D01*
X134776905Y-94832747D01*
X134892114Y-94918993D01*
X134892121Y-94918997D01*
X135026967Y-94969291D01*
X135026966Y-94969291D01*
X135033894Y-94970035D01*
X135086577Y-94975700D01*
X136782322Y-94975699D01*
X136841933Y-94969291D01*
X136976781Y-94918996D01*
X137091996Y-94832746D01*
X137178246Y-94717531D01*
X137228541Y-94582683D01*
X137234950Y-94523073D01*
X137234949Y-92827328D01*
X137228541Y-92767717D01*
X137210648Y-92719744D01*
X137178247Y-92632871D01*
X137178243Y-92632864D01*
X137091997Y-92517655D01*
X137091994Y-92517652D01*
X136976785Y-92431406D01*
X136976778Y-92431402D01*
X136841932Y-92381108D01*
X136841933Y-92381108D01*
X136782333Y-92374701D01*
X136782331Y-92374700D01*
X136782323Y-92374700D01*
X136782314Y-92374700D01*
X135086579Y-92374700D01*
X135086573Y-92374701D01*
X135026966Y-92381108D01*
X134892121Y-92431402D01*
X134892114Y-92431406D01*
X134776905Y-92517652D01*
X134776902Y-92517655D01*
X134690656Y-92632864D01*
X134690652Y-92632871D01*
X134640358Y-92767717D01*
X134633951Y-92827316D01*
X134633951Y-92827323D01*
X134633950Y-92827335D01*
X134633950Y-94523070D01*
X132987380Y-94523070D01*
X132954663Y-94418077D01*
X132818098Y-94114643D01*
X132645954Y-93829882D01*
X132645951Y-93829878D01*
X132645948Y-93829873D01*
X132440739Y-93567944D01*
X132205455Y-93332660D01*
X131943526Y-93127451D01*
X131943518Y-93127446D01*
X131658757Y-92955302D01*
X131355323Y-92818737D01*
X131355316Y-92818734D01*
X131355304Y-92818730D01*
X131037649Y-92719746D01*
X131037645Y-92719745D01*
X131037641Y-92719744D01*
X130710342Y-92659764D01*
X130710341Y-92659763D01*
X130710336Y-92659763D01*
X130461314Y-92644700D01*
X130461306Y-92644700D01*
X130295094Y-92644700D01*
X130295085Y-92644700D01*
X130046063Y-92659763D01*
X130046058Y-92659764D01*
X129718759Y-92719744D01*
X129718756Y-92719744D01*
X129718750Y-92719746D01*
X129401095Y-92818730D01*
X129401079Y-92818736D01*
X129401077Y-92818737D01*
X129207856Y-92905698D01*
X129097647Y-92955300D01*
X129097645Y-92955301D01*
X128812873Y-93127451D01*
X128550944Y-93332660D01*
X128315660Y-93567944D01*
X128110451Y-93829873D01*
X128110446Y-93829882D01*
X127949665Y-94095845D01*
X127898139Y-94143031D01*
X127829280Y-94154870D01*
X127764951Y-94127601D01*
X127725577Y-94069882D01*
X127719550Y-94031694D01*
X127719550Y-90245201D01*
X134047637Y-90245201D01*
X134067850Y-90476244D01*
X134067851Y-90476251D01*
X134127878Y-90700274D01*
X134127879Y-90700276D01*
X134127880Y-90700279D01*
X134225899Y-90910482D01*
X134358930Y-91100469D01*
X134522931Y-91264470D01*
X134712918Y-91397501D01*
X134923121Y-91495520D01*
X135147150Y-91555549D01*
X135312185Y-91569987D01*
X135378198Y-91575763D01*
X135378200Y-91575763D01*
X135378202Y-91575763D01*
X135435962Y-91570709D01*
X135609250Y-91555549D01*
X135833279Y-91495520D01*
X136043482Y-91397501D01*
X136233469Y-91264470D01*
X136397470Y-91100469D01*
X136530501Y-90910482D01*
X136628520Y-90700279D01*
X136688549Y-90476250D01*
X136708763Y-90245200D01*
X136688549Y-90014150D01*
X136628520Y-89790121D01*
X136530501Y-89579919D01*
X136530499Y-89579916D01*
X136530498Y-89579914D01*
X136397473Y-89389935D01*
X136397468Y-89389929D01*
X136233469Y-89225930D01*
X136233463Y-89225926D01*
X136043482Y-89092899D01*
X135833279Y-88994880D01*
X135833276Y-88994879D01*
X135833274Y-88994878D01*
X135609251Y-88934851D01*
X135609244Y-88934850D01*
X135378202Y-88914637D01*
X135378198Y-88914637D01*
X135147155Y-88934850D01*
X135147148Y-88934851D01*
X134923117Y-88994881D01*
X134712918Y-89092899D01*
X134712914Y-89092901D01*
X134522935Y-89225926D01*
X134522929Y-89225931D01*
X134358931Y-89389929D01*
X134358926Y-89389935D01*
X134225901Y-89579914D01*
X134225899Y-89579918D01*
X134127881Y-89790117D01*
X134067851Y-90014148D01*
X134067850Y-90014155D01*
X134047637Y-90245198D01*
X134047637Y-90245201D01*
X127719550Y-90245201D01*
X127719550Y-84626450D01*
X129197664Y-84626450D01*
X129217764Y-84843368D01*
X129277384Y-85052912D01*
X129374488Y-85247922D01*
X129505773Y-85421772D01*
X129666768Y-85568538D01*
X129666775Y-85568542D01*
X129666776Y-85568543D01*
X129851986Y-85683220D01*
X129851992Y-85683223D01*
X129874864Y-85692083D01*
X130055131Y-85761920D01*
X130269274Y-85801950D01*
X130269276Y-85801950D01*
X130487124Y-85801950D01*
X130487126Y-85801950D01*
X130701269Y-85761920D01*
X130904410Y-85683222D01*
X131089632Y-85568538D01*
X131250627Y-85421772D01*
X131285024Y-85376223D01*
X131341133Y-85334587D01*
X131383978Y-85326950D01*
X134772777Y-85326950D01*
X134839816Y-85346635D01*
X134874352Y-85379827D01*
X134934404Y-85465591D01*
X135095308Y-85626495D01*
X135095311Y-85626497D01*
X135281716Y-85757018D01*
X135487954Y-85853189D01*
X135707758Y-85912085D01*
X135869680Y-85926251D01*
X135934448Y-85931918D01*
X135934450Y-85931918D01*
X135934452Y-85931918D01*
X135991123Y-85926959D01*
X136161142Y-85912085D01*
X136380946Y-85853189D01*
X136587184Y-85757018D01*
X136773589Y-85626497D01*
X136934497Y-85465589D01*
X137065018Y-85279184D01*
X137161189Y-85072946D01*
X137220085Y-84853142D01*
X137239918Y-84626450D01*
X137220085Y-84399758D01*
X137161189Y-84179954D01*
X137065018Y-83973716D01*
X136934497Y-83787311D01*
X136934495Y-83787308D01*
X136773591Y-83626404D01*
X136587184Y-83495882D01*
X136587182Y-83495881D01*
X136380947Y-83399711D01*
X136380938Y-83399708D01*
X136161147Y-83340816D01*
X136161143Y-83340815D01*
X136161142Y-83340815D01*
X136161141Y-83340814D01*
X136161136Y-83340814D01*
X135934452Y-83320982D01*
X135934448Y-83320982D01*
X135707763Y-83340814D01*
X135707752Y-83340816D01*
X135487961Y-83399708D01*
X135487952Y-83399711D01*
X135281717Y-83495881D01*
X135281715Y-83495882D01*
X135095308Y-83626404D01*
X134934404Y-83787308D01*
X134874352Y-83873073D01*
X134819775Y-83916698D01*
X134772777Y-83925950D01*
X131383978Y-83925950D01*
X131316939Y-83906265D01*
X131285024Y-83876677D01*
X131250625Y-83831126D01*
X131089633Y-83684363D01*
X131089623Y-83684356D01*
X130904413Y-83569679D01*
X130904407Y-83569676D01*
X130819313Y-83536710D01*
X130701269Y-83490980D01*
X130487126Y-83450950D01*
X130269274Y-83450950D01*
X130055131Y-83490980D01*
X130042478Y-83495882D01*
X129851992Y-83569676D01*
X129851986Y-83569679D01*
X129666776Y-83684356D01*
X129666766Y-83684363D01*
X129505774Y-83831126D01*
X129374488Y-84004977D01*
X129277384Y-84199987D01*
X129217764Y-84409531D01*
X129197664Y-84626449D01*
X129197664Y-84626450D01*
X127719550Y-84626450D01*
X127719550Y-80089955D01*
X127739235Y-80022916D01*
X127792039Y-79977161D01*
X127861197Y-79967217D01*
X127924753Y-79996242D01*
X127949662Y-80025799D01*
X128110446Y-80291768D01*
X128110451Y-80291774D01*
X128110452Y-80291776D01*
X128315660Y-80553705D01*
X128550944Y-80788989D01*
X128812873Y-80994198D01*
X128812878Y-80994201D01*
X128812882Y-80994204D01*
X129097643Y-81166348D01*
X129401077Y-81302913D01*
X129401090Y-81302917D01*
X129401095Y-81302919D01*
X129612865Y-81368908D01*
X129718759Y-81401906D01*
X130046058Y-81461886D01*
X130295094Y-81476950D01*
X130295107Y-81476950D01*
X130461293Y-81476950D01*
X130461306Y-81476950D01*
X130710342Y-81461886D01*
X131037641Y-81401906D01*
X131355323Y-81302913D01*
X131658757Y-81166348D01*
X131943518Y-80994204D01*
X132205452Y-80788992D01*
X132440742Y-80553702D01*
X132645954Y-80291768D01*
X132818098Y-80007007D01*
X132954663Y-79703573D01*
X132963990Y-79673643D01*
X133036850Y-79439823D01*
X133053656Y-79385891D01*
X133113636Y-79058592D01*
X133133727Y-78726450D01*
X133113636Y-78394308D01*
X133053656Y-78067009D01*
X132987380Y-77854320D01*
X134633950Y-77854320D01*
X134633951Y-77854326D01*
X134640358Y-77913933D01*
X134690652Y-78048778D01*
X134690656Y-78048785D01*
X134776902Y-78163994D01*
X134776905Y-78163997D01*
X134892114Y-78250243D01*
X134892121Y-78250247D01*
X135026967Y-78300541D01*
X135026966Y-78300541D01*
X135033894Y-78301285D01*
X135086577Y-78306950D01*
X136192930Y-78306949D01*
X136259969Y-78326634D01*
X136280611Y-78343268D01*
X138372631Y-80435288D01*
X138406116Y-80496611D01*
X138408950Y-80522969D01*
X138408950Y-117939028D01*
X138408724Y-117946516D01*
X138405092Y-118006553D01*
X138405092Y-118006555D01*
X138415933Y-118065720D01*
X138417060Y-118073121D01*
X138424309Y-118132821D01*
X138424310Y-118132824D01*
X138427901Y-118142293D01*
X138433924Y-118163896D01*
X138435754Y-118173880D01*
X138460441Y-118228732D01*
X138463304Y-118235644D01*
X138484632Y-118291880D01*
X138484633Y-118291881D01*
X138490386Y-118300216D01*
X138501411Y-118319763D01*
X138505570Y-118329005D01*
X138505574Y-118329010D01*
X138542665Y-118376353D01*
X138547105Y-118382388D01*
X138581262Y-118431874D01*
X138581266Y-118431879D01*
X138626278Y-118471755D01*
X138631733Y-118476890D01*
X140184008Y-120029165D01*
X140189128Y-120034603D01*
X140229021Y-120079633D01*
X140278527Y-120113805D01*
X140284547Y-120118235D01*
X140331893Y-120155328D01*
X140338795Y-120158434D01*
X140341132Y-120159486D01*
X140360683Y-120170513D01*
X140365985Y-120174173D01*
X140369021Y-120176269D01*
X140425247Y-120197592D01*
X140432162Y-120200456D01*
X140487018Y-120225145D01*
X140496992Y-120226972D01*
X140518606Y-120232998D01*
X140521727Y-120234181D01*
X140528078Y-120236590D01*
X140585191Y-120243524D01*
X140587764Y-120243837D01*
X140595169Y-120244964D01*
X140616123Y-120248803D01*
X140654344Y-120255808D01*
X140714383Y-120252175D01*
X140721871Y-120251950D01*
X143263794Y-120251950D01*
X143330833Y-120271635D01*
X143336679Y-120275632D01*
X143419215Y-120335598D01*
X143419220Y-120335601D01*
X143592142Y-120412592D01*
X143592147Y-120412594D01*
X143777304Y-120451950D01*
X143777305Y-120451950D01*
X143966594Y-120451950D01*
X143966596Y-120451950D01*
X144151753Y-120412594D01*
X144324680Y-120335601D01*
X144477821Y-120224338D01*
X144604483Y-120083666D01*
X144699129Y-119919734D01*
X144757624Y-119739706D01*
X144777410Y-119551450D01*
X144757624Y-119363194D01*
X144699129Y-119183166D01*
X144604483Y-119019234D01*
X144477821Y-118878562D01*
X144456625Y-118863162D01*
X144324684Y-118767301D01*
X144324679Y-118767298D01*
X144151757Y-118690307D01*
X144151752Y-118690305D01*
X144005951Y-118659315D01*
X143966596Y-118650950D01*
X143777304Y-118650950D01*
X143744847Y-118657848D01*
X143592147Y-118690305D01*
X143592142Y-118690307D01*
X143419220Y-118767298D01*
X143419215Y-118767301D01*
X143336679Y-118827268D01*
X143270873Y-118850748D01*
X143263794Y-118850950D01*
X141038469Y-118850950D01*
X140971430Y-118831265D01*
X140950788Y-118814631D01*
X140100107Y-117963950D01*
X145866414Y-117963950D01*
X145886514Y-118180868D01*
X145886514Y-118180870D01*
X145886515Y-118180873D01*
X145918344Y-118292740D01*
X145946134Y-118390412D01*
X145987876Y-118474241D01*
X146043238Y-118585422D01*
X146174523Y-118759272D01*
X146335518Y-118906038D01*
X146335525Y-118906042D01*
X146335526Y-118906043D01*
X146520736Y-119020720D01*
X146520742Y-119020723D01*
X146534106Y-119025900D01*
X146723881Y-119099420D01*
X146938024Y-119139450D01*
X146938026Y-119139450D01*
X147155874Y-119139450D01*
X147155876Y-119139450D01*
X147370019Y-119099420D01*
X147573160Y-119020722D01*
X147758382Y-118906038D01*
X147919377Y-118759272D01*
X147953774Y-118713723D01*
X148009883Y-118672087D01*
X148052728Y-118664450D01*
X151441527Y-118664450D01*
X151508566Y-118684135D01*
X151543102Y-118717327D01*
X151603154Y-118803091D01*
X151764058Y-118963995D01*
X151764061Y-118963997D01*
X151950466Y-119094518D01*
X152156704Y-119190689D01*
X152376508Y-119249585D01*
X152538430Y-119263751D01*
X152603198Y-119269418D01*
X152603200Y-119269418D01*
X152603202Y-119269418D01*
X152659873Y-119264459D01*
X152829892Y-119249585D01*
X153049696Y-119190689D01*
X153255934Y-119094518D01*
X153442339Y-118963997D01*
X153603247Y-118803089D01*
X153733768Y-118616684D01*
X153829939Y-118410446D01*
X153888835Y-118190642D01*
X153908668Y-117963950D01*
X162535164Y-117963950D01*
X162555264Y-118180868D01*
X162555264Y-118180870D01*
X162555265Y-118180873D01*
X162587094Y-118292740D01*
X162614884Y-118390412D01*
X162656626Y-118474241D01*
X162711988Y-118585422D01*
X162843273Y-118759272D01*
X163004268Y-118906038D01*
X163004275Y-118906042D01*
X163004276Y-118906043D01*
X163189486Y-119020720D01*
X163189492Y-119020723D01*
X163202856Y-119025900D01*
X163392631Y-119099420D01*
X163606774Y-119139450D01*
X163606776Y-119139450D01*
X163824624Y-119139450D01*
X163824626Y-119139450D01*
X164038769Y-119099420D01*
X164241910Y-119020722D01*
X164427132Y-118906038D01*
X164588127Y-118759272D01*
X164622524Y-118713723D01*
X164678633Y-118672087D01*
X164721478Y-118664450D01*
X168110277Y-118664450D01*
X168177316Y-118684135D01*
X168211852Y-118717327D01*
X168271904Y-118803091D01*
X168432808Y-118963995D01*
X168432811Y-118963997D01*
X168619216Y-119094518D01*
X168825454Y-119190689D01*
X169045258Y-119249585D01*
X169207180Y-119263751D01*
X169271948Y-119269418D01*
X169271950Y-119269418D01*
X169271952Y-119269418D01*
X169328623Y-119264459D01*
X169498642Y-119249585D01*
X169718446Y-119190689D01*
X169924684Y-119094518D01*
X170111089Y-118963997D01*
X170271997Y-118803089D01*
X170402518Y-118616684D01*
X170498689Y-118410446D01*
X170557585Y-118190642D01*
X170577418Y-117963950D01*
X170557585Y-117737258D01*
X170498689Y-117517454D01*
X170402518Y-117311216D01*
X170271997Y-117124811D01*
X170271995Y-117124808D01*
X170111091Y-116963904D01*
X169924684Y-116833382D01*
X169924682Y-116833381D01*
X169718447Y-116737211D01*
X169718438Y-116737208D01*
X169498647Y-116678316D01*
X169498643Y-116678315D01*
X169498642Y-116678315D01*
X169498641Y-116678314D01*
X169498636Y-116678314D01*
X169271952Y-116658482D01*
X169271948Y-116658482D01*
X169045263Y-116678314D01*
X169045252Y-116678316D01*
X168825461Y-116737208D01*
X168825452Y-116737211D01*
X168619217Y-116833381D01*
X168619215Y-116833382D01*
X168432808Y-116963904D01*
X168271904Y-117124808D01*
X168211852Y-117210573D01*
X168157275Y-117254198D01*
X168110277Y-117263450D01*
X164721478Y-117263450D01*
X164654439Y-117243765D01*
X164622524Y-117214177D01*
X164588125Y-117168626D01*
X164427133Y-117021863D01*
X164427123Y-117021856D01*
X164241913Y-116907179D01*
X164241907Y-116907176D01*
X164156813Y-116874210D01*
X164038769Y-116828480D01*
X163824626Y-116788450D01*
X163606774Y-116788450D01*
X163392631Y-116828480D01*
X163379978Y-116833382D01*
X163189492Y-116907176D01*
X163189486Y-116907179D01*
X163004276Y-117021856D01*
X163004266Y-117021863D01*
X162843274Y-117168626D01*
X162711988Y-117342477D01*
X162614884Y-117537487D01*
X162555264Y-117747031D01*
X162535164Y-117963949D01*
X162535164Y-117963950D01*
X153908668Y-117963950D01*
X153888835Y-117737258D01*
X153829939Y-117517454D01*
X153733768Y-117311216D01*
X153603247Y-117124811D01*
X153603245Y-117124808D01*
X153442341Y-116963904D01*
X153255934Y-116833382D01*
X153255932Y-116833381D01*
X153049697Y-116737211D01*
X153049688Y-116737208D01*
X152829897Y-116678316D01*
X152829893Y-116678315D01*
X152829892Y-116678315D01*
X152829891Y-116678314D01*
X152829886Y-116678314D01*
X152603202Y-116658482D01*
X152603198Y-116658482D01*
X152376513Y-116678314D01*
X152376502Y-116678316D01*
X152156711Y-116737208D01*
X152156702Y-116737211D01*
X151950467Y-116833381D01*
X151950465Y-116833382D01*
X151764058Y-116963904D01*
X151603154Y-117124808D01*
X151543102Y-117210573D01*
X151488525Y-117254198D01*
X151441527Y-117263450D01*
X148052728Y-117263450D01*
X147985689Y-117243765D01*
X147953774Y-117214177D01*
X147919375Y-117168626D01*
X147758383Y-117021863D01*
X147758373Y-117021856D01*
X147573163Y-116907179D01*
X147573157Y-116907176D01*
X147488063Y-116874210D01*
X147370019Y-116828480D01*
X147155876Y-116788450D01*
X146938024Y-116788450D01*
X146723881Y-116828480D01*
X146711228Y-116833382D01*
X146520742Y-116907176D01*
X146520736Y-116907179D01*
X146335526Y-117021856D01*
X146335516Y-117021863D01*
X146174524Y-117168626D01*
X146043238Y-117342477D01*
X145946134Y-117537487D01*
X145886514Y-117747031D01*
X145866414Y-117963949D01*
X145866414Y-117963950D01*
X140100107Y-117963950D01*
X139846269Y-117710112D01*
X139812784Y-117648789D01*
X139809950Y-117622431D01*
X139809950Y-115863950D01*
X140866414Y-115863950D01*
X140886514Y-116080868D01*
X140886514Y-116080870D01*
X140886515Y-116080873D01*
X140946133Y-116290409D01*
X141043238Y-116485422D01*
X141174523Y-116659272D01*
X141335518Y-116806038D01*
X141335525Y-116806042D01*
X141335526Y-116806043D01*
X141520736Y-116920720D01*
X141520742Y-116920723D01*
X141543614Y-116929583D01*
X141723881Y-116999420D01*
X141938024Y-117039450D01*
X141938026Y-117039450D01*
X142155874Y-117039450D01*
X142155876Y-117039450D01*
X142370019Y-116999420D01*
X142573160Y-116920722D01*
X142758382Y-116806038D01*
X142919377Y-116659272D01*
X143050662Y-116485422D01*
X143147767Y-116290409D01*
X143207385Y-116080873D01*
X143227486Y-115863950D01*
X157535164Y-115863950D01*
X157555264Y-116080868D01*
X157555264Y-116080870D01*
X157555265Y-116080873D01*
X157614883Y-116290409D01*
X157711988Y-116485422D01*
X157843273Y-116659272D01*
X158004268Y-116806038D01*
X158004275Y-116806042D01*
X158004276Y-116806043D01*
X158189486Y-116920720D01*
X158189492Y-116920723D01*
X158212364Y-116929583D01*
X158392631Y-116999420D01*
X158606774Y-117039450D01*
X158606776Y-117039450D01*
X158824624Y-117039450D01*
X158824626Y-117039450D01*
X159038769Y-116999420D01*
X159241910Y-116920722D01*
X159427132Y-116806038D01*
X159588127Y-116659272D01*
X159719412Y-116485422D01*
X159816517Y-116290409D01*
X159876135Y-116080873D01*
X159896236Y-115863950D01*
X159876135Y-115647027D01*
X159816517Y-115437491D01*
X159719412Y-115242478D01*
X159588127Y-115068628D01*
X159588125Y-115068625D01*
X159456662Y-114948781D01*
X159420380Y-114889070D01*
X159416200Y-114857144D01*
X159416200Y-112063950D01*
X160960173Y-112063950D01*
X160980263Y-112396086D01*
X160980263Y-112396091D01*
X160980264Y-112396092D01*
X161040244Y-112723391D01*
X161040245Y-112723395D01*
X161040246Y-112723399D01*
X161139230Y-113041054D01*
X161139234Y-113041066D01*
X161139237Y-113041073D01*
X161275802Y-113344507D01*
X161325946Y-113427455D01*
X161447951Y-113629276D01*
X161653160Y-113891205D01*
X161888444Y-114126489D01*
X162150373Y-114331698D01*
X162150378Y-114331701D01*
X162150382Y-114331704D01*
X162435143Y-114503848D01*
X162738577Y-114640413D01*
X162738590Y-114640417D01*
X162738595Y-114640419D01*
X162950365Y-114706408D01*
X163056259Y-114739406D01*
X163383558Y-114799386D01*
X163632594Y-114814450D01*
X163632607Y-114814450D01*
X163798793Y-114814450D01*
X163798806Y-114814450D01*
X164047842Y-114799386D01*
X164375141Y-114739406D01*
X164692823Y-114640413D01*
X164996257Y-114503848D01*
X165281018Y-114331704D01*
X165542952Y-114126492D01*
X165778242Y-113891202D01*
X165983454Y-113629268D01*
X166155598Y-113344507D01*
X166292163Y-113041073D01*
X166391156Y-112723391D01*
X166451136Y-112396092D01*
X166471227Y-112063950D01*
X166451136Y-111731808D01*
X166391156Y-111404509D01*
X166324880Y-111191820D01*
X167971450Y-111191820D01*
X167971451Y-111191826D01*
X167977858Y-111251433D01*
X168028152Y-111386278D01*
X168028156Y-111386285D01*
X168114402Y-111501494D01*
X168114405Y-111501497D01*
X168229614Y-111587743D01*
X168229621Y-111587747D01*
X168364467Y-111638041D01*
X168364466Y-111638041D01*
X168371394Y-111638785D01*
X168424077Y-111644450D01*
X170119822Y-111644449D01*
X170179433Y-111638041D01*
X170314281Y-111587746D01*
X170429496Y-111501496D01*
X170515746Y-111386281D01*
X170566041Y-111251433D01*
X170572450Y-111191823D01*
X170572449Y-109496078D01*
X170566041Y-109436467D01*
X170548148Y-109388494D01*
X170515747Y-109301621D01*
X170515743Y-109301614D01*
X170429497Y-109186405D01*
X170429494Y-109186402D01*
X170314285Y-109100156D01*
X170314278Y-109100152D01*
X170179432Y-109049858D01*
X170179433Y-109049858D01*
X170119833Y-109043451D01*
X170119831Y-109043450D01*
X170119823Y-109043450D01*
X170119814Y-109043450D01*
X168424079Y-109043450D01*
X168424073Y-109043451D01*
X168364466Y-109049858D01*
X168229621Y-109100152D01*
X168229614Y-109100156D01*
X168114405Y-109186402D01*
X168114402Y-109186405D01*
X168028156Y-109301614D01*
X168028152Y-109301621D01*
X167977858Y-109436467D01*
X167971451Y-109496066D01*
X167971451Y-109496073D01*
X167971450Y-109496085D01*
X167971450Y-111191820D01*
X166324880Y-111191820D01*
X166292163Y-111086827D01*
X166155598Y-110783393D01*
X165983454Y-110498632D01*
X165983451Y-110498628D01*
X165983448Y-110498623D01*
X165778239Y-110236694D01*
X165542955Y-110001410D01*
X165281026Y-109796201D01*
X165281018Y-109796196D01*
X164996257Y-109624052D01*
X164692823Y-109487487D01*
X164692816Y-109487484D01*
X164692804Y-109487480D01*
X164375149Y-109388496D01*
X164375145Y-109388495D01*
X164375141Y-109388494D01*
X164047842Y-109328514D01*
X164047841Y-109328513D01*
X164047836Y-109328513D01*
X163798814Y-109313450D01*
X163798806Y-109313450D01*
X163632594Y-109313450D01*
X163632585Y-109313450D01*
X163383563Y-109328513D01*
X163383558Y-109328514D01*
X163056259Y-109388494D01*
X163056256Y-109388494D01*
X163056250Y-109388496D01*
X162738595Y-109487480D01*
X162738579Y-109487486D01*
X162738577Y-109487487D01*
X162545356Y-109574448D01*
X162435147Y-109624050D01*
X162435145Y-109624051D01*
X162150373Y-109796201D01*
X161888444Y-110001410D01*
X161653160Y-110236694D01*
X161447951Y-110498623D01*
X161447946Y-110498632D01*
X161287167Y-110764594D01*
X161275801Y-110783395D01*
X161275800Y-110783397D01*
X161139236Y-111086830D01*
X161139230Y-111086845D01*
X161040246Y-111404500D01*
X161040244Y-111404506D01*
X161040244Y-111404509D01*
X161006664Y-111587747D01*
X160980263Y-111731813D01*
X160960173Y-112063950D01*
X159416200Y-112063950D01*
X159416200Y-106913951D01*
X167385137Y-106913951D01*
X167405350Y-107144994D01*
X167405351Y-107145001D01*
X167465378Y-107369024D01*
X167465379Y-107369026D01*
X167465380Y-107369029D01*
X167563399Y-107579232D01*
X167696430Y-107769219D01*
X167860431Y-107933220D01*
X168050418Y-108066251D01*
X168260621Y-108164270D01*
X168484650Y-108224299D01*
X168649685Y-108238737D01*
X168715698Y-108244513D01*
X168715700Y-108244513D01*
X168715702Y-108244513D01*
X168773462Y-108239459D01*
X168946750Y-108224299D01*
X169170779Y-108164270D01*
X169380982Y-108066251D01*
X169570969Y-107933220D01*
X169734970Y-107769219D01*
X169868001Y-107579232D01*
X169966020Y-107369029D01*
X170026049Y-107145000D01*
X170046263Y-106913950D01*
X170026049Y-106682900D01*
X169966020Y-106458871D01*
X169868001Y-106248669D01*
X169867999Y-106248666D01*
X169867998Y-106248664D01*
X169734973Y-106058685D01*
X169734968Y-106058679D01*
X169570969Y-105894680D01*
X169570963Y-105894676D01*
X169380982Y-105761649D01*
X169170779Y-105663630D01*
X169170776Y-105663629D01*
X169170774Y-105663628D01*
X168946751Y-105603601D01*
X168946744Y-105603600D01*
X168715702Y-105583387D01*
X168715698Y-105583387D01*
X168484655Y-105603600D01*
X168484648Y-105603601D01*
X168260617Y-105663631D01*
X168050418Y-105761649D01*
X168050414Y-105761651D01*
X167860435Y-105894676D01*
X167860429Y-105894681D01*
X167696431Y-106058679D01*
X167696426Y-106058685D01*
X167563401Y-106248664D01*
X167563399Y-106248668D01*
X167465381Y-106458867D01*
X167405351Y-106682898D01*
X167405350Y-106682905D01*
X167385137Y-106913948D01*
X167385137Y-106913951D01*
X159416200Y-106913951D01*
X159416200Y-101295200D01*
X162535164Y-101295200D01*
X162555264Y-101512118D01*
X162614884Y-101721662D01*
X162711988Y-101916672D01*
X162843273Y-102090522D01*
X163004268Y-102237288D01*
X163004275Y-102237292D01*
X163004276Y-102237293D01*
X163189486Y-102351970D01*
X163189492Y-102351973D01*
X163212364Y-102360833D01*
X163392631Y-102430670D01*
X163606774Y-102470700D01*
X163606776Y-102470700D01*
X163824624Y-102470700D01*
X163824626Y-102470700D01*
X164038769Y-102430670D01*
X164241910Y-102351972D01*
X164427132Y-102237288D01*
X164588127Y-102090522D01*
X164622524Y-102044973D01*
X164678633Y-102003337D01*
X164721478Y-101995700D01*
X168110277Y-101995700D01*
X168177316Y-102015385D01*
X168211852Y-102048577D01*
X168271904Y-102134341D01*
X168432808Y-102295245D01*
X168432811Y-102295247D01*
X168619216Y-102425768D01*
X168825454Y-102521939D01*
X169045258Y-102580835D01*
X169207180Y-102595001D01*
X169271948Y-102600668D01*
X169271950Y-102600668D01*
X169271952Y-102600668D01*
X169328623Y-102595709D01*
X169498642Y-102580835D01*
X169718446Y-102521939D01*
X169924684Y-102425768D01*
X170111089Y-102295247D01*
X170271997Y-102134339D01*
X170402518Y-101947934D01*
X170498689Y-101741696D01*
X170557585Y-101521892D01*
X170577418Y-101295200D01*
X170557585Y-101068508D01*
X170498689Y-100848704D01*
X170402518Y-100642466D01*
X170271997Y-100456061D01*
X170271995Y-100456058D01*
X170111091Y-100295154D01*
X169924684Y-100164632D01*
X169924682Y-100164631D01*
X169718447Y-100068461D01*
X169718438Y-100068458D01*
X169498647Y-100009566D01*
X169498643Y-100009565D01*
X169498642Y-100009565D01*
X169498641Y-100009564D01*
X169498636Y-100009564D01*
X169271952Y-99989732D01*
X169271948Y-99989732D01*
X169045263Y-100009564D01*
X169045252Y-100009566D01*
X168825461Y-100068458D01*
X168825452Y-100068461D01*
X168619217Y-100164631D01*
X168619215Y-100164632D01*
X168432808Y-100295154D01*
X168271904Y-100456058D01*
X168211852Y-100541823D01*
X168157275Y-100585448D01*
X168110277Y-100594700D01*
X164721478Y-100594700D01*
X164654439Y-100575015D01*
X164622524Y-100545427D01*
X164588125Y-100499876D01*
X164427133Y-100353113D01*
X164427123Y-100353106D01*
X164241913Y-100238429D01*
X164241907Y-100238426D01*
X164156813Y-100205460D01*
X164038769Y-100159730D01*
X163824626Y-100119700D01*
X163606774Y-100119700D01*
X163392631Y-100159730D01*
X163379978Y-100164632D01*
X163189492Y-100238426D01*
X163189486Y-100238429D01*
X163004276Y-100353106D01*
X163004266Y-100353113D01*
X162843274Y-100499876D01*
X162711988Y-100673727D01*
X162614884Y-100868737D01*
X162555264Y-101078281D01*
X162535164Y-101295199D01*
X162535164Y-101295200D01*
X159416200Y-101295200D01*
X159416200Y-100202004D01*
X159435885Y-100134965D01*
X159456654Y-100110374D01*
X159588127Y-99990522D01*
X159719412Y-99816672D01*
X159816517Y-99621659D01*
X159876135Y-99412123D01*
X159896236Y-99195200D01*
X159876135Y-98978277D01*
X159816517Y-98768741D01*
X159719412Y-98573728D01*
X159588127Y-98399878D01*
X159588125Y-98399875D01*
X159456662Y-98280031D01*
X159420380Y-98220320D01*
X159416200Y-98188394D01*
X159416200Y-95395200D01*
X160960173Y-95395200D01*
X160980263Y-95727336D01*
X160980263Y-95727341D01*
X160980264Y-95727342D01*
X161040244Y-96054641D01*
X161040245Y-96054645D01*
X161040246Y-96054649D01*
X161139230Y-96372304D01*
X161139234Y-96372316D01*
X161139237Y-96372323D01*
X161275802Y-96675757D01*
X161394053Y-96871368D01*
X161447951Y-96960526D01*
X161653160Y-97222455D01*
X161888444Y-97457739D01*
X162150373Y-97662948D01*
X162150378Y-97662951D01*
X162150382Y-97662954D01*
X162435143Y-97835098D01*
X162738577Y-97971663D01*
X162738590Y-97971667D01*
X162738595Y-97971669D01*
X162950365Y-98037658D01*
X163056259Y-98070656D01*
X163383558Y-98130636D01*
X163632594Y-98145700D01*
X163632607Y-98145700D01*
X163798793Y-98145700D01*
X163798806Y-98145700D01*
X164047842Y-98130636D01*
X164375141Y-98070656D01*
X164692823Y-97971663D01*
X164996257Y-97835098D01*
X165281018Y-97662954D01*
X165542952Y-97457742D01*
X165778242Y-97222452D01*
X165983454Y-96960518D01*
X166155598Y-96675757D01*
X166292163Y-96372323D01*
X166301490Y-96342393D01*
X166374350Y-96108573D01*
X166391156Y-96054641D01*
X166451136Y-95727342D01*
X166471227Y-95395200D01*
X166451136Y-95063058D01*
X166391156Y-94735759D01*
X166292163Y-94418077D01*
X166155598Y-94114643D01*
X165983454Y-93829882D01*
X165983451Y-93829878D01*
X165983448Y-93829873D01*
X165778239Y-93567944D01*
X165542955Y-93332660D01*
X165281026Y-93127451D01*
X165281018Y-93127446D01*
X164996257Y-92955302D01*
X164692823Y-92818737D01*
X164692816Y-92818734D01*
X164692804Y-92818730D01*
X164375149Y-92719746D01*
X164375145Y-92719745D01*
X164375141Y-92719744D01*
X164047842Y-92659764D01*
X164047841Y-92659763D01*
X164047836Y-92659763D01*
X163798814Y-92644700D01*
X163798806Y-92644700D01*
X163632594Y-92644700D01*
X163632585Y-92644700D01*
X163383563Y-92659763D01*
X163383558Y-92659764D01*
X163056259Y-92719744D01*
X163056256Y-92719744D01*
X163056250Y-92719746D01*
X162738595Y-92818730D01*
X162738579Y-92818736D01*
X162738577Y-92818737D01*
X162545356Y-92905698D01*
X162435147Y-92955300D01*
X162435145Y-92955301D01*
X162150373Y-93127451D01*
X161888444Y-93332660D01*
X161653160Y-93567944D01*
X161447951Y-93829873D01*
X161332193Y-94021361D01*
X161287167Y-94095844D01*
X161275801Y-94114645D01*
X161275800Y-94114647D01*
X161139236Y-94418080D01*
X161139230Y-94418095D01*
X161040246Y-94735750D01*
X161040244Y-94735756D01*
X161040244Y-94735759D01*
X161006664Y-94918997D01*
X160980263Y-95063063D01*
X160960173Y-95395200D01*
X159416200Y-95395200D01*
X159416200Y-90245201D01*
X167385137Y-90245201D01*
X167405350Y-90476244D01*
X167405351Y-90476251D01*
X167465378Y-90700274D01*
X167465379Y-90700276D01*
X167465380Y-90700279D01*
X167563399Y-90910482D01*
X167696430Y-91100469D01*
X167860431Y-91264470D01*
X168050418Y-91397501D01*
X168260621Y-91495520D01*
X168484650Y-91555549D01*
X168649685Y-91569987D01*
X168715698Y-91575763D01*
X168715700Y-91575763D01*
X168715702Y-91575763D01*
X168773462Y-91570709D01*
X168946750Y-91555549D01*
X169170779Y-91495520D01*
X169380982Y-91397501D01*
X169570969Y-91264470D01*
X169734970Y-91100469D01*
X169868001Y-90910482D01*
X169966020Y-90700279D01*
X170026049Y-90476250D01*
X170046263Y-90245200D01*
X170026049Y-90014150D01*
X169966020Y-89790121D01*
X169868001Y-89579919D01*
X169867999Y-89579916D01*
X169867998Y-89579914D01*
X169734973Y-89389935D01*
X169734968Y-89389929D01*
X169570969Y-89225930D01*
X169570963Y-89225926D01*
X169380982Y-89092899D01*
X169170779Y-88994880D01*
X169170776Y-88994879D01*
X169170774Y-88994878D01*
X168946751Y-88934851D01*
X168946744Y-88934850D01*
X168715702Y-88914637D01*
X168715698Y-88914637D01*
X168484655Y-88934850D01*
X168484648Y-88934851D01*
X168260617Y-88994881D01*
X168050418Y-89092899D01*
X168050414Y-89092901D01*
X167860435Y-89225926D01*
X167860429Y-89225931D01*
X167696431Y-89389929D01*
X167696426Y-89389935D01*
X167563401Y-89579914D01*
X167563399Y-89579918D01*
X167465381Y-89790117D01*
X167405351Y-90014148D01*
X167405350Y-90014155D01*
X167385137Y-90245198D01*
X167385137Y-90245201D01*
X159416200Y-90245201D01*
X159416200Y-84626450D01*
X162535164Y-84626450D01*
X162555264Y-84843368D01*
X162614884Y-85052912D01*
X162711988Y-85247922D01*
X162843273Y-85421772D01*
X163004268Y-85568538D01*
X163004275Y-85568542D01*
X163004276Y-85568543D01*
X163189486Y-85683220D01*
X163189492Y-85683223D01*
X163212364Y-85692083D01*
X163392631Y-85761920D01*
X163606774Y-85801950D01*
X163606776Y-85801950D01*
X163824624Y-85801950D01*
X163824626Y-85801950D01*
X164038769Y-85761920D01*
X164241910Y-85683222D01*
X164427132Y-85568538D01*
X164588127Y-85421772D01*
X164622524Y-85376223D01*
X164678633Y-85334587D01*
X164721478Y-85326950D01*
X168110277Y-85326950D01*
X168177316Y-85346635D01*
X168211852Y-85379827D01*
X168271904Y-85465591D01*
X168432808Y-85626495D01*
X168432811Y-85626497D01*
X168619216Y-85757018D01*
X168825454Y-85853189D01*
X169045258Y-85912085D01*
X169207180Y-85926251D01*
X169271948Y-85931918D01*
X169271950Y-85931918D01*
X169271952Y-85931918D01*
X169328623Y-85926959D01*
X169498642Y-85912085D01*
X169718446Y-85853189D01*
X169924684Y-85757018D01*
X170111089Y-85626497D01*
X170271997Y-85465589D01*
X170402518Y-85279184D01*
X170498689Y-85072946D01*
X170557585Y-84853142D01*
X170577418Y-84626450D01*
X170557585Y-84399758D01*
X170498689Y-84179954D01*
X170402518Y-83973716D01*
X170271997Y-83787311D01*
X170271995Y-83787308D01*
X170111091Y-83626404D01*
X169924684Y-83495882D01*
X169924682Y-83495881D01*
X169718447Y-83399711D01*
X169718438Y-83399708D01*
X169498647Y-83340816D01*
X169498643Y-83340815D01*
X169498642Y-83340815D01*
X169498641Y-83340814D01*
X169498636Y-83340814D01*
X169271952Y-83320982D01*
X169271948Y-83320982D01*
X169045263Y-83340814D01*
X169045252Y-83340816D01*
X168825461Y-83399708D01*
X168825452Y-83399711D01*
X168619217Y-83495881D01*
X168619215Y-83495882D01*
X168432808Y-83626404D01*
X168271904Y-83787308D01*
X168211852Y-83873073D01*
X168157275Y-83916698D01*
X168110277Y-83925950D01*
X164721478Y-83925950D01*
X164654439Y-83906265D01*
X164622524Y-83876677D01*
X164588125Y-83831126D01*
X164427133Y-83684363D01*
X164427123Y-83684356D01*
X164241913Y-83569679D01*
X164241907Y-83569676D01*
X164156813Y-83536710D01*
X164038769Y-83490980D01*
X163824626Y-83450950D01*
X163606774Y-83450950D01*
X163392631Y-83490980D01*
X163379978Y-83495882D01*
X163189492Y-83569676D01*
X163189486Y-83569679D01*
X163004276Y-83684356D01*
X163004266Y-83684363D01*
X162843274Y-83831126D01*
X162711988Y-84004977D01*
X162614884Y-84199987D01*
X162555264Y-84409531D01*
X162535164Y-84626449D01*
X162535164Y-84626450D01*
X159416200Y-84626450D01*
X159416200Y-83533254D01*
X159435885Y-83466215D01*
X159456654Y-83441624D01*
X159588127Y-83321772D01*
X159719412Y-83147922D01*
X159816517Y-82952909D01*
X159876135Y-82743373D01*
X159896236Y-82526450D01*
X159876135Y-82309527D01*
X159816517Y-82099991D01*
X159719412Y-81904978D01*
X159588127Y-81731128D01*
X159588125Y-81731125D01*
X159456662Y-81611281D01*
X159420380Y-81551570D01*
X159416200Y-81519644D01*
X159416200Y-78726450D01*
X160960173Y-78726450D01*
X160980263Y-79058586D01*
X160980263Y-79058591D01*
X160980264Y-79058592D01*
X161040244Y-79385891D01*
X161040245Y-79385895D01*
X161040246Y-79385899D01*
X161139230Y-79703554D01*
X161139234Y-79703566D01*
X161139237Y-79703573D01*
X161275802Y-80007007D01*
X161394053Y-80202618D01*
X161447951Y-80291776D01*
X161653160Y-80553705D01*
X161888444Y-80788989D01*
X162150373Y-80994198D01*
X162150378Y-80994201D01*
X162150382Y-80994204D01*
X162435143Y-81166348D01*
X162738577Y-81302913D01*
X162738590Y-81302917D01*
X162738595Y-81302919D01*
X162950365Y-81368908D01*
X163056259Y-81401906D01*
X163383558Y-81461886D01*
X163632594Y-81476950D01*
X163632607Y-81476950D01*
X163798793Y-81476950D01*
X163798806Y-81476950D01*
X164047842Y-81461886D01*
X164375141Y-81401906D01*
X164692823Y-81302913D01*
X164996257Y-81166348D01*
X165281018Y-80994204D01*
X165542952Y-80788992D01*
X165778242Y-80553702D01*
X165983454Y-80291768D01*
X166155598Y-80007007D01*
X166292163Y-79703573D01*
X166301490Y-79673643D01*
X166374350Y-79439823D01*
X166391156Y-79385891D01*
X166451136Y-79058592D01*
X166471227Y-78726450D01*
X166451136Y-78394308D01*
X166391156Y-78067009D01*
X166324880Y-77854320D01*
X167971450Y-77854320D01*
X167971451Y-77854326D01*
X167977858Y-77913933D01*
X168028152Y-78048778D01*
X168028156Y-78048785D01*
X168114402Y-78163994D01*
X168114405Y-78163997D01*
X168229614Y-78250243D01*
X168229621Y-78250247D01*
X168364467Y-78300541D01*
X168364466Y-78300541D01*
X168371394Y-78301285D01*
X168424077Y-78306950D01*
X170119822Y-78306949D01*
X170179433Y-78300541D01*
X170314281Y-78250246D01*
X170429496Y-78163996D01*
X170515746Y-78048781D01*
X170566041Y-77913933D01*
X170572450Y-77854323D01*
X170572449Y-76158578D01*
X170566041Y-76098967D01*
X170548148Y-76050994D01*
X170515747Y-75964121D01*
X170515743Y-75964114D01*
X170429497Y-75848905D01*
X170429494Y-75848902D01*
X170314285Y-75762656D01*
X170314278Y-75762652D01*
X170179432Y-75712358D01*
X170179433Y-75712358D01*
X170119833Y-75705951D01*
X170119831Y-75705950D01*
X170119823Y-75705950D01*
X170119814Y-75705950D01*
X168424079Y-75705950D01*
X168424073Y-75705951D01*
X168364466Y-75712358D01*
X168229621Y-75762652D01*
X168229614Y-75762656D01*
X168114405Y-75848902D01*
X168114402Y-75848905D01*
X168028156Y-75964114D01*
X168028152Y-75964121D01*
X167977858Y-76098967D01*
X167971451Y-76158566D01*
X167971451Y-76158573D01*
X167971450Y-76158585D01*
X167971450Y-77854320D01*
X166324880Y-77854320D01*
X166292163Y-77749327D01*
X166155598Y-77445893D01*
X165983454Y-77161132D01*
X165983451Y-77161128D01*
X165983448Y-77161123D01*
X165778239Y-76899194D01*
X165542955Y-76663910D01*
X165281026Y-76458701D01*
X165281018Y-76458696D01*
X164996257Y-76286552D01*
X164692823Y-76149987D01*
X164692816Y-76149984D01*
X164692804Y-76149980D01*
X164375149Y-76050996D01*
X164375145Y-76050995D01*
X164375141Y-76050994D01*
X164047842Y-75991014D01*
X164047841Y-75991013D01*
X164047836Y-75991013D01*
X163798814Y-75975950D01*
X163798806Y-75975950D01*
X163632594Y-75975950D01*
X163632585Y-75975950D01*
X163383563Y-75991013D01*
X163383558Y-75991014D01*
X163056259Y-76050994D01*
X163056256Y-76050994D01*
X163056250Y-76050996D01*
X162738595Y-76149980D01*
X162738579Y-76149986D01*
X162738577Y-76149987D01*
X162545356Y-76236948D01*
X162435147Y-76286550D01*
X162435145Y-76286551D01*
X162150373Y-76458701D01*
X161888444Y-76663910D01*
X161653160Y-76899194D01*
X161447951Y-77161123D01*
X161332193Y-77352611D01*
X161287167Y-77427094D01*
X161275801Y-77445895D01*
X161275800Y-77445897D01*
X161139236Y-77749330D01*
X161139230Y-77749345D01*
X161040246Y-78067000D01*
X161040244Y-78067006D01*
X161040244Y-78067009D01*
X161006664Y-78250247D01*
X160980263Y-78394313D01*
X160960173Y-78726450D01*
X159416200Y-78726450D01*
X159416200Y-73576451D01*
X167385137Y-73576451D01*
X167405350Y-73807494D01*
X167405351Y-73807501D01*
X167465378Y-74031524D01*
X167465379Y-74031526D01*
X167465380Y-74031529D01*
X167563399Y-74241732D01*
X167696430Y-74431719D01*
X167860431Y-74595720D01*
X168050418Y-74728751D01*
X168260621Y-74826770D01*
X168484650Y-74886799D01*
X168649685Y-74901237D01*
X168715698Y-74907013D01*
X168715700Y-74907013D01*
X168715702Y-74907013D01*
X168773462Y-74901959D01*
X168946750Y-74886799D01*
X169170779Y-74826770D01*
X169380982Y-74728751D01*
X169570969Y-74595720D01*
X169734970Y-74431719D01*
X169868001Y-74241732D01*
X169966020Y-74031529D01*
X170026049Y-73807500D01*
X170046263Y-73576450D01*
X170026049Y-73345400D01*
X169966020Y-73121371D01*
X169868001Y-72911169D01*
X169867999Y-72911166D01*
X169867998Y-72911164D01*
X169734973Y-72721185D01*
X169734968Y-72721179D01*
X169570969Y-72557180D01*
X169570963Y-72557176D01*
X169380982Y-72424149D01*
X169170779Y-72326130D01*
X169170776Y-72326129D01*
X169170774Y-72326128D01*
X168946751Y-72266101D01*
X168946744Y-72266100D01*
X168715702Y-72245887D01*
X168715698Y-72245887D01*
X168484655Y-72266100D01*
X168484648Y-72266101D01*
X168260617Y-72326131D01*
X168050418Y-72424149D01*
X168050414Y-72424151D01*
X167860435Y-72557176D01*
X167860429Y-72557181D01*
X167696431Y-72721179D01*
X167696426Y-72721185D01*
X167563401Y-72911164D01*
X167563399Y-72911168D01*
X167465381Y-73121367D01*
X167405351Y-73345398D01*
X167405350Y-73345405D01*
X167385137Y-73576448D01*
X167385137Y-73576451D01*
X159416200Y-73576451D01*
X159416200Y-67957700D01*
X162535164Y-67957700D01*
X162555264Y-68174618D01*
X162555264Y-68174620D01*
X162555265Y-68174623D01*
X162614883Y-68384159D01*
X162614884Y-68384162D01*
X162711988Y-68579172D01*
X162843273Y-68753022D01*
X163004268Y-68899788D01*
X163004275Y-68899792D01*
X163004276Y-68899793D01*
X163189486Y-69014470D01*
X163189492Y-69014473D01*
X163212364Y-69023333D01*
X163392631Y-69093170D01*
X163606774Y-69133200D01*
X163606776Y-69133200D01*
X163824624Y-69133200D01*
X163824626Y-69133200D01*
X164038769Y-69093170D01*
X164241910Y-69014472D01*
X164427132Y-68899788D01*
X164588127Y-68753022D01*
X164622524Y-68707473D01*
X164678633Y-68665837D01*
X164721478Y-68658200D01*
X168110277Y-68658200D01*
X168177316Y-68677885D01*
X168211852Y-68711077D01*
X168271904Y-68796841D01*
X168432808Y-68957745D01*
X168432811Y-68957747D01*
X168619216Y-69088268D01*
X168825454Y-69184439D01*
X169045258Y-69243335D01*
X169207180Y-69257501D01*
X169271948Y-69263168D01*
X169271950Y-69263168D01*
X169271952Y-69263168D01*
X169328623Y-69258209D01*
X169498642Y-69243335D01*
X169718446Y-69184439D01*
X169924684Y-69088268D01*
X170111089Y-68957747D01*
X170271997Y-68796839D01*
X170402518Y-68610434D01*
X170498689Y-68404196D01*
X170557585Y-68184392D01*
X170577418Y-67957700D01*
X170557585Y-67731008D01*
X170498689Y-67511204D01*
X170402518Y-67304966D01*
X170271997Y-67118561D01*
X170271995Y-67118558D01*
X170111091Y-66957654D01*
X169924684Y-66827132D01*
X169924682Y-66827131D01*
X169718447Y-66730961D01*
X169718438Y-66730958D01*
X169498647Y-66672066D01*
X169498643Y-66672065D01*
X169498642Y-66672065D01*
X169498641Y-66672064D01*
X169498636Y-66672064D01*
X169271952Y-66652232D01*
X169271948Y-66652232D01*
X169045263Y-66672064D01*
X169045252Y-66672066D01*
X168825461Y-66730958D01*
X168825452Y-66730961D01*
X168619217Y-66827131D01*
X168619215Y-66827132D01*
X168432808Y-66957654D01*
X168271904Y-67118558D01*
X168211852Y-67204323D01*
X168157275Y-67247948D01*
X168110277Y-67257200D01*
X164721478Y-67257200D01*
X164654439Y-67237515D01*
X164622524Y-67207927D01*
X164588125Y-67162376D01*
X164427133Y-67015613D01*
X164427123Y-67015606D01*
X164241913Y-66900929D01*
X164241907Y-66900926D01*
X164156813Y-66867960D01*
X164038769Y-66822230D01*
X163824626Y-66782200D01*
X163606774Y-66782200D01*
X163392631Y-66822230D01*
X163379978Y-66827132D01*
X163189492Y-66900926D01*
X163189486Y-66900929D01*
X163004276Y-67015606D01*
X163004266Y-67015613D01*
X162843274Y-67162376D01*
X162711988Y-67336227D01*
X162614884Y-67531237D01*
X162555264Y-67740781D01*
X162535164Y-67957699D01*
X162535164Y-67957700D01*
X159416200Y-67957700D01*
X159416200Y-66864504D01*
X159435885Y-66797465D01*
X159456654Y-66772874D01*
X159588127Y-66653022D01*
X159719412Y-66479172D01*
X159816517Y-66284159D01*
X159876135Y-66074623D01*
X159896236Y-65857700D01*
X159876135Y-65640777D01*
X159816517Y-65431241D01*
X159719412Y-65236228D01*
X159588127Y-65062378D01*
X159427132Y-64915612D01*
X159427128Y-64915609D01*
X159427123Y-64915606D01*
X159241913Y-64800929D01*
X159241907Y-64800926D01*
X159156813Y-64767960D01*
X159038769Y-64722230D01*
X158824626Y-64682200D01*
X158606774Y-64682200D01*
X158392631Y-64722230D01*
X158364436Y-64733153D01*
X158189492Y-64800926D01*
X158189486Y-64800929D01*
X158004276Y-64915606D01*
X158004266Y-64915613D01*
X157843274Y-65062376D01*
X157711988Y-65236227D01*
X157614884Y-65431237D01*
X157555264Y-65640781D01*
X157535164Y-65857699D01*
X157535164Y-65857700D01*
X157555264Y-66074618D01*
X157614884Y-66284162D01*
X157651686Y-66358070D01*
X157711988Y-66479172D01*
X157843273Y-66653022D01*
X157974740Y-66772870D01*
X158011019Y-66832577D01*
X158015200Y-66864504D01*
X158015200Y-81519644D01*
X157995515Y-81586683D01*
X157974738Y-81611281D01*
X157843274Y-81731125D01*
X157711988Y-81904977D01*
X157614884Y-82099987D01*
X157555264Y-82309531D01*
X157535164Y-82526449D01*
X157535164Y-82526450D01*
X157555264Y-82743368D01*
X157555264Y-82743370D01*
X157555265Y-82743373D01*
X157614883Y-82952909D01*
X157711988Y-83147922D01*
X157843273Y-83321772D01*
X157974740Y-83441620D01*
X158011019Y-83501327D01*
X158015200Y-83533254D01*
X158015200Y-98188394D01*
X157995515Y-98255433D01*
X157974738Y-98280031D01*
X157843274Y-98399875D01*
X157711988Y-98573727D01*
X157614884Y-98768737D01*
X157555264Y-98978281D01*
X157535164Y-99195199D01*
X157535164Y-99195200D01*
X157555264Y-99412118D01*
X157555264Y-99412120D01*
X157555265Y-99412123D01*
X157614883Y-99621659D01*
X157711988Y-99816672D01*
X157843273Y-99990522D01*
X157974740Y-100110370D01*
X158011019Y-100170077D01*
X158015200Y-100202004D01*
X158015200Y-114857144D01*
X157995515Y-114924183D01*
X157974738Y-114948781D01*
X157843274Y-115068625D01*
X157711988Y-115242477D01*
X157614884Y-115437487D01*
X157555264Y-115647031D01*
X157535164Y-115863949D01*
X157535164Y-115863950D01*
X143227486Y-115863950D01*
X143207385Y-115647027D01*
X143147767Y-115437491D01*
X143050662Y-115242478D01*
X142919377Y-115068628D01*
X142919375Y-115068625D01*
X142787912Y-114948781D01*
X142751630Y-114889070D01*
X142747450Y-114857144D01*
X142747450Y-112063950D01*
X144291423Y-112063950D01*
X144311513Y-112396086D01*
X144311513Y-112396091D01*
X144311514Y-112396092D01*
X144371494Y-112723391D01*
X144371495Y-112723395D01*
X144371496Y-112723399D01*
X144470480Y-113041054D01*
X144470484Y-113041066D01*
X144470487Y-113041073D01*
X144607052Y-113344507D01*
X144657196Y-113427455D01*
X144779201Y-113629276D01*
X144984410Y-113891205D01*
X145219694Y-114126489D01*
X145481623Y-114331698D01*
X145481628Y-114331701D01*
X145481632Y-114331704D01*
X145766393Y-114503848D01*
X146069827Y-114640413D01*
X146069840Y-114640417D01*
X146069845Y-114640419D01*
X146281615Y-114706408D01*
X146387509Y-114739406D01*
X146714808Y-114799386D01*
X146963844Y-114814450D01*
X146963857Y-114814450D01*
X147130043Y-114814450D01*
X147130056Y-114814450D01*
X147379092Y-114799386D01*
X147706391Y-114739406D01*
X148024073Y-114640413D01*
X148327507Y-114503848D01*
X148612268Y-114331704D01*
X148874202Y-114126492D01*
X149109492Y-113891202D01*
X149314704Y-113629268D01*
X149486848Y-113344507D01*
X149623413Y-113041073D01*
X149722406Y-112723391D01*
X149782386Y-112396092D01*
X149802477Y-112063950D01*
X149782386Y-111731808D01*
X149722406Y-111404509D01*
X149656130Y-111191820D01*
X151302700Y-111191820D01*
X151302701Y-111191826D01*
X151309108Y-111251433D01*
X151359402Y-111386278D01*
X151359406Y-111386285D01*
X151445652Y-111501494D01*
X151445655Y-111501497D01*
X151560864Y-111587743D01*
X151560871Y-111587747D01*
X151695717Y-111638041D01*
X151695716Y-111638041D01*
X151702644Y-111638785D01*
X151755327Y-111644450D01*
X153451072Y-111644449D01*
X153510683Y-111638041D01*
X153645531Y-111587746D01*
X153760746Y-111501496D01*
X153846996Y-111386281D01*
X153897291Y-111251433D01*
X153903700Y-111191823D01*
X153903699Y-109496078D01*
X153897291Y-109436467D01*
X153879398Y-109388494D01*
X153846997Y-109301621D01*
X153846993Y-109301614D01*
X153760747Y-109186405D01*
X153760744Y-109186402D01*
X153645535Y-109100156D01*
X153645528Y-109100152D01*
X153510682Y-109049858D01*
X153510683Y-109049858D01*
X153451083Y-109043451D01*
X153451081Y-109043450D01*
X153451073Y-109043450D01*
X153451064Y-109043450D01*
X151755329Y-109043450D01*
X151755323Y-109043451D01*
X151695716Y-109049858D01*
X151560871Y-109100152D01*
X151560864Y-109100156D01*
X151445655Y-109186402D01*
X151445652Y-109186405D01*
X151359406Y-109301614D01*
X151359402Y-109301621D01*
X151309108Y-109436467D01*
X151302701Y-109496066D01*
X151302701Y-109496073D01*
X151302700Y-109496085D01*
X151302700Y-111191820D01*
X149656130Y-111191820D01*
X149623413Y-111086827D01*
X149486848Y-110783393D01*
X149314704Y-110498632D01*
X149314701Y-110498628D01*
X149314698Y-110498623D01*
X149109489Y-110236694D01*
X148874205Y-110001410D01*
X148612276Y-109796201D01*
X148612268Y-109796196D01*
X148327507Y-109624052D01*
X148024073Y-109487487D01*
X148024066Y-109487484D01*
X148024054Y-109487480D01*
X147706399Y-109388496D01*
X147706395Y-109388495D01*
X147706391Y-109388494D01*
X147379092Y-109328514D01*
X147379091Y-109328513D01*
X147379086Y-109328513D01*
X147130064Y-109313450D01*
X147130056Y-109313450D01*
X146963844Y-109313450D01*
X146963835Y-109313450D01*
X146714813Y-109328513D01*
X146714808Y-109328514D01*
X146387509Y-109388494D01*
X146387506Y-109388494D01*
X146387500Y-109388496D01*
X146069845Y-109487480D01*
X146069829Y-109487486D01*
X146069827Y-109487487D01*
X145876606Y-109574448D01*
X145766397Y-109624050D01*
X145766395Y-109624051D01*
X145481623Y-109796201D01*
X145219694Y-110001410D01*
X144984410Y-110236694D01*
X144779201Y-110498623D01*
X144779196Y-110498632D01*
X144618417Y-110764594D01*
X144607051Y-110783395D01*
X144607050Y-110783397D01*
X144470486Y-111086830D01*
X144470480Y-111086845D01*
X144371496Y-111404500D01*
X144371494Y-111404506D01*
X144371494Y-111404509D01*
X144337914Y-111587747D01*
X144311513Y-111731813D01*
X144291423Y-112063950D01*
X142747450Y-112063950D01*
X142747450Y-106913951D01*
X150716387Y-106913951D01*
X150736600Y-107144994D01*
X150736601Y-107145001D01*
X150796628Y-107369024D01*
X150796629Y-107369026D01*
X150796630Y-107369029D01*
X150894649Y-107579232D01*
X151027680Y-107769219D01*
X151191681Y-107933220D01*
X151381668Y-108066251D01*
X151591871Y-108164270D01*
X151815900Y-108224299D01*
X151980935Y-108238737D01*
X152046948Y-108244513D01*
X152046950Y-108244513D01*
X152046952Y-108244513D01*
X152104712Y-108239459D01*
X152278000Y-108224299D01*
X152502029Y-108164270D01*
X152712232Y-108066251D01*
X152902219Y-107933220D01*
X153066220Y-107769219D01*
X153199251Y-107579232D01*
X153297270Y-107369029D01*
X153357299Y-107145000D01*
X153377513Y-106913950D01*
X153357299Y-106682900D01*
X153297270Y-106458871D01*
X153199251Y-106248669D01*
X153199249Y-106248666D01*
X153199248Y-106248664D01*
X153066223Y-106058685D01*
X153066218Y-106058679D01*
X152902219Y-105894680D01*
X152902213Y-105894676D01*
X152712232Y-105761649D01*
X152502029Y-105663630D01*
X152502026Y-105663629D01*
X152502024Y-105663628D01*
X152278001Y-105603601D01*
X152277994Y-105603600D01*
X152046952Y-105583387D01*
X152046948Y-105583387D01*
X151815905Y-105603600D01*
X151815898Y-105603601D01*
X151591867Y-105663631D01*
X151381668Y-105761649D01*
X151381664Y-105761651D01*
X151191685Y-105894676D01*
X151191679Y-105894681D01*
X151027681Y-106058679D01*
X151027676Y-106058685D01*
X150894651Y-106248664D01*
X150894649Y-106248668D01*
X150796631Y-106458867D01*
X150736601Y-106682898D01*
X150736600Y-106682905D01*
X150716387Y-106913948D01*
X150716387Y-106913951D01*
X142747450Y-106913951D01*
X142747450Y-101295200D01*
X145866414Y-101295200D01*
X145886514Y-101512118D01*
X145946134Y-101721662D01*
X146043238Y-101916672D01*
X146174523Y-102090522D01*
X146335518Y-102237288D01*
X146335525Y-102237292D01*
X146335526Y-102237293D01*
X146520736Y-102351970D01*
X146520742Y-102351973D01*
X146543614Y-102360833D01*
X146723881Y-102430670D01*
X146938024Y-102470700D01*
X146938026Y-102470700D01*
X147155874Y-102470700D01*
X147155876Y-102470700D01*
X147370019Y-102430670D01*
X147573160Y-102351972D01*
X147758382Y-102237288D01*
X147919377Y-102090522D01*
X147953774Y-102044973D01*
X148009883Y-102003337D01*
X148052728Y-101995700D01*
X151441527Y-101995700D01*
X151508566Y-102015385D01*
X151543102Y-102048577D01*
X151603154Y-102134341D01*
X151764058Y-102295245D01*
X151764061Y-102295247D01*
X151950466Y-102425768D01*
X152156704Y-102521939D01*
X152376508Y-102580835D01*
X152538430Y-102595001D01*
X152603198Y-102600668D01*
X152603200Y-102600668D01*
X152603202Y-102600668D01*
X152659873Y-102595709D01*
X152829892Y-102580835D01*
X153049696Y-102521939D01*
X153255934Y-102425768D01*
X153442339Y-102295247D01*
X153603247Y-102134339D01*
X153733768Y-101947934D01*
X153829939Y-101741696D01*
X153888835Y-101521892D01*
X153908668Y-101295200D01*
X153888835Y-101068508D01*
X153829939Y-100848704D01*
X153733768Y-100642466D01*
X153603247Y-100456061D01*
X153603245Y-100456058D01*
X153442341Y-100295154D01*
X153255934Y-100164632D01*
X153255932Y-100164631D01*
X153049697Y-100068461D01*
X153049688Y-100068458D01*
X152829897Y-100009566D01*
X152829893Y-100009565D01*
X152829892Y-100009565D01*
X152829891Y-100009564D01*
X152829886Y-100009564D01*
X152603202Y-99989732D01*
X152603198Y-99989732D01*
X152376513Y-100009564D01*
X152376502Y-100009566D01*
X152156711Y-100068458D01*
X152156702Y-100068461D01*
X151950467Y-100164631D01*
X151950465Y-100164632D01*
X151764058Y-100295154D01*
X151603154Y-100456058D01*
X151543102Y-100541823D01*
X151488525Y-100585448D01*
X151441527Y-100594700D01*
X148052728Y-100594700D01*
X147985689Y-100575015D01*
X147953774Y-100545427D01*
X147919375Y-100499876D01*
X147758383Y-100353113D01*
X147758373Y-100353106D01*
X147573163Y-100238429D01*
X147573157Y-100238426D01*
X147488063Y-100205460D01*
X147370019Y-100159730D01*
X147155876Y-100119700D01*
X146938024Y-100119700D01*
X146723881Y-100159730D01*
X146711228Y-100164632D01*
X146520742Y-100238426D01*
X146520736Y-100238429D01*
X146335526Y-100353106D01*
X146335516Y-100353113D01*
X146174524Y-100499876D01*
X146043238Y-100673727D01*
X145946134Y-100868737D01*
X145886514Y-101078281D01*
X145866414Y-101295199D01*
X145866414Y-101295200D01*
X142747450Y-101295200D01*
X142747450Y-100202004D01*
X142767135Y-100134965D01*
X142787904Y-100110374D01*
X142919377Y-99990522D01*
X143050662Y-99816672D01*
X143147767Y-99621659D01*
X143207385Y-99412123D01*
X143227486Y-99195200D01*
X143207385Y-98978277D01*
X143147767Y-98768741D01*
X143050662Y-98573728D01*
X142919377Y-98399878D01*
X142919375Y-98399875D01*
X142787912Y-98280031D01*
X142751630Y-98220320D01*
X142747450Y-98188394D01*
X142747450Y-95395200D01*
X144291423Y-95395200D01*
X144311513Y-95727336D01*
X144311513Y-95727341D01*
X144311514Y-95727342D01*
X144371494Y-96054641D01*
X144371495Y-96054645D01*
X144371496Y-96054649D01*
X144470480Y-96372304D01*
X144470484Y-96372316D01*
X144470487Y-96372323D01*
X144607052Y-96675757D01*
X144725303Y-96871368D01*
X144779201Y-96960526D01*
X144984410Y-97222455D01*
X145219694Y-97457739D01*
X145481623Y-97662948D01*
X145481628Y-97662951D01*
X145481632Y-97662954D01*
X145766393Y-97835098D01*
X146069827Y-97971663D01*
X146069840Y-97971667D01*
X146069845Y-97971669D01*
X146281615Y-98037658D01*
X146387509Y-98070656D01*
X146714808Y-98130636D01*
X146963844Y-98145700D01*
X146963857Y-98145700D01*
X147130043Y-98145700D01*
X147130056Y-98145700D01*
X147379092Y-98130636D01*
X147706391Y-98070656D01*
X148024073Y-97971663D01*
X148327507Y-97835098D01*
X148612268Y-97662954D01*
X148874202Y-97457742D01*
X149109492Y-97222452D01*
X149314704Y-96960518D01*
X149486848Y-96675757D01*
X149623413Y-96372323D01*
X149632740Y-96342393D01*
X149705600Y-96108573D01*
X149722406Y-96054641D01*
X149782386Y-95727342D01*
X149802477Y-95395200D01*
X149782386Y-95063058D01*
X149722406Y-94735759D01*
X149656130Y-94523070D01*
X151302700Y-94523070D01*
X151302701Y-94523076D01*
X151309108Y-94582683D01*
X151359402Y-94717528D01*
X151359406Y-94717535D01*
X151445652Y-94832744D01*
X151445655Y-94832747D01*
X151560864Y-94918993D01*
X151560871Y-94918997D01*
X151695717Y-94969291D01*
X151695716Y-94969291D01*
X151702644Y-94970035D01*
X151755327Y-94975700D01*
X153451072Y-94975699D01*
X153510683Y-94969291D01*
X153645531Y-94918996D01*
X153760746Y-94832746D01*
X153846996Y-94717531D01*
X153897291Y-94582683D01*
X153903700Y-94523073D01*
X153903699Y-92827328D01*
X153897291Y-92767717D01*
X153879398Y-92719744D01*
X153846997Y-92632871D01*
X153846993Y-92632864D01*
X153760747Y-92517655D01*
X153760744Y-92517652D01*
X153645535Y-92431406D01*
X153645528Y-92431402D01*
X153510682Y-92381108D01*
X153510683Y-92381108D01*
X153451083Y-92374701D01*
X153451081Y-92374700D01*
X153451073Y-92374700D01*
X153451064Y-92374700D01*
X151755329Y-92374700D01*
X151755323Y-92374701D01*
X151695716Y-92381108D01*
X151560871Y-92431402D01*
X151560864Y-92431406D01*
X151445655Y-92517652D01*
X151445652Y-92517655D01*
X151359406Y-92632864D01*
X151359402Y-92632871D01*
X151309108Y-92767717D01*
X151302701Y-92827316D01*
X151302701Y-92827323D01*
X151302700Y-92827335D01*
X151302700Y-94523070D01*
X149656130Y-94523070D01*
X149623413Y-94418077D01*
X149486848Y-94114643D01*
X149314704Y-93829882D01*
X149314701Y-93829878D01*
X149314698Y-93829873D01*
X149109489Y-93567944D01*
X148874205Y-93332660D01*
X148612276Y-93127451D01*
X148612268Y-93127446D01*
X148327507Y-92955302D01*
X148024073Y-92818737D01*
X148024066Y-92818734D01*
X148024054Y-92818730D01*
X147706399Y-92719746D01*
X147706395Y-92719745D01*
X147706391Y-92719744D01*
X147379092Y-92659764D01*
X147379091Y-92659763D01*
X147379086Y-92659763D01*
X147130064Y-92644700D01*
X147130056Y-92644700D01*
X146963844Y-92644700D01*
X146963835Y-92644700D01*
X146714813Y-92659763D01*
X146714808Y-92659764D01*
X146387509Y-92719744D01*
X146387506Y-92719744D01*
X146387500Y-92719746D01*
X146069845Y-92818730D01*
X146069829Y-92818736D01*
X146069827Y-92818737D01*
X145876606Y-92905698D01*
X145766397Y-92955300D01*
X145766395Y-92955301D01*
X145481623Y-93127451D01*
X145219694Y-93332660D01*
X144984410Y-93567944D01*
X144779201Y-93829873D01*
X144663443Y-94021361D01*
X144618417Y-94095844D01*
X144607051Y-94114645D01*
X144607050Y-94114647D01*
X144470486Y-94418080D01*
X144470480Y-94418095D01*
X144371496Y-94735750D01*
X144371494Y-94735756D01*
X144371494Y-94735759D01*
X144337914Y-94918997D01*
X144311513Y-95063063D01*
X144291423Y-95395200D01*
X142747450Y-95395200D01*
X142747450Y-90245201D01*
X150716387Y-90245201D01*
X150736600Y-90476244D01*
X150736601Y-90476251D01*
X150796628Y-90700274D01*
X150796629Y-90700276D01*
X150796630Y-90700279D01*
X150894649Y-90910482D01*
X151027680Y-91100469D01*
X151191681Y-91264470D01*
X151381668Y-91397501D01*
X151591871Y-91495520D01*
X151815900Y-91555549D01*
X151980935Y-91569987D01*
X152046948Y-91575763D01*
X152046950Y-91575763D01*
X152046952Y-91575763D01*
X152104712Y-91570709D01*
X152278000Y-91555549D01*
X152502029Y-91495520D01*
X152712232Y-91397501D01*
X152902219Y-91264470D01*
X153066220Y-91100469D01*
X153199251Y-90910482D01*
X153297270Y-90700279D01*
X153357299Y-90476250D01*
X153377513Y-90245200D01*
X153357299Y-90014150D01*
X153297270Y-89790121D01*
X153199251Y-89579919D01*
X153199249Y-89579916D01*
X153199248Y-89579914D01*
X153066223Y-89389935D01*
X153066218Y-89389929D01*
X152902219Y-89225930D01*
X152902213Y-89225926D01*
X152712232Y-89092899D01*
X152502029Y-88994880D01*
X152502026Y-88994879D01*
X152502024Y-88994878D01*
X152278001Y-88934851D01*
X152277994Y-88934850D01*
X152046952Y-88914637D01*
X152046948Y-88914637D01*
X151815905Y-88934850D01*
X151815898Y-88934851D01*
X151591867Y-88994881D01*
X151381668Y-89092899D01*
X151381664Y-89092901D01*
X151191685Y-89225926D01*
X151191679Y-89225931D01*
X151027681Y-89389929D01*
X151027676Y-89389935D01*
X150894651Y-89579914D01*
X150894649Y-89579918D01*
X150796631Y-89790117D01*
X150736601Y-90014148D01*
X150736600Y-90014155D01*
X150716387Y-90245198D01*
X150716387Y-90245201D01*
X142747450Y-90245201D01*
X142747450Y-84626450D01*
X145866414Y-84626450D01*
X145886514Y-84843368D01*
X145946134Y-85052912D01*
X146043238Y-85247922D01*
X146174523Y-85421772D01*
X146335518Y-85568538D01*
X146335525Y-85568542D01*
X146335526Y-85568543D01*
X146520736Y-85683220D01*
X146520742Y-85683223D01*
X146543614Y-85692083D01*
X146723881Y-85761920D01*
X146938024Y-85801950D01*
X146938026Y-85801950D01*
X147155874Y-85801950D01*
X147155876Y-85801950D01*
X147370019Y-85761920D01*
X147573160Y-85683222D01*
X147758382Y-85568538D01*
X147919377Y-85421772D01*
X147953774Y-85376223D01*
X148009883Y-85334587D01*
X148052728Y-85326950D01*
X151441527Y-85326950D01*
X151508566Y-85346635D01*
X151543102Y-85379827D01*
X151603154Y-85465591D01*
X151764058Y-85626495D01*
X151764061Y-85626497D01*
X151950466Y-85757018D01*
X152156704Y-85853189D01*
X152376508Y-85912085D01*
X152538430Y-85926251D01*
X152603198Y-85931918D01*
X152603200Y-85931918D01*
X152603202Y-85931918D01*
X152659873Y-85926959D01*
X152829892Y-85912085D01*
X153049696Y-85853189D01*
X153255934Y-85757018D01*
X153442339Y-85626497D01*
X153603247Y-85465589D01*
X153733768Y-85279184D01*
X153829939Y-85072946D01*
X153888835Y-84853142D01*
X153908668Y-84626450D01*
X153888835Y-84399758D01*
X153829939Y-84179954D01*
X153733768Y-83973716D01*
X153603247Y-83787311D01*
X153603245Y-83787308D01*
X153442341Y-83626404D01*
X153255934Y-83495882D01*
X153255932Y-83495881D01*
X153049697Y-83399711D01*
X153049688Y-83399708D01*
X152829897Y-83340816D01*
X152829893Y-83340815D01*
X152829892Y-83340815D01*
X152829891Y-83340814D01*
X152829886Y-83340814D01*
X152603202Y-83320982D01*
X152603198Y-83320982D01*
X152376513Y-83340814D01*
X152376502Y-83340816D01*
X152156711Y-83399708D01*
X152156702Y-83399711D01*
X151950467Y-83495881D01*
X151950465Y-83495882D01*
X151764058Y-83626404D01*
X151603154Y-83787308D01*
X151543102Y-83873073D01*
X151488525Y-83916698D01*
X151441527Y-83925950D01*
X148052728Y-83925950D01*
X147985689Y-83906265D01*
X147953774Y-83876677D01*
X147919375Y-83831126D01*
X147758383Y-83684363D01*
X147758373Y-83684356D01*
X147573163Y-83569679D01*
X147573157Y-83569676D01*
X147488063Y-83536710D01*
X147370019Y-83490980D01*
X147155876Y-83450950D01*
X146938024Y-83450950D01*
X146723881Y-83490980D01*
X146711228Y-83495882D01*
X146520742Y-83569676D01*
X146520736Y-83569679D01*
X146335526Y-83684356D01*
X146335516Y-83684363D01*
X146174524Y-83831126D01*
X146043238Y-84004977D01*
X145946134Y-84199987D01*
X145886514Y-84409531D01*
X145866414Y-84626449D01*
X145866414Y-84626450D01*
X142747450Y-84626450D01*
X142747450Y-83533254D01*
X142767135Y-83466215D01*
X142787904Y-83441624D01*
X142919377Y-83321772D01*
X143050662Y-83147922D01*
X143147767Y-82952909D01*
X143207385Y-82743373D01*
X143227486Y-82526450D01*
X143207385Y-82309527D01*
X143147767Y-82099991D01*
X143050662Y-81904978D01*
X142919377Y-81731128D01*
X142919375Y-81731125D01*
X142787912Y-81611281D01*
X142751630Y-81551570D01*
X142747450Y-81519644D01*
X142747450Y-78726450D01*
X144291423Y-78726450D01*
X144311513Y-79058586D01*
X144311513Y-79058591D01*
X144311514Y-79058592D01*
X144371494Y-79385891D01*
X144371495Y-79385895D01*
X144371496Y-79385899D01*
X144470480Y-79703554D01*
X144470484Y-79703566D01*
X144470487Y-79703573D01*
X144607052Y-80007007D01*
X144725303Y-80202618D01*
X144779201Y-80291776D01*
X144984410Y-80553705D01*
X145219694Y-80788989D01*
X145481623Y-80994198D01*
X145481628Y-80994201D01*
X145481632Y-80994204D01*
X145766393Y-81166348D01*
X146069827Y-81302913D01*
X146069840Y-81302917D01*
X146069845Y-81302919D01*
X146281615Y-81368908D01*
X146387509Y-81401906D01*
X146714808Y-81461886D01*
X146963844Y-81476950D01*
X146963857Y-81476950D01*
X147130043Y-81476950D01*
X147130056Y-81476950D01*
X147379092Y-81461886D01*
X147706391Y-81401906D01*
X148024073Y-81302913D01*
X148327507Y-81166348D01*
X148612268Y-80994204D01*
X148874202Y-80788992D01*
X149109492Y-80553702D01*
X149314704Y-80291768D01*
X149486848Y-80007007D01*
X149623413Y-79703573D01*
X149632740Y-79673643D01*
X149705600Y-79439823D01*
X149722406Y-79385891D01*
X149782386Y-79058592D01*
X149802477Y-78726450D01*
X149782386Y-78394308D01*
X149722406Y-78067009D01*
X149656130Y-77854320D01*
X151302700Y-77854320D01*
X151302701Y-77854326D01*
X151309108Y-77913933D01*
X151359402Y-78048778D01*
X151359406Y-78048785D01*
X151445652Y-78163994D01*
X151445655Y-78163997D01*
X151560864Y-78250243D01*
X151560871Y-78250247D01*
X151695717Y-78300541D01*
X151695716Y-78300541D01*
X151702644Y-78301285D01*
X151755327Y-78306950D01*
X153451072Y-78306949D01*
X153510683Y-78300541D01*
X153645531Y-78250246D01*
X153760746Y-78163996D01*
X153846996Y-78048781D01*
X153897291Y-77913933D01*
X153903700Y-77854323D01*
X153903699Y-76158578D01*
X153897291Y-76098967D01*
X153879398Y-76050994D01*
X153846997Y-75964121D01*
X153846993Y-75964114D01*
X153760747Y-75848905D01*
X153760744Y-75848902D01*
X153645535Y-75762656D01*
X153645528Y-75762652D01*
X153510682Y-75712358D01*
X153510683Y-75712358D01*
X153451083Y-75705951D01*
X153451081Y-75705950D01*
X153451073Y-75705950D01*
X153451064Y-75705950D01*
X151755329Y-75705950D01*
X151755323Y-75705951D01*
X151695716Y-75712358D01*
X151560871Y-75762652D01*
X151560864Y-75762656D01*
X151445655Y-75848902D01*
X151445652Y-75848905D01*
X151359406Y-75964114D01*
X151359402Y-75964121D01*
X151309108Y-76098967D01*
X151302701Y-76158566D01*
X151302701Y-76158573D01*
X151302700Y-76158585D01*
X151302700Y-77854320D01*
X149656130Y-77854320D01*
X149623413Y-77749327D01*
X149486848Y-77445893D01*
X149314704Y-77161132D01*
X149314701Y-77161128D01*
X149314698Y-77161123D01*
X149109489Y-76899194D01*
X148874205Y-76663910D01*
X148612276Y-76458701D01*
X148612268Y-76458696D01*
X148327507Y-76286552D01*
X148024073Y-76149987D01*
X148024066Y-76149984D01*
X148024054Y-76149980D01*
X147706399Y-76050996D01*
X147706395Y-76050995D01*
X147706391Y-76050994D01*
X147379092Y-75991014D01*
X147379091Y-75991013D01*
X147379086Y-75991013D01*
X147130064Y-75975950D01*
X147130056Y-75975950D01*
X146963844Y-75975950D01*
X146963835Y-75975950D01*
X146714813Y-75991013D01*
X146714808Y-75991014D01*
X146387509Y-76050994D01*
X146387506Y-76050994D01*
X146387500Y-76050996D01*
X146069845Y-76149980D01*
X146069829Y-76149986D01*
X146069827Y-76149987D01*
X145876606Y-76236948D01*
X145766397Y-76286550D01*
X145766395Y-76286551D01*
X145481623Y-76458701D01*
X145219694Y-76663910D01*
X144984410Y-76899194D01*
X144779201Y-77161123D01*
X144663443Y-77352611D01*
X144618417Y-77427094D01*
X144607051Y-77445895D01*
X144607050Y-77445897D01*
X144470486Y-77749330D01*
X144470480Y-77749345D01*
X144371496Y-78067000D01*
X144371494Y-78067006D01*
X144371494Y-78067009D01*
X144337914Y-78250247D01*
X144311513Y-78394313D01*
X144291423Y-78726450D01*
X142747450Y-78726450D01*
X142747450Y-73576451D01*
X150716387Y-73576451D01*
X150736600Y-73807494D01*
X150736601Y-73807501D01*
X150796628Y-74031524D01*
X150796629Y-74031526D01*
X150796630Y-74031529D01*
X150894649Y-74241732D01*
X151027680Y-74431719D01*
X151191681Y-74595720D01*
X151381668Y-74728751D01*
X151591871Y-74826770D01*
X151815900Y-74886799D01*
X151980935Y-74901237D01*
X152046948Y-74907013D01*
X152046950Y-74907013D01*
X152046952Y-74907013D01*
X152104712Y-74901959D01*
X152278000Y-74886799D01*
X152502029Y-74826770D01*
X152712232Y-74728751D01*
X152902219Y-74595720D01*
X153066220Y-74431719D01*
X153199251Y-74241732D01*
X153297270Y-74031529D01*
X153357299Y-73807500D01*
X153377513Y-73576450D01*
X153357299Y-73345400D01*
X153297270Y-73121371D01*
X153199251Y-72911169D01*
X153199249Y-72911166D01*
X153199248Y-72911164D01*
X153066223Y-72721185D01*
X153066218Y-72721179D01*
X152902219Y-72557180D01*
X152902213Y-72557176D01*
X152712232Y-72424149D01*
X152502029Y-72326130D01*
X152502026Y-72326129D01*
X152502024Y-72326128D01*
X152278001Y-72266101D01*
X152277994Y-72266100D01*
X152046952Y-72245887D01*
X152046948Y-72245887D01*
X151815905Y-72266100D01*
X151815898Y-72266101D01*
X151591867Y-72326131D01*
X151381668Y-72424149D01*
X151381664Y-72424151D01*
X151191685Y-72557176D01*
X151191679Y-72557181D01*
X151027681Y-72721179D01*
X151027676Y-72721185D01*
X150894651Y-72911164D01*
X150894649Y-72911168D01*
X150796631Y-73121367D01*
X150736601Y-73345398D01*
X150736600Y-73345405D01*
X150716387Y-73576448D01*
X150716387Y-73576451D01*
X142747450Y-73576451D01*
X142747450Y-67957700D01*
X145866414Y-67957700D01*
X145886514Y-68174618D01*
X145886514Y-68174620D01*
X145886515Y-68174623D01*
X145946133Y-68384159D01*
X145946134Y-68384162D01*
X146043238Y-68579172D01*
X146174523Y-68753022D01*
X146335518Y-68899788D01*
X146335525Y-68899792D01*
X146335526Y-68899793D01*
X146520736Y-69014470D01*
X146520742Y-69014473D01*
X146543614Y-69023333D01*
X146723881Y-69093170D01*
X146938024Y-69133200D01*
X146938026Y-69133200D01*
X147155874Y-69133200D01*
X147155876Y-69133200D01*
X147370019Y-69093170D01*
X147573160Y-69014472D01*
X147758382Y-68899788D01*
X147919377Y-68753022D01*
X147953774Y-68707473D01*
X148009883Y-68665837D01*
X148052728Y-68658200D01*
X151441527Y-68658200D01*
X151508566Y-68677885D01*
X151543102Y-68711077D01*
X151603154Y-68796841D01*
X151764058Y-68957745D01*
X151764061Y-68957747D01*
X151950466Y-69088268D01*
X152156704Y-69184439D01*
X152376508Y-69243335D01*
X152538430Y-69257501D01*
X152603198Y-69263168D01*
X152603200Y-69263168D01*
X152603202Y-69263168D01*
X152659873Y-69258209D01*
X152829892Y-69243335D01*
X153049696Y-69184439D01*
X153255934Y-69088268D01*
X153442339Y-68957747D01*
X153603247Y-68796839D01*
X153733768Y-68610434D01*
X153829939Y-68404196D01*
X153888835Y-68184392D01*
X153908668Y-67957700D01*
X153888835Y-67731008D01*
X153829939Y-67511204D01*
X153733768Y-67304966D01*
X153603247Y-67118561D01*
X153603245Y-67118558D01*
X153442341Y-66957654D01*
X153255934Y-66827132D01*
X153255932Y-66827131D01*
X153049697Y-66730961D01*
X153049688Y-66730958D01*
X152829897Y-66672066D01*
X152829893Y-66672065D01*
X152829892Y-66672065D01*
X152829891Y-66672064D01*
X152829886Y-66672064D01*
X152603202Y-66652232D01*
X152603198Y-66652232D01*
X152376513Y-66672064D01*
X152376502Y-66672066D01*
X152156711Y-66730958D01*
X152156702Y-66730961D01*
X151950467Y-66827131D01*
X151950465Y-66827132D01*
X151764058Y-66957654D01*
X151603154Y-67118558D01*
X151543102Y-67204323D01*
X151488525Y-67247948D01*
X151441527Y-67257200D01*
X148052728Y-67257200D01*
X147985689Y-67237515D01*
X147953774Y-67207927D01*
X147919375Y-67162376D01*
X147758383Y-67015613D01*
X147758373Y-67015606D01*
X147573163Y-66900929D01*
X147573157Y-66900926D01*
X147488063Y-66867960D01*
X147370019Y-66822230D01*
X147155876Y-66782200D01*
X146938024Y-66782200D01*
X146723881Y-66822230D01*
X146711228Y-66827132D01*
X146520742Y-66900926D01*
X146520736Y-66900929D01*
X146335526Y-67015606D01*
X146335516Y-67015613D01*
X146174524Y-67162376D01*
X146043238Y-67336227D01*
X145946134Y-67531237D01*
X145886514Y-67740781D01*
X145866414Y-67957699D01*
X145866414Y-67957700D01*
X142747450Y-67957700D01*
X142747450Y-66864504D01*
X142767135Y-66797465D01*
X142787904Y-66772874D01*
X142919377Y-66653022D01*
X143050662Y-66479172D01*
X143147767Y-66284159D01*
X143207385Y-66074623D01*
X143227486Y-65857700D01*
X143207385Y-65640777D01*
X143147767Y-65431241D01*
X143050662Y-65236228D01*
X142919377Y-65062378D01*
X142758382Y-64915612D01*
X142758378Y-64915609D01*
X142758373Y-64915606D01*
X142573163Y-64800929D01*
X142573157Y-64800926D01*
X142488063Y-64767960D01*
X142370019Y-64722230D01*
X142155876Y-64682200D01*
X141938024Y-64682200D01*
X141723881Y-64722230D01*
X141695686Y-64733153D01*
X141520742Y-64800926D01*
X141520736Y-64800929D01*
X141335526Y-64915606D01*
X141335516Y-64915613D01*
X141174524Y-65062376D01*
X141043238Y-65236227D01*
X140946134Y-65431237D01*
X140886514Y-65640781D01*
X140866414Y-65857699D01*
X140866414Y-65857700D01*
X140886514Y-66074618D01*
X140946134Y-66284162D01*
X140982936Y-66358070D01*
X141043238Y-66479172D01*
X141174523Y-66653022D01*
X141305990Y-66772870D01*
X141342269Y-66832577D01*
X141346450Y-66864504D01*
X141346450Y-81519644D01*
X141326765Y-81586683D01*
X141305988Y-81611281D01*
X141174524Y-81731125D01*
X141043238Y-81904977D01*
X140946134Y-82099987D01*
X140886514Y-82309531D01*
X140866414Y-82526449D01*
X140866414Y-82526450D01*
X140886514Y-82743368D01*
X140886514Y-82743370D01*
X140886515Y-82743373D01*
X140946133Y-82952909D01*
X141043238Y-83147922D01*
X141174523Y-83321772D01*
X141305990Y-83441620D01*
X141342269Y-83501327D01*
X141346450Y-83533254D01*
X141346450Y-98188394D01*
X141326765Y-98255433D01*
X141305988Y-98280031D01*
X141174524Y-98399875D01*
X141043238Y-98573727D01*
X140946134Y-98768737D01*
X140886514Y-98978281D01*
X140866414Y-99195199D01*
X140866414Y-99195200D01*
X140886514Y-99412118D01*
X140886514Y-99412120D01*
X140886515Y-99412123D01*
X140946133Y-99621659D01*
X141043238Y-99816672D01*
X141174523Y-99990522D01*
X141305990Y-100110370D01*
X141342269Y-100170077D01*
X141346450Y-100202004D01*
X141346450Y-114857144D01*
X141326765Y-114924183D01*
X141305988Y-114948781D01*
X141174524Y-115068625D01*
X141043238Y-115242477D01*
X140946134Y-115437487D01*
X140886514Y-115647031D01*
X140866414Y-115863949D01*
X140866414Y-115863950D01*
X139809950Y-115863950D01*
X139809950Y-80206370D01*
X139810176Y-80198882D01*
X139813808Y-80138844D01*
X139802964Y-80079669D01*
X139801837Y-80072264D01*
X139801524Y-80069691D01*
X139794590Y-80012578D01*
X139790998Y-80003106D01*
X139784972Y-79981492D01*
X139783145Y-79971518D01*
X139758456Y-79916662D01*
X139755592Y-79909747D01*
X139734269Y-79853521D01*
X139732173Y-79850485D01*
X139728513Y-79845183D01*
X139717486Y-79825632D01*
X139713329Y-79816396D01*
X139713328Y-79816393D01*
X139676235Y-79769047D01*
X139671805Y-79763027D01*
X139637633Y-79713521D01*
X139592603Y-79673628D01*
X139587165Y-79668508D01*
X137271268Y-77352611D01*
X137237783Y-77291288D01*
X137234949Y-77264930D01*
X137234949Y-76158579D01*
X137234948Y-76158573D01*
X137234947Y-76158566D01*
X137228541Y-76098967D01*
X137210648Y-76050994D01*
X137178247Y-75964121D01*
X137178243Y-75964114D01*
X137091997Y-75848905D01*
X137091994Y-75848902D01*
X136976785Y-75762656D01*
X136976778Y-75762652D01*
X136841932Y-75712358D01*
X136841933Y-75712358D01*
X136782333Y-75705951D01*
X136782331Y-75705950D01*
X136782323Y-75705950D01*
X136782314Y-75705950D01*
X135086579Y-75705950D01*
X135086573Y-75705951D01*
X135026966Y-75712358D01*
X134892121Y-75762652D01*
X134892114Y-75762656D01*
X134776905Y-75848902D01*
X134776902Y-75848905D01*
X134690656Y-75964114D01*
X134690652Y-75964121D01*
X134640358Y-76098967D01*
X134633951Y-76158566D01*
X134633951Y-76158573D01*
X134633950Y-76158585D01*
X134633950Y-77854320D01*
X132987380Y-77854320D01*
X132954663Y-77749327D01*
X132818098Y-77445893D01*
X132645954Y-77161132D01*
X132645951Y-77161128D01*
X132645948Y-77161123D01*
X132440739Y-76899194D01*
X132205455Y-76663910D01*
X131943526Y-76458701D01*
X131943518Y-76458696D01*
X131658757Y-76286552D01*
X131355323Y-76149987D01*
X131355316Y-76149984D01*
X131355304Y-76149980D01*
X131037649Y-76050996D01*
X131037645Y-76050995D01*
X131037641Y-76050994D01*
X130710342Y-75991014D01*
X130710341Y-75991013D01*
X130710336Y-75991013D01*
X130461314Y-75975950D01*
X130461306Y-75975950D01*
X130295094Y-75975950D01*
X130295085Y-75975950D01*
X130046063Y-75991013D01*
X130046058Y-75991014D01*
X129718759Y-76050994D01*
X129718756Y-76050994D01*
X129718750Y-76050996D01*
X129401095Y-76149980D01*
X129401079Y-76149986D01*
X129401077Y-76149987D01*
X129207856Y-76236948D01*
X129097647Y-76286550D01*
X129097645Y-76286551D01*
X128812873Y-76458701D01*
X128550944Y-76663910D01*
X128315660Y-76899194D01*
X128110451Y-77161123D01*
X128110446Y-77161132D01*
X127949665Y-77427095D01*
X127898139Y-77474281D01*
X127829280Y-77486120D01*
X127764951Y-77458851D01*
X127725577Y-77401132D01*
X127719550Y-77362944D01*
X127719550Y-73576451D01*
X134047637Y-73576451D01*
X134067850Y-73807494D01*
X134067851Y-73807501D01*
X134127878Y-74031524D01*
X134127879Y-74031526D01*
X134127880Y-74031529D01*
X134225899Y-74241732D01*
X134358930Y-74431719D01*
X134522931Y-74595720D01*
X134712918Y-74728751D01*
X134923121Y-74826770D01*
X135147150Y-74886799D01*
X135312185Y-74901237D01*
X135378198Y-74907013D01*
X135378200Y-74907013D01*
X135378202Y-74907013D01*
X135435962Y-74901959D01*
X135609250Y-74886799D01*
X135833279Y-74826770D01*
X136043482Y-74728751D01*
X136233469Y-74595720D01*
X136397470Y-74431719D01*
X136530501Y-74241732D01*
X136628520Y-74031529D01*
X136688549Y-73807500D01*
X136708763Y-73576450D01*
X136688549Y-73345400D01*
X136628520Y-73121371D01*
X136530501Y-72911169D01*
X136530499Y-72911166D01*
X136530498Y-72911164D01*
X136397473Y-72721185D01*
X136397468Y-72721179D01*
X136233469Y-72557180D01*
X136233463Y-72557176D01*
X136043482Y-72424149D01*
X135833279Y-72326130D01*
X135833276Y-72326129D01*
X135833274Y-72326128D01*
X135609251Y-72266101D01*
X135609244Y-72266100D01*
X135378202Y-72245887D01*
X135378198Y-72245887D01*
X135147155Y-72266100D01*
X135147148Y-72266101D01*
X134923117Y-72326131D01*
X134712918Y-72424149D01*
X134712914Y-72424151D01*
X134522935Y-72557176D01*
X134522929Y-72557181D01*
X134358931Y-72721179D01*
X134358926Y-72721185D01*
X134225901Y-72911164D01*
X134225899Y-72911168D01*
X134127881Y-73121367D01*
X134067851Y-73345398D01*
X134067850Y-73345405D01*
X134047637Y-73576448D01*
X134047637Y-73576451D01*
X127719550Y-73576451D01*
X127719550Y-68324619D01*
X127739235Y-68257580D01*
X127755869Y-68236938D01*
X129381088Y-66611719D01*
X129442411Y-66578234D01*
X129468769Y-66575400D01*
X130037383Y-66575400D01*
X130104422Y-66595085D01*
X130150177Y-66647889D01*
X130160121Y-66717047D01*
X130131096Y-66780603D01*
X130072318Y-66818377D01*
X130060183Y-66821285D01*
X130055131Y-66822230D01*
X130042478Y-66827132D01*
X129851992Y-66900926D01*
X129851986Y-66900929D01*
X129666776Y-67015606D01*
X129666766Y-67015613D01*
X129505774Y-67162376D01*
X129374488Y-67336227D01*
X129277384Y-67531237D01*
X129217764Y-67740781D01*
X129197664Y-67957699D01*
X129197664Y-67957700D01*
X129217764Y-68174618D01*
X129217764Y-68174620D01*
X129217765Y-68174623D01*
X129277383Y-68384159D01*
X129277384Y-68384162D01*
X129374488Y-68579172D01*
X129505773Y-68753022D01*
X129666768Y-68899788D01*
X129666775Y-68899792D01*
X129666776Y-68899793D01*
X129851986Y-69014470D01*
X129851992Y-69014473D01*
X129874864Y-69023333D01*
X130055131Y-69093170D01*
X130269274Y-69133200D01*
X130269276Y-69133200D01*
X130487124Y-69133200D01*
X130487126Y-69133200D01*
X130701269Y-69093170D01*
X130904410Y-69014472D01*
X131089632Y-68899788D01*
X131250627Y-68753022D01*
X131285024Y-68707473D01*
X131341133Y-68665837D01*
X131383978Y-68658200D01*
X134772777Y-68658200D01*
X134839816Y-68677885D01*
X134874352Y-68711077D01*
X134934404Y-68796841D01*
X135095308Y-68957745D01*
X135095311Y-68957747D01*
X135281716Y-69088268D01*
X135487954Y-69184439D01*
X135707758Y-69243335D01*
X135869680Y-69257501D01*
X135934448Y-69263168D01*
X135934450Y-69263168D01*
X135934452Y-69263168D01*
X135991123Y-69258209D01*
X136161142Y-69243335D01*
X136380946Y-69184439D01*
X136587184Y-69088268D01*
X136773589Y-68957747D01*
X136934497Y-68796839D01*
X137065018Y-68610434D01*
X137161189Y-68404196D01*
X137220085Y-68184392D01*
X137239918Y-67957700D01*
X137220085Y-67731008D01*
X137161189Y-67511204D01*
X137065018Y-67304966D01*
X136934497Y-67118561D01*
X136934495Y-67118558D01*
X136773591Y-66957654D01*
X136587184Y-66827132D01*
X136587182Y-66827131D01*
X136380947Y-66730961D01*
X136380938Y-66730958D01*
X136161147Y-66672066D01*
X136161143Y-66672065D01*
X136161142Y-66672065D01*
X136161141Y-66672064D01*
X136161136Y-66672064D01*
X135934452Y-66652232D01*
X135934448Y-66652232D01*
X135707763Y-66672064D01*
X135707752Y-66672066D01*
X135487961Y-66730958D01*
X135487952Y-66730961D01*
X135281717Y-66827131D01*
X135281715Y-66827132D01*
X135095308Y-66957654D01*
X134934404Y-67118558D01*
X134874352Y-67204323D01*
X134819775Y-67247948D01*
X134772777Y-67257200D01*
X131383978Y-67257200D01*
X131316939Y-67237515D01*
X131285024Y-67207927D01*
X131250625Y-67162376D01*
X131089633Y-67015613D01*
X131089623Y-67015606D01*
X130904413Y-66900929D01*
X130904407Y-66900926D01*
X130798870Y-66860041D01*
X130701269Y-66822230D01*
X130696228Y-66821287D01*
X130633951Y-66789620D01*
X130598678Y-66729308D01*
X130601612Y-66659500D01*
X130641821Y-66602360D01*
X130706540Y-66576029D01*
X130719017Y-66575400D01*
X131820129Y-66575400D01*
X131827616Y-66575625D01*
X131887656Y-66579258D01*
X131946832Y-66568413D01*
X131954235Y-66567287D01*
X131957971Y-66566833D01*
X132013922Y-66560040D01*
X132023385Y-66556450D01*
X132045011Y-66550422D01*
X132045943Y-66550251D01*
X132054982Y-66548595D01*
X132109858Y-66523896D01*
X132116728Y-66521050D01*
X132172980Y-66499718D01*
X132181316Y-66493962D01*
X132200871Y-66482934D01*
X132210107Y-66478778D01*
X132257463Y-66441675D01*
X132263454Y-66437266D01*
X132312979Y-66403083D01*
X132352872Y-66358051D01*
X132357974Y-66352631D01*
X134202381Y-64508224D01*
X134207801Y-64503122D01*
X134252833Y-64463229D01*
X134287012Y-64413711D01*
X134291439Y-64407696D01*
X134328528Y-64360356D01*
X134332687Y-64351113D01*
X134343711Y-64331568D01*
X134349468Y-64323230D01*
X134370795Y-64266994D01*
X134373663Y-64260070D01*
X134398343Y-64205236D01*
X134398343Y-64205234D01*
X134398345Y-64205231D01*
X134400172Y-64195259D01*
X134406196Y-64173647D01*
X134409790Y-64164172D01*
X134417037Y-64104484D01*
X134418164Y-64097077D01*
X134429008Y-64037906D01*
X134425376Y-63977865D01*
X134425150Y-63970378D01*
X134425150Y-62057700D01*
X144291423Y-62057700D01*
X144311513Y-62389836D01*
X144311513Y-62389841D01*
X144311514Y-62389842D01*
X144371494Y-62717141D01*
X144371495Y-62717145D01*
X144371496Y-62717149D01*
X144470480Y-63034804D01*
X144470484Y-63034816D01*
X144470487Y-63034823D01*
X144607052Y-63338257D01*
X144779196Y-63623018D01*
X144779201Y-63623026D01*
X144984410Y-63884955D01*
X145219694Y-64120239D01*
X145481623Y-64325448D01*
X145481628Y-64325451D01*
X145481632Y-64325454D01*
X145766393Y-64497598D01*
X146069827Y-64634163D01*
X146069840Y-64634167D01*
X146069845Y-64634169D01*
X146223984Y-64682200D01*
X146387509Y-64733156D01*
X146714808Y-64793136D01*
X146963844Y-64808200D01*
X146963857Y-64808200D01*
X147130043Y-64808200D01*
X147130056Y-64808200D01*
X147379092Y-64793136D01*
X147706391Y-64733156D01*
X148024073Y-64634163D01*
X148327507Y-64497598D01*
X148612268Y-64325454D01*
X148874202Y-64120242D01*
X149109492Y-63884952D01*
X149314704Y-63623018D01*
X149486848Y-63338257D01*
X149623413Y-63034823D01*
X149722406Y-62717141D01*
X149782386Y-62389842D01*
X149802477Y-62057700D01*
X160960173Y-62057700D01*
X160980263Y-62389836D01*
X160980263Y-62389841D01*
X160980264Y-62389842D01*
X161040244Y-62717141D01*
X161040245Y-62717145D01*
X161040246Y-62717149D01*
X161139230Y-63034804D01*
X161139234Y-63034816D01*
X161139237Y-63034823D01*
X161275802Y-63338257D01*
X161447946Y-63623018D01*
X161447951Y-63623026D01*
X161653160Y-63884955D01*
X161888444Y-64120239D01*
X162150373Y-64325448D01*
X162150378Y-64325451D01*
X162150382Y-64325454D01*
X162435143Y-64497598D01*
X162738577Y-64634163D01*
X162738590Y-64634167D01*
X162738595Y-64634169D01*
X162892734Y-64682200D01*
X163056259Y-64733156D01*
X163383558Y-64793136D01*
X163632594Y-64808200D01*
X163632607Y-64808200D01*
X163798793Y-64808200D01*
X163798806Y-64808200D01*
X164047842Y-64793136D01*
X164375141Y-64733156D01*
X164692823Y-64634163D01*
X164996257Y-64497598D01*
X165281018Y-64325454D01*
X165542952Y-64120242D01*
X165778242Y-63884952D01*
X165983454Y-63623018D01*
X166155598Y-63338257D01*
X166292163Y-63034823D01*
X166391156Y-62717141D01*
X166451136Y-62389842D01*
X166471227Y-62057700D01*
X177628923Y-62057700D01*
X177649013Y-62389836D01*
X177649013Y-62389841D01*
X177649014Y-62389842D01*
X177708994Y-62717141D01*
X177708995Y-62717145D01*
X177708996Y-62717149D01*
X177807980Y-63034804D01*
X177807984Y-63034816D01*
X177807987Y-63034823D01*
X177944552Y-63338257D01*
X178116696Y-63623018D01*
X178116701Y-63623026D01*
X178321910Y-63884955D01*
X178557194Y-64120239D01*
X178819123Y-64325448D01*
X178819128Y-64325451D01*
X178819132Y-64325454D01*
X179103893Y-64497598D01*
X179407327Y-64634163D01*
X179407340Y-64634167D01*
X179407345Y-64634169D01*
X179561484Y-64682200D01*
X179725009Y-64733156D01*
X180052308Y-64793136D01*
X180301344Y-64808200D01*
X180301357Y-64808200D01*
X180467543Y-64808200D01*
X180467556Y-64808200D01*
X180716592Y-64793136D01*
X181043891Y-64733156D01*
X181361573Y-64634163D01*
X181665007Y-64497598D01*
X181949768Y-64325454D01*
X182211702Y-64120242D01*
X182446992Y-63884952D01*
X182652204Y-63623018D01*
X182824348Y-63338257D01*
X182960913Y-63034823D01*
X183059906Y-62717141D01*
X183119886Y-62389842D01*
X183139977Y-62057700D01*
X183119886Y-61725558D01*
X183059906Y-61398259D01*
X182993630Y-61185570D01*
X184640200Y-61185570D01*
X184640201Y-61185576D01*
X184646608Y-61245183D01*
X184696902Y-61380028D01*
X184696906Y-61380035D01*
X184783152Y-61495244D01*
X184783155Y-61495247D01*
X184898364Y-61581493D01*
X184898371Y-61581497D01*
X185033217Y-61631791D01*
X185033216Y-61631791D01*
X185040144Y-61632535D01*
X185092827Y-61638200D01*
X186788572Y-61638199D01*
X186848183Y-61631791D01*
X186983031Y-61581496D01*
X187098246Y-61495246D01*
X187184496Y-61380031D01*
X187234791Y-61245183D01*
X187241200Y-61185573D01*
X187241199Y-59489828D01*
X187234791Y-59430217D01*
X187216898Y-59382244D01*
X187184497Y-59295371D01*
X187184493Y-59295364D01*
X187098247Y-59180155D01*
X187098244Y-59180152D01*
X186983035Y-59093906D01*
X186983028Y-59093902D01*
X186848182Y-59043608D01*
X186848183Y-59043608D01*
X186788583Y-59037201D01*
X186788581Y-59037200D01*
X186788573Y-59037200D01*
X186788564Y-59037200D01*
X185092829Y-59037200D01*
X185092823Y-59037201D01*
X185033216Y-59043608D01*
X184898371Y-59093902D01*
X184898364Y-59093906D01*
X184783155Y-59180152D01*
X184783152Y-59180155D01*
X184696906Y-59295364D01*
X184696902Y-59295371D01*
X184646608Y-59430217D01*
X184640201Y-59489816D01*
X184640201Y-59489823D01*
X184640200Y-59489835D01*
X184640200Y-61185570D01*
X182993630Y-61185570D01*
X182969654Y-61108628D01*
X182960919Y-61080595D01*
X182960917Y-61080590D01*
X182960913Y-61080577D01*
X182824348Y-60777143D01*
X182652204Y-60492382D01*
X182652201Y-60492378D01*
X182652198Y-60492373D01*
X182446989Y-60230444D01*
X182211705Y-59995160D01*
X181949776Y-59789951D01*
X181949768Y-59789946D01*
X181665007Y-59617802D01*
X181361573Y-59481237D01*
X181361566Y-59481234D01*
X181361554Y-59481230D01*
X181043899Y-59382246D01*
X181043895Y-59382245D01*
X181043891Y-59382244D01*
X180716592Y-59322264D01*
X180716591Y-59322263D01*
X180716586Y-59322263D01*
X180467564Y-59307200D01*
X180467556Y-59307200D01*
X180301344Y-59307200D01*
X180301335Y-59307200D01*
X180052313Y-59322263D01*
X180052308Y-59322264D01*
X179725009Y-59382244D01*
X179725006Y-59382244D01*
X179725000Y-59382246D01*
X179407345Y-59481230D01*
X179407329Y-59481236D01*
X179407327Y-59481237D01*
X179103893Y-59617802D01*
X179030491Y-59662175D01*
X178819123Y-59789951D01*
X178557194Y-59995160D01*
X178321910Y-60230444D01*
X178116701Y-60492373D01*
X178116696Y-60492382D01*
X177944552Y-60777143D01*
X177867816Y-60947644D01*
X177807986Y-61080580D01*
X177807980Y-61080595D01*
X177708996Y-61398250D01*
X177708994Y-61398256D01*
X177708994Y-61398259D01*
X177675414Y-61581497D01*
X177649013Y-61725563D01*
X177628923Y-62057700D01*
X166471227Y-62057700D01*
X166451136Y-61725558D01*
X166391156Y-61398259D01*
X166324880Y-61185570D01*
X167971450Y-61185570D01*
X167971451Y-61185576D01*
X167977858Y-61245183D01*
X168028152Y-61380028D01*
X168028156Y-61380035D01*
X168114402Y-61495244D01*
X168114405Y-61495247D01*
X168229614Y-61581493D01*
X168229621Y-61581497D01*
X168364467Y-61631791D01*
X168364466Y-61631791D01*
X168371394Y-61632535D01*
X168424077Y-61638200D01*
X170119822Y-61638199D01*
X170179433Y-61631791D01*
X170314281Y-61581496D01*
X170429496Y-61495246D01*
X170515746Y-61380031D01*
X170566041Y-61245183D01*
X170572450Y-61185573D01*
X170572449Y-59489828D01*
X170566041Y-59430217D01*
X170548148Y-59382244D01*
X170515747Y-59295371D01*
X170515743Y-59295364D01*
X170429497Y-59180155D01*
X170429494Y-59180152D01*
X170314285Y-59093906D01*
X170314278Y-59093902D01*
X170179432Y-59043608D01*
X170179433Y-59043608D01*
X170119833Y-59037201D01*
X170119831Y-59037200D01*
X170119823Y-59037200D01*
X170119814Y-59037200D01*
X168424079Y-59037200D01*
X168424073Y-59037201D01*
X168364466Y-59043608D01*
X168229621Y-59093902D01*
X168229614Y-59093906D01*
X168114405Y-59180152D01*
X168114402Y-59180155D01*
X168028156Y-59295364D01*
X168028152Y-59295371D01*
X167977858Y-59430217D01*
X167971451Y-59489816D01*
X167971451Y-59489823D01*
X167971450Y-59489835D01*
X167971450Y-61185570D01*
X166324880Y-61185570D01*
X166300904Y-61108628D01*
X166292169Y-61080595D01*
X166292167Y-61080590D01*
X166292163Y-61080577D01*
X166155598Y-60777143D01*
X165983454Y-60492382D01*
X165983451Y-60492378D01*
X165983448Y-60492373D01*
X165778239Y-60230444D01*
X165542955Y-59995160D01*
X165281026Y-59789951D01*
X165281018Y-59789946D01*
X164996257Y-59617802D01*
X164692823Y-59481237D01*
X164692816Y-59481234D01*
X164692804Y-59481230D01*
X164375149Y-59382246D01*
X164375145Y-59382245D01*
X164375141Y-59382244D01*
X164047842Y-59322264D01*
X164047841Y-59322263D01*
X164047836Y-59322263D01*
X163798814Y-59307200D01*
X163798806Y-59307200D01*
X163632594Y-59307200D01*
X163632585Y-59307200D01*
X163383563Y-59322263D01*
X163383558Y-59322264D01*
X163056259Y-59382244D01*
X163056256Y-59382244D01*
X163056250Y-59382246D01*
X162738595Y-59481230D01*
X162738579Y-59481236D01*
X162738577Y-59481237D01*
X162435143Y-59617802D01*
X162361741Y-59662175D01*
X162150373Y-59789951D01*
X161888444Y-59995160D01*
X161653160Y-60230444D01*
X161447951Y-60492373D01*
X161447946Y-60492382D01*
X161275802Y-60777143D01*
X161199066Y-60947644D01*
X161139236Y-61080580D01*
X161139230Y-61080595D01*
X161040246Y-61398250D01*
X161040244Y-61398256D01*
X161040244Y-61398259D01*
X161006664Y-61581497D01*
X160980263Y-61725563D01*
X160960173Y-62057700D01*
X149802477Y-62057700D01*
X149782386Y-61725558D01*
X149722406Y-61398259D01*
X149656130Y-61185570D01*
X151302700Y-61185570D01*
X151302701Y-61185576D01*
X151309108Y-61245183D01*
X151359402Y-61380028D01*
X151359406Y-61380035D01*
X151445652Y-61495244D01*
X151445655Y-61495247D01*
X151560864Y-61581493D01*
X151560871Y-61581497D01*
X151695717Y-61631791D01*
X151695716Y-61631791D01*
X151702644Y-61632535D01*
X151755327Y-61638200D01*
X153451072Y-61638199D01*
X153510683Y-61631791D01*
X153645531Y-61581496D01*
X153760746Y-61495246D01*
X153846996Y-61380031D01*
X153897291Y-61245183D01*
X153903700Y-61185573D01*
X153903699Y-59489828D01*
X153897291Y-59430217D01*
X153879398Y-59382244D01*
X153846997Y-59295371D01*
X153846993Y-59295364D01*
X153760747Y-59180155D01*
X153760744Y-59180152D01*
X153645535Y-59093906D01*
X153645528Y-59093902D01*
X153510682Y-59043608D01*
X153510683Y-59043608D01*
X153451083Y-59037201D01*
X153451081Y-59037200D01*
X153451073Y-59037200D01*
X153451064Y-59037200D01*
X151755329Y-59037200D01*
X151755323Y-59037201D01*
X151695716Y-59043608D01*
X151560871Y-59093902D01*
X151560864Y-59093906D01*
X151445655Y-59180152D01*
X151445652Y-59180155D01*
X151359406Y-59295364D01*
X151359402Y-59295371D01*
X151309108Y-59430217D01*
X151302701Y-59489816D01*
X151302701Y-59489823D01*
X151302700Y-59489835D01*
X151302700Y-61185570D01*
X149656130Y-61185570D01*
X149632154Y-61108628D01*
X149623419Y-61080595D01*
X149623417Y-61080590D01*
X149623413Y-61080577D01*
X149486848Y-60777143D01*
X149314704Y-60492382D01*
X149314701Y-60492378D01*
X149314698Y-60492373D01*
X149109489Y-60230444D01*
X148874205Y-59995160D01*
X148612276Y-59789951D01*
X148612268Y-59789946D01*
X148327507Y-59617802D01*
X148024073Y-59481237D01*
X148024066Y-59481234D01*
X148024054Y-59481230D01*
X147706399Y-59382246D01*
X147706395Y-59382245D01*
X147706391Y-59382244D01*
X147379092Y-59322264D01*
X147379091Y-59322263D01*
X147379086Y-59322263D01*
X147130064Y-59307200D01*
X147130056Y-59307200D01*
X146963844Y-59307200D01*
X146963835Y-59307200D01*
X146714813Y-59322263D01*
X146714808Y-59322264D01*
X146387509Y-59382244D01*
X146387506Y-59382244D01*
X146387500Y-59382246D01*
X146069845Y-59481230D01*
X146069829Y-59481236D01*
X146069827Y-59481237D01*
X145766393Y-59617802D01*
X145692991Y-59662175D01*
X145481623Y-59789951D01*
X145219694Y-59995160D01*
X144984410Y-60230444D01*
X144779201Y-60492373D01*
X144779196Y-60492382D01*
X144607052Y-60777143D01*
X144530316Y-60947644D01*
X144470486Y-61080580D01*
X144470480Y-61080595D01*
X144371496Y-61398250D01*
X144371494Y-61398256D01*
X144371494Y-61398259D01*
X144337914Y-61581497D01*
X144311513Y-61725563D01*
X144291423Y-62057700D01*
X134425150Y-62057700D01*
X134425150Y-61619018D01*
X134444835Y-61551979D01*
X134461465Y-61531341D01*
X134556125Y-61436681D01*
X134617447Y-61403197D01*
X134687139Y-61408181D01*
X134743071Y-61450051D01*
X134776905Y-61495247D01*
X134892114Y-61581493D01*
X134892121Y-61581497D01*
X135026967Y-61631791D01*
X135026966Y-61631791D01*
X135033894Y-61632535D01*
X135086577Y-61638200D01*
X136782322Y-61638199D01*
X136841933Y-61631791D01*
X136976781Y-61581496D01*
X137091996Y-61495246D01*
X137178246Y-61380031D01*
X137228541Y-61245183D01*
X137234950Y-61185573D01*
X137234949Y-59489828D01*
X137228541Y-59430217D01*
X137210648Y-59382244D01*
X137178247Y-59295371D01*
X137178243Y-59295364D01*
X137091997Y-59180155D01*
X137091994Y-59180152D01*
X136976785Y-59093906D01*
X136976778Y-59093902D01*
X136841932Y-59043608D01*
X136841933Y-59043608D01*
X136782333Y-59037201D01*
X136782331Y-59037200D01*
X136782323Y-59037200D01*
X136782314Y-59037200D01*
X135086579Y-59037200D01*
X135086573Y-59037201D01*
X135026966Y-59043608D01*
X134892121Y-59093902D01*
X134892114Y-59093906D01*
X134776905Y-59180152D01*
X134776902Y-59180155D01*
X134690656Y-59295364D01*
X134690652Y-59295371D01*
X134640358Y-59430217D01*
X134633951Y-59489816D01*
X134633951Y-59489823D01*
X134633950Y-59489835D01*
X134633950Y-59525903D01*
X134614265Y-59592942D01*
X134561461Y-59638697D01*
X134524900Y-59648998D01*
X134495585Y-59652558D01*
X134495571Y-59652561D01*
X134486097Y-59656154D01*
X134464499Y-59662175D01*
X134454518Y-59664005D01*
X134454513Y-59664006D01*
X134399662Y-59688692D01*
X134392746Y-59691557D01*
X134336520Y-59712881D01*
X134336516Y-59712884D01*
X134328173Y-59718642D01*
X134308638Y-59729660D01*
X134299398Y-59733819D01*
X134299388Y-59733824D01*
X134252047Y-59770913D01*
X134246019Y-59775349D01*
X134196518Y-59809519D01*
X134156633Y-59854538D01*
X134151501Y-59859990D01*
X133246940Y-60764551D01*
X133241488Y-60769683D01*
X133196469Y-60809568D01*
X133162299Y-60859069D01*
X133157863Y-60865097D01*
X133120774Y-60912438D01*
X133120769Y-60912448D01*
X133116610Y-60921688D01*
X133105586Y-60941232D01*
X133101160Y-60947644D01*
X133046877Y-60991634D01*
X132977428Y-60999293D01*
X132914864Y-60968189D01*
X132886037Y-60928096D01*
X132818098Y-60777143D01*
X132645954Y-60492382D01*
X132645951Y-60492378D01*
X132645948Y-60492373D01*
X132440739Y-60230444D01*
X132205455Y-59995160D01*
X131943526Y-59789951D01*
X131943518Y-59789946D01*
X131658757Y-59617802D01*
X131355323Y-59481237D01*
X131355316Y-59481234D01*
X131355304Y-59481230D01*
X131037649Y-59382246D01*
X131037645Y-59382245D01*
X131037641Y-59382244D01*
X130710342Y-59322264D01*
X130710341Y-59322263D01*
X130710336Y-59322263D01*
X130461314Y-59307200D01*
X130461306Y-59307200D01*
X130295094Y-59307200D01*
X130295085Y-59307200D01*
X130046063Y-59322263D01*
X130046058Y-59322264D01*
X129718759Y-59382244D01*
X129718756Y-59382244D01*
X129718750Y-59382246D01*
X129401095Y-59481230D01*
X129401079Y-59481236D01*
X129401077Y-59481237D01*
X129097643Y-59617802D01*
X129024241Y-59662175D01*
X128812873Y-59789951D01*
X128550944Y-59995160D01*
X128315660Y-60230444D01*
X128110451Y-60492373D01*
X128110446Y-60492382D01*
X127938302Y-60777143D01*
X127861566Y-60947644D01*
X127801736Y-61080580D01*
X127801730Y-61080595D01*
X127702746Y-61398250D01*
X127702744Y-61398256D01*
X127702744Y-61398259D01*
X127669164Y-61581497D01*
X127642763Y-61725563D01*
X127622673Y-62057700D01*
X127642763Y-62389836D01*
X127642763Y-62389841D01*
X127642764Y-62389842D01*
X127702744Y-62717141D01*
X127702745Y-62717145D01*
X127702746Y-62717149D01*
X127801730Y-63034804D01*
X127801734Y-63034816D01*
X127801737Y-63034823D01*
X127938302Y-63338257D01*
X128110446Y-63623018D01*
X128110451Y-63623026D01*
X128315660Y-63884955D01*
X128550944Y-64120239D01*
X128812873Y-64325448D01*
X128812878Y-64325451D01*
X128812882Y-64325454D01*
X129097643Y-64497598D01*
X129401077Y-64634163D01*
X129401090Y-64634167D01*
X129401095Y-64634169D01*
X129555234Y-64682200D01*
X129718759Y-64733156D01*
X130046058Y-64793136D01*
X130295094Y-64808200D01*
X130295107Y-64808200D01*
X130461293Y-64808200D01*
X130461306Y-64808200D01*
X130710342Y-64793136D01*
X131037641Y-64733156D01*
X131355323Y-64634163D01*
X131658757Y-64497598D01*
X131943518Y-64325454D01*
X132205452Y-64120242D01*
X132440742Y-63884952D01*
X132645954Y-63623018D01*
X132794034Y-63378062D01*
X132845561Y-63330877D01*
X132914420Y-63319038D01*
X132978749Y-63346307D01*
X133018123Y-63404025D01*
X133024150Y-63442214D01*
X133024150Y-63653781D01*
X133004465Y-63720820D01*
X132987831Y-63741462D01*
X131591212Y-65138081D01*
X131529889Y-65171566D01*
X131503531Y-65174400D01*
X129152171Y-65174400D01*
X129144683Y-65174174D01*
X129084646Y-65170542D01*
X129084639Y-65170542D01*
X129025477Y-65181383D01*
X129018077Y-65182510D01*
X128958378Y-65189760D01*
X128958377Y-65189760D01*
X128948903Y-65193353D01*
X128927292Y-65199377D01*
X128917318Y-65201205D01*
X128862470Y-65225889D01*
X128855555Y-65228753D01*
X128799326Y-65250079D01*
X128799311Y-65250087D01*
X128790973Y-65255842D01*
X128771438Y-65266860D01*
X128762198Y-65271019D01*
X128762188Y-65271024D01*
X128714847Y-65308113D01*
X128708819Y-65312549D01*
X128659318Y-65346719D01*
X128619433Y-65391738D01*
X128614301Y-65397190D01*
X126541340Y-67470151D01*
X126535888Y-67475283D01*
X126490869Y-67515168D01*
X126456699Y-67564669D01*
X126452263Y-67570697D01*
X126415174Y-67618038D01*
X126415169Y-67618048D01*
X126411010Y-67627288D01*
X126399992Y-67646823D01*
X126394237Y-67655161D01*
X126394229Y-67655176D01*
X126372903Y-67711405D01*
X126370039Y-67718320D01*
X126345355Y-67773168D01*
X126343527Y-67783142D01*
X126337503Y-67804753D01*
X126333910Y-67814227D01*
X126333910Y-67814228D01*
X126326660Y-67873927D01*
X126325536Y-67881314D01*
X126324672Y-67886032D01*
X126293233Y-67948429D01*
X126233051Y-67983924D01*
X126163233Y-67981247D01*
X126105945Y-67941249D01*
X126079376Y-67876628D01*
X126078700Y-67863696D01*
X126078700Y-66864504D01*
X126098385Y-66797465D01*
X126119154Y-66772874D01*
X126250627Y-66653022D01*
X126381912Y-66479172D01*
X126479017Y-66284159D01*
X126538635Y-66074623D01*
X126558736Y-65857700D01*
X126538635Y-65640777D01*
X126479017Y-65431241D01*
X126381912Y-65236228D01*
X126250627Y-65062378D01*
X126089632Y-64915612D01*
X126089628Y-64915609D01*
X126089623Y-64915606D01*
X125904413Y-64800929D01*
X125904407Y-64800926D01*
X125819313Y-64767960D01*
X125701269Y-64722230D01*
X125487126Y-64682200D01*
X125269274Y-64682200D01*
X125055131Y-64722230D01*
X125026936Y-64733153D01*
X124851992Y-64800926D01*
X124851986Y-64800929D01*
X124666776Y-64915606D01*
X124666766Y-64915613D01*
X124505774Y-65062376D01*
X124374488Y-65236227D01*
X124277384Y-65431237D01*
X124217764Y-65640781D01*
X124197664Y-65857699D01*
X124197664Y-65857700D01*
X124217764Y-66074618D01*
X124277384Y-66284162D01*
X124314186Y-66358070D01*
X124374488Y-66479172D01*
X124505773Y-66653022D01*
X124637240Y-66772870D01*
X124673519Y-66832577D01*
X124677700Y-66864504D01*
X124677700Y-81519644D01*
X124658015Y-81586683D01*
X124637238Y-81611281D01*
X124505774Y-81731125D01*
X124374488Y-81904977D01*
X124277384Y-82099987D01*
X124217764Y-82309531D01*
X124197664Y-82526449D01*
X124197664Y-82526450D01*
X124217764Y-82743368D01*
X124217764Y-82743370D01*
X124217765Y-82743373D01*
X124277383Y-82952909D01*
X124374488Y-83147922D01*
X124505773Y-83321772D01*
X124637240Y-83441620D01*
X124673519Y-83501327D01*
X124677700Y-83533254D01*
X124677700Y-98188394D01*
X124658015Y-98255433D01*
X124637238Y-98280031D01*
X124505774Y-98399875D01*
X124374488Y-98573727D01*
X124277384Y-98768737D01*
X124217764Y-98978281D01*
X124197664Y-99195199D01*
X124197664Y-99195200D01*
X124217764Y-99412118D01*
X124217764Y-99412120D01*
X124217765Y-99412123D01*
X124277383Y-99621659D01*
X124374488Y-99816672D01*
X124505773Y-99990522D01*
X124637240Y-100110370D01*
X124673519Y-100170077D01*
X124677700Y-100202004D01*
X124677700Y-114857144D01*
X124658015Y-114924183D01*
X124637238Y-114948781D01*
X124505774Y-115068625D01*
X124374488Y-115242477D01*
X124277384Y-115437487D01*
X124217764Y-115647031D01*
X124197664Y-115863949D01*
X124197664Y-115863950D01*
X121353700Y-115863950D01*
X121353700Y-56907701D01*
X134047637Y-56907701D01*
X134067850Y-57138744D01*
X134067851Y-57138751D01*
X134127878Y-57362774D01*
X134127879Y-57362776D01*
X134127880Y-57362779D01*
X134225899Y-57572982D01*
X134358930Y-57762969D01*
X134522931Y-57926970D01*
X134712918Y-58060001D01*
X134923121Y-58158020D01*
X135147150Y-58218049D01*
X135312185Y-58232487D01*
X135378198Y-58238263D01*
X135378200Y-58238263D01*
X135378202Y-58238263D01*
X135435962Y-58233209D01*
X135609250Y-58218049D01*
X135833279Y-58158020D01*
X136043482Y-58060001D01*
X136233469Y-57926970D01*
X136397470Y-57762969D01*
X136530501Y-57572982D01*
X136628520Y-57362779D01*
X136688549Y-57138750D01*
X136708763Y-56907701D01*
X150716387Y-56907701D01*
X150736600Y-57138744D01*
X150736601Y-57138751D01*
X150796628Y-57362774D01*
X150796629Y-57362776D01*
X150796630Y-57362779D01*
X150894649Y-57572982D01*
X151027680Y-57762969D01*
X151191681Y-57926970D01*
X151381668Y-58060001D01*
X151591871Y-58158020D01*
X151815900Y-58218049D01*
X151980935Y-58232487D01*
X152046948Y-58238263D01*
X152046950Y-58238263D01*
X152046952Y-58238263D01*
X152104712Y-58233209D01*
X152278000Y-58218049D01*
X152502029Y-58158020D01*
X152712232Y-58060001D01*
X152902219Y-57926970D01*
X153066220Y-57762969D01*
X153199251Y-57572982D01*
X153297270Y-57362779D01*
X153357299Y-57138750D01*
X153377513Y-56907701D01*
X167385137Y-56907701D01*
X167405350Y-57138744D01*
X167405351Y-57138751D01*
X167465378Y-57362774D01*
X167465379Y-57362776D01*
X167465380Y-57362779D01*
X167563399Y-57572982D01*
X167696430Y-57762969D01*
X167860431Y-57926970D01*
X168050418Y-58060001D01*
X168260621Y-58158020D01*
X168484650Y-58218049D01*
X168649685Y-58232487D01*
X168715698Y-58238263D01*
X168715700Y-58238263D01*
X168715702Y-58238263D01*
X168773462Y-58233209D01*
X168946750Y-58218049D01*
X169170779Y-58158020D01*
X169380982Y-58060001D01*
X169570969Y-57926970D01*
X169734970Y-57762969D01*
X169868001Y-57572982D01*
X169966020Y-57362779D01*
X170026049Y-57138750D01*
X170046263Y-56907701D01*
X184053887Y-56907701D01*
X184074100Y-57138744D01*
X184074101Y-57138751D01*
X184134128Y-57362774D01*
X184134129Y-57362776D01*
X184134130Y-57362779D01*
X184232149Y-57572982D01*
X184365180Y-57762969D01*
X184529181Y-57926970D01*
X184719168Y-58060001D01*
X184929371Y-58158020D01*
X185153400Y-58218049D01*
X185318435Y-58232487D01*
X185384448Y-58238263D01*
X185384450Y-58238263D01*
X185384452Y-58238263D01*
X185442212Y-58233209D01*
X185615500Y-58218049D01*
X185839529Y-58158020D01*
X186049732Y-58060001D01*
X186239719Y-57926970D01*
X186403720Y-57762969D01*
X186536751Y-57572982D01*
X186634770Y-57362779D01*
X186694799Y-57138750D01*
X186715013Y-56907700D01*
X186694799Y-56676650D01*
X186634770Y-56452621D01*
X186536751Y-56242419D01*
X186536749Y-56242416D01*
X186536748Y-56242414D01*
X186403723Y-56052435D01*
X186403718Y-56052429D01*
X186239719Y-55888430D01*
X186214652Y-55870878D01*
X186049732Y-55755399D01*
X185839529Y-55657380D01*
X185839526Y-55657379D01*
X185839524Y-55657378D01*
X185615501Y-55597351D01*
X185615494Y-55597350D01*
X185384452Y-55577137D01*
X185384448Y-55577137D01*
X185153405Y-55597350D01*
X185153398Y-55597351D01*
X184929367Y-55657381D01*
X184719168Y-55755399D01*
X184719164Y-55755401D01*
X184529185Y-55888426D01*
X184529179Y-55888431D01*
X184365181Y-56052429D01*
X184365176Y-56052435D01*
X184232151Y-56242414D01*
X184232149Y-56242418D01*
X184134131Y-56452617D01*
X184074101Y-56676648D01*
X184074100Y-56676655D01*
X184053887Y-56907698D01*
X184053887Y-56907701D01*
X170046263Y-56907701D01*
X170046263Y-56907700D01*
X170026049Y-56676650D01*
X169966020Y-56452621D01*
X169868001Y-56242419D01*
X169867999Y-56242416D01*
X169867998Y-56242414D01*
X169734973Y-56052435D01*
X169734968Y-56052429D01*
X169570969Y-55888430D01*
X169545902Y-55870878D01*
X169380982Y-55755399D01*
X169170779Y-55657380D01*
X169170776Y-55657379D01*
X169170774Y-55657378D01*
X168946751Y-55597351D01*
X168946744Y-55597350D01*
X168715702Y-55577137D01*
X168715698Y-55577137D01*
X168484655Y-55597350D01*
X168484648Y-55597351D01*
X168260617Y-55657381D01*
X168050418Y-55755399D01*
X168050414Y-55755401D01*
X167860435Y-55888426D01*
X167860429Y-55888431D01*
X167696431Y-56052429D01*
X167696426Y-56052435D01*
X167563401Y-56242414D01*
X167563399Y-56242418D01*
X167465381Y-56452617D01*
X167405351Y-56676648D01*
X167405350Y-56676655D01*
X167385137Y-56907698D01*
X167385137Y-56907701D01*
X153377513Y-56907701D01*
X153377513Y-56907700D01*
X153357299Y-56676650D01*
X153297270Y-56452621D01*
X153199251Y-56242419D01*
X153199249Y-56242416D01*
X153199248Y-56242414D01*
X153066223Y-56052435D01*
X153066218Y-56052429D01*
X152902219Y-55888430D01*
X152877152Y-55870878D01*
X152712232Y-55755399D01*
X152502029Y-55657380D01*
X152502026Y-55657379D01*
X152502024Y-55657378D01*
X152278001Y-55597351D01*
X152277994Y-55597350D01*
X152046952Y-55577137D01*
X152046948Y-55577137D01*
X151815905Y-55597350D01*
X151815898Y-55597351D01*
X151591867Y-55657381D01*
X151381668Y-55755399D01*
X151381664Y-55755401D01*
X151191685Y-55888426D01*
X151191679Y-55888431D01*
X151027681Y-56052429D01*
X151027676Y-56052435D01*
X150894651Y-56242414D01*
X150894649Y-56242418D01*
X150796631Y-56452617D01*
X150736601Y-56676648D01*
X150736600Y-56676655D01*
X150716387Y-56907698D01*
X150716387Y-56907701D01*
X136708763Y-56907701D01*
X136708763Y-56907700D01*
X136688549Y-56676650D01*
X136628520Y-56452621D01*
X136530501Y-56242419D01*
X136530499Y-56242416D01*
X136530498Y-56242414D01*
X136397473Y-56052435D01*
X136397468Y-56052429D01*
X136233469Y-55888430D01*
X136208402Y-55870878D01*
X136043482Y-55755399D01*
X135833279Y-55657380D01*
X135833276Y-55657379D01*
X135833274Y-55657378D01*
X135609251Y-55597351D01*
X135609244Y-55597350D01*
X135378202Y-55577137D01*
X135378198Y-55577137D01*
X135147155Y-55597350D01*
X135147148Y-55597351D01*
X134923117Y-55657381D01*
X134712918Y-55755399D01*
X134712914Y-55755401D01*
X134522935Y-55888426D01*
X134522929Y-55888431D01*
X134358931Y-56052429D01*
X134358926Y-56052435D01*
X134225901Y-56242414D01*
X134225899Y-56242418D01*
X134127881Y-56452617D01*
X134067851Y-56676648D01*
X134067850Y-56676655D01*
X134047637Y-56907698D01*
X134047637Y-56907701D01*
X121353700Y-56907701D01*
X121353700Y-56054941D01*
X121353895Y-56047987D01*
X121370130Y-55758965D01*
X121371685Y-55745157D01*
X121419601Y-55463174D01*
X121422692Y-55449637D01*
X121422698Y-55449617D01*
X121501870Y-55174818D01*
X121506456Y-55161710D01*
X121615909Y-54897479D01*
X121621935Y-54884965D01*
X121760287Y-54634642D01*
X121767666Y-54622897D01*
X121933182Y-54389629D01*
X121941846Y-54378767D01*
X121941889Y-54378719D01*
X122132427Y-54165509D01*
X122142238Y-54155698D01*
X122355515Y-53965105D01*
X122366361Y-53956456D01*
X122503286Y-53859305D01*
X122599618Y-53790955D01*
X122611380Y-53783563D01*
X122861707Y-53645214D01*
X122874220Y-53639190D01*
X122874363Y-53639131D01*
X123138443Y-53529745D01*
X123151561Y-53525155D01*
X123426393Y-53445978D01*
X123439928Y-53442889D01*
X123721900Y-53394980D01*
X123735695Y-53393426D01*
X123932241Y-53382388D01*
X124025623Y-53377145D01*
X124032575Y-53376950D01*
X124094092Y-53376950D01*
X186668562Y-53376950D01*
X186668566Y-53376951D01*
G37*
G04 #@! TD.AperFunction*
M02*
