G04 #@! TF.GenerationSoftware,KiCad,Pcbnew,7.0.11*
G04 #@! TF.CreationDate,2024-09-14T21:56:28+02:00*
G04 #@! TF.ProjectId,macropad,6d616372-6f70-4616-942e-6b696361645f,rev?*
G04 #@! TF.SameCoordinates,Original*
G04 #@! TF.FileFunction,Legend,Bot*
G04 #@! TF.FilePolarity,Positive*
%FSLAX46Y46*%
G04 Gerber Fmt 4.6, Leading zero omitted, Abs format (unit mm)*
G04 Created by KiCad (PCBNEW 7.0.11) date 2024-09-14 21:56:28*
%MOMM*%
%LPD*%
G01*
G04 APERTURE LIST*
%ADD10C,0.150000*%
%ADD11C,0.101600*%
%ADD12C,0.120000*%
%ADD13C,0.127000*%
%ADD14C,0.254000*%
%ADD15C,0.025400*%
%ADD16C,5.000000*%
%ADD17C,1.650000*%
%ADD18C,1.350000*%
%ADD19C,6.400000*%
%ADD20R,1.600000X1.600000*%
%ADD21O,1.600000X1.600000*%
%ADD22R,3.000000X2.000000*%
%ADD23C,1.500000*%
%ADD24R,1.300000X2.300000*%
G04 APERTURE END LIST*
D10*
X167606769Y-63409605D02*
X166606769Y-63409605D01*
X166606769Y-63409605D02*
X166606769Y-63647700D01*
X166606769Y-63647700D02*
X166654388Y-63790557D01*
X166654388Y-63790557D02*
X166749626Y-63885795D01*
X166749626Y-63885795D02*
X166844864Y-63933414D01*
X166844864Y-63933414D02*
X167035340Y-63981033D01*
X167035340Y-63981033D02*
X167178197Y-63981033D01*
X167178197Y-63981033D02*
X167368673Y-63933414D01*
X167368673Y-63933414D02*
X167463911Y-63885795D01*
X167463911Y-63885795D02*
X167559150Y-63790557D01*
X167559150Y-63790557D02*
X167606769Y-63647700D01*
X167606769Y-63647700D02*
X167606769Y-63409605D01*
X166606769Y-64314367D02*
X166606769Y-64933414D01*
X166606769Y-64933414D02*
X166987721Y-64600081D01*
X166987721Y-64600081D02*
X166987721Y-64742938D01*
X166987721Y-64742938D02*
X167035340Y-64838176D01*
X167035340Y-64838176D02*
X167082959Y-64885795D01*
X167082959Y-64885795D02*
X167178197Y-64933414D01*
X167178197Y-64933414D02*
X167416292Y-64933414D01*
X167416292Y-64933414D02*
X167511530Y-64885795D01*
X167511530Y-64885795D02*
X167559150Y-64838176D01*
X167559150Y-64838176D02*
X167606769Y-64742938D01*
X167606769Y-64742938D02*
X167606769Y-64457224D01*
X167606769Y-64457224D02*
X167559150Y-64361986D01*
X167559150Y-64361986D02*
X167511530Y-64314367D01*
X167926769Y-60075795D02*
X166926769Y-60075795D01*
X167926769Y-60647223D02*
X167355340Y-60218652D01*
X166926769Y-60647223D02*
X167498197Y-60075795D01*
X184275519Y-79602164D02*
X183275519Y-79602164D01*
X183275519Y-79602164D02*
X183275519Y-79840259D01*
X183275519Y-79840259D02*
X183323138Y-79983116D01*
X183323138Y-79983116D02*
X183418376Y-80078354D01*
X183418376Y-80078354D02*
X183513614Y-80125973D01*
X183513614Y-80125973D02*
X183704090Y-80173592D01*
X183704090Y-80173592D02*
X183846947Y-80173592D01*
X183846947Y-80173592D02*
X184037423Y-80125973D01*
X184037423Y-80125973D02*
X184132661Y-80078354D01*
X184132661Y-80078354D02*
X184227900Y-79983116D01*
X184227900Y-79983116D02*
X184275519Y-79840259D01*
X184275519Y-79840259D02*
X184275519Y-79602164D01*
X184275519Y-81125973D02*
X184275519Y-80554545D01*
X184275519Y-80840259D02*
X183275519Y-80840259D01*
X183275519Y-80840259D02*
X183418376Y-80745021D01*
X183418376Y-80745021D02*
X183513614Y-80649783D01*
X183513614Y-80649783D02*
X183561233Y-80554545D01*
X184275519Y-82078354D02*
X184275519Y-81506926D01*
X184275519Y-81792640D02*
X183275519Y-81792640D01*
X183275519Y-81792640D02*
X183418376Y-81697402D01*
X183418376Y-81697402D02*
X183513614Y-81602164D01*
X183513614Y-81602164D02*
X183561233Y-81506926D01*
X184595519Y-76744545D02*
X183595519Y-76744545D01*
X184595519Y-77315973D02*
X184024090Y-76887402D01*
X183595519Y-77315973D02*
X184166947Y-76744545D01*
X150938019Y-112939664D02*
X149938019Y-112939664D01*
X149938019Y-112939664D02*
X149938019Y-113177759D01*
X149938019Y-113177759D02*
X149985638Y-113320616D01*
X149985638Y-113320616D02*
X150080876Y-113415854D01*
X150080876Y-113415854D02*
X150176114Y-113463473D01*
X150176114Y-113463473D02*
X150366590Y-113511092D01*
X150366590Y-113511092D02*
X150509447Y-113511092D01*
X150509447Y-113511092D02*
X150699923Y-113463473D01*
X150699923Y-113463473D02*
X150795161Y-113415854D01*
X150795161Y-113415854D02*
X150890400Y-113320616D01*
X150890400Y-113320616D02*
X150938019Y-113177759D01*
X150938019Y-113177759D02*
X150938019Y-112939664D01*
X150938019Y-114463473D02*
X150938019Y-113892045D01*
X150938019Y-114177759D02*
X149938019Y-114177759D01*
X149938019Y-114177759D02*
X150080876Y-114082521D01*
X150080876Y-114082521D02*
X150176114Y-113987283D01*
X150176114Y-113987283D02*
X150223733Y-113892045D01*
X149938019Y-115368235D02*
X149938019Y-114892045D01*
X149938019Y-114892045D02*
X150414209Y-114844426D01*
X150414209Y-114844426D02*
X150366590Y-114892045D01*
X150366590Y-114892045D02*
X150318971Y-114987283D01*
X150318971Y-114987283D02*
X150318971Y-115225378D01*
X150318971Y-115225378D02*
X150366590Y-115320616D01*
X150366590Y-115320616D02*
X150414209Y-115368235D01*
X150414209Y-115368235D02*
X150509447Y-115415854D01*
X150509447Y-115415854D02*
X150747542Y-115415854D01*
X150747542Y-115415854D02*
X150842780Y-115368235D01*
X150842780Y-115368235D02*
X150890400Y-115320616D01*
X150890400Y-115320616D02*
X150938019Y-115225378D01*
X150938019Y-115225378D02*
X150938019Y-114987283D01*
X150938019Y-114987283D02*
X150890400Y-114892045D01*
X150890400Y-114892045D02*
X150842780Y-114844426D01*
X151258019Y-110082045D02*
X150258019Y-110082045D01*
X151258019Y-110653473D02*
X150686590Y-110224902D01*
X150258019Y-110653473D02*
X150829447Y-110082045D01*
X134269269Y-80078355D02*
X133269269Y-80078355D01*
X133269269Y-80078355D02*
X133269269Y-80316450D01*
X133269269Y-80316450D02*
X133316888Y-80459307D01*
X133316888Y-80459307D02*
X133412126Y-80554545D01*
X133412126Y-80554545D02*
X133507364Y-80602164D01*
X133507364Y-80602164D02*
X133697840Y-80649783D01*
X133697840Y-80649783D02*
X133840697Y-80649783D01*
X133840697Y-80649783D02*
X134031173Y-80602164D01*
X134031173Y-80602164D02*
X134126411Y-80554545D01*
X134126411Y-80554545D02*
X134221650Y-80459307D01*
X134221650Y-80459307D02*
X134269269Y-80316450D01*
X134269269Y-80316450D02*
X134269269Y-80078355D01*
X133602602Y-81506926D02*
X134269269Y-81506926D01*
X133221650Y-81268831D02*
X133935935Y-81030736D01*
X133935935Y-81030736D02*
X133935935Y-81649783D01*
X134589269Y-76744545D02*
X133589269Y-76744545D01*
X134589269Y-77315973D02*
X134017840Y-76887402D01*
X133589269Y-77315973D02*
X134160697Y-76744545D01*
X150938019Y-96747105D02*
X149938019Y-96747105D01*
X149938019Y-96747105D02*
X149938019Y-96985200D01*
X149938019Y-96985200D02*
X149985638Y-97128057D01*
X149985638Y-97128057D02*
X150080876Y-97223295D01*
X150080876Y-97223295D02*
X150176114Y-97270914D01*
X150176114Y-97270914D02*
X150366590Y-97318533D01*
X150366590Y-97318533D02*
X150509447Y-97318533D01*
X150509447Y-97318533D02*
X150699923Y-97270914D01*
X150699923Y-97270914D02*
X150795161Y-97223295D01*
X150795161Y-97223295D02*
X150890400Y-97128057D01*
X150890400Y-97128057D02*
X150938019Y-96985200D01*
X150938019Y-96985200D02*
X150938019Y-96747105D01*
X150366590Y-97889962D02*
X150318971Y-97794724D01*
X150318971Y-97794724D02*
X150271352Y-97747105D01*
X150271352Y-97747105D02*
X150176114Y-97699486D01*
X150176114Y-97699486D02*
X150128495Y-97699486D01*
X150128495Y-97699486D02*
X150033257Y-97747105D01*
X150033257Y-97747105D02*
X149985638Y-97794724D01*
X149985638Y-97794724D02*
X149938019Y-97889962D01*
X149938019Y-97889962D02*
X149938019Y-98080438D01*
X149938019Y-98080438D02*
X149985638Y-98175676D01*
X149985638Y-98175676D02*
X150033257Y-98223295D01*
X150033257Y-98223295D02*
X150128495Y-98270914D01*
X150128495Y-98270914D02*
X150176114Y-98270914D01*
X150176114Y-98270914D02*
X150271352Y-98223295D01*
X150271352Y-98223295D02*
X150318971Y-98175676D01*
X150318971Y-98175676D02*
X150366590Y-98080438D01*
X150366590Y-98080438D02*
X150366590Y-97889962D01*
X150366590Y-97889962D02*
X150414209Y-97794724D01*
X150414209Y-97794724D02*
X150461828Y-97747105D01*
X150461828Y-97747105D02*
X150557066Y-97699486D01*
X150557066Y-97699486D02*
X150747542Y-97699486D01*
X150747542Y-97699486D02*
X150842780Y-97747105D01*
X150842780Y-97747105D02*
X150890400Y-97794724D01*
X150890400Y-97794724D02*
X150938019Y-97889962D01*
X150938019Y-97889962D02*
X150938019Y-98080438D01*
X150938019Y-98080438D02*
X150890400Y-98175676D01*
X150890400Y-98175676D02*
X150842780Y-98223295D01*
X150842780Y-98223295D02*
X150747542Y-98270914D01*
X150747542Y-98270914D02*
X150557066Y-98270914D01*
X150557066Y-98270914D02*
X150461828Y-98223295D01*
X150461828Y-98223295D02*
X150414209Y-98175676D01*
X150414209Y-98175676D02*
X150366590Y-98080438D01*
X151258019Y-93413295D02*
X150258019Y-93413295D01*
X151258019Y-93984723D02*
X150686590Y-93556152D01*
X150258019Y-93984723D02*
X150829447Y-93413295D01*
X184275519Y-62933414D02*
X183275519Y-62933414D01*
X183275519Y-62933414D02*
X183275519Y-63171509D01*
X183275519Y-63171509D02*
X183323138Y-63314366D01*
X183323138Y-63314366D02*
X183418376Y-63409604D01*
X183418376Y-63409604D02*
X183513614Y-63457223D01*
X183513614Y-63457223D02*
X183704090Y-63504842D01*
X183704090Y-63504842D02*
X183846947Y-63504842D01*
X183846947Y-63504842D02*
X184037423Y-63457223D01*
X184037423Y-63457223D02*
X184132661Y-63409604D01*
X184132661Y-63409604D02*
X184227900Y-63314366D01*
X184227900Y-63314366D02*
X184275519Y-63171509D01*
X184275519Y-63171509D02*
X184275519Y-62933414D01*
X184275519Y-64457223D02*
X184275519Y-63885795D01*
X184275519Y-64171509D02*
X183275519Y-64171509D01*
X183275519Y-64171509D02*
X183418376Y-64076271D01*
X183418376Y-64076271D02*
X183513614Y-63981033D01*
X183513614Y-63981033D02*
X183561233Y-63885795D01*
X183275519Y-65076271D02*
X183275519Y-65171509D01*
X183275519Y-65171509D02*
X183323138Y-65266747D01*
X183323138Y-65266747D02*
X183370757Y-65314366D01*
X183370757Y-65314366D02*
X183465995Y-65361985D01*
X183465995Y-65361985D02*
X183656471Y-65409604D01*
X183656471Y-65409604D02*
X183894566Y-65409604D01*
X183894566Y-65409604D02*
X184085042Y-65361985D01*
X184085042Y-65361985D02*
X184180280Y-65314366D01*
X184180280Y-65314366D02*
X184227900Y-65266747D01*
X184227900Y-65266747D02*
X184275519Y-65171509D01*
X184275519Y-65171509D02*
X184275519Y-65076271D01*
X184275519Y-65076271D02*
X184227900Y-64981033D01*
X184227900Y-64981033D02*
X184180280Y-64933414D01*
X184180280Y-64933414D02*
X184085042Y-64885795D01*
X184085042Y-64885795D02*
X183894566Y-64838176D01*
X183894566Y-64838176D02*
X183656471Y-64838176D01*
X183656471Y-64838176D02*
X183465995Y-64885795D01*
X183465995Y-64885795D02*
X183370757Y-64933414D01*
X183370757Y-64933414D02*
X183323138Y-64981033D01*
X183323138Y-64981033D02*
X183275519Y-65076271D01*
X184595519Y-60075795D02*
X183595519Y-60075795D01*
X184595519Y-60647223D02*
X184024090Y-60218652D01*
X183595519Y-60647223D02*
X184166947Y-60075795D01*
X184275519Y-112939664D02*
X183275519Y-112939664D01*
X183275519Y-112939664D02*
X183275519Y-113177759D01*
X183275519Y-113177759D02*
X183323138Y-113320616D01*
X183323138Y-113320616D02*
X183418376Y-113415854D01*
X183418376Y-113415854D02*
X183513614Y-113463473D01*
X183513614Y-113463473D02*
X183704090Y-113511092D01*
X183704090Y-113511092D02*
X183846947Y-113511092D01*
X183846947Y-113511092D02*
X184037423Y-113463473D01*
X184037423Y-113463473D02*
X184132661Y-113415854D01*
X184132661Y-113415854D02*
X184227900Y-113320616D01*
X184227900Y-113320616D02*
X184275519Y-113177759D01*
X184275519Y-113177759D02*
X184275519Y-112939664D01*
X184275519Y-114463473D02*
X184275519Y-113892045D01*
X184275519Y-114177759D02*
X183275519Y-114177759D01*
X183275519Y-114177759D02*
X183418376Y-114082521D01*
X183418376Y-114082521D02*
X183513614Y-113987283D01*
X183513614Y-113987283D02*
X183561233Y-113892045D01*
X183275519Y-114796807D02*
X183275519Y-115415854D01*
X183275519Y-115415854D02*
X183656471Y-115082521D01*
X183656471Y-115082521D02*
X183656471Y-115225378D01*
X183656471Y-115225378D02*
X183704090Y-115320616D01*
X183704090Y-115320616D02*
X183751709Y-115368235D01*
X183751709Y-115368235D02*
X183846947Y-115415854D01*
X183846947Y-115415854D02*
X184085042Y-115415854D01*
X184085042Y-115415854D02*
X184180280Y-115368235D01*
X184180280Y-115368235D02*
X184227900Y-115320616D01*
X184227900Y-115320616D02*
X184275519Y-115225378D01*
X184275519Y-115225378D02*
X184275519Y-114939664D01*
X184275519Y-114939664D02*
X184227900Y-114844426D01*
X184227900Y-114844426D02*
X184180280Y-114796807D01*
X184595519Y-110082045D02*
X183595519Y-110082045D01*
X184595519Y-110653473D02*
X184024090Y-110224902D01*
X183595519Y-110653473D02*
X184166947Y-110082045D01*
X134269269Y-112939664D02*
X133269269Y-112939664D01*
X133269269Y-112939664D02*
X133269269Y-113177759D01*
X133269269Y-113177759D02*
X133316888Y-113320616D01*
X133316888Y-113320616D02*
X133412126Y-113415854D01*
X133412126Y-113415854D02*
X133507364Y-113463473D01*
X133507364Y-113463473D02*
X133697840Y-113511092D01*
X133697840Y-113511092D02*
X133840697Y-113511092D01*
X133840697Y-113511092D02*
X134031173Y-113463473D01*
X134031173Y-113463473D02*
X134126411Y-113415854D01*
X134126411Y-113415854D02*
X134221650Y-113320616D01*
X134221650Y-113320616D02*
X134269269Y-113177759D01*
X134269269Y-113177759D02*
X134269269Y-112939664D01*
X134269269Y-114463473D02*
X134269269Y-113892045D01*
X134269269Y-114177759D02*
X133269269Y-114177759D01*
X133269269Y-114177759D02*
X133412126Y-114082521D01*
X133412126Y-114082521D02*
X133507364Y-113987283D01*
X133507364Y-113987283D02*
X133554983Y-113892045D01*
X133269269Y-115320616D02*
X133269269Y-115130140D01*
X133269269Y-115130140D02*
X133316888Y-115034902D01*
X133316888Y-115034902D02*
X133364507Y-114987283D01*
X133364507Y-114987283D02*
X133507364Y-114892045D01*
X133507364Y-114892045D02*
X133697840Y-114844426D01*
X133697840Y-114844426D02*
X134078792Y-114844426D01*
X134078792Y-114844426D02*
X134174030Y-114892045D01*
X134174030Y-114892045D02*
X134221650Y-114939664D01*
X134221650Y-114939664D02*
X134269269Y-115034902D01*
X134269269Y-115034902D02*
X134269269Y-115225378D01*
X134269269Y-115225378D02*
X134221650Y-115320616D01*
X134221650Y-115320616D02*
X134174030Y-115368235D01*
X134174030Y-115368235D02*
X134078792Y-115415854D01*
X134078792Y-115415854D02*
X133840697Y-115415854D01*
X133840697Y-115415854D02*
X133745459Y-115368235D01*
X133745459Y-115368235D02*
X133697840Y-115320616D01*
X133697840Y-115320616D02*
X133650221Y-115225378D01*
X133650221Y-115225378D02*
X133650221Y-115034902D01*
X133650221Y-115034902D02*
X133697840Y-114939664D01*
X133697840Y-114939664D02*
X133745459Y-114892045D01*
X133745459Y-114892045D02*
X133840697Y-114844426D01*
X134589269Y-110082045D02*
X133589269Y-110082045D01*
X134589269Y-110653473D02*
X134017840Y-110224902D01*
X133589269Y-110653473D02*
X134160697Y-110082045D01*
X134269269Y-63409605D02*
X133269269Y-63409605D01*
X133269269Y-63409605D02*
X133269269Y-63647700D01*
X133269269Y-63647700D02*
X133316888Y-63790557D01*
X133316888Y-63790557D02*
X133412126Y-63885795D01*
X133412126Y-63885795D02*
X133507364Y-63933414D01*
X133507364Y-63933414D02*
X133697840Y-63981033D01*
X133697840Y-63981033D02*
X133840697Y-63981033D01*
X133840697Y-63981033D02*
X134031173Y-63933414D01*
X134031173Y-63933414D02*
X134126411Y-63885795D01*
X134126411Y-63885795D02*
X134221650Y-63790557D01*
X134221650Y-63790557D02*
X134269269Y-63647700D01*
X134269269Y-63647700D02*
X134269269Y-63409605D01*
X134269269Y-64933414D02*
X134269269Y-64361986D01*
X134269269Y-64647700D02*
X133269269Y-64647700D01*
X133269269Y-64647700D02*
X133412126Y-64552462D01*
X133412126Y-64552462D02*
X133507364Y-64457224D01*
X133507364Y-64457224D02*
X133554983Y-64361986D01*
X134589269Y-60075795D02*
X133589269Y-60075795D01*
X134589269Y-60647223D02*
X134017840Y-60218652D01*
X133589269Y-60647223D02*
X134160697Y-60075795D01*
X167606769Y-80078355D02*
X166606769Y-80078355D01*
X166606769Y-80078355D02*
X166606769Y-80316450D01*
X166606769Y-80316450D02*
X166654388Y-80459307D01*
X166654388Y-80459307D02*
X166749626Y-80554545D01*
X166749626Y-80554545D02*
X166844864Y-80602164D01*
X166844864Y-80602164D02*
X167035340Y-80649783D01*
X167035340Y-80649783D02*
X167178197Y-80649783D01*
X167178197Y-80649783D02*
X167368673Y-80602164D01*
X167368673Y-80602164D02*
X167463911Y-80554545D01*
X167463911Y-80554545D02*
X167559150Y-80459307D01*
X167559150Y-80459307D02*
X167606769Y-80316450D01*
X167606769Y-80316450D02*
X167606769Y-80078355D01*
X166606769Y-81506926D02*
X166606769Y-81316450D01*
X166606769Y-81316450D02*
X166654388Y-81221212D01*
X166654388Y-81221212D02*
X166702007Y-81173593D01*
X166702007Y-81173593D02*
X166844864Y-81078355D01*
X166844864Y-81078355D02*
X167035340Y-81030736D01*
X167035340Y-81030736D02*
X167416292Y-81030736D01*
X167416292Y-81030736D02*
X167511530Y-81078355D01*
X167511530Y-81078355D02*
X167559150Y-81125974D01*
X167559150Y-81125974D02*
X167606769Y-81221212D01*
X167606769Y-81221212D02*
X167606769Y-81411688D01*
X167606769Y-81411688D02*
X167559150Y-81506926D01*
X167559150Y-81506926D02*
X167511530Y-81554545D01*
X167511530Y-81554545D02*
X167416292Y-81602164D01*
X167416292Y-81602164D02*
X167178197Y-81602164D01*
X167178197Y-81602164D02*
X167082959Y-81554545D01*
X167082959Y-81554545D02*
X167035340Y-81506926D01*
X167035340Y-81506926D02*
X166987721Y-81411688D01*
X166987721Y-81411688D02*
X166987721Y-81221212D01*
X166987721Y-81221212D02*
X167035340Y-81125974D01*
X167035340Y-81125974D02*
X167082959Y-81078355D01*
X167082959Y-81078355D02*
X167178197Y-81030736D01*
X167926769Y-76744545D02*
X166926769Y-76744545D01*
X167926769Y-77315973D02*
X167355340Y-76887402D01*
X166926769Y-77315973D02*
X167498197Y-76744545D01*
D11*
X156455533Y-127640935D02*
X156455533Y-128360602D01*
X156455533Y-128360602D02*
X156413200Y-128445268D01*
X156413200Y-128445268D02*
X156370866Y-128487602D01*
X156370866Y-128487602D02*
X156286200Y-128529935D01*
X156286200Y-128529935D02*
X156116866Y-128529935D01*
X156116866Y-128529935D02*
X156032200Y-128487602D01*
X156032200Y-128487602D02*
X155989866Y-128445268D01*
X155989866Y-128445268D02*
X155947533Y-128360602D01*
X155947533Y-128360602D02*
X155947533Y-127640935D01*
X155566533Y-127725602D02*
X155524200Y-127683268D01*
X155524200Y-127683268D02*
X155439533Y-127640935D01*
X155439533Y-127640935D02*
X155227867Y-127640935D01*
X155227867Y-127640935D02*
X155143200Y-127683268D01*
X155143200Y-127683268D02*
X155100867Y-127725602D01*
X155100867Y-127725602D02*
X155058533Y-127810268D01*
X155058533Y-127810268D02*
X155058533Y-127894935D01*
X155058533Y-127894935D02*
X155100867Y-128021935D01*
X155100867Y-128021935D02*
X155608867Y-128529935D01*
X155608867Y-128529935D02*
X155058533Y-128529935D01*
D10*
X151016295Y-131756750D02*
X151159152Y-131709130D01*
X151159152Y-131709130D02*
X151397247Y-131709130D01*
X151397247Y-131709130D02*
X151492485Y-131756750D01*
X151492485Y-131756750D02*
X151540104Y-131804369D01*
X151540104Y-131804369D02*
X151587723Y-131899607D01*
X151587723Y-131899607D02*
X151587723Y-131994845D01*
X151587723Y-131994845D02*
X151540104Y-132090083D01*
X151540104Y-132090083D02*
X151492485Y-132137702D01*
X151492485Y-132137702D02*
X151397247Y-132185321D01*
X151397247Y-132185321D02*
X151206771Y-132232940D01*
X151206771Y-132232940D02*
X151111533Y-132280559D01*
X151111533Y-132280559D02*
X151063914Y-132328178D01*
X151063914Y-132328178D02*
X151016295Y-132423416D01*
X151016295Y-132423416D02*
X151016295Y-132518654D01*
X151016295Y-132518654D02*
X151063914Y-132613892D01*
X151063914Y-132613892D02*
X151111533Y-132661511D01*
X151111533Y-132661511D02*
X151206771Y-132709130D01*
X151206771Y-132709130D02*
X151444866Y-132709130D01*
X151444866Y-132709130D02*
X151587723Y-132661511D01*
X152397247Y-131756750D02*
X152302009Y-131709130D01*
X152302009Y-131709130D02*
X152111533Y-131709130D01*
X152111533Y-131709130D02*
X152016295Y-131756750D01*
X152016295Y-131756750D02*
X151968676Y-131851988D01*
X151968676Y-131851988D02*
X151968676Y-132232940D01*
X151968676Y-132232940D02*
X152016295Y-132328178D01*
X152016295Y-132328178D02*
X152111533Y-132375797D01*
X152111533Y-132375797D02*
X152302009Y-132375797D01*
X152302009Y-132375797D02*
X152397247Y-132328178D01*
X152397247Y-132328178D02*
X152444866Y-132232940D01*
X152444866Y-132232940D02*
X152444866Y-132137702D01*
X152444866Y-132137702D02*
X151968676Y-132042464D01*
X153254390Y-131756750D02*
X153159152Y-131709130D01*
X153159152Y-131709130D02*
X152968676Y-131709130D01*
X152968676Y-131709130D02*
X152873438Y-131756750D01*
X152873438Y-131756750D02*
X152825819Y-131851988D01*
X152825819Y-131851988D02*
X152825819Y-132232940D01*
X152825819Y-132232940D02*
X152873438Y-132328178D01*
X152873438Y-132328178D02*
X152968676Y-132375797D01*
X152968676Y-132375797D02*
X153159152Y-132375797D01*
X153159152Y-132375797D02*
X153254390Y-132328178D01*
X153254390Y-132328178D02*
X153302009Y-132232940D01*
X153302009Y-132232940D02*
X153302009Y-132137702D01*
X153302009Y-132137702D02*
X152825819Y-132042464D01*
X154111533Y-131756750D02*
X154016295Y-131709130D01*
X154016295Y-131709130D02*
X153825819Y-131709130D01*
X153825819Y-131709130D02*
X153730581Y-131756750D01*
X153730581Y-131756750D02*
X153682962Y-131851988D01*
X153682962Y-131851988D02*
X153682962Y-132232940D01*
X153682962Y-132232940D02*
X153730581Y-132328178D01*
X153730581Y-132328178D02*
X153825819Y-132375797D01*
X153825819Y-132375797D02*
X154016295Y-132375797D01*
X154016295Y-132375797D02*
X154111533Y-132328178D01*
X154111533Y-132328178D02*
X154159152Y-132232940D01*
X154159152Y-132232940D02*
X154159152Y-132137702D01*
X154159152Y-132137702D02*
X153682962Y-132042464D01*
X155016295Y-131709130D02*
X155016295Y-132709130D01*
X155016295Y-131756750D02*
X154921057Y-131709130D01*
X154921057Y-131709130D02*
X154730581Y-131709130D01*
X154730581Y-131709130D02*
X154635343Y-131756750D01*
X154635343Y-131756750D02*
X154587724Y-131804369D01*
X154587724Y-131804369D02*
X154540105Y-131899607D01*
X154540105Y-131899607D02*
X154540105Y-132185321D01*
X154540105Y-132185321D02*
X154587724Y-132280559D01*
X154587724Y-132280559D02*
X154635343Y-132328178D01*
X154635343Y-132328178D02*
X154730581Y-132375797D01*
X154730581Y-132375797D02*
X154921057Y-132375797D01*
X154921057Y-132375797D02*
X155016295Y-132328178D01*
X156206772Y-131756750D02*
X156349629Y-131709130D01*
X156349629Y-131709130D02*
X156587724Y-131709130D01*
X156587724Y-131709130D02*
X156682962Y-131756750D01*
X156682962Y-131756750D02*
X156730581Y-131804369D01*
X156730581Y-131804369D02*
X156778200Y-131899607D01*
X156778200Y-131899607D02*
X156778200Y-131994845D01*
X156778200Y-131994845D02*
X156730581Y-132090083D01*
X156730581Y-132090083D02*
X156682962Y-132137702D01*
X156682962Y-132137702D02*
X156587724Y-132185321D01*
X156587724Y-132185321D02*
X156397248Y-132232940D01*
X156397248Y-132232940D02*
X156302010Y-132280559D01*
X156302010Y-132280559D02*
X156254391Y-132328178D01*
X156254391Y-132328178D02*
X156206772Y-132423416D01*
X156206772Y-132423416D02*
X156206772Y-132518654D01*
X156206772Y-132518654D02*
X156254391Y-132613892D01*
X156254391Y-132613892D02*
X156302010Y-132661511D01*
X156302010Y-132661511D02*
X156397248Y-132709130D01*
X156397248Y-132709130D02*
X156635343Y-132709130D01*
X156635343Y-132709130D02*
X156778200Y-132661511D01*
X157063915Y-132375797D02*
X157444867Y-132375797D01*
X157206772Y-132709130D02*
X157206772Y-131851988D01*
X157206772Y-131851988D02*
X157254391Y-131756750D01*
X157254391Y-131756750D02*
X157349629Y-131709130D01*
X157349629Y-131709130D02*
X157444867Y-131709130D01*
X158206772Y-132375797D02*
X158206772Y-131709130D01*
X157778201Y-132375797D02*
X157778201Y-131851988D01*
X157778201Y-131851988D02*
X157825820Y-131756750D01*
X157825820Y-131756750D02*
X157921058Y-131709130D01*
X157921058Y-131709130D02*
X158063915Y-131709130D01*
X158063915Y-131709130D02*
X158159153Y-131756750D01*
X158159153Y-131756750D02*
X158206772Y-131804369D01*
X159111534Y-131709130D02*
X159111534Y-132709130D01*
X159111534Y-131756750D02*
X159016296Y-131709130D01*
X159016296Y-131709130D02*
X158825820Y-131709130D01*
X158825820Y-131709130D02*
X158730582Y-131756750D01*
X158730582Y-131756750D02*
X158682963Y-131804369D01*
X158682963Y-131804369D02*
X158635344Y-131899607D01*
X158635344Y-131899607D02*
X158635344Y-132185321D01*
X158635344Y-132185321D02*
X158682963Y-132280559D01*
X158682963Y-132280559D02*
X158730582Y-132328178D01*
X158730582Y-132328178D02*
X158825820Y-132375797D01*
X158825820Y-132375797D02*
X159016296Y-132375797D01*
X159016296Y-132375797D02*
X159111534Y-132328178D01*
X159587725Y-131709130D02*
X159587725Y-132375797D01*
X159587725Y-132709130D02*
X159540106Y-132661511D01*
X159540106Y-132661511D02*
X159587725Y-132613892D01*
X159587725Y-132613892D02*
X159635344Y-132661511D01*
X159635344Y-132661511D02*
X159587725Y-132709130D01*
X159587725Y-132709130D02*
X159587725Y-132613892D01*
X160206772Y-131709130D02*
X160111534Y-131756750D01*
X160111534Y-131756750D02*
X160063915Y-131804369D01*
X160063915Y-131804369D02*
X160016296Y-131899607D01*
X160016296Y-131899607D02*
X160016296Y-132185321D01*
X160016296Y-132185321D02*
X160063915Y-132280559D01*
X160063915Y-132280559D02*
X160111534Y-132328178D01*
X160111534Y-132328178D02*
X160206772Y-132375797D01*
X160206772Y-132375797D02*
X160349629Y-132375797D01*
X160349629Y-132375797D02*
X160444867Y-132328178D01*
X160444867Y-132328178D02*
X160492486Y-132280559D01*
X160492486Y-132280559D02*
X160540105Y-132185321D01*
X160540105Y-132185321D02*
X160540105Y-131899607D01*
X160540105Y-131899607D02*
X160492486Y-131804369D01*
X160492486Y-131804369D02*
X160444867Y-131756750D01*
X160444867Y-131756750D02*
X160349629Y-131709130D01*
X160349629Y-131709130D02*
X160206772Y-131709130D01*
X154254391Y-130709130D02*
X154921057Y-129709130D01*
X154921057Y-130709130D02*
X154254391Y-129709130D01*
X155302010Y-129709130D02*
X155302010Y-130709130D01*
X155730581Y-129994845D02*
X156206771Y-129994845D01*
X155635343Y-129709130D02*
X155968676Y-130709130D01*
X155968676Y-130709130D02*
X156302009Y-129709130D01*
X156825819Y-130709130D02*
X157016295Y-130709130D01*
X157016295Y-130709130D02*
X157111533Y-130661511D01*
X157111533Y-130661511D02*
X157206771Y-130566273D01*
X157206771Y-130566273D02*
X157254390Y-130375797D01*
X157254390Y-130375797D02*
X157254390Y-130042464D01*
X157254390Y-130042464D02*
X157206771Y-129851988D01*
X157206771Y-129851988D02*
X157111533Y-129756750D01*
X157111533Y-129756750D02*
X157016295Y-129709130D01*
X157016295Y-129709130D02*
X156825819Y-129709130D01*
X156825819Y-129709130D02*
X156730581Y-129756750D01*
X156730581Y-129756750D02*
X156635343Y-129851988D01*
X156635343Y-129851988D02*
X156587724Y-130042464D01*
X156587724Y-130042464D02*
X156587724Y-130375797D01*
X156587724Y-130375797D02*
X156635343Y-130566273D01*
X156635343Y-130566273D02*
X156730581Y-130661511D01*
X156730581Y-130661511D02*
X156825819Y-130709130D01*
X134269269Y-96747105D02*
X133269269Y-96747105D01*
X133269269Y-96747105D02*
X133269269Y-96985200D01*
X133269269Y-96985200D02*
X133316888Y-97128057D01*
X133316888Y-97128057D02*
X133412126Y-97223295D01*
X133412126Y-97223295D02*
X133507364Y-97270914D01*
X133507364Y-97270914D02*
X133697840Y-97318533D01*
X133697840Y-97318533D02*
X133840697Y-97318533D01*
X133840697Y-97318533D02*
X134031173Y-97270914D01*
X134031173Y-97270914D02*
X134126411Y-97223295D01*
X134126411Y-97223295D02*
X134221650Y-97128057D01*
X134221650Y-97128057D02*
X134269269Y-96985200D01*
X134269269Y-96985200D02*
X134269269Y-96747105D01*
X133269269Y-97651867D02*
X133269269Y-98318533D01*
X133269269Y-98318533D02*
X134269269Y-97889962D01*
X134589269Y-93413295D02*
X133589269Y-93413295D01*
X134589269Y-93984723D02*
X134017840Y-93556152D01*
X133589269Y-93984723D02*
X134160697Y-93413295D01*
X167606769Y-96747105D02*
X166606769Y-96747105D01*
X166606769Y-96747105D02*
X166606769Y-96985200D01*
X166606769Y-96985200D02*
X166654388Y-97128057D01*
X166654388Y-97128057D02*
X166749626Y-97223295D01*
X166749626Y-97223295D02*
X166844864Y-97270914D01*
X166844864Y-97270914D02*
X167035340Y-97318533D01*
X167035340Y-97318533D02*
X167178197Y-97318533D01*
X167178197Y-97318533D02*
X167368673Y-97270914D01*
X167368673Y-97270914D02*
X167463911Y-97223295D01*
X167463911Y-97223295D02*
X167559150Y-97128057D01*
X167559150Y-97128057D02*
X167606769Y-96985200D01*
X167606769Y-96985200D02*
X167606769Y-96747105D01*
X167606769Y-97794724D02*
X167606769Y-97985200D01*
X167606769Y-97985200D02*
X167559150Y-98080438D01*
X167559150Y-98080438D02*
X167511530Y-98128057D01*
X167511530Y-98128057D02*
X167368673Y-98223295D01*
X167368673Y-98223295D02*
X167178197Y-98270914D01*
X167178197Y-98270914D02*
X166797245Y-98270914D01*
X166797245Y-98270914D02*
X166702007Y-98223295D01*
X166702007Y-98223295D02*
X166654388Y-98175676D01*
X166654388Y-98175676D02*
X166606769Y-98080438D01*
X166606769Y-98080438D02*
X166606769Y-97889962D01*
X166606769Y-97889962D02*
X166654388Y-97794724D01*
X166654388Y-97794724D02*
X166702007Y-97747105D01*
X166702007Y-97747105D02*
X166797245Y-97699486D01*
X166797245Y-97699486D02*
X167035340Y-97699486D01*
X167035340Y-97699486D02*
X167130578Y-97747105D01*
X167130578Y-97747105D02*
X167178197Y-97794724D01*
X167178197Y-97794724D02*
X167225816Y-97889962D01*
X167225816Y-97889962D02*
X167225816Y-98080438D01*
X167225816Y-98080438D02*
X167178197Y-98175676D01*
X167178197Y-98175676D02*
X167130578Y-98223295D01*
X167130578Y-98223295D02*
X167035340Y-98270914D01*
X167926769Y-93413295D02*
X166926769Y-93413295D01*
X167926769Y-93984723D02*
X167355340Y-93556152D01*
X166926769Y-93984723D02*
X167498197Y-93413295D01*
X184275519Y-96270914D02*
X183275519Y-96270914D01*
X183275519Y-96270914D02*
X183275519Y-96509009D01*
X183275519Y-96509009D02*
X183323138Y-96651866D01*
X183323138Y-96651866D02*
X183418376Y-96747104D01*
X183418376Y-96747104D02*
X183513614Y-96794723D01*
X183513614Y-96794723D02*
X183704090Y-96842342D01*
X183704090Y-96842342D02*
X183846947Y-96842342D01*
X183846947Y-96842342D02*
X184037423Y-96794723D01*
X184037423Y-96794723D02*
X184132661Y-96747104D01*
X184132661Y-96747104D02*
X184227900Y-96651866D01*
X184227900Y-96651866D02*
X184275519Y-96509009D01*
X184275519Y-96509009D02*
X184275519Y-96270914D01*
X184275519Y-97794723D02*
X184275519Y-97223295D01*
X184275519Y-97509009D02*
X183275519Y-97509009D01*
X183275519Y-97509009D02*
X183418376Y-97413771D01*
X183418376Y-97413771D02*
X183513614Y-97318533D01*
X183513614Y-97318533D02*
X183561233Y-97223295D01*
X183370757Y-98175676D02*
X183323138Y-98223295D01*
X183323138Y-98223295D02*
X183275519Y-98318533D01*
X183275519Y-98318533D02*
X183275519Y-98556628D01*
X183275519Y-98556628D02*
X183323138Y-98651866D01*
X183323138Y-98651866D02*
X183370757Y-98699485D01*
X183370757Y-98699485D02*
X183465995Y-98747104D01*
X183465995Y-98747104D02*
X183561233Y-98747104D01*
X183561233Y-98747104D02*
X183704090Y-98699485D01*
X183704090Y-98699485D02*
X184275519Y-98128057D01*
X184275519Y-98128057D02*
X184275519Y-98747104D01*
X184595519Y-93413295D02*
X183595519Y-93413295D01*
X184595519Y-93984723D02*
X184024090Y-93556152D01*
X183595519Y-93984723D02*
X184166947Y-93413295D01*
X150938019Y-63409605D02*
X149938019Y-63409605D01*
X149938019Y-63409605D02*
X149938019Y-63647700D01*
X149938019Y-63647700D02*
X149985638Y-63790557D01*
X149985638Y-63790557D02*
X150080876Y-63885795D01*
X150080876Y-63885795D02*
X150176114Y-63933414D01*
X150176114Y-63933414D02*
X150366590Y-63981033D01*
X150366590Y-63981033D02*
X150509447Y-63981033D01*
X150509447Y-63981033D02*
X150699923Y-63933414D01*
X150699923Y-63933414D02*
X150795161Y-63885795D01*
X150795161Y-63885795D02*
X150890400Y-63790557D01*
X150890400Y-63790557D02*
X150938019Y-63647700D01*
X150938019Y-63647700D02*
X150938019Y-63409605D01*
X150033257Y-64361986D02*
X149985638Y-64409605D01*
X149985638Y-64409605D02*
X149938019Y-64504843D01*
X149938019Y-64504843D02*
X149938019Y-64742938D01*
X149938019Y-64742938D02*
X149985638Y-64838176D01*
X149985638Y-64838176D02*
X150033257Y-64885795D01*
X150033257Y-64885795D02*
X150128495Y-64933414D01*
X150128495Y-64933414D02*
X150223733Y-64933414D01*
X150223733Y-64933414D02*
X150366590Y-64885795D01*
X150366590Y-64885795D02*
X150938019Y-64314367D01*
X150938019Y-64314367D02*
X150938019Y-64933414D01*
X151258019Y-60075795D02*
X150258019Y-60075795D01*
X151258019Y-60647223D02*
X150686590Y-60218652D01*
X150258019Y-60647223D02*
X150829447Y-60075795D01*
X150938019Y-80078355D02*
X149938019Y-80078355D01*
X149938019Y-80078355D02*
X149938019Y-80316450D01*
X149938019Y-80316450D02*
X149985638Y-80459307D01*
X149985638Y-80459307D02*
X150080876Y-80554545D01*
X150080876Y-80554545D02*
X150176114Y-80602164D01*
X150176114Y-80602164D02*
X150366590Y-80649783D01*
X150366590Y-80649783D02*
X150509447Y-80649783D01*
X150509447Y-80649783D02*
X150699923Y-80602164D01*
X150699923Y-80602164D02*
X150795161Y-80554545D01*
X150795161Y-80554545D02*
X150890400Y-80459307D01*
X150890400Y-80459307D02*
X150938019Y-80316450D01*
X150938019Y-80316450D02*
X150938019Y-80078355D01*
X149938019Y-81554545D02*
X149938019Y-81078355D01*
X149938019Y-81078355D02*
X150414209Y-81030736D01*
X150414209Y-81030736D02*
X150366590Y-81078355D01*
X150366590Y-81078355D02*
X150318971Y-81173593D01*
X150318971Y-81173593D02*
X150318971Y-81411688D01*
X150318971Y-81411688D02*
X150366590Y-81506926D01*
X150366590Y-81506926D02*
X150414209Y-81554545D01*
X150414209Y-81554545D02*
X150509447Y-81602164D01*
X150509447Y-81602164D02*
X150747542Y-81602164D01*
X150747542Y-81602164D02*
X150842780Y-81554545D01*
X150842780Y-81554545D02*
X150890400Y-81506926D01*
X150890400Y-81506926D02*
X150938019Y-81411688D01*
X150938019Y-81411688D02*
X150938019Y-81173593D01*
X150938019Y-81173593D02*
X150890400Y-81078355D01*
X150890400Y-81078355D02*
X150842780Y-81030736D01*
X151258019Y-76744545D02*
X150258019Y-76744545D01*
X151258019Y-77315973D02*
X150686590Y-76887402D01*
X150258019Y-77315973D02*
X150829447Y-76744545D01*
X167606769Y-112939664D02*
X166606769Y-112939664D01*
X166606769Y-112939664D02*
X166606769Y-113177759D01*
X166606769Y-113177759D02*
X166654388Y-113320616D01*
X166654388Y-113320616D02*
X166749626Y-113415854D01*
X166749626Y-113415854D02*
X166844864Y-113463473D01*
X166844864Y-113463473D02*
X167035340Y-113511092D01*
X167035340Y-113511092D02*
X167178197Y-113511092D01*
X167178197Y-113511092D02*
X167368673Y-113463473D01*
X167368673Y-113463473D02*
X167463911Y-113415854D01*
X167463911Y-113415854D02*
X167559150Y-113320616D01*
X167559150Y-113320616D02*
X167606769Y-113177759D01*
X167606769Y-113177759D02*
X167606769Y-112939664D01*
X167606769Y-114463473D02*
X167606769Y-113892045D01*
X167606769Y-114177759D02*
X166606769Y-114177759D01*
X166606769Y-114177759D02*
X166749626Y-114082521D01*
X166749626Y-114082521D02*
X166844864Y-113987283D01*
X166844864Y-113987283D02*
X166892483Y-113892045D01*
X166940102Y-115320616D02*
X167606769Y-115320616D01*
X166559150Y-115082521D02*
X167273435Y-114844426D01*
X167273435Y-114844426D02*
X167273435Y-115463473D01*
X167926769Y-110082045D02*
X166926769Y-110082045D01*
X167926769Y-110653473D02*
X167355340Y-110224902D01*
X166926769Y-110653473D02*
X167498197Y-110082045D01*
D12*
X169271950Y-61377700D02*
X169271950Y-62027700D01*
X170391950Y-62027700D02*
X170391950Y-66267700D01*
X168151950Y-62027700D02*
X170391950Y-62027700D01*
X168151950Y-62627700D02*
X170391950Y-62627700D01*
X168151950Y-62747700D02*
X170391950Y-62747700D01*
X168151950Y-62867700D02*
X170391950Y-62867700D01*
X170391950Y-66267700D02*
X168151950Y-66267700D01*
X168151950Y-66267700D02*
X168151950Y-62027700D01*
X169271950Y-66917700D02*
X169271950Y-66267700D01*
X185940700Y-78046450D02*
X185940700Y-78696450D01*
X187060700Y-78696450D02*
X187060700Y-82936450D01*
X184820700Y-78696450D02*
X187060700Y-78696450D01*
X184820700Y-79296450D02*
X187060700Y-79296450D01*
X184820700Y-79416450D02*
X187060700Y-79416450D01*
X184820700Y-79536450D02*
X187060700Y-79536450D01*
X187060700Y-82936450D02*
X184820700Y-82936450D01*
X184820700Y-82936450D02*
X184820700Y-78696450D01*
X185940700Y-83586450D02*
X185940700Y-82936450D01*
X152603200Y-111383950D02*
X152603200Y-112033950D01*
X153723200Y-112033950D02*
X153723200Y-116273950D01*
X151483200Y-112033950D02*
X153723200Y-112033950D01*
X151483200Y-112633950D02*
X153723200Y-112633950D01*
X151483200Y-112753950D02*
X153723200Y-112753950D01*
X151483200Y-112873950D02*
X153723200Y-112873950D01*
X153723200Y-116273950D02*
X151483200Y-116273950D01*
X151483200Y-116273950D02*
X151483200Y-112033950D01*
X152603200Y-116923950D02*
X152603200Y-116273950D01*
X135934450Y-78046450D02*
X135934450Y-78696450D01*
X137054450Y-78696450D02*
X137054450Y-82936450D01*
X134814450Y-78696450D02*
X137054450Y-78696450D01*
X134814450Y-79296450D02*
X137054450Y-79296450D01*
X134814450Y-79416450D02*
X137054450Y-79416450D01*
X134814450Y-79536450D02*
X137054450Y-79536450D01*
X137054450Y-82936450D02*
X134814450Y-82936450D01*
X134814450Y-82936450D02*
X134814450Y-78696450D01*
X135934450Y-83586450D02*
X135934450Y-82936450D01*
X152603200Y-94715200D02*
X152603200Y-95365200D01*
X153723200Y-95365200D02*
X153723200Y-99605200D01*
X151483200Y-95365200D02*
X153723200Y-95365200D01*
X151483200Y-95965200D02*
X153723200Y-95965200D01*
X151483200Y-96085200D02*
X153723200Y-96085200D01*
X151483200Y-96205200D02*
X153723200Y-96205200D01*
X153723200Y-99605200D02*
X151483200Y-99605200D01*
X151483200Y-99605200D02*
X151483200Y-95365200D01*
X152603200Y-100255200D02*
X152603200Y-99605200D01*
X185940700Y-61377700D02*
X185940700Y-62027700D01*
X187060700Y-62027700D02*
X187060700Y-66267700D01*
X184820700Y-62027700D02*
X187060700Y-62027700D01*
X184820700Y-62627700D02*
X187060700Y-62627700D01*
X184820700Y-62747700D02*
X187060700Y-62747700D01*
X184820700Y-62867700D02*
X187060700Y-62867700D01*
X187060700Y-66267700D02*
X184820700Y-66267700D01*
X184820700Y-66267700D02*
X184820700Y-62027700D01*
X185940700Y-66917700D02*
X185940700Y-66267700D01*
X185940700Y-111383950D02*
X185940700Y-112033950D01*
X187060700Y-112033950D02*
X187060700Y-116273950D01*
X184820700Y-112033950D02*
X187060700Y-112033950D01*
X184820700Y-112633950D02*
X187060700Y-112633950D01*
X184820700Y-112753950D02*
X187060700Y-112753950D01*
X184820700Y-112873950D02*
X187060700Y-112873950D01*
X187060700Y-116273950D02*
X184820700Y-116273950D01*
X184820700Y-116273950D02*
X184820700Y-112033950D01*
X185940700Y-116923950D02*
X185940700Y-116273950D01*
X135934450Y-111383950D02*
X135934450Y-112033950D01*
X137054450Y-112033950D02*
X137054450Y-116273950D01*
X134814450Y-112033950D02*
X137054450Y-112033950D01*
X134814450Y-112633950D02*
X137054450Y-112633950D01*
X134814450Y-112753950D02*
X137054450Y-112753950D01*
X134814450Y-112873950D02*
X137054450Y-112873950D01*
X137054450Y-116273950D02*
X134814450Y-116273950D01*
X134814450Y-116273950D02*
X134814450Y-112033950D01*
X135934450Y-116923950D02*
X135934450Y-116273950D01*
X135934450Y-61377700D02*
X135934450Y-62027700D01*
X137054450Y-62027700D02*
X137054450Y-66267700D01*
X134814450Y-62027700D02*
X137054450Y-62027700D01*
X134814450Y-62627700D02*
X137054450Y-62627700D01*
X134814450Y-62747700D02*
X137054450Y-62747700D01*
X134814450Y-62867700D02*
X137054450Y-62867700D01*
X137054450Y-66267700D02*
X134814450Y-66267700D01*
X134814450Y-66267700D02*
X134814450Y-62027700D01*
X135934450Y-66917700D02*
X135934450Y-66267700D01*
X169271950Y-78046450D02*
X169271950Y-78696450D01*
X170391950Y-78696450D02*
X170391950Y-82936450D01*
X168151950Y-78696450D02*
X170391950Y-78696450D01*
X168151950Y-79296450D02*
X170391950Y-79296450D01*
X168151950Y-79416450D02*
X170391950Y-79416450D01*
X168151950Y-79536450D02*
X170391950Y-79536450D01*
X170391950Y-82936450D02*
X168151950Y-82936450D01*
X168151950Y-82936450D02*
X168151950Y-78696450D01*
X169271950Y-83586450D02*
X169271950Y-82936450D01*
D13*
X146878200Y-139163950D02*
X146878200Y-122163950D01*
X148878200Y-120163950D02*
X162678200Y-120163950D01*
X151278200Y-135234680D02*
X151278200Y-142587980D01*
X151278200Y-142587980D02*
X160278200Y-142587980D01*
X160278200Y-135234680D02*
X151278200Y-135234680D01*
X160278200Y-142587980D02*
X160278200Y-135234680D01*
X162678200Y-141163040D02*
X148878200Y-141163040D01*
X164678200Y-122163950D02*
X164678200Y-139163950D01*
D12*
X148878200Y-120163951D02*
G75*
G03*
X146878201Y-122163950I44857J-2044856D01*
G01*
X146878201Y-139163950D02*
G75*
G03*
X148878200Y-141163949I2044611J44612D01*
G01*
X164678200Y-122163950D02*
G75*
G03*
X162678200Y-120163950I-2000000J0D01*
G01*
X162678200Y-141163949D02*
G75*
G03*
X164678199Y-139163950I-44610J2044609D01*
G01*
D14*
X144905200Y-139463950D02*
G75*
G03*
X144651200Y-139463950I-127000J0D01*
G01*
X144651200Y-139463950D02*
G75*
G03*
X144905200Y-139463950I127000J0D01*
G01*
D15*
X146897597Y-139323444D02*
X146893533Y-139274423D01*
X146890485Y-139225655D01*
X146897597Y-139323444D01*
X164630353Y-121801000D02*
X164639244Y-121849260D01*
X164646864Y-121897775D01*
X164653468Y-121946543D01*
X164658801Y-121995311D01*
X164662865Y-122044332D01*
X164665913Y-122093100D01*
X164667692Y-122142376D01*
X164620448Y-121752995D01*
X164630353Y-121801000D01*
D12*
X135934450Y-94715200D02*
X135934450Y-95365200D01*
X137054450Y-95365200D02*
X137054450Y-99605200D01*
X134814450Y-95365200D02*
X137054450Y-95365200D01*
X134814450Y-95965200D02*
X137054450Y-95965200D01*
X134814450Y-96085200D02*
X137054450Y-96085200D01*
X134814450Y-96205200D02*
X137054450Y-96205200D01*
X137054450Y-99605200D02*
X134814450Y-99605200D01*
X134814450Y-99605200D02*
X134814450Y-95365200D01*
X135934450Y-100255200D02*
X135934450Y-99605200D01*
X169271950Y-94715200D02*
X169271950Y-95365200D01*
X170391950Y-95365200D02*
X170391950Y-99605200D01*
X168151950Y-95365200D02*
X170391950Y-95365200D01*
X168151950Y-95965200D02*
X170391950Y-95965200D01*
X168151950Y-96085200D02*
X170391950Y-96085200D01*
X168151950Y-96205200D02*
X170391950Y-96205200D01*
X170391950Y-99605200D02*
X168151950Y-99605200D01*
X168151950Y-99605200D02*
X168151950Y-95365200D01*
X169271950Y-100255200D02*
X169271950Y-99605200D01*
X185940700Y-94715200D02*
X185940700Y-95365200D01*
X187060700Y-95365200D02*
X187060700Y-99605200D01*
X184820700Y-95365200D02*
X187060700Y-95365200D01*
X184820700Y-95965200D02*
X187060700Y-95965200D01*
X184820700Y-96085200D02*
X187060700Y-96085200D01*
X184820700Y-96205200D02*
X187060700Y-96205200D01*
X187060700Y-99605200D02*
X184820700Y-99605200D01*
X184820700Y-99605200D02*
X184820700Y-95365200D01*
X185940700Y-100255200D02*
X185940700Y-99605200D01*
X152603200Y-61377700D02*
X152603200Y-62027700D01*
X153723200Y-62027700D02*
X153723200Y-66267700D01*
X151483200Y-62027700D02*
X153723200Y-62027700D01*
X151483200Y-62627700D02*
X153723200Y-62627700D01*
X151483200Y-62747700D02*
X153723200Y-62747700D01*
X151483200Y-62867700D02*
X153723200Y-62867700D01*
X153723200Y-66267700D02*
X151483200Y-66267700D01*
X151483200Y-66267700D02*
X151483200Y-62027700D01*
X152603200Y-66917700D02*
X152603200Y-66267700D01*
X152603200Y-78046450D02*
X152603200Y-78696450D01*
X153723200Y-78696450D02*
X153723200Y-82936450D01*
X151483200Y-78696450D02*
X153723200Y-78696450D01*
X151483200Y-79296450D02*
X153723200Y-79296450D01*
X151483200Y-79416450D02*
X153723200Y-79416450D01*
X151483200Y-79536450D02*
X153723200Y-79536450D01*
X153723200Y-82936450D02*
X151483200Y-82936450D01*
X151483200Y-82936450D02*
X151483200Y-78696450D01*
X152603200Y-83586450D02*
X152603200Y-82936450D01*
X169271950Y-111383950D02*
X169271950Y-112033950D01*
X170391950Y-112033950D02*
X170391950Y-116273950D01*
X168151950Y-112033950D02*
X170391950Y-112033950D01*
X168151950Y-112633950D02*
X170391950Y-112633950D01*
X168151950Y-112753950D02*
X170391950Y-112753950D01*
X168151950Y-112873950D02*
X170391950Y-112873950D01*
X170391950Y-116273950D02*
X168151950Y-116273950D01*
X168151950Y-116273950D02*
X168151950Y-112033950D01*
X169271950Y-116923950D02*
X169271950Y-116273950D01*
%LPC*%
D16*
X130378200Y-78726450D03*
D17*
X135378200Y-73576450D03*
D18*
X130378200Y-84626450D03*
X125378200Y-82526450D03*
D16*
X163715700Y-112063950D03*
D17*
X168715700Y-106913950D03*
D18*
X163715700Y-117963950D03*
X158715700Y-115863950D03*
D16*
X130378200Y-62057700D03*
D17*
X135378200Y-56907700D03*
D18*
X130378200Y-67957700D03*
X125378200Y-65857700D03*
D16*
X147046950Y-95395200D03*
D17*
X152046950Y-90245200D03*
D18*
X147046950Y-101295200D03*
X142046950Y-99195200D03*
D16*
X163715700Y-95395200D03*
D17*
X168715700Y-90245200D03*
D18*
X163715700Y-101295200D03*
X158715700Y-99195200D03*
D16*
X180384450Y-95395200D03*
D17*
X185384450Y-90245200D03*
D18*
X180384450Y-101295200D03*
X175384450Y-99195200D03*
D16*
X163715700Y-78726450D03*
D17*
X168715700Y-73576450D03*
D18*
X163715700Y-84626450D03*
X158715700Y-82526450D03*
D16*
X180384450Y-62057700D03*
D17*
X185384450Y-56907700D03*
D18*
X180384450Y-67957700D03*
X175384450Y-65857700D03*
D16*
X130378200Y-95395200D03*
D17*
X135378200Y-90245200D03*
D18*
X130378200Y-101295200D03*
X125378200Y-99195200D03*
D19*
X119062500Y-137318750D03*
D16*
X147046950Y-62057700D03*
D17*
X152046950Y-56907700D03*
D18*
X147046950Y-67957700D03*
X142046950Y-65857700D03*
D19*
X192087500Y-51593750D03*
D16*
X180384450Y-78726450D03*
D17*
X185384450Y-73576450D03*
D18*
X180384450Y-84626450D03*
X175384450Y-82526450D03*
D16*
X163715700Y-62057700D03*
D17*
X168715700Y-56907700D03*
D18*
X163715700Y-67957700D03*
X158715700Y-65857700D03*
D16*
X130378200Y-112063950D03*
D17*
X135378200Y-106913950D03*
D18*
X130378200Y-117963950D03*
X125378200Y-115863950D03*
D16*
X147046950Y-78726450D03*
D17*
X152046950Y-73576450D03*
D18*
X147046950Y-84626450D03*
X142046950Y-82526450D03*
D16*
X180384450Y-112063950D03*
D17*
X185384450Y-106913950D03*
D18*
X180384450Y-117963950D03*
X175384450Y-115863950D03*
D16*
X147046950Y-112063950D03*
D17*
X152046950Y-106913950D03*
D18*
X147046950Y-117963950D03*
X142046950Y-115863950D03*
D19*
X119062500Y-51593750D03*
X192087500Y-137318750D03*
D20*
X169271950Y-60337700D03*
D21*
X169271950Y-67957700D03*
D20*
X185940700Y-77006450D03*
D21*
X185940700Y-84626450D03*
D20*
X152603200Y-110343950D03*
D21*
X152603200Y-117963950D03*
D20*
X135934450Y-77006450D03*
D21*
X135934450Y-84626450D03*
D20*
X152603200Y-93675200D03*
D21*
X152603200Y-101295200D03*
D20*
X185940700Y-60337700D03*
D21*
X185940700Y-67957700D03*
D20*
X185940700Y-110343950D03*
D21*
X185940700Y-117963950D03*
D20*
X135934450Y-110343950D03*
D21*
X135934450Y-117963950D03*
D20*
X135934450Y-60337700D03*
D21*
X135934450Y-67957700D03*
D20*
X169271950Y-77006450D03*
D21*
X169271950Y-84626450D03*
D22*
X147278200Y-138283950D03*
X147278200Y-135743950D03*
X147278200Y-133203950D03*
X147278200Y-130663950D03*
X147278200Y-128123950D03*
X147278200Y-125583950D03*
X147278200Y-123043950D03*
X164278200Y-123043950D03*
X164278200Y-125583950D03*
X164278200Y-128123950D03*
X164278200Y-130663950D03*
X164278200Y-133203950D03*
X164278200Y-135743950D03*
X164278200Y-138283950D03*
D23*
X154508200Y-139053950D03*
X157048200Y-139053950D03*
X154508200Y-136513950D03*
X157048200Y-136513950D03*
D24*
X154508200Y-122063950D03*
X157048200Y-122063950D03*
D20*
X135934450Y-93675200D03*
D21*
X135934450Y-101295200D03*
D20*
X169271950Y-93675200D03*
D21*
X169271950Y-101295200D03*
D20*
X185940700Y-93675200D03*
D21*
X185940700Y-101295200D03*
D20*
X152603200Y-60337700D03*
D21*
X152603200Y-67957700D03*
D20*
X152603200Y-77006450D03*
D21*
X152603200Y-84626450D03*
D20*
X169271950Y-110343950D03*
D21*
X169271950Y-117963950D03*
%LPD*%
M02*
