G04 #@! TF.GenerationSoftware,KiCad,Pcbnew,7.0.11*
G04 #@! TF.CreationDate,2024-09-14T21:56:28+02:00*
G04 #@! TF.ProjectId,macropad,6d616372-6f70-4616-942e-6b696361645f,rev?*
G04 #@! TF.SameCoordinates,Original*
G04 #@! TF.FileFunction,Soldermask,Top*
G04 #@! TF.FilePolarity,Negative*
%FSLAX46Y46*%
G04 Gerber Fmt 4.6, Leading zero omitted, Abs format (unit mm)*
G04 Created by KiCad (PCBNEW 7.0.11) date 2024-09-14 21:56:28*
%MOMM*%
%LPD*%
G01*
G04 APERTURE LIST*
%ADD10C,5.000000*%
%ADD11C,1.650000*%
%ADD12C,6.400000*%
%ADD13R,1.600000X1.600000*%
%ADD14O,1.600000X1.600000*%
G04 APERTURE END LIST*
D10*
X130378200Y-78726450D03*
D11*
X135378200Y-73576450D03*
D10*
X163715700Y-112063950D03*
D11*
X168715700Y-106913950D03*
D10*
X130378200Y-62057700D03*
D11*
X135378200Y-56907700D03*
D10*
X147046950Y-95395200D03*
D11*
X152046950Y-90245200D03*
D10*
X163715700Y-95395200D03*
D11*
X168715700Y-90245200D03*
D10*
X180384450Y-95395200D03*
D11*
X185384450Y-90245200D03*
D10*
X163715700Y-78726450D03*
D11*
X168715700Y-73576450D03*
D10*
X180384450Y-62057700D03*
D11*
X185384450Y-56907700D03*
D10*
X130378200Y-95395200D03*
D11*
X135378200Y-90245200D03*
D12*
X119062500Y-137318750D03*
D10*
X147046950Y-62057700D03*
D11*
X152046950Y-56907700D03*
D12*
X192087500Y-51593750D03*
D10*
X180384450Y-78726450D03*
D11*
X185384450Y-73576450D03*
D10*
X163715700Y-62057700D03*
D11*
X168715700Y-56907700D03*
D10*
X130378200Y-112063950D03*
D11*
X135378200Y-106913950D03*
D10*
X147046950Y-78726450D03*
D11*
X152046950Y-73576450D03*
D10*
X180384450Y-112063950D03*
D11*
X185384450Y-106913950D03*
D10*
X147046950Y-112063950D03*
D11*
X152046950Y-106913950D03*
D12*
X119062500Y-51593750D03*
X192087500Y-137318750D03*
D13*
X169271950Y-60337700D03*
D14*
X169271950Y-67957700D03*
D13*
X185940700Y-77006450D03*
D14*
X185940700Y-84626450D03*
D13*
X152603200Y-110343950D03*
D14*
X152603200Y-117963950D03*
D13*
X135934450Y-77006450D03*
D14*
X135934450Y-84626450D03*
D13*
X152603200Y-93675200D03*
D14*
X152603200Y-101295200D03*
D13*
X185940700Y-60337700D03*
D14*
X185940700Y-67957700D03*
D13*
X185940700Y-110343950D03*
D14*
X185940700Y-117963950D03*
D13*
X135934450Y-110343950D03*
D14*
X135934450Y-117963950D03*
D13*
X135934450Y-60337700D03*
D14*
X135934450Y-67957700D03*
D13*
X169271950Y-77006450D03*
D14*
X169271950Y-84626450D03*
D13*
X135934450Y-93675200D03*
D14*
X135934450Y-101295200D03*
D13*
X169271950Y-93675200D03*
D14*
X169271950Y-101295200D03*
D13*
X185940700Y-93675200D03*
D14*
X185940700Y-101295200D03*
D13*
X152603200Y-60337700D03*
D14*
X152603200Y-67957700D03*
D13*
X152603200Y-77006450D03*
D14*
X152603200Y-84626450D03*
D13*
X169271950Y-110343950D03*
D14*
X169271950Y-117963950D03*
M02*
