%TF.GenerationSoftware,KiCad,Pcbnew,7.0.11*%
%TF.CreationDate,2024-09-20T17:58:10+02:00*%
%TF.ProjectId,macropad,6d616372-6f70-4616-942e-6b696361645f,rev?*%
%TF.SameCoordinates,Original*%
%TF.FileFunction,Drillmap*%
%TF.FilePolarity,Positive*%
%FSLAX45Y45*%
G04 Gerber Fmt 4.5, Leading zero omitted, Abs format (unit mm)*
G04 Created by KiCad (PCBNEW 7.0.11) date 2024-09-20 17:58:10*
%MOMM*%
%LPD*%
G01*
G04 APERTURE LIST*
%ADD10C,0.050000*%
%ADD11C,0.200000*%
%ADD12C,0.100000*%
%ADD13C,0.320000*%
G04 APERTURE END LIST*
D10*
X12380133Y-14703750D02*
X20093125Y-14703750D01*
X12380133Y-4971103D02*
G75*
G03*
X12062633Y-5288605I7J-317507D01*
G01*
X20410625Y-14386250D02*
X20410625Y-5288605D01*
X12062640Y-14386250D02*
G75*
G03*
X12380133Y-14703750I317490J-10D01*
G01*
X12062633Y-5288605D02*
X12062633Y-14386250D01*
X20410625Y-5288605D02*
G75*
G03*
X20093125Y-4971105I-317505J-5D01*
G01*
X20093125Y-4971105D02*
X12380133Y-4971105D01*
X20093125Y-14703755D02*
G75*
G03*
X20410625Y-14386250I-15J317515D01*
G01*
D11*
D12*
X12436875Y-7595000D02*
X12486875Y-7645000D01*
X12486875Y-7595000D02*
X12436875Y-7645000D01*
X12436875Y-12198750D02*
X12486875Y-12248750D01*
X12486875Y-12198750D02*
X12436875Y-12248750D01*
X12448125Y-13726250D02*
X12498125Y-13776250D01*
X12498125Y-13726250D02*
X12448125Y-13776250D01*
X12516250Y-8626875D02*
X12566250Y-8676875D01*
X12566250Y-8626875D02*
X12516250Y-8676875D01*
X12595625Y-10135000D02*
X12645625Y-10185000D01*
X12645625Y-10135000D02*
X12595625Y-10185000D01*
X12606875Y-6106250D02*
X12656875Y-6156250D01*
X12656875Y-6106250D02*
X12606875Y-6156250D01*
X13706875Y-13151250D02*
X13756875Y-13201250D01*
X13756875Y-13151250D02*
X13706875Y-13201250D01*
X13786250Y-11405000D02*
X13836250Y-11455000D01*
X13836250Y-11405000D02*
X13786250Y-11455000D01*
X13865625Y-9738125D02*
X13915625Y-9788125D01*
X13915625Y-9738125D02*
X13865625Y-9788125D01*
X14341875Y-7436250D02*
X14391875Y-7486250D01*
X14391875Y-7436250D02*
X14341875Y-7486250D01*
X14659375Y-5213750D02*
X14709375Y-5263750D01*
X14709375Y-5213750D02*
X14659375Y-5263750D01*
X14897500Y-14421250D02*
X14947500Y-14471250D01*
X14947500Y-14421250D02*
X14897500Y-14471250D01*
X15373750Y-11325625D02*
X15423750Y-11375625D01*
X15423750Y-11325625D02*
X15373750Y-11375625D01*
X15453125Y-8071250D02*
X15503125Y-8121250D01*
X15503125Y-8071250D02*
X15453125Y-8121250D01*
X15453125Y-9579375D02*
X15503125Y-9629375D01*
X15503125Y-9579375D02*
X15453125Y-9629375D01*
X15532500Y-13071875D02*
X15582500Y-13121875D01*
X15582500Y-13071875D02*
X15532500Y-13121875D01*
X15770625Y-7356875D02*
X15820625Y-7406875D01*
X15820625Y-7356875D02*
X15770625Y-7406875D01*
X15850000Y-6642500D02*
X15900000Y-6692500D01*
X15900000Y-6642500D02*
X15850000Y-6692500D01*
X16326250Y-5848750D02*
X16376250Y-5898750D01*
X16376250Y-5848750D02*
X16326250Y-5898750D01*
X16643750Y-14421250D02*
X16693750Y-14471250D01*
X16693750Y-14421250D02*
X16643750Y-14471250D01*
X16723125Y-6086875D02*
X16773125Y-6136875D01*
X16773125Y-6086875D02*
X16723125Y-6136875D01*
X16881875Y-6245625D02*
X16931875Y-6295625D01*
X16931875Y-6245625D02*
X16881875Y-6295625D01*
X16961250Y-5134375D02*
X17011250Y-5184375D01*
X17011250Y-5134375D02*
X16961250Y-5184375D01*
X16961250Y-11405000D02*
X17011250Y-11455000D01*
X17011250Y-11405000D02*
X16961250Y-11455000D01*
X17040625Y-9658750D02*
X17090625Y-9708750D01*
X17090625Y-9658750D02*
X17040625Y-9708750D01*
X17120000Y-6563125D02*
X17170000Y-6613125D01*
X17170000Y-6563125D02*
X17120000Y-6613125D01*
X17120000Y-7674375D02*
X17170000Y-7724375D01*
X17170000Y-7674375D02*
X17120000Y-7724375D01*
X17120000Y-7991875D02*
X17170000Y-8041875D01*
X17170000Y-7991875D02*
X17120000Y-8041875D01*
X17120000Y-13071875D02*
X17170000Y-13121875D01*
X17170000Y-13071875D02*
X17120000Y-13121875D01*
X17199375Y-5531250D02*
X17249375Y-5581250D01*
X17249375Y-5531250D02*
X17199375Y-5581250D01*
X17596250Y-7118750D02*
X17646250Y-7168750D01*
X17646250Y-7118750D02*
X17596250Y-7168750D01*
X17913750Y-6642500D02*
X17963750Y-6692500D01*
X17963750Y-6642500D02*
X17913750Y-6692500D01*
X17913750Y-7198125D02*
X17963750Y-7248125D01*
X17963750Y-7198125D02*
X17913750Y-7248125D01*
X17913750Y-8071250D02*
X17963750Y-8121250D01*
X17963750Y-8071250D02*
X17913750Y-8121250D01*
X18072500Y-5769375D02*
X18122500Y-5819375D01*
X18122500Y-5769375D02*
X18072500Y-5819375D01*
X18310625Y-14421250D02*
X18360625Y-14471250D01*
X18360625Y-14421250D02*
X18310625Y-14471250D01*
X18548750Y-7198125D02*
X18598750Y-7248125D01*
X18598750Y-7198125D02*
X18548750Y-7248125D01*
X18548750Y-7991875D02*
X18598750Y-8041875D01*
X18598750Y-7991875D02*
X18548750Y-8041875D01*
X18707500Y-11246250D02*
X18757500Y-11296250D01*
X18757500Y-11246250D02*
X18707500Y-11296250D01*
X18866250Y-9579375D02*
X18916250Y-9629375D01*
X18916250Y-9579375D02*
X18866250Y-9629375D01*
X18945625Y-6245625D02*
X18995625Y-6295625D01*
X18995625Y-6245625D02*
X18945625Y-6295625D01*
X18945625Y-6404375D02*
X18995625Y-6454375D01*
X18995625Y-6404375D02*
X18945625Y-6454375D01*
X18945625Y-11166875D02*
X18995625Y-11216875D01*
X18995625Y-11166875D02*
X18945625Y-11216875D01*
X18945625Y-12913125D02*
X18995625Y-12963125D01*
X18995625Y-12913125D02*
X18945625Y-12963125D01*
X19183750Y-7118750D02*
X19233750Y-7168750D01*
X19233750Y-7118750D02*
X19183750Y-7168750D01*
X19183750Y-7912500D02*
X19233750Y-7962500D01*
X19233750Y-7912500D02*
X19183750Y-7962500D01*
X19263125Y-8865000D02*
X19313125Y-8915000D01*
X19313125Y-8865000D02*
X19263125Y-8915000D01*
X19421875Y-10611250D02*
X19471875Y-10661250D01*
X19471875Y-10611250D02*
X19421875Y-10661250D01*
X19580625Y-5610625D02*
X19630625Y-5660625D01*
X19630625Y-5610625D02*
X19580625Y-5660625D01*
X19580625Y-12357500D02*
X19630625Y-12407500D01*
X19630625Y-12357500D02*
X19580625Y-12407500D01*
X19988750Y-13726250D02*
X20038750Y-13776250D01*
X20038750Y-13726250D02*
X19988750Y-13776250D01*
X20056875Y-8626875D02*
X20106875Y-8676875D01*
X20106875Y-8626875D02*
X20056875Y-8676875D01*
X20056875Y-10293750D02*
X20106875Y-10343750D01*
X20106875Y-10293750D02*
X20056875Y-10343750D01*
X20068125Y-6185625D02*
X20118125Y-6235625D01*
X20118125Y-6185625D02*
X20068125Y-6235625D01*
X20136250Y-7436250D02*
X20186250Y-7486250D01*
X20186250Y-7436250D02*
X20136250Y-7486250D01*
X20136250Y-12675000D02*
X20186250Y-12725000D01*
X20186250Y-12675000D02*
X20136250Y-12725000D01*
X18445000Y-5873750D02*
G75*
G03*
X18385000Y-5873750I-30000J0D01*
G01*
X18385000Y-5873750D02*
G75*
G03*
X18445000Y-5873750I30000J0D01*
G01*
X14298750Y-8504250D02*
X14298750Y-8584250D01*
X14258750Y-8544250D02*
X14338750Y-8544250D01*
X14298750Y-9266250D02*
X14298750Y-9346250D01*
X14258750Y-9306250D02*
X14338750Y-9306250D01*
X14298750Y-10171125D02*
X14298750Y-10251125D01*
X14258750Y-10211125D02*
X14338750Y-10211125D01*
X14298750Y-10933125D02*
X14298750Y-11013125D01*
X14258750Y-10973125D02*
X14338750Y-10973125D01*
X14298750Y-11838000D02*
X14298750Y-11918000D01*
X14258750Y-11878000D02*
X14338750Y-11878000D01*
X14298750Y-12600000D02*
X14298750Y-12680000D01*
X14258750Y-12640000D02*
X14338750Y-12640000D01*
X14298750Y-13504875D02*
X14298750Y-13584875D01*
X14258750Y-13544875D02*
X14338750Y-13544875D01*
X14298750Y-14266875D02*
X14298750Y-14346875D01*
X14258750Y-14306875D02*
X14338750Y-14306875D01*
X15965625Y-8504250D02*
X15965625Y-8584250D01*
X15925625Y-8544250D02*
X16005625Y-8544250D01*
X15965625Y-9266250D02*
X15965625Y-9346250D01*
X15925625Y-9306250D02*
X16005625Y-9306250D01*
X15965625Y-10171125D02*
X15965625Y-10251125D01*
X15925625Y-10211125D02*
X16005625Y-10211125D01*
X15965625Y-10933125D02*
X15965625Y-11013125D01*
X15925625Y-10973125D02*
X16005625Y-10973125D01*
X15965625Y-11838000D02*
X15965625Y-11918000D01*
X15925625Y-11878000D02*
X16005625Y-11878000D01*
X15965625Y-12600000D02*
X15965625Y-12680000D01*
X15925625Y-12640000D02*
X16005625Y-12640000D01*
X15965625Y-13504875D02*
X15965625Y-13584875D01*
X15925625Y-13544875D02*
X16005625Y-13544875D01*
X15965625Y-14266875D02*
X15965625Y-14346875D01*
X15925625Y-14306875D02*
X16005625Y-14306875D01*
X17632500Y-8504250D02*
X17632500Y-8584250D01*
X17592500Y-8544250D02*
X17672500Y-8544250D01*
X17632500Y-9266250D02*
X17632500Y-9346250D01*
X17592500Y-9306250D02*
X17672500Y-9306250D01*
X17632500Y-10171125D02*
X17632500Y-10251125D01*
X17592500Y-10211125D02*
X17672500Y-10211125D01*
X17632500Y-10933125D02*
X17632500Y-11013125D01*
X17592500Y-10973125D02*
X17672500Y-10973125D01*
X17632500Y-11838000D02*
X17632500Y-11918000D01*
X17592500Y-11878000D02*
X17672500Y-11878000D01*
X17632500Y-12600000D02*
X17632500Y-12680000D01*
X17592500Y-12640000D02*
X17672500Y-12640000D01*
X17632500Y-13504875D02*
X17632500Y-13584875D01*
X17592500Y-13544875D02*
X17672500Y-13544875D01*
X17632500Y-14266875D02*
X17632500Y-14346875D01*
X17592500Y-14306875D02*
X17672500Y-14306875D01*
X19299375Y-8504250D02*
X19299375Y-8584250D01*
X19259375Y-8544250D02*
X19339375Y-8544250D01*
X19299375Y-9266250D02*
X19299375Y-9346250D01*
X19259375Y-9306250D02*
X19339375Y-9306250D01*
X19299375Y-10171125D02*
X19299375Y-10251125D01*
X19259375Y-10211125D02*
X19339375Y-10211125D01*
X19299375Y-10933125D02*
X19299375Y-11013125D01*
X19259375Y-10973125D02*
X19339375Y-10973125D01*
X19299375Y-11838000D02*
X19299375Y-11918000D01*
X19259375Y-11878000D02*
X19339375Y-11878000D01*
X19299375Y-12600000D02*
X19299375Y-12680000D01*
X19259375Y-12640000D02*
X19339375Y-12640000D01*
X19299375Y-13504875D02*
X19299375Y-13584875D01*
X19259375Y-13544875D02*
X19339375Y-13544875D01*
X19299375Y-14266875D02*
X19299375Y-14346875D01*
X19259375Y-14306875D02*
X19339375Y-14306875D01*
X13278481Y-9131606D02*
X13278481Y-9060894D01*
X13207769Y-9060894D01*
X13207769Y-9131606D01*
X13278481Y-9131606D01*
X13278481Y-10798481D02*
X13278481Y-10727769D01*
X13207769Y-10727769D01*
X13207769Y-10798481D01*
X13278481Y-10798481D01*
X13278481Y-12465356D02*
X13278481Y-12394644D01*
X13207769Y-12394644D01*
X13207769Y-12465356D01*
X13278481Y-12465356D01*
X13278481Y-14132231D02*
X13278481Y-14061519D01*
X13207769Y-14061519D01*
X13207769Y-14132231D01*
X13278481Y-14132231D01*
X13778481Y-9341606D02*
X13778481Y-9270894D01*
X13707769Y-9270894D01*
X13707769Y-9341606D01*
X13778481Y-9341606D01*
X13778481Y-11008481D02*
X13778481Y-10937769D01*
X13707769Y-10937769D01*
X13707769Y-11008481D01*
X13778481Y-11008481D01*
X13778481Y-12675356D02*
X13778481Y-12604644D01*
X13707769Y-12604644D01*
X13707769Y-12675356D01*
X13778481Y-12675356D01*
X13778481Y-14342231D02*
X13778481Y-14271519D01*
X13707769Y-14271519D01*
X13707769Y-14342231D01*
X13778481Y-14342231D01*
X14278481Y-8236606D02*
X14278481Y-8165894D01*
X14207769Y-8165894D01*
X14207769Y-8236606D01*
X14278481Y-8236606D01*
X14278481Y-9903481D02*
X14278481Y-9832769D01*
X14207769Y-9832769D01*
X14207769Y-9903481D01*
X14278481Y-9903481D01*
X14278481Y-11570356D02*
X14278481Y-11499644D01*
X14207769Y-11499644D01*
X14207769Y-11570356D01*
X14278481Y-11570356D01*
X14278481Y-13237231D02*
X14278481Y-13166519D01*
X14207769Y-13166519D01*
X14207769Y-13237231D01*
X14278481Y-13237231D01*
X14945356Y-9131606D02*
X14945356Y-9060894D01*
X14874644Y-9060894D01*
X14874644Y-9131606D01*
X14945356Y-9131606D01*
X14945356Y-10798481D02*
X14945356Y-10727769D01*
X14874644Y-10727769D01*
X14874644Y-10798481D01*
X14945356Y-10798481D01*
X14945356Y-12465356D02*
X14945356Y-12394644D01*
X14874644Y-12394644D01*
X14874644Y-12465356D01*
X14945356Y-12465356D01*
X14945356Y-14132231D02*
X14945356Y-14061519D01*
X14874644Y-14061519D01*
X14874644Y-14132231D01*
X14945356Y-14132231D01*
X15445356Y-9341606D02*
X15445356Y-9270894D01*
X15374644Y-9270894D01*
X15374644Y-9341606D01*
X15445356Y-9341606D01*
X15445356Y-11008481D02*
X15445356Y-10937769D01*
X15374644Y-10937769D01*
X15374644Y-11008481D01*
X15445356Y-11008481D01*
X15445356Y-12675356D02*
X15445356Y-12604644D01*
X15374644Y-12604644D01*
X15374644Y-12675356D01*
X15445356Y-12675356D01*
X15445356Y-14342231D02*
X15445356Y-14271519D01*
X15374644Y-14271519D01*
X15374644Y-14342231D01*
X15445356Y-14342231D01*
X15945356Y-8236606D02*
X15945356Y-8165894D01*
X15874644Y-8165894D01*
X15874644Y-8236606D01*
X15945356Y-8236606D01*
X15945356Y-9903481D02*
X15945356Y-9832769D01*
X15874644Y-9832769D01*
X15874644Y-9903481D01*
X15945356Y-9903481D01*
X15945356Y-11570356D02*
X15945356Y-11499644D01*
X15874644Y-11499644D01*
X15874644Y-11570356D01*
X15945356Y-11570356D01*
X15945356Y-13237231D02*
X15945356Y-13166519D01*
X15874644Y-13166519D01*
X15874644Y-13237231D01*
X15945356Y-13237231D01*
X16032731Y-5289106D02*
X16032731Y-5218394D01*
X15962019Y-5218394D01*
X15962019Y-5289106D01*
X16032731Y-5289106D01*
X16286731Y-5289106D02*
X16286731Y-5218394D01*
X16216019Y-5218394D01*
X16216019Y-5289106D01*
X16286731Y-5289106D01*
X16540731Y-5289106D02*
X16540731Y-5218394D01*
X16470019Y-5218394D01*
X16470019Y-5289106D01*
X16540731Y-5289106D01*
X16612231Y-9131606D02*
X16612231Y-9060894D01*
X16541519Y-9060894D01*
X16541519Y-9131606D01*
X16612231Y-9131606D01*
X16612231Y-10798481D02*
X16612231Y-10727769D01*
X16541519Y-10727769D01*
X16541519Y-10798481D01*
X16612231Y-10798481D01*
X16612231Y-12465356D02*
X16612231Y-12394644D01*
X16541519Y-12394644D01*
X16541519Y-12465356D01*
X16612231Y-12465356D01*
X16612231Y-14132231D02*
X16612231Y-14061519D01*
X16541519Y-14061519D01*
X16541519Y-14132231D01*
X16612231Y-14132231D01*
X16794731Y-5289106D02*
X16794731Y-5218394D01*
X16724019Y-5218394D01*
X16724019Y-5289106D01*
X16794731Y-5289106D01*
X17112231Y-9341606D02*
X17112231Y-9270894D01*
X17041519Y-9270894D01*
X17041519Y-9341606D01*
X17112231Y-9341606D01*
X17112231Y-11008481D02*
X17112231Y-10937769D01*
X17041519Y-10937769D01*
X17041519Y-11008481D01*
X17112231Y-11008481D01*
X17112231Y-12675356D02*
X17112231Y-12604644D01*
X17041519Y-12604644D01*
X17041519Y-12675356D01*
X17112231Y-12675356D01*
X17112231Y-14342231D02*
X17112231Y-14271519D01*
X17041519Y-14271519D01*
X17041519Y-14342231D01*
X17112231Y-14342231D01*
X17612231Y-8236606D02*
X17612231Y-8165894D01*
X17541519Y-8165894D01*
X17541519Y-8236606D01*
X17612231Y-8236606D01*
X17612231Y-9903481D02*
X17612231Y-9832769D01*
X17541519Y-9832769D01*
X17541519Y-9903481D01*
X17612231Y-9903481D01*
X17612231Y-11570356D02*
X17612231Y-11499644D01*
X17541519Y-11499644D01*
X17541519Y-11570356D01*
X17612231Y-11570356D01*
X17612231Y-13237231D02*
X17612231Y-13166519D01*
X17541519Y-13166519D01*
X17541519Y-13237231D01*
X17612231Y-13237231D01*
X18279106Y-9131606D02*
X18279106Y-9060894D01*
X18208394Y-9060894D01*
X18208394Y-9131606D01*
X18279106Y-9131606D01*
X18279106Y-10798481D02*
X18279106Y-10727769D01*
X18208394Y-10727769D01*
X18208394Y-10798481D01*
X18279106Y-10798481D01*
X18279106Y-12465356D02*
X18279106Y-12394644D01*
X18208394Y-12394644D01*
X18208394Y-12465356D01*
X18279106Y-12465356D01*
X18279106Y-14132231D02*
X18279106Y-14061519D01*
X18208394Y-14061519D01*
X18208394Y-14132231D01*
X18279106Y-14132231D01*
X18779106Y-9341606D02*
X18779106Y-9270894D01*
X18708394Y-9270894D01*
X18708394Y-9341606D01*
X18779106Y-9341606D01*
X18779106Y-11008481D02*
X18779106Y-10937769D01*
X18708394Y-10937769D01*
X18708394Y-11008481D01*
X18779106Y-11008481D01*
X18779106Y-12675356D02*
X18779106Y-12604644D01*
X18708394Y-12604644D01*
X18708394Y-12675356D01*
X18779106Y-12675356D01*
X18779106Y-14342231D02*
X18779106Y-14271519D01*
X18708394Y-14271519D01*
X18708394Y-14342231D01*
X18779106Y-14342231D01*
X19279106Y-8236606D02*
X19279106Y-8165894D01*
X19208394Y-8165894D01*
X19208394Y-8236606D01*
X19279106Y-8236606D01*
X19279106Y-9903481D02*
X19279106Y-9832769D01*
X19208394Y-9832769D01*
X19208394Y-9903481D01*
X19279106Y-9903481D01*
X19279106Y-11570356D02*
X19279106Y-11499644D01*
X19208394Y-11499644D01*
X19208394Y-11570356D01*
X19279106Y-11570356D01*
X19279106Y-13237231D02*
X19279106Y-13166519D01*
X19208394Y-13166519D01*
X19208394Y-13237231D01*
X19279106Y-13237231D01*
D13*
X12473125Y-5576875D02*
X12633125Y-5416875D01*
X12473125Y-5256875D01*
X12313125Y-5416875D01*
X12473125Y-5576875D01*
X12473125Y-14466875D02*
X12633125Y-14306875D01*
X12473125Y-14146875D01*
X12313125Y-14306875D01*
X12473125Y-14466875D01*
X20013750Y-5576875D02*
X20173750Y-5416875D01*
X20013750Y-5256875D01*
X19853750Y-5416875D01*
X20013750Y-5576875D01*
X20013750Y-14466875D02*
X20173750Y-14306875D01*
X20013750Y-14146875D01*
X19853750Y-14306875D01*
X20013750Y-14466875D01*
D11*
X12320910Y-15017734D02*
X12320910Y-14817734D01*
X12320910Y-14817734D02*
X12368529Y-14817734D01*
X12368529Y-14817734D02*
X12397100Y-14827258D01*
X12397100Y-14827258D02*
X12416148Y-14846305D01*
X12416148Y-14846305D02*
X12425672Y-14865353D01*
X12425672Y-14865353D02*
X12435195Y-14903448D01*
X12435195Y-14903448D02*
X12435195Y-14932019D01*
X12435195Y-14932019D02*
X12425672Y-14970115D01*
X12425672Y-14970115D02*
X12416148Y-14989162D01*
X12416148Y-14989162D02*
X12397100Y-15008210D01*
X12397100Y-15008210D02*
X12368529Y-15017734D01*
X12368529Y-15017734D02*
X12320910Y-15017734D01*
X12520910Y-15017734D02*
X12520910Y-14884400D01*
X12520910Y-14922496D02*
X12530433Y-14903448D01*
X12530433Y-14903448D02*
X12539957Y-14893924D01*
X12539957Y-14893924D02*
X12559005Y-14884400D01*
X12559005Y-14884400D02*
X12578053Y-14884400D01*
X12644719Y-15017734D02*
X12644719Y-14884400D01*
X12644719Y-14817734D02*
X12635195Y-14827258D01*
X12635195Y-14827258D02*
X12644719Y-14836781D01*
X12644719Y-14836781D02*
X12654243Y-14827258D01*
X12654243Y-14827258D02*
X12644719Y-14817734D01*
X12644719Y-14817734D02*
X12644719Y-14836781D01*
X12768529Y-15017734D02*
X12749481Y-15008210D01*
X12749481Y-15008210D02*
X12739957Y-14989162D01*
X12739957Y-14989162D02*
X12739957Y-14817734D01*
X12873291Y-15017734D02*
X12854243Y-15008210D01*
X12854243Y-15008210D02*
X12844719Y-14989162D01*
X12844719Y-14989162D02*
X12844719Y-14817734D01*
X13101862Y-15017734D02*
X13101862Y-14817734D01*
X13101862Y-14817734D02*
X13168529Y-14960591D01*
X13168529Y-14960591D02*
X13235195Y-14817734D01*
X13235195Y-14817734D02*
X13235195Y-15017734D01*
X13416148Y-15017734D02*
X13416148Y-14912972D01*
X13416148Y-14912972D02*
X13406624Y-14893924D01*
X13406624Y-14893924D02*
X13387576Y-14884400D01*
X13387576Y-14884400D02*
X13349481Y-14884400D01*
X13349481Y-14884400D02*
X13330433Y-14893924D01*
X13416148Y-15008210D02*
X13397100Y-15017734D01*
X13397100Y-15017734D02*
X13349481Y-15017734D01*
X13349481Y-15017734D02*
X13330433Y-15008210D01*
X13330433Y-15008210D02*
X13320910Y-14989162D01*
X13320910Y-14989162D02*
X13320910Y-14970115D01*
X13320910Y-14970115D02*
X13330433Y-14951067D01*
X13330433Y-14951067D02*
X13349481Y-14941543D01*
X13349481Y-14941543D02*
X13397100Y-14941543D01*
X13397100Y-14941543D02*
X13416148Y-14932019D01*
X13511386Y-14884400D02*
X13511386Y-15084400D01*
X13511386Y-14893924D02*
X13530433Y-14884400D01*
X13530433Y-14884400D02*
X13568529Y-14884400D01*
X13568529Y-14884400D02*
X13587576Y-14893924D01*
X13587576Y-14893924D02*
X13597100Y-14903448D01*
X13597100Y-14903448D02*
X13606624Y-14922496D01*
X13606624Y-14922496D02*
X13606624Y-14979638D01*
X13606624Y-14979638D02*
X13597100Y-14998686D01*
X13597100Y-14998686D02*
X13587576Y-15008210D01*
X13587576Y-15008210D02*
X13568529Y-15017734D01*
X13568529Y-15017734D02*
X13530433Y-15017734D01*
X13530433Y-15017734D02*
X13511386Y-15008210D01*
X13692338Y-14998686D02*
X13701862Y-15008210D01*
X13701862Y-15008210D02*
X13692338Y-15017734D01*
X13692338Y-15017734D02*
X13682814Y-15008210D01*
X13682814Y-15008210D02*
X13692338Y-14998686D01*
X13692338Y-14998686D02*
X13692338Y-15017734D01*
X13692338Y-14893924D02*
X13701862Y-14903448D01*
X13701862Y-14903448D02*
X13692338Y-14912972D01*
X13692338Y-14912972D02*
X13682814Y-14903448D01*
X13682814Y-14903448D02*
X13692338Y-14893924D01*
X13692338Y-14893924D02*
X13692338Y-14912972D01*
D12*
X12010133Y-15321250D02*
X12060133Y-15371250D01*
X12060133Y-15321250D02*
X12010133Y-15371250D01*
D11*
X12359005Y-15237734D02*
X12378053Y-15237734D01*
X12378053Y-15237734D02*
X12397100Y-15247258D01*
X12397100Y-15247258D02*
X12406624Y-15256781D01*
X12406624Y-15256781D02*
X12416148Y-15275829D01*
X12416148Y-15275829D02*
X12425672Y-15313924D01*
X12425672Y-15313924D02*
X12425672Y-15361543D01*
X12425672Y-15361543D02*
X12416148Y-15399638D01*
X12416148Y-15399638D02*
X12406624Y-15418686D01*
X12406624Y-15418686D02*
X12397100Y-15428210D01*
X12397100Y-15428210D02*
X12378053Y-15437734D01*
X12378053Y-15437734D02*
X12359005Y-15437734D01*
X12359005Y-15437734D02*
X12339957Y-15428210D01*
X12339957Y-15428210D02*
X12330433Y-15418686D01*
X12330433Y-15418686D02*
X12320910Y-15399638D01*
X12320910Y-15399638D02*
X12311386Y-15361543D01*
X12311386Y-15361543D02*
X12311386Y-15313924D01*
X12311386Y-15313924D02*
X12320910Y-15275829D01*
X12320910Y-15275829D02*
X12330433Y-15256781D01*
X12330433Y-15256781D02*
X12339957Y-15247258D01*
X12339957Y-15247258D02*
X12359005Y-15237734D01*
X12511386Y-15418686D02*
X12520910Y-15428210D01*
X12520910Y-15428210D02*
X12511386Y-15437734D01*
X12511386Y-15437734D02*
X12501862Y-15428210D01*
X12501862Y-15428210D02*
X12511386Y-15418686D01*
X12511386Y-15418686D02*
X12511386Y-15437734D01*
X12701862Y-15237734D02*
X12606624Y-15237734D01*
X12606624Y-15237734D02*
X12597100Y-15332972D01*
X12597100Y-15332972D02*
X12606624Y-15323448D01*
X12606624Y-15323448D02*
X12625672Y-15313924D01*
X12625672Y-15313924D02*
X12673291Y-15313924D01*
X12673291Y-15313924D02*
X12692338Y-15323448D01*
X12692338Y-15323448D02*
X12701862Y-15332972D01*
X12701862Y-15332972D02*
X12711386Y-15352019D01*
X12711386Y-15352019D02*
X12711386Y-15399638D01*
X12711386Y-15399638D02*
X12701862Y-15418686D01*
X12701862Y-15418686D02*
X12692338Y-15428210D01*
X12692338Y-15428210D02*
X12673291Y-15437734D01*
X12673291Y-15437734D02*
X12625672Y-15437734D01*
X12625672Y-15437734D02*
X12606624Y-15428210D01*
X12606624Y-15428210D02*
X12597100Y-15418686D01*
X12835195Y-15237734D02*
X12854243Y-15237734D01*
X12854243Y-15237734D02*
X12873291Y-15247258D01*
X12873291Y-15247258D02*
X12882814Y-15256781D01*
X12882814Y-15256781D02*
X12892338Y-15275829D01*
X12892338Y-15275829D02*
X12901862Y-15313924D01*
X12901862Y-15313924D02*
X12901862Y-15361543D01*
X12901862Y-15361543D02*
X12892338Y-15399638D01*
X12892338Y-15399638D02*
X12882814Y-15418686D01*
X12882814Y-15418686D02*
X12873291Y-15428210D01*
X12873291Y-15428210D02*
X12854243Y-15437734D01*
X12854243Y-15437734D02*
X12835195Y-15437734D01*
X12835195Y-15437734D02*
X12816148Y-15428210D01*
X12816148Y-15428210D02*
X12806624Y-15418686D01*
X12806624Y-15418686D02*
X12797100Y-15399638D01*
X12797100Y-15399638D02*
X12787576Y-15361543D01*
X12787576Y-15361543D02*
X12787576Y-15313924D01*
X12787576Y-15313924D02*
X12797100Y-15275829D01*
X12797100Y-15275829D02*
X12806624Y-15256781D01*
X12806624Y-15256781D02*
X12816148Y-15247258D01*
X12816148Y-15247258D02*
X12835195Y-15237734D01*
X13025672Y-15237734D02*
X13044719Y-15237734D01*
X13044719Y-15237734D02*
X13063767Y-15247258D01*
X13063767Y-15247258D02*
X13073291Y-15256781D01*
X13073291Y-15256781D02*
X13082814Y-15275829D01*
X13082814Y-15275829D02*
X13092338Y-15313924D01*
X13092338Y-15313924D02*
X13092338Y-15361543D01*
X13092338Y-15361543D02*
X13082814Y-15399638D01*
X13082814Y-15399638D02*
X13073291Y-15418686D01*
X13073291Y-15418686D02*
X13063767Y-15428210D01*
X13063767Y-15428210D02*
X13044719Y-15437734D01*
X13044719Y-15437734D02*
X13025672Y-15437734D01*
X13025672Y-15437734D02*
X13006624Y-15428210D01*
X13006624Y-15428210D02*
X12997100Y-15418686D01*
X12997100Y-15418686D02*
X12987576Y-15399638D01*
X12987576Y-15399638D02*
X12978053Y-15361543D01*
X12978053Y-15361543D02*
X12978053Y-15313924D01*
X12978053Y-15313924D02*
X12987576Y-15275829D01*
X12987576Y-15275829D02*
X12997100Y-15256781D01*
X12997100Y-15256781D02*
X13006624Y-15247258D01*
X13006624Y-15247258D02*
X13025672Y-15237734D01*
X13178053Y-15437734D02*
X13178053Y-15304400D01*
X13178053Y-15323448D02*
X13187576Y-15313924D01*
X13187576Y-15313924D02*
X13206624Y-15304400D01*
X13206624Y-15304400D02*
X13235195Y-15304400D01*
X13235195Y-15304400D02*
X13254243Y-15313924D01*
X13254243Y-15313924D02*
X13263767Y-15332972D01*
X13263767Y-15332972D02*
X13263767Y-15437734D01*
X13263767Y-15332972D02*
X13273291Y-15313924D01*
X13273291Y-15313924D02*
X13292338Y-15304400D01*
X13292338Y-15304400D02*
X13320910Y-15304400D01*
X13320910Y-15304400D02*
X13339957Y-15313924D01*
X13339957Y-15313924D02*
X13349481Y-15332972D01*
X13349481Y-15332972D02*
X13349481Y-15437734D01*
X13444719Y-15437734D02*
X13444719Y-15304400D01*
X13444719Y-15323448D02*
X13454243Y-15313924D01*
X13454243Y-15313924D02*
X13473291Y-15304400D01*
X13473291Y-15304400D02*
X13501862Y-15304400D01*
X13501862Y-15304400D02*
X13520910Y-15313924D01*
X13520910Y-15313924D02*
X13530434Y-15332972D01*
X13530434Y-15332972D02*
X13530434Y-15437734D01*
X13530434Y-15332972D02*
X13539957Y-15313924D01*
X13539957Y-15313924D02*
X13559005Y-15304400D01*
X13559005Y-15304400D02*
X13587576Y-15304400D01*
X13587576Y-15304400D02*
X13606624Y-15313924D01*
X13606624Y-15313924D02*
X13616148Y-15332972D01*
X13616148Y-15332972D02*
X13616148Y-15437734D01*
X14006624Y-15228210D02*
X13835196Y-15485353D01*
X14263767Y-15237734D02*
X14282815Y-15237734D01*
X14282815Y-15237734D02*
X14301862Y-15247258D01*
X14301862Y-15247258D02*
X14311386Y-15256781D01*
X14311386Y-15256781D02*
X14320910Y-15275829D01*
X14320910Y-15275829D02*
X14330434Y-15313924D01*
X14330434Y-15313924D02*
X14330434Y-15361543D01*
X14330434Y-15361543D02*
X14320910Y-15399638D01*
X14320910Y-15399638D02*
X14311386Y-15418686D01*
X14311386Y-15418686D02*
X14301862Y-15428210D01*
X14301862Y-15428210D02*
X14282815Y-15437734D01*
X14282815Y-15437734D02*
X14263767Y-15437734D01*
X14263767Y-15437734D02*
X14244719Y-15428210D01*
X14244719Y-15428210D02*
X14235196Y-15418686D01*
X14235196Y-15418686D02*
X14225672Y-15399638D01*
X14225672Y-15399638D02*
X14216148Y-15361543D01*
X14216148Y-15361543D02*
X14216148Y-15313924D01*
X14216148Y-15313924D02*
X14225672Y-15275829D01*
X14225672Y-15275829D02*
X14235196Y-15256781D01*
X14235196Y-15256781D02*
X14244719Y-15247258D01*
X14244719Y-15247258D02*
X14263767Y-15237734D01*
X14416148Y-15418686D02*
X14425672Y-15428210D01*
X14425672Y-15428210D02*
X14416148Y-15437734D01*
X14416148Y-15437734D02*
X14406624Y-15428210D01*
X14406624Y-15428210D02*
X14416148Y-15418686D01*
X14416148Y-15418686D02*
X14416148Y-15437734D01*
X14549481Y-15237734D02*
X14568529Y-15237734D01*
X14568529Y-15237734D02*
X14587577Y-15247258D01*
X14587577Y-15247258D02*
X14597100Y-15256781D01*
X14597100Y-15256781D02*
X14606624Y-15275829D01*
X14606624Y-15275829D02*
X14616148Y-15313924D01*
X14616148Y-15313924D02*
X14616148Y-15361543D01*
X14616148Y-15361543D02*
X14606624Y-15399638D01*
X14606624Y-15399638D02*
X14597100Y-15418686D01*
X14597100Y-15418686D02*
X14587577Y-15428210D01*
X14587577Y-15428210D02*
X14568529Y-15437734D01*
X14568529Y-15437734D02*
X14549481Y-15437734D01*
X14549481Y-15437734D02*
X14530434Y-15428210D01*
X14530434Y-15428210D02*
X14520910Y-15418686D01*
X14520910Y-15418686D02*
X14511386Y-15399638D01*
X14511386Y-15399638D02*
X14501862Y-15361543D01*
X14501862Y-15361543D02*
X14501862Y-15313924D01*
X14501862Y-15313924D02*
X14511386Y-15275829D01*
X14511386Y-15275829D02*
X14520910Y-15256781D01*
X14520910Y-15256781D02*
X14530434Y-15247258D01*
X14530434Y-15247258D02*
X14549481Y-15237734D01*
X14806624Y-15437734D02*
X14692338Y-15437734D01*
X14749481Y-15437734D02*
X14749481Y-15237734D01*
X14749481Y-15237734D02*
X14730434Y-15266305D01*
X14730434Y-15266305D02*
X14711386Y-15285353D01*
X14711386Y-15285353D02*
X14692338Y-15294877D01*
X14901862Y-15437734D02*
X14939957Y-15437734D01*
X14939957Y-15437734D02*
X14959005Y-15428210D01*
X14959005Y-15428210D02*
X14968529Y-15418686D01*
X14968529Y-15418686D02*
X14987577Y-15390115D01*
X14987577Y-15390115D02*
X14997100Y-15352019D01*
X14997100Y-15352019D02*
X14997100Y-15275829D01*
X14997100Y-15275829D02*
X14987577Y-15256781D01*
X14987577Y-15256781D02*
X14978053Y-15247258D01*
X14978053Y-15247258D02*
X14959005Y-15237734D01*
X14959005Y-15237734D02*
X14920910Y-15237734D01*
X14920910Y-15237734D02*
X14901862Y-15247258D01*
X14901862Y-15247258D02*
X14892338Y-15256781D01*
X14892338Y-15256781D02*
X14882815Y-15275829D01*
X14882815Y-15275829D02*
X14882815Y-15323448D01*
X14882815Y-15323448D02*
X14892338Y-15342496D01*
X14892338Y-15342496D02*
X14901862Y-15352019D01*
X14901862Y-15352019D02*
X14920910Y-15361543D01*
X14920910Y-15361543D02*
X14959005Y-15361543D01*
X14959005Y-15361543D02*
X14978053Y-15352019D01*
X14978053Y-15352019D02*
X14987577Y-15342496D01*
X14987577Y-15342496D02*
X14997100Y-15323448D01*
X15063767Y-15237734D02*
X15197100Y-15237734D01*
X15197100Y-15237734D02*
X15111386Y-15437734D01*
X15263767Y-15237734D02*
X15263767Y-15275829D01*
X15339958Y-15237734D02*
X15339958Y-15275829D01*
X15635196Y-15513924D02*
X15625672Y-15504400D01*
X15625672Y-15504400D02*
X15606624Y-15475829D01*
X15606624Y-15475829D02*
X15597100Y-15456781D01*
X15597100Y-15456781D02*
X15587577Y-15428210D01*
X15587577Y-15428210D02*
X15578053Y-15380591D01*
X15578053Y-15380591D02*
X15578053Y-15342496D01*
X15578053Y-15342496D02*
X15587577Y-15294877D01*
X15587577Y-15294877D02*
X15597100Y-15266305D01*
X15597100Y-15266305D02*
X15606624Y-15247258D01*
X15606624Y-15247258D02*
X15625672Y-15218686D01*
X15625672Y-15218686D02*
X15635196Y-15209162D01*
X15806624Y-15237734D02*
X15711386Y-15237734D01*
X15711386Y-15237734D02*
X15701862Y-15332972D01*
X15701862Y-15332972D02*
X15711386Y-15323448D01*
X15711386Y-15323448D02*
X15730434Y-15313924D01*
X15730434Y-15313924D02*
X15778053Y-15313924D01*
X15778053Y-15313924D02*
X15797100Y-15323448D01*
X15797100Y-15323448D02*
X15806624Y-15332972D01*
X15806624Y-15332972D02*
X15816148Y-15352019D01*
X15816148Y-15352019D02*
X15816148Y-15399638D01*
X15816148Y-15399638D02*
X15806624Y-15418686D01*
X15806624Y-15418686D02*
X15797100Y-15428210D01*
X15797100Y-15428210D02*
X15778053Y-15437734D01*
X15778053Y-15437734D02*
X15730434Y-15437734D01*
X15730434Y-15437734D02*
X15711386Y-15428210D01*
X15711386Y-15428210D02*
X15701862Y-15418686D01*
X15987577Y-15237734D02*
X15949481Y-15237734D01*
X15949481Y-15237734D02*
X15930434Y-15247258D01*
X15930434Y-15247258D02*
X15920910Y-15256781D01*
X15920910Y-15256781D02*
X15901862Y-15285353D01*
X15901862Y-15285353D02*
X15892339Y-15323448D01*
X15892339Y-15323448D02*
X15892339Y-15399638D01*
X15892339Y-15399638D02*
X15901862Y-15418686D01*
X15901862Y-15418686D02*
X15911386Y-15428210D01*
X15911386Y-15428210D02*
X15930434Y-15437734D01*
X15930434Y-15437734D02*
X15968529Y-15437734D01*
X15968529Y-15437734D02*
X15987577Y-15428210D01*
X15987577Y-15428210D02*
X15997100Y-15418686D01*
X15997100Y-15418686D02*
X16006624Y-15399638D01*
X16006624Y-15399638D02*
X16006624Y-15352019D01*
X16006624Y-15352019D02*
X15997100Y-15332972D01*
X15997100Y-15332972D02*
X15987577Y-15323448D01*
X15987577Y-15323448D02*
X15968529Y-15313924D01*
X15968529Y-15313924D02*
X15930434Y-15313924D01*
X15930434Y-15313924D02*
X15911386Y-15323448D01*
X15911386Y-15323448D02*
X15901862Y-15332972D01*
X15901862Y-15332972D02*
X15892339Y-15352019D01*
X16244720Y-15437734D02*
X16244720Y-15237734D01*
X16330434Y-15437734D02*
X16330434Y-15332972D01*
X16330434Y-15332972D02*
X16320910Y-15313924D01*
X16320910Y-15313924D02*
X16301862Y-15304400D01*
X16301862Y-15304400D02*
X16273291Y-15304400D01*
X16273291Y-15304400D02*
X16254243Y-15313924D01*
X16254243Y-15313924D02*
X16244720Y-15323448D01*
X16454243Y-15437734D02*
X16435196Y-15428210D01*
X16435196Y-15428210D02*
X16425672Y-15418686D01*
X16425672Y-15418686D02*
X16416148Y-15399638D01*
X16416148Y-15399638D02*
X16416148Y-15342496D01*
X16416148Y-15342496D02*
X16425672Y-15323448D01*
X16425672Y-15323448D02*
X16435196Y-15313924D01*
X16435196Y-15313924D02*
X16454243Y-15304400D01*
X16454243Y-15304400D02*
X16482815Y-15304400D01*
X16482815Y-15304400D02*
X16501862Y-15313924D01*
X16501862Y-15313924D02*
X16511386Y-15323448D01*
X16511386Y-15323448D02*
X16520910Y-15342496D01*
X16520910Y-15342496D02*
X16520910Y-15399638D01*
X16520910Y-15399638D02*
X16511386Y-15418686D01*
X16511386Y-15418686D02*
X16501862Y-15428210D01*
X16501862Y-15428210D02*
X16482815Y-15437734D01*
X16482815Y-15437734D02*
X16454243Y-15437734D01*
X16635196Y-15437734D02*
X16616148Y-15428210D01*
X16616148Y-15428210D02*
X16606624Y-15409162D01*
X16606624Y-15409162D02*
X16606624Y-15237734D01*
X16787577Y-15428210D02*
X16768529Y-15437734D01*
X16768529Y-15437734D02*
X16730434Y-15437734D01*
X16730434Y-15437734D02*
X16711386Y-15428210D01*
X16711386Y-15428210D02*
X16701862Y-15409162D01*
X16701862Y-15409162D02*
X16701862Y-15332972D01*
X16701862Y-15332972D02*
X16711386Y-15313924D01*
X16711386Y-15313924D02*
X16730434Y-15304400D01*
X16730434Y-15304400D02*
X16768529Y-15304400D01*
X16768529Y-15304400D02*
X16787577Y-15313924D01*
X16787577Y-15313924D02*
X16797101Y-15332972D01*
X16797101Y-15332972D02*
X16797101Y-15352019D01*
X16797101Y-15352019D02*
X16701862Y-15371067D01*
X16873291Y-15428210D02*
X16892339Y-15437734D01*
X16892339Y-15437734D02*
X16930434Y-15437734D01*
X16930434Y-15437734D02*
X16949482Y-15428210D01*
X16949482Y-15428210D02*
X16959005Y-15409162D01*
X16959005Y-15409162D02*
X16959005Y-15399638D01*
X16959005Y-15399638D02*
X16949482Y-15380591D01*
X16949482Y-15380591D02*
X16930434Y-15371067D01*
X16930434Y-15371067D02*
X16901863Y-15371067D01*
X16901863Y-15371067D02*
X16882815Y-15361543D01*
X16882815Y-15361543D02*
X16873291Y-15342496D01*
X16873291Y-15342496D02*
X16873291Y-15332972D01*
X16873291Y-15332972D02*
X16882815Y-15313924D01*
X16882815Y-15313924D02*
X16901863Y-15304400D01*
X16901863Y-15304400D02*
X16930434Y-15304400D01*
X16930434Y-15304400D02*
X16949482Y-15313924D01*
X17025672Y-15513924D02*
X17035196Y-15504400D01*
X17035196Y-15504400D02*
X17054244Y-15475829D01*
X17054244Y-15475829D02*
X17063767Y-15456781D01*
X17063767Y-15456781D02*
X17073291Y-15428210D01*
X17073291Y-15428210D02*
X17082815Y-15380591D01*
X17082815Y-15380591D02*
X17082815Y-15342496D01*
X17082815Y-15342496D02*
X17073291Y-15294877D01*
X17073291Y-15294877D02*
X17063767Y-15266305D01*
X17063767Y-15266305D02*
X17054244Y-15247258D01*
X17054244Y-15247258D02*
X17035196Y-15218686D01*
X17035196Y-15218686D02*
X17025672Y-15209162D01*
D12*
X12060133Y-15610250D02*
G75*
G03*
X12000133Y-15610250I-30000J0D01*
G01*
X12000133Y-15610250D02*
G75*
G03*
X12060133Y-15610250I30000J0D01*
G01*
D11*
X12359005Y-15501734D02*
X12378053Y-15501734D01*
X12378053Y-15501734D02*
X12397100Y-15511258D01*
X12397100Y-15511258D02*
X12406624Y-15520781D01*
X12406624Y-15520781D02*
X12416148Y-15539829D01*
X12416148Y-15539829D02*
X12425672Y-15577924D01*
X12425672Y-15577924D02*
X12425672Y-15625543D01*
X12425672Y-15625543D02*
X12416148Y-15663638D01*
X12416148Y-15663638D02*
X12406624Y-15682686D01*
X12406624Y-15682686D02*
X12397100Y-15692210D01*
X12397100Y-15692210D02*
X12378053Y-15701734D01*
X12378053Y-15701734D02*
X12359005Y-15701734D01*
X12359005Y-15701734D02*
X12339957Y-15692210D01*
X12339957Y-15692210D02*
X12330433Y-15682686D01*
X12330433Y-15682686D02*
X12320910Y-15663638D01*
X12320910Y-15663638D02*
X12311386Y-15625543D01*
X12311386Y-15625543D02*
X12311386Y-15577924D01*
X12311386Y-15577924D02*
X12320910Y-15539829D01*
X12320910Y-15539829D02*
X12330433Y-15520781D01*
X12330433Y-15520781D02*
X12339957Y-15511258D01*
X12339957Y-15511258D02*
X12359005Y-15501734D01*
X12511386Y-15682686D02*
X12520910Y-15692210D01*
X12520910Y-15692210D02*
X12511386Y-15701734D01*
X12511386Y-15701734D02*
X12501862Y-15692210D01*
X12501862Y-15692210D02*
X12511386Y-15682686D01*
X12511386Y-15682686D02*
X12511386Y-15701734D01*
X12692338Y-15501734D02*
X12654243Y-15501734D01*
X12654243Y-15501734D02*
X12635195Y-15511258D01*
X12635195Y-15511258D02*
X12625672Y-15520781D01*
X12625672Y-15520781D02*
X12606624Y-15549353D01*
X12606624Y-15549353D02*
X12597100Y-15587448D01*
X12597100Y-15587448D02*
X12597100Y-15663638D01*
X12597100Y-15663638D02*
X12606624Y-15682686D01*
X12606624Y-15682686D02*
X12616148Y-15692210D01*
X12616148Y-15692210D02*
X12635195Y-15701734D01*
X12635195Y-15701734D02*
X12673291Y-15701734D01*
X12673291Y-15701734D02*
X12692338Y-15692210D01*
X12692338Y-15692210D02*
X12701862Y-15682686D01*
X12701862Y-15682686D02*
X12711386Y-15663638D01*
X12711386Y-15663638D02*
X12711386Y-15616019D01*
X12711386Y-15616019D02*
X12701862Y-15596972D01*
X12701862Y-15596972D02*
X12692338Y-15587448D01*
X12692338Y-15587448D02*
X12673291Y-15577924D01*
X12673291Y-15577924D02*
X12635195Y-15577924D01*
X12635195Y-15577924D02*
X12616148Y-15587448D01*
X12616148Y-15587448D02*
X12606624Y-15596972D01*
X12606624Y-15596972D02*
X12597100Y-15616019D01*
X12835195Y-15501734D02*
X12854243Y-15501734D01*
X12854243Y-15501734D02*
X12873291Y-15511258D01*
X12873291Y-15511258D02*
X12882814Y-15520781D01*
X12882814Y-15520781D02*
X12892338Y-15539829D01*
X12892338Y-15539829D02*
X12901862Y-15577924D01*
X12901862Y-15577924D02*
X12901862Y-15625543D01*
X12901862Y-15625543D02*
X12892338Y-15663638D01*
X12892338Y-15663638D02*
X12882814Y-15682686D01*
X12882814Y-15682686D02*
X12873291Y-15692210D01*
X12873291Y-15692210D02*
X12854243Y-15701734D01*
X12854243Y-15701734D02*
X12835195Y-15701734D01*
X12835195Y-15701734D02*
X12816148Y-15692210D01*
X12816148Y-15692210D02*
X12806624Y-15682686D01*
X12806624Y-15682686D02*
X12797100Y-15663638D01*
X12797100Y-15663638D02*
X12787576Y-15625543D01*
X12787576Y-15625543D02*
X12787576Y-15577924D01*
X12787576Y-15577924D02*
X12797100Y-15539829D01*
X12797100Y-15539829D02*
X12806624Y-15520781D01*
X12806624Y-15520781D02*
X12816148Y-15511258D01*
X12816148Y-15511258D02*
X12835195Y-15501734D01*
X13025672Y-15501734D02*
X13044719Y-15501734D01*
X13044719Y-15501734D02*
X13063767Y-15511258D01*
X13063767Y-15511258D02*
X13073291Y-15520781D01*
X13073291Y-15520781D02*
X13082814Y-15539829D01*
X13082814Y-15539829D02*
X13092338Y-15577924D01*
X13092338Y-15577924D02*
X13092338Y-15625543D01*
X13092338Y-15625543D02*
X13082814Y-15663638D01*
X13082814Y-15663638D02*
X13073291Y-15682686D01*
X13073291Y-15682686D02*
X13063767Y-15692210D01*
X13063767Y-15692210D02*
X13044719Y-15701734D01*
X13044719Y-15701734D02*
X13025672Y-15701734D01*
X13025672Y-15701734D02*
X13006624Y-15692210D01*
X13006624Y-15692210D02*
X12997100Y-15682686D01*
X12997100Y-15682686D02*
X12987576Y-15663638D01*
X12987576Y-15663638D02*
X12978053Y-15625543D01*
X12978053Y-15625543D02*
X12978053Y-15577924D01*
X12978053Y-15577924D02*
X12987576Y-15539829D01*
X12987576Y-15539829D02*
X12997100Y-15520781D01*
X12997100Y-15520781D02*
X13006624Y-15511258D01*
X13006624Y-15511258D02*
X13025672Y-15501734D01*
X13178053Y-15701734D02*
X13178053Y-15568400D01*
X13178053Y-15587448D02*
X13187576Y-15577924D01*
X13187576Y-15577924D02*
X13206624Y-15568400D01*
X13206624Y-15568400D02*
X13235195Y-15568400D01*
X13235195Y-15568400D02*
X13254243Y-15577924D01*
X13254243Y-15577924D02*
X13263767Y-15596972D01*
X13263767Y-15596972D02*
X13263767Y-15701734D01*
X13263767Y-15596972D02*
X13273291Y-15577924D01*
X13273291Y-15577924D02*
X13292338Y-15568400D01*
X13292338Y-15568400D02*
X13320910Y-15568400D01*
X13320910Y-15568400D02*
X13339957Y-15577924D01*
X13339957Y-15577924D02*
X13349481Y-15596972D01*
X13349481Y-15596972D02*
X13349481Y-15701734D01*
X13444719Y-15701734D02*
X13444719Y-15568400D01*
X13444719Y-15587448D02*
X13454243Y-15577924D01*
X13454243Y-15577924D02*
X13473291Y-15568400D01*
X13473291Y-15568400D02*
X13501862Y-15568400D01*
X13501862Y-15568400D02*
X13520910Y-15577924D01*
X13520910Y-15577924D02*
X13530434Y-15596972D01*
X13530434Y-15596972D02*
X13530434Y-15701734D01*
X13530434Y-15596972D02*
X13539957Y-15577924D01*
X13539957Y-15577924D02*
X13559005Y-15568400D01*
X13559005Y-15568400D02*
X13587576Y-15568400D01*
X13587576Y-15568400D02*
X13606624Y-15577924D01*
X13606624Y-15577924D02*
X13616148Y-15596972D01*
X13616148Y-15596972D02*
X13616148Y-15701734D01*
X14006624Y-15492210D02*
X13835196Y-15749353D01*
X14263767Y-15501734D02*
X14282815Y-15501734D01*
X14282815Y-15501734D02*
X14301862Y-15511258D01*
X14301862Y-15511258D02*
X14311386Y-15520781D01*
X14311386Y-15520781D02*
X14320910Y-15539829D01*
X14320910Y-15539829D02*
X14330434Y-15577924D01*
X14330434Y-15577924D02*
X14330434Y-15625543D01*
X14330434Y-15625543D02*
X14320910Y-15663638D01*
X14320910Y-15663638D02*
X14311386Y-15682686D01*
X14311386Y-15682686D02*
X14301862Y-15692210D01*
X14301862Y-15692210D02*
X14282815Y-15701734D01*
X14282815Y-15701734D02*
X14263767Y-15701734D01*
X14263767Y-15701734D02*
X14244719Y-15692210D01*
X14244719Y-15692210D02*
X14235196Y-15682686D01*
X14235196Y-15682686D02*
X14225672Y-15663638D01*
X14225672Y-15663638D02*
X14216148Y-15625543D01*
X14216148Y-15625543D02*
X14216148Y-15577924D01*
X14216148Y-15577924D02*
X14225672Y-15539829D01*
X14225672Y-15539829D02*
X14235196Y-15520781D01*
X14235196Y-15520781D02*
X14244719Y-15511258D01*
X14244719Y-15511258D02*
X14263767Y-15501734D01*
X14416148Y-15682686D02*
X14425672Y-15692210D01*
X14425672Y-15692210D02*
X14416148Y-15701734D01*
X14416148Y-15701734D02*
X14406624Y-15692210D01*
X14406624Y-15692210D02*
X14416148Y-15682686D01*
X14416148Y-15682686D02*
X14416148Y-15701734D01*
X14549481Y-15501734D02*
X14568529Y-15501734D01*
X14568529Y-15501734D02*
X14587577Y-15511258D01*
X14587577Y-15511258D02*
X14597100Y-15520781D01*
X14597100Y-15520781D02*
X14606624Y-15539829D01*
X14606624Y-15539829D02*
X14616148Y-15577924D01*
X14616148Y-15577924D02*
X14616148Y-15625543D01*
X14616148Y-15625543D02*
X14606624Y-15663638D01*
X14606624Y-15663638D02*
X14597100Y-15682686D01*
X14597100Y-15682686D02*
X14587577Y-15692210D01*
X14587577Y-15692210D02*
X14568529Y-15701734D01*
X14568529Y-15701734D02*
X14549481Y-15701734D01*
X14549481Y-15701734D02*
X14530434Y-15692210D01*
X14530434Y-15692210D02*
X14520910Y-15682686D01*
X14520910Y-15682686D02*
X14511386Y-15663638D01*
X14511386Y-15663638D02*
X14501862Y-15625543D01*
X14501862Y-15625543D02*
X14501862Y-15577924D01*
X14501862Y-15577924D02*
X14511386Y-15539829D01*
X14511386Y-15539829D02*
X14520910Y-15520781D01*
X14520910Y-15520781D02*
X14530434Y-15511258D01*
X14530434Y-15511258D02*
X14549481Y-15501734D01*
X14692338Y-15520781D02*
X14701862Y-15511258D01*
X14701862Y-15511258D02*
X14720910Y-15501734D01*
X14720910Y-15501734D02*
X14768529Y-15501734D01*
X14768529Y-15501734D02*
X14787577Y-15511258D01*
X14787577Y-15511258D02*
X14797100Y-15520781D01*
X14797100Y-15520781D02*
X14806624Y-15539829D01*
X14806624Y-15539829D02*
X14806624Y-15558877D01*
X14806624Y-15558877D02*
X14797100Y-15587448D01*
X14797100Y-15587448D02*
X14682815Y-15701734D01*
X14682815Y-15701734D02*
X14806624Y-15701734D01*
X14873291Y-15501734D02*
X14997100Y-15501734D01*
X14997100Y-15501734D02*
X14930434Y-15577924D01*
X14930434Y-15577924D02*
X14959005Y-15577924D01*
X14959005Y-15577924D02*
X14978053Y-15587448D01*
X14978053Y-15587448D02*
X14987577Y-15596972D01*
X14987577Y-15596972D02*
X14997100Y-15616019D01*
X14997100Y-15616019D02*
X14997100Y-15663638D01*
X14997100Y-15663638D02*
X14987577Y-15682686D01*
X14987577Y-15682686D02*
X14978053Y-15692210D01*
X14978053Y-15692210D02*
X14959005Y-15701734D01*
X14959005Y-15701734D02*
X14901862Y-15701734D01*
X14901862Y-15701734D02*
X14882815Y-15692210D01*
X14882815Y-15692210D02*
X14873291Y-15682686D01*
X15168529Y-15501734D02*
X15130434Y-15501734D01*
X15130434Y-15501734D02*
X15111386Y-15511258D01*
X15111386Y-15511258D02*
X15101862Y-15520781D01*
X15101862Y-15520781D02*
X15082815Y-15549353D01*
X15082815Y-15549353D02*
X15073291Y-15587448D01*
X15073291Y-15587448D02*
X15073291Y-15663638D01*
X15073291Y-15663638D02*
X15082815Y-15682686D01*
X15082815Y-15682686D02*
X15092338Y-15692210D01*
X15092338Y-15692210D02*
X15111386Y-15701734D01*
X15111386Y-15701734D02*
X15149481Y-15701734D01*
X15149481Y-15701734D02*
X15168529Y-15692210D01*
X15168529Y-15692210D02*
X15178053Y-15682686D01*
X15178053Y-15682686D02*
X15187577Y-15663638D01*
X15187577Y-15663638D02*
X15187577Y-15616019D01*
X15187577Y-15616019D02*
X15178053Y-15596972D01*
X15178053Y-15596972D02*
X15168529Y-15587448D01*
X15168529Y-15587448D02*
X15149481Y-15577924D01*
X15149481Y-15577924D02*
X15111386Y-15577924D01*
X15111386Y-15577924D02*
X15092338Y-15587448D01*
X15092338Y-15587448D02*
X15082815Y-15596972D01*
X15082815Y-15596972D02*
X15073291Y-15616019D01*
X15263767Y-15501734D02*
X15263767Y-15539829D01*
X15339958Y-15501734D02*
X15339958Y-15539829D01*
X15635196Y-15777924D02*
X15625672Y-15768400D01*
X15625672Y-15768400D02*
X15606624Y-15739829D01*
X15606624Y-15739829D02*
X15597100Y-15720781D01*
X15597100Y-15720781D02*
X15587577Y-15692210D01*
X15587577Y-15692210D02*
X15578053Y-15644591D01*
X15578053Y-15644591D02*
X15578053Y-15606496D01*
X15578053Y-15606496D02*
X15587577Y-15558877D01*
X15587577Y-15558877D02*
X15597100Y-15530305D01*
X15597100Y-15530305D02*
X15606624Y-15511258D01*
X15606624Y-15511258D02*
X15625672Y-15482686D01*
X15625672Y-15482686D02*
X15635196Y-15473162D01*
X15816148Y-15701734D02*
X15701862Y-15701734D01*
X15759005Y-15701734D02*
X15759005Y-15501734D01*
X15759005Y-15501734D02*
X15739958Y-15530305D01*
X15739958Y-15530305D02*
X15720910Y-15549353D01*
X15720910Y-15549353D02*
X15701862Y-15558877D01*
X16054243Y-15701734D02*
X16054243Y-15501734D01*
X16139958Y-15701734D02*
X16139958Y-15596972D01*
X16139958Y-15596972D02*
X16130434Y-15577924D01*
X16130434Y-15577924D02*
X16111386Y-15568400D01*
X16111386Y-15568400D02*
X16082815Y-15568400D01*
X16082815Y-15568400D02*
X16063767Y-15577924D01*
X16063767Y-15577924D02*
X16054243Y-15587448D01*
X16263767Y-15701734D02*
X16244720Y-15692210D01*
X16244720Y-15692210D02*
X16235196Y-15682686D01*
X16235196Y-15682686D02*
X16225672Y-15663638D01*
X16225672Y-15663638D02*
X16225672Y-15606496D01*
X16225672Y-15606496D02*
X16235196Y-15587448D01*
X16235196Y-15587448D02*
X16244720Y-15577924D01*
X16244720Y-15577924D02*
X16263767Y-15568400D01*
X16263767Y-15568400D02*
X16292339Y-15568400D01*
X16292339Y-15568400D02*
X16311386Y-15577924D01*
X16311386Y-15577924D02*
X16320910Y-15587448D01*
X16320910Y-15587448D02*
X16330434Y-15606496D01*
X16330434Y-15606496D02*
X16330434Y-15663638D01*
X16330434Y-15663638D02*
X16320910Y-15682686D01*
X16320910Y-15682686D02*
X16311386Y-15692210D01*
X16311386Y-15692210D02*
X16292339Y-15701734D01*
X16292339Y-15701734D02*
X16263767Y-15701734D01*
X16444720Y-15701734D02*
X16425672Y-15692210D01*
X16425672Y-15692210D02*
X16416148Y-15673162D01*
X16416148Y-15673162D02*
X16416148Y-15501734D01*
X16597101Y-15692210D02*
X16578053Y-15701734D01*
X16578053Y-15701734D02*
X16539958Y-15701734D01*
X16539958Y-15701734D02*
X16520910Y-15692210D01*
X16520910Y-15692210D02*
X16511386Y-15673162D01*
X16511386Y-15673162D02*
X16511386Y-15596972D01*
X16511386Y-15596972D02*
X16520910Y-15577924D01*
X16520910Y-15577924D02*
X16539958Y-15568400D01*
X16539958Y-15568400D02*
X16578053Y-15568400D01*
X16578053Y-15568400D02*
X16597101Y-15577924D01*
X16597101Y-15577924D02*
X16606624Y-15596972D01*
X16606624Y-15596972D02*
X16606624Y-15616019D01*
X16606624Y-15616019D02*
X16511386Y-15635067D01*
X16673291Y-15777924D02*
X16682815Y-15768400D01*
X16682815Y-15768400D02*
X16701862Y-15739829D01*
X16701862Y-15739829D02*
X16711386Y-15720781D01*
X16711386Y-15720781D02*
X16720910Y-15692210D01*
X16720910Y-15692210D02*
X16730434Y-15644591D01*
X16730434Y-15644591D02*
X16730434Y-15606496D01*
X16730434Y-15606496D02*
X16720910Y-15558877D01*
X16720910Y-15558877D02*
X16711386Y-15530305D01*
X16711386Y-15530305D02*
X16701862Y-15511258D01*
X16701862Y-15511258D02*
X16682815Y-15482686D01*
X16682815Y-15482686D02*
X16673291Y-15473162D01*
D12*
X12020133Y-15834250D02*
X12020133Y-15914250D01*
X11980133Y-15874250D02*
X12060133Y-15874250D01*
D11*
X12359005Y-15765734D02*
X12378053Y-15765734D01*
X12378053Y-15765734D02*
X12397100Y-15775258D01*
X12397100Y-15775258D02*
X12406624Y-15784781D01*
X12406624Y-15784781D02*
X12416148Y-15803829D01*
X12416148Y-15803829D02*
X12425672Y-15841924D01*
X12425672Y-15841924D02*
X12425672Y-15889543D01*
X12425672Y-15889543D02*
X12416148Y-15927638D01*
X12416148Y-15927638D02*
X12406624Y-15946686D01*
X12406624Y-15946686D02*
X12397100Y-15956210D01*
X12397100Y-15956210D02*
X12378053Y-15965734D01*
X12378053Y-15965734D02*
X12359005Y-15965734D01*
X12359005Y-15965734D02*
X12339957Y-15956210D01*
X12339957Y-15956210D02*
X12330433Y-15946686D01*
X12330433Y-15946686D02*
X12320910Y-15927638D01*
X12320910Y-15927638D02*
X12311386Y-15889543D01*
X12311386Y-15889543D02*
X12311386Y-15841924D01*
X12311386Y-15841924D02*
X12320910Y-15803829D01*
X12320910Y-15803829D02*
X12330433Y-15784781D01*
X12330433Y-15784781D02*
X12339957Y-15775258D01*
X12339957Y-15775258D02*
X12359005Y-15765734D01*
X12511386Y-15946686D02*
X12520910Y-15956210D01*
X12520910Y-15956210D02*
X12511386Y-15965734D01*
X12511386Y-15965734D02*
X12501862Y-15956210D01*
X12501862Y-15956210D02*
X12511386Y-15946686D01*
X12511386Y-15946686D02*
X12511386Y-15965734D01*
X12635195Y-15851448D02*
X12616148Y-15841924D01*
X12616148Y-15841924D02*
X12606624Y-15832400D01*
X12606624Y-15832400D02*
X12597100Y-15813353D01*
X12597100Y-15813353D02*
X12597100Y-15803829D01*
X12597100Y-15803829D02*
X12606624Y-15784781D01*
X12606624Y-15784781D02*
X12616148Y-15775258D01*
X12616148Y-15775258D02*
X12635195Y-15765734D01*
X12635195Y-15765734D02*
X12673291Y-15765734D01*
X12673291Y-15765734D02*
X12692338Y-15775258D01*
X12692338Y-15775258D02*
X12701862Y-15784781D01*
X12701862Y-15784781D02*
X12711386Y-15803829D01*
X12711386Y-15803829D02*
X12711386Y-15813353D01*
X12711386Y-15813353D02*
X12701862Y-15832400D01*
X12701862Y-15832400D02*
X12692338Y-15841924D01*
X12692338Y-15841924D02*
X12673291Y-15851448D01*
X12673291Y-15851448D02*
X12635195Y-15851448D01*
X12635195Y-15851448D02*
X12616148Y-15860972D01*
X12616148Y-15860972D02*
X12606624Y-15870496D01*
X12606624Y-15870496D02*
X12597100Y-15889543D01*
X12597100Y-15889543D02*
X12597100Y-15927638D01*
X12597100Y-15927638D02*
X12606624Y-15946686D01*
X12606624Y-15946686D02*
X12616148Y-15956210D01*
X12616148Y-15956210D02*
X12635195Y-15965734D01*
X12635195Y-15965734D02*
X12673291Y-15965734D01*
X12673291Y-15965734D02*
X12692338Y-15956210D01*
X12692338Y-15956210D02*
X12701862Y-15946686D01*
X12701862Y-15946686D02*
X12711386Y-15927638D01*
X12711386Y-15927638D02*
X12711386Y-15889543D01*
X12711386Y-15889543D02*
X12701862Y-15870496D01*
X12701862Y-15870496D02*
X12692338Y-15860972D01*
X12692338Y-15860972D02*
X12673291Y-15851448D01*
X12835195Y-15765734D02*
X12854243Y-15765734D01*
X12854243Y-15765734D02*
X12873291Y-15775258D01*
X12873291Y-15775258D02*
X12882814Y-15784781D01*
X12882814Y-15784781D02*
X12892338Y-15803829D01*
X12892338Y-15803829D02*
X12901862Y-15841924D01*
X12901862Y-15841924D02*
X12901862Y-15889543D01*
X12901862Y-15889543D02*
X12892338Y-15927638D01*
X12892338Y-15927638D02*
X12882814Y-15946686D01*
X12882814Y-15946686D02*
X12873291Y-15956210D01*
X12873291Y-15956210D02*
X12854243Y-15965734D01*
X12854243Y-15965734D02*
X12835195Y-15965734D01*
X12835195Y-15965734D02*
X12816148Y-15956210D01*
X12816148Y-15956210D02*
X12806624Y-15946686D01*
X12806624Y-15946686D02*
X12797100Y-15927638D01*
X12797100Y-15927638D02*
X12787576Y-15889543D01*
X12787576Y-15889543D02*
X12787576Y-15841924D01*
X12787576Y-15841924D02*
X12797100Y-15803829D01*
X12797100Y-15803829D02*
X12806624Y-15784781D01*
X12806624Y-15784781D02*
X12816148Y-15775258D01*
X12816148Y-15775258D02*
X12835195Y-15765734D01*
X13025672Y-15765734D02*
X13044719Y-15765734D01*
X13044719Y-15765734D02*
X13063767Y-15775258D01*
X13063767Y-15775258D02*
X13073291Y-15784781D01*
X13073291Y-15784781D02*
X13082814Y-15803829D01*
X13082814Y-15803829D02*
X13092338Y-15841924D01*
X13092338Y-15841924D02*
X13092338Y-15889543D01*
X13092338Y-15889543D02*
X13082814Y-15927638D01*
X13082814Y-15927638D02*
X13073291Y-15946686D01*
X13073291Y-15946686D02*
X13063767Y-15956210D01*
X13063767Y-15956210D02*
X13044719Y-15965734D01*
X13044719Y-15965734D02*
X13025672Y-15965734D01*
X13025672Y-15965734D02*
X13006624Y-15956210D01*
X13006624Y-15956210D02*
X12997100Y-15946686D01*
X12997100Y-15946686D02*
X12987576Y-15927638D01*
X12987576Y-15927638D02*
X12978053Y-15889543D01*
X12978053Y-15889543D02*
X12978053Y-15841924D01*
X12978053Y-15841924D02*
X12987576Y-15803829D01*
X12987576Y-15803829D02*
X12997100Y-15784781D01*
X12997100Y-15784781D02*
X13006624Y-15775258D01*
X13006624Y-15775258D02*
X13025672Y-15765734D01*
X13178053Y-15965734D02*
X13178053Y-15832400D01*
X13178053Y-15851448D02*
X13187576Y-15841924D01*
X13187576Y-15841924D02*
X13206624Y-15832400D01*
X13206624Y-15832400D02*
X13235195Y-15832400D01*
X13235195Y-15832400D02*
X13254243Y-15841924D01*
X13254243Y-15841924D02*
X13263767Y-15860972D01*
X13263767Y-15860972D02*
X13263767Y-15965734D01*
X13263767Y-15860972D02*
X13273291Y-15841924D01*
X13273291Y-15841924D02*
X13292338Y-15832400D01*
X13292338Y-15832400D02*
X13320910Y-15832400D01*
X13320910Y-15832400D02*
X13339957Y-15841924D01*
X13339957Y-15841924D02*
X13349481Y-15860972D01*
X13349481Y-15860972D02*
X13349481Y-15965734D01*
X13444719Y-15965734D02*
X13444719Y-15832400D01*
X13444719Y-15851448D02*
X13454243Y-15841924D01*
X13454243Y-15841924D02*
X13473291Y-15832400D01*
X13473291Y-15832400D02*
X13501862Y-15832400D01*
X13501862Y-15832400D02*
X13520910Y-15841924D01*
X13520910Y-15841924D02*
X13530434Y-15860972D01*
X13530434Y-15860972D02*
X13530434Y-15965734D01*
X13530434Y-15860972D02*
X13539957Y-15841924D01*
X13539957Y-15841924D02*
X13559005Y-15832400D01*
X13559005Y-15832400D02*
X13587576Y-15832400D01*
X13587576Y-15832400D02*
X13606624Y-15841924D01*
X13606624Y-15841924D02*
X13616148Y-15860972D01*
X13616148Y-15860972D02*
X13616148Y-15965734D01*
X14006624Y-15756210D02*
X13835196Y-16013353D01*
X14263767Y-15765734D02*
X14282815Y-15765734D01*
X14282815Y-15765734D02*
X14301862Y-15775258D01*
X14301862Y-15775258D02*
X14311386Y-15784781D01*
X14311386Y-15784781D02*
X14320910Y-15803829D01*
X14320910Y-15803829D02*
X14330434Y-15841924D01*
X14330434Y-15841924D02*
X14330434Y-15889543D01*
X14330434Y-15889543D02*
X14320910Y-15927638D01*
X14320910Y-15927638D02*
X14311386Y-15946686D01*
X14311386Y-15946686D02*
X14301862Y-15956210D01*
X14301862Y-15956210D02*
X14282815Y-15965734D01*
X14282815Y-15965734D02*
X14263767Y-15965734D01*
X14263767Y-15965734D02*
X14244719Y-15956210D01*
X14244719Y-15956210D02*
X14235196Y-15946686D01*
X14235196Y-15946686D02*
X14225672Y-15927638D01*
X14225672Y-15927638D02*
X14216148Y-15889543D01*
X14216148Y-15889543D02*
X14216148Y-15841924D01*
X14216148Y-15841924D02*
X14225672Y-15803829D01*
X14225672Y-15803829D02*
X14235196Y-15784781D01*
X14235196Y-15784781D02*
X14244719Y-15775258D01*
X14244719Y-15775258D02*
X14263767Y-15765734D01*
X14416148Y-15946686D02*
X14425672Y-15956210D01*
X14425672Y-15956210D02*
X14416148Y-15965734D01*
X14416148Y-15965734D02*
X14406624Y-15956210D01*
X14406624Y-15956210D02*
X14416148Y-15946686D01*
X14416148Y-15946686D02*
X14416148Y-15965734D01*
X14549481Y-15765734D02*
X14568529Y-15765734D01*
X14568529Y-15765734D02*
X14587577Y-15775258D01*
X14587577Y-15775258D02*
X14597100Y-15784781D01*
X14597100Y-15784781D02*
X14606624Y-15803829D01*
X14606624Y-15803829D02*
X14616148Y-15841924D01*
X14616148Y-15841924D02*
X14616148Y-15889543D01*
X14616148Y-15889543D02*
X14606624Y-15927638D01*
X14606624Y-15927638D02*
X14597100Y-15946686D01*
X14597100Y-15946686D02*
X14587577Y-15956210D01*
X14587577Y-15956210D02*
X14568529Y-15965734D01*
X14568529Y-15965734D02*
X14549481Y-15965734D01*
X14549481Y-15965734D02*
X14530434Y-15956210D01*
X14530434Y-15956210D02*
X14520910Y-15946686D01*
X14520910Y-15946686D02*
X14511386Y-15927638D01*
X14511386Y-15927638D02*
X14501862Y-15889543D01*
X14501862Y-15889543D02*
X14501862Y-15841924D01*
X14501862Y-15841924D02*
X14511386Y-15803829D01*
X14511386Y-15803829D02*
X14520910Y-15784781D01*
X14520910Y-15784781D02*
X14530434Y-15775258D01*
X14530434Y-15775258D02*
X14549481Y-15765734D01*
X14682815Y-15765734D02*
X14806624Y-15765734D01*
X14806624Y-15765734D02*
X14739957Y-15841924D01*
X14739957Y-15841924D02*
X14768529Y-15841924D01*
X14768529Y-15841924D02*
X14787577Y-15851448D01*
X14787577Y-15851448D02*
X14797100Y-15860972D01*
X14797100Y-15860972D02*
X14806624Y-15880019D01*
X14806624Y-15880019D02*
X14806624Y-15927638D01*
X14806624Y-15927638D02*
X14797100Y-15946686D01*
X14797100Y-15946686D02*
X14787577Y-15956210D01*
X14787577Y-15956210D02*
X14768529Y-15965734D01*
X14768529Y-15965734D02*
X14711386Y-15965734D01*
X14711386Y-15965734D02*
X14692338Y-15956210D01*
X14692338Y-15956210D02*
X14682815Y-15946686D01*
X14997100Y-15965734D02*
X14882815Y-15965734D01*
X14939957Y-15965734D02*
X14939957Y-15765734D01*
X14939957Y-15765734D02*
X14920910Y-15794305D01*
X14920910Y-15794305D02*
X14901862Y-15813353D01*
X14901862Y-15813353D02*
X14882815Y-15822877D01*
X15178053Y-15765734D02*
X15082815Y-15765734D01*
X15082815Y-15765734D02*
X15073291Y-15860972D01*
X15073291Y-15860972D02*
X15082815Y-15851448D01*
X15082815Y-15851448D02*
X15101862Y-15841924D01*
X15101862Y-15841924D02*
X15149481Y-15841924D01*
X15149481Y-15841924D02*
X15168529Y-15851448D01*
X15168529Y-15851448D02*
X15178053Y-15860972D01*
X15178053Y-15860972D02*
X15187577Y-15880019D01*
X15187577Y-15880019D02*
X15187577Y-15927638D01*
X15187577Y-15927638D02*
X15178053Y-15946686D01*
X15178053Y-15946686D02*
X15168529Y-15956210D01*
X15168529Y-15956210D02*
X15149481Y-15965734D01*
X15149481Y-15965734D02*
X15101862Y-15965734D01*
X15101862Y-15965734D02*
X15082815Y-15956210D01*
X15082815Y-15956210D02*
X15073291Y-15946686D01*
X15263767Y-15765734D02*
X15263767Y-15803829D01*
X15339958Y-15765734D02*
X15339958Y-15803829D01*
X15635196Y-16041924D02*
X15625672Y-16032400D01*
X15625672Y-16032400D02*
X15606624Y-16003829D01*
X15606624Y-16003829D02*
X15597100Y-15984781D01*
X15597100Y-15984781D02*
X15587577Y-15956210D01*
X15587577Y-15956210D02*
X15578053Y-15908591D01*
X15578053Y-15908591D02*
X15578053Y-15870496D01*
X15578053Y-15870496D02*
X15587577Y-15822877D01*
X15587577Y-15822877D02*
X15597100Y-15794305D01*
X15597100Y-15794305D02*
X15606624Y-15775258D01*
X15606624Y-15775258D02*
X15625672Y-15746686D01*
X15625672Y-15746686D02*
X15635196Y-15737162D01*
X15692339Y-15765734D02*
X15816148Y-15765734D01*
X15816148Y-15765734D02*
X15749481Y-15841924D01*
X15749481Y-15841924D02*
X15778053Y-15841924D01*
X15778053Y-15841924D02*
X15797100Y-15851448D01*
X15797100Y-15851448D02*
X15806624Y-15860972D01*
X15806624Y-15860972D02*
X15816148Y-15880019D01*
X15816148Y-15880019D02*
X15816148Y-15927638D01*
X15816148Y-15927638D02*
X15806624Y-15946686D01*
X15806624Y-15946686D02*
X15797100Y-15956210D01*
X15797100Y-15956210D02*
X15778053Y-15965734D01*
X15778053Y-15965734D02*
X15720910Y-15965734D01*
X15720910Y-15965734D02*
X15701862Y-15956210D01*
X15701862Y-15956210D02*
X15692339Y-15946686D01*
X15892339Y-15784781D02*
X15901862Y-15775258D01*
X15901862Y-15775258D02*
X15920910Y-15765734D01*
X15920910Y-15765734D02*
X15968529Y-15765734D01*
X15968529Y-15765734D02*
X15987577Y-15775258D01*
X15987577Y-15775258D02*
X15997100Y-15784781D01*
X15997100Y-15784781D02*
X16006624Y-15803829D01*
X16006624Y-15803829D02*
X16006624Y-15822877D01*
X16006624Y-15822877D02*
X15997100Y-15851448D01*
X15997100Y-15851448D02*
X15882815Y-15965734D01*
X15882815Y-15965734D02*
X16006624Y-15965734D01*
X16244720Y-15965734D02*
X16244720Y-15765734D01*
X16330434Y-15965734D02*
X16330434Y-15860972D01*
X16330434Y-15860972D02*
X16320910Y-15841924D01*
X16320910Y-15841924D02*
X16301862Y-15832400D01*
X16301862Y-15832400D02*
X16273291Y-15832400D01*
X16273291Y-15832400D02*
X16254243Y-15841924D01*
X16254243Y-15841924D02*
X16244720Y-15851448D01*
X16454243Y-15965734D02*
X16435196Y-15956210D01*
X16435196Y-15956210D02*
X16425672Y-15946686D01*
X16425672Y-15946686D02*
X16416148Y-15927638D01*
X16416148Y-15927638D02*
X16416148Y-15870496D01*
X16416148Y-15870496D02*
X16425672Y-15851448D01*
X16425672Y-15851448D02*
X16435196Y-15841924D01*
X16435196Y-15841924D02*
X16454243Y-15832400D01*
X16454243Y-15832400D02*
X16482815Y-15832400D01*
X16482815Y-15832400D02*
X16501862Y-15841924D01*
X16501862Y-15841924D02*
X16511386Y-15851448D01*
X16511386Y-15851448D02*
X16520910Y-15870496D01*
X16520910Y-15870496D02*
X16520910Y-15927638D01*
X16520910Y-15927638D02*
X16511386Y-15946686D01*
X16511386Y-15946686D02*
X16501862Y-15956210D01*
X16501862Y-15956210D02*
X16482815Y-15965734D01*
X16482815Y-15965734D02*
X16454243Y-15965734D01*
X16635196Y-15965734D02*
X16616148Y-15956210D01*
X16616148Y-15956210D02*
X16606624Y-15937162D01*
X16606624Y-15937162D02*
X16606624Y-15765734D01*
X16787577Y-15956210D02*
X16768529Y-15965734D01*
X16768529Y-15965734D02*
X16730434Y-15965734D01*
X16730434Y-15965734D02*
X16711386Y-15956210D01*
X16711386Y-15956210D02*
X16701862Y-15937162D01*
X16701862Y-15937162D02*
X16701862Y-15860972D01*
X16701862Y-15860972D02*
X16711386Y-15841924D01*
X16711386Y-15841924D02*
X16730434Y-15832400D01*
X16730434Y-15832400D02*
X16768529Y-15832400D01*
X16768529Y-15832400D02*
X16787577Y-15841924D01*
X16787577Y-15841924D02*
X16797101Y-15860972D01*
X16797101Y-15860972D02*
X16797101Y-15880019D01*
X16797101Y-15880019D02*
X16701862Y-15899067D01*
X16873291Y-15956210D02*
X16892339Y-15965734D01*
X16892339Y-15965734D02*
X16930434Y-15965734D01*
X16930434Y-15965734D02*
X16949482Y-15956210D01*
X16949482Y-15956210D02*
X16959005Y-15937162D01*
X16959005Y-15937162D02*
X16959005Y-15927638D01*
X16959005Y-15927638D02*
X16949482Y-15908591D01*
X16949482Y-15908591D02*
X16930434Y-15899067D01*
X16930434Y-15899067D02*
X16901863Y-15899067D01*
X16901863Y-15899067D02*
X16882815Y-15889543D01*
X16882815Y-15889543D02*
X16873291Y-15870496D01*
X16873291Y-15870496D02*
X16873291Y-15860972D01*
X16873291Y-15860972D02*
X16882815Y-15841924D01*
X16882815Y-15841924D02*
X16901863Y-15832400D01*
X16901863Y-15832400D02*
X16930434Y-15832400D01*
X16930434Y-15832400D02*
X16949482Y-15841924D01*
X17025672Y-16041924D02*
X17035196Y-16032400D01*
X17035196Y-16032400D02*
X17054244Y-16003829D01*
X17054244Y-16003829D02*
X17063767Y-15984781D01*
X17063767Y-15984781D02*
X17073291Y-15956210D01*
X17073291Y-15956210D02*
X17082815Y-15908591D01*
X17082815Y-15908591D02*
X17082815Y-15870496D01*
X17082815Y-15870496D02*
X17073291Y-15822877D01*
X17073291Y-15822877D02*
X17063767Y-15794305D01*
X17063767Y-15794305D02*
X17054244Y-15775258D01*
X17054244Y-15775258D02*
X17035196Y-15746686D01*
X17035196Y-15746686D02*
X17025672Y-15737162D01*
D12*
X12045489Y-16173606D02*
X12045489Y-16102894D01*
X11974777Y-16102894D01*
X11974777Y-16173606D01*
X12045489Y-16173606D01*
D11*
X12425672Y-16229734D02*
X12311386Y-16229734D01*
X12368529Y-16229734D02*
X12368529Y-16029734D01*
X12368529Y-16029734D02*
X12349481Y-16058305D01*
X12349481Y-16058305D02*
X12330433Y-16077353D01*
X12330433Y-16077353D02*
X12311386Y-16086877D01*
X12511386Y-16210686D02*
X12520910Y-16220210D01*
X12520910Y-16220210D02*
X12511386Y-16229734D01*
X12511386Y-16229734D02*
X12501862Y-16220210D01*
X12501862Y-16220210D02*
X12511386Y-16210686D01*
X12511386Y-16210686D02*
X12511386Y-16229734D01*
X12644719Y-16029734D02*
X12663767Y-16029734D01*
X12663767Y-16029734D02*
X12682814Y-16039258D01*
X12682814Y-16039258D02*
X12692338Y-16048781D01*
X12692338Y-16048781D02*
X12701862Y-16067829D01*
X12701862Y-16067829D02*
X12711386Y-16105924D01*
X12711386Y-16105924D02*
X12711386Y-16153543D01*
X12711386Y-16153543D02*
X12701862Y-16191638D01*
X12701862Y-16191638D02*
X12692338Y-16210686D01*
X12692338Y-16210686D02*
X12682814Y-16220210D01*
X12682814Y-16220210D02*
X12663767Y-16229734D01*
X12663767Y-16229734D02*
X12644719Y-16229734D01*
X12644719Y-16229734D02*
X12625672Y-16220210D01*
X12625672Y-16220210D02*
X12616148Y-16210686D01*
X12616148Y-16210686D02*
X12606624Y-16191638D01*
X12606624Y-16191638D02*
X12597100Y-16153543D01*
X12597100Y-16153543D02*
X12597100Y-16105924D01*
X12597100Y-16105924D02*
X12606624Y-16067829D01*
X12606624Y-16067829D02*
X12616148Y-16048781D01*
X12616148Y-16048781D02*
X12625672Y-16039258D01*
X12625672Y-16039258D02*
X12644719Y-16029734D01*
X12835195Y-16029734D02*
X12854243Y-16029734D01*
X12854243Y-16029734D02*
X12873291Y-16039258D01*
X12873291Y-16039258D02*
X12882814Y-16048781D01*
X12882814Y-16048781D02*
X12892338Y-16067829D01*
X12892338Y-16067829D02*
X12901862Y-16105924D01*
X12901862Y-16105924D02*
X12901862Y-16153543D01*
X12901862Y-16153543D02*
X12892338Y-16191638D01*
X12892338Y-16191638D02*
X12882814Y-16210686D01*
X12882814Y-16210686D02*
X12873291Y-16220210D01*
X12873291Y-16220210D02*
X12854243Y-16229734D01*
X12854243Y-16229734D02*
X12835195Y-16229734D01*
X12835195Y-16229734D02*
X12816148Y-16220210D01*
X12816148Y-16220210D02*
X12806624Y-16210686D01*
X12806624Y-16210686D02*
X12797100Y-16191638D01*
X12797100Y-16191638D02*
X12787576Y-16153543D01*
X12787576Y-16153543D02*
X12787576Y-16105924D01*
X12787576Y-16105924D02*
X12797100Y-16067829D01*
X12797100Y-16067829D02*
X12806624Y-16048781D01*
X12806624Y-16048781D02*
X12816148Y-16039258D01*
X12816148Y-16039258D02*
X12835195Y-16029734D01*
X13025672Y-16029734D02*
X13044719Y-16029734D01*
X13044719Y-16029734D02*
X13063767Y-16039258D01*
X13063767Y-16039258D02*
X13073291Y-16048781D01*
X13073291Y-16048781D02*
X13082814Y-16067829D01*
X13082814Y-16067829D02*
X13092338Y-16105924D01*
X13092338Y-16105924D02*
X13092338Y-16153543D01*
X13092338Y-16153543D02*
X13082814Y-16191638D01*
X13082814Y-16191638D02*
X13073291Y-16210686D01*
X13073291Y-16210686D02*
X13063767Y-16220210D01*
X13063767Y-16220210D02*
X13044719Y-16229734D01*
X13044719Y-16229734D02*
X13025672Y-16229734D01*
X13025672Y-16229734D02*
X13006624Y-16220210D01*
X13006624Y-16220210D02*
X12997100Y-16210686D01*
X12997100Y-16210686D02*
X12987576Y-16191638D01*
X12987576Y-16191638D02*
X12978053Y-16153543D01*
X12978053Y-16153543D02*
X12978053Y-16105924D01*
X12978053Y-16105924D02*
X12987576Y-16067829D01*
X12987576Y-16067829D02*
X12997100Y-16048781D01*
X12997100Y-16048781D02*
X13006624Y-16039258D01*
X13006624Y-16039258D02*
X13025672Y-16029734D01*
X13178053Y-16229734D02*
X13178053Y-16096400D01*
X13178053Y-16115448D02*
X13187576Y-16105924D01*
X13187576Y-16105924D02*
X13206624Y-16096400D01*
X13206624Y-16096400D02*
X13235195Y-16096400D01*
X13235195Y-16096400D02*
X13254243Y-16105924D01*
X13254243Y-16105924D02*
X13263767Y-16124972D01*
X13263767Y-16124972D02*
X13263767Y-16229734D01*
X13263767Y-16124972D02*
X13273291Y-16105924D01*
X13273291Y-16105924D02*
X13292338Y-16096400D01*
X13292338Y-16096400D02*
X13320910Y-16096400D01*
X13320910Y-16096400D02*
X13339957Y-16105924D01*
X13339957Y-16105924D02*
X13349481Y-16124972D01*
X13349481Y-16124972D02*
X13349481Y-16229734D01*
X13444719Y-16229734D02*
X13444719Y-16096400D01*
X13444719Y-16115448D02*
X13454243Y-16105924D01*
X13454243Y-16105924D02*
X13473291Y-16096400D01*
X13473291Y-16096400D02*
X13501862Y-16096400D01*
X13501862Y-16096400D02*
X13520910Y-16105924D01*
X13520910Y-16105924D02*
X13530434Y-16124972D01*
X13530434Y-16124972D02*
X13530434Y-16229734D01*
X13530434Y-16124972D02*
X13539957Y-16105924D01*
X13539957Y-16105924D02*
X13559005Y-16096400D01*
X13559005Y-16096400D02*
X13587576Y-16096400D01*
X13587576Y-16096400D02*
X13606624Y-16105924D01*
X13606624Y-16105924D02*
X13616148Y-16124972D01*
X13616148Y-16124972D02*
X13616148Y-16229734D01*
X14006624Y-16020210D02*
X13835196Y-16277353D01*
X14263767Y-16029734D02*
X14282815Y-16029734D01*
X14282815Y-16029734D02*
X14301862Y-16039258D01*
X14301862Y-16039258D02*
X14311386Y-16048781D01*
X14311386Y-16048781D02*
X14320910Y-16067829D01*
X14320910Y-16067829D02*
X14330434Y-16105924D01*
X14330434Y-16105924D02*
X14330434Y-16153543D01*
X14330434Y-16153543D02*
X14320910Y-16191638D01*
X14320910Y-16191638D02*
X14311386Y-16210686D01*
X14311386Y-16210686D02*
X14301862Y-16220210D01*
X14301862Y-16220210D02*
X14282815Y-16229734D01*
X14282815Y-16229734D02*
X14263767Y-16229734D01*
X14263767Y-16229734D02*
X14244719Y-16220210D01*
X14244719Y-16220210D02*
X14235196Y-16210686D01*
X14235196Y-16210686D02*
X14225672Y-16191638D01*
X14225672Y-16191638D02*
X14216148Y-16153543D01*
X14216148Y-16153543D02*
X14216148Y-16105924D01*
X14216148Y-16105924D02*
X14225672Y-16067829D01*
X14225672Y-16067829D02*
X14235196Y-16048781D01*
X14235196Y-16048781D02*
X14244719Y-16039258D01*
X14244719Y-16039258D02*
X14263767Y-16029734D01*
X14416148Y-16210686D02*
X14425672Y-16220210D01*
X14425672Y-16220210D02*
X14416148Y-16229734D01*
X14416148Y-16229734D02*
X14406624Y-16220210D01*
X14406624Y-16220210D02*
X14416148Y-16210686D01*
X14416148Y-16210686D02*
X14416148Y-16229734D01*
X14549481Y-16029734D02*
X14568529Y-16029734D01*
X14568529Y-16029734D02*
X14587577Y-16039258D01*
X14587577Y-16039258D02*
X14597100Y-16048781D01*
X14597100Y-16048781D02*
X14606624Y-16067829D01*
X14606624Y-16067829D02*
X14616148Y-16105924D01*
X14616148Y-16105924D02*
X14616148Y-16153543D01*
X14616148Y-16153543D02*
X14606624Y-16191638D01*
X14606624Y-16191638D02*
X14597100Y-16210686D01*
X14597100Y-16210686D02*
X14587577Y-16220210D01*
X14587577Y-16220210D02*
X14568529Y-16229734D01*
X14568529Y-16229734D02*
X14549481Y-16229734D01*
X14549481Y-16229734D02*
X14530434Y-16220210D01*
X14530434Y-16220210D02*
X14520910Y-16210686D01*
X14520910Y-16210686D02*
X14511386Y-16191638D01*
X14511386Y-16191638D02*
X14501862Y-16153543D01*
X14501862Y-16153543D02*
X14501862Y-16105924D01*
X14501862Y-16105924D02*
X14511386Y-16067829D01*
X14511386Y-16067829D02*
X14520910Y-16048781D01*
X14520910Y-16048781D02*
X14530434Y-16039258D01*
X14530434Y-16039258D02*
X14549481Y-16029734D01*
X14682815Y-16029734D02*
X14806624Y-16029734D01*
X14806624Y-16029734D02*
X14739957Y-16105924D01*
X14739957Y-16105924D02*
X14768529Y-16105924D01*
X14768529Y-16105924D02*
X14787577Y-16115448D01*
X14787577Y-16115448D02*
X14797100Y-16124972D01*
X14797100Y-16124972D02*
X14806624Y-16144019D01*
X14806624Y-16144019D02*
X14806624Y-16191638D01*
X14806624Y-16191638D02*
X14797100Y-16210686D01*
X14797100Y-16210686D02*
X14787577Y-16220210D01*
X14787577Y-16220210D02*
X14768529Y-16229734D01*
X14768529Y-16229734D02*
X14711386Y-16229734D01*
X14711386Y-16229734D02*
X14692338Y-16220210D01*
X14692338Y-16220210D02*
X14682815Y-16210686D01*
X14901862Y-16229734D02*
X14939957Y-16229734D01*
X14939957Y-16229734D02*
X14959005Y-16220210D01*
X14959005Y-16220210D02*
X14968529Y-16210686D01*
X14968529Y-16210686D02*
X14987577Y-16182115D01*
X14987577Y-16182115D02*
X14997100Y-16144019D01*
X14997100Y-16144019D02*
X14997100Y-16067829D01*
X14997100Y-16067829D02*
X14987577Y-16048781D01*
X14987577Y-16048781D02*
X14978053Y-16039258D01*
X14978053Y-16039258D02*
X14959005Y-16029734D01*
X14959005Y-16029734D02*
X14920910Y-16029734D01*
X14920910Y-16029734D02*
X14901862Y-16039258D01*
X14901862Y-16039258D02*
X14892338Y-16048781D01*
X14892338Y-16048781D02*
X14882815Y-16067829D01*
X14882815Y-16067829D02*
X14882815Y-16115448D01*
X14882815Y-16115448D02*
X14892338Y-16134496D01*
X14892338Y-16134496D02*
X14901862Y-16144019D01*
X14901862Y-16144019D02*
X14920910Y-16153543D01*
X14920910Y-16153543D02*
X14959005Y-16153543D01*
X14959005Y-16153543D02*
X14978053Y-16144019D01*
X14978053Y-16144019D02*
X14987577Y-16134496D01*
X14987577Y-16134496D02*
X14997100Y-16115448D01*
X15168529Y-16096400D02*
X15168529Y-16229734D01*
X15120910Y-16020210D02*
X15073291Y-16163067D01*
X15073291Y-16163067D02*
X15197100Y-16163067D01*
X15263767Y-16029734D02*
X15263767Y-16067829D01*
X15339958Y-16029734D02*
X15339958Y-16067829D01*
X15635196Y-16305924D02*
X15625672Y-16296400D01*
X15625672Y-16296400D02*
X15606624Y-16267829D01*
X15606624Y-16267829D02*
X15597100Y-16248781D01*
X15597100Y-16248781D02*
X15587577Y-16220210D01*
X15587577Y-16220210D02*
X15578053Y-16172591D01*
X15578053Y-16172591D02*
X15578053Y-16134496D01*
X15578053Y-16134496D02*
X15587577Y-16086877D01*
X15587577Y-16086877D02*
X15597100Y-16058305D01*
X15597100Y-16058305D02*
X15606624Y-16039258D01*
X15606624Y-16039258D02*
X15625672Y-16010686D01*
X15625672Y-16010686D02*
X15635196Y-16001162D01*
X15806624Y-16029734D02*
X15711386Y-16029734D01*
X15711386Y-16029734D02*
X15701862Y-16124972D01*
X15701862Y-16124972D02*
X15711386Y-16115448D01*
X15711386Y-16115448D02*
X15730434Y-16105924D01*
X15730434Y-16105924D02*
X15778053Y-16105924D01*
X15778053Y-16105924D02*
X15797100Y-16115448D01*
X15797100Y-16115448D02*
X15806624Y-16124972D01*
X15806624Y-16124972D02*
X15816148Y-16144019D01*
X15816148Y-16144019D02*
X15816148Y-16191638D01*
X15816148Y-16191638D02*
X15806624Y-16210686D01*
X15806624Y-16210686D02*
X15797100Y-16220210D01*
X15797100Y-16220210D02*
X15778053Y-16229734D01*
X15778053Y-16229734D02*
X15730434Y-16229734D01*
X15730434Y-16229734D02*
X15711386Y-16220210D01*
X15711386Y-16220210D02*
X15701862Y-16210686D01*
X15892339Y-16048781D02*
X15901862Y-16039258D01*
X15901862Y-16039258D02*
X15920910Y-16029734D01*
X15920910Y-16029734D02*
X15968529Y-16029734D01*
X15968529Y-16029734D02*
X15987577Y-16039258D01*
X15987577Y-16039258D02*
X15997100Y-16048781D01*
X15997100Y-16048781D02*
X16006624Y-16067829D01*
X16006624Y-16067829D02*
X16006624Y-16086877D01*
X16006624Y-16086877D02*
X15997100Y-16115448D01*
X15997100Y-16115448D02*
X15882815Y-16229734D01*
X15882815Y-16229734D02*
X16006624Y-16229734D01*
X16244720Y-16229734D02*
X16244720Y-16029734D01*
X16330434Y-16229734D02*
X16330434Y-16124972D01*
X16330434Y-16124972D02*
X16320910Y-16105924D01*
X16320910Y-16105924D02*
X16301862Y-16096400D01*
X16301862Y-16096400D02*
X16273291Y-16096400D01*
X16273291Y-16096400D02*
X16254243Y-16105924D01*
X16254243Y-16105924D02*
X16244720Y-16115448D01*
X16454243Y-16229734D02*
X16435196Y-16220210D01*
X16435196Y-16220210D02*
X16425672Y-16210686D01*
X16425672Y-16210686D02*
X16416148Y-16191638D01*
X16416148Y-16191638D02*
X16416148Y-16134496D01*
X16416148Y-16134496D02*
X16425672Y-16115448D01*
X16425672Y-16115448D02*
X16435196Y-16105924D01*
X16435196Y-16105924D02*
X16454243Y-16096400D01*
X16454243Y-16096400D02*
X16482815Y-16096400D01*
X16482815Y-16096400D02*
X16501862Y-16105924D01*
X16501862Y-16105924D02*
X16511386Y-16115448D01*
X16511386Y-16115448D02*
X16520910Y-16134496D01*
X16520910Y-16134496D02*
X16520910Y-16191638D01*
X16520910Y-16191638D02*
X16511386Y-16210686D01*
X16511386Y-16210686D02*
X16501862Y-16220210D01*
X16501862Y-16220210D02*
X16482815Y-16229734D01*
X16482815Y-16229734D02*
X16454243Y-16229734D01*
X16635196Y-16229734D02*
X16616148Y-16220210D01*
X16616148Y-16220210D02*
X16606624Y-16201162D01*
X16606624Y-16201162D02*
X16606624Y-16029734D01*
X16787577Y-16220210D02*
X16768529Y-16229734D01*
X16768529Y-16229734D02*
X16730434Y-16229734D01*
X16730434Y-16229734D02*
X16711386Y-16220210D01*
X16711386Y-16220210D02*
X16701862Y-16201162D01*
X16701862Y-16201162D02*
X16701862Y-16124972D01*
X16701862Y-16124972D02*
X16711386Y-16105924D01*
X16711386Y-16105924D02*
X16730434Y-16096400D01*
X16730434Y-16096400D02*
X16768529Y-16096400D01*
X16768529Y-16096400D02*
X16787577Y-16105924D01*
X16787577Y-16105924D02*
X16797101Y-16124972D01*
X16797101Y-16124972D02*
X16797101Y-16144019D01*
X16797101Y-16144019D02*
X16701862Y-16163067D01*
X16873291Y-16220210D02*
X16892339Y-16229734D01*
X16892339Y-16229734D02*
X16930434Y-16229734D01*
X16930434Y-16229734D02*
X16949482Y-16220210D01*
X16949482Y-16220210D02*
X16959005Y-16201162D01*
X16959005Y-16201162D02*
X16959005Y-16191638D01*
X16959005Y-16191638D02*
X16949482Y-16172591D01*
X16949482Y-16172591D02*
X16930434Y-16163067D01*
X16930434Y-16163067D02*
X16901863Y-16163067D01*
X16901863Y-16163067D02*
X16882815Y-16153543D01*
X16882815Y-16153543D02*
X16873291Y-16134496D01*
X16873291Y-16134496D02*
X16873291Y-16124972D01*
X16873291Y-16124972D02*
X16882815Y-16105924D01*
X16882815Y-16105924D02*
X16901863Y-16096400D01*
X16901863Y-16096400D02*
X16930434Y-16096400D01*
X16930434Y-16096400D02*
X16949482Y-16105924D01*
X17025672Y-16305924D02*
X17035196Y-16296400D01*
X17035196Y-16296400D02*
X17054244Y-16267829D01*
X17054244Y-16267829D02*
X17063767Y-16248781D01*
X17063767Y-16248781D02*
X17073291Y-16220210D01*
X17073291Y-16220210D02*
X17082815Y-16172591D01*
X17082815Y-16172591D02*
X17082815Y-16134496D01*
X17082815Y-16134496D02*
X17073291Y-16086877D01*
X17073291Y-16086877D02*
X17063767Y-16058305D01*
X17063767Y-16058305D02*
X17054244Y-16039258D01*
X17054244Y-16039258D02*
X17035196Y-16010686D01*
X17035196Y-16010686D02*
X17025672Y-16001162D01*
X11960133Y-16502250D02*
X12060133Y-16402250D01*
X11960133Y-16302250D01*
X11860133Y-16402250D01*
X11960133Y-16502250D01*
X12301862Y-16293734D02*
X12425672Y-16293734D01*
X12425672Y-16293734D02*
X12359005Y-16369924D01*
X12359005Y-16369924D02*
X12387576Y-16369924D01*
X12387576Y-16369924D02*
X12406624Y-16379448D01*
X12406624Y-16379448D02*
X12416148Y-16388972D01*
X12416148Y-16388972D02*
X12425672Y-16408019D01*
X12425672Y-16408019D02*
X12425672Y-16455638D01*
X12425672Y-16455638D02*
X12416148Y-16474686D01*
X12416148Y-16474686D02*
X12406624Y-16484210D01*
X12406624Y-16484210D02*
X12387576Y-16493734D01*
X12387576Y-16493734D02*
X12330433Y-16493734D01*
X12330433Y-16493734D02*
X12311386Y-16484210D01*
X12311386Y-16484210D02*
X12301862Y-16474686D01*
X12511386Y-16474686D02*
X12520910Y-16484210D01*
X12520910Y-16484210D02*
X12511386Y-16493734D01*
X12511386Y-16493734D02*
X12501862Y-16484210D01*
X12501862Y-16484210D02*
X12511386Y-16474686D01*
X12511386Y-16474686D02*
X12511386Y-16493734D01*
X12597100Y-16312781D02*
X12606624Y-16303258D01*
X12606624Y-16303258D02*
X12625672Y-16293734D01*
X12625672Y-16293734D02*
X12673291Y-16293734D01*
X12673291Y-16293734D02*
X12692338Y-16303258D01*
X12692338Y-16303258D02*
X12701862Y-16312781D01*
X12701862Y-16312781D02*
X12711386Y-16331829D01*
X12711386Y-16331829D02*
X12711386Y-16350877D01*
X12711386Y-16350877D02*
X12701862Y-16379448D01*
X12701862Y-16379448D02*
X12587576Y-16493734D01*
X12587576Y-16493734D02*
X12711386Y-16493734D01*
X12835195Y-16293734D02*
X12854243Y-16293734D01*
X12854243Y-16293734D02*
X12873291Y-16303258D01*
X12873291Y-16303258D02*
X12882814Y-16312781D01*
X12882814Y-16312781D02*
X12892338Y-16331829D01*
X12892338Y-16331829D02*
X12901862Y-16369924D01*
X12901862Y-16369924D02*
X12901862Y-16417543D01*
X12901862Y-16417543D02*
X12892338Y-16455638D01*
X12892338Y-16455638D02*
X12882814Y-16474686D01*
X12882814Y-16474686D02*
X12873291Y-16484210D01*
X12873291Y-16484210D02*
X12854243Y-16493734D01*
X12854243Y-16493734D02*
X12835195Y-16493734D01*
X12835195Y-16493734D02*
X12816148Y-16484210D01*
X12816148Y-16484210D02*
X12806624Y-16474686D01*
X12806624Y-16474686D02*
X12797100Y-16455638D01*
X12797100Y-16455638D02*
X12787576Y-16417543D01*
X12787576Y-16417543D02*
X12787576Y-16369924D01*
X12787576Y-16369924D02*
X12797100Y-16331829D01*
X12797100Y-16331829D02*
X12806624Y-16312781D01*
X12806624Y-16312781D02*
X12816148Y-16303258D01*
X12816148Y-16303258D02*
X12835195Y-16293734D01*
X13025672Y-16293734D02*
X13044719Y-16293734D01*
X13044719Y-16293734D02*
X13063767Y-16303258D01*
X13063767Y-16303258D02*
X13073291Y-16312781D01*
X13073291Y-16312781D02*
X13082814Y-16331829D01*
X13082814Y-16331829D02*
X13092338Y-16369924D01*
X13092338Y-16369924D02*
X13092338Y-16417543D01*
X13092338Y-16417543D02*
X13082814Y-16455638D01*
X13082814Y-16455638D02*
X13073291Y-16474686D01*
X13073291Y-16474686D02*
X13063767Y-16484210D01*
X13063767Y-16484210D02*
X13044719Y-16493734D01*
X13044719Y-16493734D02*
X13025672Y-16493734D01*
X13025672Y-16493734D02*
X13006624Y-16484210D01*
X13006624Y-16484210D02*
X12997100Y-16474686D01*
X12997100Y-16474686D02*
X12987576Y-16455638D01*
X12987576Y-16455638D02*
X12978053Y-16417543D01*
X12978053Y-16417543D02*
X12978053Y-16369924D01*
X12978053Y-16369924D02*
X12987576Y-16331829D01*
X12987576Y-16331829D02*
X12997100Y-16312781D01*
X12997100Y-16312781D02*
X13006624Y-16303258D01*
X13006624Y-16303258D02*
X13025672Y-16293734D01*
X13178053Y-16493734D02*
X13178053Y-16360400D01*
X13178053Y-16379448D02*
X13187576Y-16369924D01*
X13187576Y-16369924D02*
X13206624Y-16360400D01*
X13206624Y-16360400D02*
X13235195Y-16360400D01*
X13235195Y-16360400D02*
X13254243Y-16369924D01*
X13254243Y-16369924D02*
X13263767Y-16388972D01*
X13263767Y-16388972D02*
X13263767Y-16493734D01*
X13263767Y-16388972D02*
X13273291Y-16369924D01*
X13273291Y-16369924D02*
X13292338Y-16360400D01*
X13292338Y-16360400D02*
X13320910Y-16360400D01*
X13320910Y-16360400D02*
X13339957Y-16369924D01*
X13339957Y-16369924D02*
X13349481Y-16388972D01*
X13349481Y-16388972D02*
X13349481Y-16493734D01*
X13444719Y-16493734D02*
X13444719Y-16360400D01*
X13444719Y-16379448D02*
X13454243Y-16369924D01*
X13454243Y-16369924D02*
X13473291Y-16360400D01*
X13473291Y-16360400D02*
X13501862Y-16360400D01*
X13501862Y-16360400D02*
X13520910Y-16369924D01*
X13520910Y-16369924D02*
X13530434Y-16388972D01*
X13530434Y-16388972D02*
X13530434Y-16493734D01*
X13530434Y-16388972D02*
X13539957Y-16369924D01*
X13539957Y-16369924D02*
X13559005Y-16360400D01*
X13559005Y-16360400D02*
X13587576Y-16360400D01*
X13587576Y-16360400D02*
X13606624Y-16369924D01*
X13606624Y-16369924D02*
X13616148Y-16388972D01*
X13616148Y-16388972D02*
X13616148Y-16493734D01*
X14006624Y-16284210D02*
X13835196Y-16541353D01*
X14263767Y-16293734D02*
X14282815Y-16293734D01*
X14282815Y-16293734D02*
X14301862Y-16303258D01*
X14301862Y-16303258D02*
X14311386Y-16312781D01*
X14311386Y-16312781D02*
X14320910Y-16331829D01*
X14320910Y-16331829D02*
X14330434Y-16369924D01*
X14330434Y-16369924D02*
X14330434Y-16417543D01*
X14330434Y-16417543D02*
X14320910Y-16455638D01*
X14320910Y-16455638D02*
X14311386Y-16474686D01*
X14311386Y-16474686D02*
X14301862Y-16484210D01*
X14301862Y-16484210D02*
X14282815Y-16493734D01*
X14282815Y-16493734D02*
X14263767Y-16493734D01*
X14263767Y-16493734D02*
X14244719Y-16484210D01*
X14244719Y-16484210D02*
X14235196Y-16474686D01*
X14235196Y-16474686D02*
X14225672Y-16455638D01*
X14225672Y-16455638D02*
X14216148Y-16417543D01*
X14216148Y-16417543D02*
X14216148Y-16369924D01*
X14216148Y-16369924D02*
X14225672Y-16331829D01*
X14225672Y-16331829D02*
X14235196Y-16312781D01*
X14235196Y-16312781D02*
X14244719Y-16303258D01*
X14244719Y-16303258D02*
X14263767Y-16293734D01*
X14416148Y-16474686D02*
X14425672Y-16484210D01*
X14425672Y-16484210D02*
X14416148Y-16493734D01*
X14416148Y-16493734D02*
X14406624Y-16484210D01*
X14406624Y-16484210D02*
X14416148Y-16474686D01*
X14416148Y-16474686D02*
X14416148Y-16493734D01*
X14616148Y-16493734D02*
X14501862Y-16493734D01*
X14559005Y-16493734D02*
X14559005Y-16293734D01*
X14559005Y-16293734D02*
X14539957Y-16322305D01*
X14539957Y-16322305D02*
X14520910Y-16341353D01*
X14520910Y-16341353D02*
X14501862Y-16350877D01*
X14692338Y-16312781D02*
X14701862Y-16303258D01*
X14701862Y-16303258D02*
X14720910Y-16293734D01*
X14720910Y-16293734D02*
X14768529Y-16293734D01*
X14768529Y-16293734D02*
X14787577Y-16303258D01*
X14787577Y-16303258D02*
X14797100Y-16312781D01*
X14797100Y-16312781D02*
X14806624Y-16331829D01*
X14806624Y-16331829D02*
X14806624Y-16350877D01*
X14806624Y-16350877D02*
X14797100Y-16379448D01*
X14797100Y-16379448D02*
X14682815Y-16493734D01*
X14682815Y-16493734D02*
X14806624Y-16493734D01*
X14978053Y-16293734D02*
X14939957Y-16293734D01*
X14939957Y-16293734D02*
X14920910Y-16303258D01*
X14920910Y-16303258D02*
X14911386Y-16312781D01*
X14911386Y-16312781D02*
X14892338Y-16341353D01*
X14892338Y-16341353D02*
X14882815Y-16379448D01*
X14882815Y-16379448D02*
X14882815Y-16455638D01*
X14882815Y-16455638D02*
X14892338Y-16474686D01*
X14892338Y-16474686D02*
X14901862Y-16484210D01*
X14901862Y-16484210D02*
X14920910Y-16493734D01*
X14920910Y-16493734D02*
X14959005Y-16493734D01*
X14959005Y-16493734D02*
X14978053Y-16484210D01*
X14978053Y-16484210D02*
X14987577Y-16474686D01*
X14987577Y-16474686D02*
X14997100Y-16455638D01*
X14997100Y-16455638D02*
X14997100Y-16408019D01*
X14997100Y-16408019D02*
X14987577Y-16388972D01*
X14987577Y-16388972D02*
X14978053Y-16379448D01*
X14978053Y-16379448D02*
X14959005Y-16369924D01*
X14959005Y-16369924D02*
X14920910Y-16369924D01*
X14920910Y-16369924D02*
X14901862Y-16379448D01*
X14901862Y-16379448D02*
X14892338Y-16388972D01*
X14892338Y-16388972D02*
X14882815Y-16408019D01*
X15120910Y-16293734D02*
X15139958Y-16293734D01*
X15139958Y-16293734D02*
X15159005Y-16303258D01*
X15159005Y-16303258D02*
X15168529Y-16312781D01*
X15168529Y-16312781D02*
X15178053Y-16331829D01*
X15178053Y-16331829D02*
X15187577Y-16369924D01*
X15187577Y-16369924D02*
X15187577Y-16417543D01*
X15187577Y-16417543D02*
X15178053Y-16455638D01*
X15178053Y-16455638D02*
X15168529Y-16474686D01*
X15168529Y-16474686D02*
X15159005Y-16484210D01*
X15159005Y-16484210D02*
X15139958Y-16493734D01*
X15139958Y-16493734D02*
X15120910Y-16493734D01*
X15120910Y-16493734D02*
X15101862Y-16484210D01*
X15101862Y-16484210D02*
X15092338Y-16474686D01*
X15092338Y-16474686D02*
X15082815Y-16455638D01*
X15082815Y-16455638D02*
X15073291Y-16417543D01*
X15073291Y-16417543D02*
X15073291Y-16369924D01*
X15073291Y-16369924D02*
X15082815Y-16331829D01*
X15082815Y-16331829D02*
X15092338Y-16312781D01*
X15092338Y-16312781D02*
X15101862Y-16303258D01*
X15101862Y-16303258D02*
X15120910Y-16293734D01*
X15263767Y-16293734D02*
X15263767Y-16331829D01*
X15339958Y-16293734D02*
X15339958Y-16331829D01*
X15635196Y-16569924D02*
X15625672Y-16560400D01*
X15625672Y-16560400D02*
X15606624Y-16531829D01*
X15606624Y-16531829D02*
X15597100Y-16512781D01*
X15597100Y-16512781D02*
X15587577Y-16484210D01*
X15587577Y-16484210D02*
X15578053Y-16436591D01*
X15578053Y-16436591D02*
X15578053Y-16398496D01*
X15578053Y-16398496D02*
X15587577Y-16350877D01*
X15587577Y-16350877D02*
X15597100Y-16322305D01*
X15597100Y-16322305D02*
X15606624Y-16303258D01*
X15606624Y-16303258D02*
X15625672Y-16274686D01*
X15625672Y-16274686D02*
X15635196Y-16265162D01*
X15797100Y-16360400D02*
X15797100Y-16493734D01*
X15749481Y-16284210D02*
X15701862Y-16427067D01*
X15701862Y-16427067D02*
X15825672Y-16427067D01*
X16054243Y-16493734D02*
X16054243Y-16293734D01*
X16139958Y-16493734D02*
X16139958Y-16388972D01*
X16139958Y-16388972D02*
X16130434Y-16369924D01*
X16130434Y-16369924D02*
X16111386Y-16360400D01*
X16111386Y-16360400D02*
X16082815Y-16360400D01*
X16082815Y-16360400D02*
X16063767Y-16369924D01*
X16063767Y-16369924D02*
X16054243Y-16379448D01*
X16263767Y-16493734D02*
X16244720Y-16484210D01*
X16244720Y-16484210D02*
X16235196Y-16474686D01*
X16235196Y-16474686D02*
X16225672Y-16455638D01*
X16225672Y-16455638D02*
X16225672Y-16398496D01*
X16225672Y-16398496D02*
X16235196Y-16379448D01*
X16235196Y-16379448D02*
X16244720Y-16369924D01*
X16244720Y-16369924D02*
X16263767Y-16360400D01*
X16263767Y-16360400D02*
X16292339Y-16360400D01*
X16292339Y-16360400D02*
X16311386Y-16369924D01*
X16311386Y-16369924D02*
X16320910Y-16379448D01*
X16320910Y-16379448D02*
X16330434Y-16398496D01*
X16330434Y-16398496D02*
X16330434Y-16455638D01*
X16330434Y-16455638D02*
X16320910Y-16474686D01*
X16320910Y-16474686D02*
X16311386Y-16484210D01*
X16311386Y-16484210D02*
X16292339Y-16493734D01*
X16292339Y-16493734D02*
X16263767Y-16493734D01*
X16444720Y-16493734D02*
X16425672Y-16484210D01*
X16425672Y-16484210D02*
X16416148Y-16465162D01*
X16416148Y-16465162D02*
X16416148Y-16293734D01*
X16597101Y-16484210D02*
X16578053Y-16493734D01*
X16578053Y-16493734D02*
X16539958Y-16493734D01*
X16539958Y-16493734D02*
X16520910Y-16484210D01*
X16520910Y-16484210D02*
X16511386Y-16465162D01*
X16511386Y-16465162D02*
X16511386Y-16388972D01*
X16511386Y-16388972D02*
X16520910Y-16369924D01*
X16520910Y-16369924D02*
X16539958Y-16360400D01*
X16539958Y-16360400D02*
X16578053Y-16360400D01*
X16578053Y-16360400D02*
X16597101Y-16369924D01*
X16597101Y-16369924D02*
X16606624Y-16388972D01*
X16606624Y-16388972D02*
X16606624Y-16408019D01*
X16606624Y-16408019D02*
X16511386Y-16427067D01*
X16682815Y-16484210D02*
X16701862Y-16493734D01*
X16701862Y-16493734D02*
X16739958Y-16493734D01*
X16739958Y-16493734D02*
X16759005Y-16484210D01*
X16759005Y-16484210D02*
X16768529Y-16465162D01*
X16768529Y-16465162D02*
X16768529Y-16455638D01*
X16768529Y-16455638D02*
X16759005Y-16436591D01*
X16759005Y-16436591D02*
X16739958Y-16427067D01*
X16739958Y-16427067D02*
X16711386Y-16427067D01*
X16711386Y-16427067D02*
X16692339Y-16417543D01*
X16692339Y-16417543D02*
X16682815Y-16398496D01*
X16682815Y-16398496D02*
X16682815Y-16388972D01*
X16682815Y-16388972D02*
X16692339Y-16369924D01*
X16692339Y-16369924D02*
X16711386Y-16360400D01*
X16711386Y-16360400D02*
X16739958Y-16360400D01*
X16739958Y-16360400D02*
X16759005Y-16369924D01*
X16835196Y-16569924D02*
X16844720Y-16560400D01*
X16844720Y-16560400D02*
X16863767Y-16531829D01*
X16863767Y-16531829D02*
X16873291Y-16512781D01*
X16873291Y-16512781D02*
X16882815Y-16484210D01*
X16882815Y-16484210D02*
X16892339Y-16436591D01*
X16892339Y-16436591D02*
X16892339Y-16398496D01*
X16892339Y-16398496D02*
X16882815Y-16350877D01*
X16882815Y-16350877D02*
X16873291Y-16322305D01*
X16873291Y-16322305D02*
X16863767Y-16303258D01*
X16863767Y-16303258D02*
X16844720Y-16274686D01*
X16844720Y-16274686D02*
X16835196Y-16265162D01*
M02*
