%TF.GenerationSoftware,KiCad,Pcbnew,7.0.11*%
%TF.CreationDate,2024-09-15T10:51:41+02:00*%
%TF.ProjectId,macropad,6d616372-6f70-4616-942e-6b696361645f,rev?*%
%TF.SameCoordinates,Original*%
%TF.FileFunction,Drillmap*%
%TF.FilePolarity,Positive*%
%FSLAX45Y45*%
G04 Gerber Fmt 4.5, Leading zero omitted, Abs format (unit mm)*
G04 Created by KiCad (PCBNEW 7.0.11) date 2024-09-15 10:51:41*
%MOMM*%
%LPD*%
G01*
G04 APERTURE LIST*
%ADD10C,0.050000*%
%ADD11C,0.200000*%
%ADD12C,0.100000*%
%ADD13C,0.320000*%
G04 APERTURE END LIST*
D10*
X19301742Y-4762500D02*
X11826875Y-4762500D01*
X19301742Y-14098262D02*
G75*
G03*
X19619242Y-13780770I8J317492D01*
G01*
X11509375Y-5080000D02*
X11509375Y-13780770D01*
X19619240Y-5080000D02*
G75*
G03*
X19301742Y-4762500I-317490J10D01*
G01*
X19619242Y-13780770D02*
X19619242Y-5080000D01*
X11509370Y-13780770D02*
G75*
G03*
X11826875Y-14098270I317510J10D01*
G01*
X11826875Y-14098270D02*
X19301742Y-14098270D01*
X11826875Y-4762505D02*
G75*
G03*
X11509375Y-5080000I5J-317505D01*
G01*
D11*
D12*
X12362500Y-13791250D02*
X12402500Y-13831250D01*
X12402500Y-13791250D02*
X12362500Y-13831250D01*
X12521250Y-12600625D02*
X12561250Y-12640625D01*
X12561250Y-12600625D02*
X12521250Y-12640625D01*
X12918125Y-5695000D02*
X12958125Y-5735000D01*
X12958125Y-5695000D02*
X12918125Y-5735000D01*
X13950000Y-12600625D02*
X13990000Y-12640625D01*
X13990000Y-12600625D02*
X13950000Y-12640625D01*
X14367195Y-11935145D02*
X14407195Y-11975145D01*
X14407195Y-11935145D02*
X14367195Y-11975145D01*
X14367195Y-12252645D02*
X14407195Y-12292645D01*
X14407195Y-12252645D02*
X14367195Y-12292645D01*
X14664375Y-7282500D02*
X14704375Y-7322500D01*
X14704375Y-7282500D02*
X14664375Y-7322500D01*
X14664375Y-10616250D02*
X14704375Y-10656250D01*
X14704375Y-10616250D02*
X14664375Y-10656250D01*
X15537500Y-13156250D02*
X15577500Y-13196250D01*
X15577500Y-13156250D02*
X15537500Y-13196250D01*
X16251875Y-11965625D02*
X16291875Y-12005625D01*
X16291875Y-11965625D02*
X16251875Y-12005625D01*
X16331250Y-7282500D02*
X16371250Y-7322500D01*
X16371250Y-7282500D02*
X16331250Y-7322500D01*
X16331250Y-10616250D02*
X16371250Y-10656250D01*
X16371250Y-10616250D02*
X16331250Y-10656250D01*
X16669070Y-12093895D02*
X16709070Y-12133895D01*
X16709070Y-12093895D02*
X16669070Y-12133895D01*
X17125000Y-12600625D02*
X17165000Y-12640625D01*
X17165000Y-12600625D02*
X17125000Y-12640625D01*
X17998125Y-5615625D02*
X18038125Y-5655625D01*
X18038125Y-5615625D02*
X17998125Y-5655625D01*
X18236250Y-12600625D02*
X18276250Y-12640625D01*
X18276250Y-12600625D02*
X18236250Y-12640625D01*
X18633125Y-13791250D02*
X18673125Y-13831250D01*
X18673125Y-13791250D02*
X18633125Y-13831250D01*
X13633445Y-6033770D02*
G75*
G03*
X13553445Y-6033770I-40000J0D01*
G01*
X13553445Y-6033770D02*
G75*
G03*
X13633445Y-6033770I40000J0D01*
G01*
X13633445Y-6795770D02*
G75*
G03*
X13553445Y-6795770I-40000J0D01*
G01*
X13553445Y-6795770D02*
G75*
G03*
X13633445Y-6795770I40000J0D01*
G01*
X13633445Y-7700645D02*
G75*
G03*
X13553445Y-7700645I-40000J0D01*
G01*
X13553445Y-7700645D02*
G75*
G03*
X13633445Y-7700645I40000J0D01*
G01*
X13633445Y-8462645D02*
G75*
G03*
X13553445Y-8462645I-40000J0D01*
G01*
X13553445Y-8462645D02*
G75*
G03*
X13633445Y-8462645I40000J0D01*
G01*
X13633445Y-9367520D02*
G75*
G03*
X13553445Y-9367520I-40000J0D01*
G01*
X13553445Y-9367520D02*
G75*
G03*
X13633445Y-9367520I40000J0D01*
G01*
X13633445Y-10129520D02*
G75*
G03*
X13553445Y-10129520I-40000J0D01*
G01*
X13553445Y-10129520D02*
G75*
G03*
X13633445Y-10129520I40000J0D01*
G01*
X13633445Y-11034395D02*
G75*
G03*
X13553445Y-11034395I-40000J0D01*
G01*
X13553445Y-11034395D02*
G75*
G03*
X13633445Y-11034395I40000J0D01*
G01*
X13633445Y-11796395D02*
G75*
G03*
X13553445Y-11796395I-40000J0D01*
G01*
X13553445Y-11796395D02*
G75*
G03*
X13633445Y-11796395I40000J0D01*
G01*
X15300320Y-6033770D02*
G75*
G03*
X15220320Y-6033770I-40000J0D01*
G01*
X15220320Y-6033770D02*
G75*
G03*
X15300320Y-6033770I40000J0D01*
G01*
X15300320Y-6795770D02*
G75*
G03*
X15220320Y-6795770I-40000J0D01*
G01*
X15220320Y-6795770D02*
G75*
G03*
X15300320Y-6795770I40000J0D01*
G01*
X15300320Y-7700645D02*
G75*
G03*
X15220320Y-7700645I-40000J0D01*
G01*
X15220320Y-7700645D02*
G75*
G03*
X15300320Y-7700645I40000J0D01*
G01*
X15300320Y-8462645D02*
G75*
G03*
X15220320Y-8462645I-40000J0D01*
G01*
X15220320Y-8462645D02*
G75*
G03*
X15300320Y-8462645I40000J0D01*
G01*
X15300320Y-9367520D02*
G75*
G03*
X15220320Y-9367520I-40000J0D01*
G01*
X15220320Y-9367520D02*
G75*
G03*
X15300320Y-9367520I40000J0D01*
G01*
X15300320Y-10129520D02*
G75*
G03*
X15220320Y-10129520I-40000J0D01*
G01*
X15220320Y-10129520D02*
G75*
G03*
X15300320Y-10129520I40000J0D01*
G01*
X15300320Y-11034395D02*
G75*
G03*
X15220320Y-11034395I-40000J0D01*
G01*
X15220320Y-11034395D02*
G75*
G03*
X15300320Y-11034395I40000J0D01*
G01*
X15300320Y-11796395D02*
G75*
G03*
X15220320Y-11796395I-40000J0D01*
G01*
X15220320Y-11796395D02*
G75*
G03*
X15300320Y-11796395I40000J0D01*
G01*
X16967195Y-6033770D02*
G75*
G03*
X16887195Y-6033770I-40000J0D01*
G01*
X16887195Y-6033770D02*
G75*
G03*
X16967195Y-6033770I40000J0D01*
G01*
X16967195Y-6795770D02*
G75*
G03*
X16887195Y-6795770I-40000J0D01*
G01*
X16887195Y-6795770D02*
G75*
G03*
X16967195Y-6795770I40000J0D01*
G01*
X16967195Y-7700645D02*
G75*
G03*
X16887195Y-7700645I-40000J0D01*
G01*
X16887195Y-7700645D02*
G75*
G03*
X16967195Y-7700645I40000J0D01*
G01*
X16967195Y-8462645D02*
G75*
G03*
X16887195Y-8462645I-40000J0D01*
G01*
X16887195Y-8462645D02*
G75*
G03*
X16967195Y-8462645I40000J0D01*
G01*
X16967195Y-9367520D02*
G75*
G03*
X16887195Y-9367520I-40000J0D01*
G01*
X16887195Y-9367520D02*
G75*
G03*
X16967195Y-9367520I40000J0D01*
G01*
X16967195Y-10129520D02*
G75*
G03*
X16887195Y-10129520I-40000J0D01*
G01*
X16887195Y-10129520D02*
G75*
G03*
X16967195Y-10129520I40000J0D01*
G01*
X16967195Y-11034395D02*
G75*
G03*
X16887195Y-11034395I-40000J0D01*
G01*
X16887195Y-11034395D02*
G75*
G03*
X16967195Y-11034395I40000J0D01*
G01*
X16967195Y-11796395D02*
G75*
G03*
X16887195Y-11796395I-40000J0D01*
G01*
X16887195Y-11796395D02*
G75*
G03*
X16967195Y-11796395I40000J0D01*
G01*
X18634070Y-6033770D02*
G75*
G03*
X18554070Y-6033770I-40000J0D01*
G01*
X18554070Y-6033770D02*
G75*
G03*
X18634070Y-6033770I40000J0D01*
G01*
X18634070Y-6795770D02*
G75*
G03*
X18554070Y-6795770I-40000J0D01*
G01*
X18554070Y-6795770D02*
G75*
G03*
X18634070Y-6795770I40000J0D01*
G01*
X18634070Y-7700645D02*
G75*
G03*
X18554070Y-7700645I-40000J0D01*
G01*
X18554070Y-7700645D02*
G75*
G03*
X18634070Y-7700645I40000J0D01*
G01*
X18634070Y-8462645D02*
G75*
G03*
X18554070Y-8462645I-40000J0D01*
G01*
X18554070Y-8462645D02*
G75*
G03*
X18634070Y-8462645I40000J0D01*
G01*
X18634070Y-9367520D02*
G75*
G03*
X18554070Y-9367520I-40000J0D01*
G01*
X18554070Y-9367520D02*
G75*
G03*
X18634070Y-9367520I40000J0D01*
G01*
X18634070Y-10129520D02*
G75*
G03*
X18554070Y-10129520I-40000J0D01*
G01*
X18554070Y-10129520D02*
G75*
G03*
X18634070Y-10129520I40000J0D01*
G01*
X18634070Y-11034395D02*
G75*
G03*
X18554070Y-11034395I-40000J0D01*
G01*
X18554070Y-11034395D02*
G75*
G03*
X18634070Y-11034395I40000J0D01*
G01*
X18634070Y-11796395D02*
G75*
G03*
X18554070Y-11796395I-40000J0D01*
G01*
X18554070Y-11796395D02*
G75*
G03*
X18634070Y-11796395I40000J0D01*
G01*
X12537820Y-6535770D02*
X12537820Y-6635770D01*
X12487820Y-6585770D02*
X12587820Y-6585770D01*
X12537820Y-8202645D02*
X12537820Y-8302645D01*
X12487820Y-8252645D02*
X12587820Y-8252645D01*
X12537820Y-9869520D02*
X12537820Y-9969520D01*
X12487820Y-9919520D02*
X12587820Y-9919520D01*
X12537820Y-11536395D02*
X12537820Y-11636395D01*
X12487820Y-11586395D02*
X12587820Y-11586395D01*
X13037820Y-6745770D02*
X13037820Y-6845770D01*
X12987820Y-6795770D02*
X13087820Y-6795770D01*
X13037820Y-8412645D02*
X13037820Y-8512645D01*
X12987820Y-8462645D02*
X13087820Y-8462645D01*
X13037820Y-10079520D02*
X13037820Y-10179520D01*
X12987820Y-10129520D02*
X13087820Y-10129520D01*
X13037820Y-11746395D02*
X13037820Y-11846395D01*
X12987820Y-11796395D02*
X13087820Y-11796395D01*
X13537820Y-5640770D02*
X13537820Y-5740770D01*
X13487820Y-5690770D02*
X13587820Y-5690770D01*
X13537820Y-7307645D02*
X13537820Y-7407645D01*
X13487820Y-7357645D02*
X13587820Y-7357645D01*
X13537820Y-8974520D02*
X13537820Y-9074520D01*
X13487820Y-9024520D02*
X13587820Y-9024520D01*
X13537820Y-10641395D02*
X13537820Y-10741395D01*
X13487820Y-10691395D02*
X13587820Y-10691395D01*
X14204695Y-6535770D02*
X14204695Y-6635770D01*
X14154695Y-6585770D02*
X14254695Y-6585770D01*
X14204695Y-8202645D02*
X14204695Y-8302645D01*
X14154695Y-8252645D02*
X14254695Y-8252645D01*
X14204695Y-9869520D02*
X14204695Y-9969520D01*
X14154695Y-9919520D02*
X14254695Y-9919520D01*
X14204695Y-11536395D02*
X14204695Y-11636395D01*
X14154695Y-11586395D02*
X14254695Y-11586395D01*
X14704695Y-6745770D02*
X14704695Y-6845770D01*
X14654695Y-6795770D02*
X14754695Y-6795770D01*
X14704695Y-8412645D02*
X14704695Y-8512645D01*
X14654695Y-8462645D02*
X14754695Y-8462645D01*
X14704695Y-10079520D02*
X14704695Y-10179520D01*
X14654695Y-10129520D02*
X14754695Y-10129520D01*
X14704695Y-11746395D02*
X14704695Y-11846395D01*
X14654695Y-11796395D02*
X14754695Y-11796395D01*
X15204695Y-5640770D02*
X15204695Y-5740770D01*
X15154695Y-5690770D02*
X15254695Y-5690770D01*
X15204695Y-7307645D02*
X15204695Y-7407645D01*
X15154695Y-7357645D02*
X15254695Y-7357645D01*
X15204695Y-8974520D02*
X15204695Y-9074520D01*
X15154695Y-9024520D02*
X15254695Y-9024520D01*
X15204695Y-10641395D02*
X15204695Y-10741395D01*
X15154695Y-10691395D02*
X15254695Y-10691395D01*
X15871570Y-6535770D02*
X15871570Y-6635770D01*
X15821570Y-6585770D02*
X15921570Y-6585770D01*
X15871570Y-8202645D02*
X15871570Y-8302645D01*
X15821570Y-8252645D02*
X15921570Y-8252645D01*
X15871570Y-9869520D02*
X15871570Y-9969520D01*
X15821570Y-9919520D02*
X15921570Y-9919520D01*
X15871570Y-11536395D02*
X15871570Y-11636395D01*
X15821570Y-11586395D02*
X15921570Y-11586395D01*
X16371570Y-6745770D02*
X16371570Y-6845770D01*
X16321570Y-6795770D02*
X16421570Y-6795770D01*
X16371570Y-8412645D02*
X16371570Y-8512645D01*
X16321570Y-8462645D02*
X16421570Y-8462645D01*
X16371570Y-10079520D02*
X16371570Y-10179520D01*
X16321570Y-10129520D02*
X16421570Y-10129520D01*
X16371570Y-11746395D02*
X16371570Y-11846395D01*
X16321570Y-11796395D02*
X16421570Y-11796395D01*
X16871570Y-5640770D02*
X16871570Y-5740770D01*
X16821570Y-5690770D02*
X16921570Y-5690770D01*
X16871570Y-7307645D02*
X16871570Y-7407645D01*
X16821570Y-7357645D02*
X16921570Y-7357645D01*
X16871570Y-8974520D02*
X16871570Y-9074520D01*
X16821570Y-9024520D02*
X16921570Y-9024520D01*
X16871570Y-10641395D02*
X16871570Y-10741395D01*
X16821570Y-10691395D02*
X16921570Y-10691395D01*
X17538445Y-6535770D02*
X17538445Y-6635770D01*
X17488445Y-6585770D02*
X17588445Y-6585770D01*
X17538445Y-8202645D02*
X17538445Y-8302645D01*
X17488445Y-8252645D02*
X17588445Y-8252645D01*
X17538445Y-9869520D02*
X17538445Y-9969520D01*
X17488445Y-9919520D02*
X17588445Y-9919520D01*
X17538445Y-11536395D02*
X17538445Y-11636395D01*
X17488445Y-11586395D02*
X17588445Y-11586395D01*
X18038445Y-6745770D02*
X18038445Y-6845770D01*
X17988445Y-6795770D02*
X18088445Y-6795770D01*
X18038445Y-8412645D02*
X18038445Y-8512645D01*
X17988445Y-8462645D02*
X18088445Y-8462645D01*
X18038445Y-10079520D02*
X18038445Y-10179520D01*
X17988445Y-10129520D02*
X18088445Y-10129520D01*
X18038445Y-11746395D02*
X18038445Y-11846395D01*
X17988445Y-11796395D02*
X18088445Y-11796395D01*
X18538445Y-5640770D02*
X18538445Y-5740770D01*
X18488445Y-5690770D02*
X18588445Y-5690770D01*
X18538445Y-7307645D02*
X18538445Y-7407645D01*
X18488445Y-7357645D02*
X18588445Y-7357645D01*
X18538445Y-8974520D02*
X18538445Y-9074520D01*
X18488445Y-9024520D02*
X18588445Y-9024520D01*
X18538445Y-10641395D02*
X18538445Y-10741395D01*
X18488445Y-10691395D02*
X18588445Y-10691395D01*
D13*
X12019388Y-5272513D02*
X12019388Y-5046237D01*
X11793112Y-5046237D01*
X11793112Y-5272513D01*
X12019388Y-5272513D01*
X12019388Y-13765638D02*
X12019388Y-13539362D01*
X11793112Y-13539362D01*
X11793112Y-13765638D01*
X12019388Y-13765638D01*
X19321888Y-5272513D02*
X19321888Y-5046237D01*
X19095612Y-5046237D01*
X19095612Y-5272513D01*
X19321888Y-5272513D01*
X19321888Y-13765638D02*
X19321888Y-13539362D01*
X19095612Y-13539362D01*
X19095612Y-13765638D01*
X19321888Y-13765638D01*
D11*
X11767652Y-14412254D02*
X11767652Y-14212254D01*
X11767652Y-14212254D02*
X11815271Y-14212254D01*
X11815271Y-14212254D02*
X11843842Y-14221778D01*
X11843842Y-14221778D02*
X11862890Y-14240825D01*
X11862890Y-14240825D02*
X11872414Y-14259873D01*
X11872414Y-14259873D02*
X11881937Y-14297968D01*
X11881937Y-14297968D02*
X11881937Y-14326539D01*
X11881937Y-14326539D02*
X11872414Y-14364635D01*
X11872414Y-14364635D02*
X11862890Y-14383682D01*
X11862890Y-14383682D02*
X11843842Y-14402730D01*
X11843842Y-14402730D02*
X11815271Y-14412254D01*
X11815271Y-14412254D02*
X11767652Y-14412254D01*
X11967652Y-14412254D02*
X11967652Y-14278920D01*
X11967652Y-14317016D02*
X11977176Y-14297968D01*
X11977176Y-14297968D02*
X11986699Y-14288444D01*
X11986699Y-14288444D02*
X12005747Y-14278920D01*
X12005747Y-14278920D02*
X12024795Y-14278920D01*
X12091461Y-14412254D02*
X12091461Y-14278920D01*
X12091461Y-14212254D02*
X12081937Y-14221778D01*
X12081937Y-14221778D02*
X12091461Y-14231301D01*
X12091461Y-14231301D02*
X12100985Y-14221778D01*
X12100985Y-14221778D02*
X12091461Y-14212254D01*
X12091461Y-14212254D02*
X12091461Y-14231301D01*
X12215271Y-14412254D02*
X12196223Y-14402730D01*
X12196223Y-14402730D02*
X12186699Y-14383682D01*
X12186699Y-14383682D02*
X12186699Y-14212254D01*
X12320033Y-14412254D02*
X12300985Y-14402730D01*
X12300985Y-14402730D02*
X12291461Y-14383682D01*
X12291461Y-14383682D02*
X12291461Y-14212254D01*
X12548604Y-14412254D02*
X12548604Y-14212254D01*
X12548604Y-14212254D02*
X12615271Y-14355111D01*
X12615271Y-14355111D02*
X12681937Y-14212254D01*
X12681937Y-14212254D02*
X12681937Y-14412254D01*
X12862890Y-14412254D02*
X12862890Y-14307492D01*
X12862890Y-14307492D02*
X12853366Y-14288444D01*
X12853366Y-14288444D02*
X12834318Y-14278920D01*
X12834318Y-14278920D02*
X12796223Y-14278920D01*
X12796223Y-14278920D02*
X12777176Y-14288444D01*
X12862890Y-14402730D02*
X12843842Y-14412254D01*
X12843842Y-14412254D02*
X12796223Y-14412254D01*
X12796223Y-14412254D02*
X12777176Y-14402730D01*
X12777176Y-14402730D02*
X12767652Y-14383682D01*
X12767652Y-14383682D02*
X12767652Y-14364635D01*
X12767652Y-14364635D02*
X12777176Y-14345587D01*
X12777176Y-14345587D02*
X12796223Y-14336063D01*
X12796223Y-14336063D02*
X12843842Y-14336063D01*
X12843842Y-14336063D02*
X12862890Y-14326539D01*
X12958128Y-14278920D02*
X12958128Y-14478920D01*
X12958128Y-14288444D02*
X12977176Y-14278920D01*
X12977176Y-14278920D02*
X13015271Y-14278920D01*
X13015271Y-14278920D02*
X13034318Y-14288444D01*
X13034318Y-14288444D02*
X13043842Y-14297968D01*
X13043842Y-14297968D02*
X13053366Y-14317016D01*
X13053366Y-14317016D02*
X13053366Y-14374158D01*
X13053366Y-14374158D02*
X13043842Y-14393206D01*
X13043842Y-14393206D02*
X13034318Y-14402730D01*
X13034318Y-14402730D02*
X13015271Y-14412254D01*
X13015271Y-14412254D02*
X12977176Y-14412254D01*
X12977176Y-14412254D02*
X12958128Y-14402730D01*
X13139080Y-14393206D02*
X13148604Y-14402730D01*
X13148604Y-14402730D02*
X13139080Y-14412254D01*
X13139080Y-14412254D02*
X13129557Y-14402730D01*
X13129557Y-14402730D02*
X13139080Y-14393206D01*
X13139080Y-14393206D02*
X13139080Y-14412254D01*
X13139080Y-14288444D02*
X13148604Y-14297968D01*
X13148604Y-14297968D02*
X13139080Y-14307492D01*
X13139080Y-14307492D02*
X13129557Y-14297968D01*
X13129557Y-14297968D02*
X13139080Y-14288444D01*
X13139080Y-14288444D02*
X13139080Y-14307492D01*
D12*
X11466875Y-14720770D02*
X11506875Y-14760770D01*
X11506875Y-14720770D02*
X11466875Y-14760770D01*
D11*
X11805747Y-14632254D02*
X11824795Y-14632254D01*
X11824795Y-14632254D02*
X11843842Y-14641778D01*
X11843842Y-14641778D02*
X11853366Y-14651301D01*
X11853366Y-14651301D02*
X11862890Y-14670349D01*
X11862890Y-14670349D02*
X11872414Y-14708444D01*
X11872414Y-14708444D02*
X11872414Y-14756063D01*
X11872414Y-14756063D02*
X11862890Y-14794158D01*
X11862890Y-14794158D02*
X11853366Y-14813206D01*
X11853366Y-14813206D02*
X11843842Y-14822730D01*
X11843842Y-14822730D02*
X11824795Y-14832254D01*
X11824795Y-14832254D02*
X11805747Y-14832254D01*
X11805747Y-14832254D02*
X11786699Y-14822730D01*
X11786699Y-14822730D02*
X11777176Y-14813206D01*
X11777176Y-14813206D02*
X11767652Y-14794158D01*
X11767652Y-14794158D02*
X11758128Y-14756063D01*
X11758128Y-14756063D02*
X11758128Y-14708444D01*
X11758128Y-14708444D02*
X11767652Y-14670349D01*
X11767652Y-14670349D02*
X11777176Y-14651301D01*
X11777176Y-14651301D02*
X11786699Y-14641778D01*
X11786699Y-14641778D02*
X11805747Y-14632254D01*
X11958128Y-14813206D02*
X11967652Y-14822730D01*
X11967652Y-14822730D02*
X11958128Y-14832254D01*
X11958128Y-14832254D02*
X11948604Y-14822730D01*
X11948604Y-14822730D02*
X11958128Y-14813206D01*
X11958128Y-14813206D02*
X11958128Y-14832254D01*
X12139080Y-14698920D02*
X12139080Y-14832254D01*
X12091461Y-14622730D02*
X12043842Y-14765587D01*
X12043842Y-14765587D02*
X12167652Y-14765587D01*
X12281937Y-14632254D02*
X12300985Y-14632254D01*
X12300985Y-14632254D02*
X12320033Y-14641778D01*
X12320033Y-14641778D02*
X12329557Y-14651301D01*
X12329557Y-14651301D02*
X12339080Y-14670349D01*
X12339080Y-14670349D02*
X12348604Y-14708444D01*
X12348604Y-14708444D02*
X12348604Y-14756063D01*
X12348604Y-14756063D02*
X12339080Y-14794158D01*
X12339080Y-14794158D02*
X12329557Y-14813206D01*
X12329557Y-14813206D02*
X12320033Y-14822730D01*
X12320033Y-14822730D02*
X12300985Y-14832254D01*
X12300985Y-14832254D02*
X12281937Y-14832254D01*
X12281937Y-14832254D02*
X12262890Y-14822730D01*
X12262890Y-14822730D02*
X12253366Y-14813206D01*
X12253366Y-14813206D02*
X12243842Y-14794158D01*
X12243842Y-14794158D02*
X12234318Y-14756063D01*
X12234318Y-14756063D02*
X12234318Y-14708444D01*
X12234318Y-14708444D02*
X12243842Y-14670349D01*
X12243842Y-14670349D02*
X12253366Y-14651301D01*
X12253366Y-14651301D02*
X12262890Y-14641778D01*
X12262890Y-14641778D02*
X12281937Y-14632254D01*
X12472414Y-14632254D02*
X12491461Y-14632254D01*
X12491461Y-14632254D02*
X12510509Y-14641778D01*
X12510509Y-14641778D02*
X12520033Y-14651301D01*
X12520033Y-14651301D02*
X12529557Y-14670349D01*
X12529557Y-14670349D02*
X12539080Y-14708444D01*
X12539080Y-14708444D02*
X12539080Y-14756063D01*
X12539080Y-14756063D02*
X12529557Y-14794158D01*
X12529557Y-14794158D02*
X12520033Y-14813206D01*
X12520033Y-14813206D02*
X12510509Y-14822730D01*
X12510509Y-14822730D02*
X12491461Y-14832254D01*
X12491461Y-14832254D02*
X12472414Y-14832254D01*
X12472414Y-14832254D02*
X12453366Y-14822730D01*
X12453366Y-14822730D02*
X12443842Y-14813206D01*
X12443842Y-14813206D02*
X12434318Y-14794158D01*
X12434318Y-14794158D02*
X12424795Y-14756063D01*
X12424795Y-14756063D02*
X12424795Y-14708444D01*
X12424795Y-14708444D02*
X12434318Y-14670349D01*
X12434318Y-14670349D02*
X12443842Y-14651301D01*
X12443842Y-14651301D02*
X12453366Y-14641778D01*
X12453366Y-14641778D02*
X12472414Y-14632254D01*
X12624795Y-14832254D02*
X12624795Y-14698920D01*
X12624795Y-14717968D02*
X12634318Y-14708444D01*
X12634318Y-14708444D02*
X12653366Y-14698920D01*
X12653366Y-14698920D02*
X12681938Y-14698920D01*
X12681938Y-14698920D02*
X12700985Y-14708444D01*
X12700985Y-14708444D02*
X12710509Y-14727492D01*
X12710509Y-14727492D02*
X12710509Y-14832254D01*
X12710509Y-14727492D02*
X12720033Y-14708444D01*
X12720033Y-14708444D02*
X12739080Y-14698920D01*
X12739080Y-14698920D02*
X12767652Y-14698920D01*
X12767652Y-14698920D02*
X12786699Y-14708444D01*
X12786699Y-14708444D02*
X12796223Y-14727492D01*
X12796223Y-14727492D02*
X12796223Y-14832254D01*
X12891461Y-14832254D02*
X12891461Y-14698920D01*
X12891461Y-14717968D02*
X12900985Y-14708444D01*
X12900985Y-14708444D02*
X12920033Y-14698920D01*
X12920033Y-14698920D02*
X12948604Y-14698920D01*
X12948604Y-14698920D02*
X12967652Y-14708444D01*
X12967652Y-14708444D02*
X12977176Y-14727492D01*
X12977176Y-14727492D02*
X12977176Y-14832254D01*
X12977176Y-14727492D02*
X12986699Y-14708444D01*
X12986699Y-14708444D02*
X13005747Y-14698920D01*
X13005747Y-14698920D02*
X13034318Y-14698920D01*
X13034318Y-14698920D02*
X13053366Y-14708444D01*
X13053366Y-14708444D02*
X13062890Y-14727492D01*
X13062890Y-14727492D02*
X13062890Y-14832254D01*
X13453366Y-14622730D02*
X13281938Y-14879873D01*
X13710509Y-14632254D02*
X13729557Y-14632254D01*
X13729557Y-14632254D02*
X13748604Y-14641778D01*
X13748604Y-14641778D02*
X13758128Y-14651301D01*
X13758128Y-14651301D02*
X13767652Y-14670349D01*
X13767652Y-14670349D02*
X13777176Y-14708444D01*
X13777176Y-14708444D02*
X13777176Y-14756063D01*
X13777176Y-14756063D02*
X13767652Y-14794158D01*
X13767652Y-14794158D02*
X13758128Y-14813206D01*
X13758128Y-14813206D02*
X13748604Y-14822730D01*
X13748604Y-14822730D02*
X13729557Y-14832254D01*
X13729557Y-14832254D02*
X13710509Y-14832254D01*
X13710509Y-14832254D02*
X13691461Y-14822730D01*
X13691461Y-14822730D02*
X13681938Y-14813206D01*
X13681938Y-14813206D02*
X13672414Y-14794158D01*
X13672414Y-14794158D02*
X13662890Y-14756063D01*
X13662890Y-14756063D02*
X13662890Y-14708444D01*
X13662890Y-14708444D02*
X13672414Y-14670349D01*
X13672414Y-14670349D02*
X13681938Y-14651301D01*
X13681938Y-14651301D02*
X13691461Y-14641778D01*
X13691461Y-14641778D02*
X13710509Y-14632254D01*
X13862890Y-14813206D02*
X13872414Y-14822730D01*
X13872414Y-14822730D02*
X13862890Y-14832254D01*
X13862890Y-14832254D02*
X13853366Y-14822730D01*
X13853366Y-14822730D02*
X13862890Y-14813206D01*
X13862890Y-14813206D02*
X13862890Y-14832254D01*
X13996223Y-14632254D02*
X14015271Y-14632254D01*
X14015271Y-14632254D02*
X14034319Y-14641778D01*
X14034319Y-14641778D02*
X14043842Y-14651301D01*
X14043842Y-14651301D02*
X14053366Y-14670349D01*
X14053366Y-14670349D02*
X14062890Y-14708444D01*
X14062890Y-14708444D02*
X14062890Y-14756063D01*
X14062890Y-14756063D02*
X14053366Y-14794158D01*
X14053366Y-14794158D02*
X14043842Y-14813206D01*
X14043842Y-14813206D02*
X14034319Y-14822730D01*
X14034319Y-14822730D02*
X14015271Y-14832254D01*
X14015271Y-14832254D02*
X13996223Y-14832254D01*
X13996223Y-14832254D02*
X13977176Y-14822730D01*
X13977176Y-14822730D02*
X13967652Y-14813206D01*
X13967652Y-14813206D02*
X13958128Y-14794158D01*
X13958128Y-14794158D02*
X13948604Y-14756063D01*
X13948604Y-14756063D02*
X13948604Y-14708444D01*
X13948604Y-14708444D02*
X13958128Y-14670349D01*
X13958128Y-14670349D02*
X13967652Y-14651301D01*
X13967652Y-14651301D02*
X13977176Y-14641778D01*
X13977176Y-14641778D02*
X13996223Y-14632254D01*
X14253366Y-14832254D02*
X14139081Y-14832254D01*
X14196223Y-14832254D02*
X14196223Y-14632254D01*
X14196223Y-14632254D02*
X14177176Y-14660825D01*
X14177176Y-14660825D02*
X14158128Y-14679873D01*
X14158128Y-14679873D02*
X14139081Y-14689397D01*
X14434319Y-14632254D02*
X14339081Y-14632254D01*
X14339081Y-14632254D02*
X14329557Y-14727492D01*
X14329557Y-14727492D02*
X14339081Y-14717968D01*
X14339081Y-14717968D02*
X14358128Y-14708444D01*
X14358128Y-14708444D02*
X14405747Y-14708444D01*
X14405747Y-14708444D02*
X14424795Y-14717968D01*
X14424795Y-14717968D02*
X14434319Y-14727492D01*
X14434319Y-14727492D02*
X14443842Y-14746539D01*
X14443842Y-14746539D02*
X14443842Y-14794158D01*
X14443842Y-14794158D02*
X14434319Y-14813206D01*
X14434319Y-14813206D02*
X14424795Y-14822730D01*
X14424795Y-14822730D02*
X14405747Y-14832254D01*
X14405747Y-14832254D02*
X14358128Y-14832254D01*
X14358128Y-14832254D02*
X14339081Y-14822730D01*
X14339081Y-14822730D02*
X14329557Y-14813206D01*
X14510509Y-14632254D02*
X14643842Y-14632254D01*
X14643842Y-14632254D02*
X14558128Y-14832254D01*
X14710509Y-14632254D02*
X14710509Y-14670349D01*
X14786700Y-14632254D02*
X14786700Y-14670349D01*
X15081938Y-14908444D02*
X15072414Y-14898920D01*
X15072414Y-14898920D02*
X15053366Y-14870349D01*
X15053366Y-14870349D02*
X15043843Y-14851301D01*
X15043843Y-14851301D02*
X15034319Y-14822730D01*
X15034319Y-14822730D02*
X15024795Y-14775111D01*
X15024795Y-14775111D02*
X15024795Y-14737016D01*
X15024795Y-14737016D02*
X15034319Y-14689397D01*
X15034319Y-14689397D02*
X15043843Y-14660825D01*
X15043843Y-14660825D02*
X15053366Y-14641778D01*
X15053366Y-14641778D02*
X15072414Y-14613206D01*
X15072414Y-14613206D02*
X15081938Y-14603682D01*
X15262890Y-14832254D02*
X15148604Y-14832254D01*
X15205747Y-14832254D02*
X15205747Y-14632254D01*
X15205747Y-14632254D02*
X15186700Y-14660825D01*
X15186700Y-14660825D02*
X15167652Y-14679873D01*
X15167652Y-14679873D02*
X15148604Y-14689397D01*
X15329557Y-14632254D02*
X15462890Y-14632254D01*
X15462890Y-14632254D02*
X15377176Y-14832254D01*
X15691462Y-14832254D02*
X15691462Y-14632254D01*
X15777176Y-14832254D02*
X15777176Y-14727492D01*
X15777176Y-14727492D02*
X15767652Y-14708444D01*
X15767652Y-14708444D02*
X15748605Y-14698920D01*
X15748605Y-14698920D02*
X15720033Y-14698920D01*
X15720033Y-14698920D02*
X15700985Y-14708444D01*
X15700985Y-14708444D02*
X15691462Y-14717968D01*
X15900985Y-14832254D02*
X15881938Y-14822730D01*
X15881938Y-14822730D02*
X15872414Y-14813206D01*
X15872414Y-14813206D02*
X15862890Y-14794158D01*
X15862890Y-14794158D02*
X15862890Y-14737016D01*
X15862890Y-14737016D02*
X15872414Y-14717968D01*
X15872414Y-14717968D02*
X15881938Y-14708444D01*
X15881938Y-14708444D02*
X15900985Y-14698920D01*
X15900985Y-14698920D02*
X15929557Y-14698920D01*
X15929557Y-14698920D02*
X15948605Y-14708444D01*
X15948605Y-14708444D02*
X15958128Y-14717968D01*
X15958128Y-14717968D02*
X15967652Y-14737016D01*
X15967652Y-14737016D02*
X15967652Y-14794158D01*
X15967652Y-14794158D02*
X15958128Y-14813206D01*
X15958128Y-14813206D02*
X15948605Y-14822730D01*
X15948605Y-14822730D02*
X15929557Y-14832254D01*
X15929557Y-14832254D02*
X15900985Y-14832254D01*
X16081938Y-14832254D02*
X16062890Y-14822730D01*
X16062890Y-14822730D02*
X16053366Y-14803682D01*
X16053366Y-14803682D02*
X16053366Y-14632254D01*
X16234319Y-14822730D02*
X16215271Y-14832254D01*
X16215271Y-14832254D02*
X16177176Y-14832254D01*
X16177176Y-14832254D02*
X16158128Y-14822730D01*
X16158128Y-14822730D02*
X16148605Y-14803682D01*
X16148605Y-14803682D02*
X16148605Y-14727492D01*
X16148605Y-14727492D02*
X16158128Y-14708444D01*
X16158128Y-14708444D02*
X16177176Y-14698920D01*
X16177176Y-14698920D02*
X16215271Y-14698920D01*
X16215271Y-14698920D02*
X16234319Y-14708444D01*
X16234319Y-14708444D02*
X16243843Y-14727492D01*
X16243843Y-14727492D02*
X16243843Y-14746539D01*
X16243843Y-14746539D02*
X16148605Y-14765587D01*
X16320033Y-14822730D02*
X16339081Y-14832254D01*
X16339081Y-14832254D02*
X16377176Y-14832254D01*
X16377176Y-14832254D02*
X16396224Y-14822730D01*
X16396224Y-14822730D02*
X16405747Y-14803682D01*
X16405747Y-14803682D02*
X16405747Y-14794158D01*
X16405747Y-14794158D02*
X16396224Y-14775111D01*
X16396224Y-14775111D02*
X16377176Y-14765587D01*
X16377176Y-14765587D02*
X16348605Y-14765587D01*
X16348605Y-14765587D02*
X16329557Y-14756063D01*
X16329557Y-14756063D02*
X16320033Y-14737016D01*
X16320033Y-14737016D02*
X16320033Y-14727492D01*
X16320033Y-14727492D02*
X16329557Y-14708444D01*
X16329557Y-14708444D02*
X16348605Y-14698920D01*
X16348605Y-14698920D02*
X16377176Y-14698920D01*
X16377176Y-14698920D02*
X16396224Y-14708444D01*
X16472414Y-14908444D02*
X16481938Y-14898920D01*
X16481938Y-14898920D02*
X16500986Y-14870349D01*
X16500986Y-14870349D02*
X16510509Y-14851301D01*
X16510509Y-14851301D02*
X16520033Y-14822730D01*
X16520033Y-14822730D02*
X16529557Y-14775111D01*
X16529557Y-14775111D02*
X16529557Y-14737016D01*
X16529557Y-14737016D02*
X16520033Y-14689397D01*
X16520033Y-14689397D02*
X16510509Y-14660825D01*
X16510509Y-14660825D02*
X16500986Y-14641778D01*
X16500986Y-14641778D02*
X16481938Y-14613206D01*
X16481938Y-14613206D02*
X16472414Y-14603682D01*
D12*
X11506875Y-15004770D02*
G75*
G03*
X11426875Y-15004770I-40000J0D01*
G01*
X11426875Y-15004770D02*
G75*
G03*
X11506875Y-15004770I40000J0D01*
G01*
D11*
X11805747Y-14896254D02*
X11824795Y-14896254D01*
X11824795Y-14896254D02*
X11843842Y-14905778D01*
X11843842Y-14905778D02*
X11853366Y-14915301D01*
X11853366Y-14915301D02*
X11862890Y-14934349D01*
X11862890Y-14934349D02*
X11872414Y-14972444D01*
X11872414Y-14972444D02*
X11872414Y-15020063D01*
X11872414Y-15020063D02*
X11862890Y-15058158D01*
X11862890Y-15058158D02*
X11853366Y-15077206D01*
X11853366Y-15077206D02*
X11843842Y-15086730D01*
X11843842Y-15086730D02*
X11824795Y-15096254D01*
X11824795Y-15096254D02*
X11805747Y-15096254D01*
X11805747Y-15096254D02*
X11786699Y-15086730D01*
X11786699Y-15086730D02*
X11777176Y-15077206D01*
X11777176Y-15077206D02*
X11767652Y-15058158D01*
X11767652Y-15058158D02*
X11758128Y-15020063D01*
X11758128Y-15020063D02*
X11758128Y-14972444D01*
X11758128Y-14972444D02*
X11767652Y-14934349D01*
X11767652Y-14934349D02*
X11777176Y-14915301D01*
X11777176Y-14915301D02*
X11786699Y-14905778D01*
X11786699Y-14905778D02*
X11805747Y-14896254D01*
X11958128Y-15077206D02*
X11967652Y-15086730D01*
X11967652Y-15086730D02*
X11958128Y-15096254D01*
X11958128Y-15096254D02*
X11948604Y-15086730D01*
X11948604Y-15086730D02*
X11958128Y-15077206D01*
X11958128Y-15077206D02*
X11958128Y-15096254D01*
X12081937Y-14981968D02*
X12062890Y-14972444D01*
X12062890Y-14972444D02*
X12053366Y-14962920D01*
X12053366Y-14962920D02*
X12043842Y-14943873D01*
X12043842Y-14943873D02*
X12043842Y-14934349D01*
X12043842Y-14934349D02*
X12053366Y-14915301D01*
X12053366Y-14915301D02*
X12062890Y-14905778D01*
X12062890Y-14905778D02*
X12081937Y-14896254D01*
X12081937Y-14896254D02*
X12120033Y-14896254D01*
X12120033Y-14896254D02*
X12139080Y-14905778D01*
X12139080Y-14905778D02*
X12148604Y-14915301D01*
X12148604Y-14915301D02*
X12158128Y-14934349D01*
X12158128Y-14934349D02*
X12158128Y-14943873D01*
X12158128Y-14943873D02*
X12148604Y-14962920D01*
X12148604Y-14962920D02*
X12139080Y-14972444D01*
X12139080Y-14972444D02*
X12120033Y-14981968D01*
X12120033Y-14981968D02*
X12081937Y-14981968D01*
X12081937Y-14981968D02*
X12062890Y-14991492D01*
X12062890Y-14991492D02*
X12053366Y-15001016D01*
X12053366Y-15001016D02*
X12043842Y-15020063D01*
X12043842Y-15020063D02*
X12043842Y-15058158D01*
X12043842Y-15058158D02*
X12053366Y-15077206D01*
X12053366Y-15077206D02*
X12062890Y-15086730D01*
X12062890Y-15086730D02*
X12081937Y-15096254D01*
X12081937Y-15096254D02*
X12120033Y-15096254D01*
X12120033Y-15096254D02*
X12139080Y-15086730D01*
X12139080Y-15086730D02*
X12148604Y-15077206D01*
X12148604Y-15077206D02*
X12158128Y-15058158D01*
X12158128Y-15058158D02*
X12158128Y-15020063D01*
X12158128Y-15020063D02*
X12148604Y-15001016D01*
X12148604Y-15001016D02*
X12139080Y-14991492D01*
X12139080Y-14991492D02*
X12120033Y-14981968D01*
X12281937Y-14896254D02*
X12300985Y-14896254D01*
X12300985Y-14896254D02*
X12320033Y-14905778D01*
X12320033Y-14905778D02*
X12329557Y-14915301D01*
X12329557Y-14915301D02*
X12339080Y-14934349D01*
X12339080Y-14934349D02*
X12348604Y-14972444D01*
X12348604Y-14972444D02*
X12348604Y-15020063D01*
X12348604Y-15020063D02*
X12339080Y-15058158D01*
X12339080Y-15058158D02*
X12329557Y-15077206D01*
X12329557Y-15077206D02*
X12320033Y-15086730D01*
X12320033Y-15086730D02*
X12300985Y-15096254D01*
X12300985Y-15096254D02*
X12281937Y-15096254D01*
X12281937Y-15096254D02*
X12262890Y-15086730D01*
X12262890Y-15086730D02*
X12253366Y-15077206D01*
X12253366Y-15077206D02*
X12243842Y-15058158D01*
X12243842Y-15058158D02*
X12234318Y-15020063D01*
X12234318Y-15020063D02*
X12234318Y-14972444D01*
X12234318Y-14972444D02*
X12243842Y-14934349D01*
X12243842Y-14934349D02*
X12253366Y-14915301D01*
X12253366Y-14915301D02*
X12262890Y-14905778D01*
X12262890Y-14905778D02*
X12281937Y-14896254D01*
X12472414Y-14896254D02*
X12491461Y-14896254D01*
X12491461Y-14896254D02*
X12510509Y-14905778D01*
X12510509Y-14905778D02*
X12520033Y-14915301D01*
X12520033Y-14915301D02*
X12529557Y-14934349D01*
X12529557Y-14934349D02*
X12539080Y-14972444D01*
X12539080Y-14972444D02*
X12539080Y-15020063D01*
X12539080Y-15020063D02*
X12529557Y-15058158D01*
X12529557Y-15058158D02*
X12520033Y-15077206D01*
X12520033Y-15077206D02*
X12510509Y-15086730D01*
X12510509Y-15086730D02*
X12491461Y-15096254D01*
X12491461Y-15096254D02*
X12472414Y-15096254D01*
X12472414Y-15096254D02*
X12453366Y-15086730D01*
X12453366Y-15086730D02*
X12443842Y-15077206D01*
X12443842Y-15077206D02*
X12434318Y-15058158D01*
X12434318Y-15058158D02*
X12424795Y-15020063D01*
X12424795Y-15020063D02*
X12424795Y-14972444D01*
X12424795Y-14972444D02*
X12434318Y-14934349D01*
X12434318Y-14934349D02*
X12443842Y-14915301D01*
X12443842Y-14915301D02*
X12453366Y-14905778D01*
X12453366Y-14905778D02*
X12472414Y-14896254D01*
X12624795Y-15096254D02*
X12624795Y-14962920D01*
X12624795Y-14981968D02*
X12634318Y-14972444D01*
X12634318Y-14972444D02*
X12653366Y-14962920D01*
X12653366Y-14962920D02*
X12681938Y-14962920D01*
X12681938Y-14962920D02*
X12700985Y-14972444D01*
X12700985Y-14972444D02*
X12710509Y-14991492D01*
X12710509Y-14991492D02*
X12710509Y-15096254D01*
X12710509Y-14991492D02*
X12720033Y-14972444D01*
X12720033Y-14972444D02*
X12739080Y-14962920D01*
X12739080Y-14962920D02*
X12767652Y-14962920D01*
X12767652Y-14962920D02*
X12786699Y-14972444D01*
X12786699Y-14972444D02*
X12796223Y-14991492D01*
X12796223Y-14991492D02*
X12796223Y-15096254D01*
X12891461Y-15096254D02*
X12891461Y-14962920D01*
X12891461Y-14981968D02*
X12900985Y-14972444D01*
X12900985Y-14972444D02*
X12920033Y-14962920D01*
X12920033Y-14962920D02*
X12948604Y-14962920D01*
X12948604Y-14962920D02*
X12967652Y-14972444D01*
X12967652Y-14972444D02*
X12977176Y-14991492D01*
X12977176Y-14991492D02*
X12977176Y-15096254D01*
X12977176Y-14991492D02*
X12986699Y-14972444D01*
X12986699Y-14972444D02*
X13005747Y-14962920D01*
X13005747Y-14962920D02*
X13034318Y-14962920D01*
X13034318Y-14962920D02*
X13053366Y-14972444D01*
X13053366Y-14972444D02*
X13062890Y-14991492D01*
X13062890Y-14991492D02*
X13062890Y-15096254D01*
X13453366Y-14886730D02*
X13281938Y-15143873D01*
X13710509Y-14896254D02*
X13729557Y-14896254D01*
X13729557Y-14896254D02*
X13748604Y-14905778D01*
X13748604Y-14905778D02*
X13758128Y-14915301D01*
X13758128Y-14915301D02*
X13767652Y-14934349D01*
X13767652Y-14934349D02*
X13777176Y-14972444D01*
X13777176Y-14972444D02*
X13777176Y-15020063D01*
X13777176Y-15020063D02*
X13767652Y-15058158D01*
X13767652Y-15058158D02*
X13758128Y-15077206D01*
X13758128Y-15077206D02*
X13748604Y-15086730D01*
X13748604Y-15086730D02*
X13729557Y-15096254D01*
X13729557Y-15096254D02*
X13710509Y-15096254D01*
X13710509Y-15096254D02*
X13691461Y-15086730D01*
X13691461Y-15086730D02*
X13681938Y-15077206D01*
X13681938Y-15077206D02*
X13672414Y-15058158D01*
X13672414Y-15058158D02*
X13662890Y-15020063D01*
X13662890Y-15020063D02*
X13662890Y-14972444D01*
X13662890Y-14972444D02*
X13672414Y-14934349D01*
X13672414Y-14934349D02*
X13681938Y-14915301D01*
X13681938Y-14915301D02*
X13691461Y-14905778D01*
X13691461Y-14905778D02*
X13710509Y-14896254D01*
X13862890Y-15077206D02*
X13872414Y-15086730D01*
X13872414Y-15086730D02*
X13862890Y-15096254D01*
X13862890Y-15096254D02*
X13853366Y-15086730D01*
X13853366Y-15086730D02*
X13862890Y-15077206D01*
X13862890Y-15077206D02*
X13862890Y-15096254D01*
X13996223Y-14896254D02*
X14015271Y-14896254D01*
X14015271Y-14896254D02*
X14034319Y-14905778D01*
X14034319Y-14905778D02*
X14043842Y-14915301D01*
X14043842Y-14915301D02*
X14053366Y-14934349D01*
X14053366Y-14934349D02*
X14062890Y-14972444D01*
X14062890Y-14972444D02*
X14062890Y-15020063D01*
X14062890Y-15020063D02*
X14053366Y-15058158D01*
X14053366Y-15058158D02*
X14043842Y-15077206D01*
X14043842Y-15077206D02*
X14034319Y-15086730D01*
X14034319Y-15086730D02*
X14015271Y-15096254D01*
X14015271Y-15096254D02*
X13996223Y-15096254D01*
X13996223Y-15096254D02*
X13977176Y-15086730D01*
X13977176Y-15086730D02*
X13967652Y-15077206D01*
X13967652Y-15077206D02*
X13958128Y-15058158D01*
X13958128Y-15058158D02*
X13948604Y-15020063D01*
X13948604Y-15020063D02*
X13948604Y-14972444D01*
X13948604Y-14972444D02*
X13958128Y-14934349D01*
X13958128Y-14934349D02*
X13967652Y-14915301D01*
X13967652Y-14915301D02*
X13977176Y-14905778D01*
X13977176Y-14905778D02*
X13996223Y-14896254D01*
X14129557Y-14896254D02*
X14253366Y-14896254D01*
X14253366Y-14896254D02*
X14186700Y-14972444D01*
X14186700Y-14972444D02*
X14215271Y-14972444D01*
X14215271Y-14972444D02*
X14234319Y-14981968D01*
X14234319Y-14981968D02*
X14243842Y-14991492D01*
X14243842Y-14991492D02*
X14253366Y-15010539D01*
X14253366Y-15010539D02*
X14253366Y-15058158D01*
X14253366Y-15058158D02*
X14243842Y-15077206D01*
X14243842Y-15077206D02*
X14234319Y-15086730D01*
X14234319Y-15086730D02*
X14215271Y-15096254D01*
X14215271Y-15096254D02*
X14158128Y-15096254D01*
X14158128Y-15096254D02*
X14139081Y-15086730D01*
X14139081Y-15086730D02*
X14129557Y-15077206D01*
X14443842Y-15096254D02*
X14329557Y-15096254D01*
X14386700Y-15096254D02*
X14386700Y-14896254D01*
X14386700Y-14896254D02*
X14367652Y-14924825D01*
X14367652Y-14924825D02*
X14348604Y-14943873D01*
X14348604Y-14943873D02*
X14329557Y-14953397D01*
X14624795Y-14896254D02*
X14529557Y-14896254D01*
X14529557Y-14896254D02*
X14520033Y-14991492D01*
X14520033Y-14991492D02*
X14529557Y-14981968D01*
X14529557Y-14981968D02*
X14548604Y-14972444D01*
X14548604Y-14972444D02*
X14596223Y-14972444D01*
X14596223Y-14972444D02*
X14615271Y-14981968D01*
X14615271Y-14981968D02*
X14624795Y-14991492D01*
X14624795Y-14991492D02*
X14634319Y-15010539D01*
X14634319Y-15010539D02*
X14634319Y-15058158D01*
X14634319Y-15058158D02*
X14624795Y-15077206D01*
X14624795Y-15077206D02*
X14615271Y-15086730D01*
X14615271Y-15086730D02*
X14596223Y-15096254D01*
X14596223Y-15096254D02*
X14548604Y-15096254D01*
X14548604Y-15096254D02*
X14529557Y-15086730D01*
X14529557Y-15086730D02*
X14520033Y-15077206D01*
X14710509Y-14896254D02*
X14710509Y-14934349D01*
X14786700Y-14896254D02*
X14786700Y-14934349D01*
X15081938Y-15172444D02*
X15072414Y-15162920D01*
X15072414Y-15162920D02*
X15053366Y-15134349D01*
X15053366Y-15134349D02*
X15043843Y-15115301D01*
X15043843Y-15115301D02*
X15034319Y-15086730D01*
X15034319Y-15086730D02*
X15024795Y-15039111D01*
X15024795Y-15039111D02*
X15024795Y-15001016D01*
X15024795Y-15001016D02*
X15034319Y-14953397D01*
X15034319Y-14953397D02*
X15043843Y-14924825D01*
X15043843Y-14924825D02*
X15053366Y-14905778D01*
X15053366Y-14905778D02*
X15072414Y-14877206D01*
X15072414Y-14877206D02*
X15081938Y-14867682D01*
X15139081Y-14896254D02*
X15262890Y-14896254D01*
X15262890Y-14896254D02*
X15196223Y-14972444D01*
X15196223Y-14972444D02*
X15224795Y-14972444D01*
X15224795Y-14972444D02*
X15243843Y-14981968D01*
X15243843Y-14981968D02*
X15253366Y-14991492D01*
X15253366Y-14991492D02*
X15262890Y-15010539D01*
X15262890Y-15010539D02*
X15262890Y-15058158D01*
X15262890Y-15058158D02*
X15253366Y-15077206D01*
X15253366Y-15077206D02*
X15243843Y-15086730D01*
X15243843Y-15086730D02*
X15224795Y-15096254D01*
X15224795Y-15096254D02*
X15167652Y-15096254D01*
X15167652Y-15096254D02*
X15148604Y-15086730D01*
X15148604Y-15086730D02*
X15139081Y-15077206D01*
X15339081Y-14915301D02*
X15348604Y-14905778D01*
X15348604Y-14905778D02*
X15367652Y-14896254D01*
X15367652Y-14896254D02*
X15415271Y-14896254D01*
X15415271Y-14896254D02*
X15434319Y-14905778D01*
X15434319Y-14905778D02*
X15443843Y-14915301D01*
X15443843Y-14915301D02*
X15453366Y-14934349D01*
X15453366Y-14934349D02*
X15453366Y-14953397D01*
X15453366Y-14953397D02*
X15443843Y-14981968D01*
X15443843Y-14981968D02*
X15329557Y-15096254D01*
X15329557Y-15096254D02*
X15453366Y-15096254D01*
X15691462Y-15096254D02*
X15691462Y-14896254D01*
X15777176Y-15096254D02*
X15777176Y-14991492D01*
X15777176Y-14991492D02*
X15767652Y-14972444D01*
X15767652Y-14972444D02*
X15748605Y-14962920D01*
X15748605Y-14962920D02*
X15720033Y-14962920D01*
X15720033Y-14962920D02*
X15700985Y-14972444D01*
X15700985Y-14972444D02*
X15691462Y-14981968D01*
X15900985Y-15096254D02*
X15881938Y-15086730D01*
X15881938Y-15086730D02*
X15872414Y-15077206D01*
X15872414Y-15077206D02*
X15862890Y-15058158D01*
X15862890Y-15058158D02*
X15862890Y-15001016D01*
X15862890Y-15001016D02*
X15872414Y-14981968D01*
X15872414Y-14981968D02*
X15881938Y-14972444D01*
X15881938Y-14972444D02*
X15900985Y-14962920D01*
X15900985Y-14962920D02*
X15929557Y-14962920D01*
X15929557Y-14962920D02*
X15948605Y-14972444D01*
X15948605Y-14972444D02*
X15958128Y-14981968D01*
X15958128Y-14981968D02*
X15967652Y-15001016D01*
X15967652Y-15001016D02*
X15967652Y-15058158D01*
X15967652Y-15058158D02*
X15958128Y-15077206D01*
X15958128Y-15077206D02*
X15948605Y-15086730D01*
X15948605Y-15086730D02*
X15929557Y-15096254D01*
X15929557Y-15096254D02*
X15900985Y-15096254D01*
X16081938Y-15096254D02*
X16062890Y-15086730D01*
X16062890Y-15086730D02*
X16053366Y-15067682D01*
X16053366Y-15067682D02*
X16053366Y-14896254D01*
X16234319Y-15086730D02*
X16215271Y-15096254D01*
X16215271Y-15096254D02*
X16177176Y-15096254D01*
X16177176Y-15096254D02*
X16158128Y-15086730D01*
X16158128Y-15086730D02*
X16148605Y-15067682D01*
X16148605Y-15067682D02*
X16148605Y-14991492D01*
X16148605Y-14991492D02*
X16158128Y-14972444D01*
X16158128Y-14972444D02*
X16177176Y-14962920D01*
X16177176Y-14962920D02*
X16215271Y-14962920D01*
X16215271Y-14962920D02*
X16234319Y-14972444D01*
X16234319Y-14972444D02*
X16243843Y-14991492D01*
X16243843Y-14991492D02*
X16243843Y-15010539D01*
X16243843Y-15010539D02*
X16148605Y-15029587D01*
X16320033Y-15086730D02*
X16339081Y-15096254D01*
X16339081Y-15096254D02*
X16377176Y-15096254D01*
X16377176Y-15096254D02*
X16396224Y-15086730D01*
X16396224Y-15086730D02*
X16405747Y-15067682D01*
X16405747Y-15067682D02*
X16405747Y-15058158D01*
X16405747Y-15058158D02*
X16396224Y-15039111D01*
X16396224Y-15039111D02*
X16377176Y-15029587D01*
X16377176Y-15029587D02*
X16348605Y-15029587D01*
X16348605Y-15029587D02*
X16329557Y-15020063D01*
X16329557Y-15020063D02*
X16320033Y-15001016D01*
X16320033Y-15001016D02*
X16320033Y-14991492D01*
X16320033Y-14991492D02*
X16329557Y-14972444D01*
X16329557Y-14972444D02*
X16348605Y-14962920D01*
X16348605Y-14962920D02*
X16377176Y-14962920D01*
X16377176Y-14962920D02*
X16396224Y-14972444D01*
X16472414Y-15172444D02*
X16481938Y-15162920D01*
X16481938Y-15162920D02*
X16500986Y-15134349D01*
X16500986Y-15134349D02*
X16510509Y-15115301D01*
X16510509Y-15115301D02*
X16520033Y-15086730D01*
X16520033Y-15086730D02*
X16529557Y-15039111D01*
X16529557Y-15039111D02*
X16529557Y-15001016D01*
X16529557Y-15001016D02*
X16520033Y-14953397D01*
X16520033Y-14953397D02*
X16510509Y-14924825D01*
X16510509Y-14924825D02*
X16500986Y-14905778D01*
X16500986Y-14905778D02*
X16481938Y-14877206D01*
X16481938Y-14877206D02*
X16472414Y-14867682D01*
D12*
X11456875Y-15218770D02*
X11456875Y-15318770D01*
X11406875Y-15268770D02*
X11506875Y-15268770D01*
D11*
X11872414Y-15360254D02*
X11758128Y-15360254D01*
X11815271Y-15360254D02*
X11815271Y-15160254D01*
X11815271Y-15160254D02*
X11796223Y-15188825D01*
X11796223Y-15188825D02*
X11777176Y-15207873D01*
X11777176Y-15207873D02*
X11758128Y-15217397D01*
X11958128Y-15341206D02*
X11967652Y-15350730D01*
X11967652Y-15350730D02*
X11958128Y-15360254D01*
X11958128Y-15360254D02*
X11948604Y-15350730D01*
X11948604Y-15350730D02*
X11958128Y-15341206D01*
X11958128Y-15341206D02*
X11958128Y-15360254D01*
X12091461Y-15160254D02*
X12110509Y-15160254D01*
X12110509Y-15160254D02*
X12129557Y-15169778D01*
X12129557Y-15169778D02*
X12139080Y-15179301D01*
X12139080Y-15179301D02*
X12148604Y-15198349D01*
X12148604Y-15198349D02*
X12158128Y-15236444D01*
X12158128Y-15236444D02*
X12158128Y-15284063D01*
X12158128Y-15284063D02*
X12148604Y-15322158D01*
X12148604Y-15322158D02*
X12139080Y-15341206D01*
X12139080Y-15341206D02*
X12129557Y-15350730D01*
X12129557Y-15350730D02*
X12110509Y-15360254D01*
X12110509Y-15360254D02*
X12091461Y-15360254D01*
X12091461Y-15360254D02*
X12072414Y-15350730D01*
X12072414Y-15350730D02*
X12062890Y-15341206D01*
X12062890Y-15341206D02*
X12053366Y-15322158D01*
X12053366Y-15322158D02*
X12043842Y-15284063D01*
X12043842Y-15284063D02*
X12043842Y-15236444D01*
X12043842Y-15236444D02*
X12053366Y-15198349D01*
X12053366Y-15198349D02*
X12062890Y-15179301D01*
X12062890Y-15179301D02*
X12072414Y-15169778D01*
X12072414Y-15169778D02*
X12091461Y-15160254D01*
X12281937Y-15160254D02*
X12300985Y-15160254D01*
X12300985Y-15160254D02*
X12320033Y-15169778D01*
X12320033Y-15169778D02*
X12329557Y-15179301D01*
X12329557Y-15179301D02*
X12339080Y-15198349D01*
X12339080Y-15198349D02*
X12348604Y-15236444D01*
X12348604Y-15236444D02*
X12348604Y-15284063D01*
X12348604Y-15284063D02*
X12339080Y-15322158D01*
X12339080Y-15322158D02*
X12329557Y-15341206D01*
X12329557Y-15341206D02*
X12320033Y-15350730D01*
X12320033Y-15350730D02*
X12300985Y-15360254D01*
X12300985Y-15360254D02*
X12281937Y-15360254D01*
X12281937Y-15360254D02*
X12262890Y-15350730D01*
X12262890Y-15350730D02*
X12253366Y-15341206D01*
X12253366Y-15341206D02*
X12243842Y-15322158D01*
X12243842Y-15322158D02*
X12234318Y-15284063D01*
X12234318Y-15284063D02*
X12234318Y-15236444D01*
X12234318Y-15236444D02*
X12243842Y-15198349D01*
X12243842Y-15198349D02*
X12253366Y-15179301D01*
X12253366Y-15179301D02*
X12262890Y-15169778D01*
X12262890Y-15169778D02*
X12281937Y-15160254D01*
X12472414Y-15160254D02*
X12491461Y-15160254D01*
X12491461Y-15160254D02*
X12510509Y-15169778D01*
X12510509Y-15169778D02*
X12520033Y-15179301D01*
X12520033Y-15179301D02*
X12529557Y-15198349D01*
X12529557Y-15198349D02*
X12539080Y-15236444D01*
X12539080Y-15236444D02*
X12539080Y-15284063D01*
X12539080Y-15284063D02*
X12529557Y-15322158D01*
X12529557Y-15322158D02*
X12520033Y-15341206D01*
X12520033Y-15341206D02*
X12510509Y-15350730D01*
X12510509Y-15350730D02*
X12491461Y-15360254D01*
X12491461Y-15360254D02*
X12472414Y-15360254D01*
X12472414Y-15360254D02*
X12453366Y-15350730D01*
X12453366Y-15350730D02*
X12443842Y-15341206D01*
X12443842Y-15341206D02*
X12434318Y-15322158D01*
X12434318Y-15322158D02*
X12424795Y-15284063D01*
X12424795Y-15284063D02*
X12424795Y-15236444D01*
X12424795Y-15236444D02*
X12434318Y-15198349D01*
X12434318Y-15198349D02*
X12443842Y-15179301D01*
X12443842Y-15179301D02*
X12453366Y-15169778D01*
X12453366Y-15169778D02*
X12472414Y-15160254D01*
X12624795Y-15360254D02*
X12624795Y-15226920D01*
X12624795Y-15245968D02*
X12634318Y-15236444D01*
X12634318Y-15236444D02*
X12653366Y-15226920D01*
X12653366Y-15226920D02*
X12681938Y-15226920D01*
X12681938Y-15226920D02*
X12700985Y-15236444D01*
X12700985Y-15236444D02*
X12710509Y-15255492D01*
X12710509Y-15255492D02*
X12710509Y-15360254D01*
X12710509Y-15255492D02*
X12720033Y-15236444D01*
X12720033Y-15236444D02*
X12739080Y-15226920D01*
X12739080Y-15226920D02*
X12767652Y-15226920D01*
X12767652Y-15226920D02*
X12786699Y-15236444D01*
X12786699Y-15236444D02*
X12796223Y-15255492D01*
X12796223Y-15255492D02*
X12796223Y-15360254D01*
X12891461Y-15360254D02*
X12891461Y-15226920D01*
X12891461Y-15245968D02*
X12900985Y-15236444D01*
X12900985Y-15236444D02*
X12920033Y-15226920D01*
X12920033Y-15226920D02*
X12948604Y-15226920D01*
X12948604Y-15226920D02*
X12967652Y-15236444D01*
X12967652Y-15236444D02*
X12977176Y-15255492D01*
X12977176Y-15255492D02*
X12977176Y-15360254D01*
X12977176Y-15255492D02*
X12986699Y-15236444D01*
X12986699Y-15236444D02*
X13005747Y-15226920D01*
X13005747Y-15226920D02*
X13034318Y-15226920D01*
X13034318Y-15226920D02*
X13053366Y-15236444D01*
X13053366Y-15236444D02*
X13062890Y-15255492D01*
X13062890Y-15255492D02*
X13062890Y-15360254D01*
X13453366Y-15150730D02*
X13281938Y-15407873D01*
X13710509Y-15160254D02*
X13729557Y-15160254D01*
X13729557Y-15160254D02*
X13748604Y-15169778D01*
X13748604Y-15169778D02*
X13758128Y-15179301D01*
X13758128Y-15179301D02*
X13767652Y-15198349D01*
X13767652Y-15198349D02*
X13777176Y-15236444D01*
X13777176Y-15236444D02*
X13777176Y-15284063D01*
X13777176Y-15284063D02*
X13767652Y-15322158D01*
X13767652Y-15322158D02*
X13758128Y-15341206D01*
X13758128Y-15341206D02*
X13748604Y-15350730D01*
X13748604Y-15350730D02*
X13729557Y-15360254D01*
X13729557Y-15360254D02*
X13710509Y-15360254D01*
X13710509Y-15360254D02*
X13691461Y-15350730D01*
X13691461Y-15350730D02*
X13681938Y-15341206D01*
X13681938Y-15341206D02*
X13672414Y-15322158D01*
X13672414Y-15322158D02*
X13662890Y-15284063D01*
X13662890Y-15284063D02*
X13662890Y-15236444D01*
X13662890Y-15236444D02*
X13672414Y-15198349D01*
X13672414Y-15198349D02*
X13681938Y-15179301D01*
X13681938Y-15179301D02*
X13691461Y-15169778D01*
X13691461Y-15169778D02*
X13710509Y-15160254D01*
X13862890Y-15341206D02*
X13872414Y-15350730D01*
X13872414Y-15350730D02*
X13862890Y-15360254D01*
X13862890Y-15360254D02*
X13853366Y-15350730D01*
X13853366Y-15350730D02*
X13862890Y-15341206D01*
X13862890Y-15341206D02*
X13862890Y-15360254D01*
X13996223Y-15160254D02*
X14015271Y-15160254D01*
X14015271Y-15160254D02*
X14034319Y-15169778D01*
X14034319Y-15169778D02*
X14043842Y-15179301D01*
X14043842Y-15179301D02*
X14053366Y-15198349D01*
X14053366Y-15198349D02*
X14062890Y-15236444D01*
X14062890Y-15236444D02*
X14062890Y-15284063D01*
X14062890Y-15284063D02*
X14053366Y-15322158D01*
X14053366Y-15322158D02*
X14043842Y-15341206D01*
X14043842Y-15341206D02*
X14034319Y-15350730D01*
X14034319Y-15350730D02*
X14015271Y-15360254D01*
X14015271Y-15360254D02*
X13996223Y-15360254D01*
X13996223Y-15360254D02*
X13977176Y-15350730D01*
X13977176Y-15350730D02*
X13967652Y-15341206D01*
X13967652Y-15341206D02*
X13958128Y-15322158D01*
X13958128Y-15322158D02*
X13948604Y-15284063D01*
X13948604Y-15284063D02*
X13948604Y-15236444D01*
X13948604Y-15236444D02*
X13958128Y-15198349D01*
X13958128Y-15198349D02*
X13967652Y-15179301D01*
X13967652Y-15179301D02*
X13977176Y-15169778D01*
X13977176Y-15169778D02*
X13996223Y-15160254D01*
X14129557Y-15160254D02*
X14253366Y-15160254D01*
X14253366Y-15160254D02*
X14186700Y-15236444D01*
X14186700Y-15236444D02*
X14215271Y-15236444D01*
X14215271Y-15236444D02*
X14234319Y-15245968D01*
X14234319Y-15245968D02*
X14243842Y-15255492D01*
X14243842Y-15255492D02*
X14253366Y-15274539D01*
X14253366Y-15274539D02*
X14253366Y-15322158D01*
X14253366Y-15322158D02*
X14243842Y-15341206D01*
X14243842Y-15341206D02*
X14234319Y-15350730D01*
X14234319Y-15350730D02*
X14215271Y-15360254D01*
X14215271Y-15360254D02*
X14158128Y-15360254D01*
X14158128Y-15360254D02*
X14139081Y-15350730D01*
X14139081Y-15350730D02*
X14129557Y-15341206D01*
X14348604Y-15360254D02*
X14386700Y-15360254D01*
X14386700Y-15360254D02*
X14405747Y-15350730D01*
X14405747Y-15350730D02*
X14415271Y-15341206D01*
X14415271Y-15341206D02*
X14434319Y-15312635D01*
X14434319Y-15312635D02*
X14443842Y-15274539D01*
X14443842Y-15274539D02*
X14443842Y-15198349D01*
X14443842Y-15198349D02*
X14434319Y-15179301D01*
X14434319Y-15179301D02*
X14424795Y-15169778D01*
X14424795Y-15169778D02*
X14405747Y-15160254D01*
X14405747Y-15160254D02*
X14367652Y-15160254D01*
X14367652Y-15160254D02*
X14348604Y-15169778D01*
X14348604Y-15169778D02*
X14339081Y-15179301D01*
X14339081Y-15179301D02*
X14329557Y-15198349D01*
X14329557Y-15198349D02*
X14329557Y-15245968D01*
X14329557Y-15245968D02*
X14339081Y-15265016D01*
X14339081Y-15265016D02*
X14348604Y-15274539D01*
X14348604Y-15274539D02*
X14367652Y-15284063D01*
X14367652Y-15284063D02*
X14405747Y-15284063D01*
X14405747Y-15284063D02*
X14424795Y-15274539D01*
X14424795Y-15274539D02*
X14434319Y-15265016D01*
X14434319Y-15265016D02*
X14443842Y-15245968D01*
X14615271Y-15226920D02*
X14615271Y-15360254D01*
X14567652Y-15150730D02*
X14520033Y-15293587D01*
X14520033Y-15293587D02*
X14643842Y-15293587D01*
X14710509Y-15160254D02*
X14710509Y-15198349D01*
X14786700Y-15160254D02*
X14786700Y-15198349D01*
X15081938Y-15436444D02*
X15072414Y-15426920D01*
X15072414Y-15426920D02*
X15053366Y-15398349D01*
X15053366Y-15398349D02*
X15043843Y-15379301D01*
X15043843Y-15379301D02*
X15034319Y-15350730D01*
X15034319Y-15350730D02*
X15024795Y-15303111D01*
X15024795Y-15303111D02*
X15024795Y-15265016D01*
X15024795Y-15265016D02*
X15034319Y-15217397D01*
X15034319Y-15217397D02*
X15043843Y-15188825D01*
X15043843Y-15188825D02*
X15053366Y-15169778D01*
X15053366Y-15169778D02*
X15072414Y-15141206D01*
X15072414Y-15141206D02*
X15081938Y-15131682D01*
X15243843Y-15226920D02*
X15243843Y-15360254D01*
X15196223Y-15150730D02*
X15148604Y-15293587D01*
X15148604Y-15293587D02*
X15272414Y-15293587D01*
X15377176Y-15245968D02*
X15358128Y-15236444D01*
X15358128Y-15236444D02*
X15348604Y-15226920D01*
X15348604Y-15226920D02*
X15339081Y-15207873D01*
X15339081Y-15207873D02*
X15339081Y-15198349D01*
X15339081Y-15198349D02*
X15348604Y-15179301D01*
X15348604Y-15179301D02*
X15358128Y-15169778D01*
X15358128Y-15169778D02*
X15377176Y-15160254D01*
X15377176Y-15160254D02*
X15415271Y-15160254D01*
X15415271Y-15160254D02*
X15434319Y-15169778D01*
X15434319Y-15169778D02*
X15443843Y-15179301D01*
X15443843Y-15179301D02*
X15453366Y-15198349D01*
X15453366Y-15198349D02*
X15453366Y-15207873D01*
X15453366Y-15207873D02*
X15443843Y-15226920D01*
X15443843Y-15226920D02*
X15434319Y-15236444D01*
X15434319Y-15236444D02*
X15415271Y-15245968D01*
X15415271Y-15245968D02*
X15377176Y-15245968D01*
X15377176Y-15245968D02*
X15358128Y-15255492D01*
X15358128Y-15255492D02*
X15348604Y-15265016D01*
X15348604Y-15265016D02*
X15339081Y-15284063D01*
X15339081Y-15284063D02*
X15339081Y-15322158D01*
X15339081Y-15322158D02*
X15348604Y-15341206D01*
X15348604Y-15341206D02*
X15358128Y-15350730D01*
X15358128Y-15350730D02*
X15377176Y-15360254D01*
X15377176Y-15360254D02*
X15415271Y-15360254D01*
X15415271Y-15360254D02*
X15434319Y-15350730D01*
X15434319Y-15350730D02*
X15443843Y-15341206D01*
X15443843Y-15341206D02*
X15453366Y-15322158D01*
X15453366Y-15322158D02*
X15453366Y-15284063D01*
X15453366Y-15284063D02*
X15443843Y-15265016D01*
X15443843Y-15265016D02*
X15434319Y-15255492D01*
X15434319Y-15255492D02*
X15415271Y-15245968D01*
X15691462Y-15360254D02*
X15691462Y-15160254D01*
X15777176Y-15360254D02*
X15777176Y-15255492D01*
X15777176Y-15255492D02*
X15767652Y-15236444D01*
X15767652Y-15236444D02*
X15748605Y-15226920D01*
X15748605Y-15226920D02*
X15720033Y-15226920D01*
X15720033Y-15226920D02*
X15700985Y-15236444D01*
X15700985Y-15236444D02*
X15691462Y-15245968D01*
X15900985Y-15360254D02*
X15881938Y-15350730D01*
X15881938Y-15350730D02*
X15872414Y-15341206D01*
X15872414Y-15341206D02*
X15862890Y-15322158D01*
X15862890Y-15322158D02*
X15862890Y-15265016D01*
X15862890Y-15265016D02*
X15872414Y-15245968D01*
X15872414Y-15245968D02*
X15881938Y-15236444D01*
X15881938Y-15236444D02*
X15900985Y-15226920D01*
X15900985Y-15226920D02*
X15929557Y-15226920D01*
X15929557Y-15226920D02*
X15948605Y-15236444D01*
X15948605Y-15236444D02*
X15958128Y-15245968D01*
X15958128Y-15245968D02*
X15967652Y-15265016D01*
X15967652Y-15265016D02*
X15967652Y-15322158D01*
X15967652Y-15322158D02*
X15958128Y-15341206D01*
X15958128Y-15341206D02*
X15948605Y-15350730D01*
X15948605Y-15350730D02*
X15929557Y-15360254D01*
X15929557Y-15360254D02*
X15900985Y-15360254D01*
X16081938Y-15360254D02*
X16062890Y-15350730D01*
X16062890Y-15350730D02*
X16053366Y-15331682D01*
X16053366Y-15331682D02*
X16053366Y-15160254D01*
X16234319Y-15350730D02*
X16215271Y-15360254D01*
X16215271Y-15360254D02*
X16177176Y-15360254D01*
X16177176Y-15360254D02*
X16158128Y-15350730D01*
X16158128Y-15350730D02*
X16148605Y-15331682D01*
X16148605Y-15331682D02*
X16148605Y-15255492D01*
X16148605Y-15255492D02*
X16158128Y-15236444D01*
X16158128Y-15236444D02*
X16177176Y-15226920D01*
X16177176Y-15226920D02*
X16215271Y-15226920D01*
X16215271Y-15226920D02*
X16234319Y-15236444D01*
X16234319Y-15236444D02*
X16243843Y-15255492D01*
X16243843Y-15255492D02*
X16243843Y-15274539D01*
X16243843Y-15274539D02*
X16148605Y-15293587D01*
X16320033Y-15350730D02*
X16339081Y-15360254D01*
X16339081Y-15360254D02*
X16377176Y-15360254D01*
X16377176Y-15360254D02*
X16396224Y-15350730D01*
X16396224Y-15350730D02*
X16405747Y-15331682D01*
X16405747Y-15331682D02*
X16405747Y-15322158D01*
X16405747Y-15322158D02*
X16396224Y-15303111D01*
X16396224Y-15303111D02*
X16377176Y-15293587D01*
X16377176Y-15293587D02*
X16348605Y-15293587D01*
X16348605Y-15293587D02*
X16329557Y-15284063D01*
X16329557Y-15284063D02*
X16320033Y-15265016D01*
X16320033Y-15265016D02*
X16320033Y-15255492D01*
X16320033Y-15255492D02*
X16329557Y-15236444D01*
X16329557Y-15236444D02*
X16348605Y-15226920D01*
X16348605Y-15226920D02*
X16377176Y-15226920D01*
X16377176Y-15226920D02*
X16396224Y-15236444D01*
X16472414Y-15436444D02*
X16481938Y-15426920D01*
X16481938Y-15426920D02*
X16500986Y-15398349D01*
X16500986Y-15398349D02*
X16510509Y-15379301D01*
X16510509Y-15379301D02*
X16520033Y-15350730D01*
X16520033Y-15350730D02*
X16529557Y-15303111D01*
X16529557Y-15303111D02*
X16529557Y-15265016D01*
X16529557Y-15265016D02*
X16520033Y-15217397D01*
X16520033Y-15217397D02*
X16510509Y-15188825D01*
X16510509Y-15188825D02*
X16500986Y-15169778D01*
X16500986Y-15169778D02*
X16481938Y-15141206D01*
X16481938Y-15141206D02*
X16472414Y-15131682D01*
X11477586Y-15603481D02*
X11477586Y-15462059D01*
X11336164Y-15462059D01*
X11336164Y-15603481D01*
X11477586Y-15603481D01*
X11748604Y-15424254D02*
X11872414Y-15424254D01*
X11872414Y-15424254D02*
X11805747Y-15500444D01*
X11805747Y-15500444D02*
X11834318Y-15500444D01*
X11834318Y-15500444D02*
X11853366Y-15509968D01*
X11853366Y-15509968D02*
X11862890Y-15519492D01*
X11862890Y-15519492D02*
X11872414Y-15538539D01*
X11872414Y-15538539D02*
X11872414Y-15586158D01*
X11872414Y-15586158D02*
X11862890Y-15605206D01*
X11862890Y-15605206D02*
X11853366Y-15614730D01*
X11853366Y-15614730D02*
X11834318Y-15624254D01*
X11834318Y-15624254D02*
X11777176Y-15624254D01*
X11777176Y-15624254D02*
X11758128Y-15614730D01*
X11758128Y-15614730D02*
X11748604Y-15605206D01*
X11958128Y-15605206D02*
X11967652Y-15614730D01*
X11967652Y-15614730D02*
X11958128Y-15624254D01*
X11958128Y-15624254D02*
X11948604Y-15614730D01*
X11948604Y-15614730D02*
X11958128Y-15605206D01*
X11958128Y-15605206D02*
X11958128Y-15624254D01*
X12043842Y-15443301D02*
X12053366Y-15433778D01*
X12053366Y-15433778D02*
X12072414Y-15424254D01*
X12072414Y-15424254D02*
X12120033Y-15424254D01*
X12120033Y-15424254D02*
X12139080Y-15433778D01*
X12139080Y-15433778D02*
X12148604Y-15443301D01*
X12148604Y-15443301D02*
X12158128Y-15462349D01*
X12158128Y-15462349D02*
X12158128Y-15481397D01*
X12158128Y-15481397D02*
X12148604Y-15509968D01*
X12148604Y-15509968D02*
X12034318Y-15624254D01*
X12034318Y-15624254D02*
X12158128Y-15624254D01*
X12281937Y-15424254D02*
X12300985Y-15424254D01*
X12300985Y-15424254D02*
X12320033Y-15433778D01*
X12320033Y-15433778D02*
X12329557Y-15443301D01*
X12329557Y-15443301D02*
X12339080Y-15462349D01*
X12339080Y-15462349D02*
X12348604Y-15500444D01*
X12348604Y-15500444D02*
X12348604Y-15548063D01*
X12348604Y-15548063D02*
X12339080Y-15586158D01*
X12339080Y-15586158D02*
X12329557Y-15605206D01*
X12329557Y-15605206D02*
X12320033Y-15614730D01*
X12320033Y-15614730D02*
X12300985Y-15624254D01*
X12300985Y-15624254D02*
X12281937Y-15624254D01*
X12281937Y-15624254D02*
X12262890Y-15614730D01*
X12262890Y-15614730D02*
X12253366Y-15605206D01*
X12253366Y-15605206D02*
X12243842Y-15586158D01*
X12243842Y-15586158D02*
X12234318Y-15548063D01*
X12234318Y-15548063D02*
X12234318Y-15500444D01*
X12234318Y-15500444D02*
X12243842Y-15462349D01*
X12243842Y-15462349D02*
X12253366Y-15443301D01*
X12253366Y-15443301D02*
X12262890Y-15433778D01*
X12262890Y-15433778D02*
X12281937Y-15424254D01*
X12472414Y-15424254D02*
X12491461Y-15424254D01*
X12491461Y-15424254D02*
X12510509Y-15433778D01*
X12510509Y-15433778D02*
X12520033Y-15443301D01*
X12520033Y-15443301D02*
X12529557Y-15462349D01*
X12529557Y-15462349D02*
X12539080Y-15500444D01*
X12539080Y-15500444D02*
X12539080Y-15548063D01*
X12539080Y-15548063D02*
X12529557Y-15586158D01*
X12529557Y-15586158D02*
X12520033Y-15605206D01*
X12520033Y-15605206D02*
X12510509Y-15614730D01*
X12510509Y-15614730D02*
X12491461Y-15624254D01*
X12491461Y-15624254D02*
X12472414Y-15624254D01*
X12472414Y-15624254D02*
X12453366Y-15614730D01*
X12453366Y-15614730D02*
X12443842Y-15605206D01*
X12443842Y-15605206D02*
X12434318Y-15586158D01*
X12434318Y-15586158D02*
X12424795Y-15548063D01*
X12424795Y-15548063D02*
X12424795Y-15500444D01*
X12424795Y-15500444D02*
X12434318Y-15462349D01*
X12434318Y-15462349D02*
X12443842Y-15443301D01*
X12443842Y-15443301D02*
X12453366Y-15433778D01*
X12453366Y-15433778D02*
X12472414Y-15424254D01*
X12624795Y-15624254D02*
X12624795Y-15490920D01*
X12624795Y-15509968D02*
X12634318Y-15500444D01*
X12634318Y-15500444D02*
X12653366Y-15490920D01*
X12653366Y-15490920D02*
X12681938Y-15490920D01*
X12681938Y-15490920D02*
X12700985Y-15500444D01*
X12700985Y-15500444D02*
X12710509Y-15519492D01*
X12710509Y-15519492D02*
X12710509Y-15624254D01*
X12710509Y-15519492D02*
X12720033Y-15500444D01*
X12720033Y-15500444D02*
X12739080Y-15490920D01*
X12739080Y-15490920D02*
X12767652Y-15490920D01*
X12767652Y-15490920D02*
X12786699Y-15500444D01*
X12786699Y-15500444D02*
X12796223Y-15519492D01*
X12796223Y-15519492D02*
X12796223Y-15624254D01*
X12891461Y-15624254D02*
X12891461Y-15490920D01*
X12891461Y-15509968D02*
X12900985Y-15500444D01*
X12900985Y-15500444D02*
X12920033Y-15490920D01*
X12920033Y-15490920D02*
X12948604Y-15490920D01*
X12948604Y-15490920D02*
X12967652Y-15500444D01*
X12967652Y-15500444D02*
X12977176Y-15519492D01*
X12977176Y-15519492D02*
X12977176Y-15624254D01*
X12977176Y-15519492D02*
X12986699Y-15500444D01*
X12986699Y-15500444D02*
X13005747Y-15490920D01*
X13005747Y-15490920D02*
X13034318Y-15490920D01*
X13034318Y-15490920D02*
X13053366Y-15500444D01*
X13053366Y-15500444D02*
X13062890Y-15519492D01*
X13062890Y-15519492D02*
X13062890Y-15624254D01*
X13453366Y-15414730D02*
X13281938Y-15671873D01*
X13710509Y-15424254D02*
X13729557Y-15424254D01*
X13729557Y-15424254D02*
X13748604Y-15433778D01*
X13748604Y-15433778D02*
X13758128Y-15443301D01*
X13758128Y-15443301D02*
X13767652Y-15462349D01*
X13767652Y-15462349D02*
X13777176Y-15500444D01*
X13777176Y-15500444D02*
X13777176Y-15548063D01*
X13777176Y-15548063D02*
X13767652Y-15586158D01*
X13767652Y-15586158D02*
X13758128Y-15605206D01*
X13758128Y-15605206D02*
X13748604Y-15614730D01*
X13748604Y-15614730D02*
X13729557Y-15624254D01*
X13729557Y-15624254D02*
X13710509Y-15624254D01*
X13710509Y-15624254D02*
X13691461Y-15614730D01*
X13691461Y-15614730D02*
X13681938Y-15605206D01*
X13681938Y-15605206D02*
X13672414Y-15586158D01*
X13672414Y-15586158D02*
X13662890Y-15548063D01*
X13662890Y-15548063D02*
X13662890Y-15500444D01*
X13662890Y-15500444D02*
X13672414Y-15462349D01*
X13672414Y-15462349D02*
X13681938Y-15443301D01*
X13681938Y-15443301D02*
X13691461Y-15433778D01*
X13691461Y-15433778D02*
X13710509Y-15424254D01*
X13862890Y-15605206D02*
X13872414Y-15614730D01*
X13872414Y-15614730D02*
X13862890Y-15624254D01*
X13862890Y-15624254D02*
X13853366Y-15614730D01*
X13853366Y-15614730D02*
X13862890Y-15605206D01*
X13862890Y-15605206D02*
X13862890Y-15624254D01*
X14062890Y-15624254D02*
X13948604Y-15624254D01*
X14005747Y-15624254D02*
X14005747Y-15424254D01*
X14005747Y-15424254D02*
X13986700Y-15452825D01*
X13986700Y-15452825D02*
X13967652Y-15471873D01*
X13967652Y-15471873D02*
X13948604Y-15481397D01*
X14139081Y-15443301D02*
X14148604Y-15433778D01*
X14148604Y-15433778D02*
X14167652Y-15424254D01*
X14167652Y-15424254D02*
X14215271Y-15424254D01*
X14215271Y-15424254D02*
X14234319Y-15433778D01*
X14234319Y-15433778D02*
X14243842Y-15443301D01*
X14243842Y-15443301D02*
X14253366Y-15462349D01*
X14253366Y-15462349D02*
X14253366Y-15481397D01*
X14253366Y-15481397D02*
X14243842Y-15509968D01*
X14243842Y-15509968D02*
X14129557Y-15624254D01*
X14129557Y-15624254D02*
X14253366Y-15624254D01*
X14424795Y-15424254D02*
X14386700Y-15424254D01*
X14386700Y-15424254D02*
X14367652Y-15433778D01*
X14367652Y-15433778D02*
X14358128Y-15443301D01*
X14358128Y-15443301D02*
X14339081Y-15471873D01*
X14339081Y-15471873D02*
X14329557Y-15509968D01*
X14329557Y-15509968D02*
X14329557Y-15586158D01*
X14329557Y-15586158D02*
X14339081Y-15605206D01*
X14339081Y-15605206D02*
X14348604Y-15614730D01*
X14348604Y-15614730D02*
X14367652Y-15624254D01*
X14367652Y-15624254D02*
X14405747Y-15624254D01*
X14405747Y-15624254D02*
X14424795Y-15614730D01*
X14424795Y-15614730D02*
X14434319Y-15605206D01*
X14434319Y-15605206D02*
X14443842Y-15586158D01*
X14443842Y-15586158D02*
X14443842Y-15538539D01*
X14443842Y-15538539D02*
X14434319Y-15519492D01*
X14434319Y-15519492D02*
X14424795Y-15509968D01*
X14424795Y-15509968D02*
X14405747Y-15500444D01*
X14405747Y-15500444D02*
X14367652Y-15500444D01*
X14367652Y-15500444D02*
X14348604Y-15509968D01*
X14348604Y-15509968D02*
X14339081Y-15519492D01*
X14339081Y-15519492D02*
X14329557Y-15538539D01*
X14567652Y-15424254D02*
X14586700Y-15424254D01*
X14586700Y-15424254D02*
X14605747Y-15433778D01*
X14605747Y-15433778D02*
X14615271Y-15443301D01*
X14615271Y-15443301D02*
X14624795Y-15462349D01*
X14624795Y-15462349D02*
X14634319Y-15500444D01*
X14634319Y-15500444D02*
X14634319Y-15548063D01*
X14634319Y-15548063D02*
X14624795Y-15586158D01*
X14624795Y-15586158D02*
X14615271Y-15605206D01*
X14615271Y-15605206D02*
X14605747Y-15614730D01*
X14605747Y-15614730D02*
X14586700Y-15624254D01*
X14586700Y-15624254D02*
X14567652Y-15624254D01*
X14567652Y-15624254D02*
X14548604Y-15614730D01*
X14548604Y-15614730D02*
X14539081Y-15605206D01*
X14539081Y-15605206D02*
X14529557Y-15586158D01*
X14529557Y-15586158D02*
X14520033Y-15548063D01*
X14520033Y-15548063D02*
X14520033Y-15500444D01*
X14520033Y-15500444D02*
X14529557Y-15462349D01*
X14529557Y-15462349D02*
X14539081Y-15443301D01*
X14539081Y-15443301D02*
X14548604Y-15433778D01*
X14548604Y-15433778D02*
X14567652Y-15424254D01*
X14710509Y-15424254D02*
X14710509Y-15462349D01*
X14786700Y-15424254D02*
X14786700Y-15462349D01*
X15081938Y-15700444D02*
X15072414Y-15690920D01*
X15072414Y-15690920D02*
X15053366Y-15662349D01*
X15053366Y-15662349D02*
X15043843Y-15643301D01*
X15043843Y-15643301D02*
X15034319Y-15614730D01*
X15034319Y-15614730D02*
X15024795Y-15567111D01*
X15024795Y-15567111D02*
X15024795Y-15529016D01*
X15024795Y-15529016D02*
X15034319Y-15481397D01*
X15034319Y-15481397D02*
X15043843Y-15452825D01*
X15043843Y-15452825D02*
X15053366Y-15433778D01*
X15053366Y-15433778D02*
X15072414Y-15405206D01*
X15072414Y-15405206D02*
X15081938Y-15395682D01*
X15243843Y-15490920D02*
X15243843Y-15624254D01*
X15196223Y-15414730D02*
X15148604Y-15557587D01*
X15148604Y-15557587D02*
X15272414Y-15557587D01*
X15500985Y-15624254D02*
X15500985Y-15424254D01*
X15586700Y-15624254D02*
X15586700Y-15519492D01*
X15586700Y-15519492D02*
X15577176Y-15500444D01*
X15577176Y-15500444D02*
X15558128Y-15490920D01*
X15558128Y-15490920D02*
X15529557Y-15490920D01*
X15529557Y-15490920D02*
X15510509Y-15500444D01*
X15510509Y-15500444D02*
X15500985Y-15509968D01*
X15710509Y-15624254D02*
X15691462Y-15614730D01*
X15691462Y-15614730D02*
X15681938Y-15605206D01*
X15681938Y-15605206D02*
X15672414Y-15586158D01*
X15672414Y-15586158D02*
X15672414Y-15529016D01*
X15672414Y-15529016D02*
X15681938Y-15509968D01*
X15681938Y-15509968D02*
X15691462Y-15500444D01*
X15691462Y-15500444D02*
X15710509Y-15490920D01*
X15710509Y-15490920D02*
X15739081Y-15490920D01*
X15739081Y-15490920D02*
X15758128Y-15500444D01*
X15758128Y-15500444D02*
X15767652Y-15509968D01*
X15767652Y-15509968D02*
X15777176Y-15529016D01*
X15777176Y-15529016D02*
X15777176Y-15586158D01*
X15777176Y-15586158D02*
X15767652Y-15605206D01*
X15767652Y-15605206D02*
X15758128Y-15614730D01*
X15758128Y-15614730D02*
X15739081Y-15624254D01*
X15739081Y-15624254D02*
X15710509Y-15624254D01*
X15891462Y-15624254D02*
X15872414Y-15614730D01*
X15872414Y-15614730D02*
X15862890Y-15595682D01*
X15862890Y-15595682D02*
X15862890Y-15424254D01*
X16043843Y-15614730D02*
X16024795Y-15624254D01*
X16024795Y-15624254D02*
X15986700Y-15624254D01*
X15986700Y-15624254D02*
X15967652Y-15614730D01*
X15967652Y-15614730D02*
X15958128Y-15595682D01*
X15958128Y-15595682D02*
X15958128Y-15519492D01*
X15958128Y-15519492D02*
X15967652Y-15500444D01*
X15967652Y-15500444D02*
X15986700Y-15490920D01*
X15986700Y-15490920D02*
X16024795Y-15490920D01*
X16024795Y-15490920D02*
X16043843Y-15500444D01*
X16043843Y-15500444D02*
X16053366Y-15519492D01*
X16053366Y-15519492D02*
X16053366Y-15538539D01*
X16053366Y-15538539D02*
X15958128Y-15557587D01*
X16129557Y-15614730D02*
X16148605Y-15624254D01*
X16148605Y-15624254D02*
X16186700Y-15624254D01*
X16186700Y-15624254D02*
X16205747Y-15614730D01*
X16205747Y-15614730D02*
X16215271Y-15595682D01*
X16215271Y-15595682D02*
X16215271Y-15586158D01*
X16215271Y-15586158D02*
X16205747Y-15567111D01*
X16205747Y-15567111D02*
X16186700Y-15557587D01*
X16186700Y-15557587D02*
X16158128Y-15557587D01*
X16158128Y-15557587D02*
X16139081Y-15548063D01*
X16139081Y-15548063D02*
X16129557Y-15529016D01*
X16129557Y-15529016D02*
X16129557Y-15519492D01*
X16129557Y-15519492D02*
X16139081Y-15500444D01*
X16139081Y-15500444D02*
X16158128Y-15490920D01*
X16158128Y-15490920D02*
X16186700Y-15490920D01*
X16186700Y-15490920D02*
X16205747Y-15500444D01*
X16281938Y-15700444D02*
X16291462Y-15690920D01*
X16291462Y-15690920D02*
X16310509Y-15662349D01*
X16310509Y-15662349D02*
X16320033Y-15643301D01*
X16320033Y-15643301D02*
X16329557Y-15614730D01*
X16329557Y-15614730D02*
X16339081Y-15567111D01*
X16339081Y-15567111D02*
X16339081Y-15529016D01*
X16339081Y-15529016D02*
X16329557Y-15481397D01*
X16329557Y-15481397D02*
X16320033Y-15452825D01*
X16320033Y-15452825D02*
X16310509Y-15433778D01*
X16310509Y-15433778D02*
X16291462Y-15405206D01*
X16291462Y-15405206D02*
X16281938Y-15395682D01*
M02*
