G04 #@! TF.GenerationSoftware,KiCad,Pcbnew,7.0.11*
G04 #@! TF.CreationDate,2024-09-20T17:57:01+02:00*
G04 #@! TF.ProjectId,macropad,6d616372-6f70-4616-942e-6b696361645f,rev?*
G04 #@! TF.SameCoordinates,Original*
G04 #@! TF.FileFunction,Copper,L1,Top*
G04 #@! TF.FilePolarity,Positive*
%FSLAX46Y46*%
G04 Gerber Fmt 4.6, Leading zero omitted, Abs format (unit mm)*
G04 Created by KiCad (PCBNEW 7.0.11) date 2024-09-20 17:57:01*
%MOMM*%
%LPD*%
G01*
G04 APERTURE LIST*
G04 Aperture macros list*
%AMRoundRect*
0 Rectangle with rounded corners*
0 $1 Rounding radius*
0 $2 $3 $4 $5 $6 $7 $8 $9 X,Y pos of 4 corners*
0 Add a 4 corners polygon primitive as box body*
4,1,4,$2,$3,$4,$5,$6,$7,$8,$9,$2,$3,0*
0 Add four circle primitives for the rounded corners*
1,1,$1+$1,$2,$3*
1,1,$1+$1,$4,$5*
1,1,$1+$1,$6,$7*
1,1,$1+$1,$8,$9*
0 Add four rect primitives between the rounded corners*
20,1,$1+$1,$2,$3,$4,$5,0*
20,1,$1+$1,$4,$5,$6,$7,0*
20,1,$1+$1,$6,$7,$8,$9,0*
20,1,$1+$1,$8,$9,$2,$3,0*%
G04 Aperture macros list end*
G04 #@! TA.AperFunction,ComponentPad*
%ADD10C,1.650000*%
G04 #@! TD*
G04 #@! TA.AperFunction,ComponentPad*
%ADD11C,1.350000*%
G04 #@! TD*
G04 #@! TA.AperFunction,ComponentPad*
%ADD12O,1.600000X2.000000*%
G04 #@! TD*
G04 #@! TA.AperFunction,ComponentPad*
%ADD13C,6.400000*%
G04 #@! TD*
G04 #@! TA.AperFunction,ComponentPad*
%ADD14RoundRect,0.250000X-0.550000X-0.550000X0.550000X-0.550000X0.550000X0.550000X-0.550000X0.550000X0*%
G04 #@! TD*
G04 #@! TA.AperFunction,ComponentPad*
%ADD15R,1.600000X1.600000*%
G04 #@! TD*
G04 #@! TA.AperFunction,ComponentPad*
%ADD16O,1.600000X1.600000*%
G04 #@! TD*
G04 #@! TA.AperFunction,ViaPad*
%ADD17C,1.000000*%
G04 #@! TD*
G04 #@! TA.AperFunction,Conductor*
%ADD18C,0.700000*%
G04 #@! TD*
G04 APERTURE END LIST*
D10*
X142431250Y-98681250D03*
D11*
X137431250Y-109731250D03*
X132431250Y-107631250D03*
D10*
X175768750Y-132018750D03*
D11*
X170768750Y-143068750D03*
X165768750Y-140968750D03*
D10*
X142431250Y-82012500D03*
D11*
X137431250Y-93062500D03*
X132431250Y-90962500D03*
D10*
X159100000Y-115350000D03*
D11*
X154100000Y-126400000D03*
X149100000Y-124300000D03*
D10*
X175768750Y-115350000D03*
D11*
X170768750Y-126400000D03*
X165768750Y-124300000D03*
D10*
X192437500Y-115350000D03*
D11*
X187437500Y-126400000D03*
X182437500Y-124300000D03*
D10*
X175768750Y-98681250D03*
D11*
X170768750Y-109731250D03*
X165768750Y-107631250D03*
D10*
X192437500Y-82012500D03*
D11*
X187437500Y-93062500D03*
X182437500Y-90962500D03*
D10*
X142431250Y-115350000D03*
D11*
X137431250Y-126400000D03*
X132431250Y-124300000D03*
D12*
X159973750Y-52537500D03*
X162513750Y-52537500D03*
X165053750Y-52537500D03*
X167593750Y-52537500D03*
D10*
X159100000Y-82012500D03*
D11*
X154100000Y-93062500D03*
X149100000Y-90962500D03*
D13*
X124731250Y-143068750D03*
D10*
X192437500Y-98681250D03*
D11*
X187437500Y-109731250D03*
X182437500Y-107631250D03*
D10*
X175768750Y-82012500D03*
D11*
X170768750Y-93062500D03*
X165768750Y-90962500D03*
D10*
X142431250Y-132018750D03*
D11*
X137431250Y-143068750D03*
X132431250Y-140968750D03*
D10*
X159100000Y-98681250D03*
D11*
X154100000Y-109731250D03*
X149100000Y-107631250D03*
D10*
X192437500Y-132018750D03*
D11*
X187437500Y-143068750D03*
X182437500Y-140968750D03*
D10*
X159100000Y-132018750D03*
D11*
X154100000Y-143068750D03*
X149100000Y-140968750D03*
D14*
X184150000Y-58737500D03*
D13*
X200137500Y-143068750D03*
X124731250Y-54168750D03*
D15*
X176325000Y-85442500D03*
D16*
X176325000Y-93062500D03*
D15*
X192993750Y-102111250D03*
D16*
X192993750Y-109731250D03*
D15*
X159656250Y-135448750D03*
D16*
X159656250Y-143068750D03*
D15*
X142987500Y-102111250D03*
D16*
X142987500Y-109731250D03*
D15*
X159656250Y-118780000D03*
D16*
X159656250Y-126400000D03*
D15*
X192993750Y-85442500D03*
D16*
X192993750Y-93062500D03*
D15*
X192993750Y-135448750D03*
D16*
X192993750Y-143068750D03*
D15*
X142987500Y-135448750D03*
D16*
X142987500Y-143068750D03*
D15*
X142987500Y-85442500D03*
D16*
X142987500Y-93062500D03*
D15*
X176325000Y-102111250D03*
D16*
X176325000Y-109731250D03*
D13*
X200137500Y-54168750D03*
D15*
X142987500Y-118780000D03*
D16*
X142987500Y-126400000D03*
D15*
X176325000Y-118780000D03*
D16*
X176325000Y-126400000D03*
D15*
X192993750Y-118780000D03*
D16*
X192993750Y-126400000D03*
D15*
X159656250Y-85442500D03*
D16*
X159656250Y-93062500D03*
D15*
X159656250Y-102111250D03*
D16*
X159656250Y-109731250D03*
D15*
X176325000Y-135448750D03*
D16*
X176325000Y-143068750D03*
D17*
X167481250Y-61118750D03*
X169068750Y-62706250D03*
X171450000Y-65881250D03*
X176212500Y-71437500D03*
X179387500Y-80962500D03*
X126318750Y-61312500D03*
X179387500Y-72231250D03*
X170656250Y-96837500D03*
X200818750Y-86518750D03*
X124618750Y-76200000D03*
X192881250Y-88900000D03*
X171450000Y-76993750D03*
X126206250Y-101600000D03*
X194468750Y-106362500D03*
X157956250Y-73818750D03*
X187325000Y-112712500D03*
X192087500Y-79375000D03*
X158750000Y-66675000D03*
X201612500Y-74612500D03*
X137318750Y-131762500D03*
X171450000Y-130968750D03*
X200931250Y-62106250D03*
X125412500Y-86518750D03*
X138112500Y-114300000D03*
X192087500Y-71437500D03*
X154781250Y-96043750D03*
X196056250Y-56356250D03*
X189706250Y-129381250D03*
X169862500Y-51593750D03*
X200137500Y-137512500D03*
X169862500Y-114300000D03*
X124618750Y-122237500D03*
X166687500Y-144462500D03*
X200818750Y-103187500D03*
X183356250Y-144462500D03*
X153987500Y-113506250D03*
X138906250Y-97631250D03*
X189706250Y-111918750D03*
X180975000Y-57943750D03*
X185737500Y-80168750D03*
X154781250Y-80962500D03*
X196056250Y-123825000D03*
X143668750Y-74612500D03*
X146843750Y-52387500D03*
X171450000Y-80168750D03*
X185737500Y-72231250D03*
X124731250Y-137512500D03*
X155575000Y-130968750D03*
X149225000Y-144462500D03*
X172243750Y-55562500D03*
X188912500Y-96043750D03*
X163512500Y-58737500D03*
X201612500Y-127000000D03*
X179387500Y-66675000D03*
X189706250Y-62706250D03*
X189706250Y-64293750D03*
D18*
X137431250Y-93062500D02*
X142987500Y-93062500D01*
X154100000Y-93062500D02*
X159656250Y-93062500D01*
X176325000Y-93062500D02*
X170768750Y-93062500D01*
X137431250Y-109731250D02*
X142987500Y-109731250D01*
X159656250Y-109731250D02*
X154100000Y-109731250D01*
X170768750Y-109731250D02*
X176325000Y-109731250D01*
X137431250Y-126400000D02*
X142987500Y-126400000D01*
X159656250Y-126400000D02*
X154100000Y-126400000D01*
X170768750Y-126400000D02*
X176325000Y-126400000D01*
X192993750Y-93062500D02*
X187437500Y-93062500D01*
X187437500Y-109731250D02*
X192993750Y-109731250D01*
X192993750Y-126400000D02*
X187437500Y-126400000D01*
X192993750Y-143068750D02*
X187437500Y-143068750D01*
X176325000Y-143068750D02*
X170768750Y-143068750D01*
X154100000Y-143068750D02*
X159656250Y-143068750D01*
X137431250Y-143068750D02*
X142987500Y-143068750D01*
X132431250Y-73943750D02*
X145256250Y-61118750D01*
X145256250Y-61118750D02*
X167481250Y-61118750D01*
X132431250Y-90962500D02*
X132431250Y-73943750D01*
X132431250Y-140968750D02*
X132431250Y-90962500D01*
X154781250Y-62706250D02*
X169068750Y-62706250D01*
X149100000Y-107631250D02*
X149100000Y-140968750D01*
X149100000Y-68387500D02*
X154781250Y-62706250D01*
X149100000Y-90962500D02*
X149100000Y-107631250D01*
X149100000Y-90962500D02*
X149100000Y-68387500D01*
X165768750Y-69181250D02*
X169068750Y-65881250D01*
X169068750Y-65881250D02*
X171450000Y-65881250D01*
X165768750Y-107631250D02*
X165768750Y-140968750D01*
X165768750Y-90962500D02*
X165768750Y-69181250D01*
X165768750Y-107631250D02*
X165768750Y-90962500D01*
X182437500Y-80837500D02*
X176212500Y-74612500D01*
X182437500Y-140968750D02*
X182437500Y-124300000D01*
X176212500Y-74612500D02*
X176212500Y-71437500D01*
X182437500Y-90962500D02*
X182437500Y-107631250D01*
X182437500Y-107631250D02*
X182437500Y-124300000D01*
X182437500Y-90962500D02*
X182437500Y-80837500D01*
X167593750Y-52537500D02*
X167593750Y-54962500D01*
X189706250Y-62706250D02*
X175337500Y-62706250D01*
X175337500Y-62706250D02*
X167593750Y-54962500D01*
X174998750Y-64293750D02*
X165053750Y-54348750D01*
X165053750Y-54348750D02*
X165053750Y-52537500D01*
X189706250Y-64293750D02*
X174998750Y-64293750D01*
G04 #@! TA.AperFunction,Conductor*
G36*
X200934712Y-50211745D02*
G01*
X200985217Y-50214581D01*
X201223742Y-50227980D01*
X201237548Y-50229536D01*
X201519515Y-50277447D01*
X201533066Y-50280541D01*
X201807877Y-50359716D01*
X201820994Y-50364305D01*
X201934703Y-50411406D01*
X202085228Y-50473758D01*
X202097755Y-50479791D01*
X202348063Y-50618132D01*
X202359837Y-50625531D01*
X202593082Y-50791028D01*
X202603939Y-50799685D01*
X202817184Y-50990254D01*
X202817200Y-50990268D01*
X202827030Y-51000098D01*
X203017612Y-51213358D01*
X203026271Y-51224217D01*
X203191768Y-51457462D01*
X203199167Y-51469236D01*
X203337508Y-51719544D01*
X203343541Y-51732071D01*
X203452992Y-51996301D01*
X203457584Y-52009426D01*
X203512237Y-52199121D01*
X203511882Y-52268990D01*
X203473809Y-52327575D01*
X203410107Y-52356276D01*
X203373687Y-52355923D01*
X203365789Y-52354672D01*
X201728531Y-53991930D01*
X201722688Y-53917681D01*
X201663896Y-53672794D01*
X201567519Y-53440119D01*
X201435930Y-53225385D01*
X201272370Y-53033880D01*
X201080865Y-52870320D01*
X200866131Y-52738731D01*
X200633456Y-52642354D01*
X200388569Y-52583562D01*
X200314316Y-52577718D01*
X201951575Y-50940460D01*
X201644494Y-50783994D01*
X201282436Y-50645012D01*
X200907830Y-50544637D01*
X200907823Y-50544636D01*
X200524787Y-50483969D01*
X200137501Y-50463672D01*
X200137499Y-50463672D01*
X199750212Y-50483969D01*
X199367176Y-50544636D01*
X199367169Y-50544637D01*
X198992563Y-50645012D01*
X198630505Y-50783994D01*
X198323422Y-50940459D01*
X199960681Y-52577718D01*
X199886431Y-52583562D01*
X199641544Y-52642354D01*
X199408869Y-52738731D01*
X199194135Y-52870320D01*
X199002630Y-53033880D01*
X198839070Y-53225385D01*
X198707481Y-53440119D01*
X198611104Y-53672794D01*
X198552312Y-53917681D01*
X198546468Y-53991931D01*
X196909209Y-52354672D01*
X196752744Y-52661755D01*
X196613762Y-53023813D01*
X196513387Y-53398419D01*
X196513386Y-53398426D01*
X196452719Y-53781462D01*
X196432422Y-54168749D01*
X196432422Y-54168750D01*
X196452719Y-54556037D01*
X196513386Y-54939073D01*
X196513387Y-54939080D01*
X196613762Y-55313686D01*
X196752744Y-55675744D01*
X196909210Y-55982825D01*
X198546468Y-54345567D01*
X198552312Y-54419819D01*
X198611104Y-54664706D01*
X198707481Y-54897381D01*
X198839070Y-55112115D01*
X199002630Y-55303620D01*
X199194135Y-55467180D01*
X199408869Y-55598769D01*
X199641544Y-55695146D01*
X199886431Y-55753938D01*
X199960681Y-55759781D01*
X198323423Y-57397038D01*
X198630505Y-57553505D01*
X198992563Y-57692487D01*
X199367169Y-57792862D01*
X199367176Y-57792863D01*
X199750212Y-57853530D01*
X200137499Y-57873828D01*
X200137501Y-57873828D01*
X200524787Y-57853530D01*
X200907823Y-57792863D01*
X200907830Y-57792862D01*
X201282436Y-57692487D01*
X201644494Y-57553505D01*
X201951575Y-57397038D01*
X200314318Y-55759781D01*
X200388569Y-55753938D01*
X200633456Y-55695146D01*
X200866131Y-55598769D01*
X201080865Y-55467180D01*
X201272370Y-55303620D01*
X201435930Y-55112115D01*
X201567519Y-54897381D01*
X201663896Y-54664706D01*
X201722688Y-54419819D01*
X201728531Y-54345568D01*
X203365788Y-55982825D01*
X203371265Y-55972078D01*
X203419239Y-55921282D01*
X203487060Y-55904487D01*
X203553195Y-55927024D01*
X203596647Y-55981739D01*
X203605750Y-56028373D01*
X203605750Y-141209125D01*
X203586065Y-141276164D01*
X203533261Y-141321919D01*
X203464103Y-141331863D01*
X203400547Y-141302838D01*
X203371265Y-141265420D01*
X203365788Y-141254672D01*
X201728531Y-142891929D01*
X201722688Y-142817681D01*
X201663896Y-142572794D01*
X201567519Y-142340119D01*
X201435930Y-142125385D01*
X201272370Y-141933880D01*
X201080865Y-141770320D01*
X200866131Y-141638731D01*
X200633456Y-141542354D01*
X200388569Y-141483562D01*
X200314316Y-141477718D01*
X201951575Y-139840460D01*
X201644494Y-139683994D01*
X201282436Y-139545012D01*
X200907830Y-139444637D01*
X200907823Y-139444636D01*
X200524787Y-139383969D01*
X200137501Y-139363672D01*
X200137499Y-139363672D01*
X199750212Y-139383969D01*
X199367176Y-139444636D01*
X199367169Y-139444637D01*
X198992563Y-139545012D01*
X198630505Y-139683994D01*
X198323422Y-139840459D01*
X199960681Y-141477718D01*
X199886431Y-141483562D01*
X199641544Y-141542354D01*
X199408869Y-141638731D01*
X199194135Y-141770320D01*
X199002630Y-141933880D01*
X198839070Y-142125385D01*
X198707481Y-142340119D01*
X198611104Y-142572794D01*
X198552312Y-142817681D01*
X198546468Y-142891931D01*
X196909209Y-141254672D01*
X196752744Y-141561755D01*
X196613762Y-141923813D01*
X196513387Y-142298419D01*
X196513386Y-142298426D01*
X196452719Y-142681462D01*
X196432422Y-143068749D01*
X196432422Y-143068750D01*
X196452719Y-143456037D01*
X196513386Y-143839073D01*
X196513387Y-143839080D01*
X196613762Y-144213686D01*
X196752744Y-144575744D01*
X196909210Y-144882825D01*
X198546468Y-143245567D01*
X198552312Y-143319819D01*
X198611104Y-143564706D01*
X198707481Y-143797381D01*
X198839070Y-144012115D01*
X199002630Y-144203620D01*
X199194135Y-144367180D01*
X199408869Y-144498769D01*
X199641544Y-144595146D01*
X199886431Y-144653938D01*
X199960680Y-144659781D01*
X198323423Y-146297038D01*
X198334171Y-146302515D01*
X198384967Y-146350489D01*
X198401762Y-146418310D01*
X198379225Y-146484445D01*
X198324510Y-146527897D01*
X198277876Y-146537000D01*
X126590873Y-146537000D01*
X126523834Y-146517315D01*
X126478079Y-146464511D01*
X126468135Y-146395353D01*
X126497160Y-146331797D01*
X126534578Y-146302515D01*
X126545325Y-146297038D01*
X124908068Y-144659781D01*
X124982319Y-144653938D01*
X125227206Y-144595146D01*
X125459881Y-144498769D01*
X125674615Y-144367180D01*
X125866120Y-144203620D01*
X126029680Y-144012115D01*
X126161269Y-143797381D01*
X126257646Y-143564706D01*
X126316438Y-143319819D01*
X126322281Y-143245568D01*
X127959538Y-144882825D01*
X128116005Y-144575744D01*
X128254987Y-144213686D01*
X128355362Y-143839080D01*
X128355363Y-143839073D01*
X128416030Y-143456037D01*
X128436328Y-143068750D01*
X136250714Y-143068750D01*
X136270814Y-143285668D01*
X136270814Y-143285670D01*
X136270815Y-143285673D01*
X136319288Y-143456037D01*
X136330434Y-143495212D01*
X136365038Y-143564706D01*
X136427538Y-143690222D01*
X136558823Y-143864072D01*
X136719818Y-144010838D01*
X136719820Y-144010839D01*
X136719826Y-144010843D01*
X136905036Y-144125520D01*
X136905042Y-144125523D01*
X136927914Y-144134383D01*
X137108181Y-144204220D01*
X137322324Y-144244250D01*
X137322326Y-144244250D01*
X137540174Y-144244250D01*
X137540176Y-144244250D01*
X137754319Y-144204220D01*
X137957460Y-144125522D01*
X138142682Y-144010838D01*
X138207649Y-143951613D01*
X138270453Y-143920996D01*
X138291187Y-143919250D01*
X141947452Y-143919250D01*
X142014491Y-143938935D01*
X142035128Y-143955564D01*
X142148361Y-144068797D01*
X142334766Y-144199318D01*
X142541004Y-144295489D01*
X142760808Y-144354385D01*
X142922730Y-144368551D01*
X142987498Y-144374218D01*
X142987500Y-144374218D01*
X142987502Y-144374218D01*
X143044173Y-144369259D01*
X143214192Y-144354385D01*
X143433996Y-144295489D01*
X143640234Y-144199318D01*
X143826639Y-144068797D01*
X143987547Y-143907889D01*
X144118068Y-143721484D01*
X144214239Y-143515246D01*
X144273135Y-143295442D01*
X144292968Y-143068750D01*
X152919464Y-143068750D01*
X152939564Y-143285668D01*
X152939564Y-143285670D01*
X152939565Y-143285673D01*
X152988038Y-143456037D01*
X152999184Y-143495212D01*
X153033788Y-143564706D01*
X153096288Y-143690222D01*
X153227573Y-143864072D01*
X153388568Y-144010838D01*
X153388570Y-144010839D01*
X153388576Y-144010843D01*
X153573786Y-144125520D01*
X153573792Y-144125523D01*
X153596664Y-144134383D01*
X153776931Y-144204220D01*
X153991074Y-144244250D01*
X153991076Y-144244250D01*
X154208924Y-144244250D01*
X154208926Y-144244250D01*
X154423069Y-144204220D01*
X154626210Y-144125522D01*
X154811432Y-144010838D01*
X154876399Y-143951613D01*
X154939203Y-143920996D01*
X154959937Y-143919250D01*
X158616202Y-143919250D01*
X158683241Y-143938935D01*
X158703878Y-143955564D01*
X158817111Y-144068797D01*
X159003516Y-144199318D01*
X159209754Y-144295489D01*
X159429558Y-144354385D01*
X159591480Y-144368551D01*
X159656248Y-144374218D01*
X159656250Y-144374218D01*
X159656252Y-144374218D01*
X159712923Y-144369259D01*
X159882942Y-144354385D01*
X160102746Y-144295489D01*
X160308984Y-144199318D01*
X160495389Y-144068797D01*
X160656297Y-143907889D01*
X160786818Y-143721484D01*
X160882989Y-143515246D01*
X160941885Y-143295442D01*
X160961718Y-143068750D01*
X169588214Y-143068750D01*
X169608314Y-143285668D01*
X169608314Y-143285670D01*
X169608315Y-143285673D01*
X169656788Y-143456037D01*
X169667934Y-143495212D01*
X169702538Y-143564706D01*
X169765038Y-143690222D01*
X169896323Y-143864072D01*
X170057318Y-144010838D01*
X170057320Y-144010839D01*
X170057326Y-144010843D01*
X170242536Y-144125520D01*
X170242542Y-144125523D01*
X170265414Y-144134383D01*
X170445681Y-144204220D01*
X170659824Y-144244250D01*
X170659826Y-144244250D01*
X170877674Y-144244250D01*
X170877676Y-144244250D01*
X171091819Y-144204220D01*
X171294960Y-144125522D01*
X171480182Y-144010838D01*
X171545149Y-143951613D01*
X171607953Y-143920996D01*
X171628687Y-143919250D01*
X175284952Y-143919250D01*
X175351991Y-143938935D01*
X175372628Y-143955564D01*
X175485861Y-144068797D01*
X175672266Y-144199318D01*
X175878504Y-144295489D01*
X176098308Y-144354385D01*
X176260230Y-144368551D01*
X176324998Y-144374218D01*
X176325000Y-144374218D01*
X176325002Y-144374218D01*
X176381673Y-144369259D01*
X176551692Y-144354385D01*
X176771496Y-144295489D01*
X176977734Y-144199318D01*
X177164139Y-144068797D01*
X177325047Y-143907889D01*
X177455568Y-143721484D01*
X177551739Y-143515246D01*
X177610635Y-143295442D01*
X177630468Y-143068750D01*
X186256964Y-143068750D01*
X186277064Y-143285668D01*
X186277064Y-143285670D01*
X186277065Y-143285673D01*
X186325538Y-143456037D01*
X186336684Y-143495212D01*
X186371288Y-143564706D01*
X186433788Y-143690222D01*
X186565073Y-143864072D01*
X186726068Y-144010838D01*
X186726070Y-144010839D01*
X186726076Y-144010843D01*
X186911286Y-144125520D01*
X186911292Y-144125523D01*
X186934164Y-144134383D01*
X187114431Y-144204220D01*
X187328574Y-144244250D01*
X187328576Y-144244250D01*
X187546424Y-144244250D01*
X187546426Y-144244250D01*
X187760569Y-144204220D01*
X187963710Y-144125522D01*
X188148932Y-144010838D01*
X188213899Y-143951613D01*
X188276703Y-143920996D01*
X188297437Y-143919250D01*
X191953702Y-143919250D01*
X192020741Y-143938935D01*
X192041378Y-143955564D01*
X192154611Y-144068797D01*
X192341016Y-144199318D01*
X192547254Y-144295489D01*
X192767058Y-144354385D01*
X192928980Y-144368551D01*
X192993748Y-144374218D01*
X192993750Y-144374218D01*
X192993752Y-144374218D01*
X193050423Y-144369259D01*
X193220442Y-144354385D01*
X193440246Y-144295489D01*
X193646484Y-144199318D01*
X193832889Y-144068797D01*
X193993797Y-143907889D01*
X194124318Y-143721484D01*
X194220489Y-143515246D01*
X194279385Y-143295442D01*
X194299218Y-143068750D01*
X194279385Y-142842058D01*
X194220489Y-142622254D01*
X194124318Y-142416016D01*
X193993797Y-142229611D01*
X193993795Y-142229608D01*
X193832891Y-142068704D01*
X193646484Y-141938182D01*
X193646482Y-141938181D01*
X193440247Y-141842011D01*
X193440238Y-141842008D01*
X193220447Y-141783116D01*
X193220443Y-141783115D01*
X193220442Y-141783115D01*
X193220441Y-141783114D01*
X193220436Y-141783114D01*
X192993752Y-141763282D01*
X192993748Y-141763282D01*
X192767063Y-141783114D01*
X192767052Y-141783116D01*
X192547261Y-141842008D01*
X192547252Y-141842011D01*
X192341017Y-141938181D01*
X192341015Y-141938182D01*
X192154612Y-142068701D01*
X192119095Y-142104219D01*
X192041381Y-142181932D01*
X191980061Y-142215416D01*
X191953702Y-142218250D01*
X188297437Y-142218250D01*
X188230398Y-142198565D01*
X188213899Y-142185887D01*
X188148932Y-142126662D01*
X188148930Y-142126660D01*
X187963713Y-142011979D01*
X187963707Y-142011976D01*
X187878613Y-141979010D01*
X187760569Y-141933280D01*
X187546426Y-141893250D01*
X187328574Y-141893250D01*
X187114431Y-141933280D01*
X187101778Y-141938182D01*
X186911292Y-142011976D01*
X186911286Y-142011979D01*
X186726076Y-142126656D01*
X186726066Y-142126663D01*
X186565074Y-142273426D01*
X186433788Y-142447277D01*
X186336684Y-142642287D01*
X186277064Y-142851831D01*
X186256964Y-143068749D01*
X186256964Y-143068750D01*
X177630468Y-143068750D01*
X177610635Y-142842058D01*
X177551739Y-142622254D01*
X177455568Y-142416016D01*
X177325047Y-142229611D01*
X177325045Y-142229608D01*
X177164141Y-142068704D01*
X176977734Y-141938182D01*
X176977732Y-141938181D01*
X176771497Y-141842011D01*
X176771488Y-141842008D01*
X176551697Y-141783116D01*
X176551693Y-141783115D01*
X176551692Y-141783115D01*
X176551691Y-141783114D01*
X176551686Y-141783114D01*
X176325002Y-141763282D01*
X176324998Y-141763282D01*
X176098313Y-141783114D01*
X176098302Y-141783116D01*
X175878511Y-141842008D01*
X175878502Y-141842011D01*
X175672267Y-141938181D01*
X175672265Y-141938182D01*
X175485862Y-142068701D01*
X175450345Y-142104219D01*
X175372631Y-142181932D01*
X175311311Y-142215416D01*
X175284952Y-142218250D01*
X171628687Y-142218250D01*
X171561648Y-142198565D01*
X171545149Y-142185887D01*
X171480182Y-142126662D01*
X171480180Y-142126660D01*
X171294963Y-142011979D01*
X171294957Y-142011976D01*
X171209863Y-141979010D01*
X171091819Y-141933280D01*
X170877676Y-141893250D01*
X170659824Y-141893250D01*
X170445681Y-141933280D01*
X170433028Y-141938182D01*
X170242542Y-142011976D01*
X170242536Y-142011979D01*
X170057326Y-142126656D01*
X170057316Y-142126663D01*
X169896324Y-142273426D01*
X169765038Y-142447277D01*
X169667934Y-142642287D01*
X169608314Y-142851831D01*
X169588214Y-143068749D01*
X169588214Y-143068750D01*
X160961718Y-143068750D01*
X160941885Y-142842058D01*
X160882989Y-142622254D01*
X160786818Y-142416016D01*
X160656297Y-142229611D01*
X160656295Y-142229608D01*
X160495391Y-142068704D01*
X160308984Y-141938182D01*
X160308982Y-141938181D01*
X160102747Y-141842011D01*
X160102738Y-141842008D01*
X159882947Y-141783116D01*
X159882943Y-141783115D01*
X159882942Y-141783115D01*
X159882941Y-141783114D01*
X159882936Y-141783114D01*
X159656252Y-141763282D01*
X159656248Y-141763282D01*
X159429563Y-141783114D01*
X159429552Y-141783116D01*
X159209761Y-141842008D01*
X159209752Y-141842011D01*
X159003517Y-141938181D01*
X159003515Y-141938182D01*
X158817112Y-142068701D01*
X158781595Y-142104219D01*
X158703881Y-142181932D01*
X158642561Y-142215416D01*
X158616202Y-142218250D01*
X154959937Y-142218250D01*
X154892898Y-142198565D01*
X154876399Y-142185887D01*
X154811432Y-142126662D01*
X154811430Y-142126660D01*
X154626213Y-142011979D01*
X154626207Y-142011976D01*
X154541113Y-141979010D01*
X154423069Y-141933280D01*
X154208926Y-141893250D01*
X153991074Y-141893250D01*
X153776931Y-141933280D01*
X153764278Y-141938182D01*
X153573792Y-142011976D01*
X153573786Y-142011979D01*
X153388576Y-142126656D01*
X153388566Y-142126663D01*
X153227574Y-142273426D01*
X153096288Y-142447277D01*
X152999184Y-142642287D01*
X152939564Y-142851831D01*
X152919464Y-143068749D01*
X152919464Y-143068750D01*
X144292968Y-143068750D01*
X144273135Y-142842058D01*
X144214239Y-142622254D01*
X144118068Y-142416016D01*
X143987547Y-142229611D01*
X143987545Y-142229608D01*
X143826641Y-142068704D01*
X143640234Y-141938182D01*
X143640232Y-141938181D01*
X143433997Y-141842011D01*
X143433988Y-141842008D01*
X143214197Y-141783116D01*
X143214193Y-141783115D01*
X143214192Y-141783115D01*
X143214191Y-141783114D01*
X143214186Y-141783114D01*
X142987502Y-141763282D01*
X142987498Y-141763282D01*
X142760813Y-141783114D01*
X142760802Y-141783116D01*
X142541011Y-141842008D01*
X142541002Y-141842011D01*
X142334767Y-141938181D01*
X142334765Y-141938182D01*
X142148362Y-142068701D01*
X142112845Y-142104219D01*
X142035131Y-142181932D01*
X141973811Y-142215416D01*
X141947452Y-142218250D01*
X138291187Y-142218250D01*
X138224148Y-142198565D01*
X138207649Y-142185887D01*
X138142682Y-142126662D01*
X138142680Y-142126660D01*
X137957463Y-142011979D01*
X137957457Y-142011976D01*
X137872363Y-141979010D01*
X137754319Y-141933280D01*
X137540176Y-141893250D01*
X137322324Y-141893250D01*
X137108181Y-141933280D01*
X137095528Y-141938182D01*
X136905042Y-142011976D01*
X136905036Y-142011979D01*
X136719826Y-142126656D01*
X136719816Y-142126663D01*
X136558824Y-142273426D01*
X136427538Y-142447277D01*
X136330434Y-142642287D01*
X136270814Y-142851831D01*
X136250714Y-143068749D01*
X136250714Y-143068750D01*
X128436328Y-143068750D01*
X128436328Y-143068749D01*
X128416030Y-142681462D01*
X128355363Y-142298426D01*
X128355362Y-142298419D01*
X128254987Y-141923813D01*
X128116005Y-141561755D01*
X127959538Y-141254673D01*
X126322281Y-142891930D01*
X126316438Y-142817681D01*
X126257646Y-142572794D01*
X126161269Y-142340119D01*
X126029680Y-142125385D01*
X125866120Y-141933880D01*
X125674615Y-141770320D01*
X125459881Y-141638731D01*
X125227206Y-141542354D01*
X124982319Y-141483562D01*
X124908066Y-141477718D01*
X125417034Y-140968750D01*
X131250714Y-140968750D01*
X131270814Y-141185668D01*
X131270814Y-141185670D01*
X131270815Y-141185673D01*
X131309580Y-141321919D01*
X131330434Y-141395212D01*
X131413363Y-141561755D01*
X131427538Y-141590222D01*
X131558823Y-141764072D01*
X131719818Y-141910838D01*
X131719825Y-141910842D01*
X131719826Y-141910843D01*
X131905036Y-142025520D01*
X131905042Y-142025523D01*
X131927914Y-142034383D01*
X132108181Y-142104220D01*
X132322324Y-142144250D01*
X132322326Y-142144250D01*
X132540174Y-142144250D01*
X132540176Y-142144250D01*
X132754319Y-142104220D01*
X132957460Y-142025522D01*
X133142682Y-141910838D01*
X133303677Y-141764072D01*
X133434962Y-141590222D01*
X133532067Y-141395209D01*
X133591685Y-141185673D01*
X133611786Y-140968750D01*
X133591685Y-140751827D01*
X133532067Y-140542291D01*
X133434962Y-140347278D01*
X133306796Y-140177558D01*
X133282104Y-140112196D01*
X133281750Y-140102831D01*
X133281750Y-137168750D01*
X134675723Y-137168750D01*
X134695813Y-137500886D01*
X134695813Y-137500891D01*
X134695814Y-137500892D01*
X134755794Y-137828191D01*
X134755795Y-137828195D01*
X134755796Y-137828199D01*
X134854780Y-138145854D01*
X134854784Y-138145866D01*
X134854787Y-138145873D01*
X134991352Y-138449307D01*
X135163496Y-138734068D01*
X135163501Y-138734076D01*
X135368710Y-138996005D01*
X135603994Y-139231289D01*
X135865923Y-139436498D01*
X135865928Y-139436501D01*
X135865932Y-139436504D01*
X136150693Y-139608648D01*
X136454127Y-139745213D01*
X136454140Y-139745217D01*
X136454145Y-139745219D01*
X136665915Y-139811208D01*
X136771809Y-139844206D01*
X137099108Y-139904186D01*
X137348144Y-139919250D01*
X137348157Y-139919250D01*
X137514343Y-139919250D01*
X137514356Y-139919250D01*
X137763392Y-139904186D01*
X138090691Y-139844206D01*
X138408373Y-139745213D01*
X138711807Y-139608648D01*
X138996568Y-139436504D01*
X139258502Y-139231292D01*
X139493792Y-138996002D01*
X139699004Y-138734068D01*
X139871148Y-138449307D01*
X140007713Y-138145873D01*
X140106706Y-137828191D01*
X140166686Y-137500892D01*
X140186777Y-137168750D01*
X140166686Y-136836608D01*
X140106706Y-136509309D01*
X140040430Y-136296620D01*
X141687000Y-136296620D01*
X141687001Y-136296626D01*
X141693408Y-136356233D01*
X141743702Y-136491078D01*
X141743706Y-136491085D01*
X141829952Y-136606294D01*
X141829955Y-136606297D01*
X141945164Y-136692543D01*
X141945171Y-136692547D01*
X142080017Y-136742841D01*
X142080016Y-136742841D01*
X142086944Y-136743585D01*
X142139627Y-136749250D01*
X143835372Y-136749249D01*
X143894983Y-136742841D01*
X144029831Y-136692546D01*
X144145046Y-136606296D01*
X144231296Y-136491081D01*
X144281591Y-136356233D01*
X144288000Y-136296623D01*
X144287999Y-134600878D01*
X144281591Y-134541267D01*
X144263698Y-134493294D01*
X144231297Y-134406421D01*
X144231293Y-134406414D01*
X144145047Y-134291205D01*
X144145044Y-134291202D01*
X144029835Y-134204956D01*
X144029828Y-134204952D01*
X143894982Y-134154658D01*
X143894983Y-134154658D01*
X143835383Y-134148251D01*
X143835381Y-134148250D01*
X143835373Y-134148250D01*
X143835364Y-134148250D01*
X142139629Y-134148250D01*
X142139623Y-134148251D01*
X142080016Y-134154658D01*
X141945171Y-134204952D01*
X141945164Y-134204956D01*
X141829955Y-134291202D01*
X141829952Y-134291205D01*
X141743706Y-134406414D01*
X141743702Y-134406421D01*
X141693408Y-134541267D01*
X141687001Y-134600866D01*
X141687001Y-134600873D01*
X141687000Y-134600885D01*
X141687000Y-136296620D01*
X140040430Y-136296620D01*
X140007713Y-136191627D01*
X139871148Y-135888193D01*
X139699004Y-135603432D01*
X139699001Y-135603428D01*
X139698998Y-135603423D01*
X139493789Y-135341494D01*
X139258505Y-135106210D01*
X138996576Y-134901001D01*
X138996568Y-134900996D01*
X138711807Y-134728852D01*
X138408373Y-134592287D01*
X138408366Y-134592284D01*
X138408354Y-134592280D01*
X138090699Y-134493296D01*
X138090695Y-134493295D01*
X138090691Y-134493294D01*
X137763392Y-134433314D01*
X137763391Y-134433313D01*
X137763386Y-134433313D01*
X137514364Y-134418250D01*
X137514356Y-134418250D01*
X137348144Y-134418250D01*
X137348135Y-134418250D01*
X137099113Y-134433313D01*
X137099108Y-134433314D01*
X136771809Y-134493294D01*
X136771806Y-134493294D01*
X136771800Y-134493296D01*
X136454145Y-134592280D01*
X136454129Y-134592286D01*
X136454127Y-134592287D01*
X136260906Y-134679248D01*
X136150697Y-134728850D01*
X136150695Y-134728851D01*
X135865923Y-134901001D01*
X135603994Y-135106210D01*
X135368710Y-135341494D01*
X135163501Y-135603423D01*
X134991351Y-135888195D01*
X134991350Y-135888197D01*
X134854786Y-136191630D01*
X134854780Y-136191645D01*
X134755796Y-136509300D01*
X134755794Y-136509306D01*
X134755794Y-136509309D01*
X134722214Y-136692547D01*
X134695813Y-136836613D01*
X134675723Y-137168750D01*
X133281750Y-137168750D01*
X133281750Y-132018751D01*
X141100687Y-132018751D01*
X141120900Y-132249794D01*
X141120901Y-132249801D01*
X141180928Y-132473824D01*
X141180929Y-132473826D01*
X141180930Y-132473829D01*
X141278949Y-132684032D01*
X141411980Y-132874019D01*
X141575981Y-133038020D01*
X141765968Y-133171051D01*
X141976171Y-133269070D01*
X142200200Y-133329099D01*
X142365235Y-133343537D01*
X142431248Y-133349313D01*
X142431250Y-133349313D01*
X142431252Y-133349313D01*
X142489012Y-133344259D01*
X142662300Y-133329099D01*
X142886329Y-133269070D01*
X143096532Y-133171051D01*
X143286519Y-133038020D01*
X143450520Y-132874019D01*
X143583551Y-132684032D01*
X143681570Y-132473829D01*
X143741599Y-132249800D01*
X143761813Y-132018750D01*
X143741599Y-131787700D01*
X143681570Y-131563671D01*
X143583551Y-131353469D01*
X143583549Y-131353466D01*
X143583548Y-131353464D01*
X143450523Y-131163485D01*
X143450518Y-131163479D01*
X143286519Y-130999480D01*
X143286513Y-130999476D01*
X143096532Y-130866449D01*
X142886329Y-130768430D01*
X142886326Y-130768429D01*
X142886324Y-130768428D01*
X142662301Y-130708401D01*
X142662294Y-130708400D01*
X142431252Y-130688187D01*
X142431248Y-130688187D01*
X142200205Y-130708400D01*
X142200198Y-130708401D01*
X141976167Y-130768431D01*
X141765968Y-130866449D01*
X141765964Y-130866451D01*
X141575985Y-130999476D01*
X141575979Y-130999481D01*
X141411981Y-131163479D01*
X141411976Y-131163485D01*
X141278951Y-131353464D01*
X141278949Y-131353468D01*
X141180931Y-131563667D01*
X141120901Y-131787698D01*
X141120900Y-131787705D01*
X141100687Y-132018748D01*
X141100687Y-132018751D01*
X133281750Y-132018751D01*
X133281750Y-126400000D01*
X136250714Y-126400000D01*
X136270814Y-126616918D01*
X136330434Y-126826462D01*
X136427538Y-127021472D01*
X136558823Y-127195322D01*
X136719818Y-127342088D01*
X136719820Y-127342089D01*
X136719826Y-127342093D01*
X136905036Y-127456770D01*
X136905042Y-127456773D01*
X136927914Y-127465633D01*
X137108181Y-127535470D01*
X137322324Y-127575500D01*
X137322326Y-127575500D01*
X137540174Y-127575500D01*
X137540176Y-127575500D01*
X137754319Y-127535470D01*
X137957460Y-127456772D01*
X138142682Y-127342088D01*
X138207649Y-127282863D01*
X138270453Y-127252246D01*
X138291187Y-127250500D01*
X141947452Y-127250500D01*
X142014491Y-127270185D01*
X142035128Y-127286814D01*
X142148361Y-127400047D01*
X142334766Y-127530568D01*
X142541004Y-127626739D01*
X142760808Y-127685635D01*
X142922730Y-127699801D01*
X142987498Y-127705468D01*
X142987500Y-127705468D01*
X142987502Y-127705468D01*
X143044173Y-127700509D01*
X143214192Y-127685635D01*
X143433996Y-127626739D01*
X143640234Y-127530568D01*
X143826639Y-127400047D01*
X143987547Y-127239139D01*
X144118068Y-127052734D01*
X144214239Y-126846496D01*
X144273135Y-126626692D01*
X144292968Y-126400000D01*
X144273135Y-126173308D01*
X144214239Y-125953504D01*
X144118068Y-125747266D01*
X143987547Y-125560861D01*
X143987545Y-125560858D01*
X143826641Y-125399954D01*
X143640234Y-125269432D01*
X143640232Y-125269431D01*
X143433997Y-125173261D01*
X143433988Y-125173258D01*
X143214197Y-125114366D01*
X143214193Y-125114365D01*
X143214192Y-125114365D01*
X143214191Y-125114364D01*
X143214186Y-125114364D01*
X142987502Y-125094532D01*
X142987498Y-125094532D01*
X142760813Y-125114364D01*
X142760802Y-125114366D01*
X142541011Y-125173258D01*
X142541002Y-125173261D01*
X142334767Y-125269431D01*
X142334765Y-125269432D01*
X142148362Y-125399951D01*
X142091748Y-125456566D01*
X142035131Y-125513182D01*
X141973811Y-125546666D01*
X141947452Y-125549500D01*
X138291187Y-125549500D01*
X138224148Y-125529815D01*
X138207649Y-125517137D01*
X138142682Y-125457912D01*
X138142680Y-125457910D01*
X137957463Y-125343229D01*
X137957457Y-125343226D01*
X137872363Y-125310260D01*
X137754319Y-125264530D01*
X137540176Y-125224500D01*
X137322324Y-125224500D01*
X137108181Y-125264530D01*
X137095528Y-125269432D01*
X136905042Y-125343226D01*
X136905036Y-125343229D01*
X136719826Y-125457906D01*
X136719816Y-125457913D01*
X136558824Y-125604676D01*
X136427538Y-125778527D01*
X136330434Y-125973537D01*
X136270814Y-126183081D01*
X136250714Y-126399999D01*
X136250714Y-126400000D01*
X133281750Y-126400000D01*
X133281750Y-125165918D01*
X133301435Y-125098879D01*
X133306789Y-125091200D01*
X133434962Y-124921472D01*
X133532067Y-124726459D01*
X133591685Y-124516923D01*
X133611786Y-124300000D01*
X133591685Y-124083077D01*
X133532067Y-123873541D01*
X133434962Y-123678528D01*
X133306796Y-123508808D01*
X133282104Y-123443446D01*
X133281750Y-123434081D01*
X133281750Y-120500000D01*
X134675723Y-120500000D01*
X134695813Y-120832136D01*
X134695813Y-120832141D01*
X134695814Y-120832142D01*
X134755794Y-121159441D01*
X134755795Y-121159445D01*
X134755796Y-121159449D01*
X134854780Y-121477104D01*
X134854784Y-121477116D01*
X134854787Y-121477123D01*
X134991352Y-121780557D01*
X135163496Y-122065318D01*
X135163501Y-122065326D01*
X135368710Y-122327255D01*
X135603994Y-122562539D01*
X135865923Y-122767748D01*
X135865928Y-122767751D01*
X135865932Y-122767754D01*
X136150693Y-122939898D01*
X136454127Y-123076463D01*
X136454140Y-123076467D01*
X136454145Y-123076469D01*
X136665915Y-123142458D01*
X136771809Y-123175456D01*
X137099108Y-123235436D01*
X137348144Y-123250500D01*
X137348157Y-123250500D01*
X137514343Y-123250500D01*
X137514356Y-123250500D01*
X137763392Y-123235436D01*
X138090691Y-123175456D01*
X138408373Y-123076463D01*
X138711807Y-122939898D01*
X138996568Y-122767754D01*
X139258502Y-122562542D01*
X139493792Y-122327252D01*
X139699004Y-122065318D01*
X139871148Y-121780557D01*
X140007713Y-121477123D01*
X140106706Y-121159441D01*
X140166686Y-120832142D01*
X140186777Y-120500000D01*
X140166686Y-120167858D01*
X140106706Y-119840559D01*
X140040430Y-119627870D01*
X141687000Y-119627870D01*
X141687001Y-119627876D01*
X141693408Y-119687483D01*
X141743702Y-119822328D01*
X141743706Y-119822335D01*
X141829952Y-119937544D01*
X141829955Y-119937547D01*
X141945164Y-120023793D01*
X141945171Y-120023797D01*
X142080017Y-120074091D01*
X142080016Y-120074091D01*
X142086944Y-120074835D01*
X142139627Y-120080500D01*
X143835372Y-120080499D01*
X143894983Y-120074091D01*
X144029831Y-120023796D01*
X144145046Y-119937546D01*
X144231296Y-119822331D01*
X144281591Y-119687483D01*
X144288000Y-119627873D01*
X144287999Y-117932128D01*
X144281591Y-117872517D01*
X144263698Y-117824544D01*
X144231297Y-117737671D01*
X144231293Y-117737664D01*
X144145047Y-117622455D01*
X144145044Y-117622452D01*
X144029835Y-117536206D01*
X144029828Y-117536202D01*
X143894982Y-117485908D01*
X143894983Y-117485908D01*
X143835383Y-117479501D01*
X143835381Y-117479500D01*
X143835373Y-117479500D01*
X143835364Y-117479500D01*
X142139629Y-117479500D01*
X142139623Y-117479501D01*
X142080016Y-117485908D01*
X141945171Y-117536202D01*
X141945164Y-117536206D01*
X141829955Y-117622452D01*
X141829952Y-117622455D01*
X141743706Y-117737664D01*
X141743702Y-117737671D01*
X141693408Y-117872517D01*
X141687001Y-117932116D01*
X141687001Y-117932123D01*
X141687000Y-117932135D01*
X141687000Y-119627870D01*
X140040430Y-119627870D01*
X140007713Y-119522877D01*
X139871148Y-119219443D01*
X139699004Y-118934682D01*
X139699001Y-118934678D01*
X139698998Y-118934673D01*
X139493789Y-118672744D01*
X139258505Y-118437460D01*
X138996576Y-118232251D01*
X138996568Y-118232246D01*
X138711807Y-118060102D01*
X138408373Y-117923537D01*
X138408366Y-117923534D01*
X138408354Y-117923530D01*
X138090699Y-117824546D01*
X138090695Y-117824545D01*
X138090691Y-117824544D01*
X137763392Y-117764564D01*
X137763391Y-117764563D01*
X137763386Y-117764563D01*
X137514364Y-117749500D01*
X137514356Y-117749500D01*
X137348144Y-117749500D01*
X137348135Y-117749500D01*
X137099113Y-117764563D01*
X137099108Y-117764564D01*
X136771809Y-117824544D01*
X136771806Y-117824544D01*
X136771800Y-117824546D01*
X136454145Y-117923530D01*
X136454129Y-117923536D01*
X136454127Y-117923537D01*
X136260906Y-118010498D01*
X136150697Y-118060100D01*
X136150695Y-118060101D01*
X135865923Y-118232251D01*
X135603994Y-118437460D01*
X135368710Y-118672744D01*
X135163501Y-118934673D01*
X134991351Y-119219445D01*
X134991350Y-119219447D01*
X134854786Y-119522880D01*
X134854780Y-119522895D01*
X134755796Y-119840550D01*
X134755794Y-119840556D01*
X134755794Y-119840559D01*
X134722214Y-120023797D01*
X134695813Y-120167863D01*
X134675723Y-120500000D01*
X133281750Y-120500000D01*
X133281750Y-115350001D01*
X141100687Y-115350001D01*
X141120900Y-115581044D01*
X141120901Y-115581051D01*
X141180928Y-115805074D01*
X141180929Y-115805076D01*
X141180930Y-115805079D01*
X141278949Y-116015282D01*
X141411980Y-116205269D01*
X141575981Y-116369270D01*
X141765968Y-116502301D01*
X141976171Y-116600320D01*
X142200200Y-116660349D01*
X142365235Y-116674787D01*
X142431248Y-116680563D01*
X142431250Y-116680563D01*
X142431252Y-116680563D01*
X142489012Y-116675509D01*
X142662300Y-116660349D01*
X142886329Y-116600320D01*
X143096532Y-116502301D01*
X143286519Y-116369270D01*
X143450520Y-116205269D01*
X143583551Y-116015282D01*
X143681570Y-115805079D01*
X143741599Y-115581050D01*
X143761813Y-115350000D01*
X143741599Y-115118950D01*
X143681570Y-114894921D01*
X143583551Y-114684719D01*
X143583549Y-114684716D01*
X143583548Y-114684714D01*
X143450523Y-114494735D01*
X143450518Y-114494729D01*
X143286519Y-114330730D01*
X143286513Y-114330726D01*
X143096532Y-114197699D01*
X142886329Y-114099680D01*
X142886326Y-114099679D01*
X142886324Y-114099678D01*
X142662301Y-114039651D01*
X142662294Y-114039650D01*
X142431252Y-114019437D01*
X142431248Y-114019437D01*
X142200205Y-114039650D01*
X142200198Y-114039651D01*
X141976167Y-114099681D01*
X141765968Y-114197699D01*
X141765964Y-114197701D01*
X141575985Y-114330726D01*
X141575979Y-114330731D01*
X141411981Y-114494729D01*
X141411976Y-114494735D01*
X141278951Y-114684714D01*
X141278949Y-114684718D01*
X141180931Y-114894917D01*
X141120901Y-115118948D01*
X141120900Y-115118955D01*
X141100687Y-115349998D01*
X141100687Y-115350001D01*
X133281750Y-115350001D01*
X133281750Y-109731250D01*
X136250714Y-109731250D01*
X136270814Y-109948168D01*
X136330434Y-110157712D01*
X136427538Y-110352722D01*
X136558823Y-110526572D01*
X136719818Y-110673338D01*
X136719820Y-110673339D01*
X136719826Y-110673343D01*
X136905036Y-110788020D01*
X136905042Y-110788023D01*
X136927914Y-110796883D01*
X137108181Y-110866720D01*
X137322324Y-110906750D01*
X137322326Y-110906750D01*
X137540174Y-110906750D01*
X137540176Y-110906750D01*
X137754319Y-110866720D01*
X137957460Y-110788022D01*
X138142682Y-110673338D01*
X138207649Y-110614113D01*
X138270453Y-110583496D01*
X138291187Y-110581750D01*
X141947452Y-110581750D01*
X142014491Y-110601435D01*
X142035128Y-110618064D01*
X142148361Y-110731297D01*
X142334766Y-110861818D01*
X142541004Y-110957989D01*
X142760808Y-111016885D01*
X142922730Y-111031051D01*
X142987498Y-111036718D01*
X142987500Y-111036718D01*
X142987502Y-111036718D01*
X143044173Y-111031759D01*
X143214192Y-111016885D01*
X143433996Y-110957989D01*
X143640234Y-110861818D01*
X143826639Y-110731297D01*
X143987547Y-110570389D01*
X144118068Y-110383984D01*
X144214239Y-110177746D01*
X144273135Y-109957942D01*
X144292968Y-109731250D01*
X144273135Y-109504558D01*
X144214239Y-109284754D01*
X144118068Y-109078516D01*
X143987547Y-108892111D01*
X143987545Y-108892108D01*
X143826641Y-108731204D01*
X143640234Y-108600682D01*
X143640232Y-108600681D01*
X143433997Y-108504511D01*
X143433988Y-108504508D01*
X143214197Y-108445616D01*
X143214193Y-108445615D01*
X143214192Y-108445615D01*
X143214191Y-108445614D01*
X143214186Y-108445614D01*
X142987502Y-108425782D01*
X142987498Y-108425782D01*
X142760813Y-108445614D01*
X142760802Y-108445616D01*
X142541011Y-108504508D01*
X142541002Y-108504511D01*
X142334767Y-108600681D01*
X142334765Y-108600682D01*
X142148362Y-108731201D01*
X142091748Y-108787816D01*
X142035131Y-108844432D01*
X141973811Y-108877916D01*
X141947452Y-108880750D01*
X138291187Y-108880750D01*
X138224148Y-108861065D01*
X138207649Y-108848387D01*
X138142682Y-108789162D01*
X138142680Y-108789160D01*
X137957463Y-108674479D01*
X137957457Y-108674476D01*
X137872363Y-108641510D01*
X137754319Y-108595780D01*
X137540176Y-108555750D01*
X137322324Y-108555750D01*
X137108181Y-108595780D01*
X137095528Y-108600682D01*
X136905042Y-108674476D01*
X136905036Y-108674479D01*
X136719826Y-108789156D01*
X136719816Y-108789163D01*
X136558824Y-108935926D01*
X136427538Y-109109777D01*
X136330434Y-109304787D01*
X136270814Y-109514331D01*
X136250714Y-109731249D01*
X136250714Y-109731250D01*
X133281750Y-109731250D01*
X133281750Y-108497168D01*
X133301435Y-108430129D01*
X133306789Y-108422450D01*
X133434962Y-108252722D01*
X133532067Y-108057709D01*
X133591685Y-107848173D01*
X133611786Y-107631250D01*
X133591685Y-107414327D01*
X133532067Y-107204791D01*
X133434962Y-107009778D01*
X133306796Y-106840058D01*
X133282104Y-106774696D01*
X133281750Y-106765331D01*
X133281750Y-103831250D01*
X134675723Y-103831250D01*
X134695813Y-104163386D01*
X134695813Y-104163391D01*
X134695814Y-104163392D01*
X134755794Y-104490691D01*
X134755795Y-104490695D01*
X134755796Y-104490699D01*
X134854780Y-104808354D01*
X134854784Y-104808366D01*
X134854787Y-104808373D01*
X134991352Y-105111807D01*
X135163496Y-105396568D01*
X135163501Y-105396576D01*
X135368710Y-105658505D01*
X135603994Y-105893789D01*
X135865923Y-106098998D01*
X135865928Y-106099001D01*
X135865932Y-106099004D01*
X136150693Y-106271148D01*
X136454127Y-106407713D01*
X136454140Y-106407717D01*
X136454145Y-106407719D01*
X136665915Y-106473708D01*
X136771809Y-106506706D01*
X137099108Y-106566686D01*
X137348144Y-106581750D01*
X137348157Y-106581750D01*
X137514343Y-106581750D01*
X137514356Y-106581750D01*
X137763392Y-106566686D01*
X138090691Y-106506706D01*
X138408373Y-106407713D01*
X138711807Y-106271148D01*
X138996568Y-106099004D01*
X139258502Y-105893792D01*
X139493792Y-105658502D01*
X139699004Y-105396568D01*
X139871148Y-105111807D01*
X140007713Y-104808373D01*
X140106706Y-104490691D01*
X140166686Y-104163392D01*
X140186777Y-103831250D01*
X140166686Y-103499108D01*
X140106706Y-103171809D01*
X140040430Y-102959120D01*
X141687000Y-102959120D01*
X141687001Y-102959126D01*
X141693408Y-103018733D01*
X141743702Y-103153578D01*
X141743706Y-103153585D01*
X141829952Y-103268794D01*
X141829955Y-103268797D01*
X141945164Y-103355043D01*
X141945171Y-103355047D01*
X142080017Y-103405341D01*
X142080016Y-103405341D01*
X142086944Y-103406085D01*
X142139627Y-103411750D01*
X143835372Y-103411749D01*
X143894983Y-103405341D01*
X144029831Y-103355046D01*
X144145046Y-103268796D01*
X144231296Y-103153581D01*
X144281591Y-103018733D01*
X144288000Y-102959123D01*
X144287999Y-101263378D01*
X144281591Y-101203767D01*
X144263698Y-101155794D01*
X144231297Y-101068921D01*
X144231293Y-101068914D01*
X144145047Y-100953705D01*
X144145044Y-100953702D01*
X144029835Y-100867456D01*
X144029828Y-100867452D01*
X143894982Y-100817158D01*
X143894983Y-100817158D01*
X143835383Y-100810751D01*
X143835381Y-100810750D01*
X143835373Y-100810750D01*
X143835364Y-100810750D01*
X142139629Y-100810750D01*
X142139623Y-100810751D01*
X142080016Y-100817158D01*
X141945171Y-100867452D01*
X141945164Y-100867456D01*
X141829955Y-100953702D01*
X141829952Y-100953705D01*
X141743706Y-101068914D01*
X141743702Y-101068921D01*
X141693408Y-101203767D01*
X141687001Y-101263366D01*
X141687001Y-101263373D01*
X141687000Y-101263385D01*
X141687000Y-102959120D01*
X140040430Y-102959120D01*
X140007713Y-102854127D01*
X139871148Y-102550693D01*
X139699004Y-102265932D01*
X139699001Y-102265928D01*
X139698998Y-102265923D01*
X139493789Y-102003994D01*
X139258505Y-101768710D01*
X138996576Y-101563501D01*
X138996568Y-101563496D01*
X138711807Y-101391352D01*
X138408373Y-101254787D01*
X138408366Y-101254784D01*
X138408354Y-101254780D01*
X138090699Y-101155796D01*
X138090695Y-101155795D01*
X138090691Y-101155794D01*
X137763392Y-101095814D01*
X137763391Y-101095813D01*
X137763386Y-101095813D01*
X137514364Y-101080750D01*
X137514356Y-101080750D01*
X137348144Y-101080750D01*
X137348135Y-101080750D01*
X137099113Y-101095813D01*
X137099108Y-101095814D01*
X136771809Y-101155794D01*
X136771806Y-101155794D01*
X136771800Y-101155796D01*
X136454145Y-101254780D01*
X136454129Y-101254786D01*
X136454127Y-101254787D01*
X136260906Y-101341748D01*
X136150697Y-101391350D01*
X136150695Y-101391351D01*
X135865923Y-101563501D01*
X135603994Y-101768710D01*
X135368710Y-102003994D01*
X135163501Y-102265923D01*
X134991351Y-102550695D01*
X134991350Y-102550697D01*
X134854786Y-102854130D01*
X134854780Y-102854145D01*
X134755796Y-103171800D01*
X134755794Y-103171806D01*
X134755794Y-103171809D01*
X134722214Y-103355047D01*
X134695813Y-103499113D01*
X134675723Y-103831250D01*
X133281750Y-103831250D01*
X133281750Y-98681251D01*
X141100687Y-98681251D01*
X141120900Y-98912294D01*
X141120901Y-98912301D01*
X141180928Y-99136324D01*
X141180929Y-99136326D01*
X141180930Y-99136329D01*
X141278949Y-99346532D01*
X141411980Y-99536519D01*
X141575981Y-99700520D01*
X141765968Y-99833551D01*
X141976171Y-99931570D01*
X142200200Y-99991599D01*
X142365235Y-100006037D01*
X142431248Y-100011813D01*
X142431250Y-100011813D01*
X142431252Y-100011813D01*
X142489012Y-100006759D01*
X142662300Y-99991599D01*
X142886329Y-99931570D01*
X143096532Y-99833551D01*
X143286519Y-99700520D01*
X143450520Y-99536519D01*
X143583551Y-99346532D01*
X143681570Y-99136329D01*
X143741599Y-98912300D01*
X143761813Y-98681250D01*
X143741599Y-98450200D01*
X143681570Y-98226171D01*
X143583551Y-98015969D01*
X143583549Y-98015966D01*
X143583548Y-98015964D01*
X143450523Y-97825985D01*
X143450518Y-97825979D01*
X143286519Y-97661980D01*
X143286513Y-97661976D01*
X143096532Y-97528949D01*
X142886329Y-97430930D01*
X142886326Y-97430929D01*
X142886324Y-97430928D01*
X142662301Y-97370901D01*
X142662294Y-97370900D01*
X142431252Y-97350687D01*
X142431248Y-97350687D01*
X142200205Y-97370900D01*
X142200198Y-97370901D01*
X141976167Y-97430931D01*
X141765968Y-97528949D01*
X141765964Y-97528951D01*
X141575985Y-97661976D01*
X141575979Y-97661981D01*
X141411981Y-97825979D01*
X141411976Y-97825985D01*
X141278951Y-98015964D01*
X141278949Y-98015968D01*
X141180931Y-98226167D01*
X141120901Y-98450198D01*
X141120900Y-98450205D01*
X141100687Y-98681248D01*
X141100687Y-98681251D01*
X133281750Y-98681251D01*
X133281750Y-93062500D01*
X136250714Y-93062500D01*
X136270814Y-93279418D01*
X136330434Y-93488962D01*
X136427538Y-93683972D01*
X136558823Y-93857822D01*
X136719818Y-94004588D01*
X136719820Y-94004589D01*
X136719826Y-94004593D01*
X136905036Y-94119270D01*
X136905042Y-94119273D01*
X136927914Y-94128133D01*
X137108181Y-94197970D01*
X137322324Y-94238000D01*
X137322326Y-94238000D01*
X137540174Y-94238000D01*
X137540176Y-94238000D01*
X137754319Y-94197970D01*
X137957460Y-94119272D01*
X138142682Y-94004588D01*
X138207649Y-93945363D01*
X138270453Y-93914746D01*
X138291187Y-93913000D01*
X141947452Y-93913000D01*
X142014491Y-93932685D01*
X142035128Y-93949314D01*
X142148361Y-94062547D01*
X142334766Y-94193068D01*
X142541004Y-94289239D01*
X142760808Y-94348135D01*
X142922730Y-94362301D01*
X142987498Y-94367968D01*
X142987500Y-94367968D01*
X142987502Y-94367968D01*
X143044173Y-94363009D01*
X143214192Y-94348135D01*
X143433996Y-94289239D01*
X143640234Y-94193068D01*
X143826639Y-94062547D01*
X143987547Y-93901639D01*
X144118068Y-93715234D01*
X144214239Y-93508996D01*
X144273135Y-93289192D01*
X144292968Y-93062500D01*
X144273135Y-92835808D01*
X144214239Y-92616004D01*
X144118068Y-92409766D01*
X143987547Y-92223361D01*
X143987545Y-92223358D01*
X143826641Y-92062454D01*
X143640234Y-91931932D01*
X143640232Y-91931931D01*
X143433997Y-91835761D01*
X143433988Y-91835758D01*
X143214197Y-91776866D01*
X143214193Y-91776865D01*
X143214192Y-91776865D01*
X143214191Y-91776864D01*
X143214186Y-91776864D01*
X142987502Y-91757032D01*
X142987498Y-91757032D01*
X142760813Y-91776864D01*
X142760802Y-91776866D01*
X142541011Y-91835758D01*
X142541002Y-91835761D01*
X142334767Y-91931931D01*
X142334765Y-91931932D01*
X142148362Y-92062451D01*
X142091748Y-92119066D01*
X142035131Y-92175682D01*
X141973811Y-92209166D01*
X141947452Y-92212000D01*
X138291187Y-92212000D01*
X138224148Y-92192315D01*
X138207649Y-92179637D01*
X138142682Y-92120412D01*
X138142680Y-92120410D01*
X137957463Y-92005729D01*
X137957457Y-92005726D01*
X137872363Y-91972760D01*
X137754319Y-91927030D01*
X137540176Y-91887000D01*
X137322324Y-91887000D01*
X137108181Y-91927030D01*
X137095528Y-91931932D01*
X136905042Y-92005726D01*
X136905036Y-92005729D01*
X136719826Y-92120406D01*
X136719816Y-92120413D01*
X136558824Y-92267176D01*
X136427538Y-92441027D01*
X136330434Y-92636037D01*
X136270814Y-92845581D01*
X136250714Y-93062499D01*
X136250714Y-93062500D01*
X133281750Y-93062500D01*
X133281750Y-91828418D01*
X133301435Y-91761379D01*
X133306789Y-91753700D01*
X133434962Y-91583972D01*
X133532067Y-91388959D01*
X133591685Y-91179423D01*
X133611786Y-90962500D01*
X133591685Y-90745577D01*
X133532067Y-90536041D01*
X133434962Y-90341028D01*
X133306796Y-90171308D01*
X133282104Y-90105946D01*
X133281750Y-90096581D01*
X133281750Y-87162500D01*
X134675723Y-87162500D01*
X134695813Y-87494636D01*
X134695813Y-87494641D01*
X134695814Y-87494642D01*
X134755794Y-87821941D01*
X134755795Y-87821945D01*
X134755796Y-87821949D01*
X134854780Y-88139604D01*
X134854784Y-88139616D01*
X134854787Y-88139623D01*
X134991352Y-88443057D01*
X135163496Y-88727818D01*
X135163501Y-88727826D01*
X135368710Y-88989755D01*
X135603994Y-89225039D01*
X135865923Y-89430248D01*
X135865928Y-89430251D01*
X135865932Y-89430254D01*
X136150693Y-89602398D01*
X136454127Y-89738963D01*
X136454140Y-89738967D01*
X136454145Y-89738969D01*
X136665915Y-89804958D01*
X136771809Y-89837956D01*
X137099108Y-89897936D01*
X137348144Y-89913000D01*
X137348157Y-89913000D01*
X137514343Y-89913000D01*
X137514356Y-89913000D01*
X137763392Y-89897936D01*
X138090691Y-89837956D01*
X138408373Y-89738963D01*
X138711807Y-89602398D01*
X138996568Y-89430254D01*
X139258502Y-89225042D01*
X139493792Y-88989752D01*
X139699004Y-88727818D01*
X139871148Y-88443057D01*
X140007713Y-88139623D01*
X140106706Y-87821941D01*
X140166686Y-87494642D01*
X140186777Y-87162500D01*
X140166686Y-86830358D01*
X140106706Y-86503059D01*
X140040430Y-86290370D01*
X141687000Y-86290370D01*
X141687001Y-86290376D01*
X141693408Y-86349983D01*
X141743702Y-86484828D01*
X141743706Y-86484835D01*
X141829952Y-86600044D01*
X141829955Y-86600047D01*
X141945164Y-86686293D01*
X141945171Y-86686297D01*
X142080017Y-86736591D01*
X142080016Y-86736591D01*
X142086944Y-86737335D01*
X142139627Y-86743000D01*
X143835372Y-86742999D01*
X143894983Y-86736591D01*
X144029831Y-86686296D01*
X144145046Y-86600046D01*
X144231296Y-86484831D01*
X144281591Y-86349983D01*
X144288000Y-86290373D01*
X144287999Y-84594628D01*
X144281591Y-84535017D01*
X144263698Y-84487044D01*
X144231297Y-84400171D01*
X144231293Y-84400164D01*
X144145047Y-84284955D01*
X144145044Y-84284952D01*
X144029835Y-84198706D01*
X144029828Y-84198702D01*
X143894982Y-84148408D01*
X143894983Y-84148408D01*
X143835383Y-84142001D01*
X143835381Y-84142000D01*
X143835373Y-84142000D01*
X143835364Y-84142000D01*
X142139629Y-84142000D01*
X142139623Y-84142001D01*
X142080016Y-84148408D01*
X141945171Y-84198702D01*
X141945164Y-84198706D01*
X141829955Y-84284952D01*
X141829952Y-84284955D01*
X141743706Y-84400164D01*
X141743702Y-84400171D01*
X141693408Y-84535017D01*
X141687001Y-84594616D01*
X141687001Y-84594623D01*
X141687000Y-84594635D01*
X141687000Y-86290370D01*
X140040430Y-86290370D01*
X140007713Y-86185377D01*
X139871148Y-85881943D01*
X139699004Y-85597182D01*
X139699001Y-85597178D01*
X139698998Y-85597173D01*
X139493789Y-85335244D01*
X139258505Y-85099960D01*
X138996576Y-84894751D01*
X138996568Y-84894746D01*
X138711807Y-84722602D01*
X138408373Y-84586037D01*
X138408366Y-84586034D01*
X138408354Y-84586030D01*
X138090699Y-84487046D01*
X138090695Y-84487045D01*
X138090691Y-84487044D01*
X137763392Y-84427064D01*
X137763391Y-84427063D01*
X137763386Y-84427063D01*
X137514364Y-84412000D01*
X137514356Y-84412000D01*
X137348144Y-84412000D01*
X137348135Y-84412000D01*
X137099113Y-84427063D01*
X137099108Y-84427064D01*
X136771809Y-84487044D01*
X136771806Y-84487044D01*
X136771800Y-84487046D01*
X136454145Y-84586030D01*
X136454129Y-84586036D01*
X136454127Y-84586037D01*
X136260906Y-84672998D01*
X136150697Y-84722600D01*
X136150695Y-84722601D01*
X135865923Y-84894751D01*
X135603994Y-85099960D01*
X135368710Y-85335244D01*
X135163501Y-85597173D01*
X134991351Y-85881945D01*
X134991350Y-85881947D01*
X134854786Y-86185380D01*
X134854780Y-86185395D01*
X134755796Y-86503050D01*
X134755794Y-86503056D01*
X134755794Y-86503059D01*
X134722214Y-86686297D01*
X134695813Y-86830363D01*
X134675723Y-87162500D01*
X133281750Y-87162500D01*
X133281750Y-82012501D01*
X141100687Y-82012501D01*
X141120900Y-82243544D01*
X141120901Y-82243551D01*
X141180928Y-82467574D01*
X141180929Y-82467576D01*
X141180930Y-82467579D01*
X141278949Y-82677782D01*
X141411980Y-82867769D01*
X141575981Y-83031770D01*
X141765968Y-83164801D01*
X141976171Y-83262820D01*
X142200200Y-83322849D01*
X142365235Y-83337287D01*
X142431248Y-83343063D01*
X142431250Y-83343063D01*
X142431252Y-83343063D01*
X142489012Y-83338009D01*
X142662300Y-83322849D01*
X142886329Y-83262820D01*
X143096532Y-83164801D01*
X143286519Y-83031770D01*
X143450520Y-82867769D01*
X143583551Y-82677782D01*
X143681570Y-82467579D01*
X143741599Y-82243550D01*
X143761813Y-82012500D01*
X143741599Y-81781450D01*
X143681570Y-81557421D01*
X143583551Y-81347219D01*
X143583549Y-81347216D01*
X143583548Y-81347214D01*
X143450523Y-81157235D01*
X143450518Y-81157229D01*
X143286519Y-80993230D01*
X143286513Y-80993226D01*
X143096532Y-80860199D01*
X142886329Y-80762180D01*
X142886326Y-80762179D01*
X142886324Y-80762178D01*
X142662301Y-80702151D01*
X142662294Y-80702150D01*
X142431252Y-80681937D01*
X142431248Y-80681937D01*
X142200205Y-80702150D01*
X142200198Y-80702151D01*
X141976167Y-80762181D01*
X141765968Y-80860199D01*
X141765964Y-80860201D01*
X141575985Y-80993226D01*
X141575979Y-80993231D01*
X141411981Y-81157229D01*
X141411976Y-81157235D01*
X141278951Y-81347214D01*
X141278949Y-81347218D01*
X141180931Y-81557417D01*
X141120901Y-81781448D01*
X141120900Y-81781455D01*
X141100687Y-82012498D01*
X141100687Y-82012501D01*
X133281750Y-82012501D01*
X133281750Y-74347400D01*
X133301435Y-74280361D01*
X133318069Y-74259719D01*
X145572219Y-62005569D01*
X145633542Y-61972084D01*
X145659900Y-61969250D01*
X154016098Y-61969250D01*
X154083137Y-61988935D01*
X154128892Y-62041739D01*
X154138836Y-62110897D01*
X154109811Y-62174453D01*
X154103779Y-62180931D01*
X148526610Y-67758099D01*
X148519208Y-67764924D01*
X148478900Y-67799163D01*
X148430924Y-67862272D01*
X148428858Y-67864914D01*
X148379158Y-67926744D01*
X148378649Y-67927541D01*
X148367469Y-67945566D01*
X148366941Y-67946443D01*
X148333642Y-68018416D01*
X148332193Y-68021440D01*
X148296966Y-68092472D01*
X148296582Y-68093517D01*
X148289580Y-68113406D01*
X148289268Y-68114332D01*
X148272219Y-68191782D01*
X148271453Y-68195049D01*
X148252314Y-68272008D01*
X148252191Y-68272916D01*
X148249607Y-68294016D01*
X148249500Y-68295001D01*
X148249500Y-68374272D01*
X148249455Y-68377629D01*
X148247306Y-68456937D01*
X148247389Y-68457947D01*
X148249500Y-68480149D01*
X148249500Y-90096581D01*
X148229815Y-90163620D01*
X148224454Y-90171308D01*
X148096288Y-90341027D01*
X147999184Y-90536037D01*
X147939564Y-90745581D01*
X147919464Y-90962499D01*
X147919464Y-90962500D01*
X147939564Y-91179418D01*
X147939564Y-91179420D01*
X147939565Y-91179423D01*
X147999183Y-91388959D01*
X148096288Y-91583972D01*
X148224454Y-91753692D01*
X148249146Y-91819052D01*
X148249500Y-91828418D01*
X148249500Y-106765331D01*
X148229815Y-106832370D01*
X148224454Y-106840058D01*
X148096288Y-107009777D01*
X147999184Y-107204787D01*
X147939564Y-107414331D01*
X147919464Y-107631249D01*
X147919464Y-107631250D01*
X147939564Y-107848168D01*
X147939564Y-107848170D01*
X147939565Y-107848173D01*
X147999183Y-108057709D01*
X148096288Y-108252722D01*
X148224454Y-108422442D01*
X148249146Y-108487802D01*
X148249500Y-108497168D01*
X148249500Y-123434081D01*
X148229815Y-123501120D01*
X148224454Y-123508808D01*
X148096288Y-123678527D01*
X147999184Y-123873537D01*
X147939564Y-124083081D01*
X147919464Y-124299999D01*
X147919464Y-124300000D01*
X147939564Y-124516918D01*
X147939564Y-124516920D01*
X147939565Y-124516923D01*
X147999183Y-124726459D01*
X148096288Y-124921472D01*
X148224454Y-125091192D01*
X148249146Y-125156552D01*
X148249500Y-125165918D01*
X148249500Y-140102831D01*
X148229815Y-140169870D01*
X148224454Y-140177558D01*
X148096288Y-140347277D01*
X147999184Y-140542287D01*
X147939564Y-140751831D01*
X147919464Y-140968749D01*
X147919464Y-140968750D01*
X147939564Y-141185668D01*
X147939564Y-141185670D01*
X147939565Y-141185673D01*
X147978330Y-141321919D01*
X147999184Y-141395212D01*
X148082113Y-141561755D01*
X148096288Y-141590222D01*
X148227573Y-141764072D01*
X148388568Y-141910838D01*
X148388575Y-141910842D01*
X148388576Y-141910843D01*
X148573786Y-142025520D01*
X148573792Y-142025523D01*
X148596664Y-142034383D01*
X148776931Y-142104220D01*
X148991074Y-142144250D01*
X148991076Y-142144250D01*
X149208924Y-142144250D01*
X149208926Y-142144250D01*
X149423069Y-142104220D01*
X149626210Y-142025522D01*
X149811432Y-141910838D01*
X149972427Y-141764072D01*
X150103712Y-141590222D01*
X150200817Y-141395209D01*
X150260435Y-141185673D01*
X150280536Y-140968750D01*
X164588214Y-140968750D01*
X164608314Y-141185668D01*
X164608314Y-141185670D01*
X164608315Y-141185673D01*
X164647080Y-141321919D01*
X164667934Y-141395212D01*
X164750863Y-141561755D01*
X164765038Y-141590222D01*
X164896323Y-141764072D01*
X165057318Y-141910838D01*
X165057325Y-141910842D01*
X165057326Y-141910843D01*
X165242536Y-142025520D01*
X165242542Y-142025523D01*
X165265414Y-142034383D01*
X165445681Y-142104220D01*
X165659824Y-142144250D01*
X165659826Y-142144250D01*
X165877674Y-142144250D01*
X165877676Y-142144250D01*
X166091819Y-142104220D01*
X166294960Y-142025522D01*
X166480182Y-141910838D01*
X166641177Y-141764072D01*
X166772462Y-141590222D01*
X166869567Y-141395209D01*
X166929185Y-141185673D01*
X166949286Y-140968750D01*
X166929185Y-140751827D01*
X166869567Y-140542291D01*
X166772462Y-140347278D01*
X166644296Y-140177558D01*
X166619604Y-140112196D01*
X166619250Y-140102831D01*
X166619250Y-137168750D01*
X168013223Y-137168750D01*
X168033313Y-137500886D01*
X168033313Y-137500891D01*
X168033314Y-137500892D01*
X168093294Y-137828191D01*
X168093295Y-137828195D01*
X168093296Y-137828199D01*
X168192280Y-138145854D01*
X168192284Y-138145866D01*
X168192287Y-138145873D01*
X168328852Y-138449307D01*
X168500996Y-138734068D01*
X168501001Y-138734076D01*
X168706210Y-138996005D01*
X168941494Y-139231289D01*
X169203423Y-139436498D01*
X169203428Y-139436501D01*
X169203432Y-139436504D01*
X169488193Y-139608648D01*
X169791627Y-139745213D01*
X169791640Y-139745217D01*
X169791645Y-139745219D01*
X170003415Y-139811208D01*
X170109309Y-139844206D01*
X170436608Y-139904186D01*
X170685644Y-139919250D01*
X170685657Y-139919250D01*
X170851843Y-139919250D01*
X170851856Y-139919250D01*
X171100892Y-139904186D01*
X171428191Y-139844206D01*
X171745873Y-139745213D01*
X172049307Y-139608648D01*
X172334068Y-139436504D01*
X172596002Y-139231292D01*
X172831292Y-138996002D01*
X173036504Y-138734068D01*
X173208648Y-138449307D01*
X173345213Y-138145873D01*
X173444206Y-137828191D01*
X173504186Y-137500892D01*
X173524277Y-137168750D01*
X173504186Y-136836608D01*
X173444206Y-136509309D01*
X173377930Y-136296620D01*
X175024500Y-136296620D01*
X175024501Y-136296626D01*
X175030908Y-136356233D01*
X175081202Y-136491078D01*
X175081206Y-136491085D01*
X175167452Y-136606294D01*
X175167455Y-136606297D01*
X175282664Y-136692543D01*
X175282671Y-136692547D01*
X175417517Y-136742841D01*
X175417516Y-136742841D01*
X175424444Y-136743585D01*
X175477127Y-136749250D01*
X177172872Y-136749249D01*
X177232483Y-136742841D01*
X177367331Y-136692546D01*
X177482546Y-136606296D01*
X177568796Y-136491081D01*
X177619091Y-136356233D01*
X177625500Y-136296623D01*
X177625499Y-134600878D01*
X177619091Y-134541267D01*
X177601198Y-134493294D01*
X177568797Y-134406421D01*
X177568793Y-134406414D01*
X177482547Y-134291205D01*
X177482544Y-134291202D01*
X177367335Y-134204956D01*
X177367328Y-134204952D01*
X177232482Y-134154658D01*
X177232483Y-134154658D01*
X177172883Y-134148251D01*
X177172881Y-134148250D01*
X177172873Y-134148250D01*
X177172864Y-134148250D01*
X175477129Y-134148250D01*
X175477123Y-134148251D01*
X175417516Y-134154658D01*
X175282671Y-134204952D01*
X175282664Y-134204956D01*
X175167455Y-134291202D01*
X175167452Y-134291205D01*
X175081206Y-134406414D01*
X175081202Y-134406421D01*
X175030908Y-134541267D01*
X175024501Y-134600866D01*
X175024501Y-134600873D01*
X175024500Y-134600885D01*
X175024500Y-136296620D01*
X173377930Y-136296620D01*
X173345213Y-136191627D01*
X173208648Y-135888193D01*
X173036504Y-135603432D01*
X173036501Y-135603428D01*
X173036498Y-135603423D01*
X172831289Y-135341494D01*
X172596005Y-135106210D01*
X172334076Y-134901001D01*
X172334068Y-134900996D01*
X172049307Y-134728852D01*
X171745873Y-134592287D01*
X171745866Y-134592284D01*
X171745854Y-134592280D01*
X171428199Y-134493296D01*
X171428195Y-134493295D01*
X171428191Y-134493294D01*
X171100892Y-134433314D01*
X171100891Y-134433313D01*
X171100886Y-134433313D01*
X170851864Y-134418250D01*
X170851856Y-134418250D01*
X170685644Y-134418250D01*
X170685635Y-134418250D01*
X170436613Y-134433313D01*
X170436608Y-134433314D01*
X170109309Y-134493294D01*
X170109306Y-134493294D01*
X170109300Y-134493296D01*
X169791645Y-134592280D01*
X169791629Y-134592286D01*
X169791627Y-134592287D01*
X169598406Y-134679248D01*
X169488197Y-134728850D01*
X169488195Y-134728851D01*
X169203423Y-134901001D01*
X168941494Y-135106210D01*
X168706210Y-135341494D01*
X168501001Y-135603423D01*
X168328851Y-135888195D01*
X168328850Y-135888197D01*
X168192286Y-136191630D01*
X168192280Y-136191645D01*
X168093296Y-136509300D01*
X168093294Y-136509306D01*
X168093294Y-136509309D01*
X168059714Y-136692547D01*
X168033313Y-136836613D01*
X168013223Y-137168750D01*
X166619250Y-137168750D01*
X166619250Y-132018751D01*
X174438187Y-132018751D01*
X174458400Y-132249794D01*
X174458401Y-132249801D01*
X174518428Y-132473824D01*
X174518429Y-132473826D01*
X174518430Y-132473829D01*
X174616449Y-132684032D01*
X174749480Y-132874019D01*
X174913481Y-133038020D01*
X175103468Y-133171051D01*
X175313671Y-133269070D01*
X175537700Y-133329099D01*
X175702735Y-133343537D01*
X175768748Y-133349313D01*
X175768750Y-133349313D01*
X175768752Y-133349313D01*
X175826512Y-133344259D01*
X175999800Y-133329099D01*
X176223829Y-133269070D01*
X176434032Y-133171051D01*
X176624019Y-133038020D01*
X176788020Y-132874019D01*
X176921051Y-132684032D01*
X177019070Y-132473829D01*
X177079099Y-132249800D01*
X177099313Y-132018750D01*
X177079099Y-131787700D01*
X177019070Y-131563671D01*
X176921051Y-131353469D01*
X176921049Y-131353466D01*
X176921048Y-131353464D01*
X176788023Y-131163485D01*
X176788018Y-131163479D01*
X176624019Y-130999480D01*
X176624013Y-130999476D01*
X176434032Y-130866449D01*
X176223829Y-130768430D01*
X176223826Y-130768429D01*
X176223824Y-130768428D01*
X175999801Y-130708401D01*
X175999794Y-130708400D01*
X175768752Y-130688187D01*
X175768748Y-130688187D01*
X175537705Y-130708400D01*
X175537698Y-130708401D01*
X175313667Y-130768431D01*
X175103468Y-130866449D01*
X175103464Y-130866451D01*
X174913485Y-130999476D01*
X174913479Y-130999481D01*
X174749481Y-131163479D01*
X174749476Y-131163485D01*
X174616451Y-131353464D01*
X174616449Y-131353468D01*
X174518431Y-131563667D01*
X174458401Y-131787698D01*
X174458400Y-131787705D01*
X174438187Y-132018748D01*
X174438187Y-132018751D01*
X166619250Y-132018751D01*
X166619250Y-126400000D01*
X169588214Y-126400000D01*
X169608314Y-126616918D01*
X169667934Y-126826462D01*
X169765038Y-127021472D01*
X169896323Y-127195322D01*
X170057318Y-127342088D01*
X170057320Y-127342089D01*
X170057326Y-127342093D01*
X170242536Y-127456770D01*
X170242542Y-127456773D01*
X170265414Y-127465633D01*
X170445681Y-127535470D01*
X170659824Y-127575500D01*
X170659826Y-127575500D01*
X170877674Y-127575500D01*
X170877676Y-127575500D01*
X171091819Y-127535470D01*
X171294960Y-127456772D01*
X171480182Y-127342088D01*
X171545149Y-127282863D01*
X171607953Y-127252246D01*
X171628687Y-127250500D01*
X175284952Y-127250500D01*
X175351991Y-127270185D01*
X175372628Y-127286814D01*
X175485861Y-127400047D01*
X175672266Y-127530568D01*
X175878504Y-127626739D01*
X176098308Y-127685635D01*
X176260230Y-127699801D01*
X176324998Y-127705468D01*
X176325000Y-127705468D01*
X176325002Y-127705468D01*
X176381673Y-127700509D01*
X176551692Y-127685635D01*
X176771496Y-127626739D01*
X176977734Y-127530568D01*
X177164139Y-127400047D01*
X177325047Y-127239139D01*
X177455568Y-127052734D01*
X177551739Y-126846496D01*
X177610635Y-126626692D01*
X177630468Y-126400000D01*
X177610635Y-126173308D01*
X177551739Y-125953504D01*
X177455568Y-125747266D01*
X177325047Y-125560861D01*
X177325045Y-125560858D01*
X177164141Y-125399954D01*
X176977734Y-125269432D01*
X176977732Y-125269431D01*
X176771497Y-125173261D01*
X176771488Y-125173258D01*
X176551697Y-125114366D01*
X176551693Y-125114365D01*
X176551692Y-125114365D01*
X176551691Y-125114364D01*
X176551686Y-125114364D01*
X176325002Y-125094532D01*
X176324998Y-125094532D01*
X176098313Y-125114364D01*
X176098302Y-125114366D01*
X175878511Y-125173258D01*
X175878502Y-125173261D01*
X175672267Y-125269431D01*
X175672265Y-125269432D01*
X175485862Y-125399951D01*
X175429248Y-125456566D01*
X175372631Y-125513182D01*
X175311311Y-125546666D01*
X175284952Y-125549500D01*
X171628687Y-125549500D01*
X171561648Y-125529815D01*
X171545149Y-125517137D01*
X171480182Y-125457912D01*
X171480180Y-125457910D01*
X171294963Y-125343229D01*
X171294957Y-125343226D01*
X171209863Y-125310260D01*
X171091819Y-125264530D01*
X170877676Y-125224500D01*
X170659824Y-125224500D01*
X170445681Y-125264530D01*
X170433028Y-125269432D01*
X170242542Y-125343226D01*
X170242536Y-125343229D01*
X170057326Y-125457906D01*
X170057316Y-125457913D01*
X169896324Y-125604676D01*
X169765038Y-125778527D01*
X169667934Y-125973537D01*
X169608314Y-126183081D01*
X169588214Y-126399999D01*
X169588214Y-126400000D01*
X166619250Y-126400000D01*
X166619250Y-125165918D01*
X166638935Y-125098879D01*
X166644289Y-125091200D01*
X166772462Y-124921472D01*
X166869567Y-124726459D01*
X166929185Y-124516923D01*
X166949286Y-124300000D01*
X166929185Y-124083077D01*
X166869567Y-123873541D01*
X166772462Y-123678528D01*
X166644296Y-123508808D01*
X166619604Y-123443446D01*
X166619250Y-123434081D01*
X166619250Y-120500000D01*
X168013223Y-120500000D01*
X168033313Y-120832136D01*
X168033313Y-120832141D01*
X168033314Y-120832142D01*
X168093294Y-121159441D01*
X168093295Y-121159445D01*
X168093296Y-121159449D01*
X168192280Y-121477104D01*
X168192284Y-121477116D01*
X168192287Y-121477123D01*
X168328852Y-121780557D01*
X168500996Y-122065318D01*
X168501001Y-122065326D01*
X168706210Y-122327255D01*
X168941494Y-122562539D01*
X169203423Y-122767748D01*
X169203428Y-122767751D01*
X169203432Y-122767754D01*
X169488193Y-122939898D01*
X169791627Y-123076463D01*
X169791640Y-123076467D01*
X169791645Y-123076469D01*
X170003415Y-123142458D01*
X170109309Y-123175456D01*
X170436608Y-123235436D01*
X170685644Y-123250500D01*
X170685657Y-123250500D01*
X170851843Y-123250500D01*
X170851856Y-123250500D01*
X171100892Y-123235436D01*
X171428191Y-123175456D01*
X171745873Y-123076463D01*
X172049307Y-122939898D01*
X172334068Y-122767754D01*
X172596002Y-122562542D01*
X172831292Y-122327252D01*
X173036504Y-122065318D01*
X173208648Y-121780557D01*
X173345213Y-121477123D01*
X173444206Y-121159441D01*
X173504186Y-120832142D01*
X173524277Y-120500000D01*
X173504186Y-120167858D01*
X173444206Y-119840559D01*
X173377930Y-119627870D01*
X175024500Y-119627870D01*
X175024501Y-119627876D01*
X175030908Y-119687483D01*
X175081202Y-119822328D01*
X175081206Y-119822335D01*
X175167452Y-119937544D01*
X175167455Y-119937547D01*
X175282664Y-120023793D01*
X175282671Y-120023797D01*
X175417517Y-120074091D01*
X175417516Y-120074091D01*
X175424444Y-120074835D01*
X175477127Y-120080500D01*
X177172872Y-120080499D01*
X177232483Y-120074091D01*
X177367331Y-120023796D01*
X177482546Y-119937546D01*
X177568796Y-119822331D01*
X177619091Y-119687483D01*
X177625500Y-119627873D01*
X177625499Y-117932128D01*
X177619091Y-117872517D01*
X177601198Y-117824544D01*
X177568797Y-117737671D01*
X177568793Y-117737664D01*
X177482547Y-117622455D01*
X177482544Y-117622452D01*
X177367335Y-117536206D01*
X177367328Y-117536202D01*
X177232482Y-117485908D01*
X177232483Y-117485908D01*
X177172883Y-117479501D01*
X177172881Y-117479500D01*
X177172873Y-117479500D01*
X177172864Y-117479500D01*
X175477129Y-117479500D01*
X175477123Y-117479501D01*
X175417516Y-117485908D01*
X175282671Y-117536202D01*
X175282664Y-117536206D01*
X175167455Y-117622452D01*
X175167452Y-117622455D01*
X175081206Y-117737664D01*
X175081202Y-117737671D01*
X175030908Y-117872517D01*
X175024501Y-117932116D01*
X175024501Y-117932123D01*
X175024500Y-117932135D01*
X175024500Y-119627870D01*
X173377930Y-119627870D01*
X173345213Y-119522877D01*
X173208648Y-119219443D01*
X173036504Y-118934682D01*
X173036501Y-118934678D01*
X173036498Y-118934673D01*
X172831289Y-118672744D01*
X172596005Y-118437460D01*
X172334076Y-118232251D01*
X172334068Y-118232246D01*
X172049307Y-118060102D01*
X171745873Y-117923537D01*
X171745866Y-117923534D01*
X171745854Y-117923530D01*
X171428199Y-117824546D01*
X171428195Y-117824545D01*
X171428191Y-117824544D01*
X171100892Y-117764564D01*
X171100891Y-117764563D01*
X171100886Y-117764563D01*
X170851864Y-117749500D01*
X170851856Y-117749500D01*
X170685644Y-117749500D01*
X170685635Y-117749500D01*
X170436613Y-117764563D01*
X170436608Y-117764564D01*
X170109309Y-117824544D01*
X170109306Y-117824544D01*
X170109300Y-117824546D01*
X169791645Y-117923530D01*
X169791629Y-117923536D01*
X169791627Y-117923537D01*
X169598406Y-118010498D01*
X169488197Y-118060100D01*
X169488195Y-118060101D01*
X169203423Y-118232251D01*
X168941494Y-118437460D01*
X168706210Y-118672744D01*
X168501001Y-118934673D01*
X168328851Y-119219445D01*
X168328850Y-119219447D01*
X168192286Y-119522880D01*
X168192280Y-119522895D01*
X168093296Y-119840550D01*
X168093294Y-119840556D01*
X168093294Y-119840559D01*
X168059714Y-120023797D01*
X168033313Y-120167863D01*
X168013223Y-120500000D01*
X166619250Y-120500000D01*
X166619250Y-115350001D01*
X174438187Y-115350001D01*
X174458400Y-115581044D01*
X174458401Y-115581051D01*
X174518428Y-115805074D01*
X174518429Y-115805076D01*
X174518430Y-115805079D01*
X174616449Y-116015282D01*
X174749480Y-116205269D01*
X174913481Y-116369270D01*
X175103468Y-116502301D01*
X175313671Y-116600320D01*
X175537700Y-116660349D01*
X175702735Y-116674787D01*
X175768748Y-116680563D01*
X175768750Y-116680563D01*
X175768752Y-116680563D01*
X175826512Y-116675509D01*
X175999800Y-116660349D01*
X176223829Y-116600320D01*
X176434032Y-116502301D01*
X176624019Y-116369270D01*
X176788020Y-116205269D01*
X176921051Y-116015282D01*
X177019070Y-115805079D01*
X177079099Y-115581050D01*
X177099313Y-115350000D01*
X177079099Y-115118950D01*
X177019070Y-114894921D01*
X176921051Y-114684719D01*
X176921049Y-114684716D01*
X176921048Y-114684714D01*
X176788023Y-114494735D01*
X176788018Y-114494729D01*
X176624019Y-114330730D01*
X176624013Y-114330726D01*
X176434032Y-114197699D01*
X176223829Y-114099680D01*
X176223826Y-114099679D01*
X176223824Y-114099678D01*
X175999801Y-114039651D01*
X175999794Y-114039650D01*
X175768752Y-114019437D01*
X175768748Y-114019437D01*
X175537705Y-114039650D01*
X175537698Y-114039651D01*
X175313667Y-114099681D01*
X175103468Y-114197699D01*
X175103464Y-114197701D01*
X174913485Y-114330726D01*
X174913479Y-114330731D01*
X174749481Y-114494729D01*
X174749476Y-114494735D01*
X174616451Y-114684714D01*
X174616449Y-114684718D01*
X174518431Y-114894917D01*
X174458401Y-115118948D01*
X174458400Y-115118955D01*
X174438187Y-115349998D01*
X174438187Y-115350001D01*
X166619250Y-115350001D01*
X166619250Y-109731250D01*
X169588214Y-109731250D01*
X169608314Y-109948168D01*
X169667934Y-110157712D01*
X169765038Y-110352722D01*
X169896323Y-110526572D01*
X170057318Y-110673338D01*
X170057320Y-110673339D01*
X170057326Y-110673343D01*
X170242536Y-110788020D01*
X170242542Y-110788023D01*
X170265414Y-110796883D01*
X170445681Y-110866720D01*
X170659824Y-110906750D01*
X170659826Y-110906750D01*
X170877674Y-110906750D01*
X170877676Y-110906750D01*
X171091819Y-110866720D01*
X171294960Y-110788022D01*
X171480182Y-110673338D01*
X171545149Y-110614113D01*
X171607953Y-110583496D01*
X171628687Y-110581750D01*
X175284952Y-110581750D01*
X175351991Y-110601435D01*
X175372628Y-110618064D01*
X175485861Y-110731297D01*
X175672266Y-110861818D01*
X175878504Y-110957989D01*
X176098308Y-111016885D01*
X176260230Y-111031051D01*
X176324998Y-111036718D01*
X176325000Y-111036718D01*
X176325002Y-111036718D01*
X176381673Y-111031759D01*
X176551692Y-111016885D01*
X176771496Y-110957989D01*
X176977734Y-110861818D01*
X177164139Y-110731297D01*
X177325047Y-110570389D01*
X177455568Y-110383984D01*
X177551739Y-110177746D01*
X177610635Y-109957942D01*
X177630468Y-109731250D01*
X177610635Y-109504558D01*
X177551739Y-109284754D01*
X177455568Y-109078516D01*
X177325047Y-108892111D01*
X177325045Y-108892108D01*
X177164141Y-108731204D01*
X176977734Y-108600682D01*
X176977732Y-108600681D01*
X176771497Y-108504511D01*
X176771488Y-108504508D01*
X176551697Y-108445616D01*
X176551693Y-108445615D01*
X176551692Y-108445615D01*
X176551691Y-108445614D01*
X176551686Y-108445614D01*
X176325002Y-108425782D01*
X176324998Y-108425782D01*
X176098313Y-108445614D01*
X176098302Y-108445616D01*
X175878511Y-108504508D01*
X175878502Y-108504511D01*
X175672267Y-108600681D01*
X175672265Y-108600682D01*
X175485862Y-108731201D01*
X175429248Y-108787816D01*
X175372631Y-108844432D01*
X175311311Y-108877916D01*
X175284952Y-108880750D01*
X171628687Y-108880750D01*
X171561648Y-108861065D01*
X171545149Y-108848387D01*
X171480182Y-108789162D01*
X171480180Y-108789160D01*
X171294963Y-108674479D01*
X171294957Y-108674476D01*
X171209863Y-108641510D01*
X171091819Y-108595780D01*
X170877676Y-108555750D01*
X170659824Y-108555750D01*
X170445681Y-108595780D01*
X170433028Y-108600682D01*
X170242542Y-108674476D01*
X170242536Y-108674479D01*
X170057326Y-108789156D01*
X170057316Y-108789163D01*
X169896324Y-108935926D01*
X169765038Y-109109777D01*
X169667934Y-109304787D01*
X169608314Y-109514331D01*
X169588214Y-109731249D01*
X169588214Y-109731250D01*
X166619250Y-109731250D01*
X166619250Y-108497168D01*
X166638935Y-108430129D01*
X166644289Y-108422450D01*
X166772462Y-108252722D01*
X166869567Y-108057709D01*
X166929185Y-107848173D01*
X166949286Y-107631250D01*
X166929185Y-107414327D01*
X166869567Y-107204791D01*
X166772462Y-107009778D01*
X166644296Y-106840058D01*
X166619604Y-106774696D01*
X166619250Y-106765331D01*
X166619250Y-103831250D01*
X168013223Y-103831250D01*
X168033313Y-104163386D01*
X168033313Y-104163391D01*
X168033314Y-104163392D01*
X168093294Y-104490691D01*
X168093295Y-104490695D01*
X168093296Y-104490699D01*
X168192280Y-104808354D01*
X168192284Y-104808366D01*
X168192287Y-104808373D01*
X168328852Y-105111807D01*
X168500996Y-105396568D01*
X168501001Y-105396576D01*
X168706210Y-105658505D01*
X168941494Y-105893789D01*
X169203423Y-106098998D01*
X169203428Y-106099001D01*
X169203432Y-106099004D01*
X169488193Y-106271148D01*
X169791627Y-106407713D01*
X169791640Y-106407717D01*
X169791645Y-106407719D01*
X170003415Y-106473708D01*
X170109309Y-106506706D01*
X170436608Y-106566686D01*
X170685644Y-106581750D01*
X170685657Y-106581750D01*
X170851843Y-106581750D01*
X170851856Y-106581750D01*
X171100892Y-106566686D01*
X171428191Y-106506706D01*
X171745873Y-106407713D01*
X172049307Y-106271148D01*
X172334068Y-106099004D01*
X172596002Y-105893792D01*
X172831292Y-105658502D01*
X173036504Y-105396568D01*
X173208648Y-105111807D01*
X173345213Y-104808373D01*
X173444206Y-104490691D01*
X173504186Y-104163392D01*
X173524277Y-103831250D01*
X173504186Y-103499108D01*
X173444206Y-103171809D01*
X173377930Y-102959120D01*
X175024500Y-102959120D01*
X175024501Y-102959126D01*
X175030908Y-103018733D01*
X175081202Y-103153578D01*
X175081206Y-103153585D01*
X175167452Y-103268794D01*
X175167455Y-103268797D01*
X175282664Y-103355043D01*
X175282671Y-103355047D01*
X175417517Y-103405341D01*
X175417516Y-103405341D01*
X175424444Y-103406085D01*
X175477127Y-103411750D01*
X177172872Y-103411749D01*
X177232483Y-103405341D01*
X177367331Y-103355046D01*
X177482546Y-103268796D01*
X177568796Y-103153581D01*
X177619091Y-103018733D01*
X177625500Y-102959123D01*
X177625499Y-101263378D01*
X177619091Y-101203767D01*
X177601198Y-101155794D01*
X177568797Y-101068921D01*
X177568793Y-101068914D01*
X177482547Y-100953705D01*
X177482544Y-100953702D01*
X177367335Y-100867456D01*
X177367328Y-100867452D01*
X177232482Y-100817158D01*
X177232483Y-100817158D01*
X177172883Y-100810751D01*
X177172881Y-100810750D01*
X177172873Y-100810750D01*
X177172864Y-100810750D01*
X175477129Y-100810750D01*
X175477123Y-100810751D01*
X175417516Y-100817158D01*
X175282671Y-100867452D01*
X175282664Y-100867456D01*
X175167455Y-100953702D01*
X175167452Y-100953705D01*
X175081206Y-101068914D01*
X175081202Y-101068921D01*
X175030908Y-101203767D01*
X175024501Y-101263366D01*
X175024501Y-101263373D01*
X175024500Y-101263385D01*
X175024500Y-102959120D01*
X173377930Y-102959120D01*
X173345213Y-102854127D01*
X173208648Y-102550693D01*
X173036504Y-102265932D01*
X173036501Y-102265928D01*
X173036498Y-102265923D01*
X172831289Y-102003994D01*
X172596005Y-101768710D01*
X172334076Y-101563501D01*
X172334068Y-101563496D01*
X172049307Y-101391352D01*
X171745873Y-101254787D01*
X171745866Y-101254784D01*
X171745854Y-101254780D01*
X171428199Y-101155796D01*
X171428195Y-101155795D01*
X171428191Y-101155794D01*
X171100892Y-101095814D01*
X171100891Y-101095813D01*
X171100886Y-101095813D01*
X170851864Y-101080750D01*
X170851856Y-101080750D01*
X170685644Y-101080750D01*
X170685635Y-101080750D01*
X170436613Y-101095813D01*
X170436608Y-101095814D01*
X170109309Y-101155794D01*
X170109306Y-101155794D01*
X170109300Y-101155796D01*
X169791645Y-101254780D01*
X169791629Y-101254786D01*
X169791627Y-101254787D01*
X169598406Y-101341748D01*
X169488197Y-101391350D01*
X169488195Y-101391351D01*
X169203423Y-101563501D01*
X168941494Y-101768710D01*
X168706210Y-102003994D01*
X168501001Y-102265923D01*
X168328851Y-102550695D01*
X168328850Y-102550697D01*
X168192286Y-102854130D01*
X168192280Y-102854145D01*
X168093296Y-103171800D01*
X168093294Y-103171806D01*
X168093294Y-103171809D01*
X168059714Y-103355047D01*
X168033313Y-103499113D01*
X168013223Y-103831250D01*
X166619250Y-103831250D01*
X166619250Y-98681251D01*
X174438187Y-98681251D01*
X174458400Y-98912294D01*
X174458401Y-98912301D01*
X174518428Y-99136324D01*
X174518429Y-99136326D01*
X174518430Y-99136329D01*
X174616449Y-99346532D01*
X174749480Y-99536519D01*
X174913481Y-99700520D01*
X175103468Y-99833551D01*
X175313671Y-99931570D01*
X175537700Y-99991599D01*
X175702735Y-100006037D01*
X175768748Y-100011813D01*
X175768750Y-100011813D01*
X175768752Y-100011813D01*
X175826512Y-100006759D01*
X175999800Y-99991599D01*
X176223829Y-99931570D01*
X176434032Y-99833551D01*
X176624019Y-99700520D01*
X176788020Y-99536519D01*
X176921051Y-99346532D01*
X177019070Y-99136329D01*
X177079099Y-98912300D01*
X177099313Y-98681250D01*
X177079099Y-98450200D01*
X177019070Y-98226171D01*
X176921051Y-98015969D01*
X176921049Y-98015966D01*
X176921048Y-98015964D01*
X176788023Y-97825985D01*
X176788018Y-97825979D01*
X176624019Y-97661980D01*
X176624013Y-97661976D01*
X176434032Y-97528949D01*
X176223829Y-97430930D01*
X176223826Y-97430929D01*
X176223824Y-97430928D01*
X175999801Y-97370901D01*
X175999794Y-97370900D01*
X175768752Y-97350687D01*
X175768748Y-97350687D01*
X175537705Y-97370900D01*
X175537698Y-97370901D01*
X175313667Y-97430931D01*
X175103468Y-97528949D01*
X175103464Y-97528951D01*
X174913485Y-97661976D01*
X174913479Y-97661981D01*
X174749481Y-97825979D01*
X174749476Y-97825985D01*
X174616451Y-98015964D01*
X174616449Y-98015968D01*
X174518431Y-98226167D01*
X174458401Y-98450198D01*
X174458400Y-98450205D01*
X174438187Y-98681248D01*
X174438187Y-98681251D01*
X166619250Y-98681251D01*
X166619250Y-93062500D01*
X169588214Y-93062500D01*
X169608314Y-93279418D01*
X169667934Y-93488962D01*
X169765038Y-93683972D01*
X169896323Y-93857822D01*
X170057318Y-94004588D01*
X170057320Y-94004589D01*
X170057326Y-94004593D01*
X170242536Y-94119270D01*
X170242542Y-94119273D01*
X170265414Y-94128133D01*
X170445681Y-94197970D01*
X170659824Y-94238000D01*
X170659826Y-94238000D01*
X170877674Y-94238000D01*
X170877676Y-94238000D01*
X171091819Y-94197970D01*
X171294960Y-94119272D01*
X171480182Y-94004588D01*
X171545149Y-93945363D01*
X171607953Y-93914746D01*
X171628687Y-93913000D01*
X175284952Y-93913000D01*
X175351991Y-93932685D01*
X175372628Y-93949314D01*
X175485861Y-94062547D01*
X175672266Y-94193068D01*
X175878504Y-94289239D01*
X176098308Y-94348135D01*
X176260230Y-94362301D01*
X176324998Y-94367968D01*
X176325000Y-94367968D01*
X176325002Y-94367968D01*
X176381673Y-94363009D01*
X176551692Y-94348135D01*
X176771496Y-94289239D01*
X176977734Y-94193068D01*
X177164139Y-94062547D01*
X177325047Y-93901639D01*
X177455568Y-93715234D01*
X177551739Y-93508996D01*
X177610635Y-93289192D01*
X177630468Y-93062500D01*
X177610635Y-92835808D01*
X177551739Y-92616004D01*
X177455568Y-92409766D01*
X177325047Y-92223361D01*
X177325045Y-92223358D01*
X177164141Y-92062454D01*
X176977734Y-91931932D01*
X176977732Y-91931931D01*
X176771497Y-91835761D01*
X176771488Y-91835758D01*
X176551697Y-91776866D01*
X176551693Y-91776865D01*
X176551692Y-91776865D01*
X176551691Y-91776864D01*
X176551686Y-91776864D01*
X176325002Y-91757032D01*
X176324998Y-91757032D01*
X176098313Y-91776864D01*
X176098302Y-91776866D01*
X175878511Y-91835758D01*
X175878502Y-91835761D01*
X175672267Y-91931931D01*
X175672265Y-91931932D01*
X175485862Y-92062451D01*
X175429248Y-92119066D01*
X175372631Y-92175682D01*
X175311311Y-92209166D01*
X175284952Y-92212000D01*
X171628687Y-92212000D01*
X171561648Y-92192315D01*
X171545149Y-92179637D01*
X171480182Y-92120412D01*
X171480180Y-92120410D01*
X171294963Y-92005729D01*
X171294957Y-92005726D01*
X171209863Y-91972760D01*
X171091819Y-91927030D01*
X170877676Y-91887000D01*
X170659824Y-91887000D01*
X170445681Y-91927030D01*
X170433028Y-91931932D01*
X170242542Y-92005726D01*
X170242536Y-92005729D01*
X170057326Y-92120406D01*
X170057316Y-92120413D01*
X169896324Y-92267176D01*
X169765038Y-92441027D01*
X169667934Y-92636037D01*
X169608314Y-92845581D01*
X169588214Y-93062499D01*
X169588214Y-93062500D01*
X166619250Y-93062500D01*
X166619250Y-91828418D01*
X166638935Y-91761379D01*
X166644289Y-91753700D01*
X166772462Y-91583972D01*
X166869567Y-91388959D01*
X166929185Y-91179423D01*
X166949286Y-90962500D01*
X166929185Y-90745577D01*
X166869567Y-90536041D01*
X166772462Y-90341028D01*
X166644296Y-90171308D01*
X166619604Y-90105946D01*
X166619250Y-90096581D01*
X166619250Y-87162500D01*
X168013223Y-87162500D01*
X168033313Y-87494636D01*
X168033313Y-87494641D01*
X168033314Y-87494642D01*
X168093294Y-87821941D01*
X168093295Y-87821945D01*
X168093296Y-87821949D01*
X168192280Y-88139604D01*
X168192284Y-88139616D01*
X168192287Y-88139623D01*
X168328852Y-88443057D01*
X168500996Y-88727818D01*
X168501001Y-88727826D01*
X168706210Y-88989755D01*
X168941494Y-89225039D01*
X169203423Y-89430248D01*
X169203428Y-89430251D01*
X169203432Y-89430254D01*
X169488193Y-89602398D01*
X169791627Y-89738963D01*
X169791640Y-89738967D01*
X169791645Y-89738969D01*
X170003415Y-89804958D01*
X170109309Y-89837956D01*
X170436608Y-89897936D01*
X170685644Y-89913000D01*
X170685657Y-89913000D01*
X170851843Y-89913000D01*
X170851856Y-89913000D01*
X171100892Y-89897936D01*
X171428191Y-89837956D01*
X171745873Y-89738963D01*
X172049307Y-89602398D01*
X172334068Y-89430254D01*
X172596002Y-89225042D01*
X172831292Y-88989752D01*
X173036504Y-88727818D01*
X173208648Y-88443057D01*
X173345213Y-88139623D01*
X173444206Y-87821941D01*
X173504186Y-87494642D01*
X173524277Y-87162500D01*
X173504186Y-86830358D01*
X173444206Y-86503059D01*
X173377930Y-86290370D01*
X175024500Y-86290370D01*
X175024501Y-86290376D01*
X175030908Y-86349983D01*
X175081202Y-86484828D01*
X175081206Y-86484835D01*
X175167452Y-86600044D01*
X175167455Y-86600047D01*
X175282664Y-86686293D01*
X175282671Y-86686297D01*
X175417517Y-86736591D01*
X175417516Y-86736591D01*
X175424444Y-86737335D01*
X175477127Y-86743000D01*
X177172872Y-86742999D01*
X177232483Y-86736591D01*
X177367331Y-86686296D01*
X177482546Y-86600046D01*
X177568796Y-86484831D01*
X177619091Y-86349983D01*
X177625500Y-86290373D01*
X177625499Y-84594628D01*
X177619091Y-84535017D01*
X177601198Y-84487044D01*
X177568797Y-84400171D01*
X177568793Y-84400164D01*
X177482547Y-84284955D01*
X177482544Y-84284952D01*
X177367335Y-84198706D01*
X177367328Y-84198702D01*
X177232482Y-84148408D01*
X177232483Y-84148408D01*
X177172883Y-84142001D01*
X177172881Y-84142000D01*
X177172873Y-84142000D01*
X177172864Y-84142000D01*
X175477129Y-84142000D01*
X175477123Y-84142001D01*
X175417516Y-84148408D01*
X175282671Y-84198702D01*
X175282664Y-84198706D01*
X175167455Y-84284952D01*
X175167452Y-84284955D01*
X175081206Y-84400164D01*
X175081202Y-84400171D01*
X175030908Y-84535017D01*
X175024501Y-84594616D01*
X175024501Y-84594623D01*
X175024500Y-84594635D01*
X175024500Y-86290370D01*
X173377930Y-86290370D01*
X173345213Y-86185377D01*
X173208648Y-85881943D01*
X173036504Y-85597182D01*
X173036501Y-85597178D01*
X173036498Y-85597173D01*
X172831289Y-85335244D01*
X172596005Y-85099960D01*
X172334076Y-84894751D01*
X172334068Y-84894746D01*
X172049307Y-84722602D01*
X171745873Y-84586037D01*
X171745866Y-84586034D01*
X171745854Y-84586030D01*
X171428199Y-84487046D01*
X171428195Y-84487045D01*
X171428191Y-84487044D01*
X171100892Y-84427064D01*
X171100891Y-84427063D01*
X171100886Y-84427063D01*
X170851864Y-84412000D01*
X170851856Y-84412000D01*
X170685644Y-84412000D01*
X170685635Y-84412000D01*
X170436613Y-84427063D01*
X170436608Y-84427064D01*
X170109309Y-84487044D01*
X170109306Y-84487044D01*
X170109300Y-84487046D01*
X169791645Y-84586030D01*
X169791629Y-84586036D01*
X169791627Y-84586037D01*
X169598406Y-84672998D01*
X169488197Y-84722600D01*
X169488195Y-84722601D01*
X169203423Y-84894751D01*
X168941494Y-85099960D01*
X168706210Y-85335244D01*
X168501001Y-85597173D01*
X168328851Y-85881945D01*
X168328850Y-85881947D01*
X168192286Y-86185380D01*
X168192280Y-86185395D01*
X168093296Y-86503050D01*
X168093294Y-86503056D01*
X168093294Y-86503059D01*
X168059714Y-86686297D01*
X168033313Y-86830363D01*
X168013223Y-87162500D01*
X166619250Y-87162500D01*
X166619250Y-82012501D01*
X174438187Y-82012501D01*
X174458400Y-82243544D01*
X174458401Y-82243551D01*
X174518428Y-82467574D01*
X174518429Y-82467576D01*
X174518430Y-82467579D01*
X174616449Y-82677782D01*
X174749480Y-82867769D01*
X174913481Y-83031770D01*
X175103468Y-83164801D01*
X175313671Y-83262820D01*
X175537700Y-83322849D01*
X175702735Y-83337287D01*
X175768748Y-83343063D01*
X175768750Y-83343063D01*
X175768752Y-83343063D01*
X175826512Y-83338009D01*
X175999800Y-83322849D01*
X176223829Y-83262820D01*
X176434032Y-83164801D01*
X176624019Y-83031770D01*
X176788020Y-82867769D01*
X176921051Y-82677782D01*
X177019070Y-82467579D01*
X177079099Y-82243550D01*
X177099313Y-82012500D01*
X177079099Y-81781450D01*
X177019070Y-81557421D01*
X176921051Y-81347219D01*
X176921049Y-81347216D01*
X176921048Y-81347214D01*
X176788023Y-81157235D01*
X176788018Y-81157229D01*
X176624019Y-80993230D01*
X176624013Y-80993226D01*
X176434032Y-80860199D01*
X176223829Y-80762180D01*
X176223826Y-80762179D01*
X176223824Y-80762178D01*
X175999801Y-80702151D01*
X175999794Y-80702150D01*
X175768752Y-80681937D01*
X175768748Y-80681937D01*
X175537705Y-80702150D01*
X175537698Y-80702151D01*
X175313667Y-80762181D01*
X175103468Y-80860199D01*
X175103464Y-80860201D01*
X174913485Y-80993226D01*
X174913479Y-80993231D01*
X174749481Y-81157229D01*
X174749476Y-81157235D01*
X174616451Y-81347214D01*
X174616449Y-81347218D01*
X174518431Y-81557417D01*
X174458401Y-81781448D01*
X174458400Y-81781455D01*
X174438187Y-82012498D01*
X174438187Y-82012501D01*
X166619250Y-82012501D01*
X166619250Y-71437500D01*
X175207159Y-71437500D01*
X175226475Y-71633629D01*
X175283687Y-71822230D01*
X175308399Y-71868463D01*
X175347358Y-71941350D01*
X175362000Y-71999801D01*
X175362000Y-74572892D01*
X175361591Y-74582956D01*
X175357298Y-74635664D01*
X175368002Y-74714232D01*
X175368410Y-74717562D01*
X175376986Y-74796412D01*
X175377210Y-74797430D01*
X175382025Y-74817973D01*
X175382274Y-74818971D01*
X175409613Y-74893391D01*
X175410727Y-74896553D01*
X175426080Y-74942114D01*
X175436056Y-74971721D01*
X175436057Y-74971723D01*
X175436058Y-74971725D01*
X175436501Y-74972685D01*
X175445646Y-74991766D01*
X175446064Y-74992609D01*
X175488767Y-75059418D01*
X175490536Y-75062271D01*
X175531427Y-75130233D01*
X175532038Y-75131036D01*
X175545078Y-75147716D01*
X175545697Y-75148486D01*
X175545699Y-75148488D01*
X175545700Y-75148489D01*
X175601803Y-75204592D01*
X175604109Y-75206962D01*
X175658651Y-75264541D01*
X175658655Y-75264543D01*
X175659483Y-75265247D01*
X175676619Y-75279408D01*
X181550681Y-81153470D01*
X181584166Y-81214793D01*
X181587000Y-81241151D01*
X181587000Y-90096581D01*
X181567315Y-90163620D01*
X181561954Y-90171308D01*
X181433788Y-90341027D01*
X181336684Y-90536037D01*
X181277064Y-90745581D01*
X181256964Y-90962499D01*
X181256964Y-90962500D01*
X181277064Y-91179418D01*
X181277064Y-91179420D01*
X181277065Y-91179423D01*
X181336683Y-91388959D01*
X181433788Y-91583972D01*
X181561954Y-91753692D01*
X181586646Y-91819052D01*
X181587000Y-91828418D01*
X181587000Y-106765331D01*
X181567315Y-106832370D01*
X181561954Y-106840058D01*
X181433788Y-107009777D01*
X181336684Y-107204787D01*
X181277064Y-107414331D01*
X181256964Y-107631249D01*
X181256964Y-107631250D01*
X181277064Y-107848168D01*
X181277064Y-107848170D01*
X181277065Y-107848173D01*
X181336683Y-108057709D01*
X181433788Y-108252722D01*
X181561954Y-108422442D01*
X181586646Y-108487802D01*
X181587000Y-108497168D01*
X181587000Y-123434081D01*
X181567315Y-123501120D01*
X181561954Y-123508808D01*
X181433788Y-123678527D01*
X181336684Y-123873537D01*
X181277064Y-124083081D01*
X181256964Y-124299999D01*
X181256964Y-124300000D01*
X181277064Y-124516918D01*
X181277064Y-124516920D01*
X181277065Y-124516923D01*
X181336683Y-124726459D01*
X181433788Y-124921472D01*
X181561954Y-125091192D01*
X181586646Y-125156552D01*
X181587000Y-125165918D01*
X181587000Y-140102831D01*
X181567315Y-140169870D01*
X181561954Y-140177558D01*
X181433788Y-140347277D01*
X181336684Y-140542287D01*
X181277064Y-140751831D01*
X181256964Y-140968749D01*
X181256964Y-140968750D01*
X181277064Y-141185668D01*
X181277064Y-141185670D01*
X181277065Y-141185673D01*
X181315830Y-141321919D01*
X181336684Y-141395212D01*
X181419613Y-141561755D01*
X181433788Y-141590222D01*
X181565073Y-141764072D01*
X181726068Y-141910838D01*
X181726075Y-141910842D01*
X181726076Y-141910843D01*
X181911286Y-142025520D01*
X181911292Y-142025523D01*
X181934164Y-142034383D01*
X182114431Y-142104220D01*
X182328574Y-142144250D01*
X182328576Y-142144250D01*
X182546424Y-142144250D01*
X182546426Y-142144250D01*
X182760569Y-142104220D01*
X182963710Y-142025522D01*
X183148932Y-141910838D01*
X183309927Y-141764072D01*
X183441212Y-141590222D01*
X183538317Y-141395209D01*
X183597935Y-141185673D01*
X183618036Y-140968750D01*
X183597935Y-140751827D01*
X183538317Y-140542291D01*
X183441212Y-140347278D01*
X183313046Y-140177558D01*
X183288354Y-140112196D01*
X183288000Y-140102831D01*
X183288000Y-137168750D01*
X184681973Y-137168750D01*
X184702063Y-137500886D01*
X184702063Y-137500891D01*
X184702064Y-137500892D01*
X184762044Y-137828191D01*
X184762045Y-137828195D01*
X184762046Y-137828199D01*
X184861030Y-138145854D01*
X184861034Y-138145866D01*
X184861037Y-138145873D01*
X184997602Y-138449307D01*
X185169746Y-138734068D01*
X185169751Y-138734076D01*
X185374960Y-138996005D01*
X185610244Y-139231289D01*
X185872173Y-139436498D01*
X185872178Y-139436501D01*
X185872182Y-139436504D01*
X186156943Y-139608648D01*
X186460377Y-139745213D01*
X186460390Y-139745217D01*
X186460395Y-139745219D01*
X186672165Y-139811208D01*
X186778059Y-139844206D01*
X187105358Y-139904186D01*
X187354394Y-139919250D01*
X187354407Y-139919250D01*
X187520593Y-139919250D01*
X187520606Y-139919250D01*
X187769642Y-139904186D01*
X188096941Y-139844206D01*
X188414623Y-139745213D01*
X188718057Y-139608648D01*
X189002818Y-139436504D01*
X189264752Y-139231292D01*
X189500042Y-138996002D01*
X189705254Y-138734068D01*
X189877398Y-138449307D01*
X190013963Y-138145873D01*
X190112956Y-137828191D01*
X190172936Y-137500892D01*
X190193027Y-137168750D01*
X190172936Y-136836608D01*
X190112956Y-136509309D01*
X190046680Y-136296620D01*
X191693250Y-136296620D01*
X191693251Y-136296626D01*
X191699658Y-136356233D01*
X191749952Y-136491078D01*
X191749956Y-136491085D01*
X191836202Y-136606294D01*
X191836205Y-136606297D01*
X191951414Y-136692543D01*
X191951421Y-136692547D01*
X192086267Y-136742841D01*
X192086266Y-136742841D01*
X192093194Y-136743585D01*
X192145877Y-136749250D01*
X193841622Y-136749249D01*
X193901233Y-136742841D01*
X194036081Y-136692546D01*
X194151296Y-136606296D01*
X194237546Y-136491081D01*
X194287841Y-136356233D01*
X194294250Y-136296623D01*
X194294249Y-134600878D01*
X194287841Y-134541267D01*
X194269948Y-134493294D01*
X194237547Y-134406421D01*
X194237543Y-134406414D01*
X194151297Y-134291205D01*
X194151294Y-134291202D01*
X194036085Y-134204956D01*
X194036078Y-134204952D01*
X193901232Y-134154658D01*
X193901233Y-134154658D01*
X193841633Y-134148251D01*
X193841631Y-134148250D01*
X193841623Y-134148250D01*
X193841614Y-134148250D01*
X192145879Y-134148250D01*
X192145873Y-134148251D01*
X192086266Y-134154658D01*
X191951421Y-134204952D01*
X191951414Y-134204956D01*
X191836205Y-134291202D01*
X191836202Y-134291205D01*
X191749956Y-134406414D01*
X191749952Y-134406421D01*
X191699658Y-134541267D01*
X191693251Y-134600866D01*
X191693251Y-134600873D01*
X191693250Y-134600885D01*
X191693250Y-136296620D01*
X190046680Y-136296620D01*
X190013963Y-136191627D01*
X189877398Y-135888193D01*
X189705254Y-135603432D01*
X189705251Y-135603428D01*
X189705248Y-135603423D01*
X189500039Y-135341494D01*
X189264755Y-135106210D01*
X189002826Y-134901001D01*
X189002818Y-134900996D01*
X188718057Y-134728852D01*
X188414623Y-134592287D01*
X188414616Y-134592284D01*
X188414604Y-134592280D01*
X188096949Y-134493296D01*
X188096945Y-134493295D01*
X188096941Y-134493294D01*
X187769642Y-134433314D01*
X187769641Y-134433313D01*
X187769636Y-134433313D01*
X187520614Y-134418250D01*
X187520606Y-134418250D01*
X187354394Y-134418250D01*
X187354385Y-134418250D01*
X187105363Y-134433313D01*
X187105358Y-134433314D01*
X186778059Y-134493294D01*
X186778056Y-134493294D01*
X186778050Y-134493296D01*
X186460395Y-134592280D01*
X186460379Y-134592286D01*
X186460377Y-134592287D01*
X186267156Y-134679248D01*
X186156947Y-134728850D01*
X186156945Y-134728851D01*
X185872173Y-134901001D01*
X185610244Y-135106210D01*
X185374960Y-135341494D01*
X185169751Y-135603423D01*
X184997601Y-135888195D01*
X184997600Y-135888197D01*
X184861036Y-136191630D01*
X184861030Y-136191645D01*
X184762046Y-136509300D01*
X184762044Y-136509306D01*
X184762044Y-136509309D01*
X184728464Y-136692547D01*
X184702063Y-136836613D01*
X184681973Y-137168750D01*
X183288000Y-137168750D01*
X183288000Y-132018751D01*
X191106937Y-132018751D01*
X191127150Y-132249794D01*
X191127151Y-132249801D01*
X191187178Y-132473824D01*
X191187179Y-132473826D01*
X191187180Y-132473829D01*
X191285199Y-132684032D01*
X191418230Y-132874019D01*
X191582231Y-133038020D01*
X191772218Y-133171051D01*
X191982421Y-133269070D01*
X192206450Y-133329099D01*
X192371485Y-133343537D01*
X192437498Y-133349313D01*
X192437500Y-133349313D01*
X192437502Y-133349313D01*
X192495262Y-133344259D01*
X192668550Y-133329099D01*
X192892579Y-133269070D01*
X193102782Y-133171051D01*
X193292769Y-133038020D01*
X193456770Y-132874019D01*
X193589801Y-132684032D01*
X193687820Y-132473829D01*
X193747849Y-132249800D01*
X193768063Y-132018750D01*
X193747849Y-131787700D01*
X193687820Y-131563671D01*
X193589801Y-131353469D01*
X193589799Y-131353466D01*
X193589798Y-131353464D01*
X193456773Y-131163485D01*
X193456768Y-131163479D01*
X193292769Y-130999480D01*
X193292763Y-130999476D01*
X193102782Y-130866449D01*
X192892579Y-130768430D01*
X192892576Y-130768429D01*
X192892574Y-130768428D01*
X192668551Y-130708401D01*
X192668544Y-130708400D01*
X192437502Y-130688187D01*
X192437498Y-130688187D01*
X192206455Y-130708400D01*
X192206448Y-130708401D01*
X191982417Y-130768431D01*
X191772218Y-130866449D01*
X191772214Y-130866451D01*
X191582235Y-130999476D01*
X191582229Y-130999481D01*
X191418231Y-131163479D01*
X191418226Y-131163485D01*
X191285201Y-131353464D01*
X191285199Y-131353468D01*
X191187181Y-131563667D01*
X191127151Y-131787698D01*
X191127150Y-131787705D01*
X191106937Y-132018748D01*
X191106937Y-132018751D01*
X183288000Y-132018751D01*
X183288000Y-126400000D01*
X186256964Y-126400000D01*
X186277064Y-126616918D01*
X186336684Y-126826462D01*
X186433788Y-127021472D01*
X186565073Y-127195322D01*
X186726068Y-127342088D01*
X186726070Y-127342089D01*
X186726076Y-127342093D01*
X186911286Y-127456770D01*
X186911292Y-127456773D01*
X186934164Y-127465633D01*
X187114431Y-127535470D01*
X187328574Y-127575500D01*
X187328576Y-127575500D01*
X187546424Y-127575500D01*
X187546426Y-127575500D01*
X187760569Y-127535470D01*
X187963710Y-127456772D01*
X188148932Y-127342088D01*
X188213899Y-127282863D01*
X188276703Y-127252246D01*
X188297437Y-127250500D01*
X191953702Y-127250500D01*
X192020741Y-127270185D01*
X192041378Y-127286814D01*
X192154611Y-127400047D01*
X192341016Y-127530568D01*
X192547254Y-127626739D01*
X192767058Y-127685635D01*
X192928980Y-127699801D01*
X192993748Y-127705468D01*
X192993750Y-127705468D01*
X192993752Y-127705468D01*
X193050423Y-127700509D01*
X193220442Y-127685635D01*
X193440246Y-127626739D01*
X193646484Y-127530568D01*
X193832889Y-127400047D01*
X193993797Y-127239139D01*
X194124318Y-127052734D01*
X194220489Y-126846496D01*
X194279385Y-126626692D01*
X194299218Y-126400000D01*
X194279385Y-126173308D01*
X194220489Y-125953504D01*
X194124318Y-125747266D01*
X193993797Y-125560861D01*
X193993795Y-125560858D01*
X193832891Y-125399954D01*
X193646484Y-125269432D01*
X193646482Y-125269431D01*
X193440247Y-125173261D01*
X193440238Y-125173258D01*
X193220447Y-125114366D01*
X193220443Y-125114365D01*
X193220442Y-125114365D01*
X193220441Y-125114364D01*
X193220436Y-125114364D01*
X192993752Y-125094532D01*
X192993748Y-125094532D01*
X192767063Y-125114364D01*
X192767052Y-125114366D01*
X192547261Y-125173258D01*
X192547252Y-125173261D01*
X192341017Y-125269431D01*
X192341015Y-125269432D01*
X192154612Y-125399951D01*
X192097998Y-125456566D01*
X192041381Y-125513182D01*
X191980061Y-125546666D01*
X191953702Y-125549500D01*
X188297437Y-125549500D01*
X188230398Y-125529815D01*
X188213899Y-125517137D01*
X188148932Y-125457912D01*
X188148930Y-125457910D01*
X187963713Y-125343229D01*
X187963707Y-125343226D01*
X187878613Y-125310260D01*
X187760569Y-125264530D01*
X187546426Y-125224500D01*
X187328574Y-125224500D01*
X187114431Y-125264530D01*
X187101778Y-125269432D01*
X186911292Y-125343226D01*
X186911286Y-125343229D01*
X186726076Y-125457906D01*
X186726066Y-125457913D01*
X186565074Y-125604676D01*
X186433788Y-125778527D01*
X186336684Y-125973537D01*
X186277064Y-126183081D01*
X186256964Y-126399999D01*
X186256964Y-126400000D01*
X183288000Y-126400000D01*
X183288000Y-125165918D01*
X183307685Y-125098879D01*
X183313039Y-125091200D01*
X183441212Y-124921472D01*
X183538317Y-124726459D01*
X183597935Y-124516923D01*
X183618036Y-124300000D01*
X183597935Y-124083077D01*
X183538317Y-123873541D01*
X183441212Y-123678528D01*
X183313046Y-123508808D01*
X183288354Y-123443446D01*
X183288000Y-123434081D01*
X183288000Y-120500000D01*
X184681973Y-120500000D01*
X184702063Y-120832136D01*
X184702063Y-120832141D01*
X184702064Y-120832142D01*
X184762044Y-121159441D01*
X184762045Y-121159445D01*
X184762046Y-121159449D01*
X184861030Y-121477104D01*
X184861034Y-121477116D01*
X184861037Y-121477123D01*
X184997602Y-121780557D01*
X185169746Y-122065318D01*
X185169751Y-122065326D01*
X185374960Y-122327255D01*
X185610244Y-122562539D01*
X185872173Y-122767748D01*
X185872178Y-122767751D01*
X185872182Y-122767754D01*
X186156943Y-122939898D01*
X186460377Y-123076463D01*
X186460390Y-123076467D01*
X186460395Y-123076469D01*
X186672165Y-123142458D01*
X186778059Y-123175456D01*
X187105358Y-123235436D01*
X187354394Y-123250500D01*
X187354407Y-123250500D01*
X187520593Y-123250500D01*
X187520606Y-123250500D01*
X187769642Y-123235436D01*
X188096941Y-123175456D01*
X188414623Y-123076463D01*
X188718057Y-122939898D01*
X189002818Y-122767754D01*
X189264752Y-122562542D01*
X189500042Y-122327252D01*
X189705254Y-122065318D01*
X189877398Y-121780557D01*
X190013963Y-121477123D01*
X190112956Y-121159441D01*
X190172936Y-120832142D01*
X190193027Y-120500000D01*
X190172936Y-120167858D01*
X190112956Y-119840559D01*
X190046680Y-119627870D01*
X191693250Y-119627870D01*
X191693251Y-119627876D01*
X191699658Y-119687483D01*
X191749952Y-119822328D01*
X191749956Y-119822335D01*
X191836202Y-119937544D01*
X191836205Y-119937547D01*
X191951414Y-120023793D01*
X191951421Y-120023797D01*
X192086267Y-120074091D01*
X192086266Y-120074091D01*
X192093194Y-120074835D01*
X192145877Y-120080500D01*
X193841622Y-120080499D01*
X193901233Y-120074091D01*
X194036081Y-120023796D01*
X194151296Y-119937546D01*
X194237546Y-119822331D01*
X194287841Y-119687483D01*
X194294250Y-119627873D01*
X194294249Y-117932128D01*
X194287841Y-117872517D01*
X194269948Y-117824544D01*
X194237547Y-117737671D01*
X194237543Y-117737664D01*
X194151297Y-117622455D01*
X194151294Y-117622452D01*
X194036085Y-117536206D01*
X194036078Y-117536202D01*
X193901232Y-117485908D01*
X193901233Y-117485908D01*
X193841633Y-117479501D01*
X193841631Y-117479500D01*
X193841623Y-117479500D01*
X193841614Y-117479500D01*
X192145879Y-117479500D01*
X192145873Y-117479501D01*
X192086266Y-117485908D01*
X191951421Y-117536202D01*
X191951414Y-117536206D01*
X191836205Y-117622452D01*
X191836202Y-117622455D01*
X191749956Y-117737664D01*
X191749952Y-117737671D01*
X191699658Y-117872517D01*
X191693251Y-117932116D01*
X191693251Y-117932123D01*
X191693250Y-117932135D01*
X191693250Y-119627870D01*
X190046680Y-119627870D01*
X190013963Y-119522877D01*
X189877398Y-119219443D01*
X189705254Y-118934682D01*
X189705251Y-118934678D01*
X189705248Y-118934673D01*
X189500039Y-118672744D01*
X189264755Y-118437460D01*
X189002826Y-118232251D01*
X189002818Y-118232246D01*
X188718057Y-118060102D01*
X188414623Y-117923537D01*
X188414616Y-117923534D01*
X188414604Y-117923530D01*
X188096949Y-117824546D01*
X188096945Y-117824545D01*
X188096941Y-117824544D01*
X187769642Y-117764564D01*
X187769641Y-117764563D01*
X187769636Y-117764563D01*
X187520614Y-117749500D01*
X187520606Y-117749500D01*
X187354394Y-117749500D01*
X187354385Y-117749500D01*
X187105363Y-117764563D01*
X187105358Y-117764564D01*
X186778059Y-117824544D01*
X186778056Y-117824544D01*
X186778050Y-117824546D01*
X186460395Y-117923530D01*
X186460379Y-117923536D01*
X186460377Y-117923537D01*
X186267156Y-118010498D01*
X186156947Y-118060100D01*
X186156945Y-118060101D01*
X185872173Y-118232251D01*
X185610244Y-118437460D01*
X185374960Y-118672744D01*
X185169751Y-118934673D01*
X184997601Y-119219445D01*
X184997600Y-119219447D01*
X184861036Y-119522880D01*
X184861030Y-119522895D01*
X184762046Y-119840550D01*
X184762044Y-119840556D01*
X184762044Y-119840559D01*
X184728464Y-120023797D01*
X184702063Y-120167863D01*
X184681973Y-120500000D01*
X183288000Y-120500000D01*
X183288000Y-115350001D01*
X191106937Y-115350001D01*
X191127150Y-115581044D01*
X191127151Y-115581051D01*
X191187178Y-115805074D01*
X191187179Y-115805076D01*
X191187180Y-115805079D01*
X191285199Y-116015282D01*
X191418230Y-116205269D01*
X191582231Y-116369270D01*
X191772218Y-116502301D01*
X191982421Y-116600320D01*
X192206450Y-116660349D01*
X192371485Y-116674787D01*
X192437498Y-116680563D01*
X192437500Y-116680563D01*
X192437502Y-116680563D01*
X192495262Y-116675509D01*
X192668550Y-116660349D01*
X192892579Y-116600320D01*
X193102782Y-116502301D01*
X193292769Y-116369270D01*
X193456770Y-116205269D01*
X193589801Y-116015282D01*
X193687820Y-115805079D01*
X193747849Y-115581050D01*
X193768063Y-115350000D01*
X193747849Y-115118950D01*
X193687820Y-114894921D01*
X193589801Y-114684719D01*
X193589799Y-114684716D01*
X193589798Y-114684714D01*
X193456773Y-114494735D01*
X193456768Y-114494729D01*
X193292769Y-114330730D01*
X193292763Y-114330726D01*
X193102782Y-114197699D01*
X192892579Y-114099680D01*
X192892576Y-114099679D01*
X192892574Y-114099678D01*
X192668551Y-114039651D01*
X192668544Y-114039650D01*
X192437502Y-114019437D01*
X192437498Y-114019437D01*
X192206455Y-114039650D01*
X192206448Y-114039651D01*
X191982417Y-114099681D01*
X191772218Y-114197699D01*
X191772214Y-114197701D01*
X191582235Y-114330726D01*
X191582229Y-114330731D01*
X191418231Y-114494729D01*
X191418226Y-114494735D01*
X191285201Y-114684714D01*
X191285199Y-114684718D01*
X191187181Y-114894917D01*
X191127151Y-115118948D01*
X191127150Y-115118955D01*
X191106937Y-115349998D01*
X191106937Y-115350001D01*
X183288000Y-115350001D01*
X183288000Y-109731250D01*
X186256964Y-109731250D01*
X186277064Y-109948168D01*
X186336684Y-110157712D01*
X186433788Y-110352722D01*
X186565073Y-110526572D01*
X186726068Y-110673338D01*
X186726070Y-110673339D01*
X186726076Y-110673343D01*
X186911286Y-110788020D01*
X186911292Y-110788023D01*
X186934164Y-110796883D01*
X187114431Y-110866720D01*
X187328574Y-110906750D01*
X187328576Y-110906750D01*
X187546424Y-110906750D01*
X187546426Y-110906750D01*
X187760569Y-110866720D01*
X187963710Y-110788022D01*
X188148932Y-110673338D01*
X188213899Y-110614113D01*
X188276703Y-110583496D01*
X188297437Y-110581750D01*
X191953702Y-110581750D01*
X192020741Y-110601435D01*
X192041378Y-110618064D01*
X192154611Y-110731297D01*
X192341016Y-110861818D01*
X192547254Y-110957989D01*
X192767058Y-111016885D01*
X192928980Y-111031051D01*
X192993748Y-111036718D01*
X192993750Y-111036718D01*
X192993752Y-111036718D01*
X193050423Y-111031759D01*
X193220442Y-111016885D01*
X193440246Y-110957989D01*
X193646484Y-110861818D01*
X193832889Y-110731297D01*
X193993797Y-110570389D01*
X194124318Y-110383984D01*
X194220489Y-110177746D01*
X194279385Y-109957942D01*
X194299218Y-109731250D01*
X194279385Y-109504558D01*
X194220489Y-109284754D01*
X194124318Y-109078516D01*
X193993797Y-108892111D01*
X193993795Y-108892108D01*
X193832891Y-108731204D01*
X193646484Y-108600682D01*
X193646482Y-108600681D01*
X193440247Y-108504511D01*
X193440238Y-108504508D01*
X193220447Y-108445616D01*
X193220443Y-108445615D01*
X193220442Y-108445615D01*
X193220441Y-108445614D01*
X193220436Y-108445614D01*
X192993752Y-108425782D01*
X192993748Y-108425782D01*
X192767063Y-108445614D01*
X192767052Y-108445616D01*
X192547261Y-108504508D01*
X192547252Y-108504511D01*
X192341017Y-108600681D01*
X192341015Y-108600682D01*
X192154612Y-108731201D01*
X192097998Y-108787816D01*
X192041381Y-108844432D01*
X191980061Y-108877916D01*
X191953702Y-108880750D01*
X188297437Y-108880750D01*
X188230398Y-108861065D01*
X188213899Y-108848387D01*
X188148932Y-108789162D01*
X188148930Y-108789160D01*
X187963713Y-108674479D01*
X187963707Y-108674476D01*
X187878613Y-108641510D01*
X187760569Y-108595780D01*
X187546426Y-108555750D01*
X187328574Y-108555750D01*
X187114431Y-108595780D01*
X187101778Y-108600682D01*
X186911292Y-108674476D01*
X186911286Y-108674479D01*
X186726076Y-108789156D01*
X186726066Y-108789163D01*
X186565074Y-108935926D01*
X186433788Y-109109777D01*
X186336684Y-109304787D01*
X186277064Y-109514331D01*
X186256964Y-109731249D01*
X186256964Y-109731250D01*
X183288000Y-109731250D01*
X183288000Y-108497168D01*
X183307685Y-108430129D01*
X183313039Y-108422450D01*
X183441212Y-108252722D01*
X183538317Y-108057709D01*
X183597935Y-107848173D01*
X183618036Y-107631250D01*
X183597935Y-107414327D01*
X183538317Y-107204791D01*
X183441212Y-107009778D01*
X183313046Y-106840058D01*
X183288354Y-106774696D01*
X183288000Y-106765331D01*
X183288000Y-103831250D01*
X184681973Y-103831250D01*
X184702063Y-104163386D01*
X184702063Y-104163391D01*
X184702064Y-104163392D01*
X184762044Y-104490691D01*
X184762045Y-104490695D01*
X184762046Y-104490699D01*
X184861030Y-104808354D01*
X184861034Y-104808366D01*
X184861037Y-104808373D01*
X184997602Y-105111807D01*
X185169746Y-105396568D01*
X185169751Y-105396576D01*
X185374960Y-105658505D01*
X185610244Y-105893789D01*
X185872173Y-106098998D01*
X185872178Y-106099001D01*
X185872182Y-106099004D01*
X186156943Y-106271148D01*
X186460377Y-106407713D01*
X186460390Y-106407717D01*
X186460395Y-106407719D01*
X186672165Y-106473708D01*
X186778059Y-106506706D01*
X187105358Y-106566686D01*
X187354394Y-106581750D01*
X187354407Y-106581750D01*
X187520593Y-106581750D01*
X187520606Y-106581750D01*
X187769642Y-106566686D01*
X188096941Y-106506706D01*
X188414623Y-106407713D01*
X188718057Y-106271148D01*
X189002818Y-106099004D01*
X189264752Y-105893792D01*
X189500042Y-105658502D01*
X189705254Y-105396568D01*
X189877398Y-105111807D01*
X190013963Y-104808373D01*
X190112956Y-104490691D01*
X190172936Y-104163392D01*
X190193027Y-103831250D01*
X190172936Y-103499108D01*
X190112956Y-103171809D01*
X190046680Y-102959120D01*
X191693250Y-102959120D01*
X191693251Y-102959126D01*
X191699658Y-103018733D01*
X191749952Y-103153578D01*
X191749956Y-103153585D01*
X191836202Y-103268794D01*
X191836205Y-103268797D01*
X191951414Y-103355043D01*
X191951421Y-103355047D01*
X192086267Y-103405341D01*
X192086266Y-103405341D01*
X192093194Y-103406085D01*
X192145877Y-103411750D01*
X193841622Y-103411749D01*
X193901233Y-103405341D01*
X194036081Y-103355046D01*
X194151296Y-103268796D01*
X194237546Y-103153581D01*
X194287841Y-103018733D01*
X194294250Y-102959123D01*
X194294249Y-101263378D01*
X194287841Y-101203767D01*
X194269948Y-101155794D01*
X194237547Y-101068921D01*
X194237543Y-101068914D01*
X194151297Y-100953705D01*
X194151294Y-100953702D01*
X194036085Y-100867456D01*
X194036078Y-100867452D01*
X193901232Y-100817158D01*
X193901233Y-100817158D01*
X193841633Y-100810751D01*
X193841631Y-100810750D01*
X193841623Y-100810750D01*
X193841614Y-100810750D01*
X192145879Y-100810750D01*
X192145873Y-100810751D01*
X192086266Y-100817158D01*
X191951421Y-100867452D01*
X191951414Y-100867456D01*
X191836205Y-100953702D01*
X191836202Y-100953705D01*
X191749956Y-101068914D01*
X191749952Y-101068921D01*
X191699658Y-101203767D01*
X191693251Y-101263366D01*
X191693251Y-101263373D01*
X191693250Y-101263385D01*
X191693250Y-102959120D01*
X190046680Y-102959120D01*
X190013963Y-102854127D01*
X189877398Y-102550693D01*
X189705254Y-102265932D01*
X189705251Y-102265928D01*
X189705248Y-102265923D01*
X189500039Y-102003994D01*
X189264755Y-101768710D01*
X189002826Y-101563501D01*
X189002818Y-101563496D01*
X188718057Y-101391352D01*
X188414623Y-101254787D01*
X188414616Y-101254784D01*
X188414604Y-101254780D01*
X188096949Y-101155796D01*
X188096945Y-101155795D01*
X188096941Y-101155794D01*
X187769642Y-101095814D01*
X187769641Y-101095813D01*
X187769636Y-101095813D01*
X187520614Y-101080750D01*
X187520606Y-101080750D01*
X187354394Y-101080750D01*
X187354385Y-101080750D01*
X187105363Y-101095813D01*
X187105358Y-101095814D01*
X186778059Y-101155794D01*
X186778056Y-101155794D01*
X186778050Y-101155796D01*
X186460395Y-101254780D01*
X186460379Y-101254786D01*
X186460377Y-101254787D01*
X186267156Y-101341748D01*
X186156947Y-101391350D01*
X186156945Y-101391351D01*
X185872173Y-101563501D01*
X185610244Y-101768710D01*
X185374960Y-102003994D01*
X185169751Y-102265923D01*
X184997601Y-102550695D01*
X184997600Y-102550697D01*
X184861036Y-102854130D01*
X184861030Y-102854145D01*
X184762046Y-103171800D01*
X184762044Y-103171806D01*
X184762044Y-103171809D01*
X184728464Y-103355047D01*
X184702063Y-103499113D01*
X184681973Y-103831250D01*
X183288000Y-103831250D01*
X183288000Y-98681251D01*
X191106937Y-98681251D01*
X191127150Y-98912294D01*
X191127151Y-98912301D01*
X191187178Y-99136324D01*
X191187179Y-99136326D01*
X191187180Y-99136329D01*
X191285199Y-99346532D01*
X191418230Y-99536519D01*
X191582231Y-99700520D01*
X191772218Y-99833551D01*
X191982421Y-99931570D01*
X192206450Y-99991599D01*
X192371485Y-100006037D01*
X192437498Y-100011813D01*
X192437500Y-100011813D01*
X192437502Y-100011813D01*
X192495262Y-100006759D01*
X192668550Y-99991599D01*
X192892579Y-99931570D01*
X193102782Y-99833551D01*
X193292769Y-99700520D01*
X193456770Y-99536519D01*
X193589801Y-99346532D01*
X193687820Y-99136329D01*
X193747849Y-98912300D01*
X193768063Y-98681250D01*
X193747849Y-98450200D01*
X193687820Y-98226171D01*
X193589801Y-98015969D01*
X193589799Y-98015966D01*
X193589798Y-98015964D01*
X193456773Y-97825985D01*
X193456768Y-97825979D01*
X193292769Y-97661980D01*
X193292763Y-97661976D01*
X193102782Y-97528949D01*
X192892579Y-97430930D01*
X192892576Y-97430929D01*
X192892574Y-97430928D01*
X192668551Y-97370901D01*
X192668544Y-97370900D01*
X192437502Y-97350687D01*
X192437498Y-97350687D01*
X192206455Y-97370900D01*
X192206448Y-97370901D01*
X191982417Y-97430931D01*
X191772218Y-97528949D01*
X191772214Y-97528951D01*
X191582235Y-97661976D01*
X191582229Y-97661981D01*
X191418231Y-97825979D01*
X191418226Y-97825985D01*
X191285201Y-98015964D01*
X191285199Y-98015968D01*
X191187181Y-98226167D01*
X191127151Y-98450198D01*
X191127150Y-98450205D01*
X191106937Y-98681248D01*
X191106937Y-98681251D01*
X183288000Y-98681251D01*
X183288000Y-93062500D01*
X186256964Y-93062500D01*
X186277064Y-93279418D01*
X186336684Y-93488962D01*
X186433788Y-93683972D01*
X186565073Y-93857822D01*
X186726068Y-94004588D01*
X186726070Y-94004589D01*
X186726076Y-94004593D01*
X186911286Y-94119270D01*
X186911292Y-94119273D01*
X186934164Y-94128133D01*
X187114431Y-94197970D01*
X187328574Y-94238000D01*
X187328576Y-94238000D01*
X187546424Y-94238000D01*
X187546426Y-94238000D01*
X187760569Y-94197970D01*
X187963710Y-94119272D01*
X188148932Y-94004588D01*
X188213899Y-93945363D01*
X188276703Y-93914746D01*
X188297437Y-93913000D01*
X191953702Y-93913000D01*
X192020741Y-93932685D01*
X192041378Y-93949314D01*
X192154611Y-94062547D01*
X192341016Y-94193068D01*
X192547254Y-94289239D01*
X192767058Y-94348135D01*
X192928980Y-94362301D01*
X192993748Y-94367968D01*
X192993750Y-94367968D01*
X192993752Y-94367968D01*
X193050423Y-94363009D01*
X193220442Y-94348135D01*
X193440246Y-94289239D01*
X193646484Y-94193068D01*
X193832889Y-94062547D01*
X193993797Y-93901639D01*
X194124318Y-93715234D01*
X194220489Y-93508996D01*
X194279385Y-93289192D01*
X194299218Y-93062500D01*
X194279385Y-92835808D01*
X194220489Y-92616004D01*
X194124318Y-92409766D01*
X193993797Y-92223361D01*
X193993795Y-92223358D01*
X193832891Y-92062454D01*
X193646484Y-91931932D01*
X193646482Y-91931931D01*
X193440247Y-91835761D01*
X193440238Y-91835758D01*
X193220447Y-91776866D01*
X193220443Y-91776865D01*
X193220442Y-91776865D01*
X193220441Y-91776864D01*
X193220436Y-91776864D01*
X192993752Y-91757032D01*
X192993748Y-91757032D01*
X192767063Y-91776864D01*
X192767052Y-91776866D01*
X192547261Y-91835758D01*
X192547252Y-91835761D01*
X192341017Y-91931931D01*
X192341015Y-91931932D01*
X192154612Y-92062451D01*
X192097998Y-92119066D01*
X192041381Y-92175682D01*
X191980061Y-92209166D01*
X191953702Y-92212000D01*
X188297437Y-92212000D01*
X188230398Y-92192315D01*
X188213899Y-92179637D01*
X188148932Y-92120412D01*
X188148930Y-92120410D01*
X187963713Y-92005729D01*
X187963707Y-92005726D01*
X187878613Y-91972760D01*
X187760569Y-91927030D01*
X187546426Y-91887000D01*
X187328574Y-91887000D01*
X187114431Y-91927030D01*
X187101778Y-91931932D01*
X186911292Y-92005726D01*
X186911286Y-92005729D01*
X186726076Y-92120406D01*
X186726066Y-92120413D01*
X186565074Y-92267176D01*
X186433788Y-92441027D01*
X186336684Y-92636037D01*
X186277064Y-92845581D01*
X186256964Y-93062499D01*
X186256964Y-93062500D01*
X183288000Y-93062500D01*
X183288000Y-91828418D01*
X183307685Y-91761379D01*
X183313039Y-91753700D01*
X183441212Y-91583972D01*
X183538317Y-91388959D01*
X183597935Y-91179423D01*
X183618036Y-90962500D01*
X183597935Y-90745577D01*
X183538317Y-90536041D01*
X183441212Y-90341028D01*
X183313046Y-90171308D01*
X183288354Y-90105946D01*
X183288000Y-90096581D01*
X183288000Y-87162500D01*
X184681973Y-87162500D01*
X184702063Y-87494636D01*
X184702063Y-87494641D01*
X184702064Y-87494642D01*
X184762044Y-87821941D01*
X184762045Y-87821945D01*
X184762046Y-87821949D01*
X184861030Y-88139604D01*
X184861034Y-88139616D01*
X184861037Y-88139623D01*
X184997602Y-88443057D01*
X185169746Y-88727818D01*
X185169751Y-88727826D01*
X185374960Y-88989755D01*
X185610244Y-89225039D01*
X185872173Y-89430248D01*
X185872178Y-89430251D01*
X185872182Y-89430254D01*
X186156943Y-89602398D01*
X186460377Y-89738963D01*
X186460390Y-89738967D01*
X186460395Y-89738969D01*
X186672165Y-89804958D01*
X186778059Y-89837956D01*
X187105358Y-89897936D01*
X187354394Y-89913000D01*
X187354407Y-89913000D01*
X187520593Y-89913000D01*
X187520606Y-89913000D01*
X187769642Y-89897936D01*
X188096941Y-89837956D01*
X188414623Y-89738963D01*
X188718057Y-89602398D01*
X189002818Y-89430254D01*
X189264752Y-89225042D01*
X189500042Y-88989752D01*
X189705254Y-88727818D01*
X189877398Y-88443057D01*
X190013963Y-88139623D01*
X190112956Y-87821941D01*
X190172936Y-87494642D01*
X190193027Y-87162500D01*
X190172936Y-86830358D01*
X190112956Y-86503059D01*
X190046680Y-86290370D01*
X191693250Y-86290370D01*
X191693251Y-86290376D01*
X191699658Y-86349983D01*
X191749952Y-86484828D01*
X191749956Y-86484835D01*
X191836202Y-86600044D01*
X191836205Y-86600047D01*
X191951414Y-86686293D01*
X191951421Y-86686297D01*
X192086267Y-86736591D01*
X192086266Y-86736591D01*
X192093194Y-86737335D01*
X192145877Y-86743000D01*
X193841622Y-86742999D01*
X193901233Y-86736591D01*
X194036081Y-86686296D01*
X194151296Y-86600046D01*
X194237546Y-86484831D01*
X194287841Y-86349983D01*
X194294250Y-86290373D01*
X194294249Y-84594628D01*
X194287841Y-84535017D01*
X194269948Y-84487044D01*
X194237547Y-84400171D01*
X194237543Y-84400164D01*
X194151297Y-84284955D01*
X194151294Y-84284952D01*
X194036085Y-84198706D01*
X194036078Y-84198702D01*
X193901232Y-84148408D01*
X193901233Y-84148408D01*
X193841633Y-84142001D01*
X193841631Y-84142000D01*
X193841623Y-84142000D01*
X193841614Y-84142000D01*
X192145879Y-84142000D01*
X192145873Y-84142001D01*
X192086266Y-84148408D01*
X191951421Y-84198702D01*
X191951414Y-84198706D01*
X191836205Y-84284952D01*
X191836202Y-84284955D01*
X191749956Y-84400164D01*
X191749952Y-84400171D01*
X191699658Y-84535017D01*
X191693251Y-84594616D01*
X191693251Y-84594623D01*
X191693250Y-84594635D01*
X191693250Y-86290370D01*
X190046680Y-86290370D01*
X190013963Y-86185377D01*
X189877398Y-85881943D01*
X189705254Y-85597182D01*
X189705251Y-85597178D01*
X189705248Y-85597173D01*
X189500039Y-85335244D01*
X189264755Y-85099960D01*
X189002826Y-84894751D01*
X189002818Y-84894746D01*
X188718057Y-84722602D01*
X188414623Y-84586037D01*
X188414616Y-84586034D01*
X188414604Y-84586030D01*
X188096949Y-84487046D01*
X188096945Y-84487045D01*
X188096941Y-84487044D01*
X187769642Y-84427064D01*
X187769641Y-84427063D01*
X187769636Y-84427063D01*
X187520614Y-84412000D01*
X187520606Y-84412000D01*
X187354394Y-84412000D01*
X187354385Y-84412000D01*
X187105363Y-84427063D01*
X187105358Y-84427064D01*
X186778059Y-84487044D01*
X186778056Y-84487044D01*
X186778050Y-84487046D01*
X186460395Y-84586030D01*
X186460379Y-84586036D01*
X186460377Y-84586037D01*
X186267156Y-84672998D01*
X186156947Y-84722600D01*
X186156945Y-84722601D01*
X185872173Y-84894751D01*
X185610244Y-85099960D01*
X185374960Y-85335244D01*
X185169751Y-85597173D01*
X184997601Y-85881945D01*
X184997600Y-85881947D01*
X184861036Y-86185380D01*
X184861030Y-86185395D01*
X184762046Y-86503050D01*
X184762044Y-86503056D01*
X184762044Y-86503059D01*
X184728464Y-86686297D01*
X184702063Y-86830363D01*
X184681973Y-87162500D01*
X183288000Y-87162500D01*
X183288000Y-82012501D01*
X191106937Y-82012501D01*
X191127150Y-82243544D01*
X191127151Y-82243551D01*
X191187178Y-82467574D01*
X191187179Y-82467576D01*
X191187180Y-82467579D01*
X191285199Y-82677782D01*
X191418230Y-82867769D01*
X191582231Y-83031770D01*
X191772218Y-83164801D01*
X191982421Y-83262820D01*
X192206450Y-83322849D01*
X192371485Y-83337287D01*
X192437498Y-83343063D01*
X192437500Y-83343063D01*
X192437502Y-83343063D01*
X192495262Y-83338009D01*
X192668550Y-83322849D01*
X192892579Y-83262820D01*
X193102782Y-83164801D01*
X193292769Y-83031770D01*
X193456770Y-82867769D01*
X193589801Y-82677782D01*
X193687820Y-82467579D01*
X193747849Y-82243550D01*
X193768063Y-82012500D01*
X193747849Y-81781450D01*
X193687820Y-81557421D01*
X193589801Y-81347219D01*
X193589799Y-81347216D01*
X193589798Y-81347214D01*
X193456773Y-81157235D01*
X193456768Y-81157229D01*
X193292769Y-80993230D01*
X193292763Y-80993226D01*
X193102782Y-80860199D01*
X192892579Y-80762180D01*
X192892576Y-80762179D01*
X192892574Y-80762178D01*
X192668551Y-80702151D01*
X192668544Y-80702150D01*
X192437502Y-80681937D01*
X192437498Y-80681937D01*
X192206455Y-80702150D01*
X192206448Y-80702151D01*
X191982417Y-80762181D01*
X191772218Y-80860199D01*
X191772214Y-80860201D01*
X191582235Y-80993226D01*
X191582229Y-80993231D01*
X191418231Y-81157229D01*
X191418226Y-81157235D01*
X191285201Y-81347214D01*
X191285199Y-81347218D01*
X191187181Y-81557417D01*
X191127151Y-81781448D01*
X191127150Y-81781455D01*
X191106937Y-82012498D01*
X191106937Y-82012501D01*
X183288000Y-82012501D01*
X183288000Y-80877106D01*
X183288409Y-80867041D01*
X183288966Y-80860199D01*
X183292701Y-80814333D01*
X183281991Y-80735731D01*
X183281588Y-80732435D01*
X183276096Y-80681937D01*
X183273014Y-80653590D01*
X183273012Y-80653586D01*
X183272793Y-80652591D01*
X183267993Y-80632108D01*
X183267727Y-80631043D01*
X183267726Y-80631032D01*
X183240371Y-80556574D01*
X183239272Y-80553449D01*
X183213944Y-80478279D01*
X183213480Y-80477276D01*
X183204447Y-80458423D01*
X183203932Y-80457384D01*
X183161228Y-80390576D01*
X183159457Y-80387721D01*
X183118570Y-80319764D01*
X183118568Y-80319762D01*
X183118567Y-80319760D01*
X183117955Y-80318955D01*
X183105003Y-80302389D01*
X183104303Y-80301518D01*
X183104299Y-80301511D01*
X183048249Y-80245461D01*
X183045906Y-80243054D01*
X182991348Y-80185457D01*
X182990608Y-80184828D01*
X182973375Y-80170587D01*
X177099319Y-74296530D01*
X177065834Y-74235207D01*
X177063000Y-74208849D01*
X177063000Y-71999801D01*
X177077641Y-71941350D01*
X177141314Y-71822227D01*
X177198524Y-71633632D01*
X177217841Y-71437500D01*
X177198524Y-71241368D01*
X177141314Y-71052773D01*
X177141311Y-71052769D01*
X177141311Y-71052766D01*
X177048413Y-70878967D01*
X177048409Y-70878960D01*
X176923383Y-70726616D01*
X176771039Y-70601590D01*
X176771032Y-70601586D01*
X176597233Y-70508688D01*
X176597227Y-70508686D01*
X176408632Y-70451476D01*
X176408629Y-70451475D01*
X176212500Y-70432159D01*
X176016370Y-70451475D01*
X175827766Y-70508688D01*
X175653967Y-70601586D01*
X175653960Y-70601590D01*
X175501616Y-70726616D01*
X175376590Y-70878960D01*
X175376586Y-70878967D01*
X175283688Y-71052766D01*
X175226475Y-71241370D01*
X175207159Y-71437500D01*
X166619250Y-71437500D01*
X166619250Y-69584900D01*
X166638935Y-69517861D01*
X166655569Y-69497219D01*
X169384719Y-66768069D01*
X169446042Y-66734584D01*
X169472400Y-66731750D01*
X170887698Y-66731750D01*
X170946150Y-66746391D01*
X171065273Y-66810064D01*
X171253868Y-66867274D01*
X171450000Y-66886591D01*
X171646132Y-66867274D01*
X171834727Y-66810064D01*
X172008538Y-66717160D01*
X172160883Y-66592133D01*
X172285910Y-66439788D01*
X172378814Y-66265977D01*
X172436024Y-66077382D01*
X172455341Y-65881250D01*
X172436024Y-65685118D01*
X172378814Y-65496523D01*
X172378811Y-65496519D01*
X172378811Y-65496516D01*
X172285913Y-65322717D01*
X172285909Y-65322710D01*
X172160883Y-65170366D01*
X172008539Y-65045340D01*
X172008532Y-65045336D01*
X171834733Y-64952438D01*
X171834727Y-64952436D01*
X171646132Y-64895226D01*
X171646129Y-64895225D01*
X171450000Y-64875909D01*
X171253870Y-64895225D01*
X171065269Y-64952437D01*
X170978090Y-64999036D01*
X170946150Y-65016108D01*
X170887698Y-65030750D01*
X169108356Y-65030750D01*
X169098293Y-65030341D01*
X169094069Y-65029997D01*
X169045584Y-65026048D01*
X169045576Y-65026049D01*
X168967015Y-65036752D01*
X168963686Y-65037160D01*
X168902802Y-65043782D01*
X168884840Y-65045736D01*
X168884836Y-65045737D01*
X168883881Y-65045947D01*
X168863221Y-65050788D01*
X168862288Y-65051020D01*
X168787854Y-65078365D01*
X168784693Y-65079478D01*
X168709523Y-65104808D01*
X168708546Y-65105260D01*
X168689447Y-65114412D01*
X168688636Y-65114815D01*
X168621777Y-65157549D01*
X168618926Y-65159317D01*
X168551012Y-65200180D01*
X168550270Y-65200744D01*
X168533578Y-65213792D01*
X168532764Y-65214447D01*
X168476709Y-65270501D01*
X168474306Y-65272839D01*
X168416706Y-65327403D01*
X168416072Y-65328149D01*
X168401843Y-65345366D01*
X165195360Y-68551849D01*
X165187958Y-68558674D01*
X165147650Y-68592913D01*
X165099674Y-68656022D01*
X165097608Y-68658664D01*
X165047908Y-68720494D01*
X165047399Y-68721291D01*
X165036219Y-68739316D01*
X165035691Y-68740193D01*
X165002392Y-68812166D01*
X165000943Y-68815190D01*
X164965716Y-68886222D01*
X164965332Y-68887267D01*
X164958330Y-68907156D01*
X164958018Y-68908082D01*
X164940969Y-68985532D01*
X164940203Y-68988799D01*
X164921064Y-69065758D01*
X164920941Y-69066666D01*
X164918357Y-69087766D01*
X164918250Y-69088751D01*
X164918250Y-69168022D01*
X164918205Y-69171379D01*
X164916056Y-69250687D01*
X164916139Y-69251697D01*
X164918250Y-69273899D01*
X164918250Y-90096581D01*
X164898565Y-90163620D01*
X164893204Y-90171308D01*
X164765038Y-90341027D01*
X164667934Y-90536037D01*
X164608314Y-90745581D01*
X164588214Y-90962499D01*
X164588214Y-90962500D01*
X164608314Y-91179418D01*
X164608314Y-91179420D01*
X164608315Y-91179423D01*
X164667933Y-91388959D01*
X164765038Y-91583972D01*
X164893204Y-91753692D01*
X164917896Y-91819052D01*
X164918250Y-91828418D01*
X164918250Y-106765331D01*
X164898565Y-106832370D01*
X164893204Y-106840058D01*
X164765038Y-107009777D01*
X164667934Y-107204787D01*
X164608314Y-107414331D01*
X164588214Y-107631249D01*
X164588214Y-107631250D01*
X164608314Y-107848168D01*
X164608314Y-107848170D01*
X164608315Y-107848173D01*
X164667933Y-108057709D01*
X164765038Y-108252722D01*
X164893204Y-108422442D01*
X164917896Y-108487802D01*
X164918250Y-108497168D01*
X164918250Y-123434081D01*
X164898565Y-123501120D01*
X164893204Y-123508808D01*
X164765038Y-123678527D01*
X164667934Y-123873537D01*
X164608314Y-124083081D01*
X164588214Y-124299999D01*
X164588214Y-124300000D01*
X164608314Y-124516918D01*
X164608314Y-124516920D01*
X164608315Y-124516923D01*
X164667933Y-124726459D01*
X164765038Y-124921472D01*
X164893204Y-125091192D01*
X164917896Y-125156552D01*
X164918250Y-125165918D01*
X164918250Y-140102831D01*
X164898565Y-140169870D01*
X164893204Y-140177558D01*
X164765038Y-140347277D01*
X164667934Y-140542287D01*
X164608314Y-140751831D01*
X164588214Y-140968749D01*
X164588214Y-140968750D01*
X150280536Y-140968750D01*
X150260435Y-140751827D01*
X150200817Y-140542291D01*
X150103712Y-140347278D01*
X149975546Y-140177558D01*
X149950854Y-140112196D01*
X149950500Y-140102831D01*
X149950500Y-137168750D01*
X151344473Y-137168750D01*
X151364563Y-137500886D01*
X151364563Y-137500891D01*
X151364564Y-137500892D01*
X151424544Y-137828191D01*
X151424545Y-137828195D01*
X151424546Y-137828199D01*
X151523530Y-138145854D01*
X151523534Y-138145866D01*
X151523537Y-138145873D01*
X151660102Y-138449307D01*
X151832246Y-138734068D01*
X151832251Y-138734076D01*
X152037460Y-138996005D01*
X152272744Y-139231289D01*
X152534673Y-139436498D01*
X152534678Y-139436501D01*
X152534682Y-139436504D01*
X152819443Y-139608648D01*
X153122877Y-139745213D01*
X153122890Y-139745217D01*
X153122895Y-139745219D01*
X153334665Y-139811208D01*
X153440559Y-139844206D01*
X153767858Y-139904186D01*
X154016894Y-139919250D01*
X154016907Y-139919250D01*
X154183093Y-139919250D01*
X154183106Y-139919250D01*
X154432142Y-139904186D01*
X154759441Y-139844206D01*
X155077123Y-139745213D01*
X155380557Y-139608648D01*
X155665318Y-139436504D01*
X155927252Y-139231292D01*
X156162542Y-138996002D01*
X156367754Y-138734068D01*
X156539898Y-138449307D01*
X156676463Y-138145873D01*
X156775456Y-137828191D01*
X156835436Y-137500892D01*
X156855527Y-137168750D01*
X156835436Y-136836608D01*
X156775456Y-136509309D01*
X156709180Y-136296620D01*
X158355750Y-136296620D01*
X158355751Y-136296626D01*
X158362158Y-136356233D01*
X158412452Y-136491078D01*
X158412456Y-136491085D01*
X158498702Y-136606294D01*
X158498705Y-136606297D01*
X158613914Y-136692543D01*
X158613921Y-136692547D01*
X158748767Y-136742841D01*
X158748766Y-136742841D01*
X158755694Y-136743585D01*
X158808377Y-136749250D01*
X160504122Y-136749249D01*
X160563733Y-136742841D01*
X160698581Y-136692546D01*
X160813796Y-136606296D01*
X160900046Y-136491081D01*
X160950341Y-136356233D01*
X160956750Y-136296623D01*
X160956749Y-134600878D01*
X160950341Y-134541267D01*
X160932448Y-134493294D01*
X160900047Y-134406421D01*
X160900043Y-134406414D01*
X160813797Y-134291205D01*
X160813794Y-134291202D01*
X160698585Y-134204956D01*
X160698578Y-134204952D01*
X160563732Y-134154658D01*
X160563733Y-134154658D01*
X160504133Y-134148251D01*
X160504131Y-134148250D01*
X160504123Y-134148250D01*
X160504114Y-134148250D01*
X158808379Y-134148250D01*
X158808373Y-134148251D01*
X158748766Y-134154658D01*
X158613921Y-134204952D01*
X158613914Y-134204956D01*
X158498705Y-134291202D01*
X158498702Y-134291205D01*
X158412456Y-134406414D01*
X158412452Y-134406421D01*
X158362158Y-134541267D01*
X158355751Y-134600866D01*
X158355751Y-134600873D01*
X158355750Y-134600885D01*
X158355750Y-136296620D01*
X156709180Y-136296620D01*
X156676463Y-136191627D01*
X156539898Y-135888193D01*
X156367754Y-135603432D01*
X156367751Y-135603428D01*
X156367748Y-135603423D01*
X156162539Y-135341494D01*
X155927255Y-135106210D01*
X155665326Y-134901001D01*
X155665318Y-134900996D01*
X155380557Y-134728852D01*
X155077123Y-134592287D01*
X155077116Y-134592284D01*
X155077104Y-134592280D01*
X154759449Y-134493296D01*
X154759445Y-134493295D01*
X154759441Y-134493294D01*
X154432142Y-134433314D01*
X154432141Y-134433313D01*
X154432136Y-134433313D01*
X154183114Y-134418250D01*
X154183106Y-134418250D01*
X154016894Y-134418250D01*
X154016885Y-134418250D01*
X153767863Y-134433313D01*
X153767858Y-134433314D01*
X153440559Y-134493294D01*
X153440556Y-134493294D01*
X153440550Y-134493296D01*
X153122895Y-134592280D01*
X153122879Y-134592286D01*
X153122877Y-134592287D01*
X152929656Y-134679248D01*
X152819447Y-134728850D01*
X152819445Y-134728851D01*
X152534673Y-134901001D01*
X152272744Y-135106210D01*
X152037460Y-135341494D01*
X151832251Y-135603423D01*
X151660101Y-135888195D01*
X151660100Y-135888197D01*
X151523536Y-136191630D01*
X151523530Y-136191645D01*
X151424546Y-136509300D01*
X151424544Y-136509306D01*
X151424544Y-136509309D01*
X151390964Y-136692547D01*
X151364563Y-136836613D01*
X151344473Y-137168750D01*
X149950500Y-137168750D01*
X149950500Y-132018751D01*
X157769437Y-132018751D01*
X157789650Y-132249794D01*
X157789651Y-132249801D01*
X157849678Y-132473824D01*
X157849679Y-132473826D01*
X157849680Y-132473829D01*
X157947699Y-132684032D01*
X158080730Y-132874019D01*
X158244731Y-133038020D01*
X158434718Y-133171051D01*
X158644921Y-133269070D01*
X158868950Y-133329099D01*
X159033985Y-133343537D01*
X159099998Y-133349313D01*
X159100000Y-133349313D01*
X159100002Y-133349313D01*
X159157762Y-133344259D01*
X159331050Y-133329099D01*
X159555079Y-133269070D01*
X159765282Y-133171051D01*
X159955269Y-133038020D01*
X160119270Y-132874019D01*
X160252301Y-132684032D01*
X160350320Y-132473829D01*
X160410349Y-132249800D01*
X160430563Y-132018750D01*
X160410349Y-131787700D01*
X160350320Y-131563671D01*
X160252301Y-131353469D01*
X160252299Y-131353466D01*
X160252298Y-131353464D01*
X160119273Y-131163485D01*
X160119268Y-131163479D01*
X159955269Y-130999480D01*
X159955263Y-130999476D01*
X159765282Y-130866449D01*
X159555079Y-130768430D01*
X159555076Y-130768429D01*
X159555074Y-130768428D01*
X159331051Y-130708401D01*
X159331044Y-130708400D01*
X159100002Y-130688187D01*
X159099998Y-130688187D01*
X158868955Y-130708400D01*
X158868948Y-130708401D01*
X158644917Y-130768431D01*
X158434718Y-130866449D01*
X158434714Y-130866451D01*
X158244735Y-130999476D01*
X158244729Y-130999481D01*
X158080731Y-131163479D01*
X158080726Y-131163485D01*
X157947701Y-131353464D01*
X157947699Y-131353468D01*
X157849681Y-131563667D01*
X157789651Y-131787698D01*
X157789650Y-131787705D01*
X157769437Y-132018748D01*
X157769437Y-132018751D01*
X149950500Y-132018751D01*
X149950500Y-126400000D01*
X152919464Y-126400000D01*
X152939564Y-126616918D01*
X152999184Y-126826462D01*
X153096288Y-127021472D01*
X153227573Y-127195322D01*
X153388568Y-127342088D01*
X153388570Y-127342089D01*
X153388576Y-127342093D01*
X153573786Y-127456770D01*
X153573792Y-127456773D01*
X153596664Y-127465633D01*
X153776931Y-127535470D01*
X153991074Y-127575500D01*
X153991076Y-127575500D01*
X154208924Y-127575500D01*
X154208926Y-127575500D01*
X154423069Y-127535470D01*
X154626210Y-127456772D01*
X154811432Y-127342088D01*
X154876399Y-127282863D01*
X154939203Y-127252246D01*
X154959937Y-127250500D01*
X158616202Y-127250500D01*
X158683241Y-127270185D01*
X158703878Y-127286814D01*
X158817111Y-127400047D01*
X159003516Y-127530568D01*
X159209754Y-127626739D01*
X159429558Y-127685635D01*
X159591480Y-127699801D01*
X159656248Y-127705468D01*
X159656250Y-127705468D01*
X159656252Y-127705468D01*
X159712923Y-127700509D01*
X159882942Y-127685635D01*
X160102746Y-127626739D01*
X160308984Y-127530568D01*
X160495389Y-127400047D01*
X160656297Y-127239139D01*
X160786818Y-127052734D01*
X160882989Y-126846496D01*
X160941885Y-126626692D01*
X160961718Y-126400000D01*
X160941885Y-126173308D01*
X160882989Y-125953504D01*
X160786818Y-125747266D01*
X160656297Y-125560861D01*
X160656295Y-125560858D01*
X160495391Y-125399954D01*
X160308984Y-125269432D01*
X160308982Y-125269431D01*
X160102747Y-125173261D01*
X160102738Y-125173258D01*
X159882947Y-125114366D01*
X159882943Y-125114365D01*
X159882942Y-125114365D01*
X159882941Y-125114364D01*
X159882936Y-125114364D01*
X159656252Y-125094532D01*
X159656248Y-125094532D01*
X159429563Y-125114364D01*
X159429552Y-125114366D01*
X159209761Y-125173258D01*
X159209752Y-125173261D01*
X159003517Y-125269431D01*
X159003515Y-125269432D01*
X158817112Y-125399951D01*
X158760498Y-125456566D01*
X158703881Y-125513182D01*
X158642561Y-125546666D01*
X158616202Y-125549500D01*
X154959937Y-125549500D01*
X154892898Y-125529815D01*
X154876399Y-125517137D01*
X154811432Y-125457912D01*
X154811430Y-125457910D01*
X154626213Y-125343229D01*
X154626207Y-125343226D01*
X154541113Y-125310260D01*
X154423069Y-125264530D01*
X154208926Y-125224500D01*
X153991074Y-125224500D01*
X153776931Y-125264530D01*
X153764278Y-125269432D01*
X153573792Y-125343226D01*
X153573786Y-125343229D01*
X153388576Y-125457906D01*
X153388566Y-125457913D01*
X153227574Y-125604676D01*
X153096288Y-125778527D01*
X152999184Y-125973537D01*
X152939564Y-126183081D01*
X152919464Y-126399999D01*
X152919464Y-126400000D01*
X149950500Y-126400000D01*
X149950500Y-125165918D01*
X149970185Y-125098879D01*
X149975539Y-125091200D01*
X150103712Y-124921472D01*
X150200817Y-124726459D01*
X150260435Y-124516923D01*
X150280536Y-124300000D01*
X150260435Y-124083077D01*
X150200817Y-123873541D01*
X150103712Y-123678528D01*
X149975546Y-123508808D01*
X149950854Y-123443446D01*
X149950500Y-123434081D01*
X149950500Y-120500000D01*
X151344473Y-120500000D01*
X151364563Y-120832136D01*
X151364563Y-120832141D01*
X151364564Y-120832142D01*
X151424544Y-121159441D01*
X151424545Y-121159445D01*
X151424546Y-121159449D01*
X151523530Y-121477104D01*
X151523534Y-121477116D01*
X151523537Y-121477123D01*
X151660102Y-121780557D01*
X151832246Y-122065318D01*
X151832251Y-122065326D01*
X152037460Y-122327255D01*
X152272744Y-122562539D01*
X152534673Y-122767748D01*
X152534678Y-122767751D01*
X152534682Y-122767754D01*
X152819443Y-122939898D01*
X153122877Y-123076463D01*
X153122890Y-123076467D01*
X153122895Y-123076469D01*
X153334665Y-123142458D01*
X153440559Y-123175456D01*
X153767858Y-123235436D01*
X154016894Y-123250500D01*
X154016907Y-123250500D01*
X154183093Y-123250500D01*
X154183106Y-123250500D01*
X154432142Y-123235436D01*
X154759441Y-123175456D01*
X155077123Y-123076463D01*
X155380557Y-122939898D01*
X155665318Y-122767754D01*
X155927252Y-122562542D01*
X156162542Y-122327252D01*
X156367754Y-122065318D01*
X156539898Y-121780557D01*
X156676463Y-121477123D01*
X156775456Y-121159441D01*
X156835436Y-120832142D01*
X156855527Y-120500000D01*
X156835436Y-120167858D01*
X156775456Y-119840559D01*
X156709180Y-119627870D01*
X158355750Y-119627870D01*
X158355751Y-119627876D01*
X158362158Y-119687483D01*
X158412452Y-119822328D01*
X158412456Y-119822335D01*
X158498702Y-119937544D01*
X158498705Y-119937547D01*
X158613914Y-120023793D01*
X158613921Y-120023797D01*
X158748767Y-120074091D01*
X158748766Y-120074091D01*
X158755694Y-120074835D01*
X158808377Y-120080500D01*
X160504122Y-120080499D01*
X160563733Y-120074091D01*
X160698581Y-120023796D01*
X160813796Y-119937546D01*
X160900046Y-119822331D01*
X160950341Y-119687483D01*
X160956750Y-119627873D01*
X160956749Y-117932128D01*
X160950341Y-117872517D01*
X160932448Y-117824544D01*
X160900047Y-117737671D01*
X160900043Y-117737664D01*
X160813797Y-117622455D01*
X160813794Y-117622452D01*
X160698585Y-117536206D01*
X160698578Y-117536202D01*
X160563732Y-117485908D01*
X160563733Y-117485908D01*
X160504133Y-117479501D01*
X160504131Y-117479500D01*
X160504123Y-117479500D01*
X160504114Y-117479500D01*
X158808379Y-117479500D01*
X158808373Y-117479501D01*
X158748766Y-117485908D01*
X158613921Y-117536202D01*
X158613914Y-117536206D01*
X158498705Y-117622452D01*
X158498702Y-117622455D01*
X158412456Y-117737664D01*
X158412452Y-117737671D01*
X158362158Y-117872517D01*
X158355751Y-117932116D01*
X158355751Y-117932123D01*
X158355750Y-117932135D01*
X158355750Y-119627870D01*
X156709180Y-119627870D01*
X156676463Y-119522877D01*
X156539898Y-119219443D01*
X156367754Y-118934682D01*
X156367751Y-118934678D01*
X156367748Y-118934673D01*
X156162539Y-118672744D01*
X155927255Y-118437460D01*
X155665326Y-118232251D01*
X155665318Y-118232246D01*
X155380557Y-118060102D01*
X155077123Y-117923537D01*
X155077116Y-117923534D01*
X155077104Y-117923530D01*
X154759449Y-117824546D01*
X154759445Y-117824545D01*
X154759441Y-117824544D01*
X154432142Y-117764564D01*
X154432141Y-117764563D01*
X154432136Y-117764563D01*
X154183114Y-117749500D01*
X154183106Y-117749500D01*
X154016894Y-117749500D01*
X154016885Y-117749500D01*
X153767863Y-117764563D01*
X153767858Y-117764564D01*
X153440559Y-117824544D01*
X153440556Y-117824544D01*
X153440550Y-117824546D01*
X153122895Y-117923530D01*
X153122879Y-117923536D01*
X153122877Y-117923537D01*
X152929656Y-118010498D01*
X152819447Y-118060100D01*
X152819445Y-118060101D01*
X152534673Y-118232251D01*
X152272744Y-118437460D01*
X152037460Y-118672744D01*
X151832251Y-118934673D01*
X151660101Y-119219445D01*
X151660100Y-119219447D01*
X151523536Y-119522880D01*
X151523530Y-119522895D01*
X151424546Y-119840550D01*
X151424544Y-119840556D01*
X151424544Y-119840559D01*
X151390964Y-120023797D01*
X151364563Y-120167863D01*
X151344473Y-120500000D01*
X149950500Y-120500000D01*
X149950500Y-115350001D01*
X157769437Y-115350001D01*
X157789650Y-115581044D01*
X157789651Y-115581051D01*
X157849678Y-115805074D01*
X157849679Y-115805076D01*
X157849680Y-115805079D01*
X157947699Y-116015282D01*
X158080730Y-116205269D01*
X158244731Y-116369270D01*
X158434718Y-116502301D01*
X158644921Y-116600320D01*
X158868950Y-116660349D01*
X159033985Y-116674787D01*
X159099998Y-116680563D01*
X159100000Y-116680563D01*
X159100002Y-116680563D01*
X159157762Y-116675509D01*
X159331050Y-116660349D01*
X159555079Y-116600320D01*
X159765282Y-116502301D01*
X159955269Y-116369270D01*
X160119270Y-116205269D01*
X160252301Y-116015282D01*
X160350320Y-115805079D01*
X160410349Y-115581050D01*
X160430563Y-115350000D01*
X160410349Y-115118950D01*
X160350320Y-114894921D01*
X160252301Y-114684719D01*
X160252299Y-114684716D01*
X160252298Y-114684714D01*
X160119273Y-114494735D01*
X160119268Y-114494729D01*
X159955269Y-114330730D01*
X159955263Y-114330726D01*
X159765282Y-114197699D01*
X159555079Y-114099680D01*
X159555076Y-114099679D01*
X159555074Y-114099678D01*
X159331051Y-114039651D01*
X159331044Y-114039650D01*
X159100002Y-114019437D01*
X159099998Y-114019437D01*
X158868955Y-114039650D01*
X158868948Y-114039651D01*
X158644917Y-114099681D01*
X158434718Y-114197699D01*
X158434714Y-114197701D01*
X158244735Y-114330726D01*
X158244729Y-114330731D01*
X158080731Y-114494729D01*
X158080726Y-114494735D01*
X157947701Y-114684714D01*
X157947699Y-114684718D01*
X157849681Y-114894917D01*
X157789651Y-115118948D01*
X157789650Y-115118955D01*
X157769437Y-115349998D01*
X157769437Y-115350001D01*
X149950500Y-115350001D01*
X149950500Y-109731250D01*
X152919464Y-109731250D01*
X152939564Y-109948168D01*
X152999184Y-110157712D01*
X153096288Y-110352722D01*
X153227573Y-110526572D01*
X153388568Y-110673338D01*
X153388570Y-110673339D01*
X153388576Y-110673343D01*
X153573786Y-110788020D01*
X153573792Y-110788023D01*
X153596664Y-110796883D01*
X153776931Y-110866720D01*
X153991074Y-110906750D01*
X153991076Y-110906750D01*
X154208924Y-110906750D01*
X154208926Y-110906750D01*
X154423069Y-110866720D01*
X154626210Y-110788022D01*
X154811432Y-110673338D01*
X154876399Y-110614113D01*
X154939203Y-110583496D01*
X154959937Y-110581750D01*
X158616202Y-110581750D01*
X158683241Y-110601435D01*
X158703878Y-110618064D01*
X158817111Y-110731297D01*
X159003516Y-110861818D01*
X159209754Y-110957989D01*
X159429558Y-111016885D01*
X159591480Y-111031051D01*
X159656248Y-111036718D01*
X159656250Y-111036718D01*
X159656252Y-111036718D01*
X159712923Y-111031759D01*
X159882942Y-111016885D01*
X160102746Y-110957989D01*
X160308984Y-110861818D01*
X160495389Y-110731297D01*
X160656297Y-110570389D01*
X160786818Y-110383984D01*
X160882989Y-110177746D01*
X160941885Y-109957942D01*
X160961718Y-109731250D01*
X160941885Y-109504558D01*
X160882989Y-109284754D01*
X160786818Y-109078516D01*
X160656297Y-108892111D01*
X160656295Y-108892108D01*
X160495391Y-108731204D01*
X160308984Y-108600682D01*
X160308982Y-108600681D01*
X160102747Y-108504511D01*
X160102738Y-108504508D01*
X159882947Y-108445616D01*
X159882943Y-108445615D01*
X159882942Y-108445615D01*
X159882941Y-108445614D01*
X159882936Y-108445614D01*
X159656252Y-108425782D01*
X159656248Y-108425782D01*
X159429563Y-108445614D01*
X159429552Y-108445616D01*
X159209761Y-108504508D01*
X159209752Y-108504511D01*
X159003517Y-108600681D01*
X159003515Y-108600682D01*
X158817112Y-108731201D01*
X158760498Y-108787816D01*
X158703881Y-108844432D01*
X158642561Y-108877916D01*
X158616202Y-108880750D01*
X154959937Y-108880750D01*
X154892898Y-108861065D01*
X154876399Y-108848387D01*
X154811432Y-108789162D01*
X154811430Y-108789160D01*
X154626213Y-108674479D01*
X154626207Y-108674476D01*
X154541113Y-108641510D01*
X154423069Y-108595780D01*
X154208926Y-108555750D01*
X153991074Y-108555750D01*
X153776931Y-108595780D01*
X153764278Y-108600682D01*
X153573792Y-108674476D01*
X153573786Y-108674479D01*
X153388576Y-108789156D01*
X153388566Y-108789163D01*
X153227574Y-108935926D01*
X153096288Y-109109777D01*
X152999184Y-109304787D01*
X152939564Y-109514331D01*
X152919464Y-109731249D01*
X152919464Y-109731250D01*
X149950500Y-109731250D01*
X149950500Y-108497168D01*
X149970185Y-108430129D01*
X149975539Y-108422450D01*
X150103712Y-108252722D01*
X150200817Y-108057709D01*
X150260435Y-107848173D01*
X150280536Y-107631250D01*
X150260435Y-107414327D01*
X150200817Y-107204791D01*
X150103712Y-107009778D01*
X149975546Y-106840058D01*
X149950854Y-106774696D01*
X149950500Y-106765331D01*
X149950500Y-103831250D01*
X151344473Y-103831250D01*
X151364563Y-104163386D01*
X151364563Y-104163391D01*
X151364564Y-104163392D01*
X151424544Y-104490691D01*
X151424545Y-104490695D01*
X151424546Y-104490699D01*
X151523530Y-104808354D01*
X151523534Y-104808366D01*
X151523537Y-104808373D01*
X151660102Y-105111807D01*
X151832246Y-105396568D01*
X151832251Y-105396576D01*
X152037460Y-105658505D01*
X152272744Y-105893789D01*
X152534673Y-106098998D01*
X152534678Y-106099001D01*
X152534682Y-106099004D01*
X152819443Y-106271148D01*
X153122877Y-106407713D01*
X153122890Y-106407717D01*
X153122895Y-106407719D01*
X153334665Y-106473708D01*
X153440559Y-106506706D01*
X153767858Y-106566686D01*
X154016894Y-106581750D01*
X154016907Y-106581750D01*
X154183093Y-106581750D01*
X154183106Y-106581750D01*
X154432142Y-106566686D01*
X154759441Y-106506706D01*
X155077123Y-106407713D01*
X155380557Y-106271148D01*
X155665318Y-106099004D01*
X155927252Y-105893792D01*
X156162542Y-105658502D01*
X156367754Y-105396568D01*
X156539898Y-105111807D01*
X156676463Y-104808373D01*
X156775456Y-104490691D01*
X156835436Y-104163392D01*
X156855527Y-103831250D01*
X156835436Y-103499108D01*
X156775456Y-103171809D01*
X156709180Y-102959120D01*
X158355750Y-102959120D01*
X158355751Y-102959126D01*
X158362158Y-103018733D01*
X158412452Y-103153578D01*
X158412456Y-103153585D01*
X158498702Y-103268794D01*
X158498705Y-103268797D01*
X158613914Y-103355043D01*
X158613921Y-103355047D01*
X158748767Y-103405341D01*
X158748766Y-103405341D01*
X158755694Y-103406085D01*
X158808377Y-103411750D01*
X160504122Y-103411749D01*
X160563733Y-103405341D01*
X160698581Y-103355046D01*
X160813796Y-103268796D01*
X160900046Y-103153581D01*
X160950341Y-103018733D01*
X160956750Y-102959123D01*
X160956749Y-101263378D01*
X160950341Y-101203767D01*
X160932448Y-101155794D01*
X160900047Y-101068921D01*
X160900043Y-101068914D01*
X160813797Y-100953705D01*
X160813794Y-100953702D01*
X160698585Y-100867456D01*
X160698578Y-100867452D01*
X160563732Y-100817158D01*
X160563733Y-100817158D01*
X160504133Y-100810751D01*
X160504131Y-100810750D01*
X160504123Y-100810750D01*
X160504114Y-100810750D01*
X158808379Y-100810750D01*
X158808373Y-100810751D01*
X158748766Y-100817158D01*
X158613921Y-100867452D01*
X158613914Y-100867456D01*
X158498705Y-100953702D01*
X158498702Y-100953705D01*
X158412456Y-101068914D01*
X158412452Y-101068921D01*
X158362158Y-101203767D01*
X158355751Y-101263366D01*
X158355751Y-101263373D01*
X158355750Y-101263385D01*
X158355750Y-102959120D01*
X156709180Y-102959120D01*
X156676463Y-102854127D01*
X156539898Y-102550693D01*
X156367754Y-102265932D01*
X156367751Y-102265928D01*
X156367748Y-102265923D01*
X156162539Y-102003994D01*
X155927255Y-101768710D01*
X155665326Y-101563501D01*
X155665318Y-101563496D01*
X155380557Y-101391352D01*
X155077123Y-101254787D01*
X155077116Y-101254784D01*
X155077104Y-101254780D01*
X154759449Y-101155796D01*
X154759445Y-101155795D01*
X154759441Y-101155794D01*
X154432142Y-101095814D01*
X154432141Y-101095813D01*
X154432136Y-101095813D01*
X154183114Y-101080750D01*
X154183106Y-101080750D01*
X154016894Y-101080750D01*
X154016885Y-101080750D01*
X153767863Y-101095813D01*
X153767858Y-101095814D01*
X153440559Y-101155794D01*
X153440556Y-101155794D01*
X153440550Y-101155796D01*
X153122895Y-101254780D01*
X153122879Y-101254786D01*
X153122877Y-101254787D01*
X152929656Y-101341748D01*
X152819447Y-101391350D01*
X152819445Y-101391351D01*
X152534673Y-101563501D01*
X152272744Y-101768710D01*
X152037460Y-102003994D01*
X151832251Y-102265923D01*
X151660101Y-102550695D01*
X151660100Y-102550697D01*
X151523536Y-102854130D01*
X151523530Y-102854145D01*
X151424546Y-103171800D01*
X151424544Y-103171806D01*
X151424544Y-103171809D01*
X151390964Y-103355047D01*
X151364563Y-103499113D01*
X151344473Y-103831250D01*
X149950500Y-103831250D01*
X149950500Y-98681251D01*
X157769437Y-98681251D01*
X157789650Y-98912294D01*
X157789651Y-98912301D01*
X157849678Y-99136324D01*
X157849679Y-99136326D01*
X157849680Y-99136329D01*
X157947699Y-99346532D01*
X158080730Y-99536519D01*
X158244731Y-99700520D01*
X158434718Y-99833551D01*
X158644921Y-99931570D01*
X158868950Y-99991599D01*
X159033985Y-100006037D01*
X159099998Y-100011813D01*
X159100000Y-100011813D01*
X159100002Y-100011813D01*
X159157762Y-100006759D01*
X159331050Y-99991599D01*
X159555079Y-99931570D01*
X159765282Y-99833551D01*
X159955269Y-99700520D01*
X160119270Y-99536519D01*
X160252301Y-99346532D01*
X160350320Y-99136329D01*
X160410349Y-98912300D01*
X160430563Y-98681250D01*
X160410349Y-98450200D01*
X160350320Y-98226171D01*
X160252301Y-98015969D01*
X160252299Y-98015966D01*
X160252298Y-98015964D01*
X160119273Y-97825985D01*
X160119268Y-97825979D01*
X159955269Y-97661980D01*
X159955263Y-97661976D01*
X159765282Y-97528949D01*
X159555079Y-97430930D01*
X159555076Y-97430929D01*
X159555074Y-97430928D01*
X159331051Y-97370901D01*
X159331044Y-97370900D01*
X159100002Y-97350687D01*
X159099998Y-97350687D01*
X158868955Y-97370900D01*
X158868948Y-97370901D01*
X158644917Y-97430931D01*
X158434718Y-97528949D01*
X158434714Y-97528951D01*
X158244735Y-97661976D01*
X158244729Y-97661981D01*
X158080731Y-97825979D01*
X158080726Y-97825985D01*
X157947701Y-98015964D01*
X157947699Y-98015968D01*
X157849681Y-98226167D01*
X157789651Y-98450198D01*
X157789650Y-98450205D01*
X157769437Y-98681248D01*
X157769437Y-98681251D01*
X149950500Y-98681251D01*
X149950500Y-93062500D01*
X152919464Y-93062500D01*
X152939564Y-93279418D01*
X152999184Y-93488962D01*
X153096288Y-93683972D01*
X153227573Y-93857822D01*
X153388568Y-94004588D01*
X153388570Y-94004589D01*
X153388576Y-94004593D01*
X153573786Y-94119270D01*
X153573792Y-94119273D01*
X153596664Y-94128133D01*
X153776931Y-94197970D01*
X153991074Y-94238000D01*
X153991076Y-94238000D01*
X154208924Y-94238000D01*
X154208926Y-94238000D01*
X154423069Y-94197970D01*
X154626210Y-94119272D01*
X154811432Y-94004588D01*
X154876399Y-93945363D01*
X154939203Y-93914746D01*
X154959937Y-93913000D01*
X158616202Y-93913000D01*
X158683241Y-93932685D01*
X158703878Y-93949314D01*
X158817111Y-94062547D01*
X159003516Y-94193068D01*
X159209754Y-94289239D01*
X159429558Y-94348135D01*
X159591480Y-94362301D01*
X159656248Y-94367968D01*
X159656250Y-94367968D01*
X159656252Y-94367968D01*
X159712923Y-94363009D01*
X159882942Y-94348135D01*
X160102746Y-94289239D01*
X160308984Y-94193068D01*
X160495389Y-94062547D01*
X160656297Y-93901639D01*
X160786818Y-93715234D01*
X160882989Y-93508996D01*
X160941885Y-93289192D01*
X160961718Y-93062500D01*
X160941885Y-92835808D01*
X160882989Y-92616004D01*
X160786818Y-92409766D01*
X160656297Y-92223361D01*
X160656295Y-92223358D01*
X160495391Y-92062454D01*
X160308984Y-91931932D01*
X160308982Y-91931931D01*
X160102747Y-91835761D01*
X160102738Y-91835758D01*
X159882947Y-91776866D01*
X159882943Y-91776865D01*
X159882942Y-91776865D01*
X159882941Y-91776864D01*
X159882936Y-91776864D01*
X159656252Y-91757032D01*
X159656248Y-91757032D01*
X159429563Y-91776864D01*
X159429552Y-91776866D01*
X159209761Y-91835758D01*
X159209752Y-91835761D01*
X159003517Y-91931931D01*
X159003515Y-91931932D01*
X158817112Y-92062451D01*
X158760498Y-92119066D01*
X158703881Y-92175682D01*
X158642561Y-92209166D01*
X158616202Y-92212000D01*
X154959937Y-92212000D01*
X154892898Y-92192315D01*
X154876399Y-92179637D01*
X154811432Y-92120412D01*
X154811430Y-92120410D01*
X154626213Y-92005729D01*
X154626207Y-92005726D01*
X154541113Y-91972760D01*
X154423069Y-91927030D01*
X154208926Y-91887000D01*
X153991074Y-91887000D01*
X153776931Y-91927030D01*
X153764278Y-91931932D01*
X153573792Y-92005726D01*
X153573786Y-92005729D01*
X153388576Y-92120406D01*
X153388566Y-92120413D01*
X153227574Y-92267176D01*
X153096288Y-92441027D01*
X152999184Y-92636037D01*
X152939564Y-92845581D01*
X152919464Y-93062499D01*
X152919464Y-93062500D01*
X149950500Y-93062500D01*
X149950500Y-91828418D01*
X149970185Y-91761379D01*
X149975539Y-91753700D01*
X150103712Y-91583972D01*
X150200817Y-91388959D01*
X150260435Y-91179423D01*
X150280536Y-90962500D01*
X150260435Y-90745577D01*
X150200817Y-90536041D01*
X150103712Y-90341028D01*
X149975546Y-90171308D01*
X149950854Y-90105946D01*
X149950500Y-90096581D01*
X149950500Y-87162500D01*
X151344473Y-87162500D01*
X151364563Y-87494636D01*
X151364563Y-87494641D01*
X151364564Y-87494642D01*
X151424544Y-87821941D01*
X151424545Y-87821945D01*
X151424546Y-87821949D01*
X151523530Y-88139604D01*
X151523534Y-88139616D01*
X151523537Y-88139623D01*
X151660102Y-88443057D01*
X151832246Y-88727818D01*
X151832251Y-88727826D01*
X152037460Y-88989755D01*
X152272744Y-89225039D01*
X152534673Y-89430248D01*
X152534678Y-89430251D01*
X152534682Y-89430254D01*
X152819443Y-89602398D01*
X153122877Y-89738963D01*
X153122890Y-89738967D01*
X153122895Y-89738969D01*
X153334665Y-89804958D01*
X153440559Y-89837956D01*
X153767858Y-89897936D01*
X154016894Y-89913000D01*
X154016907Y-89913000D01*
X154183093Y-89913000D01*
X154183106Y-89913000D01*
X154432142Y-89897936D01*
X154759441Y-89837956D01*
X155077123Y-89738963D01*
X155380557Y-89602398D01*
X155665318Y-89430254D01*
X155927252Y-89225042D01*
X156162542Y-88989752D01*
X156367754Y-88727818D01*
X156539898Y-88443057D01*
X156676463Y-88139623D01*
X156775456Y-87821941D01*
X156835436Y-87494642D01*
X156855527Y-87162500D01*
X156835436Y-86830358D01*
X156775456Y-86503059D01*
X156709180Y-86290370D01*
X158355750Y-86290370D01*
X158355751Y-86290376D01*
X158362158Y-86349983D01*
X158412452Y-86484828D01*
X158412456Y-86484835D01*
X158498702Y-86600044D01*
X158498705Y-86600047D01*
X158613914Y-86686293D01*
X158613921Y-86686297D01*
X158748767Y-86736591D01*
X158748766Y-86736591D01*
X158755694Y-86737335D01*
X158808377Y-86743000D01*
X160504122Y-86742999D01*
X160563733Y-86736591D01*
X160698581Y-86686296D01*
X160813796Y-86600046D01*
X160900046Y-86484831D01*
X160950341Y-86349983D01*
X160956750Y-86290373D01*
X160956749Y-84594628D01*
X160950341Y-84535017D01*
X160932448Y-84487044D01*
X160900047Y-84400171D01*
X160900043Y-84400164D01*
X160813797Y-84284955D01*
X160813794Y-84284952D01*
X160698585Y-84198706D01*
X160698578Y-84198702D01*
X160563732Y-84148408D01*
X160563733Y-84148408D01*
X160504133Y-84142001D01*
X160504131Y-84142000D01*
X160504123Y-84142000D01*
X160504114Y-84142000D01*
X158808379Y-84142000D01*
X158808373Y-84142001D01*
X158748766Y-84148408D01*
X158613921Y-84198702D01*
X158613914Y-84198706D01*
X158498705Y-84284952D01*
X158498702Y-84284955D01*
X158412456Y-84400164D01*
X158412452Y-84400171D01*
X158362158Y-84535017D01*
X158355751Y-84594616D01*
X158355751Y-84594623D01*
X158355750Y-84594635D01*
X158355750Y-86290370D01*
X156709180Y-86290370D01*
X156676463Y-86185377D01*
X156539898Y-85881943D01*
X156367754Y-85597182D01*
X156367751Y-85597178D01*
X156367748Y-85597173D01*
X156162539Y-85335244D01*
X155927255Y-85099960D01*
X155665326Y-84894751D01*
X155665318Y-84894746D01*
X155380557Y-84722602D01*
X155077123Y-84586037D01*
X155077116Y-84586034D01*
X155077104Y-84586030D01*
X154759449Y-84487046D01*
X154759445Y-84487045D01*
X154759441Y-84487044D01*
X154432142Y-84427064D01*
X154432141Y-84427063D01*
X154432136Y-84427063D01*
X154183114Y-84412000D01*
X154183106Y-84412000D01*
X154016894Y-84412000D01*
X154016885Y-84412000D01*
X153767863Y-84427063D01*
X153767858Y-84427064D01*
X153440559Y-84487044D01*
X153440556Y-84487044D01*
X153440550Y-84487046D01*
X153122895Y-84586030D01*
X153122879Y-84586036D01*
X153122877Y-84586037D01*
X152929656Y-84672998D01*
X152819447Y-84722600D01*
X152819445Y-84722601D01*
X152534673Y-84894751D01*
X152272744Y-85099960D01*
X152037460Y-85335244D01*
X151832251Y-85597173D01*
X151660101Y-85881945D01*
X151660100Y-85881947D01*
X151523536Y-86185380D01*
X151523530Y-86185395D01*
X151424546Y-86503050D01*
X151424544Y-86503056D01*
X151424544Y-86503059D01*
X151390964Y-86686297D01*
X151364563Y-86830363D01*
X151344473Y-87162500D01*
X149950500Y-87162500D01*
X149950500Y-82012501D01*
X157769437Y-82012501D01*
X157789650Y-82243544D01*
X157789651Y-82243551D01*
X157849678Y-82467574D01*
X157849679Y-82467576D01*
X157849680Y-82467579D01*
X157947699Y-82677782D01*
X158080730Y-82867769D01*
X158244731Y-83031770D01*
X158434718Y-83164801D01*
X158644921Y-83262820D01*
X158868950Y-83322849D01*
X159033985Y-83337287D01*
X159099998Y-83343063D01*
X159100000Y-83343063D01*
X159100002Y-83343063D01*
X159157762Y-83338009D01*
X159331050Y-83322849D01*
X159555079Y-83262820D01*
X159765282Y-83164801D01*
X159955269Y-83031770D01*
X160119270Y-82867769D01*
X160252301Y-82677782D01*
X160350320Y-82467579D01*
X160410349Y-82243550D01*
X160430563Y-82012500D01*
X160410349Y-81781450D01*
X160350320Y-81557421D01*
X160252301Y-81347219D01*
X160252299Y-81347216D01*
X160252298Y-81347214D01*
X160119273Y-81157235D01*
X160119268Y-81157229D01*
X159955269Y-80993230D01*
X159955263Y-80993226D01*
X159765282Y-80860199D01*
X159555079Y-80762180D01*
X159555076Y-80762179D01*
X159555074Y-80762178D01*
X159331051Y-80702151D01*
X159331044Y-80702150D01*
X159100002Y-80681937D01*
X159099998Y-80681937D01*
X158868955Y-80702150D01*
X158868948Y-80702151D01*
X158644917Y-80762181D01*
X158434718Y-80860199D01*
X158434714Y-80860201D01*
X158244735Y-80993226D01*
X158244729Y-80993231D01*
X158080731Y-81157229D01*
X158080726Y-81157235D01*
X157947701Y-81347214D01*
X157947699Y-81347218D01*
X157849681Y-81557417D01*
X157789651Y-81781448D01*
X157789650Y-81781455D01*
X157769437Y-82012498D01*
X157769437Y-82012501D01*
X149950500Y-82012501D01*
X149950500Y-68791150D01*
X149970185Y-68724111D01*
X149986819Y-68703469D01*
X155097219Y-63593069D01*
X155158542Y-63559584D01*
X155184900Y-63556750D01*
X168506448Y-63556750D01*
X168564900Y-63571391D01*
X168684023Y-63635064D01*
X168872618Y-63692274D01*
X169068750Y-63711591D01*
X169264882Y-63692274D01*
X169453477Y-63635064D01*
X169627288Y-63542160D01*
X169779633Y-63417133D01*
X169904660Y-63264788D01*
X169997564Y-63090977D01*
X170054774Y-62902382D01*
X170074091Y-62706250D01*
X170054774Y-62510118D01*
X169997564Y-62321523D01*
X169997561Y-62321519D01*
X169997561Y-62321516D01*
X169904663Y-62147717D01*
X169904659Y-62147710D01*
X169779633Y-61995366D01*
X169627289Y-61870340D01*
X169627282Y-61870336D01*
X169453483Y-61777438D01*
X169453477Y-61777436D01*
X169264882Y-61720226D01*
X169264879Y-61720225D01*
X169068750Y-61700909D01*
X168872620Y-61720225D01*
X168684019Y-61777437D01*
X168605456Y-61819431D01*
X168564900Y-61841108D01*
X168506448Y-61855750D01*
X168428652Y-61855750D01*
X168361613Y-61836065D01*
X168315858Y-61783261D01*
X168305914Y-61714103D01*
X168319294Y-61673297D01*
X168410061Y-61503482D01*
X168410064Y-61503477D01*
X168467274Y-61314882D01*
X168486591Y-61118750D01*
X168467274Y-60922618D01*
X168410064Y-60734023D01*
X168410061Y-60734019D01*
X168410061Y-60734016D01*
X168317163Y-60560217D01*
X168317159Y-60560210D01*
X168192133Y-60407866D01*
X168039789Y-60282840D01*
X168039782Y-60282836D01*
X167865983Y-60189938D01*
X167865977Y-60189936D01*
X167677382Y-60132726D01*
X167677379Y-60132725D01*
X167481250Y-60113409D01*
X167285120Y-60132725D01*
X167096519Y-60189937D01*
X167009340Y-60236536D01*
X166977400Y-60253608D01*
X166918948Y-60268250D01*
X145295856Y-60268250D01*
X145285793Y-60267841D01*
X145281569Y-60267497D01*
X145233084Y-60263548D01*
X145233076Y-60263549D01*
X145154515Y-60274252D01*
X145151186Y-60274660D01*
X145090302Y-60281282D01*
X145072340Y-60283236D01*
X145072336Y-60283237D01*
X145071381Y-60283447D01*
X145050721Y-60288288D01*
X145049788Y-60288520D01*
X144975324Y-60315876D01*
X144972161Y-60316989D01*
X144897034Y-60342303D01*
X144896170Y-60342703D01*
X144876954Y-60351910D01*
X144876135Y-60352317D01*
X144809309Y-60395030D01*
X144806458Y-60396798D01*
X144738515Y-60437678D01*
X144737744Y-60438265D01*
X144721041Y-60451322D01*
X144720262Y-60451949D01*
X144664209Y-60508001D01*
X144661806Y-60510339D01*
X144604206Y-60564903D01*
X144603572Y-60565649D01*
X144589343Y-60582866D01*
X131857860Y-73314349D01*
X131850458Y-73321174D01*
X131810150Y-73355413D01*
X131762174Y-73418522D01*
X131760108Y-73421164D01*
X131710408Y-73482994D01*
X131709899Y-73483791D01*
X131698719Y-73501816D01*
X131698191Y-73502693D01*
X131664892Y-73574666D01*
X131663443Y-73577690D01*
X131628216Y-73648722D01*
X131627832Y-73649767D01*
X131620830Y-73669656D01*
X131620518Y-73670582D01*
X131603469Y-73748032D01*
X131602703Y-73751299D01*
X131583564Y-73828258D01*
X131583441Y-73829166D01*
X131580857Y-73850266D01*
X131580750Y-73851251D01*
X131580750Y-73930522D01*
X131580705Y-73933879D01*
X131578556Y-74013187D01*
X131578639Y-74014197D01*
X131580750Y-74036399D01*
X131580750Y-90096581D01*
X131561065Y-90163620D01*
X131555704Y-90171308D01*
X131427538Y-90341027D01*
X131330434Y-90536037D01*
X131270814Y-90745581D01*
X131250714Y-90962499D01*
X131250714Y-90962500D01*
X131270814Y-91179418D01*
X131270814Y-91179420D01*
X131270815Y-91179423D01*
X131330433Y-91388959D01*
X131427538Y-91583972D01*
X131555704Y-91753692D01*
X131580396Y-91819052D01*
X131580750Y-91828418D01*
X131580750Y-106765331D01*
X131561065Y-106832370D01*
X131555704Y-106840058D01*
X131427538Y-107009777D01*
X131330434Y-107204787D01*
X131270814Y-107414331D01*
X131250714Y-107631249D01*
X131250714Y-107631250D01*
X131270814Y-107848168D01*
X131270814Y-107848170D01*
X131270815Y-107848173D01*
X131330433Y-108057709D01*
X131427538Y-108252722D01*
X131555704Y-108422442D01*
X131580396Y-108487802D01*
X131580750Y-108497168D01*
X131580750Y-123434081D01*
X131561065Y-123501120D01*
X131555704Y-123508808D01*
X131427538Y-123678527D01*
X131330434Y-123873537D01*
X131270814Y-124083081D01*
X131250714Y-124299999D01*
X131250714Y-124300000D01*
X131270814Y-124516918D01*
X131270814Y-124516920D01*
X131270815Y-124516923D01*
X131330433Y-124726459D01*
X131427538Y-124921472D01*
X131555704Y-125091192D01*
X131580396Y-125156552D01*
X131580750Y-125165918D01*
X131580750Y-140102831D01*
X131561065Y-140169870D01*
X131555704Y-140177558D01*
X131427538Y-140347277D01*
X131330434Y-140542287D01*
X131270814Y-140751831D01*
X131250714Y-140968749D01*
X131250714Y-140968750D01*
X125417034Y-140968750D01*
X126545325Y-139840460D01*
X126238244Y-139683994D01*
X125876186Y-139545012D01*
X125501580Y-139444637D01*
X125501573Y-139444636D01*
X125118537Y-139383969D01*
X124731251Y-139363672D01*
X124731249Y-139363672D01*
X124343962Y-139383969D01*
X123960926Y-139444636D01*
X123960919Y-139444637D01*
X123586313Y-139545012D01*
X123224255Y-139683994D01*
X122917172Y-139840459D01*
X124554431Y-141477718D01*
X124480181Y-141483562D01*
X124235294Y-141542354D01*
X124002619Y-141638731D01*
X123787885Y-141770320D01*
X123596380Y-141933880D01*
X123432820Y-142125385D01*
X123301231Y-142340119D01*
X123204854Y-142572794D01*
X123146062Y-142817681D01*
X123140218Y-142891931D01*
X121502959Y-141254672D01*
X121361314Y-141532671D01*
X121313340Y-141583468D01*
X121245519Y-141600263D01*
X121179384Y-141577726D01*
X121135932Y-141523011D01*
X121126829Y-141476377D01*
X121126829Y-55761123D01*
X121146514Y-55694084D01*
X121199318Y-55648329D01*
X121268476Y-55638385D01*
X121332032Y-55667410D01*
X121361314Y-55704828D01*
X121502960Y-55982825D01*
X123140218Y-54345567D01*
X123146062Y-54419819D01*
X123204854Y-54664706D01*
X123301231Y-54897381D01*
X123432820Y-55112115D01*
X123596380Y-55303620D01*
X123787885Y-55467180D01*
X124002619Y-55598769D01*
X124235294Y-55695146D01*
X124480181Y-55753938D01*
X124554431Y-55759781D01*
X122917173Y-57397038D01*
X123224255Y-57553505D01*
X123586313Y-57692487D01*
X123960919Y-57792862D01*
X123960926Y-57792863D01*
X124343962Y-57853530D01*
X124731249Y-57873828D01*
X124731251Y-57873828D01*
X125118537Y-57853530D01*
X125501573Y-57792863D01*
X125501580Y-57792862D01*
X125876186Y-57692487D01*
X126238244Y-57553505D01*
X126545325Y-57397038D01*
X124908068Y-55759781D01*
X124982319Y-55753938D01*
X125227206Y-55695146D01*
X125459881Y-55598769D01*
X125674615Y-55467180D01*
X125866120Y-55303620D01*
X126029680Y-55112115D01*
X126161269Y-54897381D01*
X126257646Y-54664706D01*
X126316438Y-54419819D01*
X126322281Y-54345568D01*
X127959538Y-55982825D01*
X128116005Y-55675744D01*
X128254987Y-55313686D01*
X128355362Y-54939080D01*
X128355363Y-54939073D01*
X128416030Y-54556037D01*
X128436328Y-54168750D01*
X128436328Y-54168749D01*
X128416030Y-53781462D01*
X128355363Y-53398426D01*
X128355362Y-53398419D01*
X128339039Y-53337500D01*
X158819143Y-53337500D01*
X158843614Y-53389979D01*
X158843615Y-53389981D01*
X158974089Y-53576316D01*
X159134935Y-53737163D01*
X159173749Y-53764341D01*
X159173750Y-53764341D01*
X160773750Y-53764341D01*
X160812564Y-53737163D01*
X160973410Y-53576316D01*
X161103882Y-53389984D01*
X161131091Y-53331634D01*
X161177263Y-53279195D01*
X161244457Y-53260042D01*
X161311338Y-53280257D01*
X161355856Y-53331633D01*
X161383181Y-53390232D01*
X161383182Y-53390234D01*
X161513704Y-53576641D01*
X161674608Y-53737545D01*
X161674611Y-53737547D01*
X161861016Y-53868068D01*
X162067254Y-53964239D01*
X162287058Y-54023135D01*
X162448980Y-54037301D01*
X162513748Y-54042968D01*
X162513750Y-54042968D01*
X162513752Y-54042968D01*
X162570423Y-54038009D01*
X162740442Y-54023135D01*
X162960246Y-53964239D01*
X163166484Y-53868068D01*
X163352889Y-53737547D01*
X163513797Y-53576639D01*
X163644318Y-53390234D01*
X163671368Y-53332224D01*
X163717540Y-53279785D01*
X163784733Y-53260633D01*
X163851615Y-53280848D01*
X163896132Y-53332225D01*
X163923179Y-53390228D01*
X163923182Y-53390234D01*
X164053701Y-53576637D01*
X164053702Y-53576638D01*
X164053703Y-53576639D01*
X164166932Y-53689868D01*
X164200416Y-53751189D01*
X164203250Y-53777548D01*
X164203250Y-54309142D01*
X164202841Y-54319206D01*
X164198548Y-54371914D01*
X164209252Y-54450482D01*
X164209660Y-54453812D01*
X164218236Y-54532662D01*
X164218460Y-54533680D01*
X164223275Y-54554223D01*
X164223524Y-54555221D01*
X164250863Y-54629641D01*
X164251977Y-54632803D01*
X164267330Y-54678364D01*
X164277306Y-54707971D01*
X164277307Y-54707973D01*
X164277308Y-54707975D01*
X164277751Y-54708935D01*
X164286896Y-54728016D01*
X164287314Y-54728859D01*
X164330017Y-54795668D01*
X164331786Y-54798521D01*
X164372677Y-54866483D01*
X164373288Y-54867286D01*
X164386328Y-54883966D01*
X164386947Y-54884736D01*
X164386949Y-54884738D01*
X164386950Y-54884739D01*
X164443053Y-54940842D01*
X164445359Y-54943212D01*
X164499901Y-55000791D01*
X164499905Y-55000793D01*
X164500733Y-55001497D01*
X164517869Y-55015658D01*
X174369342Y-64867130D01*
X174376169Y-64874535D01*
X174410413Y-64914850D01*
X174459859Y-64952438D01*
X174473546Y-64962842D01*
X174476144Y-64964873D01*
X174537996Y-65014592D01*
X174537997Y-65014592D01*
X174537998Y-65014593D01*
X174538961Y-65015209D01*
X174556719Y-65026223D01*
X174557681Y-65026801D01*
X174557683Y-65026802D01*
X174557686Y-65026804D01*
X174629663Y-65060104D01*
X174632662Y-65061541D01*
X174703733Y-65096789D01*
X174704769Y-65097169D01*
X174724603Y-65104152D01*
X174725580Y-65104480D01*
X174725583Y-65104482D01*
X174725585Y-65104482D01*
X174725587Y-65104483D01*
X174803003Y-65121523D01*
X174806264Y-65122286D01*
X174883256Y-65141434D01*
X174883258Y-65141434D01*
X174883262Y-65141435D01*
X174884354Y-65141583D01*
X174905125Y-65144127D01*
X174906252Y-65144249D01*
X174906253Y-65144250D01*
X174985523Y-65144250D01*
X174988880Y-65144295D01*
X175068182Y-65146443D01*
X175068182Y-65146442D01*
X175068185Y-65146443D01*
X175069229Y-65146358D01*
X175091398Y-65144250D01*
X189143948Y-65144250D01*
X189202400Y-65158891D01*
X189321523Y-65222564D01*
X189510118Y-65279774D01*
X189706250Y-65299091D01*
X189902382Y-65279774D01*
X190090977Y-65222564D01*
X190106158Y-65214450D01*
X190188631Y-65170367D01*
X190264788Y-65129660D01*
X190417133Y-65004633D01*
X190542160Y-64852288D01*
X190635064Y-64678477D01*
X190692274Y-64489882D01*
X190711591Y-64293750D01*
X190692274Y-64097618D01*
X190635064Y-63909023D01*
X190635061Y-63909019D01*
X190635061Y-63909016D01*
X190542163Y-63735217D01*
X190542159Y-63735210D01*
X190413685Y-63578665D01*
X190386372Y-63514355D01*
X190398163Y-63445488D01*
X190413685Y-63421335D01*
X190542159Y-63264789D01*
X190542163Y-63264782D01*
X190635061Y-63090983D01*
X190635061Y-63090982D01*
X190635064Y-63090977D01*
X190692274Y-62902382D01*
X190711591Y-62706250D01*
X190692274Y-62510118D01*
X190635064Y-62321523D01*
X190635061Y-62321519D01*
X190635061Y-62321516D01*
X190542163Y-62147717D01*
X190542159Y-62147710D01*
X190417133Y-61995366D01*
X190264789Y-61870340D01*
X190264782Y-61870336D01*
X190090983Y-61777438D01*
X190090977Y-61777436D01*
X189902382Y-61720226D01*
X189902379Y-61720225D01*
X189706250Y-61700909D01*
X189510120Y-61720225D01*
X189321519Y-61777437D01*
X189242956Y-61819431D01*
X189202400Y-61841108D01*
X189143948Y-61855750D01*
X175741150Y-61855750D01*
X175674111Y-61836065D01*
X175653469Y-61819431D01*
X173171539Y-59337501D01*
X182849500Y-59337501D01*
X182849501Y-59337518D01*
X182860000Y-59440296D01*
X182860001Y-59440299D01*
X182915185Y-59606831D01*
X182915186Y-59606834D01*
X183007288Y-59756156D01*
X183131344Y-59880212D01*
X183280666Y-59972314D01*
X183447203Y-60027499D01*
X183549991Y-60038000D01*
X184750008Y-60037999D01*
X184852797Y-60027499D01*
X185019334Y-59972314D01*
X185168656Y-59880212D01*
X185292712Y-59756156D01*
X185384814Y-59606834D01*
X185439999Y-59440297D01*
X185450500Y-59337509D01*
X185450499Y-58137492D01*
X185439999Y-58034703D01*
X185384814Y-57868166D01*
X185292712Y-57718844D01*
X185168656Y-57594788D01*
X185019334Y-57502686D01*
X184852797Y-57447501D01*
X184852795Y-57447500D01*
X184750010Y-57437000D01*
X183549998Y-57437000D01*
X183549981Y-57437001D01*
X183447203Y-57447500D01*
X183447200Y-57447501D01*
X183280668Y-57502685D01*
X183280663Y-57502687D01*
X183131342Y-57594789D01*
X183007289Y-57718842D01*
X182915187Y-57868163D01*
X182915185Y-57868168D01*
X182887349Y-57952170D01*
X182860001Y-58034703D01*
X182860001Y-58034704D01*
X182860000Y-58034704D01*
X182849500Y-58137483D01*
X182849500Y-59337501D01*
X173171539Y-59337501D01*
X168480569Y-54646530D01*
X168447084Y-54585207D01*
X168444250Y-54558849D01*
X168444250Y-53777548D01*
X168463935Y-53710509D01*
X168480564Y-53689871D01*
X168593797Y-53576639D01*
X168724318Y-53390234D01*
X168820489Y-53183996D01*
X168879385Y-52964192D01*
X168894250Y-52794284D01*
X168894250Y-52280716D01*
X168879385Y-52110808D01*
X168820489Y-51891004D01*
X168724318Y-51684766D01*
X168593797Y-51498361D01*
X168593795Y-51498358D01*
X168432891Y-51337454D01*
X168246484Y-51206932D01*
X168246482Y-51206931D01*
X168040247Y-51110761D01*
X168040238Y-51110758D01*
X167820447Y-51051866D01*
X167820443Y-51051865D01*
X167820442Y-51051865D01*
X167820441Y-51051864D01*
X167820436Y-51051864D01*
X167593752Y-51032032D01*
X167593748Y-51032032D01*
X167367063Y-51051864D01*
X167367052Y-51051866D01*
X167147261Y-51110758D01*
X167147252Y-51110761D01*
X166941017Y-51206931D01*
X166941015Y-51206932D01*
X166754608Y-51337454D01*
X166593704Y-51498358D01*
X166463182Y-51684765D01*
X166463181Y-51684767D01*
X166436132Y-51742775D01*
X166389959Y-51795214D01*
X166322766Y-51814366D01*
X166255885Y-51794150D01*
X166211368Y-51742775D01*
X166203378Y-51725640D01*
X166184318Y-51684766D01*
X166053797Y-51498361D01*
X166053795Y-51498358D01*
X165892891Y-51337454D01*
X165706484Y-51206932D01*
X165706482Y-51206931D01*
X165500247Y-51110761D01*
X165500238Y-51110758D01*
X165280447Y-51051866D01*
X165280443Y-51051865D01*
X165280442Y-51051865D01*
X165280441Y-51051864D01*
X165280436Y-51051864D01*
X165053752Y-51032032D01*
X165053748Y-51032032D01*
X164827063Y-51051864D01*
X164827052Y-51051866D01*
X164607261Y-51110758D01*
X164607252Y-51110761D01*
X164401017Y-51206931D01*
X164401015Y-51206932D01*
X164214608Y-51337454D01*
X164053704Y-51498358D01*
X163923182Y-51684765D01*
X163923181Y-51684767D01*
X163896132Y-51742775D01*
X163849959Y-51795214D01*
X163782766Y-51814366D01*
X163715885Y-51794150D01*
X163671368Y-51742775D01*
X163663378Y-51725640D01*
X163644318Y-51684766D01*
X163513797Y-51498361D01*
X163513795Y-51498358D01*
X163352891Y-51337454D01*
X163166484Y-51206932D01*
X163166482Y-51206931D01*
X162960247Y-51110761D01*
X162960238Y-51110758D01*
X162740447Y-51051866D01*
X162740443Y-51051865D01*
X162740442Y-51051865D01*
X162740441Y-51051864D01*
X162740436Y-51051864D01*
X162513752Y-51032032D01*
X162513748Y-51032032D01*
X162287063Y-51051864D01*
X162287052Y-51051866D01*
X162067261Y-51110758D01*
X162067252Y-51110761D01*
X161861017Y-51206931D01*
X161861015Y-51206932D01*
X161674608Y-51337454D01*
X161513704Y-51498358D01*
X161383183Y-51684764D01*
X161383182Y-51684766D01*
X161364125Y-51725635D01*
X161355856Y-51743367D01*
X161309683Y-51795806D01*
X161242489Y-51814957D01*
X161175608Y-51794741D01*
X161131092Y-51743365D01*
X161103885Y-51685020D01*
X161103884Y-51685018D01*
X160973407Y-51498679D01*
X160812569Y-51337841D01*
X160812563Y-51337836D01*
X160773750Y-51310658D01*
X160773750Y-53764341D01*
X159173750Y-53764341D01*
X159173750Y-53337500D01*
X158819143Y-53337500D01*
X128339039Y-53337500D01*
X128254987Y-53023813D01*
X128116005Y-52661755D01*
X128089323Y-52609389D01*
X159473750Y-52609389D01*
X159514257Y-52747344D01*
X159591989Y-52868298D01*
X159700650Y-52962452D01*
X159831435Y-53022180D01*
X159937987Y-53037500D01*
X160009513Y-53037500D01*
X160116065Y-53022180D01*
X160246850Y-52962452D01*
X160355511Y-52868298D01*
X160433243Y-52747344D01*
X160473750Y-52609389D01*
X160473750Y-52465611D01*
X160433243Y-52327656D01*
X160355511Y-52206702D01*
X160246850Y-52112548D01*
X160116065Y-52052820D01*
X160009513Y-52037500D01*
X159937987Y-52037500D01*
X159831435Y-52052820D01*
X159700650Y-52112548D01*
X159591989Y-52206702D01*
X159514257Y-52327656D01*
X159473750Y-52465611D01*
X159473750Y-52609389D01*
X128089323Y-52609389D01*
X127959538Y-52354673D01*
X126322281Y-53991930D01*
X126316438Y-53917681D01*
X126257646Y-53672794D01*
X126161269Y-53440119D01*
X126029680Y-53225385D01*
X125866120Y-53033880D01*
X125674615Y-52870320D01*
X125459881Y-52738731D01*
X125227206Y-52642354D01*
X124982319Y-52583562D01*
X124908066Y-52577718D01*
X125748285Y-51737500D01*
X158819143Y-51737500D01*
X159173750Y-51737500D01*
X159173750Y-51310658D01*
X159134936Y-51337836D01*
X159134930Y-51337841D01*
X158974092Y-51498679D01*
X158843615Y-51685018D01*
X158843614Y-51685020D01*
X158819143Y-51737499D01*
X158819143Y-51737500D01*
X125748285Y-51737500D01*
X126545325Y-50940460D01*
X126238244Y-50783994D01*
X125876186Y-50645012D01*
X125501580Y-50544637D01*
X125501573Y-50544636D01*
X125118537Y-50483969D01*
X124731251Y-50463672D01*
X124731249Y-50463672D01*
X124343962Y-50483969D01*
X123960926Y-50544636D01*
X123960919Y-50544637D01*
X123586313Y-50645012D01*
X123224255Y-50783994D01*
X122917172Y-50940459D01*
X124554431Y-52577718D01*
X124480181Y-52583562D01*
X124235294Y-52642354D01*
X124002619Y-52738731D01*
X123787885Y-52870320D01*
X123596380Y-53033880D01*
X123432820Y-53225385D01*
X123301231Y-53440119D01*
X123204854Y-53672794D01*
X123146062Y-53917681D01*
X123140218Y-53991931D01*
X121502960Y-52354673D01*
X121391826Y-52572787D01*
X121343852Y-52623583D01*
X121276031Y-52640378D01*
X121209896Y-52617841D01*
X121166444Y-52563126D01*
X121159093Y-52495721D01*
X121192727Y-52297778D01*
X121195821Y-52284228D01*
X121196834Y-52280715D01*
X121274997Y-52009413D01*
X121279587Y-51996296D01*
X121281409Y-51991898D01*
X121389043Y-51732048D01*
X121395066Y-51719544D01*
X121533411Y-51469231D01*
X121540806Y-51457462D01*
X121706311Y-51224203D01*
X121714972Y-51213344D01*
X121905555Y-51000080D01*
X121915367Y-50990268D01*
X122128647Y-50799668D01*
X122139480Y-50791029D01*
X122372755Y-50625509D01*
X122384508Y-50618124D01*
X122634825Y-50479776D01*
X122647341Y-50473747D01*
X122911586Y-50364290D01*
X122924697Y-50359703D01*
X123199515Y-50280524D01*
X123213066Y-50277430D01*
X123495033Y-50229517D01*
X123508839Y-50227961D01*
X123797495Y-50211744D01*
X123804450Y-50211550D01*
X200927758Y-50211550D01*
X200934712Y-50211745D01*
G37*
G04 #@! TD.AperFunction*
M02*
