G04 #@! TF.GenerationSoftware,KiCad,Pcbnew,7.0.11*
G04 #@! TF.CreationDate,2024-09-20T17:57:02+02:00*
G04 #@! TF.ProjectId,macropad,6d616372-6f70-4616-942e-6b696361645f,rev?*
G04 #@! TF.SameCoordinates,Original*
G04 #@! TF.FileFunction,Legend,Bot*
G04 #@! TF.FilePolarity,Positive*
%FSLAX46Y46*%
G04 Gerber Fmt 4.6, Leading zero omitted, Abs format (unit mm)*
G04 Created by KiCad (PCBNEW 7.0.11) date 2024-09-20 17:57:02*
%MOMM*%
%LPD*%
G01*
G04 APERTURE LIST*
G04 Aperture macros list*
%AMRoundRect*
0 Rectangle with rounded corners*
0 $1 Rounding radius*
0 $2 $3 $4 $5 $6 $7 $8 $9 X,Y pos of 4 corners*
0 Add a 4 corners polygon primitive as box body*
4,1,4,$2,$3,$4,$5,$6,$7,$8,$9,$2,$3,0*
0 Add four circle primitives for the rounded corners*
1,1,$1+$1,$2,$3*
1,1,$1+$1,$4,$5*
1,1,$1+$1,$6,$7*
1,1,$1+$1,$8,$9*
0 Add four rect primitives between the rounded corners*
20,1,$1+$1,$2,$3,$4,$5,0*
20,1,$1+$1,$4,$5,$6,$7,0*
20,1,$1+$1,$6,$7,$8,$9,0*
20,1,$1+$1,$8,$9,$2,$3,0*%
G04 Aperture macros list end*
%ADD10C,0.150000*%
%ADD11C,0.120000*%
%ADD12C,0.127000*%
%ADD13C,0.254000*%
%ADD14C,0.025400*%
%ADD15C,5.000000*%
%ADD16C,1.650000*%
%ADD17C,1.350000*%
%ADD18O,1.600000X2.000000*%
%ADD19C,6.400000*%
%ADD20RoundRect,0.250000X-0.550000X-0.550000X0.550000X-0.550000X0.550000X0.550000X-0.550000X0.550000X0*%
%ADD21R,1.600000X1.600000*%
%ADD22O,1.600000X1.600000*%
%ADD23R,3.000000X2.000000*%
%ADD24C,1.500000*%
%ADD25R,1.300000X2.300000*%
G04 APERTURE END LIST*
D10*
X174659819Y-88514405D02*
X173659819Y-88514405D01*
X173659819Y-88514405D02*
X173659819Y-88752500D01*
X173659819Y-88752500D02*
X173707438Y-88895357D01*
X173707438Y-88895357D02*
X173802676Y-88990595D01*
X173802676Y-88990595D02*
X173897914Y-89038214D01*
X173897914Y-89038214D02*
X174088390Y-89085833D01*
X174088390Y-89085833D02*
X174231247Y-89085833D01*
X174231247Y-89085833D02*
X174421723Y-89038214D01*
X174421723Y-89038214D02*
X174516961Y-88990595D01*
X174516961Y-88990595D02*
X174612200Y-88895357D01*
X174612200Y-88895357D02*
X174659819Y-88752500D01*
X174659819Y-88752500D02*
X174659819Y-88514405D01*
X173659819Y-89419167D02*
X173659819Y-90038214D01*
X173659819Y-90038214D02*
X174040771Y-89704881D01*
X174040771Y-89704881D02*
X174040771Y-89847738D01*
X174040771Y-89847738D02*
X174088390Y-89942976D01*
X174088390Y-89942976D02*
X174136009Y-89990595D01*
X174136009Y-89990595D02*
X174231247Y-90038214D01*
X174231247Y-90038214D02*
X174469342Y-90038214D01*
X174469342Y-90038214D02*
X174564580Y-89990595D01*
X174564580Y-89990595D02*
X174612200Y-89942976D01*
X174612200Y-89942976D02*
X174659819Y-89847738D01*
X174659819Y-89847738D02*
X174659819Y-89562024D01*
X174659819Y-89562024D02*
X174612200Y-89466786D01*
X174612200Y-89466786D02*
X174564580Y-89419167D01*
X174979819Y-85180595D02*
X173979819Y-85180595D01*
X174979819Y-85752023D02*
X174408390Y-85323452D01*
X173979819Y-85752023D02*
X174551247Y-85180595D01*
X191328569Y-104706964D02*
X190328569Y-104706964D01*
X190328569Y-104706964D02*
X190328569Y-104945059D01*
X190328569Y-104945059D02*
X190376188Y-105087916D01*
X190376188Y-105087916D02*
X190471426Y-105183154D01*
X190471426Y-105183154D02*
X190566664Y-105230773D01*
X190566664Y-105230773D02*
X190757140Y-105278392D01*
X190757140Y-105278392D02*
X190899997Y-105278392D01*
X190899997Y-105278392D02*
X191090473Y-105230773D01*
X191090473Y-105230773D02*
X191185711Y-105183154D01*
X191185711Y-105183154D02*
X191280950Y-105087916D01*
X191280950Y-105087916D02*
X191328569Y-104945059D01*
X191328569Y-104945059D02*
X191328569Y-104706964D01*
X191328569Y-106230773D02*
X191328569Y-105659345D01*
X191328569Y-105945059D02*
X190328569Y-105945059D01*
X190328569Y-105945059D02*
X190471426Y-105849821D01*
X190471426Y-105849821D02*
X190566664Y-105754583D01*
X190566664Y-105754583D02*
X190614283Y-105659345D01*
X191328569Y-107183154D02*
X191328569Y-106611726D01*
X191328569Y-106897440D02*
X190328569Y-106897440D01*
X190328569Y-106897440D02*
X190471426Y-106802202D01*
X190471426Y-106802202D02*
X190566664Y-106706964D01*
X190566664Y-106706964D02*
X190614283Y-106611726D01*
X191648569Y-101849345D02*
X190648569Y-101849345D01*
X191648569Y-102420773D02*
X191077140Y-101992202D01*
X190648569Y-102420773D02*
X191219997Y-101849345D01*
X157991069Y-138044464D02*
X156991069Y-138044464D01*
X156991069Y-138044464D02*
X156991069Y-138282559D01*
X156991069Y-138282559D02*
X157038688Y-138425416D01*
X157038688Y-138425416D02*
X157133926Y-138520654D01*
X157133926Y-138520654D02*
X157229164Y-138568273D01*
X157229164Y-138568273D02*
X157419640Y-138615892D01*
X157419640Y-138615892D02*
X157562497Y-138615892D01*
X157562497Y-138615892D02*
X157752973Y-138568273D01*
X157752973Y-138568273D02*
X157848211Y-138520654D01*
X157848211Y-138520654D02*
X157943450Y-138425416D01*
X157943450Y-138425416D02*
X157991069Y-138282559D01*
X157991069Y-138282559D02*
X157991069Y-138044464D01*
X157991069Y-139568273D02*
X157991069Y-138996845D01*
X157991069Y-139282559D02*
X156991069Y-139282559D01*
X156991069Y-139282559D02*
X157133926Y-139187321D01*
X157133926Y-139187321D02*
X157229164Y-139092083D01*
X157229164Y-139092083D02*
X157276783Y-138996845D01*
X156991069Y-140473035D02*
X156991069Y-139996845D01*
X156991069Y-139996845D02*
X157467259Y-139949226D01*
X157467259Y-139949226D02*
X157419640Y-139996845D01*
X157419640Y-139996845D02*
X157372021Y-140092083D01*
X157372021Y-140092083D02*
X157372021Y-140330178D01*
X157372021Y-140330178D02*
X157419640Y-140425416D01*
X157419640Y-140425416D02*
X157467259Y-140473035D01*
X157467259Y-140473035D02*
X157562497Y-140520654D01*
X157562497Y-140520654D02*
X157800592Y-140520654D01*
X157800592Y-140520654D02*
X157895830Y-140473035D01*
X157895830Y-140473035D02*
X157943450Y-140425416D01*
X157943450Y-140425416D02*
X157991069Y-140330178D01*
X157991069Y-140330178D02*
X157991069Y-140092083D01*
X157991069Y-140092083D02*
X157943450Y-139996845D01*
X157943450Y-139996845D02*
X157895830Y-139949226D01*
X158311069Y-135186845D02*
X157311069Y-135186845D01*
X158311069Y-135758273D02*
X157739640Y-135329702D01*
X157311069Y-135758273D02*
X157882497Y-135186845D01*
X141322319Y-105183155D02*
X140322319Y-105183155D01*
X140322319Y-105183155D02*
X140322319Y-105421250D01*
X140322319Y-105421250D02*
X140369938Y-105564107D01*
X140369938Y-105564107D02*
X140465176Y-105659345D01*
X140465176Y-105659345D02*
X140560414Y-105706964D01*
X140560414Y-105706964D02*
X140750890Y-105754583D01*
X140750890Y-105754583D02*
X140893747Y-105754583D01*
X140893747Y-105754583D02*
X141084223Y-105706964D01*
X141084223Y-105706964D02*
X141179461Y-105659345D01*
X141179461Y-105659345D02*
X141274700Y-105564107D01*
X141274700Y-105564107D02*
X141322319Y-105421250D01*
X141322319Y-105421250D02*
X141322319Y-105183155D01*
X140655652Y-106611726D02*
X141322319Y-106611726D01*
X140274700Y-106373631D02*
X140988985Y-106135536D01*
X140988985Y-106135536D02*
X140988985Y-106754583D01*
X141642319Y-101849345D02*
X140642319Y-101849345D01*
X141642319Y-102420773D02*
X141070890Y-101992202D01*
X140642319Y-102420773D02*
X141213747Y-101849345D01*
X157991069Y-121851905D02*
X156991069Y-121851905D01*
X156991069Y-121851905D02*
X156991069Y-122090000D01*
X156991069Y-122090000D02*
X157038688Y-122232857D01*
X157038688Y-122232857D02*
X157133926Y-122328095D01*
X157133926Y-122328095D02*
X157229164Y-122375714D01*
X157229164Y-122375714D02*
X157419640Y-122423333D01*
X157419640Y-122423333D02*
X157562497Y-122423333D01*
X157562497Y-122423333D02*
X157752973Y-122375714D01*
X157752973Y-122375714D02*
X157848211Y-122328095D01*
X157848211Y-122328095D02*
X157943450Y-122232857D01*
X157943450Y-122232857D02*
X157991069Y-122090000D01*
X157991069Y-122090000D02*
X157991069Y-121851905D01*
X157419640Y-122994762D02*
X157372021Y-122899524D01*
X157372021Y-122899524D02*
X157324402Y-122851905D01*
X157324402Y-122851905D02*
X157229164Y-122804286D01*
X157229164Y-122804286D02*
X157181545Y-122804286D01*
X157181545Y-122804286D02*
X157086307Y-122851905D01*
X157086307Y-122851905D02*
X157038688Y-122899524D01*
X157038688Y-122899524D02*
X156991069Y-122994762D01*
X156991069Y-122994762D02*
X156991069Y-123185238D01*
X156991069Y-123185238D02*
X157038688Y-123280476D01*
X157038688Y-123280476D02*
X157086307Y-123328095D01*
X157086307Y-123328095D02*
X157181545Y-123375714D01*
X157181545Y-123375714D02*
X157229164Y-123375714D01*
X157229164Y-123375714D02*
X157324402Y-123328095D01*
X157324402Y-123328095D02*
X157372021Y-123280476D01*
X157372021Y-123280476D02*
X157419640Y-123185238D01*
X157419640Y-123185238D02*
X157419640Y-122994762D01*
X157419640Y-122994762D02*
X157467259Y-122899524D01*
X157467259Y-122899524D02*
X157514878Y-122851905D01*
X157514878Y-122851905D02*
X157610116Y-122804286D01*
X157610116Y-122804286D02*
X157800592Y-122804286D01*
X157800592Y-122804286D02*
X157895830Y-122851905D01*
X157895830Y-122851905D02*
X157943450Y-122899524D01*
X157943450Y-122899524D02*
X157991069Y-122994762D01*
X157991069Y-122994762D02*
X157991069Y-123185238D01*
X157991069Y-123185238D02*
X157943450Y-123280476D01*
X157943450Y-123280476D02*
X157895830Y-123328095D01*
X157895830Y-123328095D02*
X157800592Y-123375714D01*
X157800592Y-123375714D02*
X157610116Y-123375714D01*
X157610116Y-123375714D02*
X157514878Y-123328095D01*
X157514878Y-123328095D02*
X157467259Y-123280476D01*
X157467259Y-123280476D02*
X157419640Y-123185238D01*
X158311069Y-118518095D02*
X157311069Y-118518095D01*
X158311069Y-119089523D02*
X157739640Y-118660952D01*
X157311069Y-119089523D02*
X157882497Y-118518095D01*
X191328569Y-88038214D02*
X190328569Y-88038214D01*
X190328569Y-88038214D02*
X190328569Y-88276309D01*
X190328569Y-88276309D02*
X190376188Y-88419166D01*
X190376188Y-88419166D02*
X190471426Y-88514404D01*
X190471426Y-88514404D02*
X190566664Y-88562023D01*
X190566664Y-88562023D02*
X190757140Y-88609642D01*
X190757140Y-88609642D02*
X190899997Y-88609642D01*
X190899997Y-88609642D02*
X191090473Y-88562023D01*
X191090473Y-88562023D02*
X191185711Y-88514404D01*
X191185711Y-88514404D02*
X191280950Y-88419166D01*
X191280950Y-88419166D02*
X191328569Y-88276309D01*
X191328569Y-88276309D02*
X191328569Y-88038214D01*
X191328569Y-89562023D02*
X191328569Y-88990595D01*
X191328569Y-89276309D02*
X190328569Y-89276309D01*
X190328569Y-89276309D02*
X190471426Y-89181071D01*
X190471426Y-89181071D02*
X190566664Y-89085833D01*
X190566664Y-89085833D02*
X190614283Y-88990595D01*
X190328569Y-90181071D02*
X190328569Y-90276309D01*
X190328569Y-90276309D02*
X190376188Y-90371547D01*
X190376188Y-90371547D02*
X190423807Y-90419166D01*
X190423807Y-90419166D02*
X190519045Y-90466785D01*
X190519045Y-90466785D02*
X190709521Y-90514404D01*
X190709521Y-90514404D02*
X190947616Y-90514404D01*
X190947616Y-90514404D02*
X191138092Y-90466785D01*
X191138092Y-90466785D02*
X191233330Y-90419166D01*
X191233330Y-90419166D02*
X191280950Y-90371547D01*
X191280950Y-90371547D02*
X191328569Y-90276309D01*
X191328569Y-90276309D02*
X191328569Y-90181071D01*
X191328569Y-90181071D02*
X191280950Y-90085833D01*
X191280950Y-90085833D02*
X191233330Y-90038214D01*
X191233330Y-90038214D02*
X191138092Y-89990595D01*
X191138092Y-89990595D02*
X190947616Y-89942976D01*
X190947616Y-89942976D02*
X190709521Y-89942976D01*
X190709521Y-89942976D02*
X190519045Y-89990595D01*
X190519045Y-89990595D02*
X190423807Y-90038214D01*
X190423807Y-90038214D02*
X190376188Y-90085833D01*
X190376188Y-90085833D02*
X190328569Y-90181071D01*
X191648569Y-85180595D02*
X190648569Y-85180595D01*
X191648569Y-85752023D02*
X191077140Y-85323452D01*
X190648569Y-85752023D02*
X191219997Y-85180595D01*
X191328569Y-138044464D02*
X190328569Y-138044464D01*
X190328569Y-138044464D02*
X190328569Y-138282559D01*
X190328569Y-138282559D02*
X190376188Y-138425416D01*
X190376188Y-138425416D02*
X190471426Y-138520654D01*
X190471426Y-138520654D02*
X190566664Y-138568273D01*
X190566664Y-138568273D02*
X190757140Y-138615892D01*
X190757140Y-138615892D02*
X190899997Y-138615892D01*
X190899997Y-138615892D02*
X191090473Y-138568273D01*
X191090473Y-138568273D02*
X191185711Y-138520654D01*
X191185711Y-138520654D02*
X191280950Y-138425416D01*
X191280950Y-138425416D02*
X191328569Y-138282559D01*
X191328569Y-138282559D02*
X191328569Y-138044464D01*
X191328569Y-139568273D02*
X191328569Y-138996845D01*
X191328569Y-139282559D02*
X190328569Y-139282559D01*
X190328569Y-139282559D02*
X190471426Y-139187321D01*
X190471426Y-139187321D02*
X190566664Y-139092083D01*
X190566664Y-139092083D02*
X190614283Y-138996845D01*
X190328569Y-139901607D02*
X190328569Y-140520654D01*
X190328569Y-140520654D02*
X190709521Y-140187321D01*
X190709521Y-140187321D02*
X190709521Y-140330178D01*
X190709521Y-140330178D02*
X190757140Y-140425416D01*
X190757140Y-140425416D02*
X190804759Y-140473035D01*
X190804759Y-140473035D02*
X190899997Y-140520654D01*
X190899997Y-140520654D02*
X191138092Y-140520654D01*
X191138092Y-140520654D02*
X191233330Y-140473035D01*
X191233330Y-140473035D02*
X191280950Y-140425416D01*
X191280950Y-140425416D02*
X191328569Y-140330178D01*
X191328569Y-140330178D02*
X191328569Y-140044464D01*
X191328569Y-140044464D02*
X191280950Y-139949226D01*
X191280950Y-139949226D02*
X191233330Y-139901607D01*
X191648569Y-135186845D02*
X190648569Y-135186845D01*
X191648569Y-135758273D02*
X191077140Y-135329702D01*
X190648569Y-135758273D02*
X191219997Y-135186845D01*
X141322319Y-138044464D02*
X140322319Y-138044464D01*
X140322319Y-138044464D02*
X140322319Y-138282559D01*
X140322319Y-138282559D02*
X140369938Y-138425416D01*
X140369938Y-138425416D02*
X140465176Y-138520654D01*
X140465176Y-138520654D02*
X140560414Y-138568273D01*
X140560414Y-138568273D02*
X140750890Y-138615892D01*
X140750890Y-138615892D02*
X140893747Y-138615892D01*
X140893747Y-138615892D02*
X141084223Y-138568273D01*
X141084223Y-138568273D02*
X141179461Y-138520654D01*
X141179461Y-138520654D02*
X141274700Y-138425416D01*
X141274700Y-138425416D02*
X141322319Y-138282559D01*
X141322319Y-138282559D02*
X141322319Y-138044464D01*
X141322319Y-139568273D02*
X141322319Y-138996845D01*
X141322319Y-139282559D02*
X140322319Y-139282559D01*
X140322319Y-139282559D02*
X140465176Y-139187321D01*
X140465176Y-139187321D02*
X140560414Y-139092083D01*
X140560414Y-139092083D02*
X140608033Y-138996845D01*
X140322319Y-140425416D02*
X140322319Y-140234940D01*
X140322319Y-140234940D02*
X140369938Y-140139702D01*
X140369938Y-140139702D02*
X140417557Y-140092083D01*
X140417557Y-140092083D02*
X140560414Y-139996845D01*
X140560414Y-139996845D02*
X140750890Y-139949226D01*
X140750890Y-139949226D02*
X141131842Y-139949226D01*
X141131842Y-139949226D02*
X141227080Y-139996845D01*
X141227080Y-139996845D02*
X141274700Y-140044464D01*
X141274700Y-140044464D02*
X141322319Y-140139702D01*
X141322319Y-140139702D02*
X141322319Y-140330178D01*
X141322319Y-140330178D02*
X141274700Y-140425416D01*
X141274700Y-140425416D02*
X141227080Y-140473035D01*
X141227080Y-140473035D02*
X141131842Y-140520654D01*
X141131842Y-140520654D02*
X140893747Y-140520654D01*
X140893747Y-140520654D02*
X140798509Y-140473035D01*
X140798509Y-140473035D02*
X140750890Y-140425416D01*
X140750890Y-140425416D02*
X140703271Y-140330178D01*
X140703271Y-140330178D02*
X140703271Y-140139702D01*
X140703271Y-140139702D02*
X140750890Y-140044464D01*
X140750890Y-140044464D02*
X140798509Y-139996845D01*
X140798509Y-139996845D02*
X140893747Y-139949226D01*
X141642319Y-135186845D02*
X140642319Y-135186845D01*
X141642319Y-135758273D02*
X141070890Y-135329702D01*
X140642319Y-135758273D02*
X141213747Y-135186845D01*
X141322319Y-88514405D02*
X140322319Y-88514405D01*
X140322319Y-88514405D02*
X140322319Y-88752500D01*
X140322319Y-88752500D02*
X140369938Y-88895357D01*
X140369938Y-88895357D02*
X140465176Y-88990595D01*
X140465176Y-88990595D02*
X140560414Y-89038214D01*
X140560414Y-89038214D02*
X140750890Y-89085833D01*
X140750890Y-89085833D02*
X140893747Y-89085833D01*
X140893747Y-89085833D02*
X141084223Y-89038214D01*
X141084223Y-89038214D02*
X141179461Y-88990595D01*
X141179461Y-88990595D02*
X141274700Y-88895357D01*
X141274700Y-88895357D02*
X141322319Y-88752500D01*
X141322319Y-88752500D02*
X141322319Y-88514405D01*
X141322319Y-90038214D02*
X141322319Y-89466786D01*
X141322319Y-89752500D02*
X140322319Y-89752500D01*
X140322319Y-89752500D02*
X140465176Y-89657262D01*
X140465176Y-89657262D02*
X140560414Y-89562024D01*
X140560414Y-89562024D02*
X140608033Y-89466786D01*
X141642319Y-85180595D02*
X140642319Y-85180595D01*
X141642319Y-85752023D02*
X141070890Y-85323452D01*
X140642319Y-85752023D02*
X141213747Y-85180595D01*
X174659819Y-105183155D02*
X173659819Y-105183155D01*
X173659819Y-105183155D02*
X173659819Y-105421250D01*
X173659819Y-105421250D02*
X173707438Y-105564107D01*
X173707438Y-105564107D02*
X173802676Y-105659345D01*
X173802676Y-105659345D02*
X173897914Y-105706964D01*
X173897914Y-105706964D02*
X174088390Y-105754583D01*
X174088390Y-105754583D02*
X174231247Y-105754583D01*
X174231247Y-105754583D02*
X174421723Y-105706964D01*
X174421723Y-105706964D02*
X174516961Y-105659345D01*
X174516961Y-105659345D02*
X174612200Y-105564107D01*
X174612200Y-105564107D02*
X174659819Y-105421250D01*
X174659819Y-105421250D02*
X174659819Y-105183155D01*
X173659819Y-106611726D02*
X173659819Y-106421250D01*
X173659819Y-106421250D02*
X173707438Y-106326012D01*
X173707438Y-106326012D02*
X173755057Y-106278393D01*
X173755057Y-106278393D02*
X173897914Y-106183155D01*
X173897914Y-106183155D02*
X174088390Y-106135536D01*
X174088390Y-106135536D02*
X174469342Y-106135536D01*
X174469342Y-106135536D02*
X174564580Y-106183155D01*
X174564580Y-106183155D02*
X174612200Y-106230774D01*
X174612200Y-106230774D02*
X174659819Y-106326012D01*
X174659819Y-106326012D02*
X174659819Y-106516488D01*
X174659819Y-106516488D02*
X174612200Y-106611726D01*
X174612200Y-106611726D02*
X174564580Y-106659345D01*
X174564580Y-106659345D02*
X174469342Y-106706964D01*
X174469342Y-106706964D02*
X174231247Y-106706964D01*
X174231247Y-106706964D02*
X174136009Y-106659345D01*
X174136009Y-106659345D02*
X174088390Y-106611726D01*
X174088390Y-106611726D02*
X174040771Y-106516488D01*
X174040771Y-106516488D02*
X174040771Y-106326012D01*
X174040771Y-106326012D02*
X174088390Y-106230774D01*
X174088390Y-106230774D02*
X174136009Y-106183155D01*
X174136009Y-106183155D02*
X174231247Y-106135536D01*
X174979819Y-101849345D02*
X173979819Y-101849345D01*
X174979819Y-102420773D02*
X174408390Y-101992202D01*
X173979819Y-102420773D02*
X174551247Y-101849345D01*
X189024404Y-63113450D02*
X188881547Y-63161069D01*
X188881547Y-63161069D02*
X188643452Y-63161069D01*
X188643452Y-63161069D02*
X188548214Y-63113450D01*
X188548214Y-63113450D02*
X188500595Y-63065830D01*
X188500595Y-63065830D02*
X188452976Y-62970592D01*
X188452976Y-62970592D02*
X188452976Y-62875354D01*
X188452976Y-62875354D02*
X188500595Y-62780116D01*
X188500595Y-62780116D02*
X188548214Y-62732497D01*
X188548214Y-62732497D02*
X188643452Y-62684878D01*
X188643452Y-62684878D02*
X188833928Y-62637259D01*
X188833928Y-62637259D02*
X188929166Y-62589640D01*
X188929166Y-62589640D02*
X188976785Y-62542021D01*
X188976785Y-62542021D02*
X189024404Y-62446783D01*
X189024404Y-62446783D02*
X189024404Y-62351545D01*
X189024404Y-62351545D02*
X188976785Y-62256307D01*
X188976785Y-62256307D02*
X188929166Y-62208688D01*
X188929166Y-62208688D02*
X188833928Y-62161069D01*
X188833928Y-62161069D02*
X188595833Y-62161069D01*
X188595833Y-62161069D02*
X188452976Y-62208688D01*
X187643452Y-63113450D02*
X187738690Y-63161069D01*
X187738690Y-63161069D02*
X187929166Y-63161069D01*
X187929166Y-63161069D02*
X188024404Y-63113450D01*
X188024404Y-63113450D02*
X188072023Y-63018211D01*
X188072023Y-63018211D02*
X188072023Y-62637259D01*
X188072023Y-62637259D02*
X188024404Y-62542021D01*
X188024404Y-62542021D02*
X187929166Y-62494402D01*
X187929166Y-62494402D02*
X187738690Y-62494402D01*
X187738690Y-62494402D02*
X187643452Y-62542021D01*
X187643452Y-62542021D02*
X187595833Y-62637259D01*
X187595833Y-62637259D02*
X187595833Y-62732497D01*
X187595833Y-62732497D02*
X188072023Y-62827735D01*
X186786309Y-63113450D02*
X186881547Y-63161069D01*
X186881547Y-63161069D02*
X187072023Y-63161069D01*
X187072023Y-63161069D02*
X187167261Y-63113450D01*
X187167261Y-63113450D02*
X187214880Y-63018211D01*
X187214880Y-63018211D02*
X187214880Y-62637259D01*
X187214880Y-62637259D02*
X187167261Y-62542021D01*
X187167261Y-62542021D02*
X187072023Y-62494402D01*
X187072023Y-62494402D02*
X186881547Y-62494402D01*
X186881547Y-62494402D02*
X186786309Y-62542021D01*
X186786309Y-62542021D02*
X186738690Y-62637259D01*
X186738690Y-62637259D02*
X186738690Y-62732497D01*
X186738690Y-62732497D02*
X187214880Y-62827735D01*
X185929166Y-63113450D02*
X186024404Y-63161069D01*
X186024404Y-63161069D02*
X186214880Y-63161069D01*
X186214880Y-63161069D02*
X186310118Y-63113450D01*
X186310118Y-63113450D02*
X186357737Y-63018211D01*
X186357737Y-63018211D02*
X186357737Y-62637259D01*
X186357737Y-62637259D02*
X186310118Y-62542021D01*
X186310118Y-62542021D02*
X186214880Y-62494402D01*
X186214880Y-62494402D02*
X186024404Y-62494402D01*
X186024404Y-62494402D02*
X185929166Y-62542021D01*
X185929166Y-62542021D02*
X185881547Y-62637259D01*
X185881547Y-62637259D02*
X185881547Y-62732497D01*
X185881547Y-62732497D02*
X186357737Y-62827735D01*
X185024404Y-63161069D02*
X185024404Y-62161069D01*
X185024404Y-63113450D02*
X185119642Y-63161069D01*
X185119642Y-63161069D02*
X185310118Y-63161069D01*
X185310118Y-63161069D02*
X185405356Y-63113450D01*
X185405356Y-63113450D02*
X185452975Y-63065830D01*
X185452975Y-63065830D02*
X185500594Y-62970592D01*
X185500594Y-62970592D02*
X185500594Y-62684878D01*
X185500594Y-62684878D02*
X185452975Y-62589640D01*
X185452975Y-62589640D02*
X185405356Y-62542021D01*
X185405356Y-62542021D02*
X185310118Y-62494402D01*
X185310118Y-62494402D02*
X185119642Y-62494402D01*
X185119642Y-62494402D02*
X185024404Y-62542021D01*
X183833927Y-63113450D02*
X183691070Y-63161069D01*
X183691070Y-63161069D02*
X183452975Y-63161069D01*
X183452975Y-63161069D02*
X183357737Y-63113450D01*
X183357737Y-63113450D02*
X183310118Y-63065830D01*
X183310118Y-63065830D02*
X183262499Y-62970592D01*
X183262499Y-62970592D02*
X183262499Y-62875354D01*
X183262499Y-62875354D02*
X183310118Y-62780116D01*
X183310118Y-62780116D02*
X183357737Y-62732497D01*
X183357737Y-62732497D02*
X183452975Y-62684878D01*
X183452975Y-62684878D02*
X183643451Y-62637259D01*
X183643451Y-62637259D02*
X183738689Y-62589640D01*
X183738689Y-62589640D02*
X183786308Y-62542021D01*
X183786308Y-62542021D02*
X183833927Y-62446783D01*
X183833927Y-62446783D02*
X183833927Y-62351545D01*
X183833927Y-62351545D02*
X183786308Y-62256307D01*
X183786308Y-62256307D02*
X183738689Y-62208688D01*
X183738689Y-62208688D02*
X183643451Y-62161069D01*
X183643451Y-62161069D02*
X183405356Y-62161069D01*
X183405356Y-62161069D02*
X183262499Y-62208688D01*
X182976784Y-62494402D02*
X182595832Y-62494402D01*
X182833927Y-62161069D02*
X182833927Y-63018211D01*
X182833927Y-63018211D02*
X182786308Y-63113450D01*
X182786308Y-63113450D02*
X182691070Y-63161069D01*
X182691070Y-63161069D02*
X182595832Y-63161069D01*
X181833927Y-62494402D02*
X181833927Y-63161069D01*
X182262498Y-62494402D02*
X182262498Y-63018211D01*
X182262498Y-63018211D02*
X182214879Y-63113450D01*
X182214879Y-63113450D02*
X182119641Y-63161069D01*
X182119641Y-63161069D02*
X181976784Y-63161069D01*
X181976784Y-63161069D02*
X181881546Y-63113450D01*
X181881546Y-63113450D02*
X181833927Y-63065830D01*
X180929165Y-63161069D02*
X180929165Y-62161069D01*
X180929165Y-63113450D02*
X181024403Y-63161069D01*
X181024403Y-63161069D02*
X181214879Y-63161069D01*
X181214879Y-63161069D02*
X181310117Y-63113450D01*
X181310117Y-63113450D02*
X181357736Y-63065830D01*
X181357736Y-63065830D02*
X181405355Y-62970592D01*
X181405355Y-62970592D02*
X181405355Y-62684878D01*
X181405355Y-62684878D02*
X181357736Y-62589640D01*
X181357736Y-62589640D02*
X181310117Y-62542021D01*
X181310117Y-62542021D02*
X181214879Y-62494402D01*
X181214879Y-62494402D02*
X181024403Y-62494402D01*
X181024403Y-62494402D02*
X180929165Y-62542021D01*
X180452974Y-63161069D02*
X180452974Y-62494402D01*
X180452974Y-62161069D02*
X180500593Y-62208688D01*
X180500593Y-62208688D02*
X180452974Y-62256307D01*
X180452974Y-62256307D02*
X180405355Y-62208688D01*
X180405355Y-62208688D02*
X180452974Y-62161069D01*
X180452974Y-62161069D02*
X180452974Y-62256307D01*
X179833927Y-63161069D02*
X179929165Y-63113450D01*
X179929165Y-63113450D02*
X179976784Y-63065830D01*
X179976784Y-63065830D02*
X180024403Y-62970592D01*
X180024403Y-62970592D02*
X180024403Y-62684878D01*
X180024403Y-62684878D02*
X179976784Y-62589640D01*
X179976784Y-62589640D02*
X179929165Y-62542021D01*
X179929165Y-62542021D02*
X179833927Y-62494402D01*
X179833927Y-62494402D02*
X179691070Y-62494402D01*
X179691070Y-62494402D02*
X179595832Y-62542021D01*
X179595832Y-62542021D02*
X179548213Y-62589640D01*
X179548213Y-62589640D02*
X179500594Y-62684878D01*
X179500594Y-62684878D02*
X179500594Y-62970592D01*
X179500594Y-62970592D02*
X179548213Y-63065830D01*
X179548213Y-63065830D02*
X179595832Y-63113450D01*
X179595832Y-63113450D02*
X179691070Y-63161069D01*
X179691070Y-63161069D02*
X179833927Y-63161069D01*
X185786308Y-60473569D02*
X185119642Y-61473569D01*
X185119642Y-60473569D02*
X185786308Y-61473569D01*
X184738689Y-61473569D02*
X184738689Y-60473569D01*
X184310118Y-61187854D02*
X183833928Y-61187854D01*
X184405356Y-61473569D02*
X184072023Y-60473569D01*
X184072023Y-60473569D02*
X183738690Y-61473569D01*
X183214880Y-60473569D02*
X183024404Y-60473569D01*
X183024404Y-60473569D02*
X182929166Y-60521188D01*
X182929166Y-60521188D02*
X182833928Y-60616426D01*
X182833928Y-60616426D02*
X182786309Y-60806902D01*
X182786309Y-60806902D02*
X182786309Y-61140235D01*
X182786309Y-61140235D02*
X182833928Y-61330711D01*
X182833928Y-61330711D02*
X182929166Y-61425950D01*
X182929166Y-61425950D02*
X183024404Y-61473569D01*
X183024404Y-61473569D02*
X183214880Y-61473569D01*
X183214880Y-61473569D02*
X183310118Y-61425950D01*
X183310118Y-61425950D02*
X183405356Y-61330711D01*
X183405356Y-61330711D02*
X183452975Y-61140235D01*
X183452975Y-61140235D02*
X183452975Y-60806902D01*
X183452975Y-60806902D02*
X183405356Y-60616426D01*
X183405356Y-60616426D02*
X183310118Y-60521188D01*
X183310118Y-60521188D02*
X183214880Y-60473569D01*
X141322319Y-121851905D02*
X140322319Y-121851905D01*
X140322319Y-121851905D02*
X140322319Y-122090000D01*
X140322319Y-122090000D02*
X140369938Y-122232857D01*
X140369938Y-122232857D02*
X140465176Y-122328095D01*
X140465176Y-122328095D02*
X140560414Y-122375714D01*
X140560414Y-122375714D02*
X140750890Y-122423333D01*
X140750890Y-122423333D02*
X140893747Y-122423333D01*
X140893747Y-122423333D02*
X141084223Y-122375714D01*
X141084223Y-122375714D02*
X141179461Y-122328095D01*
X141179461Y-122328095D02*
X141274700Y-122232857D01*
X141274700Y-122232857D02*
X141322319Y-122090000D01*
X141322319Y-122090000D02*
X141322319Y-121851905D01*
X140322319Y-122756667D02*
X140322319Y-123423333D01*
X140322319Y-123423333D02*
X141322319Y-122994762D01*
X141642319Y-118518095D02*
X140642319Y-118518095D01*
X141642319Y-119089523D02*
X141070890Y-118660952D01*
X140642319Y-119089523D02*
X141213747Y-118518095D01*
X174659819Y-121851905D02*
X173659819Y-121851905D01*
X173659819Y-121851905D02*
X173659819Y-122090000D01*
X173659819Y-122090000D02*
X173707438Y-122232857D01*
X173707438Y-122232857D02*
X173802676Y-122328095D01*
X173802676Y-122328095D02*
X173897914Y-122375714D01*
X173897914Y-122375714D02*
X174088390Y-122423333D01*
X174088390Y-122423333D02*
X174231247Y-122423333D01*
X174231247Y-122423333D02*
X174421723Y-122375714D01*
X174421723Y-122375714D02*
X174516961Y-122328095D01*
X174516961Y-122328095D02*
X174612200Y-122232857D01*
X174612200Y-122232857D02*
X174659819Y-122090000D01*
X174659819Y-122090000D02*
X174659819Y-121851905D01*
X174659819Y-122899524D02*
X174659819Y-123090000D01*
X174659819Y-123090000D02*
X174612200Y-123185238D01*
X174612200Y-123185238D02*
X174564580Y-123232857D01*
X174564580Y-123232857D02*
X174421723Y-123328095D01*
X174421723Y-123328095D02*
X174231247Y-123375714D01*
X174231247Y-123375714D02*
X173850295Y-123375714D01*
X173850295Y-123375714D02*
X173755057Y-123328095D01*
X173755057Y-123328095D02*
X173707438Y-123280476D01*
X173707438Y-123280476D02*
X173659819Y-123185238D01*
X173659819Y-123185238D02*
X173659819Y-122994762D01*
X173659819Y-122994762D02*
X173707438Y-122899524D01*
X173707438Y-122899524D02*
X173755057Y-122851905D01*
X173755057Y-122851905D02*
X173850295Y-122804286D01*
X173850295Y-122804286D02*
X174088390Y-122804286D01*
X174088390Y-122804286D02*
X174183628Y-122851905D01*
X174183628Y-122851905D02*
X174231247Y-122899524D01*
X174231247Y-122899524D02*
X174278866Y-122994762D01*
X174278866Y-122994762D02*
X174278866Y-123185238D01*
X174278866Y-123185238D02*
X174231247Y-123280476D01*
X174231247Y-123280476D02*
X174183628Y-123328095D01*
X174183628Y-123328095D02*
X174088390Y-123375714D01*
X174979819Y-118518095D02*
X173979819Y-118518095D01*
X174979819Y-119089523D02*
X174408390Y-118660952D01*
X173979819Y-119089523D02*
X174551247Y-118518095D01*
X191328569Y-121375714D02*
X190328569Y-121375714D01*
X190328569Y-121375714D02*
X190328569Y-121613809D01*
X190328569Y-121613809D02*
X190376188Y-121756666D01*
X190376188Y-121756666D02*
X190471426Y-121851904D01*
X190471426Y-121851904D02*
X190566664Y-121899523D01*
X190566664Y-121899523D02*
X190757140Y-121947142D01*
X190757140Y-121947142D02*
X190899997Y-121947142D01*
X190899997Y-121947142D02*
X191090473Y-121899523D01*
X191090473Y-121899523D02*
X191185711Y-121851904D01*
X191185711Y-121851904D02*
X191280950Y-121756666D01*
X191280950Y-121756666D02*
X191328569Y-121613809D01*
X191328569Y-121613809D02*
X191328569Y-121375714D01*
X191328569Y-122899523D02*
X191328569Y-122328095D01*
X191328569Y-122613809D02*
X190328569Y-122613809D01*
X190328569Y-122613809D02*
X190471426Y-122518571D01*
X190471426Y-122518571D02*
X190566664Y-122423333D01*
X190566664Y-122423333D02*
X190614283Y-122328095D01*
X190423807Y-123280476D02*
X190376188Y-123328095D01*
X190376188Y-123328095D02*
X190328569Y-123423333D01*
X190328569Y-123423333D02*
X190328569Y-123661428D01*
X190328569Y-123661428D02*
X190376188Y-123756666D01*
X190376188Y-123756666D02*
X190423807Y-123804285D01*
X190423807Y-123804285D02*
X190519045Y-123851904D01*
X190519045Y-123851904D02*
X190614283Y-123851904D01*
X190614283Y-123851904D02*
X190757140Y-123804285D01*
X190757140Y-123804285D02*
X191328569Y-123232857D01*
X191328569Y-123232857D02*
X191328569Y-123851904D01*
X191648569Y-118518095D02*
X190648569Y-118518095D01*
X191648569Y-119089523D02*
X191077140Y-118660952D01*
X190648569Y-119089523D02*
X191219997Y-118518095D01*
X157991069Y-88514405D02*
X156991069Y-88514405D01*
X156991069Y-88514405D02*
X156991069Y-88752500D01*
X156991069Y-88752500D02*
X157038688Y-88895357D01*
X157038688Y-88895357D02*
X157133926Y-88990595D01*
X157133926Y-88990595D02*
X157229164Y-89038214D01*
X157229164Y-89038214D02*
X157419640Y-89085833D01*
X157419640Y-89085833D02*
X157562497Y-89085833D01*
X157562497Y-89085833D02*
X157752973Y-89038214D01*
X157752973Y-89038214D02*
X157848211Y-88990595D01*
X157848211Y-88990595D02*
X157943450Y-88895357D01*
X157943450Y-88895357D02*
X157991069Y-88752500D01*
X157991069Y-88752500D02*
X157991069Y-88514405D01*
X157086307Y-89466786D02*
X157038688Y-89514405D01*
X157038688Y-89514405D02*
X156991069Y-89609643D01*
X156991069Y-89609643D02*
X156991069Y-89847738D01*
X156991069Y-89847738D02*
X157038688Y-89942976D01*
X157038688Y-89942976D02*
X157086307Y-89990595D01*
X157086307Y-89990595D02*
X157181545Y-90038214D01*
X157181545Y-90038214D02*
X157276783Y-90038214D01*
X157276783Y-90038214D02*
X157419640Y-89990595D01*
X157419640Y-89990595D02*
X157991069Y-89419167D01*
X157991069Y-89419167D02*
X157991069Y-90038214D01*
X158311069Y-85180595D02*
X157311069Y-85180595D01*
X158311069Y-85752023D02*
X157739640Y-85323452D01*
X157311069Y-85752023D02*
X157882497Y-85180595D01*
X157991069Y-105183155D02*
X156991069Y-105183155D01*
X156991069Y-105183155D02*
X156991069Y-105421250D01*
X156991069Y-105421250D02*
X157038688Y-105564107D01*
X157038688Y-105564107D02*
X157133926Y-105659345D01*
X157133926Y-105659345D02*
X157229164Y-105706964D01*
X157229164Y-105706964D02*
X157419640Y-105754583D01*
X157419640Y-105754583D02*
X157562497Y-105754583D01*
X157562497Y-105754583D02*
X157752973Y-105706964D01*
X157752973Y-105706964D02*
X157848211Y-105659345D01*
X157848211Y-105659345D02*
X157943450Y-105564107D01*
X157943450Y-105564107D02*
X157991069Y-105421250D01*
X157991069Y-105421250D02*
X157991069Y-105183155D01*
X156991069Y-106659345D02*
X156991069Y-106183155D01*
X156991069Y-106183155D02*
X157467259Y-106135536D01*
X157467259Y-106135536D02*
X157419640Y-106183155D01*
X157419640Y-106183155D02*
X157372021Y-106278393D01*
X157372021Y-106278393D02*
X157372021Y-106516488D01*
X157372021Y-106516488D02*
X157419640Y-106611726D01*
X157419640Y-106611726D02*
X157467259Y-106659345D01*
X157467259Y-106659345D02*
X157562497Y-106706964D01*
X157562497Y-106706964D02*
X157800592Y-106706964D01*
X157800592Y-106706964D02*
X157895830Y-106659345D01*
X157895830Y-106659345D02*
X157943450Y-106611726D01*
X157943450Y-106611726D02*
X157991069Y-106516488D01*
X157991069Y-106516488D02*
X157991069Y-106278393D01*
X157991069Y-106278393D02*
X157943450Y-106183155D01*
X157943450Y-106183155D02*
X157895830Y-106135536D01*
X158311069Y-101849345D02*
X157311069Y-101849345D01*
X158311069Y-102420773D02*
X157739640Y-101992202D01*
X157311069Y-102420773D02*
X157882497Y-101849345D01*
X174659819Y-138044464D02*
X173659819Y-138044464D01*
X173659819Y-138044464D02*
X173659819Y-138282559D01*
X173659819Y-138282559D02*
X173707438Y-138425416D01*
X173707438Y-138425416D02*
X173802676Y-138520654D01*
X173802676Y-138520654D02*
X173897914Y-138568273D01*
X173897914Y-138568273D02*
X174088390Y-138615892D01*
X174088390Y-138615892D02*
X174231247Y-138615892D01*
X174231247Y-138615892D02*
X174421723Y-138568273D01*
X174421723Y-138568273D02*
X174516961Y-138520654D01*
X174516961Y-138520654D02*
X174612200Y-138425416D01*
X174612200Y-138425416D02*
X174659819Y-138282559D01*
X174659819Y-138282559D02*
X174659819Y-138044464D01*
X174659819Y-139568273D02*
X174659819Y-138996845D01*
X174659819Y-139282559D02*
X173659819Y-139282559D01*
X173659819Y-139282559D02*
X173802676Y-139187321D01*
X173802676Y-139187321D02*
X173897914Y-139092083D01*
X173897914Y-139092083D02*
X173945533Y-138996845D01*
X173993152Y-140425416D02*
X174659819Y-140425416D01*
X173612200Y-140187321D02*
X174326485Y-139949226D01*
X174326485Y-139949226D02*
X174326485Y-140568273D01*
X174979819Y-135186845D02*
X173979819Y-135186845D01*
X174979819Y-135758273D02*
X174408390Y-135329702D01*
X173979819Y-135758273D02*
X174551247Y-135186845D01*
D11*
X176325000Y-86482500D02*
X176325000Y-87132500D01*
X177445000Y-87132500D02*
X177445000Y-91372500D01*
X175205000Y-87132500D02*
X177445000Y-87132500D01*
X175205000Y-87732500D02*
X177445000Y-87732500D01*
X175205000Y-87852500D02*
X177445000Y-87852500D01*
X175205000Y-87972500D02*
X177445000Y-87972500D01*
X177445000Y-91372500D02*
X175205000Y-91372500D01*
X175205000Y-91372500D02*
X175205000Y-87132500D01*
X176325000Y-92022500D02*
X176325000Y-91372500D01*
X192993750Y-103151250D02*
X192993750Y-103801250D01*
X194113750Y-103801250D02*
X194113750Y-108041250D01*
X191873750Y-103801250D02*
X194113750Y-103801250D01*
X191873750Y-104401250D02*
X194113750Y-104401250D01*
X191873750Y-104521250D02*
X194113750Y-104521250D01*
X191873750Y-104641250D02*
X194113750Y-104641250D01*
X194113750Y-108041250D02*
X191873750Y-108041250D01*
X191873750Y-108041250D02*
X191873750Y-103801250D01*
X192993750Y-108691250D02*
X192993750Y-108041250D01*
X159656250Y-136488750D02*
X159656250Y-137138750D01*
X160776250Y-137138750D02*
X160776250Y-141378750D01*
X158536250Y-137138750D02*
X160776250Y-137138750D01*
X158536250Y-137738750D02*
X160776250Y-137738750D01*
X158536250Y-137858750D02*
X160776250Y-137858750D01*
X158536250Y-137978750D02*
X160776250Y-137978750D01*
X160776250Y-141378750D02*
X158536250Y-141378750D01*
X158536250Y-141378750D02*
X158536250Y-137138750D01*
X159656250Y-142028750D02*
X159656250Y-141378750D01*
X142987500Y-103151250D02*
X142987500Y-103801250D01*
X144107500Y-103801250D02*
X144107500Y-108041250D01*
X141867500Y-103801250D02*
X144107500Y-103801250D01*
X141867500Y-104401250D02*
X144107500Y-104401250D01*
X141867500Y-104521250D02*
X144107500Y-104521250D01*
X141867500Y-104641250D02*
X144107500Y-104641250D01*
X144107500Y-108041250D02*
X141867500Y-108041250D01*
X141867500Y-108041250D02*
X141867500Y-103801250D01*
X142987500Y-108691250D02*
X142987500Y-108041250D01*
X159656250Y-119820000D02*
X159656250Y-120470000D01*
X160776250Y-120470000D02*
X160776250Y-124710000D01*
X158536250Y-120470000D02*
X160776250Y-120470000D01*
X158536250Y-121070000D02*
X160776250Y-121070000D01*
X158536250Y-121190000D02*
X160776250Y-121190000D01*
X158536250Y-121310000D02*
X160776250Y-121310000D01*
X160776250Y-124710000D02*
X158536250Y-124710000D01*
X158536250Y-124710000D02*
X158536250Y-120470000D01*
X159656250Y-125360000D02*
X159656250Y-124710000D01*
X192993750Y-86482500D02*
X192993750Y-87132500D01*
X194113750Y-87132500D02*
X194113750Y-91372500D01*
X191873750Y-87132500D02*
X194113750Y-87132500D01*
X191873750Y-87732500D02*
X194113750Y-87732500D01*
X191873750Y-87852500D02*
X194113750Y-87852500D01*
X191873750Y-87972500D02*
X194113750Y-87972500D01*
X194113750Y-91372500D02*
X191873750Y-91372500D01*
X191873750Y-91372500D02*
X191873750Y-87132500D01*
X192993750Y-92022500D02*
X192993750Y-91372500D01*
X192993750Y-136488750D02*
X192993750Y-137138750D01*
X194113750Y-137138750D02*
X194113750Y-141378750D01*
X191873750Y-137138750D02*
X194113750Y-137138750D01*
X191873750Y-137738750D02*
X194113750Y-137738750D01*
X191873750Y-137858750D02*
X194113750Y-137858750D01*
X191873750Y-137978750D02*
X194113750Y-137978750D01*
X194113750Y-141378750D02*
X191873750Y-141378750D01*
X191873750Y-141378750D02*
X191873750Y-137138750D01*
X192993750Y-142028750D02*
X192993750Y-141378750D01*
X142987500Y-136488750D02*
X142987500Y-137138750D01*
X144107500Y-137138750D02*
X144107500Y-141378750D01*
X141867500Y-137138750D02*
X144107500Y-137138750D01*
X141867500Y-137738750D02*
X144107500Y-137738750D01*
X141867500Y-137858750D02*
X144107500Y-137858750D01*
X141867500Y-137978750D02*
X144107500Y-137978750D01*
X144107500Y-141378750D02*
X141867500Y-141378750D01*
X141867500Y-141378750D02*
X141867500Y-137138750D01*
X142987500Y-142028750D02*
X142987500Y-141378750D01*
X142987500Y-86482500D02*
X142987500Y-87132500D01*
X144107500Y-87132500D02*
X144107500Y-91372500D01*
X141867500Y-87132500D02*
X144107500Y-87132500D01*
X141867500Y-87732500D02*
X144107500Y-87732500D01*
X141867500Y-87852500D02*
X144107500Y-87852500D01*
X141867500Y-87972500D02*
X144107500Y-87972500D01*
X144107500Y-91372500D02*
X141867500Y-91372500D01*
X141867500Y-91372500D02*
X141867500Y-87132500D01*
X142987500Y-92022500D02*
X142987500Y-91372500D01*
X176325000Y-103151250D02*
X176325000Y-103801250D01*
X177445000Y-103801250D02*
X177445000Y-108041250D01*
X175205000Y-103801250D02*
X177445000Y-103801250D01*
X175205000Y-104401250D02*
X177445000Y-104401250D01*
X175205000Y-104521250D02*
X177445000Y-104521250D01*
X175205000Y-104641250D02*
X177445000Y-104641250D01*
X177445000Y-108041250D02*
X175205000Y-108041250D01*
X175205000Y-108041250D02*
X175205000Y-103801250D01*
X176325000Y-108691250D02*
X176325000Y-108041250D01*
D12*
X193162500Y-52018750D02*
X193162500Y-69018750D01*
X191162500Y-71018750D02*
X177362500Y-71018750D01*
X188762500Y-55948020D02*
X188762500Y-48594720D01*
X188762500Y-48594720D02*
X179762500Y-48594720D01*
X179762500Y-55948020D02*
X188762500Y-55948020D01*
X179762500Y-48594720D02*
X179762500Y-55948020D01*
X177362500Y-50019660D02*
X191162500Y-50019660D01*
X175362500Y-69018750D02*
X175362500Y-52018750D01*
D11*
X191162500Y-71018749D02*
G75*
G03*
X193162499Y-69018750I-44857J2044856D01*
G01*
X193162499Y-52018750D02*
G75*
G03*
X191162500Y-50018751I-2044611J-44612D01*
G01*
X175362500Y-69018750D02*
G75*
G03*
X177362500Y-71018750I2000000J0D01*
G01*
X177362500Y-50018751D02*
G75*
G03*
X175362501Y-52018750I44610J-2044609D01*
G01*
D13*
X195389500Y-51718750D02*
G75*
G03*
X195135500Y-51718750I-127000J0D01*
G01*
X195135500Y-51718750D02*
G75*
G03*
X195389500Y-51718750I127000J0D01*
G01*
D14*
X193147167Y-51908277D02*
X193150215Y-51957045D01*
X193143103Y-51859256D01*
X193147167Y-51908277D01*
X175420252Y-69429705D02*
X175410347Y-69381700D01*
X175401456Y-69333440D01*
X175393836Y-69284925D01*
X175387232Y-69236157D01*
X175381899Y-69187389D01*
X175377835Y-69138368D01*
X175374787Y-69089600D01*
X175373008Y-69040324D01*
X175420252Y-69429705D01*
D11*
X142987500Y-119820000D02*
X142987500Y-120470000D01*
X144107500Y-120470000D02*
X144107500Y-124710000D01*
X141867500Y-120470000D02*
X144107500Y-120470000D01*
X141867500Y-121070000D02*
X144107500Y-121070000D01*
X141867500Y-121190000D02*
X144107500Y-121190000D01*
X141867500Y-121310000D02*
X144107500Y-121310000D01*
X144107500Y-124710000D02*
X141867500Y-124710000D01*
X141867500Y-124710000D02*
X141867500Y-120470000D01*
X142987500Y-125360000D02*
X142987500Y-124710000D01*
X176325000Y-119820000D02*
X176325000Y-120470000D01*
X177445000Y-120470000D02*
X177445000Y-124710000D01*
X175205000Y-120470000D02*
X177445000Y-120470000D01*
X175205000Y-121070000D02*
X177445000Y-121070000D01*
X175205000Y-121190000D02*
X177445000Y-121190000D01*
X175205000Y-121310000D02*
X177445000Y-121310000D01*
X177445000Y-124710000D02*
X175205000Y-124710000D01*
X175205000Y-124710000D02*
X175205000Y-120470000D01*
X176325000Y-125360000D02*
X176325000Y-124710000D01*
X192993750Y-119820000D02*
X192993750Y-120470000D01*
X194113750Y-120470000D02*
X194113750Y-124710000D01*
X191873750Y-120470000D02*
X194113750Y-120470000D01*
X191873750Y-121070000D02*
X194113750Y-121070000D01*
X191873750Y-121190000D02*
X194113750Y-121190000D01*
X191873750Y-121310000D02*
X194113750Y-121310000D01*
X194113750Y-124710000D02*
X191873750Y-124710000D01*
X191873750Y-124710000D02*
X191873750Y-120470000D01*
X192993750Y-125360000D02*
X192993750Y-124710000D01*
X159656250Y-86482500D02*
X159656250Y-87132500D01*
X160776250Y-87132500D02*
X160776250Y-91372500D01*
X158536250Y-87132500D02*
X160776250Y-87132500D01*
X158536250Y-87732500D02*
X160776250Y-87732500D01*
X158536250Y-87852500D02*
X160776250Y-87852500D01*
X158536250Y-87972500D02*
X160776250Y-87972500D01*
X160776250Y-91372500D02*
X158536250Y-91372500D01*
X158536250Y-91372500D02*
X158536250Y-87132500D01*
X159656250Y-92022500D02*
X159656250Y-91372500D01*
X159656250Y-103151250D02*
X159656250Y-103801250D01*
X160776250Y-103801250D02*
X160776250Y-108041250D01*
X158536250Y-103801250D02*
X160776250Y-103801250D01*
X158536250Y-104401250D02*
X160776250Y-104401250D01*
X158536250Y-104521250D02*
X160776250Y-104521250D01*
X158536250Y-104641250D02*
X160776250Y-104641250D01*
X160776250Y-108041250D02*
X158536250Y-108041250D01*
X158536250Y-108041250D02*
X158536250Y-103801250D01*
X159656250Y-108691250D02*
X159656250Y-108041250D01*
X176325000Y-136488750D02*
X176325000Y-137138750D01*
X177445000Y-137138750D02*
X177445000Y-141378750D01*
X175205000Y-137138750D02*
X177445000Y-137138750D01*
X175205000Y-137738750D02*
X177445000Y-137738750D01*
X175205000Y-137858750D02*
X177445000Y-137858750D01*
X175205000Y-137978750D02*
X177445000Y-137978750D01*
X177445000Y-141378750D02*
X175205000Y-141378750D01*
X175205000Y-141378750D02*
X175205000Y-137138750D01*
X176325000Y-142028750D02*
X176325000Y-141378750D01*
%LPC*%
D15*
X137431250Y-103831250D03*
D16*
X142431250Y-98681250D03*
D17*
X137431250Y-109731250D03*
X132431250Y-107631250D03*
D15*
X170768750Y-137168750D03*
D16*
X175768750Y-132018750D03*
D17*
X170768750Y-143068750D03*
X165768750Y-140968750D03*
D15*
X137431250Y-87162500D03*
D16*
X142431250Y-82012500D03*
D17*
X137431250Y-93062500D03*
X132431250Y-90962500D03*
D15*
X154100000Y-120500000D03*
D16*
X159100000Y-115350000D03*
D17*
X154100000Y-126400000D03*
X149100000Y-124300000D03*
D15*
X170768750Y-120500000D03*
D16*
X175768750Y-115350000D03*
D17*
X170768750Y-126400000D03*
X165768750Y-124300000D03*
D15*
X187437500Y-120500000D03*
D16*
X192437500Y-115350000D03*
D17*
X187437500Y-126400000D03*
X182437500Y-124300000D03*
D15*
X170768750Y-103831250D03*
D16*
X175768750Y-98681250D03*
D17*
X170768750Y-109731250D03*
X165768750Y-107631250D03*
D15*
X187437500Y-87162500D03*
D16*
X192437500Y-82012500D03*
D17*
X187437500Y-93062500D03*
X182437500Y-90962500D03*
D15*
X137431250Y-120500000D03*
D16*
X142431250Y-115350000D03*
D17*
X137431250Y-126400000D03*
X132431250Y-124300000D03*
D18*
X159973750Y-52537500D03*
X162513750Y-52537500D03*
X165053750Y-52537500D03*
X167593750Y-52537500D03*
D15*
X154100000Y-87162500D03*
D16*
X159100000Y-82012500D03*
D17*
X154100000Y-93062500D03*
X149100000Y-90962500D03*
D19*
X124731250Y-143068750D03*
D15*
X187437500Y-103831250D03*
D16*
X192437500Y-98681250D03*
D17*
X187437500Y-109731250D03*
X182437500Y-107631250D03*
D15*
X170768750Y-87162500D03*
D16*
X175768750Y-82012500D03*
D17*
X170768750Y-93062500D03*
X165768750Y-90962500D03*
D15*
X137431250Y-137168750D03*
D16*
X142431250Y-132018750D03*
D17*
X137431250Y-143068750D03*
X132431250Y-140968750D03*
D15*
X154100000Y-103831250D03*
D16*
X159100000Y-98681250D03*
D17*
X154100000Y-109731250D03*
X149100000Y-107631250D03*
D15*
X187437500Y-137168750D03*
D16*
X192437500Y-132018750D03*
D17*
X187437500Y-143068750D03*
X182437500Y-140968750D03*
D15*
X154100000Y-137168750D03*
D16*
X159100000Y-132018750D03*
D17*
X154100000Y-143068750D03*
X149100000Y-140968750D03*
D20*
X184150000Y-58737500D03*
D19*
X200137500Y-143068750D03*
X124731250Y-54168750D03*
D21*
X176325000Y-85442500D03*
D22*
X176325000Y-93062500D03*
D21*
X192993750Y-102111250D03*
D22*
X192993750Y-109731250D03*
D21*
X159656250Y-135448750D03*
D22*
X159656250Y-143068750D03*
D21*
X142987500Y-102111250D03*
D22*
X142987500Y-109731250D03*
D21*
X159656250Y-118780000D03*
D22*
X159656250Y-126400000D03*
D21*
X192993750Y-85442500D03*
D22*
X192993750Y-93062500D03*
D21*
X192993750Y-135448750D03*
D22*
X192993750Y-143068750D03*
D21*
X142987500Y-135448750D03*
D22*
X142987500Y-143068750D03*
D21*
X142987500Y-85442500D03*
D22*
X142987500Y-93062500D03*
D21*
X176325000Y-102111250D03*
D22*
X176325000Y-109731250D03*
D19*
X200137500Y-54168750D03*
D23*
X192762500Y-52898750D03*
X192762500Y-55438750D03*
X192762500Y-57978750D03*
X192762500Y-60518750D03*
X192762500Y-63058750D03*
X192762500Y-65598750D03*
X192762500Y-68138750D03*
X175762500Y-68138750D03*
X175762500Y-65598750D03*
X175762500Y-63058750D03*
X175762500Y-60518750D03*
X175762500Y-57978750D03*
X175762500Y-55438750D03*
X175762500Y-52898750D03*
D24*
X185532500Y-52128750D03*
X182992500Y-52128750D03*
X185532500Y-54668750D03*
X182992500Y-54668750D03*
D25*
X185532500Y-69118750D03*
X182992500Y-69118750D03*
D21*
X142987500Y-118780000D03*
D22*
X142987500Y-126400000D03*
D21*
X176325000Y-118780000D03*
D22*
X176325000Y-126400000D03*
D21*
X192993750Y-118780000D03*
D22*
X192993750Y-126400000D03*
D21*
X159656250Y-85442500D03*
D22*
X159656250Y-93062500D03*
D21*
X159656250Y-102111250D03*
D22*
X159656250Y-109731250D03*
D21*
X176325000Y-135448750D03*
D22*
X176325000Y-143068750D03*
%LPD*%
M02*
