G04 #@! TF.GenerationSoftware,KiCad,Pcbnew,7.0.11*
G04 #@! TF.CreationDate,2024-09-20T17:57:02+02:00*
G04 #@! TF.ProjectId,macropad,6d616372-6f70-4616-942e-6b696361645f,rev?*
G04 #@! TF.SameCoordinates,Original*
G04 #@! TF.FileFunction,Soldermask,Bot*
G04 #@! TF.FilePolarity,Negative*
%FSLAX46Y46*%
G04 Gerber Fmt 4.6, Leading zero omitted, Abs format (unit mm)*
G04 Created by KiCad (PCBNEW 7.0.11) date 2024-09-20 17:57:02*
%MOMM*%
%LPD*%
G01*
G04 APERTURE LIST*
G04 Aperture macros list*
%AMRoundRect*
0 Rectangle with rounded corners*
0 $1 Rounding radius*
0 $2 $3 $4 $5 $6 $7 $8 $9 X,Y pos of 4 corners*
0 Add a 4 corners polygon primitive as box body*
4,1,4,$2,$3,$4,$5,$6,$7,$8,$9,$2,$3,0*
0 Add four circle primitives for the rounded corners*
1,1,$1+$1,$2,$3*
1,1,$1+$1,$4,$5*
1,1,$1+$1,$6,$7*
1,1,$1+$1,$8,$9*
0 Add four rect primitives between the rounded corners*
20,1,$1+$1,$2,$3,$4,$5,0*
20,1,$1+$1,$4,$5,$6,$7,0*
20,1,$1+$1,$6,$7,$8,$9,0*
20,1,$1+$1,$8,$9,$2,$3,0*%
G04 Aperture macros list end*
%ADD10C,5.000000*%
%ADD11C,1.650000*%
%ADD12C,1.350000*%
%ADD13O,1.600000X2.000000*%
%ADD14C,6.400000*%
%ADD15RoundRect,0.250000X-0.550000X-0.550000X0.550000X-0.550000X0.550000X0.550000X-0.550000X0.550000X0*%
%ADD16R,1.600000X1.600000*%
%ADD17O,1.600000X1.600000*%
%ADD18R,3.000000X2.000000*%
%ADD19C,1.500000*%
%ADD20R,1.300000X2.300000*%
G04 APERTURE END LIST*
D10*
X137431250Y-103831250D03*
D11*
X142431250Y-98681250D03*
D12*
X137431250Y-109731250D03*
X132431250Y-107631250D03*
D10*
X170768750Y-137168750D03*
D11*
X175768750Y-132018750D03*
D12*
X170768750Y-143068750D03*
X165768750Y-140968750D03*
D10*
X137431250Y-87162500D03*
D11*
X142431250Y-82012500D03*
D12*
X137431250Y-93062500D03*
X132431250Y-90962500D03*
D10*
X154100000Y-120500000D03*
D11*
X159100000Y-115350000D03*
D12*
X154100000Y-126400000D03*
X149100000Y-124300000D03*
D10*
X170768750Y-120500000D03*
D11*
X175768750Y-115350000D03*
D12*
X170768750Y-126400000D03*
X165768750Y-124300000D03*
D10*
X187437500Y-120500000D03*
D11*
X192437500Y-115350000D03*
D12*
X187437500Y-126400000D03*
X182437500Y-124300000D03*
D10*
X170768750Y-103831250D03*
D11*
X175768750Y-98681250D03*
D12*
X170768750Y-109731250D03*
X165768750Y-107631250D03*
D10*
X187437500Y-87162500D03*
D11*
X192437500Y-82012500D03*
D12*
X187437500Y-93062500D03*
X182437500Y-90962500D03*
D10*
X137431250Y-120500000D03*
D11*
X142431250Y-115350000D03*
D12*
X137431250Y-126400000D03*
X132431250Y-124300000D03*
D13*
X159973750Y-52537500D03*
X162513750Y-52537500D03*
X165053750Y-52537500D03*
X167593750Y-52537500D03*
D10*
X154100000Y-87162500D03*
D11*
X159100000Y-82012500D03*
D12*
X154100000Y-93062500D03*
X149100000Y-90962500D03*
D14*
X124731250Y-143068750D03*
D10*
X187437500Y-103831250D03*
D11*
X192437500Y-98681250D03*
D12*
X187437500Y-109731250D03*
X182437500Y-107631250D03*
D10*
X170768750Y-87162500D03*
D11*
X175768750Y-82012500D03*
D12*
X170768750Y-93062500D03*
X165768750Y-90962500D03*
D10*
X137431250Y-137168750D03*
D11*
X142431250Y-132018750D03*
D12*
X137431250Y-143068750D03*
X132431250Y-140968750D03*
D10*
X154100000Y-103831250D03*
D11*
X159100000Y-98681250D03*
D12*
X154100000Y-109731250D03*
X149100000Y-107631250D03*
D10*
X187437500Y-137168750D03*
D11*
X192437500Y-132018750D03*
D12*
X187437500Y-143068750D03*
X182437500Y-140968750D03*
D10*
X154100000Y-137168750D03*
D11*
X159100000Y-132018750D03*
D12*
X154100000Y-143068750D03*
X149100000Y-140968750D03*
D15*
X184150000Y-58737500D03*
D14*
X200137500Y-143068750D03*
X124731250Y-54168750D03*
D16*
X176325000Y-85442500D03*
D17*
X176325000Y-93062500D03*
D16*
X192993750Y-102111250D03*
D17*
X192993750Y-109731250D03*
D16*
X159656250Y-135448750D03*
D17*
X159656250Y-143068750D03*
D16*
X142987500Y-102111250D03*
D17*
X142987500Y-109731250D03*
D16*
X159656250Y-118780000D03*
D17*
X159656250Y-126400000D03*
D16*
X192993750Y-85442500D03*
D17*
X192993750Y-93062500D03*
D16*
X192993750Y-135448750D03*
D17*
X192993750Y-143068750D03*
D16*
X142987500Y-135448750D03*
D17*
X142987500Y-143068750D03*
D16*
X142987500Y-85442500D03*
D17*
X142987500Y-93062500D03*
D16*
X176325000Y-102111250D03*
D17*
X176325000Y-109731250D03*
D14*
X200137500Y-54168750D03*
D18*
X192762500Y-52898750D03*
X192762500Y-55438750D03*
X192762500Y-57978750D03*
X192762500Y-60518750D03*
X192762500Y-63058750D03*
X192762500Y-65598750D03*
X192762500Y-68138750D03*
X175762500Y-68138750D03*
X175762500Y-65598750D03*
X175762500Y-63058750D03*
X175762500Y-60518750D03*
X175762500Y-57978750D03*
X175762500Y-55438750D03*
X175762500Y-52898750D03*
D19*
X185532500Y-52128750D03*
X182992500Y-52128750D03*
X185532500Y-54668750D03*
X182992500Y-54668750D03*
D20*
X185532500Y-69118750D03*
X182992500Y-69118750D03*
D16*
X142987500Y-118780000D03*
D17*
X142987500Y-126400000D03*
D16*
X176325000Y-118780000D03*
D17*
X176325000Y-126400000D03*
D16*
X192993750Y-118780000D03*
D17*
X192993750Y-126400000D03*
D16*
X159656250Y-85442500D03*
D17*
X159656250Y-93062500D03*
D16*
X159656250Y-102111250D03*
D17*
X159656250Y-109731250D03*
D16*
X176325000Y-135448750D03*
D17*
X176325000Y-143068750D03*
M02*
